<svg width="10" height="21" viewBox="0 0 10 21" fill="none" xmlns="http://www.w3.org/2000/svg">
<path d="M6.52344 4.82617V7.13086H9.66797C9.62891 7.65169 9.57682 8.19206 9.51172 8.75195C9.44661 9.31185 9.39453 9.74805 9.35547 10.0605L9.27734 10.5098H6.50391V20.5098H2.36328V10.5098H0.351562V7.13086H2.36328V4.37695C2.36328 4.2207 2.36328 4.09375 2.36328 3.99609C2.36328 3.89844 2.38932 3.69987 2.44141 3.40039C2.49349 3.10091 2.5651 2.84701 2.65625 2.63867C2.7474 2.43034 2.89714 2.17969 3.10547 1.88672C3.3138 1.59375 3.56445 1.35612 3.85742 1.17383C4.15039 0.991537 4.53451 0.835287 5.00977 0.705078C5.48503 0.574869 6.01562 0.509766 6.60156 0.509766H9.66797V4.00586H7.42188C7.20052 4.00586 6.99544 4.09701 6.80664 4.2793C6.61784 4.46159 6.52344 4.64388 6.52344 4.82617Z" fill="white"/>
</svg>
