<svg width="20" height="21" viewBox="0 0 20 21" fill="none" xmlns="http://www.w3.org/2000/svg">
<path d="M11.5234 4.82617V7.13086H14.668C14.6289 7.65169 14.5768 8.19206 14.5117 8.75195C14.4466 9.31185 14.3945 9.74805 14.3555 10.0605L14.2773 10.5098H11.5039V20.5098H7.36328V10.5098H5.35156V7.13086H7.36328V4.37695C7.36328 4.2207 7.36328 4.09375 7.36328 3.99609C7.36328 3.89844 7.38932 3.69987 7.44141 3.40039C7.49349 3.10091 7.5651 2.84701 7.65625 2.63867C7.7474 2.43034 7.89714 2.17969 8.10547 1.88672C8.3138 1.59375 8.56445 1.35612 8.85742 1.17383C9.15039 0.991537 9.53451 0.835287 10.0098 0.705078C10.485 0.574869 11.0156 0.509766 11.6016 0.509766H14.668V4.00586H12.4219C12.2005 4.00586 11.9954 4.09701 11.8066 4.2793C11.6178 4.46159 11.5234 4.64388 11.5234 4.82617Z" fill="white"/>
</svg>
