<svg xmlns="http://www.w3.org/2000/svg" xmlns:xlink="http://www.w3.org/1999/xlink" width="1080" zoomAndPan="magnify" viewBox="0 0 810 809.999993" height="1080" preserveAspectRatio="xMidYMid meet" version="1.0"><rect x="-81" width="972" fill="#ffffff" y="-80.999999" height="971.999992" fill-opacity="1"/><rect x="-81" width="972" fill="#ffffff" y="-80.999999" height="971.999992" fill-opacity="1"/><path fill="#58595b" d="M 161.246094 462.472656 L 166.816406 462.472656 L 166.816406 475.75 L 181.296875 475.75 L 181.296875 462.472656 L 186.867188 462.472656 L 186.867188 494.207031 L 181.296875 494.207031 L 181.296875 480.816406 L 166.59375 480.816406 L 166.59375 494.207031 L 161.023438 494.207031 Z M 196.113281 478.429688 C 196.113281 474.027344 197.789062 469.804688 200.765625 466.695312 C 203.742188 463.582031 207.78125 461.832031 211.988281 461.832031 C 216.199219 461.832031 220.238281 463.582031 223.214844 466.695312 C 226.191406 469.804688 227.863281 474.027344 227.863281 478.429688 C 227.863281 482.828125 226.191406 487.050781 223.214844 490.164062 C 220.238281 493.273438 216.199219 495.023438 211.988281 495.023438 C 207.78125 495.023438 203.742188 493.273438 200.765625 490.164062 C 197.789062 487.050781 196.113281 482.828125 196.113281 478.429688 Z M 222.238281 478.429688 C 222.292969 476.976562 222.0625 475.53125 221.570312 474.171875 C 221.078125 472.8125 220.328125 471.574219 219.367188 470.527344 C 218.402344 469.476562 217.25 468.640625 215.972656 468.070312 C 214.699219 467.496094 213.324219 467.195312 211.933594 467.191406 C 210.550781 467.1875 209.183594 467.480469 207.914062 468.046875 C 206.644531 468.617188 205.496094 469.449219 204.542969 470.496094 C 203.589844 471.539062 202.847656 472.777344 202.367188 474.132812 C 201.886719 475.484375 201.671875 476.925781 201.742188 478.371094 C 201.6875 479.820312 201.914062 481.269531 202.410156 482.625 C 202.902344 483.984375 203.652344 485.222656 204.613281 486.273438 C 205.574219 487.320312 206.730469 488.15625 208.007812 488.730469 C 209.28125 489.300781 210.65625 489.601562 212.046875 489.609375 C 213.445312 489.640625 214.839844 489.375 216.136719 488.820312 C 217.433594 488.265625 218.605469 487.4375 219.582031 486.390625 C 220.5625 485.339844 221.320312 484.09375 221.816406 482.722656 C 222.3125 481.351562 222.53125 479.890625 222.460938 478.429688 Z M 243.796875 467.65625 L 234.214844 467.65625 L 234.214844 462.472656 L 258.835938 462.472656 L 258.835938 467.65625 L 249.199219 467.65625 L 249.199219 494.207031 L 243.628906 494.207031 Z M 267.914062 462.472656 L 290.195312 462.472656 L 290.195312 467.480469 L 273.261719 467.480469 L 273.261719 475.75 L 288.46875 475.75 L 288.46875 480.757812 L 273.261719 480.757812 L 273.261719 489.257812 L 290.808594 489.257812 L 290.808594 494.265625 L 267.914062 494.265625 Z M 300.445312 462.472656 L 306.015625 462.472656 L 306.015625 489.140625 L 321.945312 489.140625 L 321.945312 494.207031 L 300.445312 494.207031 Z M 328.742188 489.550781 L 331.917969 485.589844 C 334.492188 488.191406 337.917969 489.667969 341.5 489.722656 C 344.785156 489.722656 347.070312 488.09375 347.070312 485.707031 C 347.070312 483.4375 345.84375 482.214844 340.21875 480.816406 C 333.753906 479.183594 330.078125 477.207031 330.078125 471.382812 C 330.140625 470.050781 330.460938 468.746094 331.023438 467.550781 C 331.585938 466.355469 332.378906 465.292969 333.347656 464.429688 C 334.320312 463.570312 335.453125 462.921875 336.671875 462.539062 C 337.890625 462.148438 339.171875 462.03125 340.441406 462.183594 C 344.496094 462.0625 348.457031 463.492188 351.582031 466.199219 L 348.738281 470.394531 C 346.398438 468.40625 343.507812 467.261719 340.496094 467.132812 C 337.375 467.132812 335.539062 468.820312 335.539062 470.917969 C 335.539062 473.363281 336.929688 474.46875 342.78125 475.925781 C 348.628906 477.378906 352.082031 479.824219 352.082031 485.066406 C 352.082031 490.890625 347.625 494.558594 341.277344 494.558594 C 336.648438 494.582031 332.175781 492.796875 328.742188 489.550781 Z M 395.417969 490.539062 C 392.96875 493.125 389.652344 494.605469 386.171875 494.671875 C 384.941406 494.8125 383.695312 494.679688 382.515625 494.289062 C 381.332031 493.898438 380.242188 493.253906 379.3125 492.402344 C 378.378906 491.546875 377.628906 490.503906 377.101562 489.332031 C 376.574219 488.15625 376.289062 486.882812 376.257812 485.589844 C 376.296875 483.589844 376.945312 481.652344 378.105469 480.0625 C 379.265625 478.472656 380.882812 477.308594 382.71875 476.738281 C 381 474.917969 380.003906 472.484375 379.933594 469.925781 C 379.972656 468.792969 380.234375 467.675781 380.703125 466.648438 C 381.171875 465.625 381.835938 464.710938 382.65625 463.960938 C 383.476562 463.214844 384.433594 462.652344 385.46875 462.304688 C 386.503906 461.957031 387.597656 461.839844 388.679688 461.949219 C 389.695312 461.871094 390.714844 462.007812 391.675781 462.351562 C 392.640625 462.699219 393.523438 463.242188 394.28125 463.957031 C 395.035156 464.667969 395.644531 465.535156 396.070312 466.5 C 396.496094 467.46875 396.726562 468.515625 396.753906 469.578125 C 396.753906 473.710938 394.082031 476.214844 390.070312 477.789062 L 395.25 483.320312 C 396.492188 481.371094 397.589844 479.328125 398.539062 477.207031 L 402.546875 479.417969 C 401.386719 481.949219 400.003906 484.367188 398.425781 486.636719 L 403.21875 491.703125 L 399.261719 494.730469 Z M 392.410156 487.394531 L 385.503906 480.058594 C 384.390625 480.382812 383.398438 481.0625 382.671875 482 C 381.941406 482.9375 381.511719 484.09375 381.4375 485.300781 C 381.464844 485.953125 381.621094 486.597656 381.894531 487.191406 C 382.164062 487.78125 382.550781 488.308594 383.027344 488.738281 C 383.5 489.167969 384.054688 489.492188 384.652344 489.695312 C 385.25 489.894531 385.882812 489.964844 386.507812 489.898438 C 388.710938 489.90625 390.832031 489.007812 392.410156 487.394531 Z M 392.410156 469.925781 C 392.433594 469.445312 392.363281 468.964844 392.195312 468.515625 C 392.03125 468.066406 391.777344 467.660156 391.453125 467.320312 C 391.128906 466.976562 390.738281 466.714844 390.308594 466.539062 C 389.875 466.367188 389.417969 466.292969 388.957031 466.316406 C 388.46875 466.292969 387.984375 466.375 387.53125 466.558594 C 387.074219 466.742188 386.664062 467.027344 386.320312 467.390625 C 385.980469 467.753906 385.714844 468.1875 385.546875 468.664062 C 385.375 469.140625 385.304688 469.652344 385.335938 470.160156 C 385.394531 471.066406 385.625 471.949219 386.019531 472.761719 C 386.410156 473.570312 386.957031 474.292969 387.621094 474.875 C 390.574219 473.769531 392.242188 472.257812 392.242188 469.925781 Z M 428.5625 462.472656 L 442.097656 462.472656 C 445.292969 462.292969 448.429688 463.421875 450.84375 465.617188 C 452.511719 467.472656 453.414062 469.941406 453.347656 472.488281 C 453.421875 474.71875 452.742188 476.902344 451.429688 478.660156 C 450.113281 480.414062 448.25 481.632812 446.164062 482.097656 L 454.351562 494.089844 L 448.058594 494.089844 L 440.59375 483.027344 L 433.910156 483.027344 L 433.910156 494.089844 L 428.339844 494.089844 Z M 441.707031 478.195312 C 445.496094 478.195312 447.945312 476.097656 447.945312 472.898438 C 447.945312 469.519531 445.605469 467.65625 441.652344 467.65625 L 433.910156 467.65625 L 433.910156 478.3125 Z M 463.488281 462.472656 L 485.769531 462.472656 L 485.769531 467.480469 L 468.722656 467.480469 L 468.722656 475.75 L 483.929688 475.75 L 483.929688 480.757812 L 468.722656 480.757812 L 468.722656 489.257812 L 486.101562 489.257812 L 486.101562 494.265625 L 463.488281 494.265625 Z M 493.84375 489.550781 L 497.074219 485.589844 C 499.652344 488.191406 503.078125 489.667969 506.65625 489.722656 C 509.941406 489.722656 512.230469 488.09375 512.230469 485.707031 C 512.230469 483.4375 511.058594 482.214844 505.375 480.816406 C 499.695312 479.417969 495.296875 477.207031 495.296875 471.382812 C 495.355469 470.050781 495.671875 468.746094 496.238281 467.550781 C 496.800781 466.355469 497.589844 465.292969 498.566406 464.429688 C 499.535156 463.570312 500.664062 462.921875 501.882812 462.539062 C 503.101562 462.148438 504.386719 462.03125 505.65625 462.183594 C 509.710938 462.0625 513.667969 463.492188 516.796875 466.199219 L 513.894531 470.394531 C 511.574219 468.417969 508.703125 467.273438 505.710938 467.132812 C 502.59375 467.132812 500.753906 468.820312 500.753906 470.917969 C 500.753906 473.363281 502.144531 474.46875 507.996094 475.925781 C 513.84375 477.378906 517.6875 479.941406 517.6875 485.183594 C 517.6875 491.003906 513.230469 494.671875 506.878906 494.671875 C 502.066406 494.789062 497.394531 492.953125 493.84375 489.550781 Z M 525.761719 478.429688 C 525.761719 474.027344 527.4375 469.804688 530.410156 466.695312 C 533.390625 463.582031 537.429688 461.832031 541.636719 461.832031 C 545.847656 461.832031 549.886719 463.582031 552.863281 466.695312 C 555.84375 469.804688 557.515625 474.027344 557.515625 478.429688 C 557.515625 482.828125 555.84375 487.050781 552.863281 490.164062 C 549.886719 493.273438 545.847656 495.023438 541.636719 495.023438 C 537.429688 495.023438 533.390625 493.273438 530.410156 490.164062 C 527.4375 487.050781 525.761719 482.828125 525.761719 478.429688 Z M 551.890625 478.429688 C 551.953125 476.957031 551.738281 475.488281 551.238281 474.109375 C 550.75 472.730469 549.992188 471.46875 549.019531 470.40625 C 548.042969 469.34375 546.867188 468.5 545.570312 467.929688 C 544.273438 467.355469 542.882812 467.0625 541.46875 467.074219 C 540.089844 467.070312 538.722656 467.363281 537.453125 467.933594 C 536.179688 468.5 535.035156 469.332031 534.078125 470.378906 C 533.125 471.421875 532.386719 472.660156 531.90625 474.015625 C 531.425781 475.367188 531.207031 476.8125 531.277344 478.253906 C 531.21875 479.699219 531.433594 481.144531 531.921875 482.5 C 532.402344 483.855469 533.140625 485.097656 534.089844 486.152344 C 535.042969 487.207031 536.183594 488.046875 537.453125 488.632812 C 538.722656 489.214844 540.089844 489.527344 541.46875 489.550781 C 542.867188 489.582031 544.253906 489.316406 545.546875 488.765625 C 546.839844 488.214844 548.011719 487.394531 548.988281 486.351562 C 549.960938 485.308594 550.722656 484.066406 551.226562 482.703125 C 551.722656 481.339844 551.949219 479.886719 551.890625 478.429688 Z M 567.425781 462.472656 L 580.964844 462.472656 C 584.160156 462.28125 587.300781 463.410156 589.710938 465.617188 C 591.378906 467.472656 592.277344 469.941406 592.21875 472.488281 C 592.285156 474.71875 591.609375 476.902344 590.296875 478.660156 C 588.984375 480.414062 587.121094 481.632812 585.03125 482.097656 L 593.214844 494.089844 L 586.921875 494.089844 L 579.457031 483.027344 L 572.777344 483.027344 L 572.777344 494.089844 L 567.207031 494.089844 Z M 580.574219 478.195312 C 584.359375 478.195312 586.8125 476.097656 586.8125 472.898438 C 586.8125 469.519531 584.472656 467.65625 580.519531 467.65625 L 572.777344 467.65625 L 572.777344 478.3125 Z M 609.59375 467.65625 L 599.957031 467.65625 L 599.957031 462.472656 L 624.582031 462.472656 L 624.582031 467.65625 L 614.945312 467.65625 L 614.945312 494.207031 L 609.375 494.207031 Z M 630.984375 489.550781 L 634.214844 485.589844 C 636.789062 488.191406 640.21875 489.667969 643.796875 489.722656 C 647.082031 489.722656 649.367188 488.09375 649.367188 485.707031 C 649.367188 483.4375 648.199219 482.214844 642.515625 480.816406 C 636.835938 479.417969 632.433594 477.207031 632.433594 471.382812 C 632.492188 470.050781 632.8125 468.746094 633.378906 467.550781 C 633.9375 466.355469 634.730469 465.292969 635.703125 464.429688 C 636.671875 463.570312 637.804688 462.921875 639.023438 462.539062 C 640.246094 462.148438 641.527344 462.03125 642.792969 462.183594 C 646.851562 462.0625 650.808594 463.492188 653.9375 466.199219 L 651.039062 470.394531 C 648.714844 468.417969 645.84375 467.273438 642.847656 467.132812 C 639.675781 467.132812 637.890625 468.820312 637.890625 470.917969 C 637.890625 473.363281 639.285156 474.46875 645.132812 475.925781 C 650.980469 477.378906 654.824219 479.941406 654.824219 485.183594 C 654.824219 491.003906 650.371094 494.671875 644.019531 494.671875 C 639.203125 494.789062 634.535156 492.953125 630.984375 489.550781 Z M 95.125 314.285156 L 110.054688 314.285156 L 128.824219 375.191406 L 148.15625 314.054688 L 159.851562 314.054688 L 179.402344 375.191406 L 197.898438 314.285156 L 212.378906 314.285156 L 184.972656 397.027344 L 173.054688 397.027344 L 153.78125 337.984375 L 134.453125 397.027344 L 122.53125 397.027344 Z M 247.417969 364.070312 L 216.222656 314.285156 L 232.488281 314.285156 L 254.492188 350.679688 L 276.773438 314.285156 L 292.59375 314.285156 L 261.34375 363.71875 L 261.34375 396.445312 L 247.417969 396.445312 Z M 300.222656 314.285156 L 313.089844 314.285156 L 355.144531 370.941406 L 355.144531 314.285156 L 368.792969 314.285156 L 368.792969 396.445312 L 357.152344 396.445312 L 313.816406 338.21875 L 313.816406 396.445312 L 300.222656 396.445312 Z M 386.730469 314.285156 L 416.027344 314.285156 C 440.761719 314.285156 457.804688 331.753906 457.804688 355.042969 C 457.804688 378.335938 440.761719 395.804688 416.027344 395.804688 L 386.730469 395.804688 Z M 416.027344 383.285156 C 419.601562 383.53125 423.1875 382.992188 426.550781 381.699219 C 429.910156 380.410156 432.976562 378.394531 435.550781 375.789062 C 438.121094 373.183594 440.140625 370.042969 441.480469 366.570312 C 442.820312 363.097656 443.449219 359.367188 443.324219 355.628906 C 443.460938 351.867188 442.847656 348.121094 441.515625 344.625 C 440.183594 341.128906 438.167969 337.964844 435.597656 335.332031 C 433.027344 332.699219 429.960938 330.660156 426.589844 329.339844 C 423.21875 328.023438 419.621094 327.457031 416.027344 327.679688 L 400.542969 327.679688 L 400.542969 383.519531 Z M 472.289062 314.285156 L 486.101562 314.285156 L 486.101562 348.464844 L 523.644531 348.464844 L 523.644531 314.285156 L 537.457031 314.285156 L 537.457031 396.445312 L 523.644531 396.445312 L 523.644531 361.800781 L 486.101562 361.800781 L 486.101562 396.445312 L 472.289062 396.445312 Z M 583.304688 313.703125 L 596.058594 313.703125 L 630.59375 396.445312 L 616 396.445312 L 608.316406 376.761719 L 571.160156 376.761719 L 563.085938 396.5625 L 548.714844 396.5625 Z M 603.019531 363.835938 L 589.429688 330.9375 L 575.953125 363.835938 Z M 639.675781 314.285156 L 654.378906 314.285156 L 678.273438 353.125 L 702.230469 314.285156 L 716.933594 314.285156 L 716.933594 396.445312 L 703.007812 396.445312 L 703.007812 337.519531 L 678.167969 376.238281 L 677.71875 376.238281 L 653.265625 337.75 L 653.265625 396.445312 L 639.675781 396.445312 Z M 639.675781 314.285156 " fill-opacity="1" fill-rule="nonzero"/><path fill="#58595b" d="M 16.640625 444.539062 C 16.640625 444.539062 122.476562 410.011719 405.445312 410.011719 C 690.417969 410.011719 795.808594 444.367188 795.808594 444.367188 C 795.808594 444.367188 666.917969 420.785156 405.445312 420.785156 C 143.976562 420.785156 16.640625 444.539062 16.640625 444.539062 Z M 16.640625 444.539062 " fill-opacity="1" fill-rule="evenodd"/></svg>