<svg xmlns="http://www.w3.org/2000/svg" xmlns:xlink="http://www.w3.org/1999/xlink" width="1080" zoomAndPan="magnify" viewBox="0 0 810 809.999993" height="1080" preserveAspectRatio="xMidYMid meet" version="1.0"><rect x="-81" width="972" fill="#ffffff" y="-80.999999" height="971.999992" fill-opacity="1"/><rect x="-81" width="972" fill="#ffffff" y="-80.999999" height="971.999992" fill-opacity="1"/><path fill="#58595b" d="M 588.679688 466.289062 L 220.988281 466.289062 C 219.300781 466.246094 217.632812 466.035156 215.988281 465.648438 C 214.34375 465.261719 212.757812 464.707031 211.226562 463.992188 C 209.695312 463.277344 208.253906 462.410156 206.902344 461.394531 C 205.550781 460.382812 204.320312 459.238281 203.207031 457.96875 C 202.007812 456.59375 200.941406 455.121094 200.011719 453.554688 C 199.078125 451.988281 198.296875 450.347656 197.664062 448.640625 C 197.03125 446.929688 196.554688 445.175781 196.242188 443.378906 C 195.925781 441.582031 195.773438 439.773438 195.789062 437.949219 L 195.789062 372.191406 C 195.789062 356.5 207.152344 343.664062 220.988281 343.664062 L 589.011719 343.664062 C 590.699219 343.707031 592.367188 343.921875 594.007812 344.3125 C 595.652344 344.699219 597.242188 345.25 598.769531 345.964844 C 600.300781 346.683594 601.742188 347.546875 603.09375 348.5625 C 604.445312 349.574219 605.679688 350.714844 606.792969 351.984375 C 607.996094 353.359375 609.0625 354.835938 609.996094 356.40625 C 610.929688 357.976562 611.710938 359.621094 612.34375 361.335938 C 612.980469 363.050781 613.453125 364.804688 613.765625 366.605469 C 614.078125 368.40625 614.226562 370.222656 614.210938 372.046875 L 614.210938 437.949219 C 614.257812 439.777344 614.128906 441.59375 613.832031 443.394531 C 613.53125 445.199219 613.0625 446.957031 612.429688 448.671875 C 611.792969 450.386719 611 452.027344 610.054688 453.589844 C 609.105469 455.152344 608.019531 456.613281 606.792969 457.96875 C 605.652344 459.246094 604.390625 460.398438 603.011719 461.417969 C 601.632812 462.4375 600.164062 463.304688 598.605469 464.019531 C 597.046875 464.734375 595.429688 465.285156 593.757812 465.667969 C 592.085938 466.050781 590.394531 466.257812 588.679688 466.289062 Z M 220.988281 346.324219 C 208.390625 346.324219 198.261719 358.023438 198.261719 372.476562 L 198.261719 438.28125 C 198.246094 439.960938 198.382812 441.625 198.667969 443.277344 C 198.957031 444.929688 199.386719 446.542969 199.964844 448.121094 C 200.539062 449.695312 201.253906 451.207031 202.101562 452.652344 C 202.949219 454.101562 203.921875 455.460938 205.011719 456.730469 C 205.992188 457.910156 207.082031 458.96875 208.289062 459.910156 C 209.492188 460.851562 210.785156 461.65625 212.164062 462.320312 C 213.542969 462.984375 214.976562 463.496094 216.460938 463.851562 C 217.949219 464.207031 219.460938 464.402344 220.988281 464.433594 L 589.011719 464.433594 C 590.539062 464.398438 592.046875 464.203125 593.535156 463.84375 C 595.023438 463.488281 596.453125 462.976562 597.832031 462.3125 C 599.210938 461.648438 600.503906 460.84375 601.707031 459.90625 C 602.914062 458.964844 604.007812 457.90625 604.988281 456.730469 C 606.078125 455.460938 607.050781 454.101562 607.898438 452.652344 C 608.746094 451.207031 609.460938 449.695312 610.035156 448.121094 C 610.613281 446.542969 611.042969 444.929688 611.328125 443.277344 C 611.617188 441.625 611.753906 439.960938 611.738281 438.28125 L 611.738281 372.191406 C 611.753906 370.515625 611.617188 368.847656 611.328125 367.195312 C 611.042969 365.542969 610.613281 363.929688 610.035156 362.355469 C 609.460938 360.78125 608.746094 359.269531 607.898438 357.820312 C 607.050781 356.375 606.078125 355.015625 604.988281 353.742188 C 604.007812 352.566406 602.914062 351.511719 601.707031 350.570312 C 600.503906 349.628906 599.210938 348.828125 597.832031 348.164062 C 596.453125 347.496094 595.023438 346.988281 593.535156 346.628906 C 592.046875 346.273438 590.539062 346.074219 589.011719 346.039062 L 220.988281 346.039062 Z M 220.988281 346.324219 " fill-opacity="1" fill-rule="nonzero"/><path fill="#58595b" d="M 603.417969 355.597656 C 602.523438 354.503906 601.519531 353.519531 600.410156 352.644531 C 599.300781 351.773438 598.109375 351.027344 596.835938 350.417969 C 595.5625 349.804688 594.238281 349.339844 592.859375 349.015625 C 591.484375 348.695312 590.089844 348.527344 588.679688 348.511719 L 220.988281 348.511719 C 209.625 348.511719 200.117188 359.257812 200.117188 372.285156 L 200.117188 437.949219 C 200.082031 439.464844 200.191406 440.96875 200.441406 442.460938 C 200.6875 443.953125 201.078125 445.410156 201.601562 446.832031 C 202.125 448.25 202.78125 449.609375 203.5625 450.90625 C 204.34375 452.203125 205.238281 453.417969 206.25 454.542969 C 207.136719 455.644531 208.136719 456.636719 209.242188 457.515625 C 210.351562 458.394531 211.542969 459.140625 212.820312 459.753906 C 214.09375 460.363281 215.421875 460.828125 216.800781 461.144531 C 218.179688 461.464844 219.574219 461.625 220.988281 461.628906 L 589.011719 461.628906 C 590.421875 461.613281 591.816406 461.445312 593.195312 461.125 C 594.570312 460.804688 595.894531 460.335938 597.167969 459.726562 C 598.441406 459.113281 599.632812 458.371094 600.742188 457.496094 C 601.855469 456.621094 602.855469 455.636719 603.75 454.542969 C 605.746094 452.242188 607.273438 449.664062 608.332031 446.808594 C 609.386719 443.949219 609.90625 440.996094 609.882812 437.949219 L 609.882812 372.191406 C 609.816406 369.132812 609.222656 366.175781 608.113281 363.324219 C 607 360.472656 605.4375 357.898438 603.417969 355.597656 Z M 606.507812 437.949219 C 606.550781 438.574219 606.5625 439.199219 606.546875 439.828125 C 606.527344 440.453125 606.476562 441.078125 606.398438 441.699219 C 606.316406 442.320312 606.207031 442.9375 606.066406 443.546875 C 605.925781 444.15625 605.753906 444.757812 605.554688 445.351562 C 605.355469 445.945312 605.125 446.527344 604.867188 447.101562 C 604.609375 447.671875 604.324219 448.226562 604.011719 448.769531 C 603.699219 449.3125 603.359375 449.839844 602.992188 450.347656 C 602.628906 450.859375 602.238281 451.347656 601.824219 451.820312 C 601.410156 452.289062 600.976562 452.738281 600.519531 453.167969 C 600.0625 453.59375 599.582031 454 599.085938 454.378906 C 598.585938 454.757812 598.070312 455.113281 597.539062 455.445312 C 597.007812 455.773438 596.457031 456.074219 595.894531 456.351562 C 595.332031 456.628906 594.757812 456.875 594.171875 457.09375 C 593.582031 457.3125 592.988281 457.5 592.382812 457.660156 C 591.773438 457.820312 591.164062 457.949219 590.542969 458.046875 C 589.925781 458.148438 589.304688 458.214844 588.679688 458.253906 L 220.988281 458.253906 C 220.371094 458.214844 219.757812 458.148438 219.144531 458.050781 C 218.535156 457.953125 217.929688 457.824219 217.328125 457.667969 C 216.730469 457.511719 216.140625 457.324219 215.558594 457.109375 C 214.980469 456.894531 214.410156 456.652344 213.851562 456.382812 C 213.296875 456.113281 212.753906 455.816406 212.226562 455.492188 C 211.695312 455.167969 211.183594 454.820312 210.691406 454.449219 C 210.195312 454.074219 209.722656 453.679688 209.265625 453.257812 C 208.8125 452.839844 208.378906 452.398438 207.964844 451.9375 C 207.554688 451.476562 207.164062 450.992188 206.796875 450.492188 C 206.433594 449.996094 206.09375 449.476562 205.777344 448.945312 C 205.460938 448.410156 205.175781 447.863281 204.914062 447.304688 C 204.652344 446.742188 204.417969 446.167969 204.210938 445.585938 C 204.007812 445 203.828125 444.410156 203.683594 443.808594 C 203.535156 443.207031 203.417969 442.597656 203.328125 441.984375 C 203.238281 441.371094 203.179688 440.757812 203.152344 440.136719 C 203.125 439.519531 203.125 438.902344 203.160156 438.28125 L 203.160156 372.191406 C 203.125 371.570312 203.117188 370.945312 203.144531 370.324219 C 203.167969 369.699219 203.222656 369.078125 203.308594 368.460938 C 203.394531 367.84375 203.507812 367.230469 203.652344 366.625 C 203.796875 366.019531 203.96875 365.421875 204.171875 364.832031 C 204.375 364.242188 204.605469 363.664062 204.867188 363.097656 C 205.125 362.527344 205.410156 361.976562 205.722656 361.4375 C 206.035156 360.898438 206.375 360.375 206.738281 359.867188 C 207.101562 359.359375 207.488281 358.871094 207.898438 358.402344 C 208.308594 357.933594 208.742188 357.484375 209.195312 357.058594 C 209.648438 356.632812 210.125 356.226562 210.617188 355.847656 C 211.113281 355.464844 211.621094 355.109375 212.152344 354.777344 C 212.679688 354.449219 213.222656 354.140625 213.78125 353.863281 C 214.335938 353.585938 214.90625 353.335938 215.488281 353.109375 C 216.070312 352.886719 216.664062 352.691406 217.265625 352.527344 C 217.867188 352.363281 218.472656 352.226562 219.085938 352.117188 C 219.703125 352.011719 220.320312 351.933594 220.941406 351.886719 L 588.964844 351.886719 C 589.582031 351.929688 590.199219 351.996094 590.808594 352.097656 C 591.421875 352.195312 592.027344 352.324219 592.628906 352.484375 C 593.226562 352.644531 593.820312 352.832031 594.398438 353.046875 C 594.980469 353.265625 595.550781 353.507812 596.109375 353.78125 C 596.664062 354.054688 597.207031 354.351562 597.734375 354.679688 C 598.265625 355.003906 598.773438 355.355469 599.269531 355.730469 C 599.761719 356.105469 600.238281 356.503906 600.691406 356.925781 C 601.148438 357.347656 601.578125 357.789062 601.992188 358.253906 C 602.402344 358.71875 602.789062 359.203125 603.15625 359.703125 C 603.519531 360.207031 603.859375 360.726562 604.171875 361.261719 C 604.484375 361.796875 604.769531 362.34375 605.03125 362.910156 C 605.289062 363.472656 605.523438 364.046875 605.726562 364.632812 C 605.929688 365.21875 606.101562 365.8125 606.25 366.417969 C 606.394531 367.019531 606.507812 367.628906 606.59375 368.242188 C 606.679688 368.859375 606.734375 369.476562 606.761719 370.09375 C 606.785156 370.714844 606.78125 371.335938 606.746094 371.953125 L 606.746094 437.949219 Z M 606.507812 437.949219 " fill-opacity="1" fill-rule="nonzero"/><path fill="#58595b" d="M 418.027344 364.773438 C 419.882812 364.773438 419.597656 367.246094 419.597656 367.246094 L 419.597656 413.652344 C 419.597656 418.40625 419.597656 420.785156 422.6875 422.59375 C 423.304688 423.828125 422.355469 424.78125 420.832031 424.78125 L 406.996094 424.78125 C 406.804688 424.78125 406.621094 424.742188 406.445312 424.671875 C 406.265625 424.601562 406.109375 424.496094 405.972656 424.363281 C 405.832031 424.230469 405.726562 424.078125 405.648438 423.902344 C 405.570312 423.726562 405.527344 423.542969 405.523438 423.351562 C 405.453125 423.097656 405.453125 422.847656 405.523438 422.59375 C 406.140625 421.6875 409.515625 421.070312 409.515625 417.363281 L 409.515625 372.191406 C 409.230469 369.71875 408.613281 368.484375 406.757812 367.863281 C 406.140625 367.246094 405.523438 366.914062 405.238281 366.011719 C 404.953125 365.105469 405.238281 364.773438 406.140625 364.773438 Z M 418.027344 364.773438 " fill-opacity="1" fill-rule="nonzero"/><path fill="#58595b" d="M 236.964844 424.78125 C 235.730469 424.78125 235.730469 424.445312 235.730469 424.445312 C 233.589844 420.785156 239.769531 421.070312 240.484375 417.695312 L 240.484375 373.714844 C 238.914062 373.546875 237.347656 373.582031 235.785156 373.820312 C 234.226562 374.054688 232.71875 374.480469 231.265625 375.101562 C 229.816406 375.722656 228.464844 376.511719 227.214844 377.476562 C 225.964844 378.441406 224.855469 379.550781 223.890625 380.796875 L 222.035156 381.128906 C 221.085938 380.796875 221.085938 379.894531 221.417969 378.941406 C 223.296875 374.210938 225.4375 369.597656 227.835938 365.105469 C 229.691406 364.488281 230.925781 366.628906 232.164062 366.914062 L 261.976562 366.914062 C 263.542969 366.628906 264.449219 364.15625 266.730469 365.105469 C 269.109375 369.386719 270.960938 374.332031 273.148438 378.941406 C 273.433594 379.894531 273.433594 380.796875 272.53125 381.128906 L 270.675781 380.796875 C 269.695312 379.566406 268.578125 378.472656 267.324219 377.519531 C 266.070312 376.566406 264.722656 375.78125 263.273438 375.164062 C 261.824219 374.542969 260.324219 374.113281 258.769531 373.867188 C 257.210938 373.621094 255.652344 373.570312 254.082031 373.714844 L 254.082031 417.695312 C 254.699219 421.070312 260.835938 420.785156 258.835938 424.445312 C 258.835938 424.445312 258.835938 424.78125 257.601562 424.78125 Z M 236.964844 424.78125 " fill-opacity="1" fill-rule="nonzero"/><path fill="#58595b" d="M 268.0625 424.78125 C 267.695312 424.777344 267.367188 424.660156 267.085938 424.429688 C 266.800781 424.195312 266.617188 423.902344 266.539062 423.542969 C 266.484375 423.25 266.503906 422.960938 266.605469 422.679688 C 266.710938 422.398438 266.878906 422.164062 267.109375 421.972656 C 268.097656 421.558594 268.914062 420.925781 269.566406 420.078125 C 270.222656 419.230469 270.621094 418.277344 270.773438 417.21875 L 270.773438 395.488281 C 269.867188 393.015625 266.824219 392.398438 265.589844 390.734375 C 265.453125 390.453125 265.375 390.152344 265.359375 389.839844 C 265.34375 389.527344 265.390625 389.21875 265.496094 388.925781 C 265.605469 388.628906 265.765625 388.367188 265.980469 388.136719 C 266.195312 387.90625 266.445312 387.726562 266.730469 387.597656 C 267.042969 387.4375 267.378906 387.359375 267.730469 387.359375 L 275.382812 387.359375 C 277.570312 387.359375 278.191406 393.207031 280.140625 391.6875 C 282.089844 390.164062 283.515625 386.457031 285.703125 386.929688 C 286.9375 386.929688 288.460938 390.640625 289.980469 392.78125 C 290.550781 394.632812 292.40625 395.871094 291.503906 398.34375 C 290.886719 398.960938 290.265625 398.960938 289.078125 398.628906 C 287.222656 397.4375 285.988281 393.875 283.230469 394.96875 C 282.46875 395.199219 281.792969 395.582031 281.203125 396.113281 C 280.613281 396.644531 280.164062 397.277344 279.855469 398.011719 L 279.855469 417.695312 C 280.070312 418.726562 280.496094 419.65625 281.140625 420.492188 C 281.78125 421.324219 282.574219 421.976562 283.515625 422.449219 C 284.132812 423.066406 284.132812 423.066406 284.132812 423.972656 C 284.054688 424.328125 283.875 424.625 283.589844 424.855469 C 283.304688 425.085938 282.976562 425.203125 282.613281 425.207031 L 268.0625 425.207031 Z M 268.0625 424.78125 " fill-opacity="1" fill-rule="nonzero"/><path fill="#58595b" d="M 568.089844 390.734375 C 567.332031 390.402344 566.539062 390.234375 565.710938 390.234375 C 564.882812 390.234375 564.09375 390.402344 563.335938 390.734375 C 562.421875 391.335938 561.675781 392.097656 561.085938 393.015625 C 560.496094 393.933594 560.121094 394.933594 559.957031 396.011719 C 559.957031 396.632812 559.625 397.820312 560.863281 397.820312 L 570.371094 397.820312 C 570.578125 397.832031 570.78125 397.804688 570.980469 397.738281 C 571.175781 397.667969 571.355469 397.566406 571.511719 397.429688 C 571.667969 397.289062 571.789062 397.128906 571.882812 396.941406 C 571.972656 396.75 572.023438 396.554688 572.035156 396.347656 C 572.082031 396.125 572.082031 395.902344 572.035156 395.679688 C 571.789062 394.65625 571.339844 393.734375 570.695312 392.902344 C 570.046875 392.074219 569.257812 391.414062 568.328125 390.925781 M 580.59375 400.433594 C 579.976562 401.386719 579.074219 401.671875 577.550781 401.671875 L 559.339844 401.671875 C 557.25 402.90625 558.199219 404.761719 558.4375 408.421875 C 558.601562 409.785156 558.933594 411.101562 559.4375 412.375 C 559.9375 413.652344 560.59375 414.84375 561.398438 415.949219 C 562.207031 417.058594 563.140625 418.042969 564.203125 418.910156 C 565.261719 419.78125 566.417969 420.5 567.660156 421.070312 C 569 421.402344 570.339844 421.433594 571.691406 421.15625 C 573.039062 420.882812 574.265625 420.332031 575.363281 419.5 C 579.359375 416.125 580.121094 412.132812 581.5 412.132812 C 582.878906 412.132812 581.5 416.125 581.5 418.265625 C 581.5 420.40625 581.5 422.59375 579.359375 423.019531 C 577.550781 422.6875 574.175781 424.875 572.941406 425.492188 C 571.070312 426.367188 569.105469 426.859375 567.042969 426.964844 C 565.632812 427.046875 564.242188 426.921875 562.867188 426.59375 C 561.492188 426.269531 560.191406 425.753906 558.96875 425.046875 C 557.742188 424.34375 556.644531 423.476562 555.671875 422.453125 C 554.699219 421.429688 553.894531 420.285156 553.253906 419.027344 C 552.210938 417.089844 551.453125 415.046875 550.984375 412.898438 C 550.515625 410.746094 550.351562 408.574219 550.496094 406.378906 C 550.589844 404.878906 550.828125 403.40625 551.214844 401.953125 C 551.605469 400.503906 552.132812 399.105469 552.804688 397.761719 C 553.472656 396.417969 554.269531 395.15625 555.195312 393.972656 C 556.121094 392.789062 557.152344 391.710938 558.292969 390.734375 C 559.324219 390.019531 560.425781 389.4375 561.597656 389 C 562.773438 388.5625 563.984375 388.273438 565.230469 388.140625 C 566.476562 388.007812 567.722656 388.035156 568.964844 388.214844 C 570.203125 388.394531 571.402344 388.730469 572.558594 389.214844 C 578.742188 390.449219 582.070312 398.4375 580.546875 400.292969 " fill-opacity="1" fill-rule="nonzero"/><path fill="#58595b" d="M 482.3125 418.597656 C 482.621094 419.074219 482.992188 419.492188 483.425781 419.855469 C 483.859375 420.21875 484.335938 420.511719 484.859375 420.730469 C 485.378906 420.953125 485.921875 421.089844 486.484375 421.148438 C 487.046875 421.207031 487.605469 421.179688 488.160156 421.070312 C 488.855469 420.933594 489.511719 420.691406 490.125 420.339844 C 490.742188 419.988281 491.285156 419.550781 491.757812 419.023438 C 492.226562 418.496094 492.605469 417.90625 492.882812 417.253906 C 493.164062 416.605469 493.332031 415.925781 493.390625 415.222656 L 493.390625 394.015625 C 493.390625 391.542969 489.398438 387.835938 483.882812 390.925781 C 480.507812 392.78125 478.652344 400.769531 479.128906 405.664062 C 479.035156 407.941406 479.277344 410.179688 479.855469 412.382812 C 480.429688 414.585938 481.3125 416.65625 482.503906 418.597656 M 502.472656 417.363281 C 502.472656 419.550781 504.613281 420.453125 505.847656 421.6875 C 507.085938 422.925781 507.085938 424.445312 505.5625 424.445312 L 495.339844 424.445312 C 494.390625 424.445312 493.488281 421.972656 492.25 422.59375 C 491.738281 423.035156 491.195312 423.4375 490.617188 423.792969 C 490.042969 424.152344 489.441406 424.460938 488.816406 424.722656 C 488.191406 424.984375 487.550781 425.199219 486.894531 425.359375 C 486.234375 425.519531 485.566406 425.628906 484.890625 425.683594 C 484.21875 425.738281 483.542969 425.738281 482.867188 425.6875 C 482.191406 425.636719 481.523438 425.53125 480.863281 425.375 C 480.203125 425.214844 479.5625 425.007812 478.9375 424.75 C 478.308594 424.488281 477.707031 424.183594 477.128906 423.828125 C 471.042969 421.070312 468.570312 408.753906 470.425781 402.003906 C 470.695312 401.050781 471.03125 400.121094 471.433594 399.214844 C 471.835938 398.3125 472.304688 397.441406 472.832031 396.601562 C 473.359375 395.765625 473.945312 394.96875 474.589844 394.21875 C 475.234375 393.464844 475.929688 392.761719 476.675781 392.109375 C 477.417969 391.457031 478.207031 390.859375 479.039062 390.320312 C 479.871094 389.78125 480.734375 389.304688 481.636719 388.890625 C 482.535156 388.476562 483.460938 388.128906 484.410156 387.847656 C 485.359375 387.570312 486.324219 387.359375 487.304688 387.214844 C 490.394531 387.214844 492.058594 389.355469 493.152344 386.3125 L 493.152344 380.796875 C 493.15625 380.34375 493.09375 379.898438 492.964844 379.460938 C 492.839844 379.023438 492.652344 378.613281 492.410156 378.230469 C 492.164062 377.847656 491.871094 377.503906 491.527344 377.207031 C 491.1875 376.90625 490.808594 376.660156 490.394531 376.472656 C 489.890625 376.394531 489.445312 376.1875 489.058594 375.851562 C 488.671875 375.515625 488.40625 375.105469 488.257812 374.617188 C 488.257812 373.425781 489.160156 372.808594 490.679688 372.808594 L 504.945312 372.808594 C 506.183594 372.808594 506.46875 374.617188 504.613281 375.234375 C 502.757812 375.851562 502.472656 378.941406 502.472656 381.414062 Z M 502.472656 417.363281 " fill-opacity="1" fill-rule="nonzero"/><path fill="#58595b" d="M 439.566406 394.632812 C 438.816406 396.523438 438.246094 398.46875 437.863281 400.46875 C 437.480469 402.46875 437.289062 404.484375 437.289062 406.519531 C 437.289062 408.554688 437.480469 410.574219 437.863281 412.574219 C 438.246094 414.570312 438.816406 416.515625 439.566406 418.40625 C 439.761719 418.808594 439.996094 419.1875 440.265625 419.542969 C 440.535156 419.898438 440.835938 420.222656 441.167969 420.519531 C 441.503906 420.816406 441.863281 421.078125 442.246094 421.304688 C 442.628906 421.53125 443.03125 421.71875 443.453125 421.867188 C 443.875 422.011719 444.304688 422.117188 444.746094 422.183594 C 445.1875 422.246094 445.632812 422.265625 446.078125 422.242188 C 446.523438 422.21875 446.960938 422.152344 447.394531 422.042969 C 447.828125 421.933594 448.246094 421.785156 448.648438 421.59375 C 449.710938 421.070312 450.582031 420.324219 451.265625 419.359375 C 454.925781 414.082031 454.925781 397.488281 450.359375 393.207031 C 450.058594 392.886719 449.726562 392.601562 449.367188 392.347656 C 449.007812 392.09375 448.625 391.875 448.222656 391.695312 C 447.824219 391.511719 447.40625 391.375 446.976562 391.273438 C 446.546875 391.171875 446.113281 391.117188 445.675781 391.101562 C 445.234375 391.085938 444.796875 391.113281 444.359375 391.183594 C 443.925781 391.25 443.5 391.363281 443.089844 391.515625 C 442.675781 391.667969 442.28125 391.855469 441.902344 392.085938 C 441.527344 392.316406 441.175781 392.578125 440.851562 392.875 C 440.371094 393.34375 439.960938 393.867188 439.613281 394.445312 M 460.820312 395.964844 C 461.308594 396.792969 461.734375 397.652344 462.101562 398.539062 C 462.46875 399.425781 462.773438 400.335938 463.011719 401.265625 C 463.25 402.195312 463.425781 403.140625 463.53125 404.09375 C 463.640625 405.046875 463.679688 406.007812 463.652344 406.964844 C 463.625 407.925781 463.53125 408.878906 463.371094 409.828125 C 463.207031 410.773438 462.980469 411.707031 462.691406 412.621094 C 462.398438 413.535156 462.042969 414.425781 461.628906 415.292969 C 461.210938 416.160156 460.738281 416.992188 460.203125 417.789062 C 459.394531 419.140625 458.414062 420.355469 457.269531 421.4375 C 456.128906 422.519531 454.859375 423.425781 453.464844 424.160156 C 452.074219 424.894531 450.605469 425.425781 449.066406 425.757812 C 447.527344 426.085938 445.972656 426.207031 444.402344 426.109375 C 442.828125 426.015625 441.300781 425.707031 439.8125 425.195312 C 438.324219 424.679688 436.933594 423.972656 435.640625 423.074219 C 434.347656 422.179688 433.199219 421.125 432.191406 419.910156 C 431.1875 418.699219 430.367188 417.375 429.726562 415.9375 C 429.042969 414.46875 428.527344 412.945312 428.179688 411.363281 C 427.832031 409.785156 427.65625 408.1875 427.65625 406.570312 C 427.65625 404.949219 427.832031 403.351562 428.179688 401.773438 C 428.527344 400.191406 429.042969 398.667969 429.726562 397.203125 C 430.144531 396.339844 430.632812 395.519531 431.183594 394.738281 C 431.738281 393.953125 432.347656 393.222656 433.019531 392.535156 C 433.6875 391.851562 434.40625 391.222656 435.175781 390.652344 C 435.949219 390.082031 436.757812 389.578125 437.609375 389.136719 C 438.460938 388.699219 439.339844 388.328125 440.25 388.027344 C 441.160156 387.730469 442.085938 387.503906 443.03125 387.351562 C 443.980469 387.203125 444.929688 387.125 445.890625 387.128906 C 446.847656 387.128906 447.796875 387.207031 448.742188 387.359375 C 450.058594 387.519531 451.335938 387.835938 452.574219 388.300781 C 453.8125 388.769531 454.980469 389.378906 456.070312 390.128906 C 457.164062 390.878906 458.152344 391.746094 459.035156 392.730469 C 459.917969 393.71875 460.671875 394.796875 461.296875 395.964844 " fill-opacity="1" fill-rule="nonzero"/><path fill="#58595b" d="M 314.136719 401.71875 C 309.855469 404.191406 304.339844 407.804688 305.246094 413.652344 C 305.429688 415.1875 305.9375 416.605469 306.773438 417.90625 C 307.605469 419.207031 308.683594 420.261719 310 421.070312 C 311.164062 421.59375 312.382812 421.855469 313.660156 421.855469 C 314.9375 421.855469 316.15625 421.59375 317.320312 421.070312 C 324.121094 417.078125 318.890625 408.136719 317.320312 404.808594 C 316.703125 403.242188 316.085938 400.769531 313.945312 401.71875 M 323.167969 392.78125 C 326.261719 401.101562 328.734375 410.277344 331.441406 418.3125 C 332.0625 419.835938 334.867188 420.453125 335.769531 421.355469 C 335.933594 421.519531 336.058594 421.710938 336.144531 421.925781 C 336.234375 422.136719 336.277344 422.359375 336.277344 422.59375 C 336.277344 422.824219 336.234375 423.046875 336.144531 423.261719 C 336.058594 423.472656 335.933594 423.664062 335.769531 423.828125 C 335.386719 424.246094 334.910156 424.453125 334.34375 424.445312 L 327.210938 424.445312 C 323.503906 424.445312 323.167969 424.160156 321.648438 421.6875 C 318.9375 423.429688 316.066406 424.855469 313.042969 425.96875 C 311 426.507812 308.9375 426.613281 306.851562 426.28125 C 304.765625 425.949219 302.835938 425.210938 301.058594 424.066406 C 300.105469 423.417969 299.269531 422.644531 298.550781 421.742188 C 297.828125 420.84375 297.257812 419.855469 296.832031 418.78125 C 296.410156 417.710938 296.152344 416.597656 296.0625 415.449219 C 295.972656 414.300781 296.054688 413.160156 296.304688 412.035156 C 297.542969 405.238281 304.007812 402.527344 308.953125 399.4375 C 310.761719 398.199219 314.753906 397.582031 314.421875 395.441406 C 314.089844 393.300781 313.230469 392.96875 311.996094 392.066406 C 306.195312 389.878906 303.105469 396.058594 299.394531 398.199219 C 298.777344 398.816406 297.875 398.53125 297.875 397.914062 C 298.953125 394.199219 300.539062 390.710938 302.628906 387.453125 C 304.484375 387.453125 304.816406 388.359375 305.71875 388.359375 C 309.429688 388.359375 313.089844 384.980469 317.082031 386.835938 C 319.660156 388.230469 321.703125 390.179688 323.21875 392.683594 " fill-opacity="1" fill-rule="nonzero"/><path fill="#58595b" d="M 368.910156 390.308594 C 367.058594 391.542969 364.15625 391.828125 363.015625 394.300781 L 350.746094 424.78125 C 349.84375 426.253906 347.371094 426.585938 347.039062 425.066406 C 346.707031 423.542969 335.960938 394.015625 335.960938 394.015625 C 335.058594 391.828125 333.488281 391.828125 332.25 390.59375 C 331.015625 389.355469 331.015625 387.835938 332.871094 387.835938 L 347.132812 387.835938 C 347.753906 387.835938 348.988281 387.835938 349.273438 389.070312 C 349.558594 390.308594 347.753906 390.925781 346.800781 392.78125 C 346.183594 393.683594 346.515625 394.632812 346.515625 395.871094 C 347.988281 400.46875 349.714844 404.96875 351.699219 409.375 C 352.175781 410.324219 352.648438 410.277344 353.269531 409.375 L 358.023438 397.105469 C 358.355469 396.316406 358.46875 395.496094 358.355469 394.644531 C 358.246094 393.796875 357.929688 393.03125 357.40625 392.351562 C 356.167969 391.304688 353.078125 390.496094 353.695312 388.359375 C 354.101562 387.902344 354.609375 387.695312 355.21875 387.738281 L 367.863281 387.738281 C 369.71875 387.453125 370.003906 389.261719 368.816406 390.210938 " fill-opacity="1" fill-rule="nonzero"/><path fill="#58595b" d="M 519.113281 434.289062 C 517.878906 434.90625 517.261719 435.191406 516.929688 436.429688 C 516.671875 437.15625 516.601562 437.902344 516.710938 438.667969 C 516.820312 439.429688 517.097656 440.128906 517.546875 440.753906 C 519.664062 441.917969 521.910156 442.707031 524.285156 443.132812 C 526.660156 443.554688 529.042969 443.585938 531.429688 443.226562 C 533.902344 442.609375 536.660156 442.609375 537.277344 439.519531 C 537.277344 437.949219 535.425781 437.046875 534.1875 436.429688 C 529.210938 435.382812 524.1875 434.667969 519.113281 434.289062 M 526.199219 391.496094 C 521.445312 392.398438 519.402344 398.582031 519.113281 403.527344 C 518.828125 408.46875 519.6875 416.363281 525.867188 419.214844 C 527.722656 419.835938 530.621094 417.363281 531.714844 416.125 C 532.5625 414.664062 533.222656 413.121094 533.6875 411.496094 C 534.152344 409.875 534.414062 408.214844 534.46875 406.527344 C 534.519531 404.839844 534.367188 403.167969 534.007812 401.519531 C 533.644531 399.867188 533.085938 398.285156 532.332031 396.773438 C 531.097656 394.015625 528.957031 391.210938 526.199219 391.542969 M 546.789062 388.453125 C 547.097656 388.921875 547.253906 389.4375 547.253906 390 C 547.253906 390.558594 547.097656 391.074219 546.789062 391.542969 C 544.933594 393.398438 542.035156 391.542969 539.703125 392.160156 C 539.085938 392.160156 538.46875 392.78125 539.085938 393.398438 C 540.113281 394.640625 540.964844 395.992188 541.636719 397.460938 C 542.3125 398.925781 542.78125 400.453125 543.054688 402.042969 C 543.324219 403.632812 543.386719 405.230469 543.238281 406.835938 C 543.089844 408.441406 542.734375 410 542.175781 411.511719 C 541.699219 412.878906 541.058594 414.167969 540.257812 415.371094 C 539.453125 416.578125 538.515625 417.664062 537.4375 418.632812 C 536.363281 419.601562 535.183594 420.417969 533.898438 421.089844 C 532.617188 421.761719 531.269531 422.261719 529.859375 422.59375 C 527.175781 423.125 524.511719 423.027344 521.871094 422.308594 C 520.921875 421.6875 520.019531 422.925781 519.6875 423.210938 C 519.585938 423.414062 519.527344 423.625 519.515625 423.851562 C 519.5 424.074219 519.527344 424.292969 519.597656 424.507812 C 519.667969 424.722656 519.777344 424.914062 519.925781 425.082031 C 520.070312 425.253906 520.246094 425.390625 520.445312 425.492188 C 520.605469 425.535156 520.761719 425.535156 520.921875 425.492188 C 528.339844 426.730469 536.660156 426.730469 543.078125 431.054688 C 543.644531 431.601562 544.121094 432.214844 544.511719 432.890625 C 544.902344 433.570312 545.195312 434.292969 545.382812 435.050781 C 545.570312 435.8125 545.652344 436.585938 545.625 437.367188 C 545.597656 438.152344 545.460938 438.917969 545.21875 439.660156 C 542.269531 447.792969 532.429688 447.792969 524.726562 447.792969 C 519.210938 447.175781 511.839844 446.605469 509.367188 440.46875 C 509.421875 439.109375 509.742188 437.8125 510.328125 436.582031 C 510.914062 435.351562 511.71875 434.285156 512.742188 433.386719 C 511.644531 431.738281 510.726562 429.992188 509.984375 428.15625 C 510.078125 427.347656 510.273438 426.566406 510.574219 425.8125 C 510.875 425.058594 511.273438 424.359375 511.761719 423.710938 C 512.25 423.0625 512.816406 422.492188 513.457031 421.992188 C 514.101562 421.496094 514.796875 421.09375 515.550781 420.785156 C 515.550781 420.785156 516.785156 419.882812 515.835938 419.265625 C 515.136719 418.585938 514.488281 417.859375 513.898438 417.082031 C 513.304688 416.308594 512.769531 415.496094 512.296875 414.644531 C 511.820312 413.792969 511.410156 412.914062 511.066406 412 C 510.71875 411.089844 510.441406 410.15625 510.230469 409.207031 C 510.023438 408.253906 509.882812 407.292969 509.8125 406.320312 C 509.742188 405.347656 509.742188 404.375 509.8125 403.402344 C 509.886719 402.429688 510.027344 401.46875 510.238281 400.519531 C 510.453125 399.566406 510.730469 398.636719 511.078125 397.726562 C 511.359375 396.917969 511.707031 396.144531 512.121094 395.398438 C 512.53125 394.648438 513 393.941406 513.53125 393.273438 C 514.0625 392.605469 514.644531 391.984375 515.277344 391.414062 C 515.910156 390.84375 516.585938 390.328125 517.304688 389.871094 C 518.023438 389.410156 518.777344 389.015625 519.5625 388.683594 C 520.347656 388.351562 521.15625 388.085938 521.984375 387.890625 C 522.816406 387.691406 523.65625 387.566406 524.507812 387.507812 C 525.355469 387.449219 526.207031 387.464844 527.054688 387.550781 C 529.230469 388.121094 531.4375 388.382812 533.683594 388.335938 C 535.929688 388.285156 538.128906 387.929688 540.273438 387.265625 C 542.589844 387.085938 544.746094 387.59375 546.742188 388.785156 " fill-opacity="1" fill-rule="nonzero"/><path fill="#58595b" d="M 387.3125 390.734375 C 386.558594 390.378906 385.765625 390.203125 384.933594 390.203125 C 384.101562 390.203125 383.308594 390.378906 382.558594 390.734375 C 381.632812 391.328125 380.871094 392.082031 380.273438 393.003906 C 379.675781 393.925781 379.296875 394.925781 379.132812 396.011719 C 379.132812 396.632812 378.847656 397.820312 380.085938 397.820312 L 389.59375 397.820312 C 389.792969 397.832031 389.984375 397.808594 390.175781 397.746094 C 390.363281 397.683594 390.53125 397.589844 390.683594 397.460938 C 390.835938 397.332031 390.957031 397.179688 391.046875 397 C 391.136719 396.824219 391.191406 396.636719 391.210938 396.441406 C 391.285156 396.1875 391.285156 395.933594 391.210938 395.679688 C 390.953125 394.664062 390.503906 393.738281 389.859375 392.910156 C 389.210938 392.082031 388.425781 391.421875 387.503906 390.925781 M 400.101562 400.433594 C 399.484375 401.386719 398.582031 401.671875 397.011719 401.671875 L 378.707031 401.671875 C 376.566406 402.90625 377.46875 404.761719 377.753906 408.421875 C 377.929688 409.800781 378.273438 411.132812 378.796875 412.417969 C 379.316406 413.703125 379.996094 414.902344 380.828125 416.011719 C 381.664062 417.121094 382.625 418.105469 383.714844 418.960938 C 384.808594 419.820312 385.988281 420.523438 387.265625 421.070312 C 388.574219 421.328125 389.875 421.300781 391.171875 420.984375 C 392.46875 420.667969 393.636719 420.09375 394.683594 419.265625 C 398.675781 415.886719 399.4375 411.894531 400.863281 411.894531 C 402.289062 411.894531 400.863281 415.886719 400.863281 418.027344 C 400.863281 420.167969 400.863281 422.355469 398.675781 422.78125 C 396.820312 422.449219 393.445312 424.636719 392.257812 425.253906 C 391.394531 425.675781 390.5 426.011719 389.570312 426.261719 C 388.644531 426.511719 387.699219 426.667969 386.742188 426.734375 C 385.785156 426.800781 384.828125 426.777344 383.875 426.65625 C 382.921875 426.539062 381.988281 426.332031 381.078125 426.03125 C 380.164062 425.734375 379.289062 425.347656 378.449219 424.878906 C 377.613281 424.410156 376.824219 423.867188 376.09375 423.246094 C 375.359375 422.625 374.691406 421.941406 374.09375 421.191406 C 373.492188 420.441406 372.96875 419.640625 372.523438 418.789062 C 371.496094 416.847656 370.753906 414.800781 370.292969 412.652344 C 369.832031 410.503906 369.671875 408.332031 369.816406 406.140625 C 369.921875 404.667969 370.171875 403.222656 370.558594 401.800781 C 370.949219 400.378906 371.472656 399.007812 372.128906 397.6875 C 372.785156 396.363281 373.5625 395.121094 374.460938 393.949219 C 375.359375 392.78125 376.363281 391.710938 377.46875 390.734375 C 378.5 390.023438 379.601562 389.445312 380.777344 389.011719 C 381.953125 388.574219 383.160156 388.289062 384.40625 388.15625 C 385.652344 388.023438 386.898438 388.046875 388.136719 388.226562 C 389.378906 388.402344 390.578125 388.734375 391.734375 389.214844 C 397.820312 390.449219 400.910156 398.4375 399.675781 400.292969 " fill-opacity="1" fill-rule="nonzero"/><path fill="#58595b" d="M 234.207031 438.902344 L 502.902344 438.902344 L 502.902344 442.277344 L 234.207031 442.277344 Z M 234.207031 438.902344 " fill-opacity="1" fill-rule="nonzero"/><path fill="#58595b" d="M 550.878906 438.902344 L 582.210938 438.902344 L 582.210938 442.277344 L 550.878906 442.277344 Z M 550.878906 438.902344 " fill-opacity="1" fill-rule="nonzero"/></svg>