<svg xmlns="http://www.w3.org/2000/svg" xmlns:xlink="http://www.w3.org/1999/xlink" width="1080" zoomAndPan="magnify" viewBox="0 0 810 809.999993" height="1080" preserveAspectRatio="xMidYMid meet" version="1.0"><rect x="-81" width="972" fill="#ffffff" y="-80.999999" height="971.999992" fill-opacity="1"/><rect x="-81" width="972" fill="#ffffff" y="-80.999999" height="971.999992" fill-opacity="1"/><path fill="#58595b" d="M 202.164062 411.195312 C 201.808594 412.515625 201.429688 413.792969 201.054688 415.0625 C 200.695312 416.28125 200.328125 417.527344 199.980469 418.796875 C 199.808594 418.257812 199.636719 417.722656 199.464844 417.1875 C 198.902344 415.417969 198.316406 413.585938 197.695312 411.832031 L 181.792969 367.832031 L 174.945312 367.832031 L 159.316406 411.96875 C 158.429688 414.414062 157.761719 416.539062 157.09375 418.726562 C 156.867188 417.910156 156.648438 417.097656 156.421875 416.257812 C 156.054688 414.875 155.679688 413.472656 155.246094 412 L 141.371094 367.832031 L 132.25 367.832031 L 152.859375 431.992188 L 153.027344 432.519531 L 159.621094 432.519531 L 176.054688 387.152344 C 176.875 385.042969 177.53125 383.019531 178.078125 381.179688 C 178.699219 383.042969 179.363281 384.902344 180.011719 386.722656 L 196.859375 432.519531 L 203.722656 432.519531 L 223.507812 368.816406 L 223.8125 367.832031 L 215.097656 367.832031 Z M 202.164062 411.195312 " fill-opacity="1" fill-rule="nonzero"/><path fill="#58595b" d="M 250.46875 366.585938 C 243.476562 366.585938 236.875 368.539062 230.84375 372.386719 L 230.355469 372.699219 L 232.691406 380.101562 L 233.507812 379.640625 C 238.9375 376.5625 243.1875 374.890625 250.066406 374.890625 C 263.957031 374.890625 265.101562 383.28125 265.160156 397.070312 C 259.449219 393.457031 252.421875 393.046875 249.527344 393.046875 C 235.109375 393.046875 225.789062 400.957031 225.789062 413.199219 C 225.789062 424.753906 233.601562 432.519531 245.226562 432.519531 C 253.625 432.519531 260.167969 429.59375 265.164062 423.59375 L 265.164062 431.6875 L 273.667969 431.6875 L 273.667969 392.28125 C 273.667969 374.511719 266.511719 366.585938 250.46875 366.585938 Z M 265.164062 414.886719 C 261.710938 419.53125 256.875 424.214844 247.378906 424.214844 C 239.792969 424.214844 234.699219 419.621094 234.699219 412.78125 C 234.699219 404.308594 242.484375 400.519531 250.199219 400.519531 C 255.996094 400.519531 260.894531 402.027344 265.164062 405.128906 Z M 265.164062 414.886719 " fill-opacity="1" fill-rule="nonzero"/><path fill="#58595b" d="M 317.332031 421.046875 C 314.765625 423.03125 311.324219 424.214844 308.117188 424.214844 C 299.378906 424.214844 295.304688 418.46875 295.304688 406.132812 L 295.304688 376.136719 L 319.628906 376.136719 L 319.628906 367.832031 L 295.304688 367.832031 L 295.304688 350.519531 L 286.800781 350.519531 L 286.800781 407.238281 C 286.800781 424.25 293.246094 432.519531 306.507812 432.519531 C 312.800781 432.519531 317.894531 430.136719 320.566406 427.910156 L 320.988281 427.554688 L 318.125 420.433594 Z M 317.332031 421.046875 " fill-opacity="1" fill-rule="nonzero"/><path fill="#58595b" d="M 379.898438 423.824219 L 380.226562 423.46875 L 377.308594 416.390625 L 376.503906 417.25 C 372.226562 421.800781 364.921875 424.628906 357.4375 424.628906 C 343.433594 424.628906 334.324219 415.996094 333.507812 402.042969 L 383.210938 402.042969 L 383.316406 401.40625 C 383.597656 399.636719 383.726562 397.804688 383.726562 395.464844 C 383.726562 378.460938 372.144531 366.585938 355.558594 366.585938 C 336.484375 366.585938 324.160156 379.609375 324.160156 399.761719 C 324.160156 419.601562 337.371094 432.933594 357.035156 432.933594 C 366.074219 432.933594 374.621094 429.527344 379.898438 423.824219 Z M 333.15625 394.570312 C 334.691406 382.40625 342.949219 374.890625 354.886719 374.890625 C 366.839844 374.890625 374.511719 382.410156 375.0625 394.570312 C 375.0625 394.570312 333.15625 394.570312 333.15625 394.570312 Z M 333.15625 394.570312 " fill-opacity="1" fill-rule="nonzero"/><path fill="#58595b" d="M 418.851562 366.726562 C 412.445312 366.726562 407.351562 369.273438 403.347656 374.496094 L 403.347656 367.832031 L 394.84375 367.832031 L 394.84375 431.6875 L 403.347656 431.6875 L 403.347656 384.585938 C 406.0625 379.828125 409.871094 375.03125 417.371094 375.03125 C 421.152344 375.03125 422.632812 375.5625 425.441406 377.273438 L 426.238281 377.757812 L 429.15625 369.570312 L 428.714844 369.234375 C 426.324219 367.429688 423.558594 366.726562 418.851562 366.726562 Z M 418.851562 366.726562 " fill-opacity="1" fill-rule="nonzero"/><path fill="#58595b" d="M 505.246094 432.519531 L 525.03125 368.816406 L 525.335938 367.832031 L 516.617188 367.832031 L 503.6875 411.195312 C 503.328125 412.515625 502.949219 413.792969 502.574219 415.0625 C 502.214844 416.28125 501.847656 417.527344 501.503906 418.796875 C 501.328125 418.257812 501.160156 417.722656 500.988281 417.1875 C 500.421875 415.417969 499.835938 413.585938 499.21875 411.832031 L 483.316406 367.832031 L 476.46875 367.832031 L 460.839844 411.96875 C 459.949219 414.414062 459.28125 416.539062 458.613281 418.726562 C 458.386719 417.910156 458.167969 417.097656 457.945312 416.257812 C 457.574219 414.875 457.199219 413.472656 456.765625 412 L 442.890625 367.832031 L 433.769531 367.832031 L 454.378906 431.992188 L 454.546875 432.519531 L 461.144531 432.519531 L 477.578125 387.152344 C 478.398438 385.042969 479.050781 383.019531 479.597656 381.179688 C 480.21875 383.042969 480.882812 384.902344 481.535156 386.722656 L 498.378906 432.519531 Z M 505.246094 432.519531 " fill-opacity="1" fill-rule="nonzero"/><path fill="#58595b" d="M 551.988281 366.585938 C 544.996094 366.585938 538.394531 368.539062 532.367188 372.386719 L 531.875 372.699219 L 534.214844 380.101562 L 535.027344 379.640625 C 540.460938 376.5625 544.707031 374.890625 551.585938 374.890625 C 565.476562 374.890625 566.621094 383.28125 566.683594 397.070312 C 560.96875 393.457031 553.941406 393.046875 551.050781 393.046875 C 536.628906 393.046875 527.3125 400.957031 527.3125 413.199219 C 527.3125 424.753906 535.125 432.519531 546.75 432.519531 C 555.144531 432.519531 561.691406 429.59375 566.683594 423.59375 L 566.683594 431.6875 L 575.1875 431.6875 L 575.1875 392.28125 C 575.1875 374.511719 568.035156 366.585938 551.988281 366.585938 Z M 566.683594 414.886719 C 563.234375 419.53125 558.398438 424.214844 548.898438 424.214844 C 541.316406 424.214844 536.21875 419.621094 536.21875 412.78125 C 536.21875 404.308594 544.003906 400.519531 551.71875 400.519531 C 557.515625 400.519531 562.414062 402.027344 566.683594 405.128906 C 566.683594 405.128906 566.683594 414.886719 566.683594 414.886719 Z M 566.683594 414.886719 " fill-opacity="1" fill-rule="nonzero"/><path fill="#58595b" d="M 592.757812 333.203125 L 601.257812 333.203125 L 601.257812 431.6875 L 592.757812 431.6875 Z M 592.757812 333.203125 " fill-opacity="1" fill-rule="nonzero"/><path fill="#58595b" d="M 620.035156 333.203125 L 628.539062 333.203125 L 628.539062 431.6875 L 620.035156 431.6875 Z M 620.035156 333.203125 " fill-opacity="1" fill-rule="nonzero"/><path fill="#58595b" d="M 661.3125 431.6875 L 672.792969 431.6875 L 641.324219 397.828125 L 670.285156 367.832031 L 659.03125 367.832031 L 630.648438 398.371094 L 661.089844 431.441406 Z M 661.3125 431.6875 " fill-opacity="1" fill-rule="nonzero"/><path fill="#58595b" d="M 399.222656 467.019531 L 405.199219 467.019531 L 405.199219 462.957031 L 399.222656 462.957031 L 399.222656 459.628906 L 406 459.628906 L 406 455.566406 L 394.96875 455.566406 L 394.96875 474.519531 L 406.265625 474.519531 L 406.265625 470.457031 L 399.222656 470.457031 Z M 399.222656 467.019531 " fill-opacity="1" fill-rule="nonzero"/><path fill="#58595b" d="M 431.457031 455.566406 L 426.460938 455.566406 L 422.847656 461.660156 L 419.074219 455.566406 L 414.078125 455.566406 L 419.976562 464.855469 L 413.785156 474.519531 L 418.78125 474.519531 L 422.714844 468.15625 L 426.699219 474.519531 L 431.695312 474.519531 L 425.503906 464.855469 Z M 431.457031 455.566406 " fill-opacity="1" fill-rule="nonzero"/><path fill="#58595b" d="M 437.886719 459.628906 L 443.46875 459.628906 L 443.46875 474.519531 L 447.71875 474.519531 L 447.71875 459.628906 L 453.300781 459.628906 L 453.300781 455.566406 L 437.886719 455.566406 Z M 437.886719 459.628906 " fill-opacity="1" fill-rule="nonzero"/><path fill="#58595b" d="M 466.136719 467.019531 L 472.117188 467.019531 L 472.117188 462.957031 L 466.136719 462.957031 L 466.136719 459.628906 L 472.914062 459.628906 L 472.914062 455.566406 L 461.886719 455.566406 L 461.886719 474.519531 L 473.179688 474.519531 L 473.179688 470.457031 L 466.136719 470.457031 Z M 466.136719 467.019531 " fill-opacity="1" fill-rule="nonzero"/><path fill="#58595b" d="M 495.316406 466.992188 L 486.492188 455.566406 L 483.09375 455.566406 L 483.09375 474.519531 L 487.078125 474.519531 L 487.078125 463.148438 L 495.902344 474.519531 L 499.300781 474.519531 L 499.300781 455.566406 L 495.316406 455.566406 Z M 495.316406 466.992188 " fill-opacity="1" fill-rule="nonzero"/><path fill="#58595b" d="M 515.886719 455.488281 C 514.664062 455.488281 511.367188 455.566406 510.382812 455.566406 L 510.011719 455.566406 L 510.011719 474.519531 L 510.464844 474.519531 C 512.246094 474.519531 514.6875 474.570312 515.671875 474.570312 C 522.769531 474.570312 526.328125 470.1875 526.328125 464.882812 C 526.328125 459.84375 523.328125 455.488281 515.886719 455.488281 Z M 515.804688 470.511719 C 515.195312 470.511719 514.824219 470.511719 514.265625 470.457031 L 514.265625 459.628906 C 514.796875 459.546875 515.382812 459.546875 515.832031 459.546875 C 519.289062 459.546875 521.8125 461.390625 521.8125 464.882812 C 521.8125 468.480469 519.472656 470.511719 515.804688 470.511719 Z M 515.804688 470.511719 " fill-opacity="1" fill-rule="nonzero"/><path fill="#58595b" d="M 539.960938 467.019531 L 545.941406 467.019531 L 545.941406 462.957031 L 539.960938 462.957031 L 539.960938 459.628906 L 546.738281 459.628906 L 546.738281 455.566406 L 535.710938 455.566406 L 535.710938 474.519531 L 547.003906 474.519531 L 547.003906 470.457031 L 539.960938 470.457031 Z M 539.960938 467.019531 " fill-opacity="1" fill-rule="nonzero"/><path fill="#58595b" d="M 562.789062 455.488281 C 561.566406 455.488281 558.273438 455.566406 557.289062 455.566406 L 556.917969 455.566406 L 556.917969 474.519531 L 557.367188 474.519531 C 559.148438 474.519531 561.59375 474.570312 562.578125 474.570312 C 569.671875 474.570312 573.234375 470.1875 573.234375 464.882812 C 573.234375 459.84375 570.230469 455.488281 562.789062 455.488281 Z M 562.710938 470.511719 C 562.101562 470.511719 561.726562 470.511719 561.167969 470.457031 L 561.167969 459.628906 C 561.699219 459.546875 562.285156 459.546875 562.738281 459.546875 C 566.191406 459.546875 568.714844 461.390625 568.714844 464.882812 C 568.714844 468.480469 566.378906 470.511719 562.710938 470.511719 Z M 562.710938 470.511719 " fill-opacity="1" fill-rule="nonzero"/><path fill="#58595b" d="M 597.445312 460.710938 C 597.445312 459.84375 598.132812 459.304688 599.304688 459.304688 C 600.6875 459.304688 601.296875 459.792969 602.121094 460.578125 L 604.40625 457.328125 C 603.238281 456.054688 601.324219 455.242188 598.933594 455.242188 C 595.210938 455.242188 592.925781 457.789062 592.925781 460.710938 C 592.925781 466.828125 600.6875 466.476562 600.6875 469.320312 C 600.6875 470.214844 600.046875 470.78125 598.933594 470.78125 C 597.628906 470.78125 596.007812 470.160156 594.945312 468.777344 L 592.527344 471.730469 C 593.429688 473.757812 596.328125 474.84375 598.828125 474.84375 C 602.414062 474.84375 605.203125 472.570312 605.203125 469.265625 C 605.203125 463.09375 597.445312 463.851562 597.445312 460.710938 Z M 597.445312 460.710938 " fill-opacity="1" fill-rule="nonzero"/><path fill="#58595b" d="M 612.457031 459.628906 L 618.039062 459.628906 L 618.039062 474.519531 L 622.292969 474.519531 L 622.292969 459.628906 L 627.871094 459.628906 L 627.871094 455.566406 L 612.457031 455.566406 Z M 612.457031 459.628906 " fill-opacity="1" fill-rule="nonzero"/><path fill="#58595b" d="M 640.363281 455.566406 L 632.628906 474.519531 L 636.90625 474.519531 L 638.449219 470.539062 L 645.808594 470.539062 L 647.351562 474.519531 L 651.894531 474.519531 L 644.164062 455.566406 C 644.164062 455.566406 640.363281 455.566406 640.363281 455.566406 Z M 640.042969 466.476562 L 642.144531 461.117188 L 644.214844 466.476562 C 644.214844 466.476562 640.042969 466.476562 640.042969 466.476562 Z M 640.042969 466.476562 " fill-opacity="1" fill-rule="nonzero"/><path fill="#58595b" d="M 665.078125 462.742188 L 661.089844 455.566406 L 656.226562 455.566406 L 662.765625 466.804688 L 662.765625 474.519531 L 667.015625 474.519531 L 667.015625 466.804688 L 673.609375 455.566406 L 669.011719 455.566406 Z M 665.078125 462.742188 " fill-opacity="1" fill-rule="nonzero"/></svg>