<svg xmlns="http://www.w3.org/2000/svg" xmlns:xlink="http://www.w3.org/1999/xlink" width="1080" zoomAndPan="magnify" viewBox="0 0 810 809.999993" height="1080" preserveAspectRatio="xMidYMid meet" version="1.0"><rect x="-81" width="972" fill="#ffffff" y="-80.999999" height="971.999992" fill-opacity="1"/><rect x="-81" width="972" fill="#ffffff" y="-80.999999" height="971.999992" fill-opacity="1"/><path fill="#58595b" d="M 202.539062 415.886719 C 203.300781 415.886719 203.917969 415.652344 204.300781 415.269531 C 204.726562 414.84375 204.917969 414.273438 204.917969 413.511719 C 204.917969 412.796875 204.679688 412.179688 204.300781 411.800781 C 203.871094 411.417969 203.300781 411.179688 202.539062 411.179688 L 186.089844 411.179688 C 185.089844 411.179688 184.328125 411.464844 183.757812 411.988281 C 183.1875 412.511719 182.949219 413.320312 182.949219 414.320312 L 182.949219 440.566406 C 182.949219 441.5625 183.234375 442.324219 183.757812 442.894531 C 184.28125 443.464844 185.089844 443.703125 186.089844 443.703125 L 202.539062 443.703125 C 203.300781 443.703125 203.917969 443.464844 204.300781 443.085938 C 204.726562 442.707031 204.917969 442.085938 204.917969 441.328125 C 204.917969 440.566406 204.679688 439.996094 204.300781 439.566406 C 203.871094 439.1875 203.300781 438.949219 202.539062 438.949219 L 188.609375 438.949219 L 188.609375 429.488281 L 201.542969 429.488281 C 202.304688 429.488281 202.921875 429.25 203.347656 428.867188 C 203.730469 428.488281 203.96875 427.871094 203.96875 427.109375 C 203.96875 426.347656 203.730469 425.777344 203.347656 425.351562 C 202.96875 424.96875 202.351562 424.730469 201.542969 424.730469 L 188.609375 424.730469 L 188.609375 415.746094 L 202.539062 415.746094 Z M 202.539062 415.886719 " fill-opacity="1" fill-rule="nonzero"/><path fill="#58595b" d="M 232.636719 427.109375 L 241.769531 414.890625 C 242.242188 414.175781 242.527344 413.511719 242.480469 412.894531 C 242.433594 412.273438 242.148438 411.75 241.671875 411.371094 C 241.195312 410.992188 240.578125 410.753906 239.816406 410.753906 C 239.152344 410.753906 238.628906 410.894531 238.152344 411.179688 C 237.679688 411.464844 237.203125 411.941406 236.726562 412.609375 L 229.453125 422.734375 L 222.128906 412.609375 C 221.65625 411.941406 221.132812 411.464844 220.703125 411.179688 C 220.230469 410.894531 219.65625 410.753906 219.039062 410.753906 C 218.328125 410.753906 217.707031 410.992188 217.234375 411.371094 C 216.757812 411.800781 216.472656 412.320312 216.425781 412.894531 C 216.378906 413.511719 216.566406 414.175781 217.089844 414.84375 L 226.21875 427.0625 L 216.566406 439.898438 C 216.09375 440.566406 215.855469 441.183594 215.949219 441.847656 C 215.996094 442.46875 216.328125 442.992188 216.757812 443.371094 C 217.234375 443.800781 217.851562 443.988281 218.613281 443.988281 C 219.230469 443.988281 219.753906 443.847656 220.277344 443.5625 C 220.75 443.226562 221.273438 442.800781 221.75 442.085938 L 229.40625 431.484375 L 237.109375 442.085938 C 237.582031 442.753906 238.105469 443.226562 238.582031 443.5625 C 239.058594 443.894531 239.582031 443.988281 240.199219 443.988281 C 240.960938 443.988281 241.625 443.75 242.148438 443.371094 C 242.625 442.941406 242.910156 442.421875 242.957031 441.847656 C 243.003906 441.277344 242.8125 440.566406 242.289062 439.898438 L 232.589844 427.109375 Z M 232.636719 427.109375 " fill-opacity="1" fill-rule="nonzero"/><path fill="#58595b" d="M 277.953125 411.230469 L 254.128906 411.230469 C 253.371094 411.230469 252.703125 411.464844 252.277344 411.847656 C 251.847656 412.273438 251.609375 412.894531 251.609375 413.652344 C 251.609375 414.414062 251.847656 415.03125 252.277344 415.460938 C 252.703125 415.886719 253.320312 416.125 254.128906 416.125 L 263.164062 416.125 L 263.164062 440.992188 C 263.164062 441.945312 263.449219 442.707031 263.925781 443.179688 C 264.402344 443.75 265.113281 443.988281 266.113281 443.988281 C 267.109375 443.988281 267.824219 443.703125 268.300781 443.179688 C 268.773438 442.65625 269.011719 441.898438 269.011719 440.992188 L 269.011719 416.125 L 278.046875 416.125 C 278.808594 416.125 279.472656 415.886719 279.902344 415.460938 C 280.328125 415.03125 280.566406 414.414062 280.566406 413.652344 C 280.566406 412.894531 280.328125 412.273438 279.902344 411.847656 C 279.425781 411.464844 278.808594 411.230469 277.902344 411.230469 Z M 277.953125 411.230469 " fill-opacity="1" fill-rule="nonzero"/><path fill="#58595b" d="M 310.472656 415.886719 C 311.234375 415.886719 311.851562 415.652344 312.234375 415.269531 C 312.660156 414.84375 312.851562 414.273438 312.851562 413.511719 C 312.851562 412.796875 312.613281 412.179688 312.234375 411.800781 C 311.804688 411.417969 311.234375 411.179688 310.472656 411.179688 L 294.023438 411.179688 C 293.023438 411.179688 292.265625 411.464844 291.691406 411.988281 C 291.121094 412.511719 290.886719 413.320312 290.886719 414.320312 L 290.886719 440.566406 C 290.886719 441.5625 291.171875 442.324219 291.691406 442.894531 C 292.214844 443.464844 293.023438 443.703125 294.023438 443.703125 L 310.472656 443.703125 C 311.234375 443.703125 311.851562 443.464844 312.234375 443.085938 C 312.660156 442.707031 312.851562 442.085938 312.851562 441.328125 C 312.851562 440.566406 312.613281 439.996094 312.234375 439.566406 C 311.804688 439.1875 311.234375 438.949219 310.472656 438.949219 L 296.542969 438.949219 L 296.542969 429.488281 L 309.476562 429.488281 C 310.238281 429.488281 310.855469 429.25 311.28125 428.867188 C 311.664062 428.488281 311.902344 427.871094 311.902344 427.109375 C 311.902344 426.347656 311.664062 425.777344 311.28125 425.351562 C 310.902344 424.96875 310.285156 424.730469 309.476562 424.730469 L 296.542969 424.730469 L 296.542969 415.746094 L 310.472656 415.746094 Z M 310.472656 415.886719 " fill-opacity="1" fill-rule="nonzero"/><path fill="#58595b" d="M 350.175781 410.894531 C 349.273438 410.894531 348.558594 411.132812 348.132812 411.609375 C 347.65625 412.085938 347.417969 412.75 347.417969 413.699219 L 347.417969 433.957031 L 330.96875 412.558594 C 330.492188 411.941406 330.015625 411.515625 329.683594 411.230469 C 329.351562 410.941406 328.78125 410.847656 328.066406 410.847656 C 327.304688 410.847656 326.6875 411.132812 326.214844 411.609375 C 325.738281 412.085938 325.5 412.796875 325.5 413.796875 L 325.5 441.277344 C 325.5 442.230469 325.738281 442.894531 326.214844 443.371094 C 326.6875 443.847656 327.355469 444.085938 328.257812 444.085938 C 329.160156 444.085938 329.777344 443.847656 330.300781 443.371094 C 330.730469 442.894531 331.015625 442.183594 331.015625 441.277344 L 331.015625 420.976562 L 347.46875 442.371094 C 347.941406 442.992188 348.417969 443.417969 348.847656 443.703125 C 349.273438 443.988281 349.84375 444.132812 350.511719 444.132812 C 351.222656 444.132812 351.839844 443.894531 352.269531 443.417969 C 352.695312 442.941406 352.933594 442.277344 352.933594 441.375 L 352.933594 413.699219 C 352.933594 412.796875 352.695312 412.085938 352.222656 411.609375 C 351.792969 411.132812 351.082031 410.894531 350.175781 410.894531 Z M 350.175781 410.894531 " fill-opacity="1" fill-rule="nonzero"/><path fill="#58595b" d="M 376.28125 411.230469 L 367.292969 411.230469 C 366.296875 411.230469 365.535156 411.515625 364.964844 412.035156 C 364.394531 412.558594 364.15625 413.367188 364.15625 414.367188 L 364.15625 440.613281 C 364.15625 441.613281 364.441406 442.371094 364.964844 442.941406 C 365.488281 443.511719 366.296875 443.75 367.292969 443.75 L 376.28125 443.75 C 379.039062 443.75 381.417969 443.371094 383.507812 442.65625 C 385.601562 441.945312 387.359375 440.898438 388.832031 439.519531 C 390.261719 438.140625 391.355469 436.429688 392.113281 434.480469 C 392.875 432.53125 393.207031 430.199219 393.207031 427.539062 C 393.207031 422.308594 391.734375 418.3125 388.738281 415.507812 C 385.933594 412.703125 381.75 411.277344 376.234375 411.277344 Z M 386.503906 432.484375 C 386.074219 433.910156 385.363281 435.050781 384.410156 436 C 383.460938 436.953125 382.320312 437.664062 380.941406 438.09375 C 379.5625 438.570312 377.898438 438.804688 375.996094 438.804688 L 370.195312 438.804688 L 370.195312 416.125 L 375.996094 416.125 C 379.753906 416.125 382.558594 417.078125 384.410156 418.929688 C 386.265625 420.785156 387.21875 423.589844 387.21875 427.394531 C 387.167969 429.390625 386.933594 431.007812 386.503906 432.433594 Z M 386.503906 432.484375 " fill-opacity="1" fill-rule="nonzero"/><path fill="#58595b" d="M 424.351562 415.886719 C 425.113281 415.886719 425.730469 415.652344 426.109375 415.269531 C 426.539062 414.84375 426.730469 414.273438 426.730469 413.511719 C 426.730469 412.796875 426.492188 412.179688 426.109375 411.800781 C 425.683594 411.417969 425.113281 411.179688 424.351562 411.179688 L 407.902344 411.179688 C 406.902344 411.179688 406.140625 411.464844 405.570312 411.988281 C 405 412.511719 404.761719 413.320312 404.761719 414.320312 L 404.761719 440.566406 C 404.761719 441.5625 405.046875 442.324219 405.570312 442.894531 C 406.09375 443.464844 406.902344 443.703125 407.902344 443.703125 L 424.351562 443.703125 C 425.113281 443.703125 425.730469 443.464844 426.109375 443.085938 C 426.539062 442.707031 426.730469 442.085938 426.730469 441.328125 C 426.730469 440.566406 426.492188 439.996094 426.109375 439.566406 C 425.683594 439.1875 425.113281 438.949219 424.351562 438.949219 L 410.421875 438.949219 L 410.421875 429.488281 L 423.351562 429.488281 C 424.113281 429.488281 424.730469 429.25 425.160156 428.867188 C 425.539062 428.488281 425.777344 427.871094 425.777344 427.109375 C 425.777344 426.347656 425.539062 425.777344 425.160156 425.351562 C 424.78125 424.96875 424.160156 424.730469 423.351562 424.730469 L 410.421875 424.730469 L 410.421875 415.746094 L 424.351562 415.746094 Z M 424.351562 415.886719 " fill-opacity="1" fill-rule="nonzero"/><path fill="#58595b" d="M 450.882812 411.230469 L 441.898438 411.230469 C 440.898438 411.230469 440.136719 411.515625 439.566406 412.035156 C 438.996094 412.558594 438.757812 413.367188 438.757812 414.367188 L 438.757812 440.613281 C 438.757812 441.613281 439.042969 442.371094 439.566406 442.941406 C 440.089844 443.511719 440.898438 443.75 441.898438 443.75 L 450.882812 443.75 C 453.640625 443.75 456.019531 443.371094 458.109375 442.65625 C 460.203125 441.945312 461.960938 440.898438 463.4375 439.519531 C 464.863281 438.140625 465.957031 436.429688 466.71875 434.480469 C 467.476562 432.53125 467.8125 430.199219 467.8125 427.539062 C 467.8125 422.308594 466.335938 418.3125 463.339844 415.507812 C 460.441406 412.703125 456.257812 411.277344 450.835938 411.277344 Z M 461.011719 432.484375 C 460.582031 433.910156 459.871094 435.050781 458.917969 436 C 457.96875 436.953125 456.828125 437.664062 455.449219 438.09375 C 454.070312 438.570312 452.40625 438.804688 450.503906 438.804688 L 444.703125 438.804688 L 444.703125 416.125 L 450.503906 416.125 C 454.257812 416.125 457.066406 417.078125 458.917969 418.929688 C 460.773438 420.785156 461.726562 423.589844 461.726562 427.394531 C 461.726562 429.390625 461.488281 431.007812 461.011719 432.433594 Z M 461.011719 432.484375 " fill-opacity="1" fill-rule="nonzero"/><path fill="#58595b" d="M 515.40625 425.777344 L 510.414062 424.730469 C 508.65625 424.351562 507.371094 423.828125 506.65625 423.210938 C 505.945312 422.546875 505.5625 421.6875 505.5625 420.546875 C 505.5625 419.550781 505.847656 418.742188 506.371094 418.027344 C 506.941406 417.316406 507.703125 416.742188 508.703125 416.363281 C 509.699219 415.984375 510.890625 415.746094 512.316406 415.746094 C 513.648438 415.746094 514.882812 415.886719 516.070312 416.171875 C 517.261719 416.457031 518.402344 416.886719 519.542969 417.550781 C 520.207031 417.933594 520.730469 418.027344 521.253906 417.980469 C 521.730469 417.933594 522.207031 417.695312 522.539062 417.363281 C 522.871094 417.03125 523.109375 416.648438 523.203125 416.171875 C 523.300781 415.699219 523.25 415.222656 523.109375 414.746094 C 522.964844 414.273438 522.632812 413.84375 522.109375 413.464844 C 520.78125 412.558594 519.304688 411.941406 517.640625 411.417969 C 515.976562 410.992188 514.21875 410.707031 512.410156 410.707031 C 510.605469 410.707031 508.84375 410.941406 507.277344 411.417969 C 505.707031 411.894531 504.421875 412.558594 503.28125 413.464844 C 502.1875 414.367188 501.285156 415.414062 500.714844 416.648438 C 500.097656 417.835938 499.761719 419.214844 499.761719 420.738281 C 499.761719 423.117188 500.476562 425.015625 501.902344 426.539062 C 503.328125 427.964844 505.46875 429.011719 508.417969 429.628906 L 513.457031 430.675781 C 515.3125 431.054688 516.691406 431.578125 517.449219 432.195312 C 518.210938 432.816406 518.59375 433.625 518.59375 434.71875 C 518.59375 436 518.023438 437.046875 516.929688 437.855469 C 515.835938 438.664062 514.074219 439.042969 511.648438 439.042969 C 509.984375 439.042969 508.417969 438.902344 506.894531 438.472656 C 505.421875 438.09375 503.996094 437.523438 502.617188 436.714844 C 501.996094 436.332031 501.523438 436.238281 501 436.285156 C 500.476562 436.332031 500.097656 436.621094 499.8125 437 C 499.476562 437.378906 499.335938 437.808594 499.191406 438.332031 C 499.144531 438.804688 499.191406 439.378906 499.429688 439.851562 C 499.667969 440.328125 500.046875 440.851562 500.570312 441.183594 C 501.523438 441.800781 502.617188 442.277344 503.757812 442.707031 C 504.945312 443.132812 506.230469 443.417969 507.5625 443.65625 C 508.890625 443.894531 510.269531 443.941406 511.554688 443.941406 C 513.550781 443.941406 515.3125 443.703125 516.832031 443.226562 C 518.355469 442.800781 519.734375 442.132812 520.828125 441.230469 C 521.921875 440.328125 522.824219 439.378906 523.394531 438.140625 C 524.011719 436.953125 524.296875 435.621094 524.296875 434.148438 C 524.296875 431.816406 523.535156 430.011719 522.109375 428.632812 C 520.683594 427.441406 518.402344 426.394531 515.359375 425.730469 Z M 515.40625 425.777344 " fill-opacity="1" fill-rule="nonzero"/><path fill="#58595b" d="M 558.058594 411.230469 L 534.234375 411.230469 C 533.476562 411.230469 532.808594 411.464844 532.382812 411.847656 C 531.953125 412.273438 531.714844 412.894531 531.714844 413.652344 C 531.714844 414.414062 531.953125 415.03125 532.382812 415.460938 C 532.808594 415.886719 533.425781 416.125 534.234375 416.125 L 543.222656 416.125 L 543.222656 440.992188 C 543.222656 441.945312 543.507812 442.707031 543.984375 443.179688 C 544.457031 443.75 545.171875 443.988281 546.171875 443.988281 C 547.167969 443.988281 547.882812 443.703125 548.355469 443.179688 C 548.832031 442.65625 549.070312 441.898438 549.070312 440.992188 L 549.070312 416.125 L 558.105469 416.125 C 558.867188 416.125 559.53125 415.886719 559.957031 415.460938 C 560.386719 415.03125 560.625 414.414062 560.625 413.652344 C 560.625 412.894531 560.386719 412.273438 559.957031 411.847656 C 559.386719 411.464844 558.816406 411.230469 558.007812 411.230469 Z M 558.058594 411.230469 " fill-opacity="1" fill-rule="nonzero"/><path fill="#58595b" d="M 583.828125 413.367188 C 583.449219 412.464844 582.925781 411.847656 582.402344 411.417969 C 581.878906 410.992188 581.210938 410.847656 580.453125 410.847656 C 579.691406 410.847656 579.074219 410.992188 578.503906 411.417969 C 577.933594 411.847656 577.457031 412.464844 577.074219 413.367188 L 564.902344 440.328125 C 564.570312 441.042969 564.476562 441.660156 564.570312 442.277344 C 564.667969 442.894531 564.953125 443.324219 565.378906 443.65625 C 565.808594 443.988281 566.425781 444.132812 567.136719 444.132812 C 567.898438 444.132812 568.566406 443.894531 568.945312 443.511719 C 569.375 443.132812 569.753906 442.46875 570.230469 441.5625 L 572.464844 436.238281 L 588.296875 436.238281 L 590.628906 441.5625 C 591.007812 442.46875 591.386719 443.039062 591.910156 443.511719 C 592.386719 443.941406 593.050781 444.132812 593.90625 444.132812 C 594.621094 444.132812 595.191406 443.988281 595.621094 443.65625 C 596.046875 443.324219 596.332031 442.894531 596.378906 442.277344 C 596.476562 441.660156 596.332031 441.089844 596 440.328125 L 583.78125 413.367188 Z M 580.355469 417.601562 L 580.453125 417.601562 L 586.300781 431.484375 L 574.460938 431.484375 Z M 580.355469 417.601562 " fill-opacity="1" fill-rule="nonzero"/><path fill="#58595b" d="M 627.050781 413.035156 C 627.050781 412.417969 626.8125 411.941406 626.335938 411.515625 C 625.90625 411.085938 625.289062 410.894531 624.480469 410.894531 C 623.816406 410.894531 623.199219 411.039062 622.769531 411.324219 C 622.34375 411.609375 621.820312 412.085938 621.34375 412.75 L 613.640625 423.496094 L 606.03125 412.703125 C 605.605469 412.035156 605.082031 411.609375 604.605469 411.277344 C 604.132812 410.941406 603.558594 410.847656 602.941406 410.847656 C 602.132812 410.847656 601.46875 411.085938 600.992188 411.515625 C 600.566406 411.941406 600.28125 412.511719 600.230469 413.128906 C 600.183594 413.75 600.328125 414.320312 600.800781 414.890625 L 610.691406 428.773438 L 610.691406 440.992188 C 610.691406 441.992188 610.976562 442.753906 611.453125 443.226562 C 611.929688 443.800781 612.640625 444.035156 613.640625 444.035156 C 615.636719 444.035156 616.539062 442.992188 616.539062 440.945312 L 616.539062 428.773438 L 626.382812 414.890625 C 626.8125 414.273438 627.050781 413.605469 627 413.035156 Z M 627.050781 413.035156 " fill-opacity="1" fill-rule="nonzero"/><path fill="#58595b" d="M 303.292969 470.710938 C 304.054688 470.425781 304.671875 469.949219 305.148438 469.378906 C 305.816406 468.617188 306.148438 467.621094 306.148438 466.527344 C 306.148438 465.527344 305.863281 464.671875 305.386719 463.960938 C 304.910156 463.246094 304.199219 462.628906 303.246094 462.246094 C 302.296875 461.867188 301.15625 461.628906 299.824219 461.628906 L 293.308594 461.628906 C 292.597656 461.628906 292.121094 461.773438 291.691406 462.199219 C 291.3125 462.582031 291.121094 463.152344 291.121094 463.863281 L 291.121094 478.414062 C 291.121094 479.128906 291.265625 479.699219 291.691406 480.078125 C 292.121094 480.457031 292.644531 480.648438 293.308594 480.648438 L 300.0625 480.648438 C 302.105469 480.648438 303.675781 480.171875 304.863281 479.222656 C 306.050781 478.269531 306.574219 476.988281 306.574219 475.324219 C 306.574219 474.039062 306.195312 472.992188 305.480469 472.183594 C 305.007812 471.519531 304.199219 471.089844 303.292969 470.804688 Z M 295.164062 464.71875 L 299.109375 464.71875 C 300.15625 464.71875 300.917969 464.863281 301.441406 465.289062 C 301.914062 465.671875 302.203125 466.289062 302.203125 467.050781 C 302.203125 467.8125 301.914062 468.382812 301.441406 468.761719 C 300.964844 469.140625 300.15625 469.332031 299.109375 469.332031 L 295.164062 469.332031 Z M 301.914062 476.84375 C 301.441406 477.226562 300.632812 477.464844 299.585938 477.464844 L 295.164062 477.464844 L 295.164062 472.519531 L 299.585938 472.519531 C 300.632812 472.519531 301.394531 472.753906 301.914062 473.136719 C 302.390625 473.515625 302.675781 474.183594 302.675781 474.992188 C 302.675781 475.796875 302.390625 476.417969 301.914062 476.84375 Z M 301.914062 476.84375 " fill-opacity="1" fill-rule="nonzero"/><path fill="#58595b" d="M 326.023438 461.34375 C 325.59375 461.34375 325.214844 461.4375 324.882812 461.675781 C 324.546875 461.914062 324.214844 462.246094 323.882812 462.675781 L 320.03125 468.238281 L 316.179688 462.675781 C 315.847656 462.246094 315.515625 461.867188 315.183594 461.675781 C 314.847656 461.4375 314.46875 461.34375 314.039062 461.34375 C 313.421875 461.34375 312.996094 461.488281 312.660156 461.820312 C 312.328125 462.152344 312.1875 462.53125 312.089844 462.914062 C 312.042969 463.339844 312.1875 463.722656 312.472656 464.101562 L 317.941406 471.898438 L 317.941406 478.507812 C 317.941406 479.222656 318.082031 479.699219 318.511719 480.125 C 318.84375 480.507812 319.414062 480.695312 320.03125 480.695312 C 321.410156 480.695312 322.125 479.984375 322.125 478.554688 L 322.125 471.996094 L 327.59375 464.246094 C 327.925781 463.816406 328.019531 463.292969 328.019531 462.867188 C 328.019531 462.4375 327.878906 462.058594 327.542969 461.773438 C 327.070312 461.488281 326.59375 461.34375 326.070312 461.34375 Z M 326.023438 461.34375 " fill-opacity="1" fill-rule="nonzero"/><path fill="#58595b" d="M 370.8125 461.34375 C 370.242188 461.34375 369.816406 461.4375 369.480469 461.722656 C 369.148438 462.011719 368.863281 462.4375 368.722656 463.007812 L 364.773438 474.753906 L 360.828125 463.101562 C 360.589844 462.484375 360.398438 462.058594 360.066406 461.820312 C 359.734375 461.535156 359.355469 461.4375 358.878906 461.4375 C 358.402344 461.4375 357.925781 461.535156 357.59375 461.820312 C 357.261719 462.105469 356.976562 462.53125 356.832031 463.101562 L 352.695312 474.609375 L 348.847656 463.101562 C 348.703125 462.53125 348.417969 462.105469 348.085938 461.820312 C 347.753906 461.535156 347.324219 461.4375 346.707031 461.4375 C 345.898438 461.4375 345.328125 461.675781 344.996094 462.152344 C 344.660156 462.628906 344.613281 463.199219 344.898438 463.863281 L 350.273438 479.128906 C 350.511719 479.699219 350.746094 480.125 351.082031 480.410156 C 351.414062 480.695312 351.890625 480.792969 352.460938 480.792969 C 353.078125 480.792969 353.503906 480.695312 353.839844 480.410156 C 354.171875 480.125 354.457031 479.699219 354.648438 479.128906 L 358.640625 468 L 362.539062 479.128906 C 362.777344 479.699219 363.015625 480.125 363.347656 480.410156 C 363.679688 480.695312 364.15625 480.792969 364.726562 480.792969 C 365.296875 480.792969 365.773438 480.695312 366.105469 480.410156 C 366.4375 480.125 366.722656 479.699219 366.914062 479.128906 L 372.382812 463.863281 C 372.667969 463.199219 372.621094 462.582031 372.285156 462.152344 C 372 461.675781 371.480469 461.390625 370.8125 461.390625 Z M 370.8125 461.34375 " fill-opacity="1" fill-rule="nonzero"/><path fill="#58595b" d="M 392.160156 461.34375 C 391.734375 461.34375 391.355469 461.4375 391.019531 461.675781 C 390.6875 461.914062 390.355469 462.246094 390.023438 462.675781 L 386.171875 468.238281 L 382.320312 462.675781 C 381.988281 462.246094 381.652344 461.867188 381.320312 461.675781 C 380.988281 461.4375 380.609375 461.34375 380.179688 461.34375 C 379.5625 461.34375 379.132812 461.488281 378.800781 461.820312 C 378.46875 462.152344 378.324219 462.53125 378.230469 462.914062 C 378.183594 463.339844 378.324219 463.722656 378.609375 464.101562 L 384.078125 471.898438 L 384.078125 478.507812 C 384.078125 479.222656 384.222656 479.699219 384.648438 480.125 C 384.980469 480.507812 385.554688 480.695312 386.171875 480.695312 C 387.550781 480.695312 388.261719 479.984375 388.261719 478.554688 L 388.261719 471.996094 L 393.730469 464.246094 C 394.0625 463.816406 394.160156 463.292969 394.160156 462.867188 C 394.160156 462.4375 394.015625 462.058594 393.683594 461.773438 C 393.207031 461.488281 392.734375 461.34375 392.210938 461.34375 Z M 392.160156 461.34375 " fill-opacity="1" fill-rule="nonzero"/><path fill="#58595b" d="M 415.9375 461.34375 C 415.269531 461.34375 414.792969 461.488281 414.460938 461.820312 C 414.128906 462.152344 413.988281 462.628906 413.988281 463.246094 L 413.988281 473.515625 L 405.285156 462.4375 C 404.953125 462.058594 404.621094 461.722656 404.382812 461.535156 C 404.144531 461.34375 403.765625 461.25 403.289062 461.25 C 402.71875 461.25 402.289062 461.390625 401.957031 461.820312 C 401.625 462.152344 401.480469 462.722656 401.480469 463.339844 L 401.480469 478.652344 C 401.480469 479.316406 401.625 479.792969 401.957031 480.125 C 402.289062 480.457031 402.765625 480.601562 403.382812 480.601562 C 404 480.601562 404.476562 480.457031 404.808594 480.125 C 405.144531 479.792969 405.285156 479.316406 405.285156 478.652344 L 405.285156 468.382812 L 413.988281 479.507812 C 414.367188 479.886719 414.652344 480.21875 414.984375 480.410156 C 415.269531 480.554688 415.699219 480.695312 416.171875 480.695312 C 416.648438 480.695312 417.125 480.554688 417.363281 480.21875 C 417.695312 479.886719 417.789062 479.414062 417.789062 478.839844 L 417.789062 463.339844 C 417.789062 462.722656 417.648438 462.246094 417.316406 461.914062 C 416.980469 461.535156 416.507812 461.34375 415.886719 461.34375 Z M 415.9375 461.34375 " fill-opacity="1" fill-rule="nonzero"/><path fill="#58595b" d="M 432.910156 461.582031 L 427.679688 461.582031 C 426.96875 461.582031 426.492188 461.722656 426.0625 462.152344 C 425.636719 462.582031 425.492188 463.101562 425.492188 463.816406 L 425.492188 478.367188 C 425.492188 479.078125 425.636719 479.648438 426.0625 480.03125 C 426.492188 480.410156 427.015625 480.601562 427.679688 480.601562 L 432.910156 480.601562 C 434.574219 480.601562 436 480.363281 437.191406 479.984375 C 438.472656 479.554688 439.519531 478.9375 440.375 478.175781 C 441.277344 477.367188 441.898438 476.371094 442.371094 475.226562 C 442.847656 474.085938 443.039062 472.707031 443.039062 471.234375 C 443.039062 468.191406 442.136719 465.910156 440.375 464.246094 C 438.570312 462.53125 436.097656 461.722656 432.910156 461.722656 Z M 438.285156 473.707031 C 438 474.46875 437.664062 475.085938 437.191406 475.5625 C 436.714844 476.035156 436.046875 476.464844 435.335938 476.65625 C 434.621094 476.84375 433.671875 477.035156 432.625 477.035156 L 429.675781 477.035156 L 429.675781 464.910156 L 432.625 464.910156 C 434.667969 464.910156 436.191406 465.386719 437.191406 466.382812 C 438.1875 467.382812 438.664062 468.902344 438.664062 470.949219 C 438.664062 471.996094 438.570312 472.945312 438.285156 473.660156 Z M 438.285156 473.707031 " fill-opacity="1" fill-rule="nonzero"/><path fill="#58595b" d="M 465.195312 461.34375 C 464.53125 461.34375 464.007812 461.488281 463.578125 461.914062 C 463.152344 462.34375 463.007812 462.816406 463.007812 463.53125 L 463.007812 469.238281 L 454.257812 469.238281 L 454.257812 463.53125 C 454.257812 462.816406 454.117188 462.34375 453.6875 461.914062 C 453.261719 461.488281 452.785156 461.34375 452.167969 461.34375 C 451.550781 461.34375 451.027344 461.488281 450.644531 461.914062 C 450.265625 462.34375 450.074219 462.816406 450.074219 463.53125 L 450.074219 478.652344 C 450.074219 479.316406 450.21875 479.839844 450.644531 480.269531 C 450.980469 480.648438 451.550781 480.839844 452.167969 480.839844 C 452.878906 480.839844 453.355469 480.695312 453.785156 480.269531 C 454.210938 479.839844 454.355469 479.363281 454.355469 478.652344 L 454.355469 472.707031 L 463.105469 472.707031 L 463.105469 478.652344 C 463.105469 479.316406 463.246094 479.839844 463.675781 480.269531 C 464.054688 480.648438 464.578125 480.839844 465.289062 480.839844 C 465.957031 480.839844 466.433594 480.695312 466.8125 480.269531 C 467.191406 479.839844 467.382812 479.363281 467.382812 478.652344 L 467.382812 463.53125 C 467.382812 462.816406 467.242188 462.34375 466.8125 461.914062 C 466.382812 461.488281 465.863281 461.34375 465.195312 461.34375 Z M 465.195312 461.34375 " fill-opacity="1" fill-rule="nonzero"/><path fill="#58595b" d="M 485.546875 463.054688 C 485.261719 462.4375 484.929688 462.011719 484.5 461.773438 C 484.121094 461.488281 483.691406 461.390625 483.121094 461.390625 C 482.644531 461.390625 482.171875 461.488281 481.742188 461.773438 C 481.316406 462.058594 480.980469 462.484375 480.695312 463.054688 L 473.800781 478.128906 C 473.5625 478.605469 473.515625 479.078125 473.5625 479.460938 C 473.613281 479.839844 473.847656 480.171875 474.132812 480.410156 C 474.46875 480.648438 474.847656 480.742188 475.324219 480.742188 C 475.941406 480.742188 476.371094 480.601562 476.65625 480.316406 C 476.941406 480.03125 477.226562 479.601562 477.558594 478.984375 L 478.652344 476.417969 L 487.496094 476.417969 L 488.589844 478.984375 C 488.875 479.601562 489.160156 480.03125 489.492188 480.316406 C 489.824219 480.601562 490.300781 480.742188 490.917969 480.742188 C 491.347656 480.742188 491.824219 480.648438 492.058594 480.410156 C 492.394531 480.171875 492.535156 479.839844 492.632812 479.460938 C 492.726562 479.078125 492.632812 478.652344 492.347656 478.128906 L 485.5 463.054688 Z M 483.121094 466.003906 L 486.210938 473.136719 L 480.171875 473.136719 Z M 483.121094 466.003906 " fill-opacity="1" fill-rule="nonzero"/><path fill="#58595b" d="M 518.164062 461.820312 C 517.832031 461.488281 517.402344 461.34375 516.785156 461.34375 C 516.214844 461.34375 515.835938 461.4375 515.5 461.628906 C 515.167969 461.867188 514.882812 462.199219 514.691406 462.675781 L 508.890625 473.230469 L 503.089844 462.675781 C 502.804688 462.199219 502.519531 461.867188 502.28125 461.628906 C 501.949219 461.390625 501.570312 461.34375 501 461.34375 C 500.382812 461.34375 499.90625 461.488281 499.574219 461.820312 C 499.238281 462.152344 499.003906 462.628906 499.003906 463.246094 L 499.003906 478.699219 C 499.003906 479.316406 499.144531 479.792969 499.476562 480.125 C 499.8125 480.457031 500.238281 480.601562 500.855469 480.601562 C 501.476562 480.601562 501.949219 480.457031 502.28125 480.125 C 502.617188 479.792969 502.757812 479.316406 502.757812 478.699219 L 502.757812 468.953125 L 507.179688 476.796875 C 507.417969 477.128906 507.609375 477.367188 507.847656 477.511719 C 508.132812 477.652344 508.464844 477.796875 508.84375 477.796875 C 509.226562 477.796875 509.511719 477.75 509.796875 477.558594 C 510.035156 477.414062 510.222656 477.175781 510.460938 476.796875 L 514.882812 468.953125 L 514.882812 478.746094 C 514.882812 479.363281 515.027344 479.839844 515.359375 480.171875 C 515.691406 480.507812 516.121094 480.648438 516.738281 480.648438 C 517.355469 480.648438 517.832031 480.507812 518.164062 480.171875 C 518.496094 479.839844 518.640625 479.363281 518.640625 478.746094 L 518.640625 463.292969 C 518.59375 462.628906 518.402344 462.152344 518.070312 461.820312 Z M 518.164062 461.820312 " fill-opacity="1" fill-rule="nonzero"/><path fill="#58595b" d="M 243.90625 373.429688 L 243.90625 350.082031 C 243.90625 343.519531 243.953125 340.285156 245.855469 337.578125 C 248.328125 334.152344 248.804688 333.34375 248.757812 332.011719 C 248.664062 331.0625 248.328125 330.015625 245.332031 330.015625 L 226.742188 330.015625 C 223.792969 330.015625 223.367188 331.0625 223.320312 332.0625 C 223.273438 333.34375 223.746094 334.152344 226.21875 337.578125 C 228.074219 340.285156 228.214844 343.566406 228.214844 350.082031 L 228.214844 357.691406 L 203.492188 357.691406 L 203.492188 350.082031 C 203.492188 343.519531 203.539062 340.285156 205.441406 337.578125 C 207.914062 334.152344 208.390625 333.34375 208.339844 332.011719 C 208.246094 331.0625 207.914062 330.015625 204.917969 330.015625 L 186.328125 330.015625 C 183.378906 330.015625 182.949219 331.0625 182.902344 332.0625 C 182.855469 333.34375 183.332031 334.152344 185.804688 337.578125 C 187.65625 340.285156 187.800781 343.566406 187.800781 350.082031 L 187.800781 373.429688 C 187.800781 380.035156 187.707031 383.316406 185.804688 385.933594 C 183.425781 389.214844 182.855469 390.210938 182.902344 391.542969 C 183 392.496094 183.332031 393.398438 186.328125 393.398438 L 204.917969 393.398438 C 207.867188 393.398438 208.292969 392.445312 208.339844 391.449219 C 208.390625 390.164062 207.867188 389.117188 205.441406 385.839844 C 203.585938 383.269531 203.445312 379.941406 203.445312 373.332031 L 203.445312 364.441406 L 228.167969 364.441406 L 228.167969 373.332031 C 228.167969 379.941406 228.074219 383.222656 226.171875 385.839844 C 223.792969 389.117188 223.222656 390.117188 223.273438 391.449219 C 223.367188 392.398438 223.699219 393.304688 226.695312 393.304688 L 245.285156 393.304688 C 248.234375 393.304688 248.664062 392.351562 248.710938 391.351562 C 248.757812 390.070312 248.234375 389.023438 245.808594 385.742188 C 244.050781 383.269531 243.953125 379.941406 243.953125 373.378906 Z M 243.90625 373.429688 " fill-opacity="1" fill-rule="nonzero"/><path fill="#58595b" d="M 364.300781 364.394531 C 366.058594 358.355469 368.054688 355.882812 369.339844 354.265625 C 370.289062 353.125 370.765625 352.507812 370.859375 351.222656 C 370.859375 350.890625 370.859375 350.511719 370.527344 350.175781 C 370.195312 349.84375 369.625 349.703125 368.910156 349.703125 L 358.878906 349.703125 C 356.359375 349.703125 356.214844 350.84375 356.167969 351.414062 C 356.027344 352.554688 356.453125 353.21875 357.121094 354.171875 C 358.402344 355.929688 360.164062 358.355469 358.164062 365.011719 L 352.601562 384.460938 L 351.699219 380.941406 C 351.652344 380.65625 345.421875 355.503906 344.613281 352.507812 C 343.949219 350.175781 343.617188 349.75 341.523438 349.75 L 336.292969 349.75 C 334.25 349.75 333.773438 350.222656 333.058594 353.125 C 332.25 355.976562 325.59375 380.703125 325.5 380.988281 L 324.597656 384.363281 L 323.644531 380.988281 C 323.644531 380.988281 318.273438 362.113281 317.464844 359.542969 C 316.847656 357.355469 318.082031 355.976562 318.984375 354.789062 C 319.699219 353.980469 320.363281 353.171875 320.460938 352.078125 C 320.554688 350.984375 320.222656 350.652344 320.125 350.460938 C 319.460938 349.75 317.65625 349.652344 315.847656 349.652344 L 301.011719 349.652344 C 297.492188 349.652344 297.113281 350.558594 296.921875 351.652344 C 296.78125 353.265625 297.304688 354.027344 299.253906 356.597656 C 301.394531 359.496094 302.390625 361.539062 305.195312 369.578125 C 308.289062 378.65625 311.28125 387.453125 311.617188 388.261719 C 313.421875 393.113281 316.226562 393.445312 320.648438 393.445312 C 325.40625 393.445312 327.734375 392.636719 329.066406 387.882812 C 329.445312 386.742188 330.539062 382.320312 331.777344 377.707031 C 332.347656 375.613281 332.820312 373.476562 333.394531 371.382812 L 334.296875 367.863281 L 335.292969 371.335938 C 337.148438 378.183594 339.429688 386.695312 339.859375 388.359375 C 341.285156 393.113281 344.1875 393.398438 348.941406 393.398438 C 353.269531 393.398438 355.550781 392.589844 357.355469 387.789062 C 357.59375 387.027344 361.589844 373.378906 364.203125 364.441406 Z M 364.300781 364.394531 " fill-opacity="1" fill-rule="nonzero"/><path fill="#58595b" d="M 409.800781 383.554688 C 408.992188 382.605469 407.472656 383.175781 406.710938 383.601562 C 404 385.078125 401.386719 385.316406 399.4375 384.222656 C 397.773438 383.222656 396.871094 381.367188 396.871094 378.894531 L 396.871094 355.882812 L 405.570312 355.882812 C 407.042969 355.882812 408.28125 354.695312 408.28125 353.171875 L 408.28125 352.363281 C 408.28125 350.9375 406.996094 349.652344 405.570312 349.652344 L 396.871094 349.652344 L 396.871094 341.808594 C 396.871094 339.050781 396.296875 338.386719 394.113281 338.386719 L 390.355469 338.386719 C 388.121094 338.386719 387.503906 340 386.644531 342.855469 C 385.695312 345.898438 384.601562 349.703125 379.5625 349.703125 L 377.613281 349.703125 C 376.136719 349.703125 374.902344 350.890625 374.902344 352.410156 L 374.902344 353.21875 C 374.902344 354.742188 376.042969 355.929688 377.613281 355.929688 L 381.75 355.929688 L 381.75 379.609375 C 381.75 392.496094 390.640625 394.398438 396.011719 394.398438 C 402.765625 394.398438 408.1875 390.59375 409.800781 387.027344 C 410.183594 386.21875 410.609375 384.695312 409.753906 383.601562 Z M 409.800781 383.554688 " fill-opacity="1" fill-rule="nonzero"/><path fill="#58595b" d="M 465.101562 373.429688 L 465.101562 363.347656 C 465.101562 356.359375 461.011719 348.941406 449.648438 348.941406 C 444.988281 348.941406 440.613281 350.796875 436.761719 354.550781 L 435.097656 356.167969 L 435.097656 335.105469 C 435.097656 333.390625 434.765625 331.15625 433.339844 330.0625 C 432.199219 329.160156 430.484375 329.066406 428.203125 329.683594 C 427.777344 329.828125 426.445312 330.253906 424.683594 330.777344 C 422.6875 331.394531 420.40625 332.0625 418.882812 332.585938 C 415.984375 333.535156 415.269531 334.582031 415.128906 335.863281 C 415.082031 337.195312 415.554688 338.195312 417.933594 341.476562 C 419.789062 344.042969 419.976562 347.277344 419.976562 353.980469 L 419.976562 373.570312 C 419.976562 380.226562 419.738281 383.414062 417.933594 386.027344 C 415.554688 389.308594 415.082031 390.308594 415.128906 391.640625 C 415.222656 392.589844 415.554688 393.492188 418.550781 393.492188 L 436.476562 393.492188 C 439.710938 393.492188 439.757812 392.351562 439.757812 391.640625 C 439.898438 390.261719 439.328125 389.261719 436.953125 385.980469 C 435.097656 383.414062 434.957031 380.085938 434.957031 373.476562 L 434.957031 366.867188 C 434.957031 358.210938 439.519531 356.929688 442.277344 356.929688 C 445.699219 356.929688 447.9375 358.78125 448.980469 362.445312 C 449.886719 365.34375 449.886719 369.054688 449.886719 372.285156 L 449.886719 373.476562 C 449.886719 380.085938 449.789062 383.367188 447.886719 385.980469 C 445.464844 389.214844 444.941406 390.261719 444.988281 391.589844 C 445.082031 392.542969 445.414062 393.445312 448.410156 393.445312 L 466.335938 393.445312 C 469.285156 393.445312 469.617188 392.496094 469.761719 391.496094 C 469.808594 390.164062 469.191406 389.167969 466.859375 385.886719 C 465.148438 383.367188 465.054688 380.035156 465.054688 373.429688 Z M 465.101562 373.429688 " fill-opacity="1" fill-rule="nonzero"/><path fill="#58595b" d="M 566.472656 353.363281 C 564.761719 350.460938 561.480469 348.84375 557.152344 348.84375 C 552.828125 348.84375 549.5 350.320312 546.644531 353.410156 L 545.265625 354.882812 L 544.980469 352.839844 C 544.742188 351.175781 544.171875 350.035156 543.175781 349.367188 C 542.507812 348.941406 541.746094 348.75 540.796875 348.75 C 540.035156 348.75 539.179688 348.84375 538.277344 349.132812 C 537.230469 349.417969 531.714844 351.128906 528.957031 351.984375 C 526.058594 352.933594 525.34375 353.980469 525.203125 355.265625 C 525.152344 356.597656 525.628906 357.59375 528.007812 360.875 C 529.859375 363.441406 530.003906 367.054688 530.003906 373.570312 C 530.003906 380.085938 529.910156 383.222656 528.007812 385.789062 C 525.628906 389.070312 525.152344 390.070312 525.203125 391.402344 C 525.296875 392.351562 525.628906 393.253906 528.625 393.253906 L 547.214844 393.253906 C 550.019531 393.253906 550.402344 392.304688 550.59375 391.257812 C 550.828125 389.878906 549.5 388.214844 547.214844 385.789062 C 545.21875 383.601562 545.171875 379.941406 545.171875 373.191406 L 545.171875 361.683594 C 545.21875 359.828125 545.3125 355.976562 549.117188 355.976562 C 551.78125 355.976562 552.542969 357.785156 553.253906 359.542969 C 553.683594 360.542969 554.15625 361.683594 555.015625 362.777344 C 556.394531 364.632812 558.4375 365.628906 560.71875 365.488281 C 563.050781 365.390625 565.1875 364.0625 566.28125 362.113281 C 567.898438 359.210938 567.945312 355.835938 566.378906 353.21875 Z M 566.472656 353.363281 " fill-opacity="1" fill-rule="nonzero"/><path fill="#58595b" d="M 622.390625 373.429688 L 622.390625 363.347656 C 622.390625 356.359375 618.300781 348.941406 606.9375 348.941406 C 602.179688 348.941406 597.855469 350.890625 594.050781 354.597656 L 592.527344 356.121094 L 592.433594 353.980469 C 592.339844 351.839844 591.671875 350.414062 590.578125 349.558594 C 589.4375 348.75 587.726562 348.609375 585.539062 349.226562 C 584.492188 349.511719 578.976562 351.222656 576.21875 352.078125 C 573.320312 353.03125 572.605469 354.074219 572.464844 355.359375 C 572.417969 356.691406 572.890625 357.691406 575.269531 360.96875 C 577.21875 363.632812 577.3125 367.53125 577.3125 373.664062 C 577.3125 379.800781 577.074219 383.367188 575.269531 385.886719 C 572.890625 389.167969 572.417969 390.164062 572.464844 391.496094 C 572.558594 392.445312 572.890625 393.351562 575.886719 393.351562 L 593.8125 393.351562 C 597.046875 393.351562 597.09375 392.210938 597.09375 391.496094 C 597.238281 390.117188 596.664062 389.117188 594.289062 385.839844 C 592.433594 383.269531 592.292969 379.941406 592.292969 373.332031 L 592.292969 366.722656 C 592.292969 358.070312 596.855469 356.785156 599.613281 356.785156 C 603.039062 356.785156 605.273438 358.640625 606.316406 362.300781 C 607.222656 365.203125 607.222656 368.910156 607.222656 372.144531 L 607.222656 373.332031 C 607.222656 379.941406 607.125 383.222656 605.226562 385.839844 C 602.847656 389.117188 602.277344 390.117188 602.324219 391.449219 C 602.417969 392.398438 602.753906 393.304688 605.746094 393.304688 L 623.671875 393.304688 C 626.621094 393.304688 626.953125 392.351562 627.097656 391.351562 C 627.144531 390.023438 626.527344 389.023438 624.195312 385.742188 C 622.484375 383.222656 622.4375 379.894531 622.4375 373.285156 Z M 622.390625 373.429688 " fill-opacity="1" fill-rule="nonzero"/><path fill="#58595b" d="M 300.25 386.027344 C 299.492188 385.601562 298.539062 385.03125 297.589844 383.984375 C 295.496094 381.796875 295.496094 377.136719 295.542969 371.289062 L 295.542969 367.339844 C 295.542969 354.742188 289.507812 348.894531 276.429688 348.894531 C 269.058594 348.894531 259.742188 350.320312 257.171875 357.023438 C 256.554688 358.496094 256.554688 359.925781 257.125 361.160156 C 257.601562 362.300781 258.648438 363.300781 259.882812 363.726562 C 261.738281 364.347656 263.355469 364.347656 264.6875 363.679688 C 266.207031 362.917969 267.394531 361.253906 268.15625 358.78125 C 269.25 355.3125 271.914062 353.648438 275.621094 354.21875 C 280.472656 354.933594 280.472656 360.542969 280.472656 365.058594 L 280.472656 367.292969 L 279.472656 367.292969 C 260.976562 367.292969 252.75 371.953125 252.75 382.367188 C 252.75 389.738281 258.550781 394.300781 267.824219 394.300781 C 273.292969 394.300781 276.90625 392.542969 279.332031 388.785156 L 280.375 387.121094 L 281.042969 388.929688 C 282.421875 392.636719 285.84375 394.253906 292.121094 394.253906 C 297.066406 394.253906 301.535156 391.402344 301.679688 388.074219 C 301.773438 386.882812 301.394531 386.597656 300.25 385.933594 Z M 281.136719 378.894531 C 281.042969 386.550781 277 387.644531 274.574219 387.597656 C 272.53125 387.550781 270.867188 386.929688 269.726562 385.648438 C 268.441406 384.269531 267.871094 382.222656 268.015625 379.75 C 268.394531 375.472656 271.484375 372.191406 275.667969 371.621094 C 277.617188 371.335938 279.140625 371.191406 280.140625 372.050781 C 281.042969 372.808594 281.136719 374.140625 281.136719 375.1875 Z M 281.136719 378.894531 " fill-opacity="1" fill-rule="nonzero"/><path fill="#58595b" d="M 497.289062 348.84375 C 482.171875 348.84375 472.757812 357.546875 472.757812 371.527344 C 472.757812 385.503906 482.171875 394.253906 497.289062 394.253906 C 512.410156 394.253906 521.730469 385.550781 521.730469 371.527344 C 521.730469 357.5 512.316406 348.84375 497.289062 348.84375 Z M 497.289062 387.3125 C 491.679688 387.3125 488.207031 381.273438 488.207031 371.527344 C 488.207031 361.777344 491.632812 355.789062 497.289062 355.789062 C 502.949219 355.789062 506.324219 361.777344 506.324219 371.527344 C 506.277344 381.273438 502.855469 387.3125 497.289062 387.3125 Z M 497.289062 387.3125 " fill-opacity="1" fill-rule="nonzero"/></svg>