<svg xmlns="http://www.w3.org/2000/svg" xmlns:xlink="http://www.w3.org/1999/xlink" width="1080" zoomAndPan="magnify" viewBox="0 0 810 809.999993" height="1080" preserveAspectRatio="xMidYMid meet" version="1.0"><defs><clipPath id="6a68ee9d75"><path d="M 190.75 358 L 223 358 L 223 406 L 190.75 406 Z M 190.75 358 " clip-rule="nonzero"/></clipPath></defs><rect x="-81" width="972" fill="#ffffff" y="-80.999999" height="971.999992" fill-opacity="1"/><rect x="-81" width="972" fill="#ffffff" y="-80.999999" height="971.999992" fill-opacity="1"/><path fill="#58595b" d="M 191.035156 451.597656 L 209.292969 451.597656 L 209.292969 446.414062 L 196.3125 446.414062 L 196.3125 439.851562 L 206.058594 439.851562 L 206.058594 434.621094 L 196.3125 434.621094 L 196.3125 428.203125 L 209.292969 428.203125 L 209.292969 422.925781 L 191.035156 422.925781 Z M 191.035156 451.597656 " fill-opacity="1" fill-rule="nonzero"/><path fill="#58595b" d="M 247.425781 422.925781 L 241.148438 422.925781 L 234.824219 432.53125 L 228.550781 422.925781 L 222.320312 422.925781 L 231.734375 437.191406 L 222.273438 451.597656 L 228.453125 451.597656 L 234.824219 441.945312 L 241.148438 451.5 L 241.195312 451.597656 L 247.425781 451.597656 L 237.964844 437.191406 L 247.1875 423.257812 Z M 247.425781 422.925781 " fill-opacity="1" fill-rule="nonzero"/><path fill="#58595b" d="M 259.027344 428.203125 L 267.492188 428.203125 L 267.492188 451.597656 L 272.675781 451.597656 L 272.675781 428.203125 L 281.136719 428.203125 L 281.136719 422.925781 L 259.027344 422.925781 Z M 259.027344 428.203125 " fill-opacity="1" fill-rule="nonzero"/><path fill="#58595b" d="M 294.355469 451.597656 L 312.566406 451.597656 L 312.566406 446.414062 L 299.585938 446.414062 L 299.585938 439.851562 L 309.382812 439.851562 L 309.382812 434.621094 L 299.585938 434.621094 L 299.585938 428.203125 L 312.566406 428.203125 L 312.566406 422.925781 L 294.355469 422.925781 Z M 294.355469 451.597656 " fill-opacity="1" fill-rule="nonzero"/><path fill="#58595b" d="M 344.1875 439.664062 L 327.070312 422.59375 L 326.734375 422.210938 L 326.734375 451.597656 L 331.964844 451.597656 L 331.964844 435.097656 L 348.988281 452.167969 L 349.367188 452.5 L 349.367188 422.925781 L 344.1875 422.925781 Z M 344.1875 439.664062 " fill-opacity="1" fill-rule="nonzero"/><path fill="#58595b" d="M 381.417969 440.753906 C 381.035156 441.847656 380.417969 442.847656 379.65625 443.703125 C 378.847656 444.558594 377.945312 445.226562 376.898438 445.699219 C 375.851562 446.128906 374.664062 446.414062 373.378906 446.414062 L 369.578125 446.414062 L 369.578125 428.203125 L 373.378906 428.203125 C 375.996094 428.203125 378.136719 429.058594 379.65625 430.816406 C 380.417969 431.675781 380.988281 432.625 381.417969 433.71875 C 381.796875 434.8125 382.035156 436 382.035156 437.191406 C 382.035156 438.378906 381.796875 439.613281 381.417969 440.753906 Z M 383.554688 427.300781 C 382.273438 425.875 380.75 424.78125 378.992188 424.066406 C 377.230469 423.304688 375.328125 422.925781 373.378906 422.925781 L 364.347656 422.925781 L 364.347656 451.597656 L 373.378906 451.597656 C 375.378906 451.597656 377.28125 451.214844 378.992188 450.457031 C 380.75 449.695312 382.273438 448.601562 383.554688 447.222656 C 384.746094 445.890625 385.648438 444.371094 386.265625 442.65625 C 386.882812 440.945312 387.167969 439.140625 387.167969 437.238281 C 387.167969 435.335938 386.882812 433.574219 386.265625 431.863281 C 385.648438 430.199219 384.746094 428.679688 383.554688 427.347656 Z M 383.554688 427.300781 " fill-opacity="1" fill-rule="nonzero"/><path fill="#58595b" d="M 400.671875 451.597656 L 418.929688 451.597656 L 418.929688 446.414062 L 405.902344 446.414062 L 405.902344 439.851562 L 415.699219 439.851562 L 415.699219 434.621094 L 405.902344 434.621094 L 405.902344 428.203125 L 418.929688 428.203125 L 418.929688 422.925781 L 400.671875 422.925781 Z M 400.671875 451.597656 " fill-opacity="1" fill-rule="nonzero"/><path fill="#58595b" d="M 450.121094 440.753906 C 449.742188 441.847656 449.125 442.847656 448.363281 443.703125 C 447.554688 444.558594 446.652344 445.226562 445.605469 445.699219 C 444.558594 446.175781 443.371094 446.414062 442.085938 446.414062 L 438.285156 446.414062 L 438.285156 428.203125 L 442.085938 428.203125 C 444.703125 428.203125 446.84375 429.058594 448.363281 430.816406 C 449.125 431.675781 449.695312 432.625 450.121094 433.71875 C 450.503906 434.8125 450.742188 436 450.742188 437.191406 C 450.742188 438.425781 450.503906 439.613281 450.121094 440.753906 Z M 452.261719 427.300781 C 450.980469 425.875 449.457031 424.78125 447.699219 424.066406 C 445.9375 423.304688 444.035156 422.925781 442.085938 422.925781 L 433.054688 422.925781 L 433.054688 451.597656 L 442.085938 451.597656 C 444.085938 451.597656 445.984375 451.214844 447.699219 450.457031 C 449.457031 449.695312 450.980469 448.601562 452.261719 447.222656 C 453.453125 445.890625 454.355469 444.371094 454.972656 442.65625 C 455.589844 440.945312 455.875 439.140625 455.875 437.238281 C 455.875 435.335938 455.589844 433.574219 454.972656 431.863281 C 454.355469 430.199219 453.453125 428.679688 452.261719 427.347656 Z M 452.261719 427.300781 " fill-opacity="1" fill-rule="nonzero"/><path fill="#58595b" d="M 506.039062 436.097656 C 504.804688 435.476562 502.855469 435.003906 500.332031 434.667969 C 499.476562 434.527344 498.8125 434.433594 498.148438 434.335938 C 497.527344 434.242188 497.003906 434.050781 496.578125 433.910156 C 495.910156 433.625 495.339844 433.242188 495.007812 432.769531 C 494.628906 432.292969 494.4375 431.816406 494.4375 431.292969 C 494.4375 430.53125 494.867188 429.867188 495.769531 429.203125 C 496.339844 428.820312 496.957031 428.488281 497.71875 428.296875 C 499.191406 427.871094 500.808594 427.871094 502.28125 428.296875 C 503.042969 428.535156 503.710938 428.820312 504.234375 429.203125 C 505.089844 429.867188 505.5625 430.582031 505.5625 431.246094 L 505.5625 431.578125 L 510.367188 428.867188 L 510.367188 428.679688 C 509.75 427.253906 508.796875 425.96875 507.371094 424.921875 C 506.417969 424.210938 505.277344 423.636719 503.996094 423.257812 C 501.476562 422.449219 498.621094 422.449219 496.148438 423.257812 C 494.867188 423.636719 493.722656 424.210938 492.773438 424.921875 C 491.679688 425.777344 490.824219 426.730469 490.253906 427.773438 C 489.636719 428.867188 489.351562 430.011719 489.351562 431.246094 C 489.351562 432.769531 489.777344 434.195312 490.679688 435.527344 C 491.539062 436.855469 492.773438 437.855469 494.390625 438.617188 C 495.625 439.1875 497.433594 439.613281 499.761719 439.898438 C 501.808594 440.183594 503.140625 440.421875 503.710938 440.753906 C 504.328125 441.042969 504.804688 441.515625 505.136719 441.945312 C 505.46875 442.371094 505.660156 442.847656 505.660156 443.324219 C 505.660156 444.085938 505.230469 444.75 504.328125 445.414062 C 503.757812 445.796875 503.140625 446.128906 502.378906 446.320312 C 500.953125 446.746094 499.289062 446.746094 497.8125 446.320312 C 497.054688 446.082031 496.386719 445.796875 495.863281 445.414062 C 495.578125 445.179688 495.246094 444.941406 495.007812 444.558594 C 494.722656 444.226562 494.628906 443.847656 494.582031 443.417969 L 494.582031 443.132812 L 490.015625 445.75 L 489.875 445.84375 L 489.875 446.035156 C 490.445312 447.460938 491.394531 448.695312 492.820312 449.742188 C 493.773438 450.457031 494.914062 451.027344 496.195312 451.40625 C 497.480469 451.785156 498.8125 451.976562 500.144531 451.976562 C 501.476562 451.976562 502.804688 451.738281 504.089844 451.40625 C 505.375 451.027344 506.515625 450.457031 507.464844 449.742188 C 508.558594 448.886719 509.464844 447.9375 510.035156 446.890625 C 510.652344 445.796875 510.9375 444.605469 510.9375 443.417969 C 510.9375 441.992188 510.507812 440.613281 509.652344 439.378906 C 508.75 438.046875 507.609375 437 506.132812 436.191406 Z M 506.039062 436.097656 " fill-opacity="1" fill-rule="nonzero"/><path fill="#58595b" d="M 522.160156 428.203125 L 530.574219 428.203125 L 530.574219 451.597656 L 535.757812 451.597656 L 535.757812 428.203125 L 544.269531 428.203125 L 544.269531 422.925781 L 522.160156 422.925781 Z M 522.160156 428.203125 " fill-opacity="1" fill-rule="nonzero"/><path fill="#58595b" d="M 561.859375 442.46875 L 565.140625 435.335938 L 568.28125 442.46875 Z M 552.019531 451.3125 L 551.875 451.597656 L 557.628906 451.597656 L 559.4375 447.746094 L 570.609375 447.746094 L 572.320312 451.597656 L 578.027344 451.597656 L 565.285156 422.6875 L 552.019531 451.359375 Z M 552.019531 451.3125 " fill-opacity="1" fill-rule="nonzero"/><path fill="#58595b" d="M 605.984375 422.925781 L 597.617188 436.476562 L 589.390625 423.066406 L 589.34375 422.925781 L 583.066406 422.925781 L 595 441.992188 L 595 451.597656 L 600.230469 451.597656 L 600.230469 441.992188 L 612.261719 422.925781 Z M 605.984375 422.925781 " fill-opacity="1" fill-rule="nonzero"/><g clip-path="url(#6a68ee9d75)"><path fill="#58595b" d="M 190.703125 405.902344 L 222.128906 405.902344 L 222.128906 395.203125 L 201.496094 395.203125 L 201.496094 387.3125 L 217.042969 387.3125 L 217.042969 376.519531 L 201.496094 376.519531 L 201.496094 368.769531 L 222.128906 368.769531 L 222.128906 358.023438 L 190.703125 358.023438 Z M 190.703125 405.902344 " fill-opacity="1" fill-rule="nonzero"/></g><path fill="#58595b" d="M 262.164062 390.496094 C 260.835938 392.066406 259.265625 393.351562 257.457031 394.253906 C 255.652344 395.109375 253.703125 395.585938 251.707031 395.585938 C 249.28125 395.585938 247.09375 394.96875 245.046875 393.730469 C 243.003906 392.496094 241.292969 390.78125 240.105469 388.738281 C 238.914062 386.644531 238.296875 384.363281 238.296875 381.9375 C 238.296875 379.515625 238.914062 377.183594 240.105469 375.140625 C 241.292969 373.046875 242.957031 371.382812 245 370.148438 C 247.046875 368.910156 249.328125 368.292969 251.707031 368.292969 C 253.558594 368.292969 255.414062 368.671875 257.125 369.433594 C 258.835938 370.242188 260.359375 371.335938 261.691406 372.714844 L 262.738281 373.855469 L 270.628906 366.675781 L 269.628906 365.535156 C 267.347656 362.96875 264.636719 360.96875 261.5 359.589844 C 258.363281 358.210938 255.082031 357.546875 251.707031 357.546875 C 247.378906 357.546875 243.289062 358.640625 239.582031 360.828125 C 235.871094 362.96875 232.921875 365.960938 230.785156 369.71875 C 228.644531 373.476562 227.550781 377.566406 227.550781 381.9375 C 227.550781 386.3125 228.644531 390.402344 230.785156 394.160156 C 232.921875 397.867188 235.871094 400.863281 239.582031 403.050781 C 243.289062 405.238281 247.378906 406.332031 251.707031 406.332031 C 255.367188 406.332031 258.933594 405.523438 262.214844 403.90625 C 265.496094 402.335938 268.300781 400.054688 270.582031 397.25 L 271.53125 396.0625 L 263.117188 389.402344 L 262.164062 390.59375 Z M 262.164062 390.496094 " fill-opacity="1" fill-rule="nonzero"/><path fill="#58595b" d="M 303.816406 358.023438 L 303.816406 376.519531 L 288.175781 376.519531 L 288.175781 358.023438 L 277.476562 358.023438 L 277.476562 405.902344 L 288.175781 405.902344 L 288.175781 387.3125 L 303.816406 387.3125 L 303.816406 405.902344 L 314.609375 405.902344 L 314.5625 358.023438 Z M 303.816406 358.023438 " fill-opacity="1" fill-rule="nonzero"/><path fill="#58595b" d="M 345.753906 395.585938 C 343.332031 395.585938 341.046875 394.96875 339.050781 393.730469 C 337.007812 392.496094 335.34375 390.832031 334.152344 388.738281 C 332.964844 386.644531 332.347656 384.363281 332.347656 381.9375 C 332.347656 379.515625 332.964844 377.183594 334.152344 375.140625 C 335.34375 373.046875 337.007812 371.382812 339.050781 370.148438 C 341.09375 368.910156 343.378906 368.292969 345.753906 368.292969 C 348.132812 368.292969 350.460938 368.910156 352.460938 370.148438 C 354.503906 371.382812 356.167969 373.046875 357.355469 375.09375 C 358.546875 377.136719 359.164062 379.464844 359.164062 381.9375 C 359.164062 384.410156 358.546875 386.742188 357.355469 388.785156 C 356.167969 390.832031 354.503906 392.542969 352.460938 393.730469 C 350.414062 394.96875 348.132812 395.585938 345.753906 395.585938 Z M 366.722656 369.765625 C 364.585938 366.058594 361.589844 363.109375 357.878906 360.875 C 354.171875 358.6875 350.082031 357.59375 345.753906 357.59375 C 341.429688 357.59375 337.339844 358.6875 333.628906 360.875 C 329.921875 363.015625 326.972656 366.011719 324.785156 369.765625 C 322.648438 373.523438 321.503906 377.613281 321.503906 381.988281 C 321.503906 386.359375 322.597656 390.449219 324.785156 394.207031 C 326.925781 397.914062 329.921875 400.863281 333.628906 403.097656 C 337.339844 405.238281 341.429688 406.378906 345.753906 406.378906 C 350.082031 406.378906 354.171875 405.285156 357.878906 403.097656 C 361.589844 400.957031 364.535156 397.960938 366.722656 394.207031 C 368.863281 390.449219 370.003906 386.359375 370.003906 381.988281 C 370.003906 377.613281 368.863281 373.476562 366.722656 369.765625 Z M 366.722656 369.765625 " fill-opacity="1" fill-rule="nonzero"/><path fill="#58595b" d="M 411.464844 369.957031 L 411.464844 369.578125 C 411.179688 367.390625 410.324219 365.296875 408.707031 363.492188 C 407.140625 361.683594 405.046875 360.257812 402.574219 359.210938 C 400.054688 358.164062 397.34375 357.640625 394.492188 357.640625 C 391.640625 357.640625 388.644531 358.210938 386.074219 359.355469 C 383.460938 360.496094 381.417969 362.0625 379.894531 364.011719 C 378.375 366.011719 377.566406 368.199219 377.566406 370.527344 C 377.566406 372.667969 378.277344 374.757812 379.609375 376.707031 C 380.988281 378.65625 382.796875 380.179688 385.125 381.226562 C 386.550781 381.84375 388.359375 382.367188 390.640625 382.699219 L 394.398438 383.316406 C 395.824219 383.460938 397.390625 383.699219 399.105469 384.03125 C 400.769531 384.316406 402.148438 384.839844 403.191406 385.410156 C 404.953125 386.410156 406.378906 387.644531 407.328125 389.070312 C 408.28125 390.496094 408.757812 391.972656 408.757812 393.492188 C 408.757812 395.300781 408.136719 396.964844 406.902344 398.4375 C 405.617188 399.960938 403.90625 401.242188 401.71875 402.195312 C 399.53125 403.097656 397.105469 403.621094 394.492188 403.621094 C 391.875 403.621094 389.546875 403.144531 387.3125 402.242188 C 385.171875 401.339844 383.414062 400.101562 382.128906 398.484375 C 380.847656 396.964844 380.226562 395.253906 380.226562 393.492188 L 380.226562 392.445312 L 377.566406 394.015625 L 377.566406 394.398438 C 377.851562 396.582031 378.707031 398.675781 380.273438 400.484375 C 381.796875 402.289062 383.890625 403.714844 386.359375 404.808594 C 388.832031 405.808594 391.589844 406.332031 394.492188 406.332031 C 397.390625 406.332031 400.339844 405.761719 402.90625 404.667969 C 405.523438 403.527344 407.613281 402.003906 409.089844 400.054688 C 410.609375 398.058594 411.417969 395.871094 411.417969 393.539062 C 411.417969 391.496094 410.753906 389.453125 409.46875 387.550781 C 408.1875 385.648438 406.472656 384.125 404.335938 383.082031 C 403.097656 382.414062 401.71875 381.988281 400.199219 381.652344 C 398.769531 381.367188 396.871094 381.035156 394.683594 380.75 C 394.253906 380.65625 393.445312 380.511719 392.304688 380.371094 C 391.210938 380.179688 390.117188 380.035156 389.070312 379.75 C 388.023438 379.515625 387.074219 379.230469 386.265625 378.894531 C 384.363281 378.039062 382.890625 376.851562 381.84375 375.328125 C 380.796875 373.855469 380.273438 372.238281 380.273438 370.621094 C 380.273438 368.769531 380.894531 367.105469 382.128906 365.535156 C 383.414062 363.964844 385.125 362.730469 387.265625 361.777344 C 389.453125 360.875 391.875 360.398438 394.492188 360.398438 C 397.105469 360.398438 399.53125 360.875 401.71875 361.777344 C 403.859375 362.683594 405.617188 363.917969 406.902344 365.488281 C 408.136719 367.007812 408.757812 368.671875 408.757812 370.433594 L 408.757812 371.429688 L 411.464844 369.910156 Z M 411.464844 369.957031 " fill-opacity="1" fill-rule="nonzero"/><path fill="#58595b" d="M 456.398438 388.023438 C 456.398438 390.117188 456.019531 392.113281 455.257812 393.96875 C 454.449219 395.824219 453.355469 397.535156 451.882812 398.960938 C 450.457031 400.433594 448.792969 401.578125 446.9375 402.382812 C 445.082031 403.191406 443.132812 403.527344 441.042969 403.527344 C 436.714844 403.527344 433.054688 402.003906 430.105469 398.960938 C 428.679688 397.535156 427.585938 395.777344 426.871094 393.96875 C 426.109375 392.066406 425.730469 390.117188 425.730469 388.023438 L 425.730469 358.355469 L 423.066406 358.355469 L 423.066406 388.023438 C 423.066406 390.402344 423.496094 392.730469 424.398438 394.96875 C 425.253906 397.203125 426.539062 399.199219 428.203125 400.910156 C 429.867188 402.671875 431.863281 404.046875 434.050781 404.90625 C 436.285156 405.808594 438.617188 406.285156 441.089844 406.285156 C 443.5625 406.285156 445.796875 405.855469 447.984375 404.90625 C 450.171875 403.953125 452.167969 402.671875 453.785156 400.910156 C 455.449219 399.199219 456.730469 397.203125 457.589844 394.96875 C 458.445312 392.78125 458.917969 390.402344 458.917969 388.023438 L 458.917969 358.355469 L 456.351562 358.355469 L 456.351562 388.023438 Z M 456.398438 388.023438 " fill-opacity="1" fill-rule="nonzero"/><path fill="#58595b" d="M 472.757812 358.355469 L 475.417969 358.355469 L 475.417969 405.808594 L 472.757812 405.808594 Z M 472.757812 358.355469 " fill-opacity="1" fill-rule="nonzero"/><path fill="#58595b" d="M 486.164062 361.066406 L 506.132812 361.066406 L 506.132812 405.808594 L 508.84375 405.808594 L 508.84375 361.066406 L 528.957031 361.066406 L 528.957031 358.355469 L 486.164062 358.355469 Z M 486.164062 361.066406 " fill-opacity="1" fill-rule="nonzero"/><path fill="#58595b" d="M 539.179688 405.808594 L 570.703125 405.808594 L 570.703125 403.003906 L 541.890625 403.003906 L 541.890625 383.367188 L 564.476562 383.367188 L 564.476562 380.703125 L 541.890625 380.703125 L 541.890625 361.066406 L 570.703125 361.066406 L 570.703125 358.355469 L 539.179688 358.355469 Z M 539.179688 405.808594 " fill-opacity="1" fill-rule="nonzero"/><path fill="#58595b" d="M 606.792969 383.03125 C 605.558594 382.367188 604.179688 381.9375 602.65625 381.605469 C 601.230469 381.320312 599.328125 380.988281 597.140625 380.703125 C 596.714844 380.609375 595.90625 380.464844 594.765625 380.324219 C 593.671875 380.132812 592.578125 379.988281 591.53125 379.703125 C 590.484375 379.464844 589.535156 379.179688 588.726562 378.847656 C 586.824219 377.992188 585.347656 376.804688 584.304688 375.28125 C 583.257812 373.808594 582.734375 372.191406 582.734375 370.574219 C 582.734375 368.71875 583.351562 367.054688 584.589844 365.488281 C 585.871094 363.917969 587.585938 362.683594 589.722656 361.730469 C 591.910156 360.828125 594.335938 360.351562 596.953125 360.351562 C 599.566406 360.351562 601.992188 360.828125 604.179688 361.730469 C 606.316406 362.632812 608.078125 363.871094 609.359375 365.441406 C 610.597656 366.960938 611.214844 368.625 611.214844 370.386719 L 611.214844 371.382812 L 613.925781 369.957031 L 613.925781 369.578125 C 613.640625 367.390625 612.785156 365.296875 611.167969 363.492188 C 609.597656 361.683594 607.507812 360.257812 605.035156 359.210938 C 602.515625 358.164062 599.804688 357.640625 596.953125 357.640625 C 594.097656 357.640625 591.101562 358.210938 588.535156 359.355469 C 585.96875 360.496094 583.875 362.0625 582.355469 364.011719 C 580.832031 366.011719 580.023438 368.199219 580.023438 370.527344 C 580.023438 372.667969 580.738281 374.757812 582.070312 376.707031 C 583.449219 378.65625 585.253906 380.179688 587.585938 381.226562 C 589.011719 381.84375 590.816406 382.367188 593.101562 382.699219 L 596.855469 383.316406 C 598.28125 383.460938 599.851562 383.699219 601.5625 384.03125 C 603.226562 384.316406 604.605469 384.839844 605.652344 385.410156 C 607.410156 386.410156 608.839844 387.644531 609.789062 389.070312 C 610.738281 390.496094 611.214844 391.972656 611.214844 393.492188 C 611.214844 395.300781 610.597656 396.964844 609.359375 398.4375 C 608.078125 399.960938 606.367188 401.242188 604.179688 402.195312 C 601.992188 403.097656 599.566406 403.621094 596.953125 403.621094 C 594.335938 403.621094 592.007812 403.144531 589.773438 402.242188 C 587.632812 401.339844 585.871094 400.101562 584.589844 398.484375 C 583.304688 396.964844 582.6875 395.253906 582.6875 393.492188 L 582.6875 392.445312 L 580.023438 394.015625 L 580.023438 394.398438 C 580.308594 396.582031 581.164062 398.675781 582.734375 400.484375 C 584.257812 402.289062 586.347656 403.714844 588.820312 404.808594 C 591.292969 405.808594 594.050781 406.332031 596.953125 406.332031 C 599.851562 406.332031 602.800781 405.761719 605.367188 404.667969 C 607.984375 403.527344 610.074219 402.003906 611.546875 400.054688 C 613.070312 398.058594 613.878906 395.871094 613.878906 393.539062 C 613.878906 391.496094 613.210938 389.453125 611.929688 387.550781 C 610.597656 385.550781 608.886719 384.078125 606.792969 382.984375 Z M 606.792969 383.03125 " fill-opacity="1" fill-rule="nonzero"/></svg>