<svg xmlns="http://www.w3.org/2000/svg" xmlns:xlink="http://www.w3.org/1999/xlink" width="1080" zoomAndPan="magnify" viewBox="0 0 810 809.999993" height="1080" preserveAspectRatio="xMidYMid meet" version="1.0"><rect x="-81" width="972" fill="#ffffff" y="-80.999999" height="971.999992" fill-opacity="1"/><rect x="-81" width="972" fill="#ffffff" y="-80.999999" height="971.999992" fill-opacity="1"/><path fill="#58595b" d="M 456.210938 460.964844 C 450.3125 457.636719 449.125 447.460938 453.023438 437.476562 C 458.0625 424.589844 470.664062 419.167969 475.894531 422.164062 C 483.976562 426.917969 481.363281 439.328125 475.894531 449.316406 C 470.757812 458.445312 462.296875 464.292969 456.398438 460.964844 Z M 459.679688 439.804688 C 457.921875 447.746094 457.351562 458.300781 461.914062 457.875 C 466.480469 457.445312 469.664062 449.125 471.425781 441.183594 C 473.183594 433.242188 472.660156 425.730469 468.808594 425.921875 C 464.957031 426.109375 461.535156 431.863281 459.679688 439.804688 Z M 459.679688 439.804688 " fill-opacity="1" fill-rule="nonzero"/><path fill="#58595b" d="M 340.050781 461.296875 L 347.941406 460.058594 C 347.941406 460.058594 352.316406 448.363281 353.171875 444.796875 C 354.027344 441.230469 360.78125 427.726562 366.960938 428.011719 C 367.4375 427.953125 367.914062 427.976562 368.382812 428.082031 C 368.851562 428.1875 369.289062 428.371094 369.691406 428.632812 C 370.097656 428.894531 370.445312 429.21875 370.734375 429.601562 C 371.027344 429.984375 371.242188 430.40625 371.382812 430.867188 L 373.949219 422.972656 C 373.789062 422.660156 373.578125 422.386719 373.328125 422.140625 C 373.074219 421.898438 372.789062 421.703125 372.46875 421.550781 C 372.152344 421.402344 371.820312 421.304688 371.472656 421.265625 C 371.121094 421.222656 370.777344 421.238281 370.433594 421.308594 C 365.679688 422.164062 362.871094 424.636719 356.546875 434.003906 L 360.542969 420.59375 C 356.105469 421.699219 351.601562 422.394531 347.039062 422.6875 L 346.515625 424.398438 C 348.101562 424.542969 349.6875 424.542969 351.269531 424.398438 C 352.695312 424.398438 351.605469 425.539062 351.269531 426.96875 C 350.9375 428.394531 340.097656 461.296875 340.097656 461.296875 Z M 340.050781 461.296875 " fill-opacity="1" fill-rule="nonzero"/><path fill="#58595b" d="M 397.203125 453.972656 C 393.730469 457.585938 390.308594 458.394531 392.449219 451.976562 L 405.617188 406.804688 C 401.167969 407.945312 396.652344 408.660156 392.066406 408.945312 L 391.542969 410.65625 L 396.296875 410.65625 C 397.628906 410.65625 396.632812 411.800781 396.296875 413.226562 C 395.964844 414.652344 395.0625 417.550781 393.828125 421.640625 C 385.980469 420.167969 378.136719 424.019531 371.714844 436.332031 C 366.296875 446.558594 365.535156 457.351562 370.480469 461.203125 C 374.425781 464.246094 382.175781 457.253906 385.839844 450.597656 C 385.839844 451.121094 382.414062 467.859375 392.734375 460.109375 C 394.585938 458.660156 396.3125 457.074219 397.914062 455.351562 L 397.105469 453.832031 Z M 387.691406 440.613281 C 384.175781 452.261719 378.847656 456.78125 375.757812 456.78125 C 372.667969 456.78125 374.664062 448.648438 377.707031 440.421875 C 380.75 432.195312 385.410156 424.78125 388.929688 423.972656 C 390.070312 423.6875 392.78125 423.972656 392.019531 426.585938 Z M 387.691406 440.613281 " fill-opacity="1" fill-rule="nonzero"/><path fill="#58595b" d="M 336.152344 455.117188 C 332.871094 457.253906 330.398438 457.113281 332.0625 451.5 L 340.144531 422.972656 C 338.023438 422.253906 335.867188 421.648438 333.679688 421.167969 C 325.785156 419.691406 318.175781 423.6875 311.851562 435.8125 C 306.480469 446.082031 305.71875 456.875 310.617188 460.726562 C 314.5625 463.816406 322.363281 456.78125 326.070312 450.121094 C 326.070312 450.644531 322.410156 467.144531 332.726562 459.632812 L 337.148438 456.398438 L 336.386719 455.164062 Z M 315.753906 456.304688 C 312.140625 456.304688 314.753906 448.171875 317.84375 439.949219 C 320.933594 431.722656 325.453125 424.351562 329.019531 423.496094 C 330.113281 423.210938 331.917969 423.496094 332.394531 424.636719 C 331.492188 427.824219 330.539062 431.054688 329.730469 433.8125 C 329.257812 435.335938 328.542969 437.664062 327.828125 440.136719 C 324.359375 451.738281 318.984375 456.257812 315.847656 456.257812 Z M 315.753906 456.304688 " fill-opacity="1" fill-rule="nonzero"/><path fill="#58595b" d="M 316.179688 417.886719 C 305.101562 418.457031 296.496094 439.519531 293.453125 446.128906 L 295.070312 421.167969 C 292.613281 422.257812 290.046875 422.890625 287.367188 423.066406 L 275.242188 450.789062 C 275.242188 450.789062 276.289062 434.289062 276.714844 425.683594 C 277.097656 418.359375 267.917969 419.453125 262.449219 423.925781 L 262.449219 425.351562 C 265.921875 423.828125 268.679688 422.546875 268.679688 427.773438 C 268.679688 434.527344 266.921875 461.488281 266.921875 461.488281 L 274.289062 460.296875 L 286.511719 432.625 L 284.847656 461.722656 L 292.121094 460.582031 C 292.121094 460.582031 302.773438 422.78125 316.371094 419.265625 L 315.800781 418.074219 Z M 316.179688 417.886719 " fill-opacity="1" fill-rule="nonzero"/><path fill="#58595b" d="M 236.585938 460.488281 C 230.6875 457.113281 229.546875 446.9375 233.398438 437 C 238.582031 424.019531 251.039062 418.695312 256.316406 421.6875 C 264.402344 426.445312 261.738281 438.855469 256.316406 448.792969 C 251.132812 457.96875 242.71875 463.816406 236.773438 460.488281 Z M 240.105469 439.328125 C 238.296875 447.269531 237.726562 457.824219 242.289062 457.398438 C 246.855469 456.96875 250.089844 448.648438 251.800781 440.707031 C 253.511719 432.769531 252.988281 425.253906 249.183594 425.445312 C 245.382812 425.636719 241.816406 431.390625 240.007812 439.328125 Z M 240.105469 439.328125 " fill-opacity="1" fill-rule="nonzero"/><path fill="#58595b" d="M 172.015625 467.335938 C 163.359375 467.335938 169.921875 445.84375 184.140625 437.761719 C 187.15625 435.488281 190.503906 433.902344 194.171875 433.003906 L 190.558594 444.84375 C 182.378906 469 172.015625 467.335938 172.015625 467.335938 Z M 194.835938 430.152344 C 193.257812 430.449219 191.707031 430.847656 190.179688 431.34375 C 188.652344 431.839844 187.164062 432.433594 185.710938 433.125 C 184.261719 433.816406 182.863281 434.597656 181.511719 435.464844 C 180.164062 436.335938 178.875 437.292969 177.648438 438.328125 C 176.421875 439.367188 175.269531 440.480469 174.183594 441.664062 C 173.101562 442.851562 172.101562 444.105469 171.179688 445.417969 C 170.257812 446.734375 169.425781 448.105469 168.683594 449.53125 C 167.941406 450.953125 167.292969 452.417969 166.738281 453.925781 C 157.65625 479.128906 189.273438 473.753906 197.976562 445.699219 L 202.113281 432.292969 L 218.753906 432.292969 L 213.429688 450.695312 C 212.144531 454.449219 211.148438 466.71875 221.464844 459.15625 C 223.804688 457.425781 225.929688 455.460938 227.835938 453.261719 L 226.601562 451.644531 C 222.699219 455.828125 218.945312 458.109375 221.035156 451.074219 L 234.492188 406 L 226.410156 407.664062 L 219.421875 430.199219 L 202.777344 430.199219 L 209.910156 406.425781 L 201.636719 408.042969 C 199.878906 413.75 197.308594 422.023438 194.789062 430.34375 Z M 194.835938 430.152344 " fill-opacity="1" fill-rule="nonzero"/><path fill="#58595b" d="M 548.355469 454.878906 L 546.882812 455.875 C 546.882812 455.875 541.699219 459.585938 543.507812 453.59375 C 545.3125 447.601562 551.113281 428.726562 551.113281 428.726562 C 551.113281 428.726562 554.207031 421.214844 549.261719 421.308594 C 544.316406 421.402344 538.46875 425.539062 531.953125 435.144531 L 536.183594 421.308594 C 531.722656 422.472656 527.1875 423.199219 522.585938 423.496094 L 522.0625 425.304688 C 523.648438 425.445312 525.234375 425.445312 526.816406 425.304688 C 528.195312 425.304688 527.101562 426.445312 526.816406 427.964844 C 526.53125 429.488281 516.738281 460.632812 516.738281 460.632812 L 524.535156 459.394531 L 529.671875 442.609375 C 529.671875 442.609375 538.5625 426.253906 542.890625 428.773438 C 542.890625 428.773438 544.03125 428.773438 542.128906 434.433594 C 540.226562 440.089844 535.898438 454.734375 535.898438 454.734375 C 535.898438 454.734375 533.140625 462.675781 538.894531 462.199219 C 540.847656 461.78125 542.707031 461.109375 544.476562 460.179688 C 546.246094 459.25 547.855469 458.101562 549.308594 456.730469 L 548.453125 454.925781 Z M 548.355469 454.878906 " fill-opacity="1" fill-rule="nonzero"/><path fill="#58595b" d="M 641.410156 454.878906 L 639.933594 455.875 C 639.933594 455.875 634.75 459.585938 636.558594 453.59375 C 638.367188 447.601562 644.167969 428.867188 644.167969 428.867188 C 644.167969 428.867188 647.257812 421.355469 642.3125 421.453125 C 637.367188 421.546875 631.472656 425.683594 625.003906 435.289062 L 629.234375 421.453125 C 624.789062 422.609375 620.273438 423.339844 615.683594 423.636719 L 615.113281 425.445312 C 616.699219 425.589844 618.285156 425.589844 619.871094 425.445312 C 621.296875 425.445312 620.25 426.585938 619.871094 428.109375 C 619.488281 429.628906 609.835938 460.582031 609.835938 460.582031 L 617.730469 459.347656 L 622.863281 442.5625 C 622.863281 442.5625 631.660156 426.207031 635.941406 428.726562 C 635.941406 428.726562 637.082031 428.726562 635.179688 434.382812 C 633.277344 440.042969 628.949219 454.6875 628.949219 454.6875 C 628.949219 454.6875 626.191406 462.628906 631.898438 462.152344 C 633.859375 461.738281 635.730469 461.066406 637.507812 460.140625 C 639.28125 459.210938 640.898438 458.058594 642.359375 456.683594 L 641.503906 454.878906 Z M 641.410156 454.878906 " fill-opacity="1" fill-rule="nonzero"/><path fill="#58595b" d="M 576.980469 434.8125 L 579.691406 425.824219 C 579.691406 425.824219 578.167969 419.691406 569.609375 421.070312 C 557.914062 423.210938 558.4375 431.722656 558.4375 431.722656 C 558.4375 431.722656 557.628906 435.429688 564.332031 445.464844 C 569.609375 453.355469 564.855469 457.96875 564.855469 457.96875 C 564.652344 458.121094 564.433594 458.253906 564.207031 458.363281 C 563.976562 458.472656 563.738281 458.558594 563.488281 458.621094 C 563.242188 458.683594 562.992188 458.722656 562.738281 458.734375 C 562.484375 458.746094 562.230469 458.734375 561.976562 458.695312 C 561.726562 458.660156 561.480469 458.597656 561.238281 458.511719 C 561 458.425781 560.769531 458.316406 560.550781 458.183594 C 560.335938 458.050781 560.132812 457.898438 559.941406 457.726562 C 559.753906 457.554688 559.585938 457.367188 559.4375 457.160156 C 559.25 456.90625 559.09375 456.636719 558.960938 456.351562 C 558.199219 455.269531 557.683594 454.078125 557.417969 452.777344 C 557.15625 451.480469 557.160156 450.183594 557.4375 448.886719 L 556.441406 448.222656 L 552.113281 454.164062 C 552.277344 454.796875 552.5 455.40625 552.785156 455.996094 C 553.066406 456.585938 553.40625 457.140625 553.800781 457.660156 C 554.191406 458.183594 554.632812 458.660156 555.121094 459.097656 C 555.609375 459.53125 556.132812 459.914062 556.695312 460.246094 C 557.261719 460.578125 557.851562 460.847656 558.464844 461.0625 C 559.082031 461.277344 559.714844 461.429688 560.363281 461.523438 C 561.011719 461.613281 561.660156 461.636719 562.3125 461.601562 C 562.964844 461.5625 563.605469 461.460938 564.238281 461.296875 L 564.902344 461.296875 C 575.507812 458.964844 576.03125 452.308594 572.703125 444.75 C 568.328125 434.765625 561.671875 428.917969 566.519531 425.113281 C 571.371094 421.308594 576.742188 427.917969 575.554688 434.289062 L 576.789062 434.953125 Z M 576.980469 434.8125 " fill-opacity="1" fill-rule="nonzero"/><path fill="#58595b" d="M 585.113281 460.488281 C 579.214844 457.160156 578.074219 446.984375 581.925781 437.046875 C 587.015625 424.113281 599.566406 418.742188 604.796875 421.6875 C 612.976562 426.445312 610.3125 438.855469 604.796875 448.839844 C 599.660156 458.015625 591.246094 463.816406 585.300781 460.488281 Z M 588.679688 439.378906 C 586.871094 447.269531 586.300781 457.824219 590.914062 457.445312 C 595.523438 457.066406 598.617188 448.648438 600.421875 440.753906 C 602.230469 432.863281 601.609375 425.304688 597.808594 425.492188 C 594.003906 425.683594 590.4375 431.390625 588.679688 439.378906 Z M 588.679688 439.378906 " fill-opacity="1" fill-rule="nonzero"/><path fill="#58595b" d="M 512.363281 455.066406 L 511.03125 455.921875 C 508.988281 457.160156 505.660156 457.96875 506.894531 453.738281 C 508.605469 447.9375 514.597656 428.535156 514.597656 428.535156 C 514.597656 428.535156 517.546875 421.261719 512.554688 421.355469 C 507.5625 421.453125 501.855469 425.445312 495.578125 434.8125 L 503.613281 406.949219 C 499.175781 408.050781 494.675781 408.75 490.109375 409.042969 L 489.589844 410.800781 C 491.171875 410.894531 492.757812 410.894531 494.34375 410.800781 C 495.722656 410.800781 494.675781 411.941406 494.34375 413.367188 L 480.078125 460.535156 L 487.875 459.347656 L 493.296875 441.992188 C 493.296875 441.992188 501.808594 426.109375 506.085938 428.535156 C 506.085938 428.535156 507.226562 428.535156 505.46875 434.050781 C 503.710938 439.566406 499.050781 454.78125 499.050781 454.78125 C 499.050781 454.78125 496.816406 462.53125 502.140625 462.058594 C 506.1875 461.238281 509.785156 459.496094 512.933594 456.828125 L 512.171875 455.066406 Z M 512.363281 455.066406 " fill-opacity="1" fill-rule="nonzero"/><path fill="#58595b" d="M 424.828125 414.84375 C 413.558594 433.527344 427.488281 441.5625 433.527344 438.285156 C 425.683594 433.527344 425.445312 421.5 429.628906 415.222656 C 430.265625 413.988281 431.03125 412.839844 431.933594 411.78125 C 432.832031 410.722656 433.839844 409.78125 434.957031 408.957031 C 436.074219 408.132812 437.273438 407.445312 438.550781 406.898438 C 439.824219 406.351562 441.148438 405.957031 442.515625 405.714844 C 446.035156 405.378906 445.414062 406.472656 445.414062 406.472656 L 434.765625 440.945312 C 433.152344 441.183594 431.558594 441.523438 429.988281 441.964844 C 428.417969 442.40625 426.882812 442.941406 425.378906 443.578125 C 423.878906 444.210938 422.421875 444.9375 421.011719 445.757812 C 419.601562 446.578125 418.246094 447.480469 416.949219 448.46875 C 415.65625 449.460938 414.425781 450.527344 413.265625 451.671875 C 412.101562 452.816406 411.019531 454.03125 410.011719 455.3125 C 409.003906 456.597656 408.078125 457.9375 407.242188 459.335938 C 406.402344 460.734375 405.65625 462.179688 405 463.675781 C 395.015625 488.921875 428.15625 485.449219 438.285156 455.921875 L 443.039062 443.039062 C 447.601562 442.46875 452.132812 442.644531 456.636719 443.5625 C 454.71875 442.371094 452.660156 441.496094 450.46875 440.945312 C 448.277344 440.394531 446.054688 440.1875 443.800781 440.328125 L 455.589844 402.289062 C 442.136719 400.769531 431.054688 405.09375 424.921875 415.078125 Z M 414.890625 455.066406 C 416.015625 453.621094 417.273438 452.296875 418.664062 451.101562 C 420.054688 449.90625 421.550781 448.859375 423.152344 447.964844 C 424.75 447.070312 426.425781 446.347656 428.171875 445.789062 C 429.921875 445.230469 431.707031 444.851562 433.527344 444.65625 C 431.277344 452.179688 428.359375 459.441406 424.78125 466.433594 C 424.78125 466.433594 416.125 481.078125 409.089844 476.941406 C 409.089844 476.941406 401.292969 471.042969 414.890625 455.066406 Z M 414.890625 455.066406 " fill-opacity="1" fill-rule="nonzero"/><path fill="#58595b" d="M 186.183594 474.132812 L 394.445312 474.132812 L 396.394531 469.808594 L 188.179688 469.808594 Z M 186.183594 474.132812 " fill-opacity="1" fill-rule="nonzero"/><path fill="#58595b" d="M 437 474.132812 L 637.746094 474.132812 L 639.746094 469.808594 L 438.949219 469.808594 Z M 437 474.132812 " fill-opacity="1" fill-rule="nonzero"/><path fill="#58595b" d="M 406.757812 354.265625 L 408.28125 340.859375 C 403.429688 340.859375 398.582031 341.09375 393.730469 341.570312 L 399.960938 358.355469 Z M 406.757812 354.265625 " fill-opacity="1" fill-rule="nonzero"/><path fill="#58595b" d="M 417.886719 358.164062 L 424.019531 341.570312 C 419.265625 341.09375 414.507812 340.859375 409.421875 340.859375 L 410.945312 354.125 " fill-opacity="1" fill-rule="nonzero"/><path fill="#58595b" d="M 341.476562 384.554688 L 347.515625 384.554688 L 324.546875 365.535156 C 319.4375 368.871094 314.554688 372.519531 309.902344 376.472656 Z M 341.476562 384.554688 " fill-opacity="1" fill-rule="nonzero"/><path fill="#58595b" d="M 308.953125 377.042969 C 306.050781 379.464844 303.246094 381.796875 300.535156 384.554688 L 324.3125 384.554688 Z M 308.953125 377.042969 " fill-opacity="1" fill-rule="nonzero"/><path fill="#58595b" d="M 414.035156 387.789062 L 414.035156 392.542969 L 426.539062 392.542969 C 426.527344 390.902344 426.226562 389.316406 425.636719 387.789062 Z M 414.035156 387.789062 " fill-opacity="1" fill-rule="nonzero"/><path fill="#58595b" d="M 410.515625 387.789062 L 398.960938 387.789062 C 398.371094 389.316406 398.066406 390.902344 398.058594 392.542969 L 410.515625 392.542969 Z M 410.515625 387.789062 " fill-opacity="1" fill-rule="nonzero"/><path fill="#58595b" d="M 410.515625 384.222656 L 410.515625 378.5625 C 408.613281 378.828125 406.839844 379.449219 405.191406 380.433594 C 403.539062 381.414062 402.144531 382.675781 401.007812 384.222656 Z M 410.515625 384.222656 " fill-opacity="1" fill-rule="nonzero"/><path fill="#58595b" d="M 414.035156 384.222656 L 423.542969 384.222656 C 422.402344 382.675781 421.007812 381.414062 419.359375 380.433594 C 417.710938 379.449219 415.933594 378.828125 414.035156 378.5625 Z M 414.035156 384.222656 " fill-opacity="1" fill-rule="nonzero"/><path fill="#58595b" d="M 395.0625 392.636719 C 395.0625 392.066406 395.085938 391.5 395.140625 390.933594 C 395.195312 390.367188 395.277344 389.804688 395.386719 389.246094 C 395.496094 388.6875 395.632812 388.132812 395.796875 387.589844 C 395.960938 387.042969 396.152344 386.507812 396.371094 385.980469 C 396.585938 385.453125 396.828125 384.941406 397.097656 384.4375 C 397.363281 383.933594 397.65625 383.445312 397.972656 382.972656 C 398.285156 382.5 398.625 382.042969 398.984375 381.601562 C 399.34375 381.160156 399.726562 380.738281 400.128906 380.335938 C 400.53125 379.929688 400.953125 379.550781 401.390625 379.1875 C 401.832031 378.824219 402.289062 378.484375 402.761719 378.167969 C 403.234375 377.851562 403.722656 377.558594 404.222656 377.289062 C 404.726562 377.023438 405.238281 376.777344 405.765625 376.558594 C 406.289062 376.34375 406.824219 376.148438 407.371094 375.984375 C 407.914062 375.820312 408.46875 375.679688 409.027344 375.570312 C 409.585938 375.457031 410.148438 375.375 410.714844 375.320312 C 411.28125 375.261719 411.847656 375.234375 412.417969 375.234375 C 414.105469 375.21875 415.761719 375.453125 417.382812 375.929688 C 419 376.40625 420.515625 377.109375 421.925781 378.039062 C 421.226562 377.441406 420.488281 376.898438 419.707031 376.402344 C 418.929688 375.910156 418.121094 375.476562 417.28125 375.097656 C 416.441406 374.71875 415.578125 374.402344 414.691406 374.144531 C 413.808594 373.890625 412.910156 373.699219 411.996094 373.570312 C 411.082031 373.441406 410.167969 373.378906 409.246094 373.378906 C 408.324219 373.378906 407.40625 373.445312 406.496094 373.578125 C 405.582031 373.710938 404.6875 373.90625 403.800781 374.164062 C 402.917969 374.421875 402.054688 374.742188 401.21875 375.125 C 400.378906 375.503906 399.570312 375.941406 398.792969 376.4375 C 398.015625 376.933594 397.277344 377.480469 396.578125 378.082031 C 395.878906 378.683594 395.226562 379.328125 394.621094 380.019531 C 394.011719 380.714844 393.457031 381.445312 392.953125 382.21875 C 392.449219 382.988281 392.003906 383.792969 391.613281 384.628906 C 391.222656 385.460938 390.894531 386.320312 390.625 387.203125 C 390.359375 388.082031 390.152344 388.980469 390.011719 389.890625 C 389.871094 390.800781 389.796875 391.714844 389.785156 392.636719 Z M 395.0625 392.636719 " fill-opacity="1" fill-rule="nonzero"/><path fill="#58595b" d="M 460.679688 389.070312 L 408.992188 358.355469 L 357.453125 389.070312 L 286.984375 389.070312 C 288.789062 387.078125 290.640625 385.128906 292.542969 383.222656 C 294.441406 381.320312 296.386719 379.464844 298.378906 377.65625 C 300.367188 375.847656 302.402344 374.089844 304.480469 372.378906 C 306.554688 370.671875 308.671875 369.015625 310.832031 367.410156 C 312.988281 365.808594 315.1875 364.257812 317.421875 362.757812 C 319.65625 361.261719 321.925781 359.820312 324.230469 358.4375 C 326.535156 357.050781 328.871094 355.722656 331.242188 354.453125 C 333.613281 353.179688 336.011719 351.96875 338.441406 350.816406 C 340.875 349.664062 343.328125 348.570312 345.8125 347.539062 C 348.296875 346.507812 350.804688 345.535156 353.335938 344.625 C 355.867188 343.71875 358.417969 342.871094 360.988281 342.085938 C 363.5625 341.300781 366.152344 340.582031 368.761719 339.925781 C 371.367188 339.265625 373.992188 338.675781 376.628906 338.148438 C 379.265625 337.617188 381.914062 337.15625 384.574219 336.757812 C 387.234375 336.359375 389.902344 336.023438 392.578125 335.757812 C 395.253906 335.492188 397.933594 335.289062 400.621094 335.152344 C 403.304688 335.015625 405.992188 334.945312 408.683594 334.941406 C 411.371094 334.9375 414.058594 335 416.746094 335.128906 C 419.433594 335.257812 422.113281 335.449219 424.792969 335.710938 C 427.46875 335.96875 430.136719 336.292969 432.796875 336.683594 C 435.457031 337.074219 438.109375 337.53125 440.746094 338.050781 C 443.386719 338.570312 446.007812 339.15625 448.621094 339.804688 C 451.230469 340.453125 453.820312 341.167969 456.398438 341.945312 C 458.972656 342.71875 461.527344 343.558594 464.058594 344.460938 C 466.59375 345.363281 469.101562 346.328125 471.589844 347.351562 C 474.078125 348.375 476.535156 349.460938 478.96875 350.605469 C 481.402344 351.753906 483.804688 352.957031 486.179688 354.222656 C 488.554688 355.484375 490.894531 356.804688 493.203125 358.183594 C 495.515625 359.5625 497.789062 360.996094 500.027344 362.488281 C 502.265625 363.976562 504.46875 365.519531 506.628906 367.121094 C 508.792969 368.71875 510.914062 370.367188 512.996094 372.070312 C 515.078125 373.773438 517.117188 375.523438 519.113281 377.328125 C 523.242188 381.027344 527.160156 384.941406 530.859375 389.070312 Z M 408.992188 364.15625 L 457.304688 392.683594 L 541.320312 392.683594 C 539.335938 390.226562 537.285156 387.824219 535.167969 385.480469 C 533.050781 383.132812 530.867188 380.851562 528.625 378.625 C 526.378906 376.402344 524.074219 374.246094 521.707031 372.148438 C 519.339844 370.054688 516.917969 368.027344 514.441406 366.070312 C 511.960938 364.109375 509.429688 362.21875 506.847656 360.402344 C 504.261719 358.582031 501.628906 356.835938 498.949219 355.167969 C 496.269531 353.496094 493.542969 351.898438 490.773438 350.378906 C 488.003906 348.859375 485.191406 347.417969 482.339844 346.054688 C 479.492188 344.691406 476.605469 343.410156 473.683594 342.207031 C 470.761719 341.007812 467.808594 339.886719 464.824219 338.847656 C 461.835938 337.8125 458.828125 336.859375 455.789062 335.988281 C 452.75 335.121094 449.691406 334.335938 446.609375 333.636719 C 443.527344 332.9375 440.429688 332.324219 437.316406 331.800781 C 434.199219 331.273438 431.070312 330.835938 427.929688 330.484375 C 424.792969 330.132812 421.644531 329.867188 418.488281 329.691406 C 415.335938 329.515625 412.175781 329.429688 409.019531 329.429688 C 405.859375 329.429688 402.699219 329.515625 399.546875 329.691406 C 396.390625 329.867188 393.242188 330.132812 390.105469 330.484375 C 386.964844 330.835938 383.835938 331.273438 380.71875 331.800781 C 377.605469 332.324219 374.507812 332.9375 371.425781 333.636719 C 368.34375 334.335938 365.285156 335.121094 362.246094 335.988281 C 359.207031 336.859375 356.199219 337.8125 353.214844 338.847656 C 350.230469 339.886719 347.277344 341.007812 344.351562 342.207031 C 341.429688 343.410156 338.542969 344.691406 335.695312 346.054688 C 332.84375 347.417969 330.035156 348.859375 327.261719 350.378906 C 324.492188 351.898438 321.765625 353.496094 319.085938 355.167969 C 316.40625 356.835938 313.773438 358.582031 311.1875 360.402344 C 308.605469 362.21875 306.074219 364.109375 303.59375 366.070312 C 301.117188 368.027344 298.695312 370.054688 296.328125 372.148438 C 293.960938 374.246094 291.65625 376.402344 289.414062 378.625 C 287.167969 380.851562 284.984375 383.132812 282.867188 385.480469 C 280.75 387.824219 278.699219 390.226562 276.714844 392.683594 L 361.019531 392.683594 Z M 408.992188 364.15625 " fill-opacity="1" fill-rule="nonzero"/><path fill="#58595b" d="M 441.136719 344.234375 C 435.902344 343.109375 430.625 342.269531 425.304688 341.714844 L 424.019531 361.683594 L 429.582031 365.011719 Z M 441.136719 344.234375 " fill-opacity="1" fill-rule="nonzero"/><path fill="#58595b" d="M 442.277344 344.472656 L 435.621094 368.71875 L 439.613281 371.050781 L 458.632812 349.132812 C 453.269531 347.269531 447.816406 345.714844 442.277344 344.472656 Z M 442.277344 344.472656 " fill-opacity="1" fill-rule="nonzero"/><path fill="#58595b" d="M 475.417969 355.789062 C 470.367188 353.394531 465.203125 351.285156 459.917969 349.464844 L 446.460938 375.042969 L 449.265625 376.757812 Z M 475.417969 355.789062 " fill-opacity="1" fill-rule="nonzero"/><path fill="#58595b" d="M 492.964844 365.441406 C 487.609375 362.03125 482.0625 358.972656 476.320312 356.261719 L 456.875 381.226562 L 458.347656 382.082031 Z M 492.964844 365.441406 " fill-opacity="1" fill-rule="nonzero"/><path fill="#58595b" d="M 508.371094 376.472656 C 503.816406 372.675781 499.0625 369.160156 494.105469 365.914062 L 470.332031 384.554688 L 476.035156 384.554688 Z M 508.371094 376.472656 " fill-opacity="1" fill-rule="nonzero"/><path fill="#58595b" d="M 493.535156 384.695312 L 517.308594 384.695312 C 514.597656 382.082031 511.746094 379.609375 508.890625 377.230469 Z M 493.535156 384.695312 " fill-opacity="1" fill-rule="nonzero"/><path fill="#58595b" d="M 341.285156 356.3125 C 335.851562 358.9375 330.589844 361.867188 325.5 365.105469 L 360.019531 382.320312 L 361.207031 381.605469 Z M 341.285156 356.3125 " fill-opacity="1" fill-rule="nonzero"/><path fill="#58595b" d="M 388.453125 365.296875 L 394.015625 361.921875 L 392.449219 341.714844 C 387.125 342.285156 381.84375 343.140625 376.613281 344.28125 Z M 388.453125 365.296875 " fill-opacity="1" fill-rule="nonzero"/><path fill="#58595b" d="M 358.5 349.273438 C 352.984375 351.136719 347.597656 353.308594 342.332031 355.789062 L 368.863281 377.042969 L 371.667969 375.378906 Z M 358.5 349.273438 " fill-opacity="1" fill-rule="nonzero"/><path fill="#58595b" d="M 378.5625 371.242188 L 382.222656 369.054688 L 375.566406 344.472656 C 370.148438 345.660156 364.808594 347.136719 359.542969 348.894531 Z M 378.5625 371.242188 " fill-opacity="1" fill-rule="nonzero"/></svg>