<svg xmlns="http://www.w3.org/2000/svg" xmlns:xlink="http://www.w3.org/1999/xlink" width="1080" zoomAndPan="magnify" viewBox="0 0 810 809.999993" height="1080" preserveAspectRatio="xMidYMid meet" version="1.0"><rect x="-81" width="972" fill="#ffffff" y="-80.999999" height="971.999992" fill-opacity="1"/><rect x="-81" width="972" fill="#ffffff" y="-80.999999" height="971.999992" fill-opacity="1"/><path fill="#58595b" d="M 321.398438 430.792969 L 311.898438 430.792969 L 304.914062 413.832031 L 284.480469 413.832031 L 277.640625 430.792969 L 268.136719 430.792969 L 291.894531 374.15625 L 298.117188 374.15625 Z M 287.476562 406.371094 L 301.730469 406.371094 L 294.695312 388.554688 Z M 287.476562 406.371094 " fill-opacity="1" fill-rule="nonzero"/><path fill="#58595b" d="M 401.648438 430.792969 L 392.527344 430.792969 L 388.726562 394.160156 L 371.8125 430.792969 L 366.207031 430.792969 L 349.527344 394.871094 L 345.488281 430.792969 L 336.9375 430.792969 L 343.683594 375.296875 L 350.050781 375.296875 L 369.4375 417.296875 L 388.441406 375.296875 L 395.1875 375.296875 Z M 401.648438 430.792969 " fill-opacity="1" fill-rule="nonzero"/><path fill="#58595b" d="M 470.308594 430.792969 L 460.804688 430.792969 L 454.058594 413.832031 L 433.199219 413.832031 L 426.546875 430.792969 L 417.042969 430.792969 L 440.800781 374.15625 L 447.027344 374.15625 Z M 436.382812 406.371094 L 450.636719 406.371094 L 443.605469 388.554688 Z M 436.382812 406.371094 " fill-opacity="1" fill-rule="nonzero"/><path fill="#58595b" d="M 501.476562 431.316406 C 497.550781 431.398438 493.640625 431.207031 489.742188 430.746094 L 488.835938 430.746094 L 488.835938 375.582031 L 493.113281 375.582031 C 497.246094 375.296875 501.238281 375.25 503.28125 375.25 C 505.507812 375.09375 507.726562 375.140625 509.941406 375.394531 C 512.160156 375.648438 514.332031 376.101562 516.464844 376.753906 C 518.597656 377.410156 520.652344 378.253906 522.628906 379.285156 C 524.605469 380.316406 526.472656 381.523438 528.226562 382.898438 C 529.566406 384.230469 530.757812 385.683594 531.804688 387.257812 C 532.851562 388.832031 533.730469 390.496094 534.4375 392.246094 C 535.148438 394 535.675781 395.804688 536.023438 397.660156 C 536.371094 399.519531 536.527344 401.390625 536.492188 403.28125 C 536.550781 404.601562 536.507812 405.917969 536.363281 407.234375 C 536.21875 408.546875 535.976562 409.84375 535.636719 411.121094 C 535.296875 412.398438 534.863281 413.640625 534.335938 414.851562 C 533.808594 416.066406 533.191406 417.230469 532.484375 418.347656 C 531.78125 419.464844 530.996094 420.523438 530.132812 421.523438 C 529.265625 422.523438 528.332031 423.453125 527.324219 424.308594 C 526.320312 425.167969 525.253906 425.945312 524.132812 426.640625 C 523.007812 427.335938 521.839844 427.945312 520.625 428.464844 C 514.410156 430.535156 508.027344 431.488281 501.476562 431.316406 Z M 497.914062 422.90625 C 500.074219 423.199219 502.242188 423.339844 504.421875 423.332031 C 513.210938 423.332031 518.675781 421.527344 522.144531 417.441406 C 522.628906 416.855469 523.074219 416.246094 523.492188 415.609375 C 523.90625 414.976562 524.285156 414.320312 524.632812 413.644531 C 524.976562 412.964844 525.28125 412.273438 525.550781 411.5625 C 525.816406 410.851562 526.046875 410.132812 526.234375 409.394531 C 526.425781 408.660156 526.574219 407.917969 526.683594 407.167969 C 526.792969 406.414062 526.859375 405.660156 526.882812 404.902344 C 526.910156 404.144531 526.894531 403.386719 526.839844 402.628906 C 526.78125 401.875 526.683594 401.121094 526.542969 400.375 C 526.40625 399.628906 526.226562 398.894531 526.007812 398.167969 C 525.789062 397.441406 525.53125 396.726562 525.234375 396.027344 C 524.9375 395.332031 524.601562 394.652344 524.230469 393.988281 C 523.859375 393.328125 523.453125 392.6875 523.011719 392.070312 C 522.570312 391.453125 522.097656 390.859375 521.59375 390.292969 C 521.085938 389.730469 520.550781 389.191406 519.988281 388.683594 C 519.421875 388.175781 518.832031 387.703125 518.214844 387.257812 C 517.601562 386.816406 516.960938 386.40625 516.300781 386.035156 C 511.597656 384.007812 506.6875 383.074219 501.570312 383.230469 L 498.007812 383.230469 Z M 497.914062 422.90625 " fill-opacity="1" fill-rule="nonzero"/><path fill="#58595b" d="M 602.015625 430.792969 L 592.511719 430.792969 L 585.765625 413.832031 L 565.289062 413.832031 L 558.445312 430.792969 L 549.179688 430.792969 L 572.9375 374.15625 L 579.160156 374.15625 Z M 568.089844 406.371094 L 582.34375 406.371094 L 575.3125 388.554688 Z M 568.089844 406.371094 " fill-opacity="1" fill-rule="nonzero"/><path fill="#58595b" d="M 249.9375 432.171875 L 226.609375 396.15625 L 228.367188 392.117188 L 228.890625 392.117188 C 237.539062 391.023438 243.144531 385.558594 243.144531 378.195312 C 243.144531 370.070312 238.773438 366.554688 228.605469 366.554688 L 218.105469 366.554688 L 218.105469 430.601562 L 207.984375 430.601562 L 207.984375 359.332031 L 208.507812 359.332031 C 208.507812 359.332031 225.375 358.808594 228.652344 358.808594 C 235.398438 358.808594 253.21875 358.808594 253.21875 377.433594 C 253.195312 378.492188 253.085938 379.542969 252.898438 380.585938 C 252.710938 381.625 252.445312 382.648438 252.097656 383.648438 C 251.753906 384.648438 251.332031 385.613281 250.835938 386.550781 C 250.339844 387.484375 249.773438 388.375 249.136719 389.222656 C 248.503906 390.070312 247.804688 390.863281 247.046875 391.601562 C 246.289062 392.339844 245.476562 393.015625 244.613281 393.625 C 243.75 394.238281 242.847656 394.78125 241.898438 395.253906 C 240.949219 395.726562 239.972656 396.121094 238.964844 396.441406 L 259.394531 427.65625 Z M 249.9375 432.171875 " fill-opacity="1" fill-rule="nonzero"/></svg>