<svg xmlns="http://www.w3.org/2000/svg" xmlns:xlink="http://www.w3.org/1999/xlink" width="1080" zoomAndPan="magnify" viewBox="0 0 810 809.999993" height="1080" preserveAspectRatio="xMidYMid meet" version="1.0"><rect x="-81" width="972" fill="#ffffff" y="-80.999999" height="971.999992" fill-opacity="1"/><rect x="-81" width="972" fill="#ffffff" y="-80.999999" height="971.999992" fill-opacity="1"/><path fill="#58595b" d="M 250.945312 475.085938 C 250.945312 479.363281 250.945312 481.695312 251.65625 482.3125 C 252.371094 482.929688 253.132812 483.074219 255.699219 483.074219 C 257.507812 483.074219 258.789062 483.074219 259.550781 482.121094 C 260.046875 481.527344 260.347656 480.847656 260.453125 480.078125 C 260.453125 479.792969 260.453125 479.601562 260.785156 479.601562 C 261.121094 479.601562 261.070312 479.601562 261.070312 480.171875 C 261.011719 481.46875 260.851562 482.753906 260.597656 484.023438 C 260.597656 484.738281 260.265625 484.929688 258.503906 484.929688 C 253.75 484.929688 251.46875 484.929688 248.710938 484.929688 L 244.476562 484.929688 C 244.050781 484.929688 243.8125 484.929688 243.8125 484.59375 C 243.8125 484.261719 243.8125 484.308594 244.335938 484.308594 L 245.570312 484.308594 C 246.238281 484.308594 246.378906 483.40625 246.523438 482.40625 C 246.664062 481.410156 246.523438 478.367188 246.523438 475.277344 L 246.523438 462.058594 C 246.554688 461.832031 246.542969 461.609375 246.488281 461.390625 C 246.429688 461.171875 246.332031 460.972656 246.191406 460.792969 C 246.054688 460.613281 245.882812 460.464844 245.683594 460.355469 C 245.488281 460.246094 245.273438 460.179688 245.046875 460.15625 L 243.953125 460.15625 C 243.574219 460.15625 243.382812 460.15625 243.382812 459.871094 C 243.382812 459.585938 243.382812 459.585938 244.097656 459.585938 L 253.273438 459.585938 C 253.75 459.585938 253.988281 459.585938 253.988281 459.871094 C 253.988281 460.15625 253.988281 460.15625 253.371094 460.15625 L 252.085938 460.15625 C 251.183594 460.15625 250.898438 460.917969 250.847656 462.058594 C 250.800781 463.199219 250.847656 464.101562 250.847656 469.191406 Z M 250.945312 475.085938 " fill-opacity="1" fill-rule="nonzero"/><path fill="#58595b" d="M 273.148438 475.988281 C 272.980469 476.011719 272.886719 476.105469 272.863281 476.273438 L 271.007812 481.027344 C 270.726562 481.683594 270.570312 482.363281 270.535156 483.074219 C 270.535156 483.691406 270.820312 484.121094 271.867188 484.121094 L 272.339844 484.121094 C 272.769531 484.121094 272.816406 484.121094 272.816406 484.40625 C 272.816406 484.691406 272.816406 484.738281 272.292969 484.738281 L 264.921875 484.738281 C 264.496094 484.738281 264.257812 484.738281 264.257812 484.40625 C 264.257812 484.070312 264.257812 484.121094 264.6875 484.121094 L 265.730469 484.121094 C 267.300781 484.121094 267.917969 482.789062 268.585938 481.125 L 277 460.011719 C 277.382812 459.015625 277.617188 458.679688 277.902344 458.679688 C 278.191406 458.679688 278.378906 458.964844 278.761719 459.773438 C 279.570312 461.628906 284.988281 475.324219 287.128906 480.457031 C 288.414062 483.5 289.410156 483.929688 290.078125 484.308594 L 291.503906 484.308594 C 291.789062 484.308594 291.929688 484.308594 291.929688 484.59375 C 291.929688 484.878906 291.644531 484.929688 290.410156 484.929688 L 284.039062 484.929688 C 283.417969 484.929688 283.039062 484.929688 283.039062 484.644531 C 283.039062 484.355469 283.039062 484.355469 283.515625 484.355469 C 283.652344 484.3125 283.753906 484.222656 283.820312 484.09375 C 283.886719 483.964844 283.894531 483.828125 283.847656 483.691406 L 281.136719 476.320312 C 281.027344 476.269531 280.914062 476.269531 280.804688 476.320312 Z M 279.996094 474.324219 L 276.953125 466.003906 L 276.953125 465.71875 L 276.953125 466.003906 L 273.910156 474.277344 Z M 279.996094 474.324219 " fill-opacity="1" fill-rule="nonzero"/><path fill="#58595b" d="M 332.203125 484.070312 C 328.902344 485.167969 325.507812 485.722656 322.027344 485.734375 C 321.164062 485.796875 320.300781 485.808594 319.4375 485.777344 C 318.574219 485.746094 317.710938 485.667969 316.855469 485.546875 C 316 485.425781 315.152344 485.257812 314.3125 485.046875 C 313.472656 484.835938 312.648438 484.582031 311.835938 484.285156 C 311.023438 483.984375 310.230469 483.644531 309.453125 483.265625 C 308.675781 482.882812 307.921875 482.464844 307.191406 482.003906 C 306.457031 481.542969 305.75 481.046875 305.070312 480.511719 C 304.390625 479.976562 303.742188 479.410156 303.121094 478.804688 C 302.5 478.203125 301.914062 477.570312 301.359375 476.90625 C 300.804688 476.242188 300.285156 475.550781 299.804688 474.832031 C 299.324219 474.113281 298.882812 473.371094 298.476562 472.605469 C 298.074219 471.839844 297.710938 471.054688 297.390625 470.253906 C 297.070312 469.449219 296.789062 468.632812 296.554688 467.800781 C 296.320312 466.96875 296.128906 466.125 295.980469 465.273438 C 295.832031 464.421875 295.730469 463.5625 295.675781 462.699219 C 295.617188 461.835938 295.605469 460.972656 295.640625 460.109375 C 295.640625 459.289062 295.679688 458.472656 295.761719 457.65625 C 295.839844 456.839844 295.960938 456.03125 296.121094 455.230469 C 296.28125 454.425781 296.480469 453.632812 296.714844 452.847656 C 296.953125 452.0625 297.230469 451.292969 297.542969 450.535156 C 297.855469 449.78125 298.207031 449.039062 298.59375 448.316406 C 298.980469 447.597656 299.398438 446.894531 299.855469 446.214844 C 300.308594 445.53125 300.796875 444.875 301.316406 444.242188 C 301.835938 443.609375 302.386719 443.003906 302.964844 442.421875 C 303.542969 441.84375 304.152344 441.292969 304.785156 440.773438 C 305.417969 440.253906 306.074219 439.769531 306.753906 439.3125 C 307.4375 438.859375 308.136719 438.4375 308.859375 438.050781 C 309.582031 437.664062 310.320312 437.316406 311.078125 437 C 311.835938 436.6875 312.605469 436.414062 313.390625 436.175781 C 314.171875 435.9375 314.96875 435.738281 315.769531 435.578125 C 316.574219 435.417969 317.382812 435.296875 318.199219 435.21875 C 319.011719 435.136719 319.832031 435.097656 320.648438 435.097656 L 322.125 435.097656 C 337.433594 435.097656 348.273438 444.605469 348.273438 459.539062 C 348.265625 461.628906 348.007812 463.691406 347.5 465.722656 C 346.992188 467.75 346.25 469.691406 345.273438 471.542969 C 344.296875 473.390625 343.113281 475.097656 341.722656 476.664062 C 340.332031 478.226562 338.777344 479.601562 337.054688 480.792969 L 350.035156 487.402344 C 354.089844 489.796875 358.371094 491.664062 362.882812 493.007812 C 367.398438 494.351562 372.003906 495.128906 376.707031 495.339844 C 381.011719 495.335938 385.179688 494.59375 389.214844 493.105469 C 389.515625 492.953125 389.832031 492.84375 390.164062 492.773438 C 390.324219 492.773438 390.457031 492.828125 390.570312 492.941406 C 390.679688 493.050781 390.734375 493.1875 390.734375 493.34375 C 390.734375 493.722656 390.449219 493.914062 389.976562 494.105469 C 386.78125 495.660156 383.457031 496.839844 379.996094 497.640625 C 376.539062 498.445312 373.03125 498.851562 369.480469 498.859375 C 364.597656 498.769531 359.835938 497.972656 355.1875 496.476562 C 350.539062 494.976562 346.207031 492.839844 342.1875 490.0625 Z M 339.429688 461.34375 C 339.429688 445.75 329.921875 438.332031 320.839844 438.332031 C 311.757812 438.332031 304.910156 443.65625 304.910156 458.632812 C 304.910156 473.613281 314.421875 482.40625 324.597656 482.40625 C 329.589844 482.503906 339.382812 480.269531 339.382812 461.34375 Z M 339.429688 461.34375 " fill-opacity="1" fill-rule="nonzero"/><path fill="#58595b" d="M 363.871094 459.964844 L 363.871094 448.507812 C 363.871094 446.605469 363.347656 445.84375 361.589844 445.464844 C 360.890625 445.390625 360.195312 445.390625 359.496094 445.464844 C 358.878906 445.464844 358.59375 445.464844 358.59375 444.988281 C 358.59375 444.511719 358.972656 444.511719 359.78125 444.511719 L 374.046875 444.511719 C 374.808594 444.511719 375.1875 444.511719 375.1875 444.988281 C 375.1875 445.464844 374.902344 445.464844 374.332031 445.464844 C 373.824219 445.410156 373.316406 445.410156 372.808594 445.464844 C 371.335938 445.75 370.90625 446.605469 370.8125 448.507812 C 370.71875 450.40625 370.8125 451.691406 370.8125 460.011719 L 370.8125 467.429688 C 370.8125 475.085938 372.382812 478.414062 374.996094 480.554688 C 375.917969 481.332031 376.949219 481.914062 378.089844 482.300781 C 379.230469 482.683594 380.402344 482.847656 381.605469 482.789062 C 382.96875 482.816406 384.28125 482.585938 385.550781 482.089844 C 386.820312 481.59375 387.945312 480.878906 388.929688 479.933594 C 391.875 477.035156 392.019531 472.28125 392.019531 466.71875 L 392.019531 448.507812 C 392.019531 446.605469 391.496094 445.84375 389.738281 445.464844 C 389.101562 445.398438 388.46875 445.398438 387.835938 445.464844 C 387.265625 445.464844 386.933594 445.464844 386.933594 444.988281 C 386.933594 444.511719 387.3125 444.511719 388.023438 444.511719 L 400.246094 444.511719 C 401.007812 444.511719 401.386719 444.511719 401.386719 444.988281 C 401.386719 445.464844 401.054688 445.464844 400.433594 445.464844 C 399.914062 445.410156 399.390625 445.410156 398.867188 445.464844 C 397.441406 445.75 397.011719 446.605469 396.917969 448.507812 C 396.820312 450.40625 396.917969 451.691406 396.917969 460.011719 L 396.917969 465.671875 C 397.101562 467.113281 397.128906 468.558594 397 470.003906 C 396.871094 471.453125 396.589844 472.871094 396.15625 474.257812 C 395.71875 475.644531 395.140625 476.96875 394.421875 478.230469 C 393.699219 479.492188 392.851562 480.664062 391.875 481.742188 C 390.34375 483.066406 388.621094 484.0625 386.707031 484.726562 C 384.792969 485.394531 382.824219 485.683594 380.796875 485.59375 C 378.652344 485.71875 376.558594 485.445312 374.515625 484.78125 C 372.472656 484.117188 370.621094 483.105469 368.957031 481.742188 C 368.058594 480.804688 367.269531 479.78125 366.597656 478.667969 C 365.925781 477.554688 365.382812 476.378906 364.972656 475.148438 C 364.558594 473.914062 364.289062 472.648438 364.160156 471.355469 C 364.03125 470.0625 364.046875 468.769531 364.203125 467.476562 Z M 363.871094 459.964844 " fill-opacity="1" fill-rule="nonzero"/><path fill="#58595b" d="M 416.886719 459.964844 L 416.886719 448.507812 C 416.886719 446.605469 416.222656 445.796875 415.082031 445.511719 C 414.445312 445.4375 413.8125 445.4375 413.179688 445.511719 C 412.65625 445.511719 412.273438 445.511719 412.273438 444.988281 C 412.273438 444.464844 412.75 444.511719 413.558594 444.511719 L 426.96875 444.511719 C 427.679688 444.511719 428.0625 444.511719 428.0625 444.988281 C 428.0625 445.464844 427.777344 445.511719 427.203125 445.511719 C 426.664062 445.457031 426.128906 445.457031 425.589844 445.511719 C 424.160156 445.796875 423.734375 446.652344 423.640625 448.554688 C 423.542969 450.457031 423.640625 451.738281 423.640625 460.058594 L 423.640625 469.570312 C 423.640625 474.753906 423.640625 479.078125 423.640625 481.078125 C 423.589844 481.390625 423.609375 481.703125 423.691406 482.007812 C 423.773438 482.316406 423.914062 482.59375 424.113281 482.839844 C 424.3125 483.089844 424.550781 483.289062 424.832031 483.433594 C 425.113281 483.582031 425.414062 483.667969 425.730469 483.691406 C 426.632812 483.75 427.539062 483.75 428.441406 483.691406 C 429.058594 483.691406 429.296875 483.691406 429.296875 484.167969 C 429.296875 484.644531 428.867188 484.691406 428.296875 484.691406 L 413.605469 484.691406 C 412.894531 484.691406 412.511719 484.691406 412.511719 484.167969 C 412.511719 483.644531 412.511719 483.691406 413.367188 483.691406 C 414.003906 483.765625 414.636719 483.765625 415.269531 483.691406 C 416.363281 483.691406 416.695312 482.597656 416.839844 481.027344 C 416.980469 479.460938 417.125 474.609375 417.125 469.523438 Z M 416.886719 459.964844 " fill-opacity="1" fill-rule="nonzero"/><path fill="#58595b" d="M 449.316406 477.558594 C 449.316406 481.742188 450.121094 483.121094 451.214844 483.5 C 452.117188 483.761719 453.039062 483.871094 453.972656 483.835938 C 454.546875 483.835938 454.878906 483.835938 454.878906 484.308594 C 454.878906 484.785156 454.402344 484.832031 453.640625 484.832031 L 441.277344 484.832031 C 440.566406 484.832031 440.136719 484.832031 440.136719 484.308594 C 440.136719 483.785156 440.421875 483.835938 440.992188 483.835938 C 441.785156 483.925781 442.578125 483.925781 443.371094 483.835938 C 444.796875 483.359375 444.988281 481.835938 445.035156 477.226562 L 445.511719 445.699219 C 445.511719 444.605469 445.511719 443.894531 446.222656 443.894531 C 446.9375 443.894531 447.316406 444.605469 448.171875 445.558594 C 449.03125 446.507812 456.921875 455.066406 464.671875 462.675781 C 468.523438 466.527344 475.515625 474.183594 476.417969 474.847656 L 476.703125 474.847656 L 476.179688 451.074219 C 476.179688 447.792969 475.703125 446.84375 474.371094 446.320312 C 473.4375 446.070312 472.484375 445.976562 471.519531 446.035156 C 470.902344 446.035156 470.664062 446.035156 470.664062 445.558594 C 470.664062 445.082031 471.234375 445.082031 472.042969 445.082031 L 483.738281 445.082031 C 484.453125 445.082031 484.976562 445.082031 484.976562 445.558594 C 484.976562 446.035156 484.644531 446.035156 484.023438 446.035156 C 483.484375 445.960938 482.945312 445.960938 482.410156 446.035156 C 480.933594 446.460938 480.507812 447.554688 480.457031 450.789062 L 479.839844 484.40625 C 479.839844 485.59375 479.839844 486.070312 479.128906 486.070312 C 478.402344 485.882812 477.800781 485.503906 477.320312 484.929688 C 473.945312 481.695312 467.144531 474.753906 461.582031 469.238281 C 456.019531 463.722656 449.835938 456.828125 448.886719 455.78125 Z M 449.316406 477.558594 " fill-opacity="1" fill-rule="nonzero"/><path fill="#58595b" d="M 508.035156 447.507812 L 500.382812 447.507812 C 497.289062 447.507812 496.007812 447.886719 495.199219 449.027344 C 494.796875 449.617188 494.496094 450.25 494.296875 450.929688 C 494.324219 451.105469 494.28125 451.261719 494.164062 451.398438 C 494.050781 451.53125 493.902344 451.597656 493.722656 451.597656 C 493.4375 451.597656 493.25 451.3125 493.25 450.695312 C 493.25 450.074219 494.296875 445.035156 494.390625 444.558594 C 494.484375 444.085938 494.675781 443.5625 495.007812 443.5625 C 495.742188 443.875 496.503906 444.097656 497.289062 444.226562 C 498.621094 444.226562 500.855469 444.511719 502.617188 444.511719 L 523.394531 444.511719 C 525.109375 444.53125 526.804688 444.355469 528.480469 443.988281 C 528.863281 443.988281 528.910156 444.273438 528.910156 445.082031 L 528.910156 451.265625 C 528.910156 451.785156 528.910156 452.121094 528.433594 452.121094 C 527.960938 452.121094 527.910156 452.121094 527.816406 451.074219 L 527.816406 450.644531 C 527.816406 449.265625 526.292969 447.792969 521.539062 447.699219 L 514.835938 447.699219 L 514.835938 469.570312 C 514.835938 474.324219 514.835938 478.699219 515.121094 481.078125 C 515.121094 482.550781 515.597656 483.738281 517.214844 483.929688 C 518.117188 483.988281 519.019531 483.988281 519.921875 483.929688 C 520.492188 483.929688 520.78125 483.929688 520.78125 484.40625 C 520.78125 484.878906 520.351562 484.929688 519.78125 484.929688 L 504.851562 484.929688 C 504.136719 484.929688 503.757812 484.929688 503.757812 484.40625 C 503.757812 483.882812 503.757812 483.929688 504.660156 483.929688 C 505.292969 484 505.929688 484 506.5625 483.929688 C 507.609375 483.929688 507.941406 482.550781 508.085938 480.980469 C 508.226562 479.414062 508.371094 474.5625 508.371094 469.476562 Z M 508.035156 447.507812 " fill-opacity="1" fill-rule="nonzero"/><path fill="#58595b" d="M 542.082031 470.902344 C 541.796875 470.902344 541.699219 470.902344 541.605469 471.328125 L 538.753906 478.9375 C 538.304688 479.96875 538.035156 481.046875 537.945312 482.171875 C 537.945312 483.121094 538.417969 483.835938 540.082031 483.835938 L 540.890625 483.835938 C 541.511719 483.835938 541.652344 483.835938 541.652344 484.308594 C 541.652344 484.785156 541.367188 484.832031 540.75 484.832031 L 528.625 484.832031 C 527.910156 484.832031 527.625 484.832031 527.625 484.308594 C 527.625 483.785156 527.625 483.835938 528.292969 483.835938 L 529.957031 483.835938 C 532.429688 483.5 533.425781 481.695312 534.710938 479.078125 L 548.070312 445.796875 C 548.738281 444.226562 549.023438 443.65625 549.546875 443.65625 C 550.070312 443.65625 550.355469 444.132812 550.828125 445.320312 C 552.113281 448.269531 560.625 469.996094 564.046875 478.082031 C 566.09375 482.835938 567.613281 483.644531 568.804688 483.929688 C 569.546875 484 570.292969 484 571.039062 483.929688 C 571.464844 483.929688 571.75 483.929688 571.75 484.40625 C 571.75 484.878906 571.273438 484.929688 569.277344 484.929688 L 559.199219 484.929688 C 558.246094 484.929688 557.628906 484.929688 557.628906 484.5 C 557.628906 484.070312 557.628906 484.023438 558.34375 484.023438 C 558.570312 483.9375 558.734375 483.78125 558.835938 483.558594 C 558.9375 483.339844 558.945312 483.113281 558.867188 482.882812 L 554.585938 471.375 C 554.511719 471.144531 554.355469 471.03125 554.109375 471.042969 Z M 552.921875 468.238281 C 553.207031 468.238281 553.207031 468.238281 553.207031 467.953125 L 548.453125 454.78125 C 548.453125 454.78125 548.453125 454.308594 548.167969 454.308594 C 547.882812 454.308594 547.882812 454.59375 547.882812 454.78125 L 543.125 467.90625 C 543.125 467.90625 543.125 468.285156 543.125 468.285156 Z M 552.921875 468.238281 " fill-opacity="1" fill-rule="nonzero"/><path fill="#58595b" d="M 406.1875 321.078125 L 406.1875 360.113281 L 406.902344 360.113281 L 410.753906 352.695312 Z M 386.359375 324.546875 L 399.675781 361.019531 L 400.339844 361.019531 L 401.578125 352.601562 L 386.265625 324.597656 Z M 389.640625 369.386719 L 389.976562 368.816406 L 385.601562 361.683594 L 356.027344 349.988281 Z M 387.359375 375.613281 C 387.339844 375.378906 387.339844 375.140625 387.359375 374.902344 L 380.796875 369.71875 L 348.988281 368.816406 L 387.3125 375.519531 Z M 394.398438 363.871094 L 392.734375 355.644531 L 368.957031 334.535156 L 393.921875 364.296875 Z M 424.78125 382.890625 L 431.625 388.308594 L 431.339844 387.929688 L 463.152344 388.785156 L 424.828125 382.082031 C 424.863281 382.414062 424.863281 382.746094 424.828125 383.082031 Z M 413.273438 361.253906 L 419.503906 355.691406 L 425.921875 324.5 L 412.65625 360.96875 L 413.320312 361.253906 Z M 432.910156 378.894531 L 463.105469 368.863281 L 424.78125 375.613281 L 424.78125 376.472656 Z M 418.644531 364.632812 L 426.300781 361.589844 L 442.992188 334.484375 L 418.074219 364.25 Z M 422.6875 369.863281 L 431.105469 369.433594 L 456.019531 349.652344 L 422.449219 369.101562 C 422.570312 369.296875 422.664062 369.503906 422.734375 369.71875 Z M 405.855469 397.867188 L 405.476562 397.867188 L 401.625 405.191406 L 406.378906 436.476562 L 406.378906 398.011719 Z M 422.355469 388.359375 L 422.023438 388.976562 L 426.398438 396.0625 L 455.972656 407.757812 Z M 418.125 393.445312 L 417.601562 393.875 L 419.3125 402.003906 L 460.632812 444.179688 Z M 412.371094 396.726562 L 411.703125 396.726562 L 410.515625 404.953125 L 425.96875 433.527344 Z M 387.40625 382.414062 L 387.40625 381.75 L 379.515625 379.085938 L 349.320312 389.117188 L 387.644531 382.367188 Z M 389.691406 388.644531 L 389.261719 387.882812 L 380.894531 387.882812 L 355.976562 407.664062 L 389.546875 388.261719 Z M 392.875 402.242188 L 386.410156 433.527344 L 399.675781 397.058594 L 399.007812 397.058594 Z M 393.96875 393.636719 L 393.492188 393.160156 L 385.980469 396.25 L 369.292969 423.402344 L 394.207031 393.636719 Z M 393.96875 393.636719 " fill-opacity="1" fill-rule="nonzero"/><path fill="#58595b" d="M 400.246094 360.828125 C 402.15625 360.277344 404.105469 360.039062 406.09375 360.113281 L 406.09375 321.078125 Z M 393.828125 364.347656 L 368.863281 334.582031 L 389.925781 368.816406 C 391.03125 367.125 392.363281 365.632812 393.921875 364.347656 Z M 406.757812 360.113281 C 408.765625 360.179688 410.714844 360.542969 412.609375 361.207031 L 425.875 324.738281 Z M 399.53125 361.207031 L 386.21875 324.546875 L 394.300781 363.917969 C 395.890625 362.675781 397.632812 361.707031 399.53125 361.019531 Z M 463.054688 388.976562 L 425.019531 376.328125 C 425.078125 377.214844 425.078125 378.101562 425.019531 378.992188 C 425.019531 380.09375 424.921875 381.1875 424.734375 382.273438 Z M 389.691406 369.386719 L 356.074219 349.988281 L 387.597656 374.949219 C 388.015625 372.988281 388.710938 371.136719 389.691406 369.386719 Z M 425.019531 375.613281 L 463.339844 368.863281 L 423.164062 370.003906 C 424.0625 371.777344 424.667969 373.648438 424.96875 375.613281 Z M 418.503906 364.347656 L 443.417969 334.582031 L 413.414062 361.398438 C 415.25 362.121094 416.929688 363.101562 418.457031 364.347656 Z M 422.734375 369.386719 L 456.304688 349.9375 L 418.980469 364.726562 C 420.46875 366.089844 421.71875 367.644531 422.734375 369.386719 Z M 406.234375 436.761719 L 412.226562 397.105469 C 410.328125 397.726562 408.378906 398.027344 406.378906 398.011719 Z M 412.703125 396.773438 L 426.015625 433.242188 L 417.933594 393.96875 C 416.34375 395.199219 414.601562 396.152344 412.703125 396.820312 Z M 418.457031 393.492188 L 460.917969 444.417969 L 422.402344 389.070312 C 421.328125 390.757812 420.027344 392.246094 418.503906 393.539062 Z M 422.6875 388.40625 L 456.304688 407.804688 L 424.78125 383.128906 C 424.382812 385.035156 423.683594 386.828125 422.6875 388.5 Z M 386.410156 433.527344 L 405.429688 398.199219 C 403.417969 398.136719 401.46875 397.757812 399.578125 397.058594 Z M 389.691406 388.691406 L 356.121094 408.089844 L 393.445312 393.304688 C 391.933594 391.90625 390.683594 390.304688 389.691406 388.5 Z M 387.40625 382.460938 L 349.082031 389.214844 L 389.214844 388.121094 C 388.289062 386.253906 387.6875 384.289062 387.40625 382.222656 Z M 393.921875 393.777344 L 369.007812 423.542969 L 399.007812 396.726562 C 397.152344 395.917969 395.457031 394.855469 393.921875 393.539062 Z M 387.121094 379.179688 C 387.121094 378.0625 387.214844 376.953125 387.40625 375.851562 L 349.082031 369.148438 L 387.121094 381.84375 C 387.070312 380.875 387.085938 379.910156 387.167969 378.945312 Z M 387.121094 379.179688 " fill-opacity="1" fill-rule="nonzero"/></svg>