<svg xmlns="http://www.w3.org/2000/svg" xmlns:xlink="http://www.w3.org/1999/xlink" width="1080" zoomAndPan="magnify" viewBox="0 0 810 809.999993" height="1080" preserveAspectRatio="xMidYMid meet" version="1.0"><rect x="-81" width="972" fill="#ffffff" y="-80.999999" height="971.999992" fill-opacity="1"/><rect x="-81" width="972" fill="#ffffff" y="-80.999999" height="971.999992" fill-opacity="1"/><path fill="#58595b" d="M 218.515625 357.453125 C 217.144531 357.441406 215.78125 357.554688 214.425781 357.785156 L 214.425781 382.320312 C 216.300781 382.789062 218.203125 382.992188 220.132812 382.9375 C 221.019531 382.988281 221.910156 382.988281 222.796875 382.9375 C 227.550781 382.175781 231.402344 378.421875 231.402344 369.863281 C 231.402344 358.972656 223.792969 357.640625 218.46875 357.640625 M 245.808594 409.945312 C 240.53125 409.945312 238.203125 408.519531 233.78125 403.476562 C 231.542969 400.863281 222.226562 389.214844 220.226562 386.21875 L 214.425781 386.21875 L 214.425781 398.058594 C 214.425781 404.476562 214.425781 405.808594 216.140625 407.140625 C 217.21875 407.921875 218.425781 408.363281 219.753906 408.472656 L 219.753906 409.753906 C 216.425781 409.753906 213.667969 409.421875 210.765625 409.421875 C 207.667969 409.367188 204.578125 409.476562 201.496094 409.753906 L 201.496094 408.472656 C 202.273438 408.453125 203.019531 408.28125 203.726562 407.957031 C 204.4375 407.636719 205.054688 407.191406 205.582031 406.617188 C 207.011719 405 207.105469 402.71875 207.105469 395.585938 L 207.105469 365.867188 C 207.105469 359.449219 206.867188 358.117188 205.347656 356.785156 C 204.28125 356.007812 203.09375 355.5625 201.78125 355.453125 L 201.78125 354.171875 C 201.78125 354.171875 206.105469 354.503906 208.246094 354.503906 C 214.140625 354.503906 215.570312 354.265625 218.753906 354.265625 C 221.957031 354.183594 225.128906 354.46875 228.265625 355.121094 C 229.046875 355.25 229.816406 355.449219 230.5625 355.722656 C 231.3125 355.992188 232.027344 356.324219 232.714844 356.726562 C 233.402344 357.128906 234.046875 357.589844 234.648438 358.109375 C 235.25 358.625 235.800781 359.195312 236.300781 359.816406 C 236.796875 360.4375 237.234375 361.097656 237.613281 361.796875 C 237.988281 362.496094 238.300781 363.222656 238.542969 363.980469 C 238.789062 364.738281 238.960938 365.511719 239.0625 366.300781 C 239.164062 367.085938 239.195312 367.878906 239.152344 368.671875 C 239.15625 369.542969 239.085938 370.40625 238.945312 371.265625 C 238.804688 372.121094 238.59375 372.964844 238.3125 373.785156 C 238.03125 374.609375 237.683594 375.402344 237.269531 376.167969 C 236.855469 376.929688 236.382812 377.65625 235.847656 378.339844 C 235.3125 379.027344 234.722656 379.664062 234.082031 380.25 C 233.441406 380.835938 232.753906 381.367188 232.023438 381.835938 C 231.292969 382.308594 230.527344 382.71875 229.730469 383.0625 C 228.933594 383.40625 228.109375 383.683594 227.265625 383.886719 C 227.265625 383.886719 236.109375 394.207031 241.101562 399.863281 C 245.097656 404.621094 248.566406 407.710938 252.085938 407.804688 L 252.085938 408.945312 C 251.421875 408.945312 248.898438 409.375 245.667969 409.375 " fill-opacity="1" fill-rule="nonzero"/><path fill="#58595b" d="M 297.542969 408.992188 L 277.523438 408.992188 C 272.769531 408.992188 268.015625 408.992188 263.257812 408.992188 L 263.257812 407.757812 C 264.039062 407.738281 264.78125 407.566406 265.492188 407.246094 C 266.203125 406.925781 266.820312 406.476562 267.347656 405.902344 C 268.773438 404.238281 268.871094 402.003906 268.871094 394.824219 L 268.871094 366.011719 C 268.871094 359.875 268.871094 358.640625 267.445312 357.117188 C 266.921875 356.589844 266.320312 356.183594 265.636719 355.894531 C 264.953125 355.605469 264.238281 355.460938 263.496094 355.453125 L 263.496094 354.21875 C 268.253906 354.457031 271.105469 354.457031 275.765625 354.457031 L 297.160156 354.457031 C 297.160156 354.457031 297.160156 360.78125 297.160156 364.582031 L 295.734375 364.582031 C 295.78125 363.582031 295.621094 362.613281 295.253906 361.675781 C 294.890625 360.742188 294.355469 359.917969 293.644531 359.210938 C 292.027344 357.691406 289.601562 357.691406 286.273438 357.691406 L 276.621094 357.691406 L 276.621094 378.945312 L 285.890625 378.945312 C 289.363281 378.945312 291.121094 378.707031 292.359375 377.277344 C 292.902344 376.609375 293.300781 375.863281 293.566406 375.042969 C 293.828125 374.222656 293.933594 373.382812 293.878906 372.523438 L 295.210938 372.523438 C 295.210938 374.378906 295.210938 375.1875 295.210938 380.464844 C 295.210938 385.742188 295.210938 386.265625 295.496094 388.167969 L 294.070312 388.167969 C 294.136719 387.292969 294.027344 386.441406 293.738281 385.617188 C 293.445312 384.789062 293.003906 384.054688 292.40625 383.414062 C 291.171875 382.082031 288.984375 381.9375 285.796875 381.9375 L 276.621094 381.9375 L 276.621094 401.386719 C 276.621094 405.140625 277.523438 405.664062 282.039062 405.664062 L 286.796875 405.664062 C 290.457031 405.664062 292.785156 405.664062 294.355469 404 C 295.046875 403.1875 295.566406 402.277344 295.910156 401.265625 C 296.253906 400.257812 296.402344 399.21875 296.351562 398.152344 L 297.777344 398.152344 C 297.445312 402.003906 297.542969 408.898438 297.542969 408.898438 " fill-opacity="1" fill-rule="nonzero"/><path fill="#58595b" d="M 359.449219 388.5 C 358.023438 390.164062 357.976562 392.445312 357.976562 399.578125 L 357.976562 407.613281 C 352.996094 408.863281 347.941406 409.464844 342.808594 409.421875 C 333.582031 409.421875 324.5 407.613281 318.511719 399.914062 C 316.710938 397.421875 315.371094 394.707031 314.492188 391.765625 C 313.609375 388.820312 313.238281 385.816406 313.375 382.746094 C 313.269531 381.269531 313.289062 379.792969 313.425781 378.320312 C 313.566406 376.84375 313.824219 375.394531 314.207031 373.960938 C 314.585938 372.53125 315.078125 371.140625 315.6875 369.789062 C 316.296875 368.441406 317.015625 367.148438 317.835938 365.917969 C 318.660156 364.6875 319.578125 363.53125 320.59375 362.453125 C 321.605469 361.375 322.703125 360.382812 323.878906 359.488281 C 325.058594 358.589844 326.300781 357.792969 327.609375 357.101562 C 328.917969 356.40625 330.277344 355.828125 331.679688 355.359375 C 336.167969 354.054688 340.75 353.46875 345.421875 353.601562 C 349.742188 353.585938 354.039062 353.902344 358.308594 354.550781 C 358.308594 354.550781 358.308594 356.597656 358.308594 359.304688 C 358.308594 361.445312 358.308594 363.300781 358.308594 364.394531 L 356.882812 364.394531 C 356.890625 363.484375 356.707031 362.613281 356.332031 361.78125 C 355.960938 360.949219 355.429688 360.238281 354.742188 359.640625 C 352.988281 358.648438 351.125 357.964844 349.144531 357.589844 C 347.167969 357.214844 345.179688 357.167969 343.1875 357.453125 C 331.871094 357.453125 321.363281 362.207031 321.363281 381.988281 C 321.363281 401.003906 332.109375 406.140625 345.136719 406.140625 C 347.039062 406.140625 348.609375 406.140625 350.605469 405.808594 L 350.605469 397.011719 C 350.605469 390.59375 350.605469 389.261719 348.847656 387.929688 C 347.792969 387.125 346.601562 386.683594 345.28125 386.597656 L 345.28125 385.316406 C 348.558594 385.316406 351.699219 385.648438 354.789062 385.648438 C 357.789062 385.703125 360.785156 385.59375 363.777344 385.316406 L 363.777344 386.597656 C 363 386.601562 362.253906 386.757812 361.542969 387.074219 C 360.832031 387.386719 360.210938 387.832031 359.6875 388.40625 " fill-opacity="1" fill-rule="nonzero"/><path fill="#58595b" d="M 392.398438 357.453125 C 390.972656 359.117188 390.878906 361.351562 390.878906 368.53125 L 390.878906 397.628906 C 390.878906 404.046875 390.878906 405.378906 392.636719 406.710938 C 393.691406 407.515625 394.878906 407.960938 396.203125 408.042969 L 396.203125 409.328125 C 392.921875 409.328125 390.070312 408.992188 387.121094 408.992188 C 384.175781 408.992188 381.417969 408.992188 377.613281 409.328125 L 377.613281 408.042969 C 378.390625 408.039062 379.136719 407.882812 379.847656 407.566406 C 380.558594 407.253906 381.175781 406.808594 381.703125 406.234375 C 383.128906 404.570312 383.222656 402.289062 383.222656 395.15625 L 383.222656 365.867188 C 383.222656 359.449219 383.222656 358.117188 381.464844 356.785156 C 380.386719 355.996094 379.183594 355.554688 377.851562 355.453125 L 377.851562 354.21875 C 381.179688 354.21875 384.03125 354.550781 386.933594 354.550781 C 390.105469 354.601562 393.277344 354.492188 396.441406 354.21875 L 396.441406 355.453125 C 395.671875 355.472656 394.9375 355.636719 394.238281 355.949219 C 393.535156 356.261719 392.925781 356.699219 392.398438 357.261719 " fill-opacity="1" fill-rule="nonzero"/><path fill="#58595b" d="M 427.15625 409.46875 C 422.84375 409.546875 418.628906 408.941406 414.507812 407.664062 L 414.507812 405.476562 C 414.507812 401.578125 414.507812 400.054688 414.175781 397.675781 L 415.699219 397.675781 C 415.699219 398.648438 415.871094 399.589844 416.214844 400.5 C 416.558594 401.40625 417.050781 402.226562 417.695312 402.957031 C 418.910156 404.117188 420.308594 404.988281 421.886719 405.566406 C 423.46875 406.148438 425.097656 406.386719 426.777344 406.285156 C 432.578125 406.285156 438.664062 404.621094 438.664062 396.441406 C 438.664062 390.449219 434.765625 388.214844 429.820312 384.886719 L 425.066406 381.75 C 418.929688 377.660156 415.554688 374.425781 415.554688 367.484375 C 415.554688 364.726562 416.316406 353.742188 432.625 353.742188 C 436.707031 353.734375 440.761719 354.035156 444.796875 354.644531 C 444.796875 354.644531 444.796875 356.832031 444.796875 359.402344 C 444.699219 361.222656 444.699219 363.046875 444.796875 364.871094 L 443.039062 364.871094 C 443.023438 363.875 442.824219 362.917969 442.449219 362 C 442.070312 361.082031 441.539062 360.261719 440.851562 359.542969 C 439.675781 358.570312 438.359375 357.863281 436.902344 357.417969 C 435.441406 356.972656 433.953125 356.824219 432.433594 356.976562 C 423.78125 356.976562 421.785156 361.113281 421.785156 365.726562 C 421.785156 370.335938 424.351562 372.523438 429.773438 376.089844 L 434.957031 379.5625 C 440.28125 383.128906 445.320312 386.027344 445.320312 394.539062 C 445.320312 409.277344 430.34375 409.613281 427.015625 409.613281 " fill-opacity="1" fill-rule="nonzero"/><path fill="#58595b" d="M 499.761719 364.632812 C 499.808594 363.609375 499.648438 362.617188 499.285156 361.660156 C 498.921875 360.699219 498.382812 359.851562 497.671875 359.117188 C 496.582031 358.410156 495.402344 357.917969 494.132812 357.640625 C 492.863281 357.359375 491.585938 357.316406 490.300781 357.5 L 484.121094 357.5 L 484.121094 397.441406 C 484.121094 402.667969 484.121094 404.335938 485.164062 405.523438 C 486.542969 407.519531 490.445312 407.757812 491.109375 407.757812 L 491.109375 408.992188 C 487.496094 408.992188 483.5 408.660156 479.9375 408.660156 C 476.371094 408.660156 472.851562 408.660156 469.523438 408.992188 L 469.523438 407.757812 C 471.597656 407.769531 473.453125 407.136719 475.085938 405.855469 C 476.511719 404.191406 476.605469 402.003906 476.605469 394.824219 L 476.605469 357.453125 L 471.566406 357.453125 C 470.058594 357.222656 468.550781 357.246094 467.050781 357.535156 C 465.550781 357.820312 464.136719 358.347656 462.816406 359.117188 C 462.171875 359.859375 461.683594 360.695312 461.347656 361.621094 C 461.011719 362.546875 460.851562 363.503906 460.867188 364.488281 L 459.441406 364.488281 C 459.773438 360.683594 459.441406 354.359375 459.441406 354.359375 L 500.523438 354.359375 C 500.523438 354.359375 500.523438 360.683594 500.808594 364.488281 Z M 499.761719 364.632812 " fill-opacity="1" fill-rule="nonzero"/><path fill="#58595b" d="M 531.476562 357.453125 C 530.105469 357.445312 528.742188 357.554688 527.386719 357.785156 L 527.386719 382.320312 C 529.277344 382.789062 531.195312 382.992188 533.140625 382.9375 C 534.03125 382.984375 534.917969 382.984375 535.804688 382.9375 C 540.558594 382.175781 544.363281 378.421875 544.363281 369.863281 C 544.363281 358.972656 536.804688 357.640625 531.476562 357.640625 M 558.722656 409.945312 C 553.492188 409.945312 551.164062 408.519531 546.742188 403.476562 C 544.503906 400.863281 535.1875 389.214844 533.1875 386.21875 L 527.339844 386.21875 L 527.339844 398.058594 C 527.339844 404.476562 527.339844 405.808594 529.101562 407.140625 C 530.164062 407.917969 531.351562 408.363281 532.667969 408.472656 L 532.667969 409.753906 C 529.339844 409.753906 526.582031 409.421875 523.679688 409.421875 C 520.597656 409.367188 517.523438 409.476562 514.457031 409.753906 L 514.457031 408.472656 C 515.226562 408.445312 515.960938 408.269531 516.664062 407.949219 C 517.363281 407.628906 517.976562 407.183594 518.496094 406.617188 C 519.921875 405 520.019531 402.71875 520.019531 395.585938 L 520.019531 365.867188 C 520.019531 359.449219 520.019531 358.117188 518.257812 356.785156 C 517.195312 356.007812 516.007812 355.5625 514.691406 355.453125 L 514.691406 354.171875 C 514.691406 354.171875 519.019531 354.503906 521.160156 354.503906 C 527.101562 354.503906 528.480469 354.265625 531.667969 354.265625 C 534.871094 354.183594 538.039062 354.46875 541.175781 355.121094 C 541.976562 355.234375 542.757812 355.417969 543.523438 355.671875 C 544.289062 355.929688 545.023438 356.253906 545.730469 356.648438 C 546.433594 357.039062 547.097656 357.496094 547.71875 358.011719 C 548.339844 358.527344 548.90625 359.09375 549.421875 359.71875 C 549.9375 360.339844 550.390625 361.003906 550.78125 361.707031 C 551.171875 362.414062 551.496094 363.148438 551.75 363.917969 C 552.003906 364.683594 552.1875 365.464844 552.296875 366.265625 C 552.402344 367.0625 552.4375 367.867188 552.398438 368.671875 C 552.402344 369.542969 552.335938 370.40625 552.191406 371.265625 C 552.050781 372.121094 551.839844 372.964844 551.558594 373.785156 C 551.277344 374.609375 550.929688 375.402344 550.515625 376.167969 C 550.101562 376.929688 549.628906 377.65625 549.09375 378.339844 C 548.558594 379.027344 547.96875 379.664062 547.328125 380.25 C 546.6875 380.835938 546 381.367188 545.269531 381.835938 C 544.539062 382.308594 543.773438 382.71875 542.976562 383.0625 C 542.179688 383.40625 541.355469 383.683594 540.511719 383.886719 C 540.511719 383.886719 549.308594 394.207031 554.300781 399.863281 C 558.292969 404.621094 561.8125 407.710938 565.332031 407.804688 L 565.332031 408.945312 C 564.667969 408.945312 562.144531 409.375 558.914062 409.375 " fill-opacity="1" fill-rule="nonzero"/><path fill="#58595b" d="M 610.503906 358.023438 C 609.152344 359.832031 607.949219 361.734375 606.890625 363.726562 L 594.144531 385.410156 L 594.144531 397.535156 C 594.144531 402.765625 594.429688 404.429688 595.238281 405.617188 C 596.570312 407.613281 600.46875 407.851562 601.183594 407.851562 L 601.183594 409.089844 C 597.570312 409.089844 593.574219 408.804688 590.007812 408.804688 C 586.441406 408.804688 582.925781 408.804688 579.597656 409.089844 L 579.597656 407.851562 C 580.613281 407.867188 581.601562 407.710938 582.566406 407.382812 C 583.527344 407.054688 584.40625 406.578125 585.207031 405.949219 C 586.632812 404.285156 586.679688 402.097656 586.679688 394.96875 L 586.679688 385.980469 L 574.320312 364.15625 C 572.984375 361.507812 571.398438 359.019531 569.5625 356.691406 C 569.179688 356.257812 568.722656 355.921875 568.1875 355.691406 C 567.65625 355.457031 567.101562 355.347656 566.519531 355.359375 L 566.519531 354.074219 C 568.566406 354.074219 572.652344 354.410156 574.984375 354.410156 C 578.074219 354.410156 581.832031 354.410156 584.066406 354.074219 L 584.066406 355.359375 C 582.84375 355.394531 581.71875 355.742188 580.691406 356.40625 C 580.132812 356.863281 579.878906 357.449219 579.929688 358.164062 C 580.121094 359.675781 580.675781 361.039062 581.59375 362.253906 L 592.578125 381.796875 L 602.894531 362.398438 C 603.726562 361.105469 604.21875 359.695312 604.367188 358.164062 C 604.417969 357.785156 604.359375 357.425781 604.195312 357.082031 C 604.03125 356.738281 603.789062 356.464844 603.464844 356.261719 C 602.457031 355.652344 601.363281 355.351562 600.183594 355.359375 L 600.183594 354.074219 C 602.554688 354.304688 604.933594 354.417969 607.316406 354.410156 C 609.648438 354.410156 612.976562 354.171875 615.066406 354.074219 L 615.066406 355.359375 C 614.191406 355.425781 613.375 355.683594 612.613281 356.125 C 611.855469 356.566406 611.230469 357.152344 610.738281 357.878906 " fill-opacity="1" fill-rule="nonzero"/><path fill="#58595b" d="M 182.902344 451.359375 C 183.046875 451.296875 183.1875 451.296875 183.332031 451.359375 L 184.519531 452.644531 C 183.625 453.742188 182.53125 454.582031 181.238281 455.164062 C 179.765625 455.75 178.238281 456.042969 176.652344 456.042969 C 175.066406 456.042969 173.535156 455.75 172.0625 455.164062 C 170.800781 454.621094 169.707031 453.847656 168.78125 452.832031 C 167.804688 451.761719 167.078125 450.539062 166.59375 449.171875 C 166.050781 447.632812 165.777344 446.046875 165.777344 444.417969 C 165.777344 442.785156 166.050781 441.199219 166.59375 439.664062 C 167.128906 438.320312 167.890625 437.128906 168.886719 436.085938 C 169.882812 435.042969 171.035156 434.222656 172.347656 433.625 C 173.878906 433.035156 175.460938 432.75 177.101562 432.769531 C 178.582031 432.75 180.007812 433.019531 181.382812 433.574219 C 182.578125 434.066406 183.640625 434.765625 184.566406 435.667969 L 183.570312 437.046875 C 183.585938 437.125 183.585938 437.207031 183.570312 437.285156 C 183.425781 437.355469 183.285156 437.355469 183.140625 437.285156 C 183 437.328125 182.855469 437.328125 182.714844 437.285156 L 182.144531 437 L 181.382812 436.523438 C 181.070312 436.316406 180.738281 436.160156 180.382812 436.046875 C 179.953125 435.878906 179.507812 435.75 179.050781 435.667969 C 178.449219 435.621094 177.847656 435.621094 177.246094 435.667969 C 176.113281 435.660156 175.019531 435.867188 173.964844 436.285156 C 172.972656 436.675781 172.117188 437.261719 171.398438 438.046875 C 170.628906 438.855469 170.074219 439.789062 169.734375 440.851562 C 169.3125 442.035156 169.105469 443.253906 169.113281 444.511719 C 169.101562 445.800781 169.308594 447.050781 169.734375 448.269531 C 170.074219 449.332031 170.628906 450.265625 171.398438 451.074219 C 172.097656 451.8125 172.921875 452.367188 173.871094 452.738281 C 174.84375 453.144531 175.855469 453.335938 176.914062 453.308594 C 177.515625 453.382812 178.117188 453.382812 178.71875 453.308594 C 179.246094 453.253906 179.75 453.128906 180.242188 452.929688 C 180.6875 452.789062 181.097656 452.582031 181.476562 452.308594 C 181.902344 452.046875 182.296875 451.746094 182.664062 451.40625 C 182.742188 451.378906 182.820312 451.363281 182.902344 451.359375 Z M 182.902344 451.359375 " fill-opacity="1" fill-rule="nonzero"/><path fill="#58595b" d="M 218.5625 444.75 C 218.566406 446.382812 218.296875 447.964844 217.757812 449.503906 C 217.230469 450.859375 216.472656 452.0625 215.472656 453.117188 C 214.484375 454.15625 213.328125 454.949219 212.003906 455.496094 C 210.542969 456.066406 209.03125 456.351562 207.460938 456.351562 C 205.894531 456.351562 204.378906 456.066406 202.921875 455.496094 C 201.570312 454.964844 200.398438 454.171875 199.402344 453.117188 C 198.402344 452.070312 197.65625 450.867188 197.167969 449.503906 C 196.589844 447.972656 196.304688 446.386719 196.304688 444.75 C 196.304688 443.113281 196.589844 441.527344 197.167969 439.996094 C 197.644531 438.613281 198.390625 437.390625 199.402344 436.332031 C 200.410156 435.285156 201.582031 434.476562 202.921875 433.910156 C 204.378906 433.335938 205.894531 433.050781 207.460938 433.050781 C 209.03125 433.050781 210.542969 433.335938 212.003906 433.910156 C 213.339844 434.46875 214.507812 435.277344 215.511719 436.328125 C 216.511719 437.378906 217.257812 438.585938 217.757812 439.949219 C 218.304688 441.5 218.570312 443.101562 218.5625 444.75 Z M 215.425781 444.75 C 215.425781 443.484375 215.238281 442.25 214.855469 441.042969 C 214.515625 439.980469 213.960938 439.042969 213.191406 438.234375 C 212.496094 437.441406 211.65625 436.855469 210.671875 436.476562 C 209.605469 436.082031 208.503906 435.882812 207.367188 435.882812 C 206.230469 435.882812 205.128906 436.082031 204.0625 436.476562 C 203.132812 436.894531 202.324219 437.480469 201.636719 438.234375 C 200.90625 439.066406 200.351562 440 199.972656 441.042969 C 199.246094 443.511719 199.246094 445.984375 199.972656 448.457031 C 200.351562 449.5 200.90625 450.433594 201.636719 451.265625 C 202.351562 452.023438 203.191406 452.59375 204.15625 452.976562 C 205.222656 453.371094 206.324219 453.566406 207.460938 453.566406 C 208.597656 453.566406 209.699219 453.371094 210.765625 452.976562 C 211.71875 452.59375 212.542969 452.019531 213.238281 451.265625 C 213.972656 450.441406 214.511719 449.507812 214.855469 448.457031 C 215.238281 447.253906 215.429688 446.015625 215.425781 444.75 Z M 215.425781 444.75 " fill-opacity="1" fill-rule="nonzero"/><path fill="#58595b" d="M 235.824219 453.449219 L 245.332031 453.449219 L 245.332031 456.019531 L 232.78125 456.019531 L 232.78125 433.527344 L 235.824219 433.527344 Z M 235.824219 453.449219 " fill-opacity="1" fill-rule="nonzero"/><path fill="#58595b" d="M 262.355469 453.449219 L 271.867188 453.449219 L 271.867188 456.019531 L 259.265625 456.019531 L 259.265625 433.527344 L 262.355469 433.527344 Z M 262.355469 453.449219 " fill-opacity="1" fill-rule="nonzero"/><path fill="#58595b" d="M 299.632812 433.527344 L 299.632812 436 L 288.839844 436 L 288.839844 443.511719 L 297.542969 443.511719 L 297.542969 445.890625 L 288.839844 445.890625 L 288.839844 453.5 L 299.632812 453.5 L 299.632812 456.019531 L 285.796875 456.019531 L 285.796875 433.527344 Z M 299.632812 433.527344 " fill-opacity="1" fill-rule="nonzero"/><path fill="#58595b" d="M 329.492188 451.359375 C 329.636719 451.296875 329.777344 451.296875 329.921875 451.359375 L 331.109375 452.644531 C 330.214844 453.742188 329.121094 454.582031 327.828125 455.164062 C 326.355469 455.75 324.828125 456.042969 323.242188 456.042969 C 321.65625 456.042969 320.125 455.75 318.652344 455.164062 C 317.390625 454.621094 316.296875 453.847656 315.371094 452.832031 C 314.394531 451.761719 313.667969 450.539062 313.183594 449.171875 C 312.640625 447.632812 312.367188 446.046875 312.367188 444.417969 C 312.367188 442.785156 312.640625 441.199219 313.183594 439.664062 C 313.703125 438.292969 314.480469 437.085938 315.515625 436.046875 C 316.503906 435 317.660156 434.191406 318.984375 433.625 C 320.515625 433.027344 322.097656 432.742188 323.742188 432.769531 C 325.136719 432.71875 326.488281 432.941406 327.792969 433.445312 C 329.097656 433.949219 330.253906 434.691406 331.253906 435.667969 L 330.253906 437.046875 L 330.253906 437.285156 C 330.113281 437.355469 329.96875 437.355469 329.828125 437.285156 C 329.683594 437.332031 329.542969 437.332031 329.398438 437.285156 L 328.828125 436.953125 L 328.113281 436.476562 C 327.78125 436.273438 327.433594 436.097656 327.070312 435.953125 L 325.738281 435.621094 C 325.152344 435.574219 324.566406 435.574219 323.976562 435.621094 C 322.824219 435.585938 321.714844 435.792969 320.648438 436.238281 C 319.664062 436.636719 318.808594 437.222656 318.082031 438 C 317.351562 438.828125 316.796875 439.761719 316.417969 440.804688 C 316 441.988281 315.792969 443.207031 315.800781 444.464844 C 315.789062 445.753906 315.996094 447.003906 316.417969 448.222656 C 316.796875 449.261719 317.351562 450.195312 318.082031 451.027344 C 318.792969 451.753906 319.617188 452.308594 320.554688 452.691406 C 321.546875 453.09375 322.574219 453.285156 323.644531 453.261719 C 324.246094 453.308594 324.851562 453.308594 325.453125 453.261719 C 325.953125 453.179688 326.445312 453.050781 326.925781 452.878906 C 327.371094 452.714844 327.800781 452.507812 328.210938 452.261719 L 329.398438 451.359375 C 329.429688 451.355469 329.460938 451.355469 329.492188 451.359375 Z M 329.492188 451.359375 " fill-opacity="1" fill-rule="nonzero"/><path fill="#58595b" d="M 360.921875 433.527344 L 360.921875 436.097656 L 353.648438 436.097656 L 353.648438 456.066406 L 350.605469 456.066406 L 350.605469 436.097656 L 343.1875 436.097656 L 343.1875 433.527344 Z M 360.921875 433.527344 " fill-opacity="1" fill-rule="nonzero"/><path fill="#58595b" d="M 374.710938 433.527344 L 377.753906 433.527344 L 377.753906 456.019531 L 374.710938 456.019531 Z M 374.710938 433.527344 " fill-opacity="1" fill-rule="nonzero"/><path fill="#58595b" d="M 414.507812 444.75 C 414.539062 446.386719 414.269531 447.96875 413.703125 449.503906 C 413.210938 450.867188 412.46875 452.070312 411.464844 453.117188 C 410.46875 454.171875 409.296875 454.964844 407.949219 455.496094 C 406.488281 456.066406 404.976562 456.351562 403.40625 456.351562 C 401.839844 456.351562 400.324219 456.066406 398.867188 455.496094 C 397.53125 454.964844 396.371094 454.171875 395.394531 453.117188 C 394.398438 452.0625 393.636719 450.859375 393.113281 449.503906 C 392.570312 447.964844 392.296875 446.382812 392.296875 444.75 C 392.296875 443.117188 392.570312 441.535156 393.113281 439.996094 C 393.625 438.621094 394.386719 437.398438 395.394531 436.332031 C 396.398438 435.316406 397.554688 434.523438 398.867188 433.957031 C 400.324219 433.386719 401.839844 433.097656 403.40625 433.097656 C 404.976562 433.097656 406.488281 433.386719 407.949219 433.957031 C 409.273438 434.523438 410.445312 435.316406 411.464844 436.332031 C 412.460938 437.402344 413.207031 438.621094 413.703125 439.996094 C 414.277344 441.527344 414.546875 443.113281 414.507812 444.75 Z M 411.371094 444.75 C 411.417969 443.476562 411.230469 442.242188 410.800781 441.042969 C 410.457031 439.992188 409.917969 439.058594 409.183594 438.234375 C 408.472656 437.464844 407.632812 436.878906 406.664062 436.476562 C 405.597656 436.082031 404.496094 435.882812 403.359375 435.882812 C 402.222656 435.882812 401.121094 436.082031 400.054688 436.476562 C 399.070312 436.855469 398.230469 437.441406 397.535156 438.234375 C 396.765625 439.042969 396.210938 439.980469 395.871094 441.042969 C 395.09375 443.511719 395.09375 445.984375 395.871094 448.457031 C 396.210938 449.519531 396.765625 450.457031 397.535156 451.265625 C 398.230469 452.042969 399.070312 452.617188 400.054688 452.976562 C 401.121094 453.371094 402.222656 453.566406 403.359375 453.566406 C 404.496094 453.566406 405.597656 453.371094 406.664062 452.976562 C 407.632812 452.59375 408.472656 452.023438 409.183594 451.265625 C 409.917969 450.441406 410.457031 449.507812 410.800781 448.457031 C 411.183594 447.25 411.324219 446.015625 411.230469 444.75 Z M 411.371094 444.75 " fill-opacity="1" fill-rule="nonzero"/><path fill="#58595b" d="M 430.914062 433.527344 L 431.339844 433.957031 L 444.371094 450.929688 L 444.371094 433.527344 L 447.03125 433.527344 L 447.03125 456.066406 L 445.511719 456.066406 C 445.304688 456.109375 445.097656 456.109375 444.894531 456.066406 L 444.417969 455.636719 L 431.390625 438.285156 L 431.390625 455.828125 L 428.773438 455.828125 L 428.773438 433.527344 Z M 430.914062 433.527344 " fill-opacity="1" fill-rule="nonzero"/><path fill="#58595b" d="M 497.671875 456.019531 L 494.628906 456.019531 L 494.628906 445.75 L 482.503906 445.75 L 482.503906 456.019531 L 479.363281 456.019531 L 479.363281 433.527344 L 482.457031 433.527344 L 482.457031 443.511719 L 494.582031 443.511719 L 494.582031 433.527344 L 497.625 433.527344 Z M 497.671875 456.019531 " fill-opacity="1" fill-rule="nonzero"/><path fill="#58595b" d="M 534.234375 444.75 C 534.238281 446.382812 533.96875 447.964844 533.425781 449.503906 C 532.921875 450.871094 532.160156 452.074219 531.144531 453.117188 C 530.171875 454.183594 529.015625 454.972656 527.671875 455.496094 C 526.214844 456.066406 524.699219 456.351562 523.132812 456.351562 C 521.566406 456.351562 520.050781 456.066406 518.59375 455.496094 C 517.242188 454.964844 516.070312 454.171875 515.074219 453.117188 C 514.089844 452.0625 513.34375 450.855469 512.839844 449.503906 C 512.261719 447.972656 511.972656 446.386719 511.972656 444.75 C 511.972656 443.113281 512.261719 441.527344 512.839844 439.996094 C 513.335938 438.621094 514.078125 437.402344 515.074219 436.332031 C 516.09375 435.316406 517.265625 434.523438 518.59375 433.957031 C 520.050781 433.386719 521.566406 433.097656 523.132812 433.097656 C 524.699219 433.097656 526.214844 433.386719 527.671875 433.957031 C 528.992188 434.511719 530.148438 435.304688 531.144531 436.332031 C 532.15625 437.398438 532.914062 438.621094 533.425781 439.996094 C 533.976562 441.53125 534.246094 443.117188 534.234375 444.75 Z M 531.097656 444.75 C 531.097656 443.484375 530.90625 442.25 530.527344 441.042969 C 530.183594 439.980469 529.628906 439.042969 528.863281 438.234375 C 528.175781 437.453125 527.355469 436.867188 526.390625 436.476562 C 525.316406 436.074219 524.207031 435.875 523.0625 435.875 C 521.914062 435.875 520.804688 436.074219 519.734375 436.476562 C 518.765625 436.878906 517.925781 437.464844 517.214844 438.234375 C 516.476562 439.058594 515.941406 439.992188 515.597656 441.042969 C 514.820312 443.511719 514.820312 445.984375 515.597656 448.457031 C 515.941406 449.507812 516.476562 450.441406 517.214844 451.265625 C 517.925781 452.023438 518.765625 452.59375 519.734375 452.976562 C 520.804688 453.375 521.914062 453.578125 523.0625 453.578125 C 524.207031 453.578125 525.316406 453.375 526.390625 452.976562 C 527.378906 452.582031 528.25 452.011719 529.003906 451.265625 C 529.738281 450.441406 530.277344 449.507812 530.621094 448.457031 C 531 447.25 531.15625 446.015625 531.097656 444.75 Z M 531.097656 444.75 " fill-opacity="1" fill-rule="nonzero"/><path fill="#58595b" d="M 562.195312 433.527344 L 562.195312 436.097656 L 554.917969 436.097656 L 554.917969 456.066406 L 551.875 456.066406 L 551.875 436.097656 L 544.554688 436.097656 L 544.554688 433.527344 Z M 562.195312 433.527344 " fill-opacity="1" fill-rule="nonzero"/><path fill="#58595b" d="M 589.960938 433.527344 L 589.960938 436 L 579.121094 436 L 579.121094 443.511719 L 587.871094 443.511719 L 587.871094 445.890625 L 579.121094 445.890625 L 579.121094 453.5 L 589.960938 453.5 L 589.960938 456.019531 L 576.171875 456.019531 L 576.171875 433.527344 Z M 589.960938 433.527344 " fill-opacity="1" fill-rule="nonzero"/><path fill="#58595b" d="M 607.746094 453.449219 L 617.253906 453.449219 L 617.253906 456.019531 L 604.703125 456.019531 L 604.703125 433.527344 L 607.746094 433.527344 Z M 607.746094 453.449219 " fill-opacity="1" fill-rule="nonzero"/><path fill="#58595b" d="M 643.074219 437 C 642.988281 437.148438 642.875 437.277344 642.738281 437.378906 L 642.359375 437.378906 C 642.152344 437.453125 641.949219 437.453125 641.742188 437.378906 L 640.839844 436.761719 L 639.554688 436.191406 C 638.953125 435.980469 638.335938 435.882812 637.699219 435.90625 C 637.082031 435.902344 636.480469 436 635.894531 436.191406 C 635.394531 436.351562 634.953125 436.605469 634.5625 436.953125 C 634.207031 437.246094 633.953125 437.613281 633.800781 438.046875 C 633.609375 438.484375 633.515625 438.945312 633.515625 439.425781 C 633.484375 440.003906 633.644531 440.527344 633.992188 440.992188 C 634.320312 441.417969 634.714844 441.765625 635.179688 442.039062 C 635.710938 442.339844 636.265625 442.59375 636.84375 442.800781 L 638.839844 443.464844 L 640.839844 444.226562 C 641.425781 444.519531 641.964844 444.882812 642.453125 445.320312 C 642.980469 445.792969 643.390625 446.347656 643.691406 446.984375 C 644.019531 447.726562 644.179688 448.503906 644.167969 449.316406 C 644.179688 450.285156 644.007812 451.21875 643.644531 452.121094 C 643.332031 452.980469 642.839844 453.726562 642.167969 454.355469 C 641.5 455.023438 640.722656 455.53125 639.839844 455.875 C 638.808594 456.242188 637.746094 456.414062 636.652344 456.398438 C 635.261719 456.421875 633.933594 456.152344 632.660156 455.589844 C 631.472656 455.101562 630.441406 454.390625 629.570312 453.453125 L 630.472656 452.023438 C 630.53125 451.894531 630.625 451.796875 630.757812 451.738281 L 631.1875 451.738281 C 631.484375 451.777344 631.738281 451.902344 631.945312 452.121094 L 633.230469 452.546875 C 633.714844 452.847656 634.222656 453.101562 634.75 453.308594 C 635.460938 453.550781 636.191406 453.679688 636.9375 453.6875 C 637.609375 453.699219 638.257812 453.585938 638.886719 453.355469 C 639.410156 453.167969 639.886719 452.902344 640.316406 452.546875 C 640.730469 452.183594 641.03125 451.738281 641.21875 451.214844 C 641.449219 450.703125 641.558594 450.164062 641.550781 449.601562 C 641.597656 448.988281 641.4375 448.433594 641.074219 447.9375 C 640.773438 447.46875 640.375 447.105469 639.886719 446.84375 C 639.355469 446.539062 638.800781 446.285156 638.222656 446.082031 L 636.226562 445.464844 C 635.542969 445.25 634.878906 444.996094 634.230469 444.703125 C 633.621094 444.441406 633.082031 444.078125 632.613281 443.609375 C 632.078125 443.144531 631.664062 442.589844 631.375 441.945312 C 631.132812 441.375 630.976562 440.785156 630.910156 440.171875 C 630.84375 439.554688 630.871094 438.945312 630.988281 438.339844 C 631.109375 437.730469 631.3125 437.15625 631.605469 436.613281 C 631.898438 436.066406 632.265625 435.578125 632.707031 435.144531 C 633.355469 434.554688 634.085938 434.097656 634.894531 433.765625 C 635.863281 433.421875 636.863281 433.246094 637.890625 433.242188 C 639.070312 433.238281 640.210938 433.441406 641.3125 433.863281 C 642.328125 434.234375 643.234375 434.789062 644.023438 435.527344 Z M 643.074219 437 " fill-opacity="1" fill-rule="nonzero"/></svg>