<svg xmlns="http://www.w3.org/2000/svg" xmlns:xlink="http://www.w3.org/1999/xlink" width="1080" zoomAndPan="magnify" viewBox="0 0 810 809.999993" height="1080" preserveAspectRatio="xMidYMid meet" version="1.0"><rect x="-81" width="972" fill="#ffffff" y="-80.999999" height="971.999992" fill-opacity="1"/><rect x="-81" width="972" fill="#ffffff" y="-80.999999" height="971.999992" fill-opacity="1"/><path fill="#58595b" d="M 470.09375 381.226562 C 468.644531 381.414062 467.222656 381.304688 465.824219 380.890625 C 464.421875 380.476562 463.167969 379.796875 462.058594 378.847656 C 460.910156 376.609375 460.339844 374.230469 460.347656 371.714844 L 460.347656 325.976562 L 471.949219 325.976562 L 471.949219 323.027344 L 448.457031 323.027344 L 424.019531 370.527344 L 398.390625 322.980469 L 325.070312 322.980469 L 325.070312 348.703125 L 327.828125 348.703125 C 327.75 347.105469 327.816406 345.511719 328.03125 343.925781 C 328.246094 342.339844 328.601562 340.789062 329.101562 339.269531 C 329.601562 337.75 330.234375 336.285156 331.003906 334.882812 C 331.773438 333.480469 332.664062 332.160156 333.679688 330.921875 C 337.054688 326.972656 343.1875 325.5 354.695312 325.5 L 354.695312 381.226562 L 341.570312 381.226562 L 341.570312 384.171875 L 401.054688 384.171875 L 401.054688 381.226562 L 398.484375 381.226562 C 396.992188 381.429688 395.527344 381.304688 394.085938 380.855469 C 392.648438 380.40625 391.375 379.675781 390.261719 378.65625 C 389.175781 376.46875 388.683594 374.15625 388.785156 371.714844 L 388.785156 331.300781 L 418.125 385.410156 L 419.976562 385.410156 L 448.03125 330.300781 L 448.03125 381.226562 L 436.476562 381.226562 L 436.476562 384.171875 L 472.660156 384.171875 L 472.660156 381.226562 C 471.804688 381.351562 470.949219 381.351562 470.09375 381.226562 Z M 385.601562 381.226562 L 376.757812 381.226562 C 372.523438 381.226562 369.71875 380.464844 368.53125 378.800781 C 367.441406 376.714844 366.902344 374.496094 366.914062 372.144531 L 366.914062 325.5 C 370.078125 325.234375 373.222656 325.363281 376.355469 325.886719 C 379.488281 326.410156 382.503906 327.3125 385.410156 328.589844 Z M 385.601562 381.226562 " fill-opacity="1" fill-rule="nonzero"/><path fill="#58595b" d="M 221.132812 424.96875 L 210.054688 424.96875 L 210.054688 419.265625 L 238.582031 419.265625 L 238.582031 424.96875 L 227.359375 424.96875 L 227.359375 454.308594 L 221.132812 454.308594 Z M 221.132812 424.96875 " fill-opacity="1" fill-rule="nonzero"/><path fill="#58595b" d="M 251.277344 419.265625 L 267.109375 419.265625 C 268.972656 419.164062 270.78125 419.417969 272.542969 420.027344 C 274.304688 420.636719 275.886719 421.554688 277.285156 422.78125 C 278.238281 423.808594 278.96875 424.972656 279.46875 426.28125 C 279.96875 427.589844 280.210938 428.941406 280.1875 430.34375 C 280.207031 430.957031 280.175781 431.570312 280.09375 432.175781 C 280.007812 432.785156 279.871094 433.382812 279.683594 433.96875 C 279.492188 434.554688 279.253906 435.117188 278.96875 435.660156 C 278.679688 436.203125 278.347656 436.71875 277.96875 437.203125 C 277.59375 437.6875 277.175781 438.136719 276.71875 438.550781 C 276.265625 438.960938 275.777344 439.332031 275.253906 439.660156 C 274.734375 439.988281 274.191406 440.265625 273.621094 440.5 C 273.050781 440.730469 272.464844 440.910156 271.867188 441.042969 L 281.375 454.355469 L 273.816406 454.355469 L 265.160156 442.085938 L 257.601562 442.085938 L 257.601562 454.355469 L 251.421875 454.355469 Z M 266.445312 436.621094 C 270.914062 436.621094 273.671875 434.335938 273.671875 430.769531 C 273.671875 427.015625 271.007812 424.96875 266.398438 424.96875 L 257.601562 424.96875 L 257.601562 436.714844 Z M 266.445312 436.621094 " fill-opacity="1" fill-rule="nonzero"/><path fill="#58595b" d="M 307.003906 419.265625 L 312.757812 419.265625 L 328.164062 454.59375 L 321.648438 454.59375 L 318.082031 446.082031 L 301.488281 446.082031 L 297.875 454.59375 L 291.597656 454.59375 Z M 315.847656 440.613281 L 309.902344 426.394531 L 303.722656 440.375 Z M 315.847656 440.613281 " fill-opacity="1" fill-rule="nonzero"/><path fill="#58595b" d="M 340.238281 419.265625 L 353.316406 419.265625 C 353.878906 419.230469 354.445312 419.226562 355.007812 419.25 C 355.574219 419.273438 356.136719 419.320312 356.695312 419.398438 C 357.253906 419.476562 357.808594 419.578125 358.359375 419.710938 C 358.910156 419.84375 359.453125 420 359.988281 420.183594 C 360.519531 420.367188 361.046875 420.574219 361.558594 420.808594 C 362.074219 421.046875 362.574219 421.304688 363.0625 421.585938 C 363.554688 421.871094 364.027344 422.175781 364.488281 422.507812 C 364.945312 422.835938 365.386719 423.1875 365.8125 423.558594 C 366.238281 423.933594 366.644531 424.324219 367.03125 424.734375 C 367.417969 425.148438 367.785156 425.578125 368.128906 426.023438 C 368.476562 426.472656 368.796875 426.933594 369.097656 427.414062 C 369.398438 427.894531 369.675781 428.386719 369.925781 428.890625 C 370.179688 429.394531 370.40625 429.914062 370.609375 430.441406 C 370.8125 430.96875 370.988281 431.503906 371.136719 432.050781 C 371.289062 432.59375 371.410156 433.144531 371.507812 433.703125 C 371.605469 434.257812 371.675781 434.820312 371.714844 435.382812 C 371.738281 435.777344 371.738281 436.175781 371.714844 436.570312 C 371.714844 437.148438 371.683594 437.71875 371.628906 438.292969 C 371.570312 438.863281 371.484375 439.433594 371.371094 439.996094 C 371.257812 440.5625 371.117188 441.117188 370.949219 441.667969 C 370.78125 442.21875 370.585938 442.757812 370.363281 443.289062 C 370.140625 443.820312 369.894531 444.339844 369.625 444.847656 C 369.351562 445.351562 369.054688 445.84375 368.734375 446.324219 C 368.414062 446.800781 368.070312 447.261719 367.707031 447.707031 C 367.339844 448.148438 366.953125 448.574219 366.546875 448.980469 C 366.140625 449.386719 365.714844 449.773438 365.269531 450.136719 C 364.824219 450.5 364.363281 450.84375 363.882812 451.160156 C 363.402344 451.480469 362.910156 451.777344 362.402344 452.046875 C 361.894531 452.316406 361.375 452.5625 360.84375 452.78125 C 360.3125 453.003906 359.773438 453.195312 359.222656 453.363281 C 358.671875 453.527344 358.113281 453.667969 357.550781 453.78125 C 356.984375 453.890625 356.417969 453.976562 355.84375 454.03125 C 355.273438 454.089844 354.699219 454.117188 354.125 454.117188 L 339.859375 454.117188 Z M 353.316406 448.695312 C 354.0625 448.75 354.808594 448.726562 355.550781 448.632812 C 356.296875 448.535156 357.023438 448.367188 357.734375 448.128906 C 358.445312 447.890625 359.125 447.585938 359.773438 447.214844 C 360.425781 446.839844 361.03125 446.410156 361.597656 445.917969 C 362.164062 445.425781 362.675781 444.882812 363.132812 444.289062 C 363.589844 443.695312 363.988281 443.0625 364.320312 442.390625 C 364.65625 441.722656 364.921875 441.023438 365.117188 440.300781 C 365.3125 439.578125 365.4375 438.839844 365.488281 438.09375 L 365.488281 436.90625 C 365.515625 436.148438 365.472656 435.398438 365.351562 434.652344 C 365.230469 433.902344 365.039062 433.175781 364.777344 432.46875 C 364.515625 431.757812 364.183594 431.082031 363.789062 430.4375 C 363.390625 429.792969 362.9375 429.195312 362.421875 428.640625 C 361.90625 428.085938 361.34375 427.585938 360.730469 427.144531 C 360.117188 426.703125 359.46875 426.324219 358.78125 426.007812 C 358.09375 425.691406 357.382812 425.449219 356.644531 425.273438 C 355.910156 425.097656 355.164062 424.996094 354.410156 424.96875 L 346.375 424.96875 L 346.375 448.742188 Z M 353.316406 448.695312 " fill-opacity="1" fill-rule="nonzero"/><path fill="#58595b" d="M 386.265625 419.265625 L 412.226562 419.265625 L 412.226562 424.78125 L 392.449219 424.78125 L 392.449219 434.003906 L 409.992188 434.003906 L 409.992188 439.472656 L 392.449219 439.472656 L 392.449219 448.980469 L 412.464844 448.980469 L 412.464844 454.449219 L 386.265625 454.449219 Z M 386.265625 419.265625 " fill-opacity="1" fill-rule="nonzero"/><path fill="#58595b" d="M 428.441406 419.265625 L 434.957031 419.265625 L 445.605469 435.859375 L 456.257812 419.265625 L 462.816406 419.265625 L 462.816406 454.308594 L 456.683594 454.308594 L 456.683594 429.203125 L 445.605469 445.699219 L 434.667969 429.296875 L 434.667969 454.355469 L 428.441406 454.355469 Z M 428.441406 419.265625 " fill-opacity="1" fill-rule="nonzero"/><path fill="#58595b" d="M 490.585938 419.265625 L 496.292969 419.265625 L 511.746094 454.59375 L 505.421875 454.59375 L 501.808594 446.082031 L 485.355469 446.082031 L 481.742188 454.59375 L 475.464844 454.59375 Z M 499.382812 440.613281 L 493.34375 426.632812 L 487.304688 440.613281 Z M 499.382812 440.613281 " fill-opacity="1" fill-rule="nonzero"/><path fill="#58595b" d="M 524.726562 419.265625 L 540.320312 419.265625 C 542.175781 419.167969 543.976562 419.425781 545.730469 420.035156 C 547.480469 420.644531 549.054688 421.558594 550.449219 422.78125 C 551.402344 423.808594 552.128906 424.972656 552.632812 426.28125 C 553.132812 427.589844 553.371094 428.941406 553.351562 430.34375 C 553.367188 430.953125 553.328125 431.5625 553.238281 432.167969 C 553.148438 432.773438 553.007812 433.367188 552.8125 433.949219 C 552.621094 434.53125 552.378906 435.089844 552.089844 435.628906 C 551.796875 436.167969 551.460938 436.675781 551.082031 437.160156 C 550.703125 437.640625 550.285156 438.082031 549.828125 438.492188 C 549.371094 438.898438 548.882812 439.265625 548.363281 439.585938 C 547.84375 439.910156 547.300781 440.1875 546.730469 440.414062 C 546.164062 440.640625 545.582031 440.820312 544.980469 440.945312 L 554.492188 454.210938 L 547.261719 454.210938 L 538.609375 441.992188 L 530.859375 441.992188 L 530.859375 454.210938 L 524.726562 454.210938 Z M 539.847656 436.621094 C 544.316406 436.621094 547.121094 434.335938 547.121094 430.769531 C 547.121094 427.015625 544.410156 424.96875 539.796875 424.96875 L 530.859375 424.96875 L 530.859375 436.714844 Z M 539.847656 436.621094 " fill-opacity="1" fill-rule="nonzero"/><path fill="#58595b" d="M 568.898438 419.265625 L 575.03125 419.265625 L 575.03125 436.90625 L 591.769531 419.265625 L 599.28125 419.265625 L 584.730469 434.335938 L 599.945312 454.308594 L 592.480469 454.308594 L 580.546875 438.285156 L 575.03125 443.894531 L 575.03125 454.070312 L 568.898438 454.070312 Z M 568.898438 419.265625 " fill-opacity="1" fill-rule="nonzero"/><path fill="#58595b" d="M 218.421875 471.851562 L 220.039062 471.851562 L 220.039062 478.320312 L 228.453125 478.320312 L 228.453125 471.851562 L 230.167969 471.851562 L 230.167969 486.402344 L 228.453125 486.402344 L 228.453125 479.839844 L 220.039062 479.839844 L 220.039062 486.402344 L 218.421875 486.402344 Z M 218.421875 471.851562 " fill-opacity="1" fill-rule="nonzero"/><path fill="#58595b" d="M 244.761719 479.175781 C 244.75 478.691406 244.785156 478.207031 244.867188 477.730469 C 244.949219 477.25 245.078125 476.785156 245.25 476.332031 C 245.421875 475.878906 245.640625 475.445312 245.898438 475.035156 C 246.15625 474.625 246.449219 474.242188 246.785156 473.890625 C 247.117188 473.535156 247.480469 473.21875 247.875 472.9375 C 248.273438 472.65625 248.691406 472.417969 249.132812 472.21875 C 249.574219 472.019531 250.035156 471.863281 250.507812 471.753906 C 250.980469 471.644531 251.457031 471.582031 251.941406 471.566406 L 252.226562 471.566406 C 252.710938 471.5625 253.1875 471.601562 253.660156 471.6875 C 254.132812 471.777344 254.589844 471.910156 255.039062 472.085938 C 255.484375 472.265625 255.910156 472.484375 256.3125 472.746094 C 256.714844 473.011719 257.089844 473.308594 257.433594 473.644531 C 257.777344 473.980469 258.085938 474.347656 258.359375 474.742188 C 258.632812 475.136719 258.863281 475.558594 259.050781 476 C 259.242188 476.441406 259.386719 476.898438 259.488281 477.367188 C 259.585938 477.835938 259.640625 478.3125 259.644531 478.792969 L 259.644531 479.03125 C 259.6875 479.523438 259.679688 480.011719 259.625 480.5 C 259.570312 480.988281 259.46875 481.464844 259.316406 481.933594 C 259.167969 482.402344 258.972656 482.851562 258.734375 483.28125 C 258.496094 483.710938 258.21875 484.113281 257.902344 484.488281 C 257.582031 484.863281 257.230469 485.203125 256.847656 485.507812 C 256.460938 485.816406 256.050781 486.078125 255.613281 486.304688 C 255.175781 486.527344 254.71875 486.707031 254.246094 486.84375 C 253.773438 486.976562 253.292969 487.0625 252.800781 487.101562 C 252.3125 487.140625 251.824219 487.132812 251.335938 487.074219 C 250.847656 487.015625 250.367188 486.914062 249.902344 486.761719 C 249.433594 486.609375 248.984375 486.414062 248.554688 486.171875 C 248.128906 485.929688 247.726562 485.652344 247.351562 485.332031 C 246.980469 485.011719 246.640625 484.660156 246.335938 484.273438 C 246.03125 483.886719 245.769531 483.472656 245.546875 483.035156 C 245.324219 482.597656 245.148438 482.140625 245.015625 481.667969 C 244.882812 481.191406 244.800781 480.710938 244.761719 480.21875 C 244.714844 479.824219 244.714844 479.429688 244.761719 479.03125 Z M 257.933594 479.175781 C 257.96875 478.796875 257.964844 478.421875 257.925781 478.046875 C 257.886719 477.671875 257.8125 477.300781 257.699219 476.941406 C 257.585938 476.582031 257.441406 476.234375 257.261719 475.902344 C 257.078125 475.570312 256.867188 475.257812 256.625 474.96875 C 256.386719 474.679688 256.117188 474.414062 255.824219 474.175781 C 255.53125 473.9375 255.214844 473.730469 254.882812 473.554688 C 254.546875 473.378906 254.199219 473.238281 253.835938 473.132812 C 253.472656 473.023438 253.105469 472.953125 252.726562 472.917969 C 252.351562 472.886719 251.976562 472.886719 251.601562 472.925781 C 251.222656 472.96875 250.855469 473.042969 250.496094 473.15625 C 250.132812 473.269531 249.789062 473.414062 249.457031 473.59375 C 249.125 473.773438 248.8125 473.988281 248.523438 474.226562 C 248.230469 474.46875 247.96875 474.738281 247.730469 475.03125 C 247.492188 475.324219 247.285156 475.640625 247.109375 475.976562 C 246.933594 476.308594 246.792969 476.65625 246.6875 477.019531 C 246.578125 477.382812 246.507812 477.753906 246.476562 478.128906 C 246.425781 478.476562 246.425781 478.824219 246.476562 479.175781 C 246.460938 479.554688 246.480469 479.933594 246.539062 480.3125 C 246.597656 480.6875 246.691406 481.054688 246.824219 481.414062 C 246.957031 481.769531 247.121094 482.113281 247.320312 482.4375 C 247.515625 482.765625 247.746094 483.066406 248.003906 483.347656 C 248.261719 483.628906 248.546875 483.878906 248.855469 484.105469 C 249.164062 484.328125 249.488281 484.523438 249.835938 484.683594 C 250.179688 484.84375 250.539062 484.964844 250.910156 485.054688 C 251.28125 485.144531 251.65625 485.199219 252.039062 485.214844 C 252.417969 485.214844 252.792969 485.175781 253.164062 485.101562 C 253.535156 485.027344 253.894531 484.917969 254.242188 484.769531 C 254.59375 484.625 254.925781 484.445312 255.238281 484.230469 C 255.550781 484.019531 255.839844 483.777344 256.105469 483.507812 C 256.371094 483.238281 256.609375 482.945312 256.816406 482.628906 C 257.023438 482.3125 257.195312 481.976562 257.335938 481.625 C 257.476562 481.273438 257.582031 480.910156 257.652344 480.539062 C 257.71875 480.167969 257.75 479.789062 257.742188 479.414062 Z M 257.933594 479.175781 " fill-opacity="1" fill-rule="nonzero"/><path fill="#58595b" d="M 277.144531 473.375 L 272.386719 473.375 L 272.386719 471.851562 L 283.847656 471.851562 L 283.847656 473.375 L 279.09375 473.375 L 279.09375 486.402344 L 277.429688 486.402344 Z M 277.144531 473.375 " fill-opacity="1" fill-rule="nonzero"/><path fill="#58595b" d="M 297.636719 471.851562 L 308.238281 471.851562 L 308.238281 473.328125 L 299.300781 473.328125 L 299.300781 478.082031 L 307.242188 478.082031 L 307.242188 479.554688 L 299.300781 479.554688 L 299.300781 484.691406 L 308.335938 484.691406 L 308.335938 486.164062 L 297.636719 486.164062 Z M 297.636719 471.851562 " fill-opacity="1" fill-rule="nonzero"/><path fill="#58595b" d="M 322.550781 471.851562 L 324.167969 471.851562 L 324.167969 484.878906 L 332.394531 484.878906 L 332.394531 486.402344 L 322.882812 486.402344 Z M 322.550781 471.851562 " fill-opacity="1" fill-rule="nonzero"/><path fill="#58595b" d="M 362.683594 479.175781 C 362.664062 478.695312 362.691406 478.21875 362.765625 477.746094 C 362.839844 477.273438 362.960938 476.808594 363.125 476.359375 C 363.289062 475.910156 363.496094 475.480469 363.746094 475.070312 C 363.996094 474.664062 364.28125 474.28125 364.605469 473.929688 C 364.929688 473.574219 365.285156 473.257812 365.671875 472.972656 C 366.058594 472.691406 366.46875 472.449219 366.90625 472.246094 C 367.339844 472.042969 367.789062 471.882812 368.253906 471.769531 C 368.71875 471.65625 369.191406 471.589844 369.671875 471.566406 L 370.050781 471.566406 C 371.121094 471.523438 372.15625 471.699219 373.148438 472.097656 C 374.144531 472.496094 375.011719 473.078125 375.757812 473.847656 L 374.617188 475.085938 C 374.011719 474.414062 373.292969 473.898438 372.464844 473.542969 C 371.632812 473.183594 370.765625 473.015625 369.863281 473.039062 C 369.484375 473.046875 369.109375 473.089844 368.742188 473.167969 C 368.371094 473.25 368.015625 473.363281 367.667969 473.515625 C 367.320312 473.664062 366.992188 473.847656 366.679688 474.0625 C 366.371094 474.277344 366.085938 474.519531 365.820312 474.792969 C 365.558594 475.066406 365.324219 475.359375 365.121094 475.675781 C 364.914062 475.996094 364.742188 476.328125 364.605469 476.679688 C 364.464844 477.03125 364.363281 477.394531 364.296875 477.765625 C 364.226562 478.136719 364.199219 478.511719 364.203125 478.890625 C 364.1875 479.269531 364.210938 479.648438 364.269531 480.027344 C 364.328125 480.402344 364.421875 480.769531 364.554688 481.128906 C 364.683594 481.484375 364.847656 481.828125 365.046875 482.152344 C 365.246094 482.480469 365.476562 482.78125 365.734375 483.0625 C 365.992188 483.34375 366.273438 483.59375 366.582031 483.820312 C 366.890625 484.042969 367.21875 484.238281 367.5625 484.398438 C 367.910156 484.558594 368.269531 484.679688 368.640625 484.769531 C 369.011719 484.859375 369.386719 484.914062 369.765625 484.929688 C 370.675781 484.933594 371.546875 484.75 372.378906 484.375 C 373.207031 484 373.921875 483.472656 374.523438 482.789062 L 375.617188 483.882812 C 374.875 484.71875 373.996094 485.359375 372.972656 485.808594 C 371.953125 486.257812 370.882812 486.472656 369.765625 486.449219 C 369.296875 486.4375 368.832031 486.378906 368.375 486.277344 C 367.917969 486.175781 367.472656 486.03125 367.042969 485.84375 C 366.609375 485.652344 366.203125 485.425781 365.816406 485.160156 C 365.429688 484.890625 365.074219 484.589844 364.746094 484.253906 C 364.417969 483.917969 364.125 483.550781 363.867188 483.15625 C 363.609375 482.765625 363.394531 482.351562 363.21875 481.914062 C 363.039062 481.480469 362.90625 481.03125 362.816406 480.570312 C 362.726562 480.109375 362.683594 479.644531 362.683594 479.175781 Z M 362.683594 479.175781 " fill-opacity="1" fill-rule="nonzero"/><path fill="#58595b" d="M 388.785156 479.175781 C 388.773438 478.691406 388.808594 478.207031 388.890625 477.730469 C 388.972656 477.25 389.097656 476.785156 389.273438 476.332031 C 389.445312 475.878906 389.660156 475.445312 389.917969 475.035156 C 390.179688 474.625 390.472656 474.242188 390.804688 473.890625 C 391.140625 473.535156 391.503906 473.21875 391.898438 472.9375 C 392.292969 472.65625 392.714844 472.417969 393.15625 472.21875 C 393.597656 472.019531 394.054688 471.863281 394.527344 471.753906 C 395 471.644531 395.480469 471.582031 395.964844 471.566406 L 396.25 471.566406 C 396.730469 471.5625 397.207031 471.601562 397.679688 471.6875 C 398.152344 471.777344 398.613281 471.910156 399.0625 472.085938 C 399.507812 472.265625 399.933594 472.484375 400.335938 472.746094 C 400.738281 473.011719 401.113281 473.308594 401.457031 473.644531 C 401.800781 473.980469 402.109375 474.347656 402.382812 474.742188 C 402.652344 475.136719 402.886719 475.558594 403.074219 476 C 403.265625 476.441406 403.410156 476.898438 403.507812 477.367188 C 403.609375 477.835938 403.664062 478.3125 403.667969 478.792969 L 403.667969 479.03125 C 403.707031 479.519531 403.695312 480.003906 403.636719 480.492188 C 403.578125 480.976562 403.472656 481.449219 403.320312 481.914062 C 403.167969 482.378906 402.972656 482.824219 402.730469 483.25 C 402.492188 483.675781 402.214844 484.074219 401.894531 484.445312 C 401.578125 484.816406 401.226562 485.15625 400.84375 485.457031 C 400.457031 485.757812 400.050781 486.023438 399.613281 486.242188 C 399.179688 486.464844 398.726562 486.644531 398.253906 486.777344 C 397.785156 486.910156 397.304688 486.996094 396.820312 487.035156 C 396.332031 487.070312 395.84375 487.0625 395.359375 487.007812 C 394.875 486.949219 394.398438 486.847656 393.933594 486.695312 C 393.46875 486.546875 393.023438 486.351562 392.597656 486.117188 C 392.167969 485.878906 391.769531 485.601562 391.394531 485.285156 C 391.023438 484.96875 390.683594 484.621094 390.382812 484.238281 C 390.078125 483.855469 389.8125 483.445312 389.589844 483.011719 C 389.363281 482.578125 389.1875 482.125 389.050781 481.65625 C 388.914062 481.1875 388.828125 480.707031 388.785156 480.21875 C 388.734375 479.824219 388.734375 479.429688 388.785156 479.03125 Z M 401.957031 479.175781 C 402.082031 478.765625 402.160156 478.347656 402.191406 477.921875 C 402.222656 477.496094 402.207031 477.074219 402.144531 476.652344 C 402.082031 476.230469 401.972656 475.816406 401.820312 475.421875 C 401.664062 475.023438 401.46875 474.644531 401.230469 474.289062 C 400.992188 473.9375 400.71875 473.613281 400.410156 473.316406 C 400.101562 473.023438 399.761719 472.769531 399.394531 472.550781 C 399.027344 472.332031 398.640625 472.15625 398.234375 472.023438 C 397.828125 471.894531 397.414062 471.808594 396.988281 471.765625 C 396.5625 471.726562 396.136719 471.734375 395.714844 471.789062 C 395.292969 471.84375 394.878906 471.945312 394.476562 472.09375 C 394.078125 472.238281 393.695312 472.429688 393.339844 472.660156 C 392.980469 472.890625 392.648438 473.160156 392.351562 473.460938 C 392.050781 473.765625 391.789062 474.101562 391.5625 474.464844 C 391.339844 474.828125 391.15625 475.210938 391.015625 475.613281 C 390.878906 476.015625 390.785156 476.429688 390.738281 476.855469 C 390.6875 477.28125 390.6875 477.703125 390.734375 478.128906 C 390.6875 478.476562 390.6875 478.824219 390.734375 479.175781 C 390.714844 479.554688 390.734375 479.9375 390.792969 480.3125 C 390.847656 480.691406 390.941406 481.0625 391.070312 481.421875 C 391.203125 481.78125 391.367188 482.121094 391.5625 482.449219 C 391.761719 482.777344 391.992188 483.078125 392.25 483.359375 C 392.507812 483.640625 392.792969 483.894531 393.101562 484.121094 C 393.414062 484.34375 393.742188 484.535156 394.089844 484.695312 C 394.4375 484.855469 394.796875 484.976562 395.167969 485.0625 C 395.539062 485.152344 395.917969 485.199219 396.296875 485.214844 C 396.675781 485.214844 397.050781 485.175781 397.421875 485.101562 C 397.792969 485.027344 398.15625 484.917969 398.503906 484.769531 C 398.855469 484.625 399.183594 484.445312 399.5 484.230469 C 399.8125 484.019531 400.101562 483.777344 400.367188 483.507812 C 400.632812 483.238281 400.867188 482.945312 401.078125 482.628906 C 401.285156 482.3125 401.457031 481.976562 401.597656 481.625 C 401.738281 481.273438 401.84375 480.910156 401.910156 480.539062 C 401.980469 480.167969 402.011719 479.789062 402.003906 479.414062 Z M 401.957031 479.175781 " fill-opacity="1" fill-rule="nonzero"/><path fill="#58595b" d="M 418.265625 471.851562 L 419.929688 471.851562 L 419.929688 484.878906 L 428.15625 484.878906 L 428.15625 486.402344 L 418.265625 486.402344 Z M 418.265625 471.851562 " fill-opacity="1" fill-rule="nonzero"/><path fill="#58595b" d="M 442.085938 471.851562 L 443.75 471.851562 L 443.75 484.878906 L 451.976562 484.878906 L 451.976562 486.402344 L 442.085938 486.402344 Z M 442.085938 471.851562 " fill-opacity="1" fill-rule="nonzero"/><path fill="#58595b" d="M 465.957031 471.851562 L 476.320312 471.851562 L 476.320312 473.328125 L 467.574219 473.328125 L 467.574219 478.082031 L 475.5625 478.082031 L 475.5625 479.554688 L 467.574219 479.554688 L 467.574219 484.691406 L 476.320312 484.691406 L 476.320312 486.164062 L 465.863281 486.164062 Z M 465.957031 471.851562 " fill-opacity="1" fill-rule="nonzero"/><path fill="#58595b" d="M 489.824219 479.175781 C 489.804688 478.695312 489.835938 478.21875 489.910156 477.746094 C 489.984375 477.273438 490.101562 476.808594 490.265625 476.359375 C 490.433594 475.910156 490.640625 475.480469 490.890625 475.070312 C 491.140625 474.664062 491.425781 474.28125 491.75 473.929688 C 492.074219 473.574219 492.429688 473.257812 492.816406 472.972656 C 493.203125 472.691406 493.613281 472.449219 494.046875 472.246094 C 494.484375 472.042969 494.933594 471.882812 495.398438 471.769531 C 495.863281 471.65625 496.335938 471.589844 496.816406 471.566406 L 497.195312 471.566406 C 498.273438 471.527344 499.308594 471.707031 500.3125 472.105469 C 501.3125 472.5 502.191406 473.082031 502.949219 473.847656 L 501.761719 475.085938 C 501.15625 474.414062 500.4375 473.898438 499.605469 473.542969 C 498.777344 473.183594 497.910156 473.015625 497.003906 473.039062 C 496.628906 473.046875 496.253906 473.089844 495.882812 473.167969 C 495.515625 473.25 495.15625 473.363281 494.8125 473.515625 C 494.464844 473.664062 494.136719 473.847656 493.824219 474.0625 C 493.515625 474.277344 493.226562 474.519531 492.964844 474.792969 C 492.703125 475.066406 492.46875 475.359375 492.261719 475.675781 C 492.058594 475.996094 491.886719 476.328125 491.75 476.679688 C 491.609375 477.03125 491.507812 477.394531 491.4375 477.765625 C 491.371094 478.136719 491.339844 478.511719 491.347656 478.890625 C 491.328125 479.265625 491.347656 479.644531 491.402344 480.019531 C 491.457031 480.390625 491.546875 480.757812 491.675781 481.113281 C 491.800781 481.46875 491.960938 481.8125 492.15625 482.136719 C 492.351562 482.460938 492.574219 482.761719 492.828125 483.042969 C 493.082031 483.324219 493.359375 483.578125 493.664062 483.800781 C 493.96875 484.027344 494.292969 484.222656 494.632812 484.382812 C 494.976562 484.542969 495.332031 484.671875 495.699219 484.761719 C 496.066406 484.855469 496.4375 484.910156 496.816406 484.929688 C 497.726562 484.9375 498.597656 484.753906 499.425781 484.378906 C 500.257812 484.003906 500.972656 483.476562 501.570312 482.789062 L 502.664062 483.882812 C 501.925781 484.71875 501.042969 485.359375 500.023438 485.808594 C 499 486.257812 497.929688 486.472656 496.816406 486.449219 C 496.335938 486.441406 495.863281 486.390625 495.398438 486.292969 C 494.929688 486.191406 494.476562 486.046875 494.039062 485.859375 C 493.597656 485.671875 493.183594 485.441406 492.789062 485.171875 C 492.394531 484.898438 492.03125 484.59375 491.699219 484.25 C 491.367188 483.910156 491.070312 483.539062 490.808594 483.136719 C 490.546875 482.738281 490.328125 482.316406 490.152344 481.871094 C 489.976562 481.425781 489.84375 480.96875 489.757812 480.5 C 489.667969 480.03125 489.628906 479.558594 489.636719 479.078125 Z M 489.824219 479.175781 " fill-opacity="1" fill-rule="nonzero"/><path fill="#58595b" d="M 521.066406 473.375 L 516.308594 473.375 L 516.308594 471.851562 L 527.769531 471.851562 L 527.769531 473.375 L 523.015625 473.375 L 523.015625 486.402344 L 521.351562 486.402344 Z M 521.066406 473.375 " fill-opacity="1" fill-rule="nonzero"/><path fill="#58595b" d="M 541.699219 471.851562 L 543.316406 471.851562 L 543.316406 486.402344 L 541.699219 486.402344 Z M 541.699219 471.851562 " fill-opacity="1" fill-rule="nonzero"/><path fill="#58595b" d="M 558.007812 479.175781 C 558.007812 478.6875 558.058594 478.207031 558.152344 477.726562 C 558.246094 477.25 558.386719 476.785156 558.574219 476.335938 C 558.761719 475.886719 558.988281 475.457031 559.257812 475.054688 C 559.53125 474.648438 559.835938 474.273438 560.183594 473.929688 C 560.527344 473.585938 560.902344 473.277344 561.304688 473.007812 C 561.710938 472.738281 562.136719 472.507812 562.589844 472.320312 C 563.039062 472.136719 563.503906 471.996094 563.980469 471.898438 C 564.457031 471.804688 564.941406 471.757812 565.425781 471.757812 C 565.914062 471.757812 566.394531 471.804688 566.875 471.898438 C 567.351562 471.996094 567.816406 472.136719 568.265625 472.320312 C 568.714844 472.507812 569.144531 472.738281 569.546875 473.007812 C 569.953125 473.277344 570.328125 473.585938 570.671875 473.929688 C 571.015625 474.273438 571.324219 474.648438 571.59375 475.054688 C 571.863281 475.457031 572.09375 475.886719 572.28125 476.335938 C 572.464844 476.785156 572.605469 477.25 572.703125 477.726562 C 572.796875 478.207031 572.84375 478.6875 572.84375 479.175781 C 572.84375 479.660156 572.796875 480.144531 572.703125 480.621094 C 572.605469 481.097656 572.464844 481.5625 572.28125 482.011719 C 572.09375 482.464844 571.863281 482.890625 571.59375 483.296875 C 571.324219 483.699219 571.015625 484.074219 570.671875 484.417969 C 570.328125 484.765625 569.953125 485.070312 569.546875 485.34375 C 569.144531 485.613281 568.714844 485.839844 568.265625 486.027344 C 567.816406 486.214844 567.351562 486.355469 566.875 486.449219 C 566.394531 486.542969 565.914062 486.59375 565.425781 486.59375 C 564.941406 486.59375 564.457031 486.542969 563.980469 486.449219 C 563.503906 486.355469 563.039062 486.214844 562.589844 486.027344 C 562.136719 485.839844 561.710938 485.613281 561.304688 485.34375 C 560.902344 485.070312 560.527344 484.765625 560.183594 484.417969 C 559.835938 484.074219 559.53125 483.699219 559.257812 483.296875 C 558.988281 482.890625 558.761719 482.464844 558.574219 482.011719 C 558.386719 481.5625 558.246094 481.097656 558.152344 480.621094 C 558.058594 480.144531 558.007812 479.660156 558.007812 479.175781 Z M 571.132812 479.175781 C 571.167969 478.796875 571.164062 478.421875 571.125 478.046875 C 571.085938 477.671875 571.007812 477.304688 570.898438 476.941406 C 570.785156 476.582031 570.636719 476.234375 570.457031 475.902344 C 570.277344 475.570312 570.066406 475.261719 569.824219 474.96875 C 569.582031 474.679688 569.316406 474.414062 569.019531 474.179688 C 568.726562 473.941406 568.414062 473.734375 568.078125 473.558594 C 567.746094 473.382812 567.394531 473.242188 567.035156 473.132812 C 566.671875 473.027344 566.300781 472.957031 565.925781 472.921875 C 565.550781 472.886719 565.175781 472.890625 564.796875 472.929688 C 564.421875 472.96875 564.054688 473.046875 563.695312 473.15625 C 563.332031 473.269531 562.988281 473.417969 562.65625 473.597656 C 562.324219 473.777344 562.011719 473.988281 561.722656 474.230469 C 561.429688 474.472656 561.167969 474.738281 560.929688 475.035156 C 560.691406 475.328125 560.484375 475.640625 560.308594 475.976562 C 560.132812 476.308594 559.992188 476.660156 559.886719 477.019531 C 559.777344 477.382812 559.707031 477.753906 559.671875 478.128906 C 559.625 478.476562 559.625 478.824219 559.671875 479.175781 C 559.65625 479.554688 559.679688 479.933594 559.738281 480.3125 C 559.796875 480.6875 559.890625 481.054688 560.023438 481.414062 C 560.152344 481.769531 560.320312 482.113281 560.519531 482.4375 C 560.714844 482.765625 560.945312 483.066406 561.203125 483.347656 C 561.460938 483.628906 561.746094 483.878906 562.054688 484.105469 C 562.359375 484.328125 562.6875 484.523438 563.035156 484.683594 C 563.378906 484.84375 563.738281 484.964844 564.109375 485.054688 C 564.480469 485.144531 564.855469 485.199219 565.238281 485.214844 C 565.617188 485.214844 565.992188 485.175781 566.363281 485.101562 C 566.734375 485.027344 567.09375 484.917969 567.441406 484.769531 C 567.792969 484.625 568.121094 484.445312 568.4375 484.230469 C 568.75 484.019531 569.039062 483.777344 569.304688 483.507812 C 569.570312 483.238281 569.808594 482.945312 570.015625 482.628906 C 570.222656 482.3125 570.394531 481.976562 570.535156 481.625 C 570.675781 481.273438 570.78125 480.910156 570.847656 480.539062 C 570.917969 480.167969 570.949219 479.789062 570.941406 479.414062 Z M 571.132812 479.175781 " fill-opacity="1" fill-rule="nonzero"/><path fill="#58595b" d="M 587.488281 471.851562 L 589.058594 471.851562 L 598.234375 483.5 L 598.234375 471.851562 L 599.945312 471.851562 L 599.945312 486.402344 L 598.664062 486.402344 L 589.152344 474.46875 L 589.152344 486.402344 L 587.535156 486.402344 Z M 587.488281 471.851562 " fill-opacity="1" fill-rule="nonzero"/></svg>