<svg xmlns="http://www.w3.org/2000/svg" xmlns:xlink="http://www.w3.org/1999/xlink" width="1080" zoomAndPan="magnify" viewBox="0 0 810 809.999993" height="1080" preserveAspectRatio="xMidYMid meet" version="1.0"><rect x="-81" width="972" fill="#ffffff" y="-80.999999" height="971.999992" fill-opacity="1"/><rect x="-81" width="972" fill="#ffffff" y="-80.999999" height="971.999992" fill-opacity="1"/><path fill="#58595b" d="M 370.195312 347.5625 C 376.707031 348.703125 380.226562 351.222656 385.316406 359.117188 C 391.019531 367.863281 398.960938 380.132812 399.578125 380.796875 C 400.199219 381.464844 400.578125 381.84375 401.054688 381.84375 C 401.527344 381.84375 401.863281 381.84375 402.527344 380.796875 C 403.191406 379.75 410.945312 367.863281 416.792969 359.070312 C 421.878906 351.175781 425.445312 348.65625 431.914062 347.5625 C 433.8125 347.230469 435.191406 346.375 435.191406 344.566406 C 435.191406 341 428.15625 335.058594 419.644531 335.058594 C 419.269531 335.09375 418.898438 335.070312 418.527344 334.980469 C 418.160156 334.894531 417.816406 334.75 417.5 334.546875 C 417.179688 334.34375 416.902344 334.09375 416.667969 333.800781 C 416.433594 333.503906 416.253906 333.179688 416.125 332.820312 C 415.867188 332.335938 415.585938 331.863281 415.28125 331.40625 C 414.976562 330.945312 414.652344 330.503906 414.304688 330.078125 C 413.957031 329.648438 413.585938 329.242188 413.199219 328.851562 C 412.8125 328.460938 412.40625 328.089844 411.980469 327.738281 C 411.554688 327.390625 411.117188 327.058594 410.660156 326.753906 C 410.203125 326.445312 409.730469 326.160156 409.246094 325.898438 C 408.761719 325.636719 408.265625 325.402344 407.757812 325.1875 C 407.25 324.976562 406.734375 324.789062 406.207031 324.628906 C 405.679688 324.464844 405.148438 324.328125 404.609375 324.21875 C 404.070312 324.109375 403.527344 324.027344 402.976562 323.972656 C 402.429688 323.914062 401.882812 323.886719 401.332031 323.882812 C 400.78125 323.882812 400.230469 323.90625 399.683594 323.957031 C 399.136719 324.007812 398.589844 324.085938 398.050781 324.191406 C 397.511719 324.296875 396.976562 324.429688 396.449219 324.585938 C 395.921875 324.742188 395.402344 324.925781 394.894531 325.132812 C 394.382812 325.34375 393.886719 325.574219 393.398438 325.832031 C 391.90625 326.625 390.5625 327.617188 389.363281 328.808594 C 388.164062 330 387.164062 331.335938 386.359375 332.820312 C 386.234375 333.179688 386.054688 333.503906 385.820312 333.800781 C 385.585938 334.09375 385.308594 334.34375 384.988281 334.546875 C 384.667969 334.75 384.324219 334.894531 383.957031 334.980469 C 383.589844 335.070312 383.21875 335.09375 382.84375 335.058594 C 374.378906 335.058594 367.246094 341.144531 367.246094 344.566406 C 367.246094 346.375 368.625 347.230469 370.574219 347.5625 Z M 370.195312 347.5625 " fill-opacity="1" fill-rule="nonzero"/><path fill="#58595b" d="M 446.652344 351.222656 C 457.636719 351.222656 461.628906 356.929688 461.628906 359.304688 C 461.628906 360.257812 461.152344 361.066406 459.441406 361.066406 C 457.722656 361.128906 456.039062 361.417969 454.398438 361.9375 C 452.753906 362.453125 451.210938 363.183594 449.765625 364.121094 C 448.320312 365.058594 447.027344 366.171875 445.886719 367.460938 C 444.746094 368.75 443.796875 370.167969 443.039062 371.714844 L 437.617188 380.324219 L 413.035156 380.324219 L 422.546875 365.488281 C 423.140625 364.417969 423.804688 363.394531 424.535156 362.414062 C 425.265625 361.433594 426.058594 360.507812 426.910156 359.628906 C 427.765625 358.753906 428.671875 357.9375 429.632812 357.179688 C 430.59375 356.425781 431.597656 355.734375 432.652344 355.109375 C 433.703125 354.488281 434.792969 353.9375 435.917969 353.457031 C 437.039062 352.976562 438.191406 352.570312 439.371094 352.242188 C 440.546875 351.914062 441.742188 351.664062 442.953125 351.496094 C 444.164062 351.324219 445.382812 351.234375 446.605469 351.222656 Z M 448.171875 380.511719 L 472.898438 380.511719 C 473.734375 379.4375 474.769531 378.613281 476 378.035156 C 477.230469 377.457031 478.527344 377.1875 479.886719 377.230469 C 481.933594 377.230469 482.40625 376.089844 482.40625 375.09375 C 482.40625 372.097656 477.652344 367.628906 468.953125 367.628906 C 467.878906 367.644531 466.816406 367.730469 465.753906 367.890625 C 464.695312 368.050781 463.652344 368.28125 462.625 368.582031 C 461.59375 368.886719 460.589844 369.253906 459.613281 369.691406 C 458.632812 370.128906 457.691406 370.628906 456.78125 371.195312 C 455.867188 371.757812 455 372.382812 454.171875 373.066406 C 453.347656 373.746094 452.570312 374.480469 451.84375 375.269531 C 451.117188 376.054688 450.445312 376.886719 449.832031 377.765625 C 449.21875 378.644531 448.664062 379.558594 448.171875 380.511719 Z M 342.238281 361.066406 C 343.976562 361.105469 345.683594 361.378906 347.347656 361.890625 C 349.015625 362.398438 350.582031 363.121094 352.050781 364.058594 C 353.515625 365 354.828125 366.117188 355.988281 367.417969 C 357.148438 368.71875 358.113281 370.152344 358.878906 371.714844 L 364.25 380.324219 L 388.691406 380.324219 C 385.078125 374.808594 381.035156 368.339844 379.179688 365.488281 C 378.582031 364.421875 377.914062 363.398438 377.179688 362.417969 C 376.445312 361.4375 375.652344 360.507812 374.796875 359.632812 C 373.941406 358.757812 373.03125 357.941406 372.066406 357.1875 C 371.105469 356.429688 370.097656 355.742188 369.042969 355.117188 C 367.988281 354.496094 366.898438 353.941406 365.773438 353.464844 C 364.648438 352.984375 363.496094 352.578125 362.316406 352.25 C 361.136719 351.921875 359.941406 351.671875 358.730469 351.5 C 357.515625 351.328125 356.296875 351.234375 355.074219 351.222656 C 344.042969 351.222656 340.097656 356.929688 340.097656 359.304688 C 340.097656 360.257812 340.621094 361.066406 342.238281 361.066406 Z M 328.921875 380.511719 L 353.601562 380.511719 C 353.109375 379.558594 352.558594 378.644531 351.941406 377.765625 C 351.328125 376.886719 350.65625 376.054688 349.929688 375.269531 C 349.203125 374.480469 348.425781 373.746094 347.601562 373.066406 C 346.773438 372.382812 345.90625 371.757812 344.996094 371.195312 C 344.085938 370.628906 343.140625 370.128906 342.160156 369.691406 C 341.183594 369.253906 340.179688 368.886719 339.152344 368.582031 C 338.121094 368.28125 337.078125 368.050781 336.019531 367.890625 C 334.960938 367.730469 333.894531 367.644531 332.820312 367.628906 C 324.121094 367.628906 319.367188 372.097656 319.367188 375.09375 C 319.367188 376.089844 319.792969 377.230469 321.839844 377.230469 C 323.210938 377.1875 324.523438 377.457031 325.769531 378.03125 C 327.015625 378.609375 328.066406 379.4375 328.921875 380.511719 Z M 328.921875 380.511719 " fill-opacity="1" fill-rule="nonzero"/><path fill="#58595b" d="M 221.941406 394.0625 L 231.070312 394.0625 L 245.808594 417.078125 L 260.644531 394.0625 L 269.773438 394.0625 L 269.773438 442.707031 L 261.214844 442.707031 L 261.214844 407.851562 L 245.808594 430.769531 L 245.617188 430.769531 L 230.355469 407.949219 L 230.355469 442.707031 L 221.941406 442.707031 Z M 221.941406 394.0625 " fill-opacity="1" fill-rule="nonzero"/><path fill="#58595b" d="M 221.941406 394.0625 L 231.070312 394.0625 L 245.808594 417.078125 L 260.644531 394.0625 L 269.773438 394.0625 L 269.773438 442.707031 L 261.214844 442.707031 L 261.214844 407.851562 L 245.808594 430.769531 L 245.617188 430.769531 L 230.355469 407.949219 L 230.355469 442.707031 L 221.941406 442.707031 Z M 221.941406 394.0625 " fill-opacity="1" fill-rule="nonzero"/><path fill="#58595b" d="M 282.800781 394.0625 L 291.3125 394.0625 L 291.3125 442.707031 L 282.800781 442.707031 Z M 282.800781 394.0625 " fill-opacity="1" fill-rule="nonzero"/><path fill="#58595b" d="M 282.800781 394.0625 L 291.3125 394.0625 L 291.3125 442.707031 L 282.800781 442.707031 Z M 282.800781 394.0625 " fill-opacity="1" fill-rule="nonzero"/><path fill="#58595b" d="M 302.152344 418.550781 C 302.136719 417.742188 302.160156 416.933594 302.222656 416.128906 C 302.28125 415.324219 302.382812 414.523438 302.523438 413.726562 C 302.664062 412.929688 302.84375 412.144531 303.0625 411.363281 C 303.28125 410.585938 303.539062 409.820312 303.832031 409.066406 C 304.125 408.3125 304.453125 407.578125 304.820312 406.855469 C 305.183594 406.132812 305.585938 405.433594 306.019531 404.75 C 306.453125 404.070312 306.921875 403.410156 307.421875 402.777344 C 307.921875 402.140625 308.449219 401.53125 309.011719 400.945312 C 309.570312 400.363281 310.15625 399.808594 310.769531 399.28125 C 311.382812 398.757812 312.023438 398.261719 312.683594 397.796875 C 313.347656 397.335938 314.03125 396.90625 314.734375 396.507812 C 315.441406 396.113281 316.164062 395.753906 316.902344 395.425781 C 317.644531 395.101562 318.398438 394.816406 319.167969 394.5625 C 319.933594 394.3125 320.714844 394.101562 321.503906 393.925781 C 322.292969 393.75 323.089844 393.617188 323.890625 393.519531 C 324.695312 393.425781 325.5 393.367188 326.308594 393.351562 L 327.257812 393.351562 C 329.023438 393.289062 330.773438 393.40625 332.507812 393.710938 C 334.246094 394.011719 335.933594 394.492188 337.570312 395.148438 C 339.207031 395.800781 340.761719 396.617188 342.226562 397.597656 C 343.695312 398.578125 345.046875 399.699219 346.277344 400.957031 L 340.808594 407.28125 C 339.9375 406.347656 338.980469 405.507812 337.941406 404.769531 C 336.898438 404.027344 335.792969 403.398438 334.625 402.878906 C 333.457031 402.359375 332.25 401.960938 331 401.6875 C 329.753906 401.410156 328.488281 401.265625 327.210938 401.242188 C 326.675781 401.25 326.144531 401.285156 325.609375 401.34375 C 325.078125 401.40625 324.550781 401.492188 324.027344 401.605469 C 323.503906 401.714844 322.988281 401.855469 322.480469 402.015625 C 321.96875 402.179688 321.46875 402.367188 320.976562 402.578125 C 320.484375 402.792969 320.007812 403.027344 319.539062 403.289062 C 319.070312 403.546875 318.617188 403.828125 318.175781 404.132812 C 317.734375 404.4375 317.3125 404.761719 316.902344 405.109375 C 316.492188 405.453125 316.105469 405.820312 315.730469 406.203125 C 315.359375 406.589844 315.007812 406.992188 314.671875 407.410156 C 314.339844 407.828125 314.03125 408.265625 313.738281 408.714844 C 313.449219 409.164062 313.183594 409.625 312.9375 410.101562 C 312.691406 410.578125 312.472656 411.066406 312.277344 411.5625 C 312.078125 412.0625 311.910156 412.566406 311.761719 413.082031 C 311.613281 413.597656 311.492188 414.117188 311.398438 414.644531 C 311.304688 415.171875 311.234375 415.703125 311.191406 416.234375 C 311.148438 416.769531 311.128906 417.300781 311.140625 417.835938 L 311.140625 418.410156 C 311.113281 418.945312 311.113281 419.484375 311.136719 420.019531 C 311.164062 420.558594 311.214844 421.089844 311.292969 421.625 C 311.371094 422.15625 311.472656 422.683594 311.605469 423.203125 C 311.734375 423.726562 311.886719 424.242188 312.066406 424.746094 C 312.25 425.253906 312.453125 425.75 312.679688 426.238281 C 312.910156 426.722656 313.164062 427.199219 313.4375 427.660156 C 313.710938 428.121094 314.011719 428.570312 314.328125 429.003906 C 314.648438 429.4375 314.988281 429.851562 315.347656 430.25 C 315.707031 430.652344 316.085938 431.03125 316.484375 431.394531 C 316.878906 431.757812 317.292969 432.097656 317.726562 432.421875 C 318.15625 432.742188 318.601562 433.042969 319.0625 433.320312 C 319.523438 433.597656 319.996094 433.855469 320.480469 434.085938 C 320.964844 434.316406 321.460938 434.523438 321.964844 434.707031 C 322.472656 434.890625 322.984375 435.050781 323.507812 435.183594 C 324.027344 435.316406 324.554688 435.421875 325.085938 435.503906 C 325.617188 435.585938 326.152344 435.640625 326.6875 435.667969 L 327.210938 435.667969 C 328.527344 435.652344 329.828125 435.5 331.113281 435.214844 C 332.398438 434.929688 333.640625 434.511719 334.839844 433.96875 C 336.039062 433.425781 337.171875 432.761719 338.230469 431.984375 C 339.292969 431.203125 340.265625 430.324219 341.144531 429.34375 L 346.660156 434.90625 C 345.4375 436.316406 344.078125 437.574219 342.578125 438.679688 C 341.082031 439.789062 339.476562 440.714844 337.769531 441.464844 C 336.0625 442.210938 334.292969 442.761719 332.464844 443.117188 C 330.636719 443.472656 328.789062 443.621094 326.925781 443.5625 C 326.121094 443.570312 325.316406 443.542969 324.515625 443.476562 C 323.714844 443.40625 322.917969 443.300781 322.125 443.152344 C 321.332031 443.003906 320.550781 442.820312 319.777344 442.597656 C 319.003906 442.371094 318.246094 442.109375 317.496094 441.8125 C 316.75 441.511719 316.019531 441.175781 315.304688 440.804688 C 314.589844 440.433594 313.894531 440.03125 313.222656 439.589844 C 312.546875 439.152344 311.894531 438.679688 311.269531 438.175781 C 310.640625 437.671875 310.039062 437.136719 309.464844 436.574219 C 308.886719 436.011719 308.339844 435.421875 307.824219 434.804688 C 307.308594 434.1875 306.820312 433.546875 306.367188 432.882812 C 305.914062 432.214844 305.492188 431.53125 305.109375 430.824219 C 304.722656 430.117188 304.371094 429.394531 304.054688 428.652344 C 303.742188 427.914062 303.464844 427.160156 303.222656 426.390625 C 302.984375 425.621094 302.78125 424.84375 302.617188 424.054688 C 302.453125 423.265625 302.328125 422.472656 302.242188 421.671875 C 302.15625 420.871094 302.113281 420.070312 302.105469 419.265625 L 302.105469 418.410156 Z M 302.152344 418.550781 " fill-opacity="1" fill-rule="nonzero"/><path fill="#58595b" d="M 302.152344 418.550781 C 302.136719 417.742188 302.160156 416.933594 302.222656 416.128906 C 302.28125 415.324219 302.382812 414.523438 302.523438 413.726562 C 302.664062 412.929688 302.84375 412.144531 303.0625 411.363281 C 303.28125 410.585938 303.539062 409.820312 303.832031 409.066406 C 304.125 408.3125 304.453125 407.578125 304.820312 406.855469 C 305.183594 406.132812 305.585938 405.433594 306.019531 404.75 C 306.453125 404.070312 306.921875 403.410156 307.421875 402.777344 C 307.921875 402.140625 308.449219 401.53125 309.011719 400.945312 C 309.570312 400.363281 310.15625 399.808594 310.769531 399.28125 C 311.382812 398.757812 312.023438 398.261719 312.683594 397.796875 C 313.347656 397.335938 314.03125 396.90625 314.734375 396.507812 C 315.441406 396.113281 316.164062 395.753906 316.902344 395.425781 C 317.644531 395.101562 318.398438 394.816406 319.167969 394.5625 C 319.933594 394.3125 320.714844 394.101562 321.503906 393.925781 C 322.292969 393.75 323.089844 393.617188 323.890625 393.519531 C 324.695312 393.425781 325.5 393.367188 326.308594 393.351562 L 327.257812 393.351562 C 329.023438 393.289062 330.773438 393.40625 332.507812 393.710938 C 334.246094 394.011719 335.933594 394.492188 337.570312 395.148438 C 339.207031 395.800781 340.761719 396.617188 342.226562 397.597656 C 343.695312 398.578125 345.046875 399.699219 346.277344 400.957031 L 340.808594 407.28125 C 339.9375 406.347656 338.980469 405.507812 337.941406 404.769531 C 336.898438 404.027344 335.792969 403.398438 334.625 402.878906 C 333.457031 402.359375 332.25 401.960938 331 401.6875 C 329.753906 401.410156 328.488281 401.265625 327.210938 401.242188 C 326.675781 401.25 326.144531 401.285156 325.609375 401.34375 C 325.078125 401.40625 324.550781 401.492188 324.027344 401.605469 C 323.503906 401.714844 322.988281 401.855469 322.480469 402.015625 C 321.96875 402.179688 321.46875 402.367188 320.976562 402.578125 C 320.484375 402.792969 320.007812 403.027344 319.539062 403.289062 C 319.070312 403.546875 318.617188 403.828125 318.175781 404.132812 C 317.734375 404.4375 317.3125 404.761719 316.902344 405.109375 C 316.492188 405.453125 316.105469 405.820312 315.730469 406.203125 C 315.359375 406.589844 315.007812 406.992188 314.671875 407.410156 C 314.339844 407.828125 314.03125 408.265625 313.738281 408.714844 C 313.449219 409.164062 313.183594 409.625 312.9375 410.101562 C 312.691406 410.578125 312.472656 411.066406 312.277344 411.5625 C 312.078125 412.0625 311.910156 412.566406 311.761719 413.082031 C 311.613281 413.597656 311.492188 414.117188 311.398438 414.644531 C 311.304688 415.171875 311.234375 415.703125 311.191406 416.234375 C 311.148438 416.769531 311.128906 417.300781 311.140625 417.835938 L 311.140625 418.410156 C 311.113281 418.945312 311.113281 419.484375 311.136719 420.019531 C 311.164062 420.558594 311.214844 421.089844 311.292969 421.625 C 311.371094 422.15625 311.472656 422.683594 311.605469 423.203125 C 311.734375 423.726562 311.886719 424.242188 312.066406 424.746094 C 312.25 425.253906 312.453125 425.75 312.679688 426.238281 C 312.910156 426.722656 313.164062 427.199219 313.4375 427.660156 C 313.710938 428.121094 314.011719 428.570312 314.328125 429.003906 C 314.648438 429.4375 314.988281 429.851562 315.347656 430.25 C 315.707031 430.652344 316.085938 431.03125 316.484375 431.394531 C 316.878906 431.757812 317.292969 432.097656 317.726562 432.421875 C 318.15625 432.742188 318.601562 433.042969 319.0625 433.320312 C 319.523438 433.597656 319.996094 433.855469 320.480469 434.085938 C 320.964844 434.316406 321.460938 434.523438 321.964844 434.707031 C 322.472656 434.890625 322.984375 435.050781 323.507812 435.183594 C 324.027344 435.316406 324.554688 435.421875 325.085938 435.503906 C 325.617188 435.585938 326.152344 435.640625 326.6875 435.667969 L 327.210938 435.667969 C 328.527344 435.652344 329.828125 435.5 331.113281 435.214844 C 332.398438 434.929688 333.640625 434.511719 334.839844 433.96875 C 336.039062 433.425781 337.171875 432.761719 338.230469 431.984375 C 339.292969 431.203125 340.265625 430.324219 341.144531 429.34375 L 346.660156 434.90625 C 345.4375 436.316406 344.078125 437.574219 342.578125 438.679688 C 341.082031 439.789062 339.476562 440.714844 337.769531 441.464844 C 336.0625 442.210938 334.292969 442.761719 332.464844 443.117188 C 330.636719 443.472656 328.789062 443.621094 326.925781 443.5625 C 326.121094 443.570312 325.316406 443.542969 324.515625 443.476562 C 323.714844 443.40625 322.917969 443.300781 322.125 443.152344 C 321.332031 443.003906 320.550781 442.820312 319.777344 442.597656 C 319.003906 442.371094 318.246094 442.109375 317.496094 441.8125 C 316.75 441.511719 316.019531 441.175781 315.304688 440.804688 C 314.589844 440.433594 313.894531 440.03125 313.222656 439.589844 C 312.546875 439.152344 311.894531 438.679688 311.269531 438.175781 C 310.640625 437.671875 310.039062 437.136719 309.464844 436.574219 C 308.886719 436.011719 308.339844 435.421875 307.824219 434.804688 C 307.308594 434.1875 306.820312 433.546875 306.367188 432.882812 C 305.914062 432.214844 305.492188 431.53125 305.109375 430.824219 C 304.722656 430.117188 304.371094 429.394531 304.054688 428.652344 C 303.742188 427.914062 303.464844 427.160156 303.222656 426.390625 C 302.984375 425.621094 302.78125 424.84375 302.617188 424.054688 C 302.453125 423.265625 302.328125 422.472656 302.242188 421.671875 C 302.15625 420.871094 302.113281 420.070312 302.105469 419.265625 L 302.105469 418.410156 Z M 302.152344 418.550781 " fill-opacity="1" fill-rule="nonzero"/><path fill="#58595b" d="M 355.597656 394.0625 L 377.328125 394.0625 C 378.613281 393.964844 379.898438 393.996094 381.179688 394.152344 C 382.460938 394.3125 383.714844 394.59375 384.9375 395.003906 C 386.164062 395.410156 387.335938 395.9375 388.457031 396.578125 C 389.574219 397.222656 390.621094 397.96875 391.589844 398.820312 C 392.960938 400.300781 393.980469 401.988281 394.660156 403.886719 C 395.335938 405.785156 395.613281 407.742188 395.492188 409.753906 C 395.515625 410.605469 395.46875 411.449219 395.347656 412.289062 C 395.222656 413.128906 395.03125 413.953125 394.761719 414.761719 C 394.496094 415.566406 394.164062 416.34375 393.761719 417.09375 C 393.355469 417.839844 392.894531 418.546875 392.367188 419.214844 C 391.839844 419.882812 391.257812 420.496094 390.625 421.0625 C 389.992188 421.628906 389.3125 422.132812 388.589844 422.578125 C 387.867188 423.023438 387.109375 423.40625 386.320312 423.71875 C 385.53125 424.03125 384.71875 424.273438 383.886719 424.445312 L 396.871094 443.039062 L 386.789062 443.039062 L 374.855469 425.921875 L 364.15625 425.921875 L 364.15625 443.039062 L 355.597656 443.039062 Z M 376.472656 418.21875 C 382.511719 418.21875 386.410156 414.984375 386.410156 410.085938 C 386.410156 404.855469 382.652344 402.003906 376.375 402.003906 L 364.15625 402.003906 L 364.15625 418.21875 Z M 376.472656 418.21875 " fill-opacity="1" fill-rule="nonzero"/><path fill="#58595b" d="M 355.597656 394.0625 L 377.328125 394.0625 C 378.613281 393.964844 379.898438 393.996094 381.179688 394.152344 C 382.460938 394.3125 383.714844 394.59375 384.9375 395.003906 C 386.164062 395.410156 387.335938 395.9375 388.457031 396.578125 C 389.574219 397.222656 390.621094 397.96875 391.589844 398.820312 C 392.960938 400.300781 393.980469 401.988281 394.660156 403.886719 C 395.335938 405.785156 395.613281 407.742188 395.492188 409.753906 C 395.515625 410.605469 395.46875 411.449219 395.347656 412.289062 C 395.222656 413.128906 395.03125 413.953125 394.761719 414.761719 C 394.496094 415.566406 394.164062 416.34375 393.761719 417.09375 C 393.355469 417.839844 392.894531 418.546875 392.367188 419.214844 C 391.839844 419.882812 391.257812 420.496094 390.625 421.0625 C 389.992188 421.628906 389.3125 422.132812 388.589844 422.578125 C 387.867188 423.023438 387.109375 423.40625 386.320312 423.71875 C 385.53125 424.03125 384.71875 424.273438 383.886719 424.445312 L 396.871094 443.039062 L 386.789062 443.039062 L 374.855469 425.921875 L 364.15625 425.921875 L 364.15625 443.039062 L 355.597656 443.039062 Z M 376.472656 418.21875 C 382.511719 418.21875 386.410156 414.984375 386.410156 410.085938 C 386.410156 404.855469 382.652344 402.003906 376.375 402.003906 L 364.15625 402.003906 L 364.15625 418.21875 Z M 376.472656 418.21875 " fill-opacity="1" fill-rule="nonzero"/><path fill="#58595b" d="M 403.714844 418.550781 C 403.71875 417.71875 403.757812 416.886719 403.839844 416.058594 C 403.921875 415.230469 404.046875 414.410156 404.210938 413.589844 C 404.371094 412.773438 404.574219 411.96875 404.816406 411.171875 C 405.058594 410.375 405.339844 409.59375 405.660156 408.824219 C 405.980469 408.054688 406.335938 407.304688 406.726562 406.570312 C 407.121094 405.835938 407.550781 405.121094 408.011719 404.429688 C 408.476562 403.738281 408.972656 403.070312 409.5 402.425781 C 410.027344 401.785156 410.585938 401.167969 411.175781 400.578125 C 411.765625 399.992188 412.382812 399.433594 413.023438 398.90625 C 413.667969 398.378906 414.335938 397.882812 415.03125 397.417969 C 415.722656 396.957031 416.433594 396.53125 417.167969 396.136719 C 417.902344 395.746094 418.65625 395.390625 419.425781 395.070312 C 420.195312 394.753906 420.976562 394.472656 421.773438 394.230469 C 422.570312 393.988281 423.378906 393.789062 424.195312 393.625 C 425.011719 393.464844 425.832031 393.339844 426.664062 393.261719 C 427.492188 393.179688 428.320312 393.136719 429.15625 393.136719 C 429.988281 393.136719 430.816406 393.179688 431.644531 393.261719 C 432.476562 393.339844 433.296875 393.464844 434.113281 393.625 C 434.929688 393.789062 435.738281 393.988281 436.535156 394.230469 C 437.332031 394.472656 438.113281 394.753906 438.882812 395.070312 C 439.652344 395.390625 440.40625 395.746094 441.140625 396.136719 C 441.875 396.53125 442.585938 396.957031 443.277344 397.417969 C 443.972656 397.882812 444.640625 398.378906 445.285156 398.90625 C 445.925781 399.433594 446.542969 399.992188 447.132812 400.578125 C 447.722656 401.167969 448.28125 401.785156 448.808594 402.425781 C 449.339844 403.070312 449.832031 403.738281 450.296875 404.429688 C 450.761719 405.121094 451.1875 405.835938 451.582031 406.570312 C 451.972656 407.304688 452.328125 408.054688 452.648438 408.824219 C 452.96875 409.59375 453.25 410.375 453.492188 411.171875 C 453.734375 411.96875 453.9375 412.773438 454.097656 413.589844 C 454.261719 414.410156 454.386719 415.230469 454.46875 416.058594 C 454.550781 416.886719 454.589844 417.71875 454.59375 418.550781 C 454.542969 419.351562 454.457031 420.148438 454.332031 420.941406 C 454.207031 421.734375 454.046875 422.519531 453.847656 423.296875 C 453.652344 424.074219 453.417969 424.839844 453.144531 425.59375 C 452.875 426.347656 452.570312 427.089844 452.230469 427.816406 C 451.886719 428.542969 451.515625 429.25 451.105469 429.941406 C 450.699219 430.632812 450.261719 431.304688 449.789062 431.953125 C 449.316406 432.601562 448.816406 433.226562 448.289062 433.832031 C 447.757812 434.433594 447.199219 435.007812 446.617188 435.558594 C 446.03125 436.109375 445.421875 436.628906 444.789062 437.121094 C 444.15625 437.613281 443.5 438.074219 442.824219 438.503906 C 442.148438 438.933594 441.453125 439.332031 440.738281 439.695312 C 440.023438 440.0625 439.292969 440.390625 438.546875 440.6875 C 437.800781 440.980469 437.042969 441.242188 436.273438 441.464844 C 435.503906 441.691406 434.722656 441.878906 433.933594 442.027344 C 433.148438 442.179688 432.355469 442.292969 431.554688 442.367188 C 430.757812 442.441406 429.957031 442.480469 429.15625 442.480469 C 428.351562 442.480469 427.550781 442.441406 426.753906 442.367188 C 425.953125 442.292969 425.160156 442.179688 424.375 442.027344 C 423.585938 441.878906 422.804688 441.691406 422.035156 441.464844 C 421.265625 441.242188 420.507812 440.980469 419.761719 440.6875 C 419.015625 440.390625 418.285156 440.0625 417.570312 439.695312 C 416.855469 439.332031 416.160156 438.933594 415.484375 438.503906 C 414.808594 438.074219 414.152344 437.613281 413.519531 437.121094 C 412.886719 436.628906 412.277344 436.109375 411.691406 435.558594 C 411.109375 435.007812 410.550781 434.433594 410.019531 433.832031 C 409.492188 433.226562 408.992188 432.601562 408.519531 431.953125 C 408.050781 431.304688 407.609375 430.632812 407.203125 429.941406 C 406.792969 429.25 406.421875 428.542969 406.078125 427.816406 C 405.738281 427.089844 405.433594 426.347656 405.164062 425.59375 C 404.890625 424.839844 404.65625 424.074219 404.460938 423.296875 C 404.261719 422.519531 404.101562 421.734375 403.976562 420.941406 C 403.851562 420.148438 403.765625 419.351562 403.714844 418.550781 Z M 445.605469 418.550781 C 445.625 418.003906 445.621094 417.460938 445.585938 416.914062 C 445.554688 416.371094 445.496094 415.828125 445.410156 415.289062 C 445.324219 414.75 445.210938 414.214844 445.070312 413.6875 C 444.933594 413.160156 444.769531 412.636719 444.578125 412.125 C 444.390625 411.613281 444.175781 411.113281 443.9375 410.621094 C 443.699219 410.128906 443.4375 409.652344 443.148438 409.1875 C 442.863281 408.722656 442.558594 408.269531 442.226562 407.835938 C 441.898438 407.402344 441.546875 406.984375 441.175781 406.582031 C 440.804688 406.179688 440.414062 405.800781 440.007812 405.4375 C 439.597656 405.074219 439.171875 404.734375 438.730469 404.414062 C 438.289062 404.089844 437.832031 403.792969 437.359375 403.515625 C 436.890625 403.242188 436.40625 402.988281 435.910156 402.761719 C 435.414062 402.53125 434.90625 402.328125 434.390625 402.148438 C 433.875 401.972656 433.351562 401.816406 432.820312 401.691406 C 432.289062 401.5625 431.753906 401.460938 431.210938 401.386719 C 430.671875 401.3125 430.128906 401.265625 429.582031 401.242188 L 429.058594 401.242188 C 428.523438 401.242188 427.984375 401.269531 427.449219 401.324219 C 426.914062 401.375 426.382812 401.453125 425.855469 401.558594 C 425.328125 401.664062 424.808594 401.796875 424.292969 401.953125 C 423.78125 402.109375 423.273438 402.292969 422.777344 402.496094 C 422.28125 402.703125 421.796875 402.933594 421.324219 403.1875 C 420.847656 403.441406 420.390625 403.71875 419.941406 404.019531 C 419.496094 404.320312 419.066406 404.640625 418.652344 404.984375 C 418.234375 405.324219 417.839844 405.6875 417.460938 406.066406 C 417.082031 406.449219 416.722656 406.847656 416.382812 407.265625 C 416.042969 407.679688 415.722656 408.113281 415.425781 408.5625 C 415.128906 409.011719 414.855469 409.472656 414.601562 409.945312 C 414.351562 410.421875 414.125 410.910156 413.921875 411.40625 C 413.71875 411.902344 413.539062 412.410156 413.382812 412.925781 C 413.230469 413.441406 413.101562 413.960938 413 414.492188 C 412.898438 415.019531 412.824219 415.550781 412.773438 416.085938 C 412.722656 416.621094 412.699219 417.15625 412.703125 417.695312 L 412.703125 418.410156 C 412.683594 418.953125 412.691406 419.5 412.726562 420.042969 C 412.761719 420.589844 412.820312 421.132812 412.910156 421.671875 C 412.996094 422.210938 413.109375 422.742188 413.25 423.269531 C 413.390625 423.796875 413.554688 424.316406 413.746094 424.828125 C 413.9375 425.339844 414.152344 425.839844 414.394531 426.332031 C 414.632812 426.824219 414.898438 427.300781 415.183594 427.765625 C 415.472656 428.230469 415.78125 428.679688 416.113281 429.113281 C 416.445312 429.546875 416.796875 429.964844 417.167969 430.363281 C 417.539062 430.761719 417.929688 431.144531 418.339844 431.503906 C 418.75 431.867188 419.175781 432.207031 419.617188 432.527344 C 420.0625 432.84375 420.519531 433.140625 420.992188 433.417969 C 421.460938 433.691406 421.945312 433.941406 422.445312 434.167969 C 422.941406 434.394531 423.445312 434.597656 423.964844 434.773438 C 424.480469 434.953125 425.003906 435.105469 425.535156 435.230469 C 426.066406 435.355469 426.601562 435.457031 427.144531 435.527344 C 427.683594 435.601562 428.226562 435.648438 428.773438 435.667969 L 429.25 435.667969 C 429.785156 435.667969 430.320312 435.640625 430.855469 435.585938 C 431.386719 435.53125 431.917969 435.449219 432.441406 435.34375 C 432.96875 435.238281 433.488281 435.109375 434 434.949219 C 434.511719 434.792969 435.015625 434.613281 435.511719 434.40625 C 436.007812 434.199219 436.492188 433.96875 436.964844 433.714844 C 437.4375 433.460938 437.894531 433.1875 438.339844 432.886719 C 438.785156 432.589844 439.214844 432.269531 439.628906 431.929688 C 440.042969 431.585938 440.4375 431.226562 440.816406 430.847656 C 441.195312 430.46875 441.554688 430.070312 441.894531 429.65625 C 442.234375 429.238281 442.554688 428.808594 442.851562 428.363281 C 443.148438 427.917969 443.421875 427.457031 443.675781 426.984375 C 443.929688 426.511719 444.15625 426.027344 444.363281 425.53125 C 444.566406 425.035156 444.746094 424.53125 444.902344 424.015625 C 445.058594 423.503906 445.1875 422.984375 445.292969 422.457031 C 445.394531 421.933594 445.476562 421.402344 445.527344 420.867188 C 445.578125 420.335938 445.605469 419.800781 445.605469 419.265625 Z M 445.605469 418.550781 " fill-opacity="1" fill-rule="nonzero"/><path fill="#58595b" d="M 403.714844 418.550781 C 403.71875 417.71875 403.757812 416.886719 403.839844 416.058594 C 403.921875 415.230469 404.046875 414.410156 404.210938 413.589844 C 404.371094 412.773438 404.574219 411.96875 404.816406 411.171875 C 405.058594 410.375 405.339844 409.59375 405.660156 408.824219 C 405.980469 408.054688 406.335938 407.304688 406.726562 406.570312 C 407.121094 405.835938 407.550781 405.121094 408.011719 404.429688 C 408.476562 403.738281 408.972656 403.070312 409.5 402.425781 C 410.027344 401.785156 410.585938 401.167969 411.175781 400.578125 C 411.765625 399.992188 412.382812 399.433594 413.023438 398.90625 C 413.667969 398.378906 414.335938 397.882812 415.03125 397.417969 C 415.722656 396.957031 416.433594 396.53125 417.167969 396.136719 C 417.902344 395.746094 418.65625 395.390625 419.425781 395.070312 C 420.195312 394.753906 420.976562 394.472656 421.773438 394.230469 C 422.570312 393.988281 423.378906 393.789062 424.195312 393.625 C 425.011719 393.464844 425.832031 393.339844 426.664062 393.261719 C 427.492188 393.179688 428.320312 393.136719 429.15625 393.136719 C 429.988281 393.136719 430.816406 393.179688 431.644531 393.261719 C 432.476562 393.339844 433.296875 393.464844 434.113281 393.625 C 434.929688 393.789062 435.738281 393.988281 436.535156 394.230469 C 437.332031 394.472656 438.113281 394.753906 438.882812 395.070312 C 439.652344 395.390625 440.40625 395.746094 441.140625 396.136719 C 441.875 396.53125 442.585938 396.957031 443.277344 397.417969 C 443.972656 397.882812 444.640625 398.378906 445.285156 398.90625 C 445.925781 399.433594 446.542969 399.992188 447.132812 400.578125 C 447.722656 401.167969 448.28125 401.785156 448.808594 402.425781 C 449.339844 403.070312 449.832031 403.738281 450.296875 404.429688 C 450.761719 405.121094 451.1875 405.835938 451.582031 406.570312 C 451.972656 407.304688 452.328125 408.054688 452.648438 408.824219 C 452.96875 409.59375 453.25 410.375 453.492188 411.171875 C 453.734375 411.96875 453.9375 412.773438 454.097656 413.589844 C 454.261719 414.410156 454.386719 415.230469 454.46875 416.058594 C 454.550781 416.886719 454.589844 417.71875 454.59375 418.550781 C 454.542969 419.351562 454.457031 420.148438 454.332031 420.941406 C 454.207031 421.734375 454.046875 422.519531 453.847656 423.296875 C 453.652344 424.074219 453.417969 424.839844 453.144531 425.59375 C 452.875 426.347656 452.570312 427.089844 452.230469 427.816406 C 451.886719 428.542969 451.515625 429.25 451.105469 429.941406 C 450.699219 430.632812 450.261719 431.304688 449.789062 431.953125 C 449.316406 432.601562 448.816406 433.226562 448.289062 433.832031 C 447.757812 434.433594 447.199219 435.007812 446.617188 435.558594 C 446.03125 436.109375 445.421875 436.628906 444.789062 437.121094 C 444.15625 437.613281 443.5 438.074219 442.824219 438.503906 C 442.148438 438.933594 441.453125 439.332031 440.738281 439.695312 C 440.023438 440.0625 439.292969 440.390625 438.546875 440.6875 C 437.800781 440.980469 437.042969 441.242188 436.273438 441.464844 C 435.503906 441.691406 434.722656 441.878906 433.933594 442.027344 C 433.148438 442.179688 432.355469 442.292969 431.554688 442.367188 C 430.757812 442.441406 429.957031 442.480469 429.15625 442.480469 C 428.351562 442.480469 427.550781 442.441406 426.753906 442.367188 C 425.953125 442.292969 425.160156 442.179688 424.375 442.027344 C 423.585938 441.878906 422.804688 441.691406 422.035156 441.464844 C 421.265625 441.242188 420.507812 440.980469 419.761719 440.6875 C 419.015625 440.390625 418.285156 440.0625 417.570312 439.695312 C 416.855469 439.332031 416.160156 438.933594 415.484375 438.503906 C 414.808594 438.074219 414.152344 437.613281 413.519531 437.121094 C 412.886719 436.628906 412.277344 436.109375 411.691406 435.558594 C 411.109375 435.007812 410.550781 434.433594 410.019531 433.832031 C 409.492188 433.226562 408.992188 432.601562 408.519531 431.953125 C 408.050781 431.304688 407.609375 430.632812 407.203125 429.941406 C 406.792969 429.25 406.421875 428.542969 406.078125 427.816406 C 405.738281 427.089844 405.433594 426.347656 405.164062 425.59375 C 404.890625 424.839844 404.65625 424.074219 404.460938 423.296875 C 404.261719 422.519531 404.101562 421.734375 403.976562 420.941406 C 403.851562 420.148438 403.765625 419.351562 403.714844 418.550781 Z M 445.605469 418.550781 C 445.625 418.003906 445.621094 417.460938 445.585938 416.914062 C 445.554688 416.371094 445.496094 415.828125 445.410156 415.289062 C 445.324219 414.75 445.210938 414.214844 445.070312 413.6875 C 444.933594 413.160156 444.769531 412.636719 444.578125 412.125 C 444.390625 411.613281 444.175781 411.113281 443.9375 410.621094 C 443.699219 410.128906 443.4375 409.652344 443.148438 409.1875 C 442.863281 408.722656 442.558594 408.269531 442.226562 407.835938 C 441.898438 407.402344 441.546875 406.984375 441.175781 406.582031 C 440.804688 406.179688 440.414062 405.800781 440.007812 405.4375 C 439.597656 405.074219 439.171875 404.734375 438.730469 404.414062 C 438.289062 404.089844 437.832031 403.792969 437.359375 403.515625 C 436.890625 403.242188 436.40625 402.988281 435.910156 402.761719 C 435.414062 402.53125 434.90625 402.328125 434.390625 402.148438 C 433.875 401.972656 433.351562 401.816406 432.820312 401.691406 C 432.289062 401.5625 431.753906 401.460938 431.210938 401.386719 C 430.671875 401.3125 430.128906 401.265625 429.582031 401.242188 L 429.058594 401.242188 C 428.523438 401.242188 427.984375 401.269531 427.449219 401.324219 C 426.914062 401.375 426.382812 401.453125 425.855469 401.558594 C 425.328125 401.664062 424.808594 401.796875 424.292969 401.953125 C 423.78125 402.109375 423.273438 402.292969 422.777344 402.496094 C 422.28125 402.703125 421.796875 402.933594 421.324219 403.1875 C 420.847656 403.441406 420.390625 403.71875 419.941406 404.019531 C 419.496094 404.320312 419.066406 404.640625 418.652344 404.984375 C 418.234375 405.324219 417.839844 405.6875 417.460938 406.066406 C 417.082031 406.449219 416.722656 406.847656 416.382812 407.265625 C 416.042969 407.679688 415.722656 408.113281 415.425781 408.5625 C 415.128906 409.011719 414.855469 409.472656 414.601562 409.945312 C 414.351562 410.421875 414.125 410.910156 413.921875 411.40625 C 413.71875 411.902344 413.539062 412.410156 413.382812 412.925781 C 413.230469 413.441406 413.101562 413.960938 413 414.492188 C 412.898438 415.019531 412.824219 415.550781 412.773438 416.085938 C 412.722656 416.621094 412.699219 417.15625 412.703125 417.695312 L 412.703125 418.410156 C 412.683594 418.953125 412.691406 419.5 412.726562 420.042969 C 412.761719 420.589844 412.820312 421.132812 412.910156 421.671875 C 412.996094 422.210938 413.109375 422.742188 413.25 423.269531 C 413.390625 423.796875 413.554688 424.316406 413.746094 424.828125 C 413.9375 425.339844 414.152344 425.839844 414.394531 426.332031 C 414.632812 426.824219 414.898438 427.300781 415.183594 427.765625 C 415.472656 428.230469 415.78125 428.679688 416.113281 429.113281 C 416.445312 429.546875 416.796875 429.964844 417.167969 430.363281 C 417.539062 430.761719 417.929688 431.144531 418.339844 431.503906 C 418.75 431.867188 419.175781 432.207031 419.617188 432.527344 C 420.0625 432.84375 420.519531 433.140625 420.992188 433.417969 C 421.460938 433.691406 421.945312 433.941406 422.445312 434.167969 C 422.941406 434.394531 423.445312 434.597656 423.964844 434.773438 C 424.480469 434.953125 425.003906 435.105469 425.535156 435.230469 C 426.066406 435.355469 426.601562 435.457031 427.144531 435.527344 C 427.683594 435.601562 428.226562 435.648438 428.773438 435.667969 L 429.25 435.667969 C 429.785156 435.667969 430.320312 435.640625 430.855469 435.585938 C 431.386719 435.53125 431.917969 435.449219 432.441406 435.34375 C 432.96875 435.238281 433.488281 435.109375 434 434.949219 C 434.511719 434.792969 435.015625 434.613281 435.511719 434.40625 C 436.007812 434.199219 436.492188 433.96875 436.964844 433.714844 C 437.4375 433.460938 437.894531 433.1875 438.339844 432.886719 C 438.785156 432.589844 439.214844 432.269531 439.628906 431.929688 C 440.042969 431.585938 440.4375 431.226562 440.816406 430.847656 C 441.195312 430.46875 441.554688 430.070312 441.894531 429.65625 C 442.234375 429.238281 442.554688 428.808594 442.851562 428.363281 C 443.148438 427.917969 443.421875 427.457031 443.675781 426.984375 C 443.929688 426.511719 444.15625 426.027344 444.363281 425.53125 C 444.566406 425.035156 444.746094 424.53125 444.902344 424.015625 C 445.058594 423.503906 445.1875 422.984375 445.292969 422.457031 C 445.394531 421.933594 445.476562 421.402344 445.527344 420.867188 C 445.578125 420.335938 445.605469 419.800781 445.605469 419.265625 Z M 445.605469 418.550781 " fill-opacity="1" fill-rule="nonzero"/><path fill="#58595b" d="M 474.230469 402.003906 L 458.824219 402.003906 L 458.824219 394.0625 L 498.289062 394.0625 L 498.289062 402.003906 L 482.882812 402.003906 L 482.882812 442.707031 L 474.230469 442.707031 Z M 474.230469 402.003906 " fill-opacity="1" fill-rule="nonzero"/><path fill="#58595b" d="M 474.230469 402.003906 L 458.824219 402.003906 L 458.824219 394.0625 L 498.289062 394.0625 L 498.289062 402.003906 L 482.882812 402.003906 L 482.882812 442.707031 L 474.230469 442.707031 Z M 474.230469 402.003906 " fill-opacity="1" fill-rule="nonzero"/><path fill="#58595b" d="M 507.371094 394.0625 L 543.414062 394.0625 L 543.414062 401.71875 L 515.929688 401.71875 L 515.929688 414.367188 L 540.273438 414.367188 L 540.273438 422.023438 L 515.929688 422.023438 L 515.929688 435.050781 L 543.792969 435.050781 L 543.792969 442.707031 L 507.371094 442.707031 Z M 507.371094 394.0625 " fill-opacity="1" fill-rule="nonzero"/><path fill="#58595b" d="M 507.371094 394.0625 L 543.414062 394.0625 L 543.414062 401.71875 L 515.929688 401.71875 L 515.929688 414.367188 L 540.273438 414.367188 L 540.273438 422.023438 L 515.929688 422.023438 L 515.929688 435.050781 L 543.792969 435.050781 L 543.792969 442.707031 L 507.371094 442.707031 Z M 507.371094 394.0625 " fill-opacity="1" fill-rule="nonzero"/><path fill="#58595b" d="M 553.921875 394.0625 L 562.480469 394.0625 L 562.480469 434.90625 L 588.058594 434.90625 L 588.058594 442.707031 L 553.921875 442.707031 Z M 553.921875 394.0625 " fill-opacity="1" fill-rule="nonzero"/><path fill="#58595b" d="M 553.921875 394.0625 L 562.480469 394.0625 L 562.480469 434.90625 L 588.058594 434.90625 L 588.058594 442.707031 L 553.921875 442.707031 Z M 553.921875 394.0625 " fill-opacity="1" fill-rule="nonzero"/><path fill="#58595b" d="M 305.148438 476.226562 L 295.59375 461.4375 L 301.109375 461.4375 L 307.527344 471.804688 L 313.945312 461.4375 L 319.414062 461.4375 L 309.902344 476.085938 L 309.902344 485.972656 L 305.148438 485.972656 Z M 305.148438 476.226562 " fill-opacity="1" fill-rule="nonzero"/><path fill="#58595b" d="M 492.203125 461.203125 L 487.972656 461.203125 L 477.035156 485.832031 L 481.789062 485.832031 L 484.261719 480.03125 L 495.339844 480.03125 L 497.765625 485.878906 L 502.902344 485.878906 L 491.964844 461.105469 Z M 493.773438 475.847656 L 486.257812 475.847656 L 490.015625 467.097656 Z M 493.773438 475.847656 " fill-opacity="1" fill-rule="nonzero"/><path fill="#58595b" d="M 435.476562 461.390625 L 426.300781 461.390625 L 426.300781 485.832031 L 435.476562 485.832031 C 436.316406 485.882812 437.152344 485.851562 437.984375 485.730469 C 438.816406 485.613281 439.628906 485.410156 440.421875 485.125 C 441.210938 484.839844 441.964844 484.476562 442.683594 484.039062 C 443.398438 483.597656 444.0625 483.089844 444.675781 482.515625 C 445.289062 481.9375 445.835938 481.308594 446.320312 480.617188 C 446.804688 479.929688 447.210938 479.199219 447.546875 478.429688 C 447.878906 477.65625 448.132812 476.859375 448.300781 476.035156 C 448.472656 475.214844 448.558594 474.382812 448.558594 473.539062 C 448.558594 472.699219 448.472656 471.867188 448.300781 471.042969 C 448.132812 470.21875 447.878906 469.421875 447.546875 468.652344 C 447.210938 467.878906 446.804688 467.148438 446.320312 466.460938 C 445.835938 465.773438 445.289062 465.140625 444.675781 464.566406 C 444.0625 463.988281 443.398438 463.484375 442.683594 463.042969 C 441.964844 462.601562 441.210938 462.242188 440.421875 461.957031 C 439.628906 461.671875 438.816406 461.46875 437.984375 461.347656 C 437.152344 461.230469 436.316406 461.195312 435.476562 461.25 M 435.476562 481.410156 L 431.007812 481.410156 L 431.007812 465.765625 L 435.476562 465.765625 C 436.019531 465.683594 436.5625 465.652344 437.109375 465.679688 C 437.65625 465.710938 438.191406 465.792969 438.722656 465.933594 C 439.25 466.070312 439.761719 466.261719 440.25 466.507812 C 440.738281 466.75 441.199219 467.042969 441.628906 467.382812 C 442.054688 467.722656 442.445312 468.101562 442.796875 468.519531 C 443.148438 468.941406 443.453125 469.390625 443.710938 469.875 C 443.96875 470.355469 444.171875 470.859375 444.324219 471.386719 C 444.480469 471.910156 444.578125 472.445312 444.621094 472.992188 C 444.664062 473.535156 444.648438 474.082031 444.578125 474.625 C 444.507812 475.167969 444.386719 475.695312 444.207031 476.210938 C 444.027344 476.730469 443.796875 477.222656 443.515625 477.691406 C 443.234375 478.160156 442.90625 478.597656 442.535156 479 C 442.164062 479.402344 441.757812 479.761719 441.3125 480.078125 C 440.867188 480.394531 440.394531 480.664062 439.890625 480.882812 C 439.390625 481.101562 438.875 481.269531 438.339844 481.382812 C 437.800781 481.496094 437.261719 481.550781 436.714844 481.550781 L 435.476562 481.550781 " fill-opacity="1" fill-rule="nonzero"/><path fill="#58595b" d="M 384.125 471.089844 L 378.230469 461.4375 L 372.621094 461.4375 L 381.75 475.796875 L 381.75 485.972656 L 386.457031 485.972656 L 386.457031 475.703125 L 395.585938 461.390625 L 390.117188 461.4375 Z M 384.125 471.089844 " fill-opacity="1" fill-rule="nonzero"/><path fill="#58595b" d="M 363.539062 486.117188 L 370.765625 461.4375 L 365.773438 461.4375 L 361.207031 478.222656 L 355.976562 461.34375 L 351.414062 461.34375 L 346.089844 478.175781 L 341.523438 461.4375 L 336.4375 461.4375 L 343.804688 486.117188 L 347.988281 486.117188 L 353.554688 468.617188 L 359.210938 486.117188 Z M 363.539062 486.117188 " fill-opacity="1" fill-rule="nonzero"/><path fill="#58595b" d="M 415.222656 477.511719 L 402.671875 461.390625 L 398.34375 461.390625 L 398.390625 485.972656 L 403.050781 485.972656 L 403.050781 469.285156 L 415.9375 485.972656 L 419.882812 485.972656 L 419.882812 461.390625 L 415.222656 461.390625 Z M 415.222656 477.511719 " fill-opacity="1" fill-rule="nonzero"/><path fill="#58595b" d="M 473.660156 485.972656 L 473.660156 461.390625 L 468.953125 461.390625 L 468.953125 471.375 L 457.96875 471.375 L 457.96875 461.390625 L 453.214844 461.390625 L 453.214844 485.972656 L 457.96875 485.972656 L 457.96875 475.796875 L 468.953125 475.796875 L 468.953125 485.972656 Z M 473.660156 485.972656 " fill-opacity="1" fill-rule="nonzero"/><path fill="#58595b" d="M 518.070312 472.519531 L 510.890625 461.390625 L 505.992188 461.390625 L 505.992188 485.972656 L 510.652344 485.972656 L 510.652344 469.285156 L 517.785156 480.03125 L 518.210938 480.03125 L 525.4375 469.238281 L 525.4375 485.972656 L 530.144531 485.972656 L 530.144531 461.390625 L 525.25 461.390625 Z M 518.070312 472.519531 " fill-opacity="1" fill-rule="nonzero"/><path fill="#58595b" d="M 293.929688 467.621094 C 293.941406 468.199219 293.871094 468.769531 293.71875 469.328125 C 293.5625 469.886719 293.332031 470.410156 293.023438 470.902344 C 292.714844 471.390625 292.34375 471.828125 291.90625 472.207031 C 291.46875 472.589844 290.984375 472.898438 290.457031 473.136719 C 291.140625 473.28125 291.777344 473.535156 292.371094 473.902344 C 292.964844 474.269531 293.480469 474.726562 293.914062 475.273438 C 294.347656 475.820312 294.675781 476.425781 294.898438 477.085938 C 295.121094 477.75 295.226562 478.429688 295.210938 479.128906 C 295.210938 483.5 291.644531 485.972656 286.226562 485.972656 L 274.910156 485.972656 L 274.910156 461.4375 L 286.128906 461.4375 C 291.644531 461.4375 294.164062 464.339844 294.164062 467.621094 M 289.410156 468.523438 C 289.410156 466.953125 288.222656 465.625 285.371094 465.625 L 279.664062 465.625 L 279.664062 471.566406 L 284.988281 471.566406 C 287.746094 471.566406 289.03125 470.332031 289.03125 468.617188 M 290.410156 478.84375 C 290.410156 477.128906 289.316406 475.796875 285.941406 475.796875 L 279.664062 475.796875 L 279.664062 481.789062 L 286.128906 481.789062 C 289.363281 481.789062 290.597656 480.601562 290.597656 478.84375 " fill-opacity="1" fill-rule="nonzero"/></svg>