<svg xmlns="http://www.w3.org/2000/svg" xmlns:xlink="http://www.w3.org/1999/xlink" width="1080" zoomAndPan="magnify" viewBox="0 0 810 809.999993" height="1080" preserveAspectRatio="xMidYMid meet" version="1.0"><rect x="-81" width="972" fill="#ffffff" y="-80.999999" height="971.999992" fill-opacity="1"/><rect x="-81" width="972" fill="#ffffff" y="-80.999999" height="971.999992" fill-opacity="1"/><path fill="#58595b" d="M 581.292969 409.761719 L 580.433594 410.289062 C 579.503906 410.808594 578.535156 411.253906 577.527344 411.621094 C 576.765625 411.90625 575.765625 412.144531 575.574219 413.148438 C 575.410156 414.164062 575.410156 415.179688 575.574219 416.195312 C 575.566406 416.457031 575.59375 416.714844 575.648438 416.972656 C 575.707031 417.226562 575.792969 417.472656 575.914062 417.707031 C 576.03125 417.941406 576.175781 418.15625 576.347656 418.351562 C 576.519531 418.550781 576.714844 418.722656 576.929688 418.875 C 577.144531 419.023438 577.375 419.144531 577.621094 419.234375 C 577.867188 419.324219 578.117188 419.386719 578.378906 419.414062 C 578.640625 419.441406 578.898438 419.4375 579.160156 419.402344 C 579.417969 419.363281 579.667969 419.296875 579.910156 419.199219 C 581.296875 418.9375 582.550781 418.382812 583.675781 417.53125 C 584.503906 417.09375 585.167969 416.476562 585.667969 415.6875 C 586.171875 414.898438 586.441406 414.035156 586.488281 413.097656 C 586.058594 410.050781 584.007812 408.621094 581.292969 409.761719 Z M 581.292969 409.761719 " fill-opacity="1" fill-rule="nonzero"/><path fill="#58595b" d="M 324 379.652344 C 322.394531 379.761719 320.808594 380.019531 319.253906 380.433594 C 317.695312 380.84375 316.1875 381.398438 314.738281 382.09375 C 313.285156 382.792969 311.910156 383.621094 310.617188 384.582031 C 309.320312 385.539062 308.128906 386.613281 307.039062 387.796875 C 308.328125 385.769531 309.121094 383.5625 309.421875 381.175781 C 309.421875 378.886719 308.847656 376.648438 305.988281 376.648438 C 303.824219 379.015625 301.886719 381.558594 300.175781 384.273438 C 296.683594 388.140625 292.84375 391.625 288.65625 394.726562 C 284.472656 397.832031 280.019531 400.492188 275.304688 402.710938 C 275.304688 396.375 271.921875 388.703125 276.878906 383.652344 C 279.785156 381.558594 282.070312 380.507812 282.070312 378.460938 C 282.070312 376.410156 279.785156 372.789062 274.113281 372.789062 C 266.300781 372.789062 263.917969 380.367188 263.441406 384.652344 C 260.628906 387.464844 236.1875 406.761719 224.847656 406.761719 C 224.3125 406.796875 223.78125 406.753906 223.257812 406.632812 C 222.734375 406.507812 222.242188 406.3125 221.78125 406.039062 C 221.316406 405.769531 220.902344 405.433594 220.542969 405.035156 C 220.179688 404.640625 219.882812 404.199219 219.652344 403.710938 C 242.953125 401.1875 246.480469 379.507812 228.800781 379.507812 C 228.0625 379.5625 227.324219 379.648438 226.59375 379.765625 C 225.859375 379.886719 225.136719 380.039062 224.417969 380.222656 C 223.699219 380.410156 222.988281 380.628906 222.289062 380.878906 C 221.589844 381.128906 220.90625 381.410156 220.230469 381.722656 C 219.558594 382.035156 218.902344 382.375 218.257812 382.746094 C 217.617188 383.121094 216.992188 383.519531 216.386719 383.949219 C 215.78125 384.378906 215.195312 384.832031 214.632812 385.316406 C 214.066406 385.796875 213.527344 386.304688 213.007812 386.835938 C 212.488281 387.367188 211.996094 387.921875 211.527344 388.496094 C 211.0625 389.074219 210.621094 389.667969 210.207031 390.285156 C 209.792969 390.902344 209.40625 391.535156 209.050781 392.1875 C 208.695312 392.835938 208.371094 393.503906 208.074219 394.183594 C 207.777344 394.867188 207.515625 395.558594 207.28125 396.261719 C 207.050781 396.96875 206.847656 397.683594 206.683594 398.40625 C 206.515625 399.128906 206.378906 399.855469 206.277344 400.59375 C 206.175781 401.328125 206.109375 402.066406 206.074219 402.808594 C 206.066406 403.265625 206.078125 403.71875 206.117188 404.175781 C 206.15625 404.628906 206.222656 405.082031 206.308594 405.53125 C 206.394531 405.980469 206.507812 406.421875 206.640625 406.859375 C 206.773438 407.296875 206.933594 407.722656 207.113281 408.144531 C 207.292969 408.566406 207.492188 408.972656 207.71875 409.371094 C 207.941406 409.769531 208.183594 410.15625 208.449219 410.527344 C 208.714844 410.902344 208.996094 411.257812 209.300781 411.601562 C 209.601562 411.941406 209.921875 412.269531 210.261719 412.578125 C 210.597656 412.886719 210.949219 413.175781 211.320312 413.445312 C 211.6875 413.714844 212.070312 413.964844 212.464844 414.195312 C 212.859375 414.425781 213.265625 414.632812 213.683594 414.820312 C 214.097656 415.007812 214.523438 415.171875 214.960938 415.3125 C 215.394531 415.453125 215.835938 415.570312 216.28125 415.664062 C 216.730469 415.761719 217.179688 415.832031 217.636719 415.875 C 218.089844 415.921875 218.546875 415.945312 219.003906 415.941406 C 219.460938 415.941406 219.914062 415.914062 220.367188 415.863281 C 234.089844 415.863281 255.339844 399.425781 263.535156 392.324219 C 263.535156 397.328125 263.203125 404.855469 261.820312 406.238281 C 261.507812 406.519531 261.140625 406.695312 260.726562 406.761719 C 257.023438 407.289062 253.417969 406.910156 249.910156 405.617188 C 247.621094 404.476562 244.238281 415.816406 255.578125 415.816406 L 256.152344 415.816406 C 261.269531 415.472656 266.253906 414.464844 271.105469 412.792969 C 275.953125 411.121094 280.5 408.839844 284.738281 405.953125 C 274.734375 420.578125 259.914062 443.449219 259.535156 450.453125 C 258.960938 459.984375 269.0625 464.082031 270.875 460.699219 C 272.683594 457.316406 278.257812 440.828125 286.789062 423.773438 C 289.695312 417.816406 292.886719 412.144531 295.9375 406.953125 C 296.984375 412.621094 299.511719 415.816406 304.941406 415.816406 C 327.574219 416.003906 342.34375 379.652344 324 379.652344 Z M 228.183594 388.75 C 234.949219 388.75 231.707031 396.375 219.273438 397.660156 C 220.320312 393.183594 223.941406 388.75 228.183594 388.75 Z M 304.941406 406.90625 C 301.320312 406.90625 300.175781 404.476562 300.175781 401.617188 C 304.085938 395.945312 313.089844 388.179688 317.042969 388.179688 C 322.476562 388.179688 312.230469 406.90625 304.941406 406.90625 Z M 304.941406 406.90625 " fill-opacity="1" fill-rule="nonzero"/><path fill="#58595b" d="M 521.972656 349.539062 C 520.828125 349.539062 510.0625 366.59375 498.671875 383.652344 L 494.289062 390.039062 C 493.433594 383.460938 490.953125 379.652344 485.046875 379.652344 C 482.75 379.792969 480.503906 380.214844 478.3125 380.90625 C 476.117188 381.601562 474.039062 382.550781 472.078125 383.757812 C 470.117188 384.960938 468.332031 386.382812 466.722656 388.027344 C 465.109375 389.671875 463.722656 391.484375 462.558594 393.46875 C 458.269531 398.949219 451.882812 406.90625 446.976562 406.90625 C 438.496094 406.90625 457.222656 379.652344 435.066406 379.652344 C 428.488281 379.652344 421.773438 384.703125 416.386719 389.941406 C 416.960938 388.648438 417.308594 387.300781 417.4375 385.894531 C 417.4375 383.652344 415.769531 381.9375 414.625 381.9375 C 413.480469 381.9375 412.910156 382.84375 411.71875 384.367188 C 405.90625 390.371094 389.371094 406.90625 375.410156 406.90625 C 374.847656 406.957031 374.289062 406.929688 373.730469 406.820312 C 373.175781 406.707031 372.648438 406.519531 372.148438 406.25 C 371.648438 405.984375 371.195312 405.652344 370.796875 405.25 C 370.394531 404.851562 370.058594 404.402344 369.789062 403.902344 C 393.613281 401.617188 397.1875 379.652344 379.320312 379.652344 C 378.578125 379.703125 377.839844 379.789062 377.109375 379.910156 C 376.375 380.027344 375.652344 380.179688 374.933594 380.367188 C 374.214844 380.550781 373.503906 380.769531 372.804688 381.019531 C 372.105469 381.269531 371.421875 381.550781 370.75 381.863281 C 370.074219 382.175781 369.417969 382.519531 368.773438 382.890625 C 368.132812 383.261719 367.507812 383.664062 366.902344 384.09375 C 366.296875 384.519531 365.710938 384.976562 365.148438 385.457031 C 364.582031 385.941406 364.042969 386.449219 363.523438 386.980469 C 363.007812 387.511719 362.511719 388.0625 362.042969 388.640625 C 361.578125 389.214844 361.136719 389.8125 360.722656 390.429688 C 360.308594 391.042969 359.925781 391.679688 359.566406 392.328125 C 359.210938 392.980469 358.886719 393.648438 358.589844 394.328125 C 358.292969 395.007812 358.03125 395.699219 357.796875 396.40625 C 357.566406 397.109375 357.367188 397.824219 357.199219 398.546875 C 357.03125 399.269531 356.894531 400 356.792969 400.734375 C 356.691406 401.46875 356.625 402.207031 356.589844 402.949219 C 356.578125 403.40625 356.59375 403.863281 356.628906 404.320312 C 356.667969 404.777344 356.730469 405.230469 356.8125 405.679688 C 356.898438 406.128906 357.011719 406.570312 357.144531 407.007812 C 357.277344 407.445312 357.433594 407.875 357.613281 408.296875 C 357.792969 408.71875 357.992188 409.128906 358.214844 409.527344 C 358.4375 409.925781 358.683594 410.3125 358.949219 410.6875 C 359.210938 411.058594 359.496094 411.417969 359.800781 411.761719 C 360.101562 412.105469 360.421875 412.429688 360.761719 412.738281 C 361.097656 413.046875 361.453125 413.335938 361.820312 413.605469 C 362.1875 413.878906 362.570312 414.128906 362.96875 414.359375 C 363.363281 414.585938 363.769531 414.796875 364.1875 414.980469 C 364.605469 415.167969 365.03125 415.332031 365.46875 415.472656 C 365.902344 415.613281 366.34375 415.730469 366.792969 415.824219 C 367.242188 415.914062 367.691406 415.984375 368.148438 416.03125 C 368.601562 416.074219 369.058594 416.09375 369.515625 416.089844 C 369.972656 416.085938 370.429688 416.058594 370.886719 416.003906 C 380.414062 416.003906 390.324219 410 398.664062 403.472656 C 396.21875 406.871094 394.34375 410.554688 393.039062 414.527344 C 393.039062 416.816406 399.855469 418.53125 402.140625 415.671875 C 402.855469 414.671875 403.714844 413.386719 404.667969 411.859375 C 409.429688 405.332031 422.199219 388.988281 431.683594 388.988281 C 443.023438 388.988281 424.296875 416.242188 441.878906 416.242188 C 444.84375 416.015625 447.683594 415.285156 450.394531 414.058594 C 453.101562 412.832031 455.523438 411.175781 457.648438 409.097656 C 457.660156 409.605469 457.722656 410.105469 457.835938 410.601562 C 457.953125 411.09375 458.117188 411.570312 458.328125 412.03125 C 458.542969 412.492188 458.800781 412.925781 459.105469 413.332031 C 459.40625 413.742188 459.75 414.113281 460.132812 414.449219 C 460.511719 414.785156 460.921875 415.078125 461.363281 415.328125 C 461.804688 415.578125 462.269531 415.78125 462.75 415.933594 C 463.234375 416.089844 463.730469 416.191406 464.234375 416.246094 C 464.738281 416.296875 465.246094 416.296875 465.75 416.242188 C 467.4375 416.09375 469.09375 415.785156 470.71875 415.316406 C 472.34375 414.847656 473.910156 414.226562 475.417969 413.453125 C 476.925781 412.683594 478.34375 411.773438 479.675781 410.726562 C 481.003906 409.683594 482.226562 408.519531 483.332031 407.238281 C 482.378906 409 481.472656 410.8125 480.519531 412.859375 C 477.660156 419.101562 480.519531 428.15625 485.617188 428.15625 C 490.714844 428.15625 487.332031 423.058594 490.382812 415.671875 C 495.527344 402.042969 523.355469 374.21875 526.738281 362.308594 C 528.214844 356.398438 524.785156 349.539062 521.972656 349.539062 Z M 379.03125 388.75 C 385.894531 388.75 382.464844 396.566406 369.503906 397.710938 C 369.714844 396.566406 370.097656 395.488281 370.648438 394.464844 C 371.199219 393.445312 371.894531 392.53125 372.734375 391.730469 C 373.570312 390.925781 374.511719 390.269531 375.554688 389.761719 C 376.597656 389.253906 377.691406 388.917969 378.84375 388.75 Z M 485.238281 388.75 C 488.859375 388.75 490 391.230469 490 394.085938 C 486.191406 399.566406 477.613281 406.90625 473.707031 406.90625 C 467.988281 406.90625 477.660156 388.75 485.046875 388.75 Z M 485.238281 388.75 " fill-opacity="1" fill-rule="nonzero"/><path fill="#58595b" d="M 577.625 395.46875 C 577.394531 392.789062 576.488281 390.359375 574.910156 388.179688 C 578.433594 384.703125 585.582031 378.886719 585.582031 378.648438 C 585.582031 378.410156 586.152344 372.980469 577.050781 372.980469 C 569.621094 372.980469 567.523438 379.839844 567 384.175781 C 563.097656 387.449219 558.867188 390.21875 554.308594 392.488281 C 549.75 394.761719 544.992188 396.46875 540.03125 397.613281 C 544.367188 388.65625 543.128906 379.792969 531.597656 379.792969 C 507.773438 379.792969 494.148438 416.148438 514.015625 416.148438 C 516.046875 416.003906 518.042969 415.648438 520.003906 415.082031 C 521.960938 414.515625 523.839844 413.753906 525.636719 412.792969 C 527.433594 411.832031 529.113281 410.695312 530.671875 409.382812 C 532.230469 408.070312 533.632812 406.609375 534.886719 405 C 537.964844 404.710938 541.003906 404.179688 544 403.40625 C 546.996094 402.628906 549.910156 401.621094 552.742188 400.378906 C 555.578125 399.136719 558.292969 397.675781 560.890625 395.996094 C 563.492188 394.316406 565.941406 392.441406 568.238281 390.371094 C 568.410156 390.519531 568.566406 390.675781 568.714844 390.847656 C 571.574219 393.085938 556.800781 403.332031 556.800781 411.289062 C 556.800781 419.246094 564.757812 423.199219 566.332031 421.484375 C 567.902344 419.769531 565.761719 418.101562 565.761719 415.816406 C 565.710938 410.90625 577.625 401.234375 577.625 395.46875 Z M 533.3125 388.65625 C 536.933594 388.65625 535.933594 392.992188 533.027344 397.421875 C 532.238281 397.3125 531.476562 397.101562 530.746094 396.785156 C 530.015625 396.46875 529.339844 396.0625 528.71875 395.5625 C 528.097656 395.0625 527.554688 394.488281 527.089844 393.84375 C 526.621094 393.195312 526.25 392.5 525.976562 391.753906 C 526.992188 390.851562 528.128906 390.144531 529.390625 389.628906 C 530.648438 389.113281 531.957031 388.820312 533.3125 388.75 Z M 520.640625 397.804688 C 521.417969 399.128906 522.375 400.304688 523.515625 401.335938 C 524.652344 402.367188 525.917969 403.207031 527.308594 403.855469 C 526.421875 404.691406 525.425781 405.363281 524.316406 405.871094 C 523.203125 406.378906 522.042969 406.691406 520.828125 406.808594 C 517.160156 406.90625 517.828125 402.425781 520.640625 397.898438 Z M 520.640625 397.804688 " fill-opacity="1" fill-rule="nonzero"/><path fill="#58595b" d="M 352.207031 385.226562 C 390.039062 369.742188 392.707031 344.726562 376.460938 347.871094 C 339.535156 355.253906 319.617188 424.535156 349.15625 424.535156 C 353.160156 424.535156 355.972656 422.246094 355.972656 421.105469 C 355.972656 419.960938 349.730469 417.71875 349.730469 400.234375 C 349.773438 395.101562 350.597656 390.097656 352.207031 385.226562 Z M 376.984375 354.683594 C 384.511719 353.253906 372.648438 369.265625 355.160156 377.792969 C 361.164062 365.214844 370.742188 355.78125 376.984375 354.683594 Z M 376.984375 354.683594 " fill-opacity="1" fill-rule="nonzero"/><path fill="#58595b" d="M 333.53125 460.125 C 333.339844 460.511719 333.066406 460.828125 332.71875 461.078125 C 332.320312 461.34375 331.890625 461.550781 331.433594 461.699219 C 330.941406 461.75 330.449219 461.75 329.957031 461.699219 L 324 461.699219 L 324 449.738281 L 330.527344 449.738281 C 330.933594 449.734375 331.316406 449.828125 331.671875 450.023438 C 332 450.195312 332.285156 450.417969 332.527344 450.691406 C 332.765625 451 332.957031 451.332031 333.101562 451.691406 C 333.296875 451.988281 333.441406 452.304688 333.53125 452.644531 C 333.527344 453.238281 333.386719 453.792969 333.101562 454.3125 C 332.792969 454.851562 332.347656 455.234375 331.765625 455.457031 C 332.453125 455.621094 333.011719 455.988281 333.433594 456.554688 C 333.863281 457.152344 334.066406 457.820312 334.054688 458.554688 C 334.046875 459.132812 333.871094 459.65625 333.53125 460.125 Z M 326.429688 454.835938 L 329.574219 454.835938 C 329.980469 454.828125 330.328125 454.6875 330.625 454.410156 C 330.894531 454.074219 331.019531 453.695312 331.003906 453.265625 C 331.035156 452.84375 330.90625 452.480469 330.625 452.167969 C 330.375 451.871094 330.058594 451.726562 329.671875 451.742188 L 326.429688 451.742188 Z M 331.195312 457.695312 C 331.113281 457.503906 331 457.328125 330.863281 457.171875 C 330.753906 457.007812 330.609375 456.878906 330.433594 456.789062 C 330.242188 456.742188 330.050781 456.742188 329.859375 456.789062 L 326.238281 456.789062 L 326.238281 459.984375 L 330.335938 459.984375 C 330.542969 459.917969 330.714844 459.804688 330.863281 459.648438 C 330.984375 459.507812 331.082031 459.347656 331.148438 459.171875 C 331.191406 458.96875 331.191406 458.761719 331.148438 458.554688 C 331.296875 458.285156 331.390625 458 331.433594 457.695312 Z M 331.195312 457.695312 " fill-opacity="1" fill-rule="nonzero"/><path fill="#58595b" d="M 345.488281 455.601562 L 348.539062 449.738281 L 351.0625 449.738281 L 346.679688 457.648438 L 346.679688 461.890625 L 344.296875 461.890625 L 344.296875 457.410156 L 339.914062 449.546875 L 342.488281 449.546875 Z M 345.488281 455.601562 " fill-opacity="1" fill-rule="nonzero"/><path fill="#58595b" d="M 381.175781 461.890625 L 378.746094 461.890625 L 375.648438 453.597656 L 372.601562 461.890625 L 370.121094 461.890625 L 366.359375 449.738281 L 368.980469 449.738281 L 371.601562 458.363281 L 374.363281 449.738281 L 376.886719 449.738281 L 379.746094 458.363281 L 382.320312 449.738281 L 384.988281 449.738281 Z M 381.175781 461.890625 " fill-opacity="1" fill-rule="nonzero"/><path fill="#58595b" d="M 396.421875 455.601562 L 399.472656 449.738281 L 402 449.738281 L 397.566406 457.648438 L 397.566406 461.890625 L 395.46875 461.890625 L 395.46875 457.410156 L 390.707031 449.738281 L 393.277344 449.738281 Z M 396.421875 455.601562 " fill-opacity="1" fill-rule="nonzero"/><path fill="#58595b" d="M 411.574219 461.890625 L 409.191406 461.890625 L 409.191406 449.738281 L 411.050781 449.738281 L 417.339844 457.695312 L 417.339844 449.738281 L 419.722656 449.738281 L 419.722656 461.890625 L 417.816406 461.890625 L 411.574219 454.074219 Z M 411.574219 461.890625 " fill-opacity="1" fill-rule="nonzero"/><path fill="#58595b" d="M 428.109375 449.738281 L 432.539062 449.738281 C 433.445312 449.714844 434.320312 449.871094 435.160156 450.214844 C 435.863281 450.523438 436.484375 450.953125 437.019531 451.503906 C 437.5 452.078125 437.882812 452.710938 438.164062 453.40625 C 438.414062 454.183594 438.539062 454.976562 438.542969 455.789062 C 438.554688 456.644531 438.414062 457.46875 438.113281 458.269531 C 437.859375 459.003906 437.460938 459.65625 436.921875 460.222656 C 436.351562 460.734375 435.71875 461.148438 435.015625 461.460938 C 434.21875 461.757812 433.394531 461.902344 432.539062 461.890625 L 428.109375 461.890625 Z M 435.921875 454.171875 C 435.753906 453.71875 435.515625 453.304688 435.207031 452.929688 C 434.898438 452.550781 434.519531 452.261719 434.066406 452.074219 C 433.578125 451.871094 433.066406 451.777344 432.539062 451.789062 L 430.492188 451.789062 L 430.492188 459.792969 L 432.539062 459.792969 C 433.082031 459.800781 433.605469 459.703125 434.113281 459.507812 C 434.550781 459.316406 434.917969 459.03125 435.207031 458.648438 C 435.511719 458.257812 435.75 457.828125 435.921875 457.363281 C 436.078125 456.851562 436.160156 456.328125 436.160156 455.789062 C 436.15625 455.238281 436.074219 454.699219 435.921875 454.171875 Z M 435.921875 454.171875 " fill-opacity="1" fill-rule="nonzero"/><path fill="#58595b" d="M 456.457031 461.890625 L 454.125 461.890625 L 454.125 456.695312 L 448.597656 456.695312 L 448.597656 461.890625 L 446.214844 461.890625 L 446.214844 449.738281 L 448.597656 449.738281 L 448.597656 454.503906 L 454.125 454.503906 L 454.125 449.738281 L 456.457031 449.738281 Z M 456.457031 461.890625 " fill-opacity="1" fill-rule="nonzero"/><path fill="#58595b" d="M 470.371094 449.738281 L 475.136719 461.890625 L 472.707031 461.890625 L 471.707031 458.839844 L 467.464844 458.839844 L 466.320312 461.890625 L 463.890625 461.890625 L 468.65625 449.738281 Z M 469.371094 452.40625 L 467.609375 457.171875 L 471.039062 457.171875 Z M 469.371094 452.40625 " fill-opacity="1" fill-rule="nonzero"/><path fill="#58595b" d="M 492.097656 453.835938 L 489 459.839844 L 487.714844 459.839844 L 484.570312 453.835938 L 484.570312 461.890625 L 482.1875 461.890625 L 482.1875 449.738281 L 484.761719 449.738281 L 488.335938 456.648438 L 491.957031 449.738281 L 494.480469 449.738281 L 494.480469 461.890625 L 492.097656 461.890625 Z M 492.097656 453.835938 " fill-opacity="1" fill-rule="nonzero"/></svg>