<svg xmlns="http://www.w3.org/2000/svg" xmlns:xlink="http://www.w3.org/1999/xlink" width="1080" zoomAndPan="magnify" viewBox="0 0 810 809.999993" height="1080" preserveAspectRatio="xMidYMid meet" version="1.0"><rect x="-81" width="972" fill="#ffffff" y="-80.999999" height="971.999992" fill-opacity="1"/><rect x="-81" width="972" fill="#ffffff" y="-80.999999" height="971.999992" fill-opacity="1"/><path fill="#58595b" d="M 405 528.863281 L 405 525.152344 C 407.609375 525.214844 410.207031 525.101562 412.800781 524.8125 C 415.390625 524.523438 417.953125 524.0625 420.484375 523.429688 C 423.015625 522.796875 425.492188 521.996094 427.914062 521.03125 C 430.335938 520.066406 432.683594 518.945312 434.957031 517.664062 C 437.230469 516.382812 439.40625 514.953125 441.484375 513.382812 C 443.566406 511.808594 445.53125 510.101562 447.382812 508.265625 C 449.234375 506.429688 450.957031 504.476562 452.542969 502.40625 C 454.132812 500.339844 455.578125 498.171875 456.875 495.910156 L 482.265625 495.910156 L 482.265625 314.660156 L 457.304688 314.660156 C 456.015625 312.355469 454.578125 310.148438 452.988281 308.039062 C 451.402344 305.929688 449.675781 303.9375 447.816406 302.0625 C 445.957031 300.1875 443.980469 298.445312 441.886719 296.839844 C 439.789062 295.234375 437.59375 293.777344 435.300781 292.472656 C 433.007812 291.164062 430.636719 290.015625 428.1875 289.03125 C 425.738281 288.046875 423.230469 287.234375 420.671875 286.589844 C 418.109375 285.945312 415.519531 285.476562 412.894531 285.183594 C 410.269531 284.890625 407.640625 284.78125 405 284.847656 L 405 281.375 C 407.699219 281.316406 410.386719 281.4375 413.070312 281.730469 C 415.753906 282.023438 418.40625 282.488281 421.027344 283.125 C 423.648438 283.765625 426.21875 284.570312 428.734375 285.542969 C 431.25 286.519531 433.691406 287.648438 436.0625 288.941406 C 438.429688 290.234375 440.707031 291.671875 442.886719 293.261719 C 445.070312 294.847656 447.140625 296.570312 449.097656 298.429688 C 451.054688 300.285156 452.882812 302.261719 454.582031 304.359375 C 456.28125 306.453125 457.839844 308.652344 459.253906 310.949219 L 485.832031 310.949219 L 485.832031 499.621094 L 459.0625 499.621094 C 457.640625 501.894531 456.082031 504.070312 454.378906 506.144531 C 452.679688 508.21875 450.851562 510.175781 448.894531 512.011719 C 446.941406 513.851562 444.875 515.554688 442.703125 517.125 C 440.527344 518.691406 438.257812 520.117188 435.898438 521.390625 C 433.539062 522.667969 431.109375 523.789062 428.601562 524.75 C 426.097656 525.710938 423.542969 526.507812 420.933594 527.136719 C 418.328125 527.765625 415.691406 528.226562 413.023438 528.515625 C 410.355469 528.804688 407.683594 528.917969 405 528.863281 Z M 405 528.863281 C 402.328125 528.925781 399.667969 528.820312 397.011719 528.542969 C 394.355469 528.265625 391.726562 527.816406 389.128906 527.203125 C 386.527344 526.585938 383.980469 525.808594 381.480469 524.863281 C 378.980469 523.921875 376.554688 522.824219 374.195312 521.570312 C 371.839844 520.316406 369.570312 518.914062 367.394531 517.367188 C 365.214844 515.824219 363.144531 514.144531 361.183594 512.332031 C 359.21875 510.519531 357.382812 508.589844 355.667969 506.542969 C 353.953125 504.496094 352.375 502.347656 350.9375 500.09375 L 324.167969 500.09375 L 324.167969 310.710938 L 350.796875 310.710938 C 352.214844 308.425781 353.777344 306.242188 355.484375 304.160156 C 357.1875 302.078125 359.019531 300.117188 360.976562 298.269531 C 362.9375 296.425781 365.007812 294.71875 367.1875 293.140625 C 369.367188 291.566406 371.640625 290.136719 374.007812 288.855469 C 376.375 287.574219 378.8125 286.453125 381.324219 285.488281 C 383.835938 284.523438 386.402344 283.726562 389.015625 283.097656 C 391.632812 282.464844 394.277344 282.003906 396.953125 281.714844 C 399.628906 281.429688 402.308594 281.316406 405 281.375 L 405 285.082031 C 402.367188 285.015625 399.742188 285.121094 397.121094 285.410156 C 394.503906 285.695312 391.917969 286.15625 389.363281 286.792969 C 386.804688 287.429688 384.304688 288.238281 381.859375 289.210938 C 379.410156 290.1875 377.042969 291.324219 374.75 292.621094 C 372.457031 293.917969 370.261719 295.363281 368.164062 296.957031 C 366.066406 298.550781 364.085938 300.277344 362.222656 302.140625 C 360.359375 304 358.632812 305.980469 357.035156 308.074219 C 355.441406 310.171875 353.996094 312.367188 352.695312 314.660156 L 327.496094 314.660156 L 327.496094 495.910156 L 352.746094 495.910156 C 354.050781 498.1875 355.507812 500.363281 357.109375 502.441406 C 358.710938 504.519531 360.445312 506.480469 362.308594 508.328125 C 364.175781 510.171875 366.15625 511.882812 368.253906 513.460938 C 370.351562 515.039062 372.542969 516.464844 374.835938 517.746094 C 377.125 519.027344 379.488281 520.152344 381.929688 521.113281 C 384.371094 522.074219 386.867188 522.871094 389.414062 523.496094 C 391.964844 524.121094 394.542969 524.570312 397.152344 524.851562 C 399.761719 525.128906 402.378906 525.230469 405 525.152344 Z M 405 528.863281 " fill-opacity="1" fill-rule="nonzero"/><path fill="#58595b" d="M 476.65625 338.957031 C 477.285156 340.855469 477.601562 342.804688 477.605469 344.804688 C 477.65625 344.613281 477.65625 344.421875 477.605469 344.234375 C 477.472656 343.035156 477.21875 341.863281 476.84375 340.714844 C 470.664062 321.410156 434.574219 315.464844 396.011719 327.6875 C 394.917969 328.019531 390.878906 329.589844 389.785156 329.921875 C 390.503906 328.398438 391.042969 326.8125 391.402344 325.167969 C 430.960938 312.566406 470.140625 318.558594 476.65625 338.957031 Z M 378.945312 405.523438 C 355.453125 405.902344 337.292969 398.582031 332.964844 384.839844 C 332.320312 382.738281 332 380.59375 332 378.394531 C 332 376.199219 332.320312 374.054688 332.964844 371.953125 L 333.296875 372.285156 C 334.5625 373.382812 336.007812 374.140625 337.625 374.570312 C 336.875 378.09375 337.015625 381.578125 338.050781 385.03125 C 342.09375 397.488281 358.308594 404.332031 379.515625 404.332031 Z M 378.945312 405.523438 " fill-opacity="1" fill-rule="nonzero"/><path fill="#58595b" d="M 407.613281 455.972656 C 405.367188 459.097656 403.59375 462.472656 402.289062 466.097656 C 403.847656 460.429688 406.496094 455.328125 410.230469 450.789062 C 410.832031 449.945312 411.578125 449.261719 412.476562 448.738281 C 413.371094 448.214844 414.335938 447.902344 415.367188 447.792969 C 421.070312 447.792969 421.5 457.300781 418.742188 468.382812 C 418.03125 471.648438 416.960938 474.792969 415.523438 477.8125 C 414.085938 480.832031 412.320312 483.648438 410.230469 486.257812 C 409.648438 487.027344 408.949219 487.660156 408.128906 488.160156 C 407.308594 488.660156 406.421875 488.992188 405.476562 489.160156 C 406.398438 488.378906 407.222656 487.507812 407.949219 486.542969 C 411.082031 481.847656 413.269531 476.742188 414.507812 471.234375 C 417.457031 460.34375 416.269531 452.214844 412.75 452.214844 C 411.277344 452.167969 409.421875 453.59375 407.613281 455.972656 Z M 422.832031 399.152344 C 420.582031 402.277344 418.808594 405.65625 417.503906 409.277344 C 419.113281 403.621094 421.757812 398.503906 425.445312 393.921875 C 426.070312 393.109375 426.828125 392.453125 427.71875 391.949219 C 428.609375 391.445312 429.5625 391.136719 430.582031 391.019531 C 434.382812 391.019531 435.335938 395.109375 435.335938 400.054688 C 435.300781 404.121094 434.808594 408.128906 433.863281 412.085938 C 432.320312 418.519531 429.496094 424.335938 425.398438 429.535156 C 424.820312 430.308594 424.121094 430.949219 423.300781 431.457031 C 422.480469 431.96875 421.59375 432.308594 420.644531 432.480469 C 421.566406 431.71875 422.390625 430.863281 423.117188 429.914062 C 426.296875 425.195312 428.515625 420.058594 429.773438 414.507812 C 432.769531 403.574219 431.578125 395.203125 428.011719 395.203125 C 426.492188 395.488281 424.636719 396.773438 422.832031 399.152344 Z M 471.425781 413.414062 C 469.730469 417.753906 467.410156 421.726562 464.460938 425.335938 C 461.515625 428.941406 458.082031 432.003906 454.164062 434.527344 L 453.832031 434.144531 C 457.710938 431.644531 461.15625 428.644531 464.175781 425.148438 C 467.191406 421.65625 469.65625 417.808594 471.566406 413.605469 Z M 422.832031 507.085938 C 417.871094 508.75 412.800781 509.941406 407.613281 510.652344 C 404.066406 511.125 400.5 511.363281 396.917969 511.363281 C 366.105469 511.363281 345.992188 492.058594 352.316406 468.570312 C 353.460938 465.164062 354.925781 461.898438 356.707031 458.773438 C 358.488281 455.652344 360.554688 452.730469 362.910156 450.011719 C 365.261719 447.289062 367.855469 444.824219 370.6875 442.609375 C 373.523438 440.398438 376.542969 438.480469 379.753906 436.855469 C 378.414062 435.183594 377.292969 433.375 376.390625 431.429688 C 375.488281 429.488281 374.828125 427.464844 374.414062 425.363281 C 374 423.257812 373.84375 421.136719 373.941406 418.996094 C 374.039062 416.855469 374.390625 414.757812 374.996094 412.703125 C 378.800781 398.867188 391.6875 386.789062 407.757812 380.320312 L 408.089844 380.320312 C 393.828125 386.835938 382.511719 397.960938 379.132812 410.46875 C 378.824219 411.503906 378.585938 412.558594 378.414062 413.625 C 378.242188 414.695312 378.140625 415.769531 378.109375 416.851562 C 378.078125 417.933594 378.113281 419.011719 378.222656 420.089844 C 378.328125 421.167969 378.503906 422.230469 378.75 423.285156 C 378.992188 424.339844 379.304688 425.375 379.683594 426.386719 C 380.0625 427.402344 380.503906 428.386719 381.011719 429.34375 C 381.515625 430.300781 382.082031 431.21875 382.707031 432.101562 C 383.332031 432.988281 384.011719 433.828125 384.746094 434.621094 C 372.523438 441.613281 360.398438 451.835938 356.214844 466.382812 C 350.320312 488.445312 369.007812 506.988281 399.390625 507.132812 C 402.972656 507.117188 406.539062 506.863281 410.085938 506.371094 C 415.273438 505.625 420.34375 504.402344 425.304688 502.710938 C 443.324219 496.480469 458.207031 484.167969 463.910156 469.855469 C 459.203125 486.257812 443.039062 500.332031 422.832031 507.085938 Z M 422.832031 507.085938 " fill-opacity="1" fill-rule="nonzero"/><path fill="#58595b" d="M 413.84375 485.308594 C 415.941406 482.691406 417.714844 479.867188 419.160156 476.839844 C 420.605469 473.8125 421.6875 470.660156 422.402344 467.382812 C 425.113281 456.730469 424.683594 446.746094 419.074219 446.746094 C 418.042969 446.859375 417.074219 447.167969 416.167969 447.671875 C 415.261719 448.175781 414.488281 448.832031 413.84375 449.648438 C 409.714844 454.839844 406.863281 460.65625 405.285156 467.097656 C 404.308594 471.0625 403.785156 475.089844 403.714844 479.175781 C 403.714844 483.929688 404.855469 488.160156 408.472656 488.207031 C 409.53125 488.121094 410.527344 487.824219 411.460938 487.320312 C 412.394531 486.816406 413.191406 486.144531 413.84375 485.308594 Z M 429.15625 392.828125 C 425.027344 398.035156 422.171875 403.867188 420.597656 410.324219 C 419.675781 414.296875 419.230469 418.324219 419.265625 422.402344 C 419.265625 427.15625 420.359375 431.386719 424.019531 431.386719 C 425.070312 431.296875 426.058594 430.996094 426.984375 430.492188 C 427.910156 429.988281 428.695312 429.320312 429.34375 428.488281 C 433.484375 423.3125 436.304688 417.492188 437.808594 411.039062 C 438.839844 407.078125 439.394531 403.050781 439.472656 398.960938 C 439.472656 394.207031 438.332031 389.925781 434.71875 389.925781 C 433.625 389.988281 432.59375 390.269531 431.625 390.777344 C 430.652344 391.28125 429.828125 391.964844 429.15625 392.828125 Z M 413.9375 378.085938 C 418.84375 376.066406 423.914062 374.636719 429.15625 373.808594 C 432.601562 373.230469 436.074219 372.960938 439.566406 373 C 465.671875 373 481.550781 389.402344 476.371094 408.851562 C 475.554688 411.363281 474.527344 413.785156 473.292969 416.117188 C 472.054688 418.449219 470.625 420.65625 469.003906 422.742188 C 467.382812 424.824219 465.59375 426.75 463.636719 428.523438 C 461.679688 430.292969 459.585938 431.882812 457.351562 433.289062 C 467.382812 441.5625 472.328125 451.644531 468.761719 464.863281 C 464.484375 480.839844 448.601562 494.816406 428.964844 501.570312 C 424.011719 503.289062 418.941406 504.511719 413.75 505.230469 C 410.199219 505.730469 406.632812 505.96875 403.050781 505.945312 C 372.761719 505.945312 354.027344 487.304688 359.972656 465.195312 C 363.824219 450.929688 375.949219 440.421875 388.5 433.480469 C 387.761719 432.6875 387.074219 431.851562 386.441406 430.972656 C 385.8125 430.09375 385.238281 429.175781 384.726562 428.21875 C 384.214844 427.261719 383.765625 426.277344 383.382812 425.265625 C 383 424.25 382.683594 423.21875 382.433594 422.164062 C 382.183594 421.109375 382.003906 420.042969 381.894531 418.964844 C 381.785156 417.886719 381.746094 416.804688 381.773438 415.722656 C 381.804688 414.636719 381.90625 413.5625 382.078125 412.492188 C 382.246094 411.421875 382.488281 410.367188 382.796875 409.328125 C 386.21875 396.058594 398.4375 384.457031 413.890625 378.085938 Z M 413.9375 378.085938 " fill-opacity="1" fill-rule="nonzero"/><path fill="#58595b" d="M 461.773438 348.273438 C 459.964844 349.988281 458.683594 351.222656 458.0625 351.746094 L 446.175781 363.347656 L 444.894531 364.632812 L 444.558594 364.632812 C 443.441406 364.386719 442.492188 363.847656 441.707031 363.015625 C 441.359375 362.777344 441.058594 362.492188 440.804688 362.160156 L 438.710938 362.917969 C 435.652344 364.132812 432.484375 364.863281 429.203125 365.105469 C 428.523438 365.105469 427.855469 365.011719 427.203125 364.820312 C 426.492188 364.582031 422.449219 361.445312 423.019531 358.308594 C 423.324219 356.785156 423.847656 355.34375 424.589844 353.980469 C 426.050781 351.59375 427.828125 349.472656 429.914062 347.609375 C 431.71875 346.035156 433.667969 344.671875 435.761719 343.519531 C 437.949219 342.472656 443.324219 340.285156 445.273438 342.285156 C 445.953125 342.820312 446.503906 343.46875 446.925781 344.226562 C 447.347656 344.984375 447.605469 345.796875 447.699219 346.65625 C 447.984375 349.605469 447.269531 350.699219 444.75 352.601562 C 442.472656 354.0625 439.984375 354.871094 437.285156 355.027344 C 435.433594 354.980469 433.59375 354.789062 431.769531 354.457031 C 430.902344 355.753906 430.300781 357.164062 429.960938 358.6875 L 430.296875 358.6875 C 432.683594 358.515625 435.027344 358.101562 437.332031 357.453125 C 440.742188 356.78125 443.910156 355.515625 446.84375 353.648438 C 446.84375 353.648438 456.066406 345.753906 458.394531 343.613281 C 458.539062 342.1875 459.046875 340.902344 459.917969 339.765625 C 461.960938 337.101562 466.335938 341.238281 465.957031 343.613281 L 467.050781 344.566406 C 468.953125 346.039062 470.664062 347.800781 470.664062 349.320312 C 470.46875 350.210938 470.117188 351.035156 469.609375 351.789062 C 469.101562 352.546875 468.46875 353.179688 467.714844 353.695312 L 464.195312 356.785156 C 463.4375 357.640625 462.484375 358.546875 461.675781 359.496094 C 464.054688 358.261719 467.761719 355.789062 468.476562 355.359375 C 469.191406 354.929688 470.425781 354.21875 472.421875 352.933594 C 473.421875 352.066406 474.566406 351.464844 475.847656 351.128906 C 476.539062 351.171875 477.15625 351.410156 477.699219 351.839844 C 478.082031 352.105469 478.339844 352.460938 478.472656 352.90625 C 478.605469 353.351562 478.585938 353.789062 478.414062 354.21875 C 477.128906 355.738281 475.667969 357.066406 474.039062 358.210938 C 472.183594 359.789062 470.21875 361.214844 468.144531 362.492188 C 465.820312 364.175781 463.238281 365.207031 460.394531 365.582031 C 458.5 365.195312 456.914062 364.273438 455.640625 362.824219 C 454.878906 361.730469 454.308594 361.066406 454.878906 359.496094 C 456.125 357.824219 457.472656 356.242188 458.917969 354.742188 C 460.488281 352.980469 462.246094 351.460938 463.675781 349.988281 L 463.152344 349.511719 L 462.484375 348.894531 L 462.484375 348.65625 Z M 438 347.703125 C 436.820312 348.414062 435.882812 349.367188 435.191406 350.558594 L 436.953125 350.558594 C 438.351562 350.65625 439.667969 350.371094 440.898438 349.703125 C 441.753906 349.320312 443.132812 348.417969 443.277344 347.132812 C 443.417969 345.851562 442.707031 346.039062 441.945312 346.039062 C 441.675781 345.992188 441.40625 345.992188 441.136719 346.039062 C 440.484375 346.089844 439.898438 346.3125 439.378906 346.707031 Z M 414.507812 342.519531 C 415.539062 342.066406 416.617188 341.84375 417.742188 341.855469 C 419.742188 342.058594 421.503906 342.820312 423.019531 344.136719 C 423.664062 344.753906 424.152344 345.480469 424.476562 346.308594 C 424.800781 347.140625 424.933594 348.003906 424.875 348.894531 C 424.378906 350.613281 423.601562 352.199219 422.546875 353.648438 C 420.960938 355.933594 419.058594 357.914062 416.839844 359.589844 C 414.953125 361.097656 412.921875 362.382812 410.753906 363.441406 C 408.539062 364.507812 406.210938 365.140625 403.765625 365.34375 C 402.75 365.292969 401.800781 365.023438 400.910156 364.535156 C 400.25 364.160156 399.710938 363.652344 399.292969 363.015625 L 397.773438 365.15625 C 391.78125 373.714844 385.980469 382.507812 379.988281 390.734375 C 379.324219 391.734375 376.519531 395.488281 375.234375 395.488281 C 373.949219 395.488281 370.148438 393.492188 370.148438 392.160156 C 370.148438 390.925781 382.273438 374.378906 391.449219 362.015625 C 396.410156 354.617188 402.128906 347.867188 408.613281 341.761719 C 409.367188 341.265625 410.191406 341.058594 411.085938 341.144531 C 411.742188 341.007812 412.382812 341.0625 413.007812 341.3125 C 413.628906 341.566406 414.128906 341.96875 414.507812 342.519531 Z M 404 360.066406 L 404.523438 360.066406 C 405.164062 360.035156 405.78125 359.910156 406.378906 359.6875 C 409.519531 358.316406 412.230469 356.351562 414.507812 353.789062 C 416.125 351.898438 417.15625 349.726562 417.601562 347.277344 C 417.601562 346.753906 417.601562 346.515625 417.265625 346.46875 C 414.414062 346.46875 412.84375 347.609375 409.28125 350.507812 C 407.109375 352.484375 405.398438 354.800781 404.144531 357.453125 C 403.953125 357.824219 403.859375 358.222656 403.859375 358.640625 C 403.859375 359.058594 403.953125 359.457031 404.144531 359.828125 Z M 349.273438 350.128906 C 348.085938 351.792969 346.894531 353.457031 345.753906 354.882812 C 343.953125 357.023438 342.78125 359.464844 342.238281 362.207031 C 342.703125 362.425781 343.195312 362.519531 343.710938 362.492188 C 345.277344 362.417969 346.800781 362.113281 348.277344 361.578125 C 349.75 361.042969 351.113281 360.300781 352.363281 359.351562 C 354.988281 357.734375 357.222656 355.691406 359.070312 353.21875 C 359.792969 352.4375 360.300781 351.535156 360.589844 350.507812 C 360.589844 349.035156 359.589844 347.039062 356.453125 344.421875 C 355.648438 343.898438 354.914062 343.289062 354.246094 342.597656 C 353.582031 341.90625 353 341.148438 352.507812 340.324219 C 352.011719 339.5 351.617188 338.632812 351.320312 337.71875 C 351.023438 336.804688 350.832031 335.871094 350.746094 334.914062 C 350.851562 333.5 351.121094 332.121094 351.5625 330.777344 C 352.003906 329.433594 352.601562 328.160156 353.359375 326.960938 C 354.113281 325.761719 355 324.675781 356.023438 323.695312 C 357.046875 322.714844 358.171875 321.875 359.402344 321.171875 C 362.269531 318.921875 365.40625 317.136719 368.808594 315.824219 C 372.210938 314.511719 375.734375 313.726562 379.371094 313.46875 C 384.648438 313.46875 388.5 315.847656 388.453125 321.125 C 388.097656 323.820312 387.351562 326.40625 386.21875 328.878906 C 385.082031 331.351562 383.609375 333.597656 381.796875 335.628906 L 379.609375 338.195312 C 377.851562 339.667969 371.765625 341.191406 371.765625 337.148438 C 371.769531 336.429688 372.039062 335.828125 372.570312 335.339844 C 374.414062 333.167969 375.996094 330.824219 377.328125 328.304688 C 378.785156 326.222656 379.6875 323.925781 380.039062 321.410156 C 380.039062 320.460938 379.085938 320.554688 378.277344 320.554688 C 375.78125 320.890625 373.386719 321.582031 371.097656 322.625 C 368.804688 323.671875 366.714844 325.023438 364.820312 326.6875 C 360.066406 330.113281 358.308594 333.011719 358.261719 335.199219 C 358.25 335.667969 358.351562 336.113281 358.5625 336.535156 C 358.769531 336.957031 359.066406 337.300781 359.449219 337.578125 C 366.820312 343.378906 373.714844 348.324219 364.679688 358.117188 C 361.949219 361.117188 358.78125 363.542969 355.167969 365.390625 C 351.226562 367.597656 346.992188 368.722656 342.472656 368.769531 C 337.71875 368.769531 334.011719 366.484375 334.058594 361.445312 C 334.230469 359.003906 334.839844 356.675781 335.882812 354.464844 C 336.921875 352.25 338.328125 350.296875 340.097656 348.609375 C 340.921875 347.6875 341.859375 346.894531 342.902344 346.230469 C 344.898438 345.183594 349.652344 344.613281 349.652344 348.132812 C 349.761719 348.289062 349.835938 348.460938 349.875 348.648438 C 349.914062 348.835938 349.917969 349.023438 349.882812 349.210938 C 349.847656 349.398438 349.777344 349.570312 349.671875 349.730469 C 349.566406 349.890625 349.433594 350.023438 349.273438 350.128906 Z M 377.375 359.640625 L 378.085938 359.640625 C 380.683594 358.230469 382.996094 356.457031 385.03125 354.3125 C 388.339844 351.117188 391.289062 347.613281 393.875 343.804688 C 394.136719 343.433594 394.480469 343.152344 394.894531 342.964844 C 395.3125 342.777344 395.75 342.710938 396.203125 342.757812 C 397.820312 342.757812 399.914062 343.472656 399.628906 345.898438 C 398.75 348.019531 397.546875 349.9375 396.011719 351.652344 C 394.378906 353.894531 392.621094 356.03125 390.734375 358.070312 C 388.441406 360.460938 385.808594 362.394531 382.84375 363.871094 C 381.367188 364.734375 379.785156 365.273438 378.085938 365.488281 C 375.738281 365.441406 373.617188 364.726562 371.714844 363.347656 C 370.328125 362.054688 369.503906 360.472656 369.242188 358.59375 C 369.578125 356.78125 370.242188 355.101562 371.242188 353.550781 C 372.859375 350.957031 374.824219 348.65625 377.136719 346.65625 C 378.789062 345.125 380.515625 343.683594 382.320312 342.332031 C 382.683594 342.285156 383.046875 342.285156 383.414062 342.332031 C 384.421875 342.367188 385.375 342.617188 386.265625 343.09375 C 387.027344 343.425781 388.40625 344.136719 388.40625 345.613281 C 388.382812 345.972656 388.28125 346.308594 388.097656 346.617188 C 387.910156 346.929688 387.664062 347.179688 387.359375 347.371094 C 384.875 349.140625 382.71875 351.25 380.894531 353.695312 C 379.363281 355.429688 378.191406 357.378906 377.375 359.542969 Z M 377.375 359.640625 " fill-opacity="1" fill-rule="nonzero"/></svg>