<svg xmlns="http://www.w3.org/2000/svg" xmlns:xlink="http://www.w3.org/1999/xlink" width="1080" zoomAndPan="magnify" viewBox="0 0 810 809.999993" height="1080" preserveAspectRatio="xMidYMid meet" version="1.0"><rect x="-81" width="972" fill="#ffffff" y="-80.999999" height="971.999992" fill-opacity="1"/><rect x="-81" width="972" fill="#ffffff" y="-80.999999" height="971.999992" fill-opacity="1"/><path fill="#58595b" d="M 198.582031 426.664062 L 176.769531 426.664062 L 176.769531 373.828125 L 196.855469 373.828125 C 197.722656 373.824219 198.589844 373.867188 199.457031 373.949219 C 200.320312 374.03125 201.179688 374.15625 202.03125 374.324219 C 202.882812 374.492188 203.726562 374.699219 204.558594 374.949219 C 205.390625 375.199219 206.210938 375.488281 207.011719 375.820312 C 207.816406 376.148438 208.601562 376.519531 209.371094 376.925781 C 210.136719 377.332031 210.882812 377.777344 211.605469 378.257812 C 212.332031 378.738281 213.027344 379.253906 213.703125 379.800781 C 214.375 380.351562 215.019531 380.933594 215.636719 381.546875 C 216.253906 382.15625 216.835938 382.800781 217.390625 383.46875 C 217.945312 384.140625 218.460938 384.835938 218.949219 385.554688 C 219.433594 386.277344 219.878906 387.019531 220.292969 387.785156 C 220.703125 388.550781 221.078125 389.335938 221.410156 390.136719 C 221.746094 390.9375 222.042969 391.753906 222.296875 392.585938 C 222.550781 393.414062 222.765625 394.257812 222.9375 395.109375 C 223.109375 395.960938 223.238281 396.816406 223.324219 397.683594 C 223.414062 398.546875 223.457031 399.414062 223.460938 400.28125 L 223.460938 400.285156 C 223.476562 401.121094 223.449219 401.957031 223.382812 402.789062 C 223.316406 403.625 223.210938 404.453125 223.066406 405.277344 C 222.917969 406.101562 222.734375 406.917969 222.507812 407.726562 C 222.28125 408.53125 222.019531 409.324219 221.714844 410.105469 C 221.414062 410.886719 221.074219 411.648438 220.699219 412.398438 C 220.324219 413.144531 219.910156 413.875 219.464844 414.582031 C 219.019531 415.289062 218.539062 415.976562 218.027344 416.636719 C 217.511719 417.296875 216.96875 417.933594 216.394531 418.542969 C 215.820312 419.152344 215.21875 419.730469 214.585938 420.28125 C 213.957031 420.832031 213.300781 421.351562 212.621094 421.839844 C 211.941406 422.328125 211.238281 422.78125 210.511719 423.199219 C 209.789062 423.617188 209.046875 424 208.285156 424.347656 C 207.523438 424.695312 206.746094 425.003906 205.953125 425.277344 C 205.160156 425.550781 204.359375 425.78125 203.542969 425.976562 C 202.730469 426.171875 201.90625 426.324219 201.078125 426.441406 C 200.25 426.554688 199.417969 426.628906 198.582031 426.664062 M 197.753906 418.417969 C 198.320312 418.382812 198.882812 418.320312 199.441406 418.230469 C 200 418.140625 200.554688 418.023438 201.101562 417.882812 C 201.648438 417.738281 202.1875 417.570312 202.71875 417.375 C 203.25 417.183594 203.773438 416.960938 204.28125 416.71875 C 204.792969 416.472656 205.289062 416.203125 205.777344 415.910156 C 206.261719 415.621094 206.730469 415.304688 207.183594 414.96875 C 207.640625 414.628906 208.074219 414.269531 208.496094 413.890625 C 208.917969 413.511719 209.316406 413.113281 209.699219 412.695312 C 210.082031 412.277344 210.441406 411.84375 210.78125 411.390625 C 211.121094 410.9375 211.4375 410.46875 211.734375 409.984375 C 212.027344 409.503906 212.300781 409.007812 212.546875 408.496094 C 212.792969 407.988281 213.015625 407.46875 213.214844 406.9375 C 213.410156 406.40625 213.582031 405.867188 213.730469 405.320312 C 213.875 404.773438 213.992188 404.222656 214.085938 403.664062 C 214.179688 403.105469 214.246094 402.542969 214.28125 401.980469 C 214.320312 401.414062 214.332031 400.847656 214.316406 400.285156 C 214.328125 399.699219 214.308594 399.117188 214.261719 398.535156 C 214.21875 397.953125 214.140625 397.375 214.039062 396.800781 C 213.9375 396.226562 213.804688 395.65625 213.648438 395.09375 C 213.488281 394.53125 213.300781 393.980469 213.089844 393.4375 C 212.875 392.894531 212.636719 392.359375 212.371094 391.839844 C 212.109375 391.320312 211.816406 390.8125 211.503906 390.320312 C 211.1875 389.828125 210.851562 389.355469 210.492188 388.894531 C 210.128906 388.4375 209.746094 387.996094 209.34375 387.574219 C 208.9375 387.152344 208.515625 386.753906 208.070312 386.371094 C 207.628906 385.992188 207.167969 385.636719 206.6875 385.300781 C 206.210938 384.964844 205.71875 384.65625 205.207031 384.367188 C 204.699219 384.082031 204.179688 383.820312 203.644531 383.585938 C 203.109375 383.351562 202.566406 383.140625 202.011719 382.960938 C 201.457031 382.777344 200.894531 382.621094 200.324219 382.496094 C 199.753906 382.367188 199.179688 382.269531 198.597656 382.199219 C 198.019531 382.128906 197.4375 382.085938 196.855469 382.070312 L 185.765625 382.070312 L 185.765625 418.417969 Z M 197.753906 418.417969 " fill-opacity="1" fill-rule="nonzero"/><path fill="#58595b" d="M 282.496094 414.972656 L 257.613281 414.972656 L 252.519531 426.660156 L 242.777344 426.660156 L 264.929688 379.761719 L 262.011719 373.828125 L 272.453125 373.828125 L 297.410156 426.660156 L 287.742188 426.660156 Z M 260.914062 407.476562 L 279.273438 407.476562 L 270.054688 386.792969 Z M 260.914062 407.476562 " fill-opacity="1" fill-rule="nonzero"/><path fill="#58595b" d="M 365.015625 418.871094 L 332.351562 418.871094 L 365.976562 373.828125 L 320.515625 373.828125 L 320.515625 381.621094 L 349.664062 381.621094 L 316.226562 426.667969 L 365.015625 426.667969 Z M 365.015625 418.871094 " fill-opacity="1" fill-rule="nonzero"/><path fill="#58595b" d="M 499.277344 419.09375 L 499.277344 426.664062 L 462.101562 426.664062 L 462.101562 373.828125 L 471.320312 373.828125 L 471.320312 419.09375 Z M 499.277344 419.09375 " fill-opacity="1" fill-rule="nonzero"/><path fill="#58595b" d="M 562.835938 418.871094 L 562.835938 426.667969 L 523.113281 426.667969 L 523.113281 373.828125 L 561.257812 373.828125 L 561.257812 381.621094 L 532.105469 381.621094 L 532.105469 397.28125 L 556.613281 397.28125 L 556.613281 404.777344 L 532.105469 404.777344 L 532.105469 418.871094 Z M 562.835938 418.871094 " fill-opacity="1" fill-rule="nonzero"/><path fill="#58595b" d="M 611.347656 411.972656 C 610.523438 412.050781 609.625 412.050781 608.800781 412.050781 L 597.859375 412.050781 L 597.859375 426.664062 L 588.640625 426.664062 L 588.640625 373.824219 L 611.421875 373.824219 C 626.484375 373.824219 631.660156 382.746094 631.660156 392.414062 C 631.75 393.351562 631.761719 394.292969 631.699219 395.234375 C 631.636719 396.171875 631.496094 397.101562 631.277344 398.019531 C 631.058594 398.9375 630.769531 399.832031 630.40625 400.699219 C 630.039062 401.570312 629.609375 402.402344 629.105469 403.199219 C 628.605469 404 628.039062 404.75 627.414062 405.457031 C 626.789062 406.160156 626.109375 406.808594 625.378906 407.402344 C 624.644531 407.996094 623.867188 408.523438 623.046875 408.988281 C 622.226562 409.453125 621.375 409.847656 620.492188 410.175781 L 633.230469 426.664062 L 622.136719 426.664062 Z M 597.859375 404.628906 L 608.425781 404.628906 C 617.34375 404.628906 621.992188 400.207031 621.992188 393.015625 C 622.023438 392.621094 622.03125 392.226562 622.019531 391.832031 C 622.007812 391.433594 621.972656 391.042969 621.917969 390.652344 C 621.859375 390.257812 621.785156 389.871094 621.683594 389.488281 C 621.585938 389.109375 621.464844 388.730469 621.324219 388.363281 C 621.183594 387.992188 621.019531 387.632812 620.839844 387.28125 C 620.660156 386.929688 620.457031 386.589844 620.238281 386.261719 C 620.019531 385.933594 619.78125 385.617188 619.527344 385.316406 C 619.273438 385.011719 619.003906 384.726562 618.714844 384.453125 C 618.429688 384.179688 618.128906 383.925781 617.8125 383.6875 C 617.5 383.449219 617.171875 383.226562 616.832031 383.023438 C 616.492188 382.824219 616.140625 382.640625 615.78125 382.476562 C 615.421875 382.3125 615.054688 382.171875 614.679688 382.050781 C 614.300781 381.925781 613.921875 381.828125 613.535156 381.746094 C 613.144531 381.667969 612.753906 381.609375 612.363281 381.574219 C 611.96875 381.539062 611.574219 381.523438 611.179688 381.53125 C 610.785156 381.539062 610.390625 381.570312 610 381.621094 L 597.859375 381.621094 Z M 597.859375 404.628906 " fill-opacity="1" fill-rule="nonzero"/><path fill="#58595b" d="M 320.417969 352.933594 L 365.976562 352.933594 L 365.976562 359.902344 L 320.417969 359.902344 Z M 320.417969 352.933594 " fill-opacity="1" fill-rule="nonzero"/><path fill="#58595b" d="M 389.066406 440.59375 L 434.628906 440.59375 L 434.628906 447.558594 L 389.066406 447.558594 Z M 389.066406 440.59375 " fill-opacity="1" fill-rule="nonzero"/><path fill="#58595b" d="M 434.65625 418.871094 L 401.988281 418.871094 L 435.617188 373.828125 L 390.152344 373.828125 L 390.152344 381.621094 L 419.300781 381.621094 L 385.867188 426.667969 L 434.65625 426.667969 Z M 434.65625 418.871094 " fill-opacity="1" fill-rule="nonzero"/></svg>