<svg xmlns="http://www.w3.org/2000/svg" xmlns:xlink="http://www.w3.org/1999/xlink" width="1080" zoomAndPan="magnify" viewBox="0 0 810 809.999993" height="1080" preserveAspectRatio="xMidYMid meet" version="1.0"><rect x="-81" width="972" fill="#ffffff" y="-80.999999" height="971.999992" fill-opacity="1"/><rect x="-81" width="972" fill="#ffffff" y="-80.999999" height="971.999992" fill-opacity="1"/><path fill="#58595b" d="M 386.21875 346.136719 C 386.21875 341.714844 384.03125 341 380.703125 341 L 377.042969 341 L 377.042969 368.578125 L 381.226562 368.578125 C 384.316406 368.578125 385.980469 367.628906 385.980469 363.109375 Z M 386.21875 346.136719 " fill-opacity="1" fill-rule="nonzero"/><path fill="#58595b" d="M 482.882812 366.152344 L 482.882812 345.707031 C 482.882812 341.808594 480.792969 340.953125 478.128906 340.953125 L 474.992188 340.953125 L 474.992188 370.859375 L 478.128906 370.859375 C 480.648438 370.90625 482.882812 370.050781 482.882812 366.152344 Z M 482.882812 366.152344 " fill-opacity="1" fill-rule="nonzero"/><path fill="#58595b" d="M 427.632812 482.929688 L 426.160156 482.929688 L 426.160156 492.441406 L 427.488281 492.441406 C 429.25 492.441406 429.582031 491.15625 429.582031 487.6875 C 429.582031 485.117188 429.582031 482.929688 427.632812 482.929688 Z M 427.632812 482.929688 " fill-opacity="1" fill-rule="nonzero"/><path fill="#58595b" d="M 463.484375 483.453125 L 462.152344 489.253906 L 464.863281 489.253906 Z M 463.484375 483.453125 " fill-opacity="1" fill-rule="nonzero"/><path fill="#58595b" d="M 300.394531 300.632812 L 300.394531 509.605469 L 509.605469 509.605469 L 509.605469 300.632812 Z M 324.167969 494.53125 L 318.9375 494.53125 L 318.9375 481.078125 L 324.167969 481.078125 C 326.308594 481.078125 328.066406 481.695312 328.066406 484.546875 C 328.101562 484.894531 328.074219 485.238281 327.976562 485.574219 C 327.882812 485.910156 327.730469 486.21875 327.515625 486.496094 C 327.304688 486.773438 327.050781 487.003906 326.75 487.183594 C 326.453125 487.363281 326.128906 487.484375 325.785156 487.542969 C 327.78125 487.828125 328.304688 489.113281 328.304688 490.964844 C 328.296875 491.222656 328.261719 491.476562 328.203125 491.726562 C 328.140625 491.976562 328.054688 492.214844 327.945312 492.445312 C 327.835938 492.679688 327.699219 492.898438 327.546875 493.101562 C 327.390625 493.304688 327.214844 493.492188 327.019531 493.65625 C 326.824219 493.824219 326.617188 493.972656 326.390625 494.09375 C 326.167969 494.21875 325.929688 494.320312 325.6875 494.394531 C 325.441406 494.46875 325.191406 494.519531 324.933594 494.542969 C 324.679688 494.566406 324.421875 494.5625 324.167969 494.53125 Z M 342.332031 489.777344 L 342.332031 494.53125 L 339.335938 494.53125 L 339.335938 489.777344 L 335.769531 481.078125 L 338.859375 481.078125 L 340.859375 486.78125 L 343.1875 481.078125 L 346.089844 481.078125 Z M 346.277344 341.144531 L 336.769531 341.144531 L 336.769531 410.800781 L 329.875 410.800781 L 329.875 341 L 320.363281 341 L 320.363281 335.105469 L 346.039062 335.105469 Z M 376.804688 494.34375 L 373.617188 494.34375 L 371.714844 484.5 L 369.386719 494.34375 L 366.34375 494.34375 L 363.15625 481.078125 L 366.058594 481.078125 L 367.816406 490.585938 L 369.957031 481.078125 L 373.285156 481.078125 L 375.28125 490.585938 L 376.996094 481.078125 L 379.753906 481.078125 Z M 381.558594 374.425781 L 377.230469 374.425781 L 377.230469 410.800781 L 370.574219 410.800781 L 370.574219 335.105469 L 382.652344 335.105469 C 388.882812 335.105469 392.734375 336.246094 392.734375 343.804688 L 392.734375 362.824219 C 392.734375 368.671875 390.640625 370.71875 385.601562 371.003906 L 385.601562 371.242188 C 390.355469 371.527344 393.019531 373 393.019531 378.230469 L 393.019531 410.609375 L 386.503906 410.609375 L 386.503906 379.039062 C 386.503906 375.328125 384.460938 374.285156 381.367188 374.285156 Z M 392.875 489.636719 L 392.875 494.390625 L 390.070312 494.390625 L 390.070312 489.636719 L 386.410156 481.078125 L 389.453125 481.078125 L 391.496094 486.78125 L 393.636719 481.078125 L 396.441406 481.078125 Z M 414.558594 494.390625 L 410.847656 494.390625 L 407.140625 484.546875 L 407.140625 494.390625 L 404.476562 494.390625 L 404.476562 481.078125 L 408.28125 481.078125 L 411.894531 490.585938 L 411.894531 481.078125 L 414.507812 481.078125 Z M 428.0625 494.390625 L 423.304688 494.390625 L 423.304688 481.078125 L 428.0625 481.078125 C 431.722656 481.078125 432.433594 483.550781 432.433594 487.734375 C 432.433594 489.777344 432.71875 494.53125 427.679688 494.53125 Z M 433.242188 410.800781 L 426.632812 410.800781 L 426.632812 377.898438 L 417.125 335.105469 L 423.734375 335.105469 L 429.960938 369.527344 L 436.191406 335.105469 L 442.707031 335.105469 L 433.195312 377.898438 Z M 450.21875 494.34375 L 447.460938 494.34375 L 447.460938 488.304688 L 444.226562 488.304688 L 444.226562 494.34375 L 441.277344 494.34375 L 441.277344 481.078125 L 444.085938 481.078125 L 444.085938 486.308594 L 447.460938 486.308594 L 447.460938 481.078125 L 450.265625 481.078125 Z M 466.289062 494.34375 L 465.527344 491.347656 L 461.675781 491.347656 L 460.917969 494.34375 L 458.160156 494.34375 L 461.675781 481.078125 L 465.433594 481.078125 L 469.046875 494.582031 Z M 474.847656 410.800781 L 468.238281 410.800781 L 468.238281 335.105469 L 478.558594 335.105469 C 486.925781 335.105469 489.398438 338.050781 489.398438 346.660156 L 489.398438 365.203125 C 489.398438 373.808594 486.925781 376.707031 478.558594 376.707031 L 474.753906 376.707031 Z M 490.160156 494.34375 L 487.402344 494.34375 L 487.402344 483.929688 L 484.832031 494.34375 L 482.121094 494.34375 L 479.648438 483.929688 L 479.648438 494.34375 L 476.941406 494.34375 L 476.941406 481.078125 L 481.695312 481.078125 L 483.835938 490.253906 L 485.832031 481.078125 L 490.160156 481.078125 Z M 490.160156 494.34375 " fill-opacity="1" fill-rule="nonzero"/><path fill="#58595b" d="M 325.121094 484.644531 C 325.132812 484.429688 325.105469 484.21875 325.035156 484.015625 C 324.964844 483.8125 324.855469 483.632812 324.714844 483.472656 C 324.570312 483.308594 324.402344 483.183594 324.210938 483.089844 C 324.015625 482.996094 323.8125 482.941406 323.597656 482.929688 L 321.742188 482.929688 L 321.742188 486.355469 L 323.644531 486.355469 C 323.839844 486.359375 324.027344 486.328125 324.207031 486.257812 C 324.386719 486.191406 324.546875 486.089844 324.683594 485.953125 C 324.824219 485.820312 324.929688 485.664062 325.007812 485.484375 C 325.082031 485.308594 325.121094 485.121094 325.121094 484.929688 Z M 325.121094 484.644531 " fill-opacity="1" fill-rule="nonzero"/><path fill="#58595b" d="M 323.40625 488.398438 L 321.742188 488.398438 L 321.742188 492.25 L 323.3125 492.25 C 323.929688 492.25 325.261719 492.25 325.261719 490.347656 C 325.261719 488.445312 324.835938 488.398438 323.40625 488.398438 Z M 323.40625 488.398438 " fill-opacity="1" fill-rule="nonzero"/></svg>