<svg xmlns="http://www.w3.org/2000/svg" xmlns:xlink="http://www.w3.org/1999/xlink" width="1080" zoomAndPan="magnify" viewBox="0 0 810 809.999993" height="1080" preserveAspectRatio="xMidYMid meet" version="1.0"><rect x="-81" width="972" fill="#ffffff" y="-80.999999" height="971.999992" fill-opacity="1"/><rect x="-81" width="972" fill="#ffffff" y="-80.999999" height="971.999992" fill-opacity="1"/><path fill="#58595b" d="M 205.296875 347.417969 L 216.949219 347.417969 L 227.121094 381.226562 L 238.203125 347.085938 L 247.710938 347.085938 L 258.789062 381.226562 L 269.011719 347.230469 L 280.375 347.230469 L 263.308594 398.011719 L 253.796875 398.011719 L 242.765625 365.105469 L 231.640625 398.011719 L 222.128906 398.011719 Z M 205.296875 347.417969 " fill-opacity="1" fill-rule="nonzero"/><path fill="#58595b" d="M 300.394531 377.851562 L 281.375 347.417969 L 294.070312 347.417969 L 305.816406 367.578125 L 317.796875 347.417969 L 330.113281 347.417969 L 311.09375 377.613281 L 311.09375 397.628906 L 300.394531 397.628906 Z M 300.394531 377.851562 " fill-opacity="1" fill-rule="nonzero"/><path fill="#58595b" d="M 336.578125 347.417969 L 346.5625 347.417969 L 369.671875 378.324219 L 369.671875 347.417969 L 380.371094 347.417969 L 380.371094 397.628906 L 371.144531 397.628906 L 347.371094 365.675781 L 347.371094 397.628906 L 336.578125 397.628906 Z M 336.578125 347.417969 " fill-opacity="1" fill-rule="nonzero"/><path fill="#58595b" d="M 391.875 347.417969 L 410.894531 347.417969 C 411.707031 347.371094 412.519531 347.363281 413.332031 347.394531 C 414.144531 347.425781 414.953125 347.5 415.757812 347.609375 C 416.5625 347.722656 417.363281 347.871094 418.152344 348.0625 C 418.941406 348.253906 419.722656 348.480469 420.492188 348.746094 C 421.257812 349.015625 422.011719 349.316406 422.75 349.660156 C 423.488281 350 424.207031 350.375 424.90625 350.789062 C 425.609375 351.199219 426.289062 351.644531 426.945312 352.125 C 427.601562 352.601562 428.234375 353.113281 428.84375 353.652344 C 429.449219 354.195312 430.027344 354.765625 430.578125 355.363281 C 431.128906 355.960938 431.648438 356.582031 432.140625 357.230469 C 432.628906 357.882812 433.085938 358.554688 433.507812 359.246094 C 433.933594 359.941406 434.320312 360.65625 434.675781 361.386719 C 435.027344 362.117188 435.34375 362.867188 435.621094 363.628906 C 435.902344 364.394531 436.144531 365.167969 436.347656 365.957031 C 436.550781 366.742188 436.714844 367.539062 436.839844 368.34375 C 436.964844 369.144531 437.050781 369.953125 437.09375 370.765625 C 437.09375 371.289062 437.09375 371.8125 437.09375 372.382812 C 437.101562 373.195312 437.070312 374.011719 437 374.820312 C 436.925781 375.632812 436.816406 376.441406 436.664062 377.242188 C 436.511719 378.042969 436.324219 378.832031 436.09375 379.617188 C 435.863281 380.398438 435.597656 381.167969 435.292969 381.925781 C 434.988281 382.679688 434.648438 383.417969 434.273438 384.140625 C 433.894531 384.863281 433.484375 385.566406 433.039062 386.25 C 432.59375 386.933594 432.113281 387.589844 431.605469 388.226562 C 431.09375 388.863281 430.554688 389.46875 429.984375 390.054688 C 429.414062 390.636719 428.816406 391.1875 428.191406 391.710938 C 427.566406 392.234375 426.917969 392.726562 426.246094 393.1875 C 425.570312 393.648438 424.878906 394.074219 424.164062 394.464844 C 423.449219 394.859375 422.714844 395.214844 421.96875 395.535156 C 421.21875 395.855469 420.453125 396.136719 419.675781 396.382812 C 418.898438 396.628906 418.113281 396.832031 417.316406 397 C 416.515625 397.167969 415.714844 397.296875 414.902344 397.386719 C 414.09375 397.476562 413.28125 397.527344 412.464844 397.535156 L 391.875 397.535156 Z M 410.894531 387.691406 C 411.835938 387.734375 412.773438 387.683594 413.703125 387.539062 C 414.632812 387.394531 415.539062 387.160156 416.425781 386.835938 C 417.308594 386.515625 418.152344 386.105469 418.957031 385.617188 C 419.761719 385.125 420.507812 384.5625 421.199219 383.921875 C 421.890625 383.285156 422.515625 382.582031 423.066406 381.820312 C 423.621094 381.058594 424.09375 380.25 424.484375 379.394531 C 424.878906 378.539062 425.183594 377.652344 425.402344 376.738281 C 425.621094 375.820312 425.746094 374.890625 425.777344 373.949219 C 425.824219 373.523438 425.824219 373.09375 425.777344 372.667969 C 425.84375 371.734375 425.816406 370.808594 425.699219 369.878906 C 425.582031 368.953125 425.375 368.046875 425.078125 367.164062 C 424.785156 366.277344 424.40625 365.429688 423.941406 364.617188 C 423.480469 363.804688 422.945312 363.046875 422.332031 362.339844 C 421.722656 361.636719 421.046875 360.996094 420.3125 360.421875 C 419.574219 359.847656 418.789062 359.351562 417.957031 358.933594 C 417.121094 358.511719 416.253906 358.179688 415.355469 357.929688 C 414.453125 357.679688 413.539062 357.519531 412.609375 357.453125 L 402.71875 357.453125 L 402.71875 387.738281 Z M 410.894531 387.691406 " fill-opacity="1" fill-rule="nonzero"/><path fill="#58595b" d="M 446.652344 347.417969 L 457.304688 347.417969 L 457.304688 367.246094 L 477.367188 367.246094 L 477.367188 347.417969 L 488.304688 347.417969 L 488.304688 397.628906 L 477.464844 397.628906 L 477.464844 377.46875 L 457.304688 377.46875 L 457.304688 397.628906 L 446.652344 397.628906 Z M 446.652344 347.417969 " fill-opacity="1" fill-rule="nonzero"/><path fill="#58595b" d="M 516.738281 347.039062 L 526.769531 347.039062 L 547.976562 397.628906 L 536.613281 397.628906 L 531.859375 386.410156 L 511.269531 386.410156 L 506.515625 397.628906 L 495.339844 397.628906 Z M 528.195312 376.472656 L 521.636719 360.160156 L 515.074219 376.472656 Z M 528.195312 376.472656 " fill-opacity="1" fill-rule="nonzero"/><path fill="#58595b" d="M 555.203125 347.417969 L 567.089844 347.417969 L 580.023438 368.625 L 593.003906 347.417969 L 604.703125 347.417969 L 604.703125 397.628906 L 593.90625 397.628906 L 593.90625 364.820312 L 580.023438 386.3125 L 579.738281 386.3125 L 565.996094 365.058594 L 565.996094 397.628906 L 555.394531 397.628906 Z M 555.203125 347.417969 " fill-opacity="1" fill-rule="nonzero"/><path fill="#58595b" d="M 206.058594 443.039062 C 206.046875 442.390625 206.070312 441.746094 206.121094 441.101562 C 206.171875 440.457031 206.257812 439.816406 206.371094 439.183594 C 206.488281 438.546875 206.632812 437.917969 206.8125 437.296875 C 206.988281 436.675781 207.195312 436.0625 207.433594 435.460938 C 207.671875 434.859375 207.9375 434.273438 208.230469 433.695312 C 208.527344 433.121094 208.847656 432.5625 209.199219 432.019531 C 209.550781 431.476562 209.925781 430.949219 210.328125 430.445312 C 210.726562 429.9375 211.152344 429.453125 211.601562 428.988281 C 212.050781 428.523438 212.523438 428.082031 213.015625 427.664062 C 213.507812 427.242188 214.019531 426.851562 214.550781 426.484375 C 215.082031 426.113281 215.632812 425.773438 216.195312 425.457031 C 216.761719 425.144531 217.339844 424.859375 217.933594 424.601562 C 218.523438 424.34375 219.128906 424.117188 219.746094 423.917969 C 220.359375 423.71875 220.984375 423.554688 221.617188 423.417969 C 222.246094 423.28125 222.882812 423.175781 223.527344 423.101562 C 224.167969 423.027344 224.8125 422.984375 225.457031 422.972656 L 226.03125 422.972656 C 227.386719 422.898438 228.738281 422.960938 230.082031 423.152344 C 231.425781 423.347656 232.738281 423.667969 234.019531 424.121094 C 235.300781 424.574219 236.527344 425.148438 237.695312 425.84375 C 238.863281 426.539062 239.949219 427.339844 240.960938 428.25 L 235.679688 434.765625 C 234.355469 433.46875 232.832031 432.476562 231.109375 431.792969 C 229.386719 431.109375 227.597656 430.785156 225.742188 430.816406 C 224.980469 430.855469 224.230469 430.964844 223.492188 431.152344 C 222.75 431.335938 222.035156 431.59375 221.347656 431.921875 C 220.65625 432.25 220.007812 432.640625 219.398438 433.101562 C 218.785156 433.558594 218.226562 434.070312 217.71875 434.636719 C 217.207031 435.207031 216.761719 435.820312 216.375 436.476562 C 215.988281 437.136719 215.667969 437.824219 215.417969 438.546875 C 215.167969 439.265625 214.992188 440.003906 214.890625 440.761719 C 214.789062 441.519531 214.761719 442.277344 214.808594 443.039062 C 214.757812 443.789062 214.777344 444.542969 214.875 445.289062 C 214.972656 446.039062 215.140625 446.769531 215.382812 447.484375 C 215.625 448.199219 215.933594 448.882812 216.308594 449.539062 C 216.683594 450.191406 217.121094 450.804688 217.617188 451.371094 C 218.117188 451.9375 218.664062 452.453125 219.261719 452.910156 C 219.859375 453.371094 220.496094 453.765625 221.175781 454.101562 C 221.851562 454.433594 222.554688 454.699219 223.285156 454.894531 C 224.011719 455.089844 224.753906 455.210938 225.507812 455.257812 L 226.265625 455.257812 C 227.707031 455.238281 229.109375 455 230.476562 454.535156 C 231.839844 454.074219 233.101562 453.410156 234.253906 452.546875 L 234.253906 447.269531 L 225.792969 447.269531 L 225.792969 439.949219 L 242.339844 439.949219 L 242.339844 456.78125 C 240.101562 458.773438 237.578125 460.304688 234.777344 461.367188 C 231.976562 462.433594 229.074219 462.964844 226.078125 462.960938 C 225.453125 462.996094 224.828125 462.996094 224.203125 462.96875 C 223.578125 462.941406 222.953125 462.882812 222.335938 462.792969 C 221.714844 462.703125 221.101562 462.582031 220.492188 462.433594 C 219.886719 462.28125 219.289062 462.101562 218.699219 461.894531 C 218.109375 461.683594 217.53125 461.445312 216.964844 461.179688 C 216.398438 460.914062 215.84375 460.621094 215.308594 460.296875 C 214.769531 459.976562 214.25 459.632812 213.746094 459.257812 C 213.242188 458.886719 212.761719 458.492188 212.296875 458.070312 C 211.832031 457.652344 211.390625 457.207031 210.96875 456.746094 C 210.550781 456.28125 210.152344 455.796875 209.78125 455.296875 C 209.40625 454.792969 209.058594 454.273438 208.738281 453.734375 C 208.417969 453.199219 208.121094 452.648438 207.855469 452.082031 C 207.589844 451.515625 207.351562 450.9375 207.140625 450.347656 C 206.929688 449.757812 206.75 449.160156 206.597656 448.550781 C 206.449219 447.945312 206.328125 447.332031 206.238281 446.710938 C 206.148438 446.09375 206.089844 445.46875 206.058594 444.84375 Z M 206.058594 443.039062 " fill-opacity="1" fill-rule="nonzero"/><path fill="#58595b" d="M 263.164062 423.210938 L 270.867188 423.210938 L 287.175781 462.058594 L 278.476562 462.058594 L 275.003906 453.402344 L 258.835938 453.402344 L 255.367188 462.058594 L 246.855469 462.058594 Z M 271.867188 446.035156 L 267.109375 433.527344 L 262.023438 445.9375 Z M 271.867188 446.035156 " fill-opacity="1" fill-rule="nonzero"/><path fill="#58595b" d="M 292.835938 423.496094 L 310.238281 423.496094 C 312.269531 423.375 314.246094 423.652344 316.167969 424.328125 C 318.089844 425.003906 319.804688 426.027344 321.316406 427.394531 C 322.414062 428.609375 323.246094 429.988281 323.8125 431.523438 C 324.378906 433.0625 324.640625 434.648438 324.597656 436.285156 C 324.625 436.9375 324.601562 437.585938 324.523438 438.230469 C 324.449219 438.878906 324.320312 439.515625 324.144531 440.140625 C 323.964844 440.765625 323.738281 441.375 323.464844 441.964844 C 323.1875 442.554688 322.867188 443.117188 322.5 443.65625 C 322.136719 444.195312 321.730469 444.703125 321.28125 445.175781 C 320.835938 445.648438 320.351562 446.082031 319.835938 446.476562 C 319.320312 446.875 318.773438 447.226562 318.199219 447.535156 C 317.628906 447.84375 317.035156 448.101562 316.417969 448.316406 L 325.925781 462.199219 L 315.894531 462.199219 L 307.765625 449.835938 L 301.203125 449.835938 L 301.203125 462.058594 L 292.835938 462.058594 Z M 309.523438 442.515625 C 313.613281 442.515625 315.941406 440.28125 315.941406 437.046875 C 315.941406 433.386719 313.421875 431.4375 309.382812 431.4375 L 301.203125 431.4375 L 301.203125 442.609375 Z M 309.523438 442.515625 " fill-opacity="1" fill-rule="nonzero"/><path fill="#58595b" d="M 331.871094 423.496094 L 346.707031 423.496094 C 347.332031 423.453125 347.957031 423.441406 348.582031 423.464844 C 349.210938 423.484375 349.832031 423.535156 350.453125 423.617188 C 351.074219 423.699219 351.691406 423.808594 352.300781 423.953125 C 352.910156 424.09375 353.511719 424.265625 354.105469 424.46875 C 354.699219 424.671875 355.28125 424.902344 355.851562 425.160156 C 356.421875 425.421875 356.976562 425.707031 357.519531 426.019531 C 358.058594 426.335938 358.585938 426.675781 359.09375 427.042969 C 359.601562 427.410156 360.089844 427.800781 360.558594 428.214844 C 361.03125 428.628906 361.476562 429.066406 361.902344 429.523438 C 362.332031 429.980469 362.734375 430.460938 363.113281 430.960938 C 363.492188 431.457031 363.84375 431.972656 364.175781 432.507812 C 364.503906 433.042969 364.804688 433.589844 365.078125 434.152344 C 365.351562 434.714844 365.597656 435.292969 365.8125 435.878906 C 366.03125 436.46875 366.21875 437.0625 366.378906 437.671875 C 366.535156 438.277344 366.664062 438.890625 366.761719 439.507812 C 366.859375 440.125 366.925781 440.75 366.960938 441.375 C 366.960938 441.800781 366.960938 442.183594 366.960938 442.5625 C 366.976562 443.183594 366.960938 443.804688 366.917969 444.425781 C 366.871094 445.046875 366.796875 445.664062 366.691406 446.277344 C 366.585938 446.890625 366.449219 447.496094 366.285156 448.097656 C 366.121094 448.695312 365.925781 449.285156 365.703125 449.867188 C 365.480469 450.449219 365.226562 451.015625 364.949219 451.574219 C 364.667969 452.128906 364.363281 452.671875 364.03125 453.195312 C 363.699219 453.722656 363.34375 454.230469 362.960938 454.722656 C 362.578125 455.214844 362.175781 455.683594 361.746094 456.136719 C 361.316406 456.585938 360.867188 457.015625 360.398438 457.421875 C 359.925781 457.832031 359.4375 458.214844 358.929688 458.574219 C 358.421875 458.933594 357.898438 459.265625 357.355469 459.574219 C 356.816406 459.882812 356.261719 460.164062 355.695312 460.414062 C 355.125 460.667969 354.546875 460.894531 353.957031 461.089844 C 353.367188 461.289062 352.765625 461.453125 352.160156 461.59375 C 351.554688 461.730469 350.941406 461.835938 350.324219 461.914062 C 349.707031 461.992188 349.085938 462.039062 348.464844 462.058594 L 331.871094 462.058594 Z M 346.707031 454.59375 C 347.425781 454.628906 348.140625 454.59375 348.855469 454.488281 C 349.566406 454.382812 350.261719 454.207031 350.941406 453.964844 C 351.617188 453.722656 352.265625 453.414062 352.886719 453.046875 C 353.503906 452.675781 354.078125 452.25 354.613281 451.765625 C 355.148438 451.28125 355.628906 450.75 356.058594 450.171875 C 356.488281 449.59375 356.859375 448.980469 357.167969 448.332031 C 357.476562 447.679688 357.71875 447.003906 357.894531 446.304688 C 358.070312 445.609375 358.175781 444.898438 358.210938 444.179688 L 358.210938 443.039062 C 358.25 442.320312 358.214844 441.609375 358.113281 440.898438 C 358.007812 440.1875 357.839844 439.496094 357.601562 438.820312 C 357.363281 438.140625 357.0625 437.496094 356.699219 436.875 C 356.335938 436.257812 355.917969 435.679688 355.441406 435.144531 C 354.96875 434.605469 354.445312 434.121094 353.875 433.683594 C 353.304688 433.25 352.699219 432.871094 352.054688 432.554688 C 351.414062 432.238281 350.746094 431.984375 350.054688 431.796875 C 349.363281 431.609375 348.65625 431.488281 347.941406 431.4375 L 340.335938 431.4375 L 340.335938 454.640625 Z M 346.707031 454.59375 " fill-opacity="1" fill-rule="nonzero"/><path fill="#58595b" d="M 374.140625 423.496094 L 402.671875 423.496094 L 402.671875 431.054688 L 382.460938 431.054688 L 382.460938 438.949219 L 400.246094 438.949219 L 400.246094 446.507812 L 382.460938 446.507812 L 382.460938 454.6875 L 403.144531 454.6875 L 403.144531 462.058594 L 374.140625 462.058594 Z M 374.140625 423.496094 " fill-opacity="1" fill-rule="nonzero"/><path fill="#58595b" d="M 410.277344 423.496094 L 418.027344 423.496094 L 435.859375 447.269531 L 435.859375 423.496094 L 444.132812 423.496094 L 444.132812 462.058594 L 437 462.058594 L 418.550781 437.425781 L 418.550781 462.058594 L 410.277344 462.058594 Z M 410.277344 423.496094 " fill-opacity="1" fill-rule="nonzero"/></svg>