<svg xmlns="http://www.w3.org/2000/svg" xmlns:xlink="http://www.w3.org/1999/xlink" width="1080" zoomAndPan="magnify" viewBox="0 0 810 809.999993" height="1080" preserveAspectRatio="xMidYMid meet" version="1.0"><rect x="-81" width="972" fill="#ffffff" y="-80.999999" height="971.999992" fill-opacity="1"/><rect x="-81" width="972" fill="#ffffff" y="-80.999999" height="971.999992" fill-opacity="1"/><path fill="#58595b" d="M 75.136719 376.679688 L 80.746094 376.679688 L 80.464844 435.558594 L 74.578125 435.558594 L 74.578125 438.359375 C 88.875 438.082031 99.808594 438.082031 109.34375 432.191406 C 114.390625 429.390625 117.472656 425.464844 117.472656 420.699219 C 117.472656 415.929688 114.109375 410.605469 108.5 406.679688 C 105.976562 404.996094 103.734375 404.15625 101.492188 403.035156 C 107.941406 399.949219 116.070312 395.464844 116.070312 387.335938 C 116.070312 380.324219 110.746094 376.679688 108.222656 375.277344 C 105.417969 373.875 102.332031 373.597656 94.203125 373.597656 C 86.351562 373.597656 81.585938 373.875 74.578125 374.15625 Z M 90.558594 376.679688 C 94.484375 376.679688 99.25 376.398438 103.175781 380.324219 C 105.136719 382.289062 107.378906 386.492188 107.378906 389.859375 C 107.378906 397.425781 98.40625 402.753906 95.042969 404.4375 C 94.203125 404.71875 93.082031 405.558594 93.082031 406.679688 C 93.082031 407.800781 93.921875 408.082031 94.484375 408.363281 C 95.605469 408.640625 96.445312 408.921875 97.566406 409.484375 C 105.976562 412.566406 108.78125 419.296875 108.78125 423.222656 C 108.78125 426.585938 107.097656 429.390625 103.453125 431.351562 C 99.25 433.875 93.921875 434.15625 89.996094 434.714844 C 89.996094 402.195312 90.277344 394.902344 90.558594 376.679688 M 129.808594 438.359375 C 132.050781 433.875 132.613281 432.753906 139.339844 421.539062 C 140.742188 419.015625 142.425781 416.492188 143.828125 413.6875 C 147.472656 407.519531 147.753906 407.519531 151.117188 407.238281 L 163.171875 407.238281 C 165.695312 407.238281 167.378906 407.238281 168.78125 406.960938 C 170.179688 406.679688 171.304688 406.398438 172.703125 405.839844 C 176.070312 412.566406 181.675781 423.222656 185.039062 430.230469 C 187.84375 435.835938 187.84375 436.398438 188.6875 438.921875 C 193.171875 437.519531 194.011719 437.238281 198.5 436.679688 C 195.695312 430.230469 194.574219 428.265625 184.761719 408.921875 C 174.105469 387.894531 169.058594 376.121094 168.78125 375.277344 C 168.21875 374.15625 168.21875 373.875 168.21875 372.753906 C 164.855469 373.316406 163.734375 373.316406 160.367188 373.597656 C 156.164062 384.25 149.996094 393.78125 143.828125 403.316406 C 141.304688 407.519531 138.5 411.445312 135.976562 415.371094 C 133.734375 418.453125 131.492188 421.539062 129.527344 424.902344 C 125.605469 430.789062 123.921875 433.3125 121.398438 438.082031 Z M 162.613281 382.847656 C 165.414062 389.859375 166.535156 392.378906 171.582031 403.035156 C 169.339844 403.875 167.660156 404.4375 162.050781 404.4375 C 159.527344 404.4375 156.164062 404.4375 153.359375 404.15625 C 151.675781 404.15625 150.835938 403.875 150.835938 403.035156 C 150.835938 402.472656 151.675781 401.070312 152.238281 400.230469 C 155.320312 394.34375 158.6875 388.457031 162.613281 382.847656 M 213.078125 437.519531 C 213.078125 427.988281 213.359375 417.894531 213.917969 408.363281 C 214.199219 401.351562 214.199219 398.269531 214.199219 394.0625 C 214.199219 391.539062 214.199219 388.734375 214.199219 386.210938 C 216.160156 389.296875 216.160156 389.296875 224.574219 397.707031 C 233.542969 406.679688 242.234375 415.652344 251.207031 424.621094 C 260.738281 433.875 260.738281 434.15625 265.785156 439.480469 C 268.871094 437.519531 269.992188 436.679688 273.355469 434.714844 C 272.515625 433.59375 272.234375 432.191406 271.953125 430.789062 C 271.394531 426.023438 271.113281 414.53125 271.113281 411.164062 C 271.113281 404.996094 271.394531 398.828125 271.394531 392.941406 C 271.671875 384.25 271.671875 382.847656 271.953125 373.035156 C 268.589844 374.15625 267.46875 374.4375 263.542969 375 C 264.105469 383.691406 264.105469 386.773438 264.105469 403.035156 L 264.105469 411.445312 C 264.105469 418.175781 264.105469 419.855469 264.664062 425.464844 C 259.058594 419.578125 258.214844 418.734375 250.925781 411.726562 C 245.601562 406.679688 232.984375 394.0625 229.617188 390.699219 C 220.648438 381.445312 217.5625 377.242188 214.757812 373.035156 C 210.273438 373.875 209.152344 373.875 205.789062 374.15625 C 206.628906 380.605469 206.910156 387.613281 206.910156 394.902344 C 206.910156 403.316406 205.507812 432.753906 205.507812 436.117188 C 205.507812 437.519531 205.226562 438.921875 205.226562 440.605469 Z M 317.375 408.921875 C 323.261719 403.316406 328.308594 398.550781 338.960938 385.089844 C 343.167969 379.765625 345.128906 376.679688 347.933594 372.753906 L 347.652344 372.195312 C 344.007812 372.476562 343.167969 372.476562 339.800781 372.753906 C 338.402344 375.839844 337.839844 377.519531 333.632812 383.410156 C 330.269531 388.175781 327.1875 392.101562 322.699219 396.867188 C 319.617188 400.230469 318.214844 401.351562 315.128906 403.59375 C 310.644531 399.109375 308.960938 397.425781 299.429688 385.371094 C 294.382812 379.203125 292.699219 376.960938 287.65625 369.671875 C 283.167969 371.632812 282.046875 372.195312 277.28125 373.597656 C 280.085938 377.800781 280.363281 378.082031 285.132812 383.410156 C 287.09375 385.652344 295.222656 395.746094 296.90625 397.707031 C 301.390625 403.035156 303.636719 405.558594 307.839844 409.761719 L 307.839844 418.734375 C 307.839844 422.097656 307.558594 425.464844 307.558594 428.546875 L 307.558594 438.359375 C 312.046875 438.082031 312.886719 438.082031 317.652344 437.800781 C 317.375 432.472656 317.375 430.789062 317.09375 425.183594 L 317.09375 408.921875 Z M 340.925781 438.359375 C 343.167969 433.875 343.726562 432.753906 350.457031 421.539062 C 351.859375 419.015625 353.539062 416.492188 354.941406 413.6875 C 358.585938 407.519531 358.867188 407.519531 362.230469 407.238281 L 374.289062 407.238281 C 376.8125 407.238281 378.492188 407.238281 379.894531 406.960938 C 381.296875 406.679688 382.417969 406.398438 383.820312 405.839844 C 387.183594 412.566406 392.792969 423.222656 396.15625 430.230469 C 398.960938 435.835938 398.960938 436.398438 399.800781 438.921875 C 404.285156 437.519531 405.40625 437.238281 409.613281 436.679688 C 406.808594 430.230469 405.6875 428.265625 395.875 408.921875 C 385.222656 387.894531 380.175781 376.121094 379.894531 375.277344 C 379.332031 374.15625 379.332031 373.597656 379.332031 372.753906 C 375.96875 373.316406 374.847656 373.316406 371.484375 373.597656 C 367.277344 384.25 361.109375 393.78125 354.660156 403.316406 C 352.136719 407.519531 349.335938 411.445312 346.8125 415.371094 C 344.570312 418.453125 342.324219 421.539062 340.363281 424.902344 C 336.4375 430.789062 334.757812 433.3125 332.234375 438.082031 Z M 373.726562 382.847656 C 376.53125 389.859375 377.652344 392.378906 382.699219 403.035156 C 380.457031 403.875 378.773438 404.4375 373.164062 404.4375 C 370.644531 404.4375 367.277344 404.4375 364.472656 404.15625 C 362.792969 404.15625 361.953125 403.875 361.953125 403.035156 C 361.953125 402.472656 362.792969 401.070312 363.351562 400.230469 C 366.15625 394.34375 369.800781 388.457031 373.726562 382.847656 M 423.910156 437.519531 C 423.910156 427.988281 424.191406 417.894531 424.753906 408.363281 C 425.035156 401.351562 425.035156 398.269531 425.035156 394.0625 C 425.035156 391.539062 425.035156 388.734375 425.035156 386.210938 C 426.996094 389.296875 426.996094 389.296875 435.40625 397.707031 C 444.378906 406.679688 453.070312 415.652344 462.042969 424.621094 C 471.574219 433.875 471.574219 434.15625 476.621094 439.480469 C 479.703125 437.519531 480.824219 436.679688 484.191406 434.714844 C 483.347656 433.59375 483.070312 432.191406 482.789062 430.789062 C 482.226562 426.023438 481.949219 414.53125 481.949219 411.164062 C 481.949219 404.996094 482.226562 398.828125 482.226562 392.941406 C 482.507812 384.25 482.507812 382.847656 482.789062 373.035156 C 479.425781 374.15625 478.304688 374.4375 474.378906 375 C 474.9375 383.691406 474.9375 386.773438 474.9375 403.035156 L 474.9375 411.445312 C 474.9375 418.175781 474.9375 419.855469 475.5 425.464844 C 469.890625 419.578125 469.050781 418.734375 461.761719 411.726562 C 456.433594 406.679688 443.816406 394.0625 440.453125 390.699219 C 431.480469 381.445312 428.398438 377.242188 425.59375 373.035156 C 421.109375 373.875 420.265625 373.875 416.621094 374.15625 C 417.464844 380.605469 417.742188 387.613281 417.742188 394.902344 C 417.742188 403.316406 416.34375 432.753906 416.34375 436.117188 C 416.34375 437.519531 416.0625 438.921875 416.0625 440.605469 Z M 513.347656 376.398438 C 516.710938 377.242188 518.957031 377.800781 524.28125 377.800781 C 529.328125 377.800781 531.851562 377.800781 537.179688 378.082031 C 537.179688 384.8125 537.460938 391.539062 537.460938 398.550781 C 537.460938 401.914062 537.460938 416.492188 537.460938 419.578125 C 537.460938 429.949219 537.460938 431.070312 536.898438 438.640625 C 541.386719 438.640625 542.785156 438.640625 546.992188 438.921875 C 546.710938 432.753906 546.710938 429.109375 546.710938 424.34375 C 546.710938 420.976562 546.992188 406.398438 546.992188 403.59375 C 546.992188 390.699219 546.992188 389.578125 547.273438 378.644531 C 557.925781 378.921875 560.167969 378.644531 566.898438 378.082031 L 570.542969 372.753906 L 570.261719 372.476562 C 564.375 374.15625 555.121094 374.15625 542.507812 374.15625 C 537.179688 374.15625 531.574219 374.15625 525.683594 373.597656 C 521.480469 373.316406 520.078125 373.035156 516.714844 372.195312 Z M 572.226562 376.398438 L 577.273438 376.398438 C 577.550781 381.445312 577.550781 385.089844 577.550781 390.699219 C 577.550781 397.988281 577.273438 408.082031 576.992188 415.929688 C 576.710938 426.023438 576.429688 428.828125 575.589844 438.359375 L 585.964844 437.519531 C 586.242188 430.789062 586.242188 424.0625 586.242188 417.332031 C 586.242188 409.203125 586.242188 401.070312 586.523438 393.222656 C 586.804688 383.96875 587.085938 380.886719 587.925781 376.121094 C 591.851562 376.121094 597.457031 376.121094 601.945312 380.605469 C 605.589844 384.25 606.710938 389.296875 606.710938 394.34375 C 606.710938 396.867188 604.1875 400.792969 601.945312 403.316406 C 597.457031 408.082031 592.410156 409.203125 587.925781 410.042969 C 592.410156 414.808594 595.496094 418.175781 605.867188 427.707031 C 610.636719 431.914062 615.402344 436.117188 620.449219 440.042969 L 628.859375 434.15625 C 618.765625 427.425781 613.71875 422.941406 598.859375 408.640625 C 602.503906 406.960938 605.027344 405.839844 608.953125 401.351562 C 615.683594 394.34375 616.804688 389.015625 616.804688 385.652344 C 616.804688 383.128906 615.960938 380.886719 614 378.644531 C 607.832031 372.195312 596.898438 372.195312 593.8125 372.195312 C 590.449219 372.195312 587.085938 372.476562 584 372.476562 C 580.074219 372.753906 576.148438 373.035156 572.503906 373.316406 L 572.503906 376.398438 Z M 672.316406 431.914062 L 671.195312 430.789062 C 667.269531 433.3125 664.746094 433.3125 656.054688 433.3125 L 644.277344 433.3125 L 645.402344 407.238281 L 656.613281 407.238281 C 661.382812 407.238281 662.222656 407.238281 666.148438 407.800781 L 672.035156 400.792969 L 671.195312 399.949219 C 666.707031 401.351562 664.183594 401.914062 658.015625 401.914062 L 645.679688 401.914062 L 645.960938 377.800781 C 648.484375 377.800781 651.007812 377.800781 653.53125 377.800781 C 657.175781 377.800781 660.261719 377.800781 664.464844 378.082031 L 670.074219 373.875 L 669.511719 372.476562 C 666.148438 373.316406 663.0625 373.875 653.25 373.875 C 649.046875 373.875 645.960938 373.875 643.15625 373.597656 C 640.074219 373.597656 637.550781 373.316406 634.464844 373.035156 C 635.308594 376.960938 635.867188 379.203125 636.148438 384.53125 C 636.429688 388.734375 636.429688 392.660156 636.429688 396.867188 C 636.429688 406.679688 636.148438 415.652344 635.308594 424.34375 C 634.746094 430.511719 634.464844 433.035156 633.625 438.359375 C 637.832031 437.800781 640.914062 437.238281 650.167969 437.238281 C 653.8125 437.238281 658.015625 437.238281 661.382812 437.519531 C 663.34375 437.800781 664.464844 438.082031 665.867188 438.359375 Z M 721.660156 431.914062 L 720.539062 430.789062 C 716.613281 433.3125 714.089844 433.3125 705.398438 433.3125 L 693.625 433.3125 L 694.746094 407.238281 L 705.960938 407.238281 C 710.726562 407.238281 711.566406 407.238281 715.492188 407.800781 L 721.378906 400.792969 L 720.539062 399.949219 C 716.050781 401.351562 713.527344 401.914062 707.359375 401.914062 L 695.023438 401.914062 L 695.304688 377.800781 C 697.828125 377.800781 700.351562 377.800781 702.875 377.800781 C 706.519531 377.800781 709.605469 377.800781 713.808594 378.082031 L 719.417969 373.875 L 718.855469 372.476562 C 715.492188 373.316406 712.40625 373.875 702.59375 373.875 C 698.390625 373.875 695.304688 373.875 692.5 373.597656 C 689.417969 373.597656 686.894531 373.316406 683.808594 373.035156 C 684.652344 376.960938 685.210938 379.203125 685.492188 384.53125 C 685.773438 388.734375 685.773438 392.660156 685.773438 396.867188 C 685.773438 406.679688 685.492188 415.652344 684.652344 424.34375 C 684.089844 430.511719 683.808594 433.035156 682.96875 438.359375 C 687.175781 437.800781 690.257812 437.238281 699.511719 437.238281 C 703.15625 437.238281 707.359375 437.238281 710.726562 437.519531 C 712.6875 437.800781 713.808594 438.082031 715.210938 438.359375 Z M 721.660156 431.914062 " fill-opacity="1" fill-rule="nonzero"/></svg>