<svg xmlns="http://www.w3.org/2000/svg" xmlns:xlink="http://www.w3.org/1999/xlink" width="1080" zoomAndPan="magnify" viewBox="0 0 810 809.999993" height="1080" preserveAspectRatio="xMidYMid meet" version="1.0"><rect x="-81" width="972" fill="#ffffff" y="-80.999999" height="971.999992" fill-opacity="1"/><rect x="-81" width="972" fill="#ffffff" y="-80.999999" height="971.999992" fill-opacity="1"/><path fill="#58595b" d="M 111.253906 424.378906 L 96.667969 458.972656 L 81.746094 458.972656 L 137.710938 331.441406 L 192.320312 458.972656 L 177.394531 458.972656 L 163.148438 424.378906 Z M 137.710938 362.984375 L 117.019531 411.828125 L 158.0625 411.828125 Z M 137.710938 362.984375 " fill-opacity="1" fill-rule="nonzero"/><path fill="#58595b" d="M 216.0625 391.476562 C 220.8125 385.371094 224.882812 381.300781 233.023438 381.300781 C 237.433594 381.300781 240.824219 382.65625 244.554688 384.691406 L 238.449219 396.5625 C 235.734375 394.867188 234.039062 393.171875 230.648438 393.171875 C 216.402344 393.171875 215.722656 411.488281 215.722656 421.324219 L 215.722656 459.3125 L 202.835938 459.3125 L 202.835938 382.996094 L 215.722656 382.996094 L 215.722656 391.476562 Z M 216.0625 391.476562 " fill-opacity="1" fill-rule="nonzero"/><path fill="#58595b" d="M 272.707031 458.972656 L 259.820312 458.972656 L 259.820312 395.207031 L 252.015625 395.207031 L 252.015625 383.335938 L 259.820312 383.335938 L 259.820312 356.199219 L 272.707031 356.199219 L 272.707031 383.335938 L 286.273438 383.335938 L 286.273438 395.207031 L 272.707031 395.207031 Z M 272.707031 458.972656 " fill-opacity="1" fill-rule="nonzero"/><path fill="#58595b" d="M 398.886719 360.949219 C 394.136719 352.46875 388.371094 347.71875 377.855469 347.71875 C 367.003906 347.71875 357.84375 355.523438 357.84375 366.714844 C 357.84375 377.230469 368.699219 381.980469 376.839844 385.710938 L 384.980469 389.441406 C 400.921875 396.222656 414.148438 404.363281 414.148438 423.699219 C 414.148438 445.066406 397.191406 461.347656 375.820312 461.347656 C 356.148438 461.347656 341.902344 448.796875 337.832031 429.804688 L 351.058594 426.074219 C 352.757812 438.625 362.253906 448.796875 375.480469 448.796875 C 388.710938 448.796875 400.582031 438.960938 400.582031 425.054688 C 400.582031 410.808594 389.386719 406.0625 378.195312 400.972656 L 370.734375 397.921875 C 356.488281 391.476562 344.277344 384.351562 344.277344 366.714844 C 344.277344 347.71875 360.21875 335.847656 378.195312 335.847656 C 391.761719 335.847656 403.296875 342.632812 409.738281 354.84375 Z M 398.886719 360.949219 " fill-opacity="1" fill-rule="nonzero"/><path fill="#58595b" d="M 438.230469 423.699219 C 438.230469 437.605469 448.40625 449.136719 462.992188 449.136719 C 473.847656 449.136719 480.96875 442.695312 486.058594 433.535156 L 496.910156 439.980469 C 489.789062 453.546875 477.238281 461.347656 461.976562 461.347656 C 439.25 461.347656 425.003906 444.050781 425.003906 422.34375 C 425.003906 399.957031 437.890625 381.300781 461.636719 381.300781 C 486.058594 381.300781 498.945312 401.3125 497.589844 424.039062 L 438.230469 424.039062 Z M 484.363281 412.84375 C 482.664062 401.992188 473.507812 393.171875 461.976562 393.171875 C 450.78125 393.171875 440.605469 401.992188 438.910156 412.84375 Z M 484.363281 412.84375 " fill-opacity="1" fill-rule="nonzero"/><path fill="#58595b" d="M 526.082031 391.476562 C 530.832031 385.371094 534.902344 381.300781 543.042969 381.300781 C 547.449219 381.300781 550.84375 382.65625 554.574219 384.691406 L 548.46875 396.5625 C 545.753906 394.867188 544.058594 393.171875 540.667969 393.171875 C 526.421875 393.171875 525.742188 411.488281 525.742188 421.324219 L 525.742188 459.3125 L 512.851562 459.3125 L 512.851562 382.996094 L 525.742188 382.996094 L 525.742188 391.476562 Z M 526.082031 391.476562 " fill-opacity="1" fill-rule="nonzero"/><path fill="#58595b" d="M 583.742188 354.503906 C 583.742188 359.59375 579.671875 363.664062 574.585938 363.664062 C 569.496094 363.664062 565.425781 359.59375 565.425781 354.503906 C 565.425781 349.417969 569.496094 345.347656 574.585938 345.347656 C 579.671875 345.347656 583.742188 349.753906 583.742188 354.503906 Z M 581.03125 458.972656 L 568.140625 458.972656 L 568.140625 382.996094 L 581.03125 382.996094 Z M 581.03125 458.972656 " fill-opacity="1" fill-rule="nonzero"/><path fill="#58595b" d="M 612.574219 423.699219 C 612.574219 437.605469 622.75 449.136719 637.335938 449.136719 C 648.191406 449.136719 655.3125 442.695312 660.398438 433.535156 L 671.253906 439.980469 C 664.132812 453.546875 651.582031 461.347656 636.316406 461.347656 C 613.59375 461.347656 599.347656 444.050781 599.347656 422.34375 C 599.347656 399.957031 612.234375 381.300781 635.980469 381.300781 C 660.398438 381.300781 673.289062 401.3125 671.933594 424.039062 L 612.574219 424.039062 Z M 658.367188 412.84375 C 656.667969 401.992188 647.511719 393.171875 635.980469 393.171875 C 624.785156 393.171875 614.609375 401.992188 612.914062 412.84375 Z M 658.367188 412.84375 " fill-opacity="1" fill-rule="nonzero"/><path fill="#58595b" d="M 718.402344 400.632812 C 716.707031 396.5625 712.636719 392.832031 708.226562 392.832031 C 703.816406 392.832031 698.730469 396.222656 698.730469 401.3125 C 698.730469 408.097656 707.546875 410.808594 716.367188 414.539062 C 725.183594 418.273438 734.003906 423.699219 734.003906 436.25 C 734.003906 450.496094 722.472656 461.007812 708.226562 461.007812 C 695.335938 461.007812 685.5 453.886719 681.429688 441.675781 L 692.960938 436.925781 C 696.015625 444.050781 699.746094 449.136719 708.566406 449.136719 C 715.347656 449.136719 720.777344 444.390625 720.777344 437.605469 C 720.777344 420.644531 686.519531 426.414062 686.519531 402.667969 C 686.519531 389.78125 696.695312 381.300781 708.90625 381.300781 C 717.722656 381.300781 725.523438 387.40625 728.917969 395.207031 Z M 718.402344 400.632812 " fill-opacity="1" fill-rule="nonzero"/></svg>