<svg xmlns="http://www.w3.org/2000/svg" xmlns:xlink="http://www.w3.org/1999/xlink" width="1080" zoomAndPan="magnify" viewBox="0 0 810 809.999993" height="1080" preserveAspectRatio="xMidYMid meet" version="1.0"><rect x="-81" width="972" fill="#ffffff" y="-80.999999" height="971.999992" fill-opacity="1"/><rect x="-81" width="972" fill="#ffffff" y="-80.999999" height="971.999992" fill-opacity="1"/><path fill="#58595b" d="M 724.609375 413.710938 C 725.253906 404.371094 716.558594 404.695312 716.238281 404.695312 C 719.136719 406.625 717.527344 408.558594 716.882812 409.523438 C 716.238281 410.492188 714.628906 412.421875 709.796875 410.492188 C 704.644531 408.558594 699.167969 406.304688 686.929688 404.371094 C 681.457031 390.203125 675.015625 373.132812 669.863281 359.609375 L 662.457031 359.609375 C 655.691406 378.609375 641.84375 416.289062 637.65625 427.238281 C 635.402344 433.355469 631.859375 437.542969 627.03125 437.542969 L 627.03125 441.085938 L 658.914062 441.085938 L 658.914062 437.542969 C 652.472656 437.542969 651.503906 434 653.4375 428.847656 L 657.945312 415.964844 C 663.097656 410.492188 664.710938 408.238281 671.472656 407.914062 C 676.625 407.914062 679.523438 408.558594 683.386719 410.167969 L 690.472656 428.847656 C 692.082031 433.679688 690.472656 437.222656 685.320312 437.222656 L 685.320312 440.765625 L 707.542969 440.765625 L 707.542969 437.222656 C 704.320312 437.222656 700.132812 435.289062 697.558594 430.136719 C 696.269531 427.238281 693.695312 421.117188 690.472656 413.390625 C 699.167969 417.578125 709.472656 419.832031 713.015625 420.152344 C 716.882812 421.441406 723.964844 421.117188 724.609375 413.710938 M 681.132812 403.40625 C 667.285156 402.441406 661.167969 410.167969 661.167969 410.167969 L 659.558594 413.066406 L 671.792969 378.609375 Z M 624.777344 364.761719 L 624.777344 361.21875 L 595.789062 361.21875 L 595.789062 364.761719 C 604.808594 365.082031 607.707031 366.691406 608.027344 370.558594 C 608.351562 372.8125 608.671875 375.386719 608.671875 378.285156 L 608.671875 420.476562 C 593.535156 401.796875 575.824219 379.574219 561.652344 361.539062 L 534.921875 361.539062 L 534.921875 364.761719 C 541.6875 364.761719 546.195312 368.625 549.414062 374.101562 L 549.414062 424.984375 C 549.414062 427.882812 549.09375 430.457031 548.773438 432.710938 C 548.449219 436.578125 545.230469 438.1875 539.109375 438.511719 L 539.109375 442.050781 L 568.09375 442.050781 L 568.09375 438.511719 C 559.398438 438.1875 556.179688 436.578125 555.535156 432.710938 C 555.210938 430.457031 554.890625 427.882812 554.890625 424.984375 L 554.890625 378.609375 L 555.210938 378.609375 C 572.28125 399.21875 591.605469 423.695312 605.453125 441.40625 L 614.46875 441.40625 L 614.46875 377.964844 C 614.46875 375.066406 614.792969 372.488281 615.113281 370.234375 C 615.757812 366.691406 618.65625 365.082031 624.777344 364.761719 M 496.601562 441.40625 L 528.484375 441.40625 L 528.484375 437.867188 C 523.652344 437.867188 520.109375 433.355469 517.855469 427.558594 C 513.667969 416.609375 499.820312 378.929688 492.734375 359.929688 L 485.328125 359.929688 C 475.667969 385.050781 461.820312 422.40625 457.632812 431.101562 C 455.054688 436.253906 450.867188 438.1875 447.648438 438.1875 L 447.648438 441.730469 L 469.871094 441.730469 L 469.871094 438.1875 C 464.71875 438.1875 463.105469 434.644531 464.71875 429.8125 L 469.226562 416.289062 L 497.242188 416.289062 L 502.074219 429.8125 C 504.007812 434.96875 503.039062 438.507812 496.601562 438.507812 Z M 495.3125 410.492188 L 471.480469 410.492188 L 483.71875 377 L 484.039062 377 Z M 401.59375 375.386719 C 401.59375 367.015625 407.714844 363.792969 412.546875 363.792969 C 421.5625 363.792969 425.75 371.523438 428.003906 378.929688 L 431.222656 378.929688 L 431.222656 363.148438 C 431.222656 362.507812 430.902344 361.863281 429.9375 361.539062 C 424.140625 359.929688 418.664062 359.609375 411.257812 359.609375 C 395.476562 359.609375 384.527344 367.660156 384.527344 378.929688 C 384.527344 388.914062 391.613281 395.355469 400.308594 400.828125 C 416.410156 411.136719 419.628906 416.289062 419.628906 424.015625 C 419.628906 432.390625 412.867188 438.507812 405.460938 438.507812 C 395.796875 438.507812 389.355469 430.457031 387.425781 419.832031 L 384.203125 419.832031 L 384.203125 437.222656 C 384.203125 438.1875 384.527344 438.507812 384.847656 438.832031 C 390.96875 441.085938 397.085938 442.375 406.75 442.375 C 423.171875 442.375 437.019531 434.644531 437.019531 420.796875 C 437.019531 412.101562 433.476562 405.660156 421.5625 396.964844 C 409.003906 387.625 401.59375 383.4375 401.59375 375.386719 M 359.40625 409.523438 C 359.730469 407.59375 363.914062 406.949219 369.066406 406.304688 L 369.066406 402.761719 L 331.066406 402.761719 L 331.066406 406.304688 C 339.117188 406.625 342.980469 407.269531 343.625 409.523438 C 343.949219 411.78125 343.949219 413.390625 343.949219 416.289062 L 343.949219 423.695312 C 343.949219 435.289062 340.082031 438.832031 329.132812 438.832031 C 312.710938 438.832031 303.046875 420.796875 303.046875 399.542969 C 303.046875 379.574219 311.421875 363.148438 331.066406 363.148438 C 346.523438 363.148438 352.320312 373.777344 354.574219 382.472656 L 357.796875 382.472656 L 357.796875 367.980469 C 357.796875 366.046875 356.507812 364.4375 353.289062 363.472656 C 347.8125 361.539062 342.339844 359.609375 331.710938 359.609375 C 298.21875 359.609375 285.335938 383.117188 285.335938 400.828125 C 285.335938 430.136719 304.660156 442.695312 330.101562 442.695312 C 341.371094 442.695312 352.320312 439.796875 359.085938 437.542969 L 359.085938 416.289062 C 359.085938 413.390625 359.085938 411.78125 359.40625 409.523438 M 276.316406 364.761719 L 276.316406 361.21875 L 247.332031 361.21875 L 247.332031 364.761719 C 256.351562 365.082031 259.25 366.691406 259.570312 370.558594 C 259.894531 372.8125 260.214844 375.386719 260.214844 378.285156 L 260.214844 420.476562 L 259.894531 420.476562 C 244.757812 401.796875 227.042969 379.574219 212.875 361.539062 L 186.144531 361.539062 L 186.144531 364.761719 C 192.90625 364.761719 197.417969 368.625 200.636719 374.101562 L 200.636719 424.984375 C 200.636719 427.882812 200.316406 430.457031 199.992188 432.710938 C 199.671875 436.578125 196.449219 438.1875 190.332031 438.511719 L 190.332031 442.050781 L 219.316406 442.050781 L 219.316406 438.511719 C 210.621094 438.1875 207.398438 436.578125 206.753906 432.710938 C 206.433594 430.457031 206.113281 427.882812 206.113281 424.984375 L 206.113281 378.609375 L 206.433594 378.609375 C 223.503906 399.21875 242.824219 423.695312 256.671875 441.40625 L 265.691406 441.40625 L 265.691406 377.964844 C 265.691406 375.066406 266.011719 372.488281 266.335938 370.234375 C 267.300781 366.691406 270.199219 365.082031 276.316406 364.761719 M 146.210938 441.40625 L 178.09375 441.40625 L 178.09375 437.867188 C 173.261719 437.867188 169.71875 433.355469 167.464844 427.558594 C 163.277344 416.609375 149.429688 378.929688 142.667969 359.929688 L 135.261719 359.929688 C 130.109375 373.457031 123.667969 390.523438 118.191406 404.695312 C 105.953125 406.949219 100.480469 408.882812 95.328125 410.8125 C 90.816406 412.746094 88.886719 410.8125 88.242188 409.847656 C 87.597656 408.882812 85.988281 406.625 88.886719 405.015625 C 88.5625 405.015625 79.867188 404.695312 80.511719 414.035156 C 81.15625 421.441406 88.242188 421.761719 91.460938 421.441406 C 95.003906 421.117188 105.308594 418.542969 114.003906 414.679688 C 110.785156 422.40625 108.53125 428.527344 106.921875 431.425781 C 104.34375 436.578125 100.15625 438.511719 96.9375 438.511719 L 96.9375 442.050781 L 119.15625 442.050781 L 119.15625 438.511719 C 114.003906 438.511719 112.394531 434.96875 114.003906 430.136719 L 121.089844 411.457031 C 125.277344 409.847656 127.855469 408.882812 133.007812 409.203125 C 139.769531 409.523438 141.378906 411.457031 146.53125 417.253906 L 151.042969 430.136719 C 152.972656 435.289062 151.683594 438.832031 145.566406 438.832031 L 145.566406 441.40625 Z M 145.886719 413.066406 L 144.277344 410.167969 C 144.277344 410.167969 138.160156 402.441406 124.3125 403.40625 L 133.652344 378.609375 Z M 145.886719 413.066406 " fill-opacity="1" fill-rule="nonzero"/></svg>