<svg xmlns="http://www.w3.org/2000/svg" xmlns:xlink="http://www.w3.org/1999/xlink" width="1080" zoomAndPan="magnify" viewBox="0 0 810 809.999993" height="1080" preserveAspectRatio="xMidYMid meet" version="1.0"><rect x="-81" width="972" fill="#ffffff" y="-80.999999" height="971.999992" fill-opacity="1"/><rect x="-81" width="972" fill="#ffffff" y="-80.999999" height="971.999992" fill-opacity="1"/><path fill="#58595b" d="M 65.03125 380.179688 L 76.445312 380.179688 L 86.429688 413.75 L 97.269531 380.035156 L 106.398438 380.035156 L 117.238281 413.75 L 127.273438 380.179688 L 138.398438 380.179688 L 121.945312 430.058594 L 112.4375 430.058594 L 101.738281 397.867188 L 90.804688 430.058594 L 81.292969 430.058594 Z M 65.03125 380.179688 " fill-opacity="1" fill-rule="nonzero"/><path fill="#58595b" d="M 158.226562 410.183594 L 139.632812 380.179688 L 152.09375 380.179688 L 163.597656 400.246094 L 175.390625 380.324219 L 187.46875 380.324219 L 168.925781 410.136719 L 168.925781 429.726562 L 158.226562 429.726562 Z M 158.226562 410.183594 " fill-opacity="1" fill-rule="nonzero"/><path fill="#58595b" d="M 193.792969 380.179688 L 203.585938 380.179688 L 226.265625 410.65625 L 226.265625 380.179688 L 236.773438 380.179688 L 236.773438 429.726562 L 227.742188 429.726562 L 203.96875 398.246094 L 203.96875 429.726562 L 193.792969 429.726562 Z M 193.792969 380.179688 " fill-opacity="1" fill-rule="nonzero"/><path fill="#58595b" d="M 248.089844 380.179688 L 267.109375 380.179688 C 267.910156 380.136719 268.707031 380.128906 269.503906 380.164062 C 270.300781 380.195312 271.097656 380.269531 271.886719 380.382812 C 272.679688 380.492188 273.460938 380.644531 274.238281 380.832031 C 275.015625 381.023438 275.78125 381.25 276.535156 381.511719 C 277.289062 381.777344 278.027344 382.078125 278.75 382.414062 C 279.476562 382.753906 280.179688 383.125 280.867188 383.53125 C 281.554688 383.9375 282.222656 384.378906 282.867188 384.847656 C 283.511719 385.320312 284.128906 385.824219 284.726562 386.359375 C 285.320312 386.890625 285.886719 387.453125 286.425781 388.039062 C 286.964844 388.628906 287.476562 389.242188 287.953125 389.882812 C 288.433594 390.523438 288.878906 391.183594 289.296875 391.867188 C 289.710938 392.550781 290.089844 393.25 290.433594 393.972656 C 290.777344 394.691406 291.085938 395.429688 291.359375 396.179688 C 291.632812 396.929688 291.867188 397.691406 292.066406 398.464844 C 292.261719 399.242188 292.421875 400.023438 292.542969 400.8125 C 292.664062 401.601562 292.746094 402.394531 292.785156 403.191406 C 292.785156 403.714844 292.785156 404.285156 292.785156 404.808594 C 292.796875 405.613281 292.765625 406.414062 292.695312 407.214844 C 292.628906 408.011719 292.519531 408.808594 292.371094 409.597656 C 292.226562 410.386719 292.039062 411.164062 291.816406 411.9375 C 291.59375 412.707031 291.332031 413.464844 291.035156 414.210938 C 290.734375 414.953125 290.402344 415.683594 290.03125 416.394531 C 289.664062 417.109375 289.257812 417.800781 288.820312 418.472656 C 288.382812 419.148438 287.914062 419.796875 287.414062 420.421875 C 286.910156 421.050781 286.378906 421.652344 285.820312 422.226562 C 285.257812 422.800781 284.671875 423.347656 284.058594 423.863281 C 283.445312 424.378906 282.808594 424.867188 282.144531 425.320312 C 281.484375 425.773438 280.800781 426.195312 280.097656 426.582031 C 279.394531 426.972656 278.675781 427.324219 277.9375 427.640625 C 277.199219 427.957031 276.449219 428.238281 275.683594 428.480469 C 274.917969 428.722656 274.144531 428.929688 273.359375 429.09375 C 272.574219 429.261719 271.78125 429.390625 270.984375 429.480469 C 270.1875 429.570312 269.386719 429.617188 268.585938 429.628906 L 248.089844 429.628906 Z M 267.109375 419.882812 C 268.027344 419.882812 268.933594 419.796875 269.832031 419.621094 C 270.730469 419.449219 271.601562 419.191406 272.453125 418.847656 C 273.300781 418.507812 274.109375 418.085938 274.875 417.589844 C 275.644531 417.09375 276.359375 416.527344 277.015625 415.890625 C 277.675781 415.257812 278.269531 414.5625 278.792969 413.816406 C 279.320312 413.066406 279.769531 412.273438 280.144531 411.4375 C 280.515625 410.605469 280.808594 409.742188 281.015625 408.847656 C 281.222656 407.957031 281.339844 407.054688 281.375 406.140625 C 281.402344 405.761719 281.402344 405.378906 281.375 405 C 281.417969 404.074219 281.371094 403.152344 281.230469 402.238281 C 281.09375 401.320312 280.871094 400.425781 280.558594 399.554688 C 280.246094 398.683594 279.855469 397.847656 279.378906 397.050781 C 278.90625 396.257812 278.359375 395.515625 277.738281 394.824219 C 277.121094 394.136719 276.441406 393.511719 275.703125 392.957031 C 274.960938 392.398438 274.175781 391.917969 273.339844 391.515625 C 272.507812 391.109375 271.640625 390.792969 270.746094 390.554688 C 269.847656 390.320312 268.9375 390.175781 268.015625 390.117188 L 258.503906 390.117188 L 258.503906 419.976562 Z M 267.109375 419.882812 " fill-opacity="1" fill-rule="nonzero"/><path fill="#58595b" d="M 301.773438 380.179688 L 312.425781 380.179688 L 312.425781 399.769531 L 332.0625 399.769531 L 332.0625 380.179688 L 342.710938 380.179688 L 342.710938 429.726562 L 332.0625 429.726562 L 332.0625 409.753906 L 312.425781 409.753906 L 312.425781 429.726562 L 301.773438 429.726562 Z M 301.773438 380.179688 " fill-opacity="1" fill-rule="nonzero"/><path fill="#58595b" d="M 370.574219 379.847656 L 380.417969 379.847656 L 401.148438 429.726562 L 389.976562 429.726562 L 385.601562 418.597656 L 365.105469 418.597656 L 360.683594 429.726562 L 349.84375 429.726562 Z M 381.75 408.945312 L 375.328125 393.160156 L 368.910156 409.183594 Z M 381.75 408.945312 " fill-opacity="1" fill-rule="nonzero"/><path fill="#58595b" d="M 408.234375 380.179688 L 419.738281 380.179688 L 432.433594 401.148438 L 445.179688 380.179688 L 456.636719 380.179688 L 456.636719 429.726562 L 446.082031 429.726562 L 446.082031 397.390625 L 432.433594 418.550781 L 432.148438 418.550781 L 418.695312 397.582031 L 418.695312 429.726562 L 408.234375 429.726562 Z M 408.234375 380.179688 " fill-opacity="1" fill-rule="nonzero"/><path fill="#58595b" d="M 486.164062 405 C 486.148438 404.175781 486.171875 403.351562 486.238281 402.53125 C 486.304688 401.710938 486.410156 400.894531 486.554688 400.082031 C 486.699219 399.273438 486.882812 398.46875 487.109375 397.675781 C 487.332031 396.882812 487.59375 396.105469 487.894531 395.335938 C 488.195312 394.570312 488.535156 393.820312 488.910156 393.085938 C 489.285156 392.351562 489.691406 391.636719 490.136719 390.945312 C 490.582031 390.25 491.058594 389.582031 491.570312 388.933594 C 492.082031 388.289062 492.621094 387.667969 493.195312 387.074219 C 493.765625 386.480469 494.363281 385.914062 494.992188 385.382812 C 495.617188 384.847656 496.269531 384.34375 496.945312 383.875 C 497.625 383.402344 498.320312 382.964844 499.039062 382.5625 C 499.757812 382.164062 500.496094 381.796875 501.25 381.46875 C 502.007812 381.136719 502.777344 380.84375 503.558594 380.589844 C 504.34375 380.335938 505.136719 380.121094 505.945312 379.945312 C 506.75 379.769531 507.558594 379.636719 508.378906 379.539062 C 509.195312 379.441406 510.019531 379.386719 510.84375 379.371094 L 511.554688 379.371094 C 513.285156 379.28125 515.007812 379.363281 516.722656 379.613281 C 518.4375 379.867188 520.113281 380.285156 521.746094 380.867188 C 523.378906 381.453125 524.9375 382.191406 526.421875 383.082031 C 527.910156 383.976562 529.292969 385.003906 530.574219 386.171875 L 523.871094 394.585938 C 522.183594 392.917969 520.238281 391.640625 518.035156 390.757812 C 515.835938 389.875 513.546875 389.457031 511.175781 389.5 C 510.207031 389.550781 509.253906 389.695312 508.316406 389.933594 C 507.378906 390.175781 506.472656 390.503906 505.597656 390.917969 C 504.722656 391.335938 503.898438 391.835938 503.121094 392.414062 C 502.34375 392.992188 501.632812 393.644531 500.984375 394.363281 C 500.335938 395.082031 499.761719 395.855469 499.265625 396.6875 C 498.769531 397.519531 498.359375 398.394531 498.035156 399.304688 C 497.710938 400.21875 497.476562 401.152344 497.335938 402.109375 C 497.195312 403.070312 497.148438 404.03125 497.195312 405 C 497.128906 405.964844 497.15625 406.921875 497.277344 407.882812 C 497.398438 408.839844 497.613281 409.777344 497.917969 410.691406 C 498.222656 411.609375 498.617188 412.484375 499.097656 413.324219 C 499.574219 414.164062 500.132812 414.945312 500.765625 415.675781 C 501.398438 416.402344 502.097656 417.0625 502.863281 417.652344 C 503.625 418.246094 504.441406 418.753906 505.304688 419.1875 C 506.167969 419.617188 507.066406 419.957031 508 420.210938 C 508.929688 420.464844 509.878906 420.625 510.84375 420.691406 L 511.839844 420.691406 C 513.636719 420.742188 515.398438 420.511719 517.121094 419.996094 C 518.84375 419.484375 520.441406 418.71875 521.921875 417.695312 L 521.921875 410.609375 L 511.269531 410.609375 L 511.269531 401.101562 L 532.476562 401.101562 L 532.476562 422.546875 C 531.066406 423.808594 529.554688 424.933594 527.941406 425.917969 C 526.324219 426.902344 524.632812 427.730469 522.867188 428.40625 C 521.097656 429.082031 519.285156 429.589844 517.421875 429.929688 C 515.5625 430.273438 513.683594 430.441406 511.792969 430.4375 C 510.988281 430.472656 510.1875 430.472656 509.386719 430.429688 C 508.582031 430.386719 507.785156 430.304688 506.988281 430.183594 C 506.195312 430.066406 505.410156 429.90625 504.628906 429.707031 C 503.851562 429.507812 503.082031 429.273438 502.328125 429 C 501.570312 428.726562 500.832031 428.417969 500.105469 428.070312 C 499.382812 427.726562 498.675781 427.34375 497.988281 426.929688 C 497.296875 426.511719 496.632812 426.066406 495.988281 425.582031 C 495.34375 425.101562 494.726562 424.589844 494.132812 424.050781 C 493.539062 423.507812 492.972656 422.9375 492.4375 422.339844 C 491.898438 421.742188 491.390625 421.121094 490.914062 420.472656 C 490.4375 419.828125 489.996094 419.15625 489.585938 418.46875 C 489.175781 417.777344 488.796875 417.066406 488.457031 416.339844 C 488.117188 415.613281 487.8125 414.871094 487.542969 414.113281 C 487.277344 413.355469 487.046875 412.585938 486.851562 411.804688 C 486.660156 411.023438 486.507812 410.238281 486.390625 409.441406 C 486.277344 408.644531 486.199219 407.847656 486.164062 407.042969 Z M 486.164062 405 " fill-opacity="1" fill-rule="nonzero"/><path fill="#58595b" d="M 542.175781 380.179688 L 564.332031 380.179688 C 565.632812 380.089844 566.925781 380.132812 568.214844 380.308594 C 569.503906 380.484375 570.761719 380.785156 571.988281 381.21875 C 573.214844 381.652344 574.386719 382.207031 575.496094 382.882812 C 576.609375 383.554688 577.644531 384.335938 578.597656 385.21875 C 580.015625 386.753906 581.082031 388.503906 581.800781 390.464844 C 582.515625 392.425781 582.828125 394.449219 582.734375 396.535156 C 582.785156 397.371094 582.769531 398.207031 582.683594 399.042969 C 582.601562 399.875 582.449219 400.695312 582.230469 401.507812 C 582.007812 402.316406 581.726562 403.101562 581.378906 403.863281 C 581.03125 404.625 580.621094 405.355469 580.15625 406.050781 C 579.6875 406.746094 579.167969 407.398438 578.589844 408.011719 C 578.015625 408.621094 577.398438 409.179688 576.730469 409.691406 C 576.066406 410.199219 575.363281 410.648438 574.621094 411.042969 C 573.882812 411.4375 573.117188 411.769531 572.320312 412.035156 L 584.160156 429.726562 L 571.417969 429.726562 L 561.050781 413.890625 L 552.683594 413.890625 L 552.683594 429.726562 L 542.035156 429.726562 Z M 563.621094 404.238281 C 568.804688 404.238281 571.75 401.433594 571.75 397.25 C 571.75 392.496094 568.613281 390.210938 563.429688 390.210938 L 552.828125 390.210938 L 552.828125 404.476562 Z M 563.621094 404.238281 " fill-opacity="1" fill-rule="nonzero"/><path fill="#58595b" d="M 608.410156 379.847656 L 618.253906 379.847656 L 638.984375 429.726562 L 627.859375 429.726562 L 623.433594 418.597656 L 602.941406 418.597656 L 598.566406 429.726562 L 587.726562 429.726562 Z M 619.585938 408.945312 L 613.164062 393.160156 L 606.746094 409.183594 Z M 619.585938 408.945312 " fill-opacity="1" fill-rule="nonzero"/><path fill="#58595b" d="M 646.117188 380.179688 L 655.910156 380.179688 L 678.589844 410.65625 L 678.589844 380.179688 L 689.097656 380.179688 L 689.097656 429.726562 L 680.066406 429.726562 L 656.292969 398.246094 L 656.292969 429.726562 L 645.78125 429.726562 Z M 646.117188 380.179688 " fill-opacity="1" fill-rule="nonzero"/><path fill="#58595b" d="M 700.414062 380.179688 L 719.433594 380.179688 C 720.234375 380.136719 721.03125 380.136719 721.828125 380.171875 C 722.628906 380.210938 723.421875 380.285156 724.214844 380.402344 C 725.003906 380.515625 725.789062 380.667969 726.5625 380.859375 C 727.339844 381.054688 728.105469 381.28125 728.855469 381.550781 C 729.609375 381.816406 730.347656 382.121094 731.074219 382.460938 C 731.796875 382.800781 732.5 383.175781 733.1875 383.582031 C 733.875 383.992188 734.539062 384.433594 735.183594 384.910156 C 735.824219 385.382812 736.445312 385.886719 737.039062 386.421875 C 737.632812 386.957031 738.195312 387.523438 738.734375 388.113281 C 739.273438 388.703125 739.78125 389.320312 740.257812 389.960938 C 740.738281 390.601562 741.183594 391.261719 741.59375 391.949219 C 742.007812 392.632812 742.386719 393.335938 742.726562 394.058594 C 743.070312 394.777344 743.378906 395.515625 743.648438 396.265625 C 743.921875 397.019531 744.15625 397.78125 744.351562 398.558594 C 744.546875 399.332031 744.703125 400.113281 744.824219 400.90625 C 744.941406 401.695312 745.023438 402.488281 745.0625 403.289062 C 745.0625 403.761719 745.0625 404.285156 745.0625 404.808594 C 745.074219 405.613281 745.046875 406.414062 744.976562 407.214844 C 744.910156 408.015625 744.804688 408.808594 744.65625 409.597656 C 744.511719 410.390625 744.328125 411.167969 744.101562 411.941406 C 743.878906 412.710938 743.621094 413.472656 743.324219 414.21875 C 743.023438 414.960938 742.691406 415.691406 742.324219 416.40625 C 741.953125 417.117188 741.550781 417.8125 741.113281 418.484375 C 740.675781 419.160156 740.203125 419.808594 739.703125 420.4375 C 739.203125 421.0625 738.671875 421.664062 738.109375 422.238281 C 737.550781 422.8125 736.960938 423.359375 736.347656 423.878906 C 735.734375 424.394531 735.09375 424.878906 734.433594 425.335938 C 733.769531 425.789062 733.089844 426.210938 732.382812 426.597656 C 731.679688 426.984375 730.960938 427.335938 730.222656 427.652344 C 729.484375 427.96875 728.730469 428.246094 727.964844 428.488281 C 727.199219 428.734375 726.425781 428.9375 725.640625 429.101562 C 724.851562 429.269531 724.0625 429.394531 723.261719 429.484375 C 722.464844 429.570312 721.664062 429.621094 720.859375 429.628906 L 700.464844 429.628906 Z M 719.433594 419.882812 C 720.363281 419.90625 721.285156 419.835938 722.203125 419.679688 C 723.117188 419.519531 724.007812 419.277344 724.875 418.945312 C 725.746094 418.613281 726.570312 418.199219 727.359375 417.703125 C 728.144531 417.210938 728.878906 416.644531 729.554688 416.007812 C 730.230469 415.371094 730.839844 414.675781 731.378906 413.917969 C 731.921875 413.164062 732.382812 412.363281 732.765625 411.515625 C 733.152344 410.671875 733.449219 409.792969 733.660156 408.890625 C 733.875 407.984375 734 407.070312 734.03125 406.140625 L 734.03125 405 C 734.074219 404.074219 734.027344 403.148438 733.886719 402.230469 C 733.75 401.3125 733.523438 400.417969 733.210938 399.542969 C 732.898438 398.671875 732.503906 397.835938 732.027344 397.039062 C 731.550781 396.242188 731 395.5 730.378906 394.808594 C 729.757812 394.121094 729.078125 393.496094 728.332031 392.941406 C 727.589844 392.382812 726.800781 391.902344 725.964844 391.5 C 725.128906 391.097656 724.261719 390.78125 723.359375 390.546875 C 722.460938 390.316406 721.550781 390.171875 720.625 390.117188 L 711.113281 390.117188 L 711.113281 419.976562 Z M 719.433594 419.882812 " fill-opacity="1" fill-rule="nonzero"/></svg>