<svg xmlns="http://www.w3.org/2000/svg" xmlns:xlink="http://www.w3.org/1999/xlink" width="1080" zoomAndPan="magnify" viewBox="0 0 810 809.999993" height="1080" preserveAspectRatio="xMidYMid meet" version="1.0"><rect x="-81" width="972" fill="#ffffff" y="-80.999999" height="971.999992" fill-opacity="1"/><rect x="-81" width="972" fill="#ffffff" y="-80.999999" height="971.999992" fill-opacity="1"/><path fill="#58595b" d="M 374.996094 347.941406 C 381.511719 349.082031 385.03125 351.601562 390.117188 359.496094 L 404.382812 381.226562 C 405 382.222656 405.378906 382.320312 405.855469 382.320312 C 406.332031 382.320312 406.664062 382.320312 407.28125 381.226562 L 421.546875 359.496094 C 426.632812 351.554688 430.152344 349.035156 436.621094 347.941406 C 438.570312 347.609375 439.949219 346.753906 439.949219 344.945312 C 439.949219 341.332031 432.910156 335.4375 424.351562 335.4375 C 423.980469 335.46875 423.613281 335.441406 423.25 335.351562 C 422.886719 335.261719 422.550781 335.113281 422.234375 334.910156 C 421.921875 334.710938 421.648438 334.460938 421.417969 334.167969 C 421.183594 333.875 421.007812 333.554688 420.882812 333.203125 C 420.625 332.71875 420.347656 332.246094 420.046875 331.789062 C 419.746094 331.332031 419.421875 330.890625 419.078125 330.464844 C 418.734375 330.039062 418.371094 329.628906 417.984375 329.238281 C 417.601562 328.847656 417.199219 328.480469 416.777344 328.128906 C 416.355469 327.777344 415.917969 327.449219 415.464844 327.140625 C 415.011719 326.832031 414.546875 326.550781 414.0625 326.289062 C 413.582031 326.023438 413.089844 325.789062 412.585938 325.574219 C 412.082031 325.359375 411.566406 325.171875 411.042969 325.011719 C 410.523438 324.847656 409.992188 324.710938 409.457031 324.597656 C 408.917969 324.488281 408.378906 324.402344 407.832031 324.347656 C 407.289062 324.289062 406.742188 324.257812 406.195312 324.253906 C 405.648438 324.25 405.101562 324.269531 404.554688 324.320312 C 404.011719 324.371094 403.46875 324.445312 402.929688 324.546875 C 402.390625 324.652344 401.859375 324.78125 401.335938 324.933594 C 400.808594 325.089844 400.292969 325.269531 399.785156 325.476562 C 399.277344 325.679688 398.78125 325.910156 398.296875 326.164062 C 396.792969 326.960938 395.4375 327.957031 394.230469 329.15625 C 393.023438 330.355469 392.015625 331.703125 391.210938 333.203125 C 391.097656 333.558594 390.929688 333.882812 390.703125 334.179688 C 390.476562 334.476562 390.210938 334.726562 389.898438 334.929688 C 389.585938 335.132812 389.25 335.277344 388.886719 335.367188 C 388.523438 335.453125 388.15625 335.476562 387.789062 335.4375 C 379.277344 335.4375 372.238281 341.570312 372.238281 344.945312 C 372.238281 346.753906 373.570312 347.609375 375.519531 347.941406 Z M 374.996094 347.941406 " fill-opacity="1" fill-rule="nonzero"/><path fill="#58595b" d="M 451.167969 351.414062 C 462.105469 351.414062 466.097656 357.167969 466.097656 359.496094 C 466.097656 360.398438 465.574219 361.253906 463.910156 361.253906 C 462.171875 361.316406 460.472656 361.613281 458.816406 362.140625 C 457.15625 362.667969 455.601562 363.410156 454.144531 364.367188 C 452.691406 365.324219 451.390625 366.457031 450.25 367.769531 C 449.105469 369.082031 448.160156 370.523438 447.414062 372.097656 L 441.992188 380.796875 L 417.742188 380.796875 L 427.253906 365.867188 C 427.839844 364.808594 428.496094 363.792969 429.21875 362.820312 C 429.941406 361.847656 430.722656 360.925781 431.566406 360.054688 C 432.40625 359.1875 433.300781 358.375 434.25 357.621094 C 435.199219 356.867188 436.191406 356.179688 437.230469 355.554688 C 438.269531 354.933594 439.34375 354.378906 440.457031 353.898438 C 441.566406 353.414062 442.703125 353.007812 443.871094 352.671875 C 445.035156 352.339844 446.214844 352.082031 447.414062 351.902344 C 448.609375 351.726562 449.816406 351.625 451.027344 351.601562 Z M 452.546875 380.796875 L 477.226562 380.796875 C 477.621094 380.25 478.082031 379.761719 478.601562 379.328125 C 479.121094 378.894531 479.683594 378.535156 480.296875 378.242188 C 480.90625 377.953125 481.542969 377.742188 482.207031 377.609375 C 482.871094 377.480469 483.539062 377.433594 484.214844 377.46875 C 486.210938 377.46875 486.734375 376.328125 486.734375 375.28125 C 486.734375 372.285156 481.980469 367.769531 473.277344 367.769531 C 472.207031 367.792969 471.140625 367.886719 470.078125 368.050781 C 469.019531 368.21875 467.972656 368.453125 466.945312 368.761719 C 465.917969 369.070312 464.914062 369.445312 463.9375 369.886719 C 462.960938 370.332031 462.015625 370.839844 461.105469 371.410156 C 460.199219 371.980469 459.332031 372.609375 458.507812 373.300781 C 457.683594 373.988281 456.914062 374.726562 456.1875 375.519531 C 455.464844 376.316406 454.800781 377.152344 454.191406 378.035156 C 453.582031 378.917969 453.03125 379.839844 452.546875 380.796875 Z M 347.179688 361.253906 C 348.921875 361.316406 350.621094 361.613281 352.277344 362.140625 C 353.9375 362.667969 355.492188 363.410156 356.949219 364.367188 C 358.402344 365.324219 359.703125 366.457031 360.84375 367.769531 C 361.988281 369.082031 362.933594 370.523438 363.679688 372.097656 L 369.101562 380.796875 L 393.445312 380.796875 L 383.9375 365.867188 C 383.347656 364.808594 382.691406 363.792969 381.96875 362.820312 C 381.25 361.847656 380.464844 360.925781 379.625 360.054688 C 378.78125 359.1875 377.886719 358.375 376.9375 357.621094 C 375.988281 356.867188 374.996094 356.179688 373.957031 355.554688 C 372.917969 354.933594 371.84375 354.378906 370.734375 353.898438 C 369.621094 353.414062 368.484375 353.007812 367.320312 352.671875 C 366.15625 352.339844 364.972656 352.082031 363.777344 351.902344 C 362.578125 351.726562 361.375 351.625 360.164062 351.601562 C 349.179688 351.601562 345.230469 357.355469 345.230469 359.6875 C 345.230469 360.589844 345.753906 361.445312 347.371094 361.445312 Z M 333.679688 380.796875 L 358.355469 380.796875 C 351.746094 370.335938 344.089844 367.769531 337.625 367.769531 C 328.972656 367.769531 324.214844 372.285156 324.214844 375.28125 C 324.214844 376.328125 324.691406 377.46875 326.734375 377.46875 C 327.40625 377.433594 328.074219 377.484375 328.734375 377.613281 C 329.390625 377.746094 330.023438 377.957031 330.632812 378.25 C 331.238281 378.539062 331.800781 378.898438 332.316406 379.332031 C 332.832031 379.761719 333.285156 380.253906 333.679688 380.796875 Z M 333.679688 380.796875 " fill-opacity="1" fill-rule="nonzero"/><path fill="#58595b" d="M 475.085938 393.875 L 466.289062 393.875 L 443.703125 445.179688 L 453.972656 445.179688 L 459.109375 433.101562 L 481.980469 433.101562 L 487.066406 445.179688 L 497.671875 445.179688 Z M 478.320312 424.304688 L 462.769531 424.304688 L 470.570312 406.234375 Z M 478.320312 424.304688 " fill-opacity="1" fill-rule="nonzero"/><path fill="#58595b" d="M 391.542969 419.789062 C 391.523438 418.945312 391.542969 418.105469 391.605469 417.265625 C 391.667969 416.421875 391.769531 415.589844 391.914062 414.757812 C 392.058594 413.929688 392.242188 413.109375 392.46875 412.296875 C 392.691406 411.484375 392.953125 410.683594 393.257812 409.898438 C 393.558594 409.113281 393.902344 408.34375 394.277344 407.589844 C 394.65625 406.835938 395.070312 406.105469 395.519531 405.394531 C 395.972656 404.679688 396.457031 403.992188 396.972656 403.328125 C 397.488281 402.664062 398.039062 402.023438 398.617188 401.414062 C 399.199219 400.804688 399.808594 400.222656 400.445312 399.671875 C 401.082031 399.121094 401.746094 398.601562 402.433594 398.113281 C 403.121094 397.628906 403.828125 397.175781 404.5625 396.761719 C 405.292969 396.34375 406.046875 395.964844 406.816406 395.621094 C 407.585938 395.277344 408.367188 394.972656 409.167969 394.707031 C 409.96875 394.441406 410.777344 394.214844 411.597656 394.027344 C 412.421875 393.84375 413.25 393.695312 414.085938 393.589844 C 414.921875 393.484375 415.757812 393.421875 416.601562 393.398438 L 418.21875 393.398438 C 419.964844 393.410156 421.695312 393.585938 423.410156 393.914062 C 425.125 394.246094 426.792969 394.730469 428.417969 395.371094 C 430.042969 396.007812 431.597656 396.789062 433.082031 397.710938 C 434.5625 398.636719 435.949219 399.683594 437.238281 400.863281 L 431.152344 408.136719 C 429.410156 406.363281 427.390625 404.988281 425.101562 404.015625 C 422.8125 403.042969 420.421875 402.546875 417.933594 402.527344 C 417.382812 402.523438 416.835938 402.546875 416.289062 402.597656 C 415.742188 402.648438 415.199219 402.726562 414.660156 402.832031 C 414.121094 402.9375 413.589844 403.070312 413.0625 403.226562 C 412.539062 403.382812 412.019531 403.566406 411.511719 403.777344 C 411.003906 403.984375 410.507812 404.21875 410.023438 404.476562 C 409.539062 404.734375 409.070312 405.015625 408.613281 405.320312 C 408.15625 405.621094 407.714844 405.949219 407.289062 406.296875 C 406.863281 406.644531 406.457031 407.011719 406.070312 407.402344 C 405.683594 407.789062 405.3125 408.195312 404.964844 408.621094 C 404.617188 409.046875 404.292969 409.484375 403.988281 409.941406 C 403.683594 410.398438 403.402344 410.871094 403.144531 411.355469 C 402.886719 411.839844 402.652344 412.335938 402.445312 412.84375 C 402.234375 413.351562 402.054688 413.867188 401.894531 414.394531 C 401.738281 414.921875 401.605469 415.453125 401.5 415.992188 C 401.398438 416.53125 401.320312 417.074219 401.269531 417.621094 C 401.21875 418.167969 401.191406 418.714844 401.195312 419.265625 L 401.195312 419.789062 C 401.183594 420.339844 401.195312 420.890625 401.234375 421.441406 C 401.273438 421.992188 401.339844 422.539062 401.433594 423.082031 C 401.527344 423.628906 401.648438 424.164062 401.792969 424.699219 C 401.941406 425.230469 402.113281 425.753906 402.3125 426.269531 C 402.507812 426.785156 402.730469 427.289062 402.980469 427.78125 C 403.226562 428.277344 403.496094 428.757812 403.792969 429.222656 C 404.085938 429.691406 404.402344 430.140625 404.742188 430.578125 C 405.078125 431.015625 405.4375 431.433594 405.820312 431.832031 C 406.199219 432.234375 406.597656 432.613281 407.015625 432.976562 C 407.429688 433.339844 407.867188 433.679688 408.316406 433.996094 C 408.765625 434.316406 409.230469 434.613281 409.710938 434.886719 C 410.191406 435.160156 410.683594 435.410156 411.1875 435.632812 C 411.691406 435.859375 412.203125 436.058594 412.730469 436.234375 C 413.253906 436.410156 413.785156 436.558594 414.320312 436.679688 C 414.859375 436.800781 415.402344 436.898438 415.949219 436.96875 C 416.5 437.035156 417.046875 437.078125 417.601562 437.09375 L 418.265625 437.09375 C 421.933594 437.023438 425.433594 436.230469 428.773438 434.71875 L 428.773438 425.207031 L 417.503906 425.207031 L 417.503906 415.699219 L 438.855469 415.699219 L 438.855469 441.042969 C 432.285156 444.1875 425.359375 445.769531 418.074219 445.796875 C 417.242188 445.832031 416.410156 445.824219 415.578125 445.777344 C 414.742188 445.730469 413.914062 445.644531 413.089844 445.515625 C 412.265625 445.386719 411.453125 445.21875 410.644531 445.007812 C 409.835938 444.800781 409.042969 444.550781 408.257812 444.265625 C 407.476562 443.980469 406.707031 443.652344 405.957031 443.292969 C 405.207031 442.929688 404.472656 442.53125 403.761719 442.097656 C 403.050781 441.664062 402.359375 441.195312 401.695312 440.691406 C 401.027344 440.191406 400.390625 439.65625 399.777344 439.089844 C 399.164062 438.527344 398.578125 437.933594 398.023438 437.308594 C 397.46875 436.6875 396.945312 436.039062 396.453125 435.367188 C 395.960938 434.691406 395.503906 433.996094 395.082031 433.277344 C 394.660156 432.558594 394.273438 431.820312 393.921875 431.0625 C 393.570312 430.304688 393.261719 429.535156 392.984375 428.746094 C 392.710938 427.957031 392.476562 427.160156 392.28125 426.347656 C 392.085938 425.539062 391.929688 424.71875 391.816406 423.894531 C 391.699219 423.066406 391.625 422.238281 391.589844 421.402344 C 391.589844 420.785156 391.589844 420.167969 391.589844 419.550781 Z M 391.542969 419.789062 " fill-opacity="1" fill-rule="nonzero"/><path fill="#58595b" d="M 287.460938 445.511719 L 302.390625 394.253906 L 292.167969 394.253906 L 282.707031 429.105469 L 271.867188 394.109375 L 262.402344 394.109375 L 251.371094 429.058594 L 242.054688 394.253906 L 231.449219 394.253906 L 246.664062 445.511719 L 255.320312 445.511719 L 266.824219 409.136719 L 278.476562 445.511719 Z M 287.460938 445.511719 " fill-opacity="1" fill-rule="nonzero"/><path fill="#58595b" d="M 370.433594 427.726562 L 344.519531 394.253906 L 335.628906 394.253906 L 335.628906 445.179688 L 345.328125 445.179688 L 345.328125 410.707031 L 372 445.179688 L 380.132812 445.179688 L 380.132812 394.253906 L 370.433594 394.253906 Z M 370.433594 427.726562 " fill-opacity="1" fill-rule="nonzero"/><path fill="#58595b" d="M 309.855469 420.453125 L 309.855469 394.253906 L 319.699219 394.253906 L 319.699219 445.179688 L 309.855469 445.179688 Z M 309.855469 420.453125 " fill-opacity="1" fill-rule="nonzero"/><path fill="#58595b" d="M 508.605469 423.542969 L 508.605469 403.429688 L 493.152344 403.429688 L 493.152344 394.253906 L 533.902344 394.253906 L 533.902344 403.429688 L 518.449219 403.429688 L 518.449219 445.179688 L 508.605469 445.179688 Z M 508.605469 423.542969 " fill-opacity="1" fill-rule="nonzero"/><path fill="#58595b" d="M 541.175781 421.070312 L 541.175781 394.253906 L 578.21875 394.253906 L 578.21875 404.238281 L 550.972656 404.238281 L 550.972656 414.84375 L 574.9375 414.84375 L 574.9375 423.972656 L 550.972656 423.972656 L 550.972656 435.191406 L 578.550781 435.191406 L 578.550781 445.179688 L 541.175781 445.179688 Z M 541.175781 421.070312 " fill-opacity="1" fill-rule="nonzero"/><path fill="#58595b" d="M 312.519531 476.226562 L 303.007812 461.488281 L 308.523438 461.488281 L 314.945312 471.898438 L 321.316406 461.488281 L 326.785156 461.488281 L 317.273438 476.179688 L 317.273438 485.972656 L 312.519531 485.972656 Z M 312.519531 476.226562 " fill-opacity="1" fill-rule="nonzero"/><path fill="#58595b" d="M 491.015625 461.296875 L 486.78125 461.296875 L 475.941406 485.832031 L 480.695312 485.832031 L 483.167969 480.03125 L 494.246094 480.03125 L 496.671875 485.832031 L 501.761719 485.832031 L 490.871094 461.152344 Z M 492.582031 476.179688 L 485.070312 476.179688 L 488.828125 467.476562 Z M 492.582031 476.179688 " fill-opacity="1" fill-rule="nonzero"/><path fill="#58595b" d="M 434.433594 461.4375 L 425.253906 461.4375 L 425.253906 485.832031 L 434.433594 485.832031 C 435.238281 485.882812 436.042969 485.855469 436.839844 485.746094 C 437.640625 485.640625 438.425781 485.453125 439.1875 485.191406 C 439.953125 484.929688 440.683594 484.597656 441.382812 484.191406 C 442.078125 483.785156 442.730469 483.316406 443.335938 482.78125 C 443.941406 482.246094 444.488281 481.660156 444.980469 481.015625 C 445.46875 480.375 445.890625 479.691406 446.246094 478.964844 C 446.601562 478.238281 446.882812 477.484375 447.085938 476.707031 C 447.292969 475.925781 447.421875 475.132812 447.472656 474.324219 C 447.523438 473.519531 447.492188 472.714844 447.386719 471.917969 C 447.277344 471.117188 447.089844 470.332031 446.828125 469.570312 C 446.566406 468.804688 446.230469 468.074219 445.824219 467.378906 C 445.417969 466.679688 444.949219 466.027344 444.414062 465.421875 C 443.878906 464.820312 443.289062 464.273438 442.648438 463.78125 C 442.003906 463.292969 441.320312 462.871094 440.59375 462.519531 C 439.867188 462.164062 439.113281 461.882812 438.335938 461.679688 C 437.554688 461.472656 436.761719 461.347656 435.953125 461.296875 L 434.433594 461.296875 M 434.433594 481.503906 L 429.960938 481.503906 L 429.960938 465.8125 L 434.433594 465.8125 C 434.976562 465.769531 435.523438 465.785156 436.066406 465.855469 C 436.609375 465.925781 437.136719 466.050781 437.652344 466.230469 C 438.171875 466.410156 438.664062 466.640625 439.132812 466.921875 C 439.601562 467.203125 440.039062 467.53125 440.441406 467.902344 C 440.839844 468.273438 441.199219 468.683594 441.519531 469.128906 C 441.835938 469.574219 442.101562 470.050781 442.320312 470.550781 C 442.542969 471.050781 442.707031 471.570312 442.820312 472.105469 C 442.929688 472.640625 442.988281 473.183594 442.988281 473.730469 C 442.988281 474.277344 442.929688 474.820312 442.820312 475.355469 C 442.707031 475.890625 442.542969 476.410156 442.320312 476.910156 C 442.101562 477.410156 441.835938 477.886719 441.519531 478.332031 C 441.199219 478.777344 440.839844 479.1875 440.441406 479.558594 C 440.039062 479.929688 439.601562 480.257812 439.132812 480.539062 C 438.664062 480.820312 438.171875 481.050781 437.652344 481.230469 C 437.136719 481.410156 436.609375 481.535156 436.066406 481.605469 C 435.523438 481.675781 434.976562 481.6875 434.433594 481.648438 " fill-opacity="1" fill-rule="nonzero"/><path fill="#58595b" d="M 383.222656 471.1875 L 377.28125 461.488281 L 371.714844 461.488281 L 380.796875 475.894531 L 380.796875 485.972656 L 385.601562 485.972656 L 385.601562 475.75 L 394.632812 461.488281 L 389.261719 461.488281 Z M 383.222656 471.1875 " fill-opacity="1" fill-rule="nonzero"/><path fill="#58595b" d="M 362.632812 486.164062 L 369.863281 461.488281 L 364.917969 461.488281 L 360.351562 478.269531 L 355.167969 461.390625 L 350.605469 461.390625 L 345.28125 478.222656 L 340.761719 461.488281 L 335.628906 461.488281 L 342.949219 486.164062 L 347.179688 486.164062 L 352.695312 468.617188 L 358.355469 486.164062 Z M 362.632812 486.164062 " fill-opacity="1" fill-rule="nonzero"/><path fill="#58595b" d="M 414.222656 477.558594 L 401.71875 461.488281 L 397.441406 461.488281 L 397.441406 485.972656 L 402.097656 485.972656 L 402.097656 469.378906 L 414.984375 485.972656 L 418.882812 485.972656 L 418.882812 461.488281 L 414.222656 461.488281 Z M 414.222656 477.558594 " fill-opacity="1" fill-rule="nonzero"/><path fill="#58595b" d="M 472.519531 485.972656 L 472.519531 461.488281 L 467.859375 461.488281 L 467.859375 471.472656 L 456.828125 471.472656 L 456.828125 461.488281 L 452.121094 461.488281 L 452.121094 485.972656 L 456.828125 485.972656 L 456.828125 475.894531 L 467.859375 475.894531 L 467.859375 485.972656 Z M 472.519531 485.972656 " fill-opacity="1" fill-rule="nonzero"/><path fill="#58595b" d="M 516.832031 472.613281 L 509.652344 461.488281 L 504.804688 461.488281 L 504.804688 485.972656 L 509.414062 485.972656 L 509.414062 469.425781 L 516.546875 480.078125 L 516.976562 480.078125 L 524.15625 469.332031 L 524.15625 485.972656 L 528.910156 485.972656 L 528.910156 461.488281 L 524.011719 461.488281 Z M 516.832031 472.613281 " fill-opacity="1" fill-rule="nonzero"/><path fill="#58595b" d="M 301.34375 467.714844 C 301.355469 468.292969 301.285156 468.863281 301.128906 469.421875 C 300.972656 469.976562 300.742188 470.5 300.433594 470.992188 C 300.125 471.480469 299.753906 471.917969 299.316406 472.296875 C 298.882812 472.679688 298.402344 472.992188 297.875 473.230469 C 298.550781 473.375 299.179688 473.625 299.769531 473.984375 C 300.359375 474.347656 300.867188 474.796875 301.300781 475.332031 C 301.734375 475.871094 302.066406 476.464844 302.292969 477.113281 C 302.519531 477.765625 302.632812 478.4375 302.628906 479.128906 C 302.628906 483.5 299.0625 485.972656 293.59375 485.972656 L 282.375 485.972656 L 282.375 461.4375 L 293.355469 461.4375 C 298.871094 461.4375 301.34375 464.386719 301.34375 467.714844 Z M 296.589844 468.617188 C 296.589844 467.050781 295.402344 465.71875 292.5 465.71875 L 287.128906 465.71875 L 287.128906 471.566406 L 292.40625 471.566406 C 295.164062 471.566406 296.496094 470.332031 296.496094 468.617188 Z M 297.921875 478.746094 C 297.921875 477.035156 296.828125 475.796875 293.453125 475.796875 L 287.128906 475.796875 L 287.128906 481.742188 L 293.355469 481.742188 C 296.589844 481.742188 297.828125 480.554688 297.828125 478.746094 Z M 297.921875 478.746094 " fill-opacity="1" fill-rule="nonzero"/></svg>