<svg width="120" height="32" viewBox="0 0 120 32" fill="none" xmlns="http://www.w3.org/2000/svg">
<path d="M92.0887 4.96538L88.2722 14.7355C88.1345 15.0779 88.0646 15.3407 88.0646 15.5461C88.0646 15.9665 88.3676 16.2484 89.0181 16.5H84.0908C85.0432 16.0812 85.3187 15.8279 85.6651 15.0349L92.0887 0.5L98.5155 15.0349C98.8614 15.828 99.1374 16.0812 100.091 16.5H95.1647C95.8151 16.2484 96.1186 15.9665 96.1186 15.5461C96.1186 15.3407 96.0503 15.0779 95.9052 14.7355L92.0887 4.96538Z" fill="#58595B"/>
<path d="M9.02557 2.14949C5.34588 2.14949 2.96834 4.64332 2.96834 8.42324C2.96834 12.2454 5.24854 14.7518 8.97613 14.7518C12.4365 14.7518 14.0908 12.4256 14.0908 12.4256L13.8064 15.5914C11.3794 16.2932 10.274 16.5 8.55245 16.5C3.30386 16.5 0.0908203 12.9425 0.0908203 8.54071C0.0908203 3.9572 3.62968 0.639391 8.53202 0.639391C10.6912 0.639391 12.0601 1.00282 12.6784 1.00282C13.0752 1.00282 13.2913 0.893185 13.5715 0.5V4.16242C13.5715 4.16242 12.4504 2.14949 9.02557 2.14949Z" fill="#58595B"/>
<path d="M29.0063 14.7622C26.0597 14.7622 23.7818 11.9708 23.7818 8.35151C23.7818 4.76856 26.0826 2.1414 29.1978 2.1414C32.3633 2.1414 34.4294 4.60585 34.4294 8.42102C34.4294 12.1367 32.1696 14.7622 29.0063 14.7622ZM29.1081 0.5C24.3543 0.5 21.0908 3.7101 21.0908 8.37677C21.0908 12.9897 24.5743 16.5 29.1081 16.5C33.6385 16.5 37.0908 12.9897 37.0908 8.37677C37.0908 3.7101 33.8284 0.5 29.1081 0.5Z" fill="#58595B"/>
<path d="M54.9294 11.6299V3.39671C54.9294 1.75508 54.7706 1.48124 53.6178 1.09469H58.0908C57.0473 1.59703 56.9772 1.78326 56.9772 3.43114V16.5L45.4616 5.42489V13.9742C45.4616 15.4624 45.642 15.7394 46.8845 16.1995H42.0908C43.0106 15.8615 43.3694 15.4624 43.3694 13.9961V0.5L54.9294 11.6299Z" fill="#58595B"/>
<path d="M76.7819 5.16345C76.7819 8.29817 73.9656 8.80505 73.9656 8.80505L76.997 12.3531C78.3498 13.9953 79.7466 15.6719 81.0908 16.4938H77.7175L71.0815 8.61322C72.6843 8.29195 74.1688 7.36245 74.1688 5.57673C74.1688 4.16221 72.9913 3.01436 71.2294 3.01436C70.3643 3.01436 69.7395 3.19682 69.7395 3.19682V13.3044C69.7395 14.3556 69.7502 16.0883 71.1955 16.5L70.7998 16.4938H66.4715L66.0908 16.5C67.6124 16.0883 67.5038 14.3322 67.5038 13.3044V4.71272C67.5038 3.66157 67.6904 1.8868 66.3349 1.5H71.8687C73.9355 1.5 76.7819 2.24859 76.7819 5.16345Z" fill="#58595B"/>
<path d="M110.183 14.7458H109.017C108.044 14.7458 107.714 14.381 107.714 13.3082V2.97506H109.969C113.885 2.97506 116.285 5.46518 116.285 9.06549C116.285 12.5956 113.768 14.7458 110.183 14.7458ZM119.091 9.01092C119.091 3.94022 115.139 1.5 109.991 1.5H104.091C105.426 1.95218 105.491 2.27963 105.491 3.73753V14.3108C105.491 15.775 105.147 16.1616 104.091 16.5H109.147C115.265 16.5 119.091 13.8274 119.091 9.01092Z" fill="#58595B"/>
<path d="M15.6776 28.6049C15.6941 28.6049 15.7111 28.594 15.7111 28.5581V28.4191C15.7111 27.4151 15.7111 27.2308 15.6996 27.0153C15.6868 26.7936 15.6435 26.6905 15.4495 26.6421C15.4016 26.6265 15.306 26.6249 15.2223 26.6249C15.157 26.6249 15.1211 26.6093 15.1211 26.5625C15.1211 26.5141 15.1625 26.5 15.2453 26.5C15.558 26.5 15.9287 26.5203 16.0859 26.5203C16.2239 26.5203 16.5955 26.5 16.8232 26.5C16.9009 26.5 16.9446 26.5141 16.9446 26.5625C16.9446 26.6093 16.9087 26.6249 16.8402 26.6249C16.7933 26.6249 16.739 26.6265 16.6691 26.6421C16.5136 26.6733 16.4658 26.7873 16.4566 27.0153C16.441 27.2308 16.441 27.4151 16.441 28.4191V29.5856C16.441 30.1945 16.441 30.7161 16.4732 30.9987C16.4897 31.1877 16.5265 31.3329 16.7004 31.3548C16.7822 31.3688 16.9087 31.3782 16.9975 31.3782C17.0646 31.3782 17.0908 31.4016 17.0908 31.436C17.0908 31.4797 17.0462 31.5 16.9735 31.5C16.5955 31.5 16.2239 31.4797 16.0629 31.4797C15.9286 31.4797 15.558 31.5 15.3303 31.5C15.2498 31.5 15.2103 31.4797 15.2103 31.436C15.2103 31.4016 15.2333 31.3782 15.306 31.3782C15.3906 31.3782 15.4623 31.3688 15.512 31.3548C15.6306 31.3329 15.6592 31.1877 15.684 30.9909C15.7111 30.7161 15.7111 30.1945 15.7111 29.5856V28.9984C15.7111 28.975 15.6941 28.961 15.6775 28.961H13.4443C13.4241 28.961 13.4075 28.9672 13.4075 28.9984V29.5856C13.4075 30.1945 13.4075 30.7161 13.436 30.9987C13.4562 31.1877 13.4893 31.3329 13.6659 31.3548C13.7487 31.3688 13.8784 31.3782 13.9644 31.3782C14.0307 31.3782 14.0555 31.4016 14.0555 31.436C14.0555 31.4797 14.0118 31.5 13.9401 31.5C13.5629 31.5 13.1923 31.4797 13.0285 31.4797C12.8961 31.4797 12.5291 31.5 12.2936 31.5C12.2155 31.5 12.1759 31.4797 12.1759 31.436C12.1759 31.4016 12.2007 31.3782 12.2688 31.3782C12.3562 31.3782 12.427 31.3688 12.4804 31.3548C12.6008 31.3329 12.6266 31.1877 12.6477 30.9909C12.6799 30.7161 12.6799 30.1945 12.6799 29.5856V28.4191C12.6799 27.4151 12.6799 27.2308 12.6689 27.0153C12.657 26.7936 12.6091 26.6905 12.415 26.6421C12.37 26.6265 12.2688 26.6249 12.1851 26.6249C12.1244 26.6249 12.0908 26.6093 12.0908 26.5625C12.0908 26.5141 12.1299 26.5 12.2127 26.5C12.5291 26.5 12.8961 26.5203 13.0525 26.5203C13.1923 26.5203 13.5629 26.5 13.792 26.5C13.8701 26.5 13.9134 26.5141 13.9134 26.5625C13.9134 26.6093 13.8784 26.6249 13.8067 26.6249C13.7602 26.6249 13.7092 26.6265 13.6356 26.6421C13.4783 26.6733 13.4314 26.7873 13.4213 27.0153C13.4075 27.2308 13.4075 27.4151 13.4075 28.4191V28.5581C13.4075 28.594 13.4241 28.6049 13.4443 28.6049H15.6776Z" fill="#58595B"/>
<path d="M21.8115 31.1781C20.6377 31.1781 19.9331 30.1282 19.9331 28.8015C19.9331 27.213 20.7389 26.8069 21.4414 26.8069C22.4452 26.8069 23.2374 27.6928 23.2374 29.1204C23.2374 30.9615 22.2433 31.1781 21.8115 31.1781ZM21.6178 26.5C19.7789 26.5 19.0908 27.9079 19.0908 28.9955C19.0908 30.1282 19.7982 31.5 21.5581 31.5C23.1107 31.5 24.0908 30.3418 24.0908 28.8827C24.0908 27.4251 23.1415 26.5 21.6178 26.5Z" fill="#58595B"/>
<path d="M27.1811 26.9554L26.0848 26.9784C25.6518 26.9953 25.4749 27.0244 25.3661 27.1716C25.291 27.2697 25.2549 27.3464 25.2363 27.3954C25.2235 27.4476 25.2026 27.4752 25.1571 27.4752C25.1036 27.4752 25.0908 27.443 25.0908 27.3724C25.0908 27.2697 25.2328 26.6779 25.2468 26.6257C25.2654 26.5399 25.291 26.5 25.3347 26.5C25.3911 26.5 25.4679 26.5675 25.6518 26.5782C25.8671 26.5966 26.1453 26.6104 26.3897 26.6104H29.3227C29.5589 26.6104 29.7207 26.5905 29.8313 26.5782C29.9407 26.5583 29.9977 26.546 30.0315 26.546C30.0839 26.546 30.0908 26.5828 30.0908 26.6825C30.0908 26.822 30.0687 27.2697 30.0687 27.4353C30.0594 27.5043 30.0454 27.5396 29.9977 27.5396C29.9407 27.5396 29.9256 27.5074 29.9221 27.4123L29.9093 27.3387C29.8976 27.1716 29.6951 26.9876 29.0364 26.9738L28.1064 26.9554V29.6202C28.1064 30.2182 28.1064 30.7303 28.1425 31.0078C28.1658 31.1933 28.21 31.3359 28.4317 31.3574C28.54 31.3712 28.6965 31.3804 28.8088 31.3804C28.8885 31.3804 28.927 31.4034 28.927 31.4371C28.927 31.4801 28.8723 31.5 28.7884 31.5C28.2996 31.5 27.8341 31.4801 27.6281 31.4801C27.4576 31.4801 26.9926 31.5 26.697 31.5C26.5969 31.5 26.5433 31.4801 26.5433 31.4371C26.5433 31.4034 26.5783 31.3804 26.6655 31.3804C26.7726 31.3804 26.8657 31.3712 26.9298 31.3574C27.0799 31.3359 27.123 31.1933 27.1439 31.0001C27.1811 30.7303 27.1811 30.2182 27.1811 29.6202L27.1811 26.9554Z" fill="#58595B"/>
<path d="M32.8919 28.4421C32.8919 27.4526 32.8919 27.271 32.8795 27.0586C32.8583 26.8401 32.7972 26.7385 32.5362 26.6908C32.4758 26.6754 32.3387 26.6739 32.2266 26.6739C32.1394 26.6739 32.0908 26.6585 32.0908 26.6123C32.0908 26.5646 32.1444 26.5508 32.2665 26.5508C32.4795 26.5508 32.705 26.5569 32.9056 26.5569C33.115 26.5646 33.2956 26.5708 33.4078 26.5708C33.6607 26.5708 35.2355 26.5708 35.385 26.5646C35.5345 26.5508 35.6616 26.5385 35.7251 26.5277C35.7694 26.5185 35.8142 26.5 35.851 26.5C35.8896 26.5 35.9008 26.5277 35.9008 26.5569C35.9008 26.6077 35.8597 26.6831 35.836 26.9832C35.8286 27.0479 35.8142 27.3356 35.7949 27.411C35.7887 27.4449 35.7731 27.4864 35.7176 27.4864C35.6616 27.4864 35.6454 27.4526 35.6454 27.3941C35.6454 27.3464 35.6354 27.2387 35.5968 27.1602C35.5457 27.0402 35.461 26.9617 35.0673 26.9217C34.9365 26.9109 34.1017 26.897 33.9397 26.897C33.9023 26.897 33.8893 26.9171 33.8893 26.9617V28.6145C33.8893 28.6576 33.8961 28.6868 33.9397 28.6868C34.1204 28.6868 35.0324 28.6868 35.2125 28.6714C35.4 28.6576 35.5158 28.6376 35.5931 28.5714C35.6454 28.5237 35.6765 28.4898 35.7176 28.4898C35.75 28.4898 35.7731 28.5006 35.7731 28.5391C35.7731 28.5791 35.7426 28.6868 35.7102 29.0131C35.7015 29.1439 35.6765 29.407 35.6765 29.4548C35.6765 29.5055 35.6765 29.5779 35.6068 29.5779C35.5519 29.5779 35.5345 29.5517 35.5345 29.5209C35.527 29.4548 35.527 29.3655 35.5009 29.2824C35.461 29.1516 35.3514 29.0531 35.0592 29.0315C34.9091 29.0131 34.1266 29.0115 33.9348 29.0115C33.8961 29.0115 33.8893 29.0408 33.8893 29.0746V29.5917C33.8893 29.8133 33.8787 30.4104 33.8893 30.6013C33.9023 31.0506 34.0307 31.1507 34.838 31.1507C35.0461 31.1507 35.3763 31.1507 35.5819 31.0691C35.7887 30.9937 35.8852 30.8552 35.9376 30.5859C35.9569 30.5166 35.9731 30.4889 36.0279 30.4889C36.0908 30.4889 36.0908 30.5428 36.0908 30.6089C36.0908 30.7551 36.0279 31.1983 35.9868 31.3276C35.9344 31.5 35.8597 31.5 35.5619 31.5C34.9657 31.5 34.5291 31.4831 34.1914 31.4785C33.85 31.4677 33.6046 31.4585 33.3666 31.4585C33.2794 31.4585 33.1062 31.4584 32.9144 31.4677C32.7325 31.4677 32.5281 31.4785 32.3711 31.4785C32.2665 31.4785 32.2079 31.4585 32.2079 31.4154C32.2079 31.3815 32.2403 31.3584 32.3387 31.3584C32.4577 31.3584 32.5506 31.3492 32.6216 31.3353C32.781 31.3138 32.8203 31.1707 32.8508 30.9768C32.8919 30.7059 32.8919 30.1919 32.8919 29.5917V28.4421Z" fill="#58595B"/>
<path d="M39.7704 29.5722C39.7704 30.4163 39.7704 30.8703 39.932 30.9885C40.0593 31.0864 40.2599 31.13 40.8544 31.13C41.2627 31.13 41.5545 31.1237 41.7479 30.9465C41.8428 30.861 41.9317 30.676 41.9461 30.5501C41.9533 30.491 41.9683 30.4537 42.0302 30.4537C42.0842 30.4537 42.0908 30.4832 42.0908 30.564C42.0908 30.6356 42.0374 31.13 41.9761 31.3228C41.9317 31.4673 41.8927 31.5 41.4957 31.5C40.9445 31.5 40.5487 31.4829 40.2064 31.4782C39.8623 31.4673 39.5885 31.458 39.2732 31.458C39.1909 31.458 39.024 31.458 38.8415 31.4673C38.6649 31.4673 38.4644 31.4782 38.3154 31.4782C38.2133 31.4782 38.1617 31.458 38.1617 31.4145C38.1617 31.3803 38.1929 31.357 38.2806 31.357C38.3959 31.357 38.4908 31.3476 38.5562 31.3336C38.7081 31.3119 38.7466 31.1673 38.779 30.9714C38.8193 30.6977 38.8193 30.1785 38.8193 29.5722V28.4108C38.8193 27.4111 38.8193 27.2276 38.8006 27.0131C38.785 26.7923 38.7286 26.6897 38.4727 26.6415C38.4127 26.6259 38.322 26.6244 38.2205 26.6244C38.1365 26.6244 38.0908 26.6089 38.0908 26.5622C38.0908 26.514 38.1425 26.5 38.2578 26.5C38.6181 26.5 39.0997 26.5202 39.3026 26.5202C39.49 26.5202 40.0461 26.5 40.3469 26.5C40.4508 26.5 40.5055 26.514 40.5055 26.5622C40.5055 26.6088 40.458 26.6244 40.365 26.6244C40.2839 26.6244 40.1632 26.6259 40.0689 26.6415C39.8623 26.6726 39.7987 26.7861 39.7843 27.0131C39.7704 27.2276 39.7704 27.4111 39.7704 28.4108L39.7704 29.5722Z" fill="#58595B"/>
<path d="M44.2298 31.33C44.1123 31.2834 44.0908 31.2548 44.0908 31.1179C44.0908 30.7629 44.1202 30.3809 44.1292 30.2831C44.1338 30.1823 44.1586 30.1131 44.2151 30.1131C44.2773 30.1131 44.2829 30.1703 44.2829 30.2214C44.2829 30.3072 44.3129 30.438 44.3519 30.5478C44.5066 31.0187 44.9338 31.1916 45.3767 31.1916C46.0208 31.1916 46.3383 30.8036 46.3383 30.4651C46.3383 30.1537 46.2287 29.8559 45.6321 29.4453L45.3032 29.2151C44.5134 28.6691 44.2456 28.2223 44.2456 27.7019C44.2456 27.0054 44.9055 26.5 45.901 26.5C46.3654 26.5 46.6654 26.5662 46.8581 26.6083C46.9202 26.6234 46.9564 26.6444 46.9564 26.6865C46.9564 26.7723 46.9259 26.9513 46.9259 27.4507C46.9259 27.5876 46.9044 27.6432 46.849 27.6432C46.7982 27.6432 46.7767 27.6056 46.7767 27.5274C46.7767 27.4702 46.7406 27.2732 46.5908 27.1077C46.4841 26.9859 46.2761 26.7948 45.8117 26.7948C45.2716 26.7948 44.9552 27.0671 44.9552 27.4507C44.9552 27.744 45.1202 27.9651 45.7129 28.3697L45.9134 28.5036C46.7835 29.0812 47.0908 29.522 47.0908 30.1282C47.0908 30.4937 46.9337 30.9389 46.4185 31.2368C46.0614 31.4413 45.6581 31.5 45.2716 31.5C44.8615 31.5 44.5394 31.4534 44.2298 31.33Z" fill="#58595B"/>
<path d="M54.9085 31.1014C54.3051 31.1014 53.791 30.5839 53.791 29.7882C53.791 29.2828 53.9951 28.979 54.1932 28.8225C54.2913 28.979 54.6637 29.4377 54.8145 29.6182C54.9681 29.7972 55.5271 30.3944 55.865 30.7118C55.7412 30.8412 55.357 31.1014 54.9085 31.1014ZM58.0092 31.2879C57.8909 31.2879 57.569 31.1916 57.3838 31.0683C57.2269 30.969 56.966 30.796 56.574 30.4426C56.9082 30.0168 57.1481 29.4272 57.1481 28.9338C57.1481 28.8616 57.0591 28.8225 56.949 28.8075C56.6226 28.7699 56.3887 28.7669 56.2502 28.7669C56.2039 28.7669 56.1548 28.7774 56.1548 28.8285C56.1548 28.8631 56.1924 28.8767 56.2259 28.8767C56.3135 28.8767 56.4373 28.8962 56.5116 28.9729C56.5996 29.0557 56.6226 29.17 56.6226 29.2648C56.6226 29.6574 56.4584 30.068 56.3429 30.2515C56.2337 30.1402 55.5138 29.4362 55.313 29.1835C54.8516 28.6164 54.3496 28.1095 54.3496 27.5078C54.3496 26.9648 54.7269 26.7828 54.9709 26.7828C55.2992 26.7828 55.5055 26.9167 55.6184 27.0671C55.7467 27.2325 55.7885 27.4386 55.7885 27.6056C55.7885 27.6989 55.7963 27.7259 55.8293 27.7259C55.865 27.7259 55.888 27.7109 55.9008 27.6176C55.9182 27.5199 55.9632 27.0114 55.9632 26.8024C55.9632 26.7256 55.9632 26.6745 55.865 26.6354C55.7082 26.5662 55.445 26.5 55.1589 26.5C54.1473 26.5 53.7374 27.1679 53.742 27.6733C53.7493 27.9591 53.7951 28.2223 54.0419 28.5788C53.6897 28.7669 53.0908 29.3399 53.0908 30.0875C53.0908 30.6411 53.4641 31.5 54.7104 31.5C55.5101 31.5 55.9008 31.1089 56.0934 30.9149C56.5923 31.339 56.8032 31.4053 57.469 31.4053H57.9157C58.0418 31.4053 58.0908 31.3857 58.0908 31.3511C58.0908 31.2969 58.0606 31.2879 58.0092 31.2879Z" fill="#58595B"/>
<path d="M66.4677 29.0172C66.3539 29.0999 66.2711 29.1281 66.0183 29.1281C65.8602 29.1281 65.6707 29.1062 65.5391 29.0609C65.4912 29.039 65.4792 29.0172 65.4792 28.9422V26.9326C65.4792 26.8763 65.4912 26.8514 65.5391 26.8404C65.6009 26.817 65.7136 26.8107 65.8712 26.8107C66.2452 26.8107 66.8427 27.0825 66.8427 28.0241C66.8427 28.5659 66.6582 28.8704 66.4677 29.0172ZM69.015 31.3782C68.9651 31.3782 68.9088 31.3735 68.8395 31.3657C68.7417 31.3438 68.4844 31.2985 68.1313 30.9144C67.7543 30.5006 67.3174 29.9119 66.7519 29.1764C67.3923 28.633 67.5897 28.1833 67.5897 27.6946C67.5897 27.2495 67.3344 26.9122 67.1584 26.7873C66.8177 26.5406 66.3918 26.5 65.9949 26.5C65.7939 26.5 65.3146 26.5203 65.0992 26.5203C64.9646 26.5203 64.5671 26.5 64.2315 26.5C64.1357 26.5 64.0908 26.5141 64.0908 26.5625C64.0908 26.6093 64.1267 26.6249 64.1995 26.6249C64.2873 26.6249 64.397 26.6265 64.4474 26.6421C64.6563 26.6905 64.7082 26.7936 64.7192 27.0153C64.7322 27.2308 64.7322 27.4151 64.7322 28.4191V29.5856C64.7322 30.1945 64.7322 30.7161 64.7002 30.9909C64.6743 31.1877 64.6444 31.3329 64.5147 31.3548C64.4569 31.3688 64.3821 31.3782 64.2873 31.3782C64.2105 31.3782 64.1886 31.4016 64.1886 31.436C64.1886 31.4797 64.2315 31.5 64.3103 31.5C64.5671 31.5 64.9646 31.4797 65.0877 31.4797C65.181 31.4797 65.6468 31.5 66.0183 31.5C66.1026 31.5 66.1465 31.4797 66.1465 31.436C66.1465 31.4016 66.1205 31.3782 66.0677 31.3782C65.9949 31.3782 65.8502 31.3688 65.7585 31.3548C65.569 31.3329 65.5291 31.1877 65.5101 30.9909C65.4792 30.7161 65.4792 30.1945 65.4792 29.5793V29.4872C65.4792 29.4466 65.4982 29.4325 65.5291 29.4325L66.0806 29.4466C66.1255 29.4466 66.1654 29.456 66.1923 29.495C66.2781 29.5887 66.5694 30.0384 66.8227 30.4038C67.1788 30.9144 67.4192 31.2236 67.6885 31.3735C67.858 31.4672 68.0146 31.5 68.3717 31.5H68.9731C69.0464 31.5 69.0908 31.489 69.0908 31.436C69.0908 31.4016 69.0674 31.3782 69.015 31.3782Z" fill="#58595B"/>
<path d="M70.8933 28.4421C70.8933 27.4526 70.8933 27.271 70.879 27.0586C70.8596 26.8401 70.7986 26.7385 70.5357 26.6908C70.4734 26.6754 70.3375 26.6739 70.2304 26.6739C70.1394 26.6739 70.0908 26.6585 70.0908 26.6123C70.0908 26.5646 70.15 26.5508 70.2678 26.5508C70.4808 26.5508 70.7107 26.5569 70.9089 26.5569C71.1164 26.5646 71.2983 26.5708 71.4055 26.5708C71.6622 26.5708 73.2385 26.5708 73.3855 26.5646C73.5388 26.5508 73.6647 26.5385 73.7282 26.5277C73.7681 26.5185 73.8179 26.5 73.8516 26.5C73.8927 26.5 73.9014 26.5277 73.9014 26.5569C73.9014 26.6077 73.864 26.6831 73.8366 26.9832C73.8323 27.0479 73.8179 27.3356 73.7955 27.411C73.7918 27.4449 73.7793 27.4864 73.7207 27.4864C73.6647 27.4864 73.6497 27.4526 73.6497 27.3941C73.6497 27.3464 73.641 27.2387 73.5999 27.1602C73.5482 27.0402 73.4659 26.9617 73.0734 26.9217C72.9357 26.9109 72.1045 26.897 71.9482 26.897C71.9039 26.897 71.8914 26.9171 71.8914 26.9617V28.6145C71.8914 28.6576 71.8989 28.6868 71.9482 28.6868C72.1183 28.6868 73.0291 28.6868 73.2123 28.6714C73.4017 28.6576 73.5226 28.6376 73.5937 28.5714C73.6497 28.5237 73.6796 28.4898 73.7207 28.4898C73.7506 28.4898 73.7793 28.5006 73.7793 28.5391C73.7793 28.5791 73.7463 28.6868 73.7133 29.0131C73.7033 29.1439 73.6796 29.407 73.6796 29.4548C73.6796 29.5055 73.6796 29.5779 73.6073 29.5779C73.5538 29.5779 73.5388 29.5517 73.5388 29.5209C73.5301 29.4548 73.5301 29.3655 73.5089 29.2824C73.4659 29.1516 73.3531 29.0531 73.064 29.0315C72.9095 29.0131 72.127 29.0115 71.9375 29.0115C71.8989 29.0115 71.8914 29.0408 71.8914 29.0746V29.5917C71.8914 29.8133 71.8815 30.4104 71.8914 30.6013C71.9039 31.0506 72.0341 31.1507 72.8447 31.1507C73.0429 31.1507 73.3781 31.1507 73.5855 31.0691C73.7917 30.9937 73.8852 30.8552 73.9407 30.5859C73.9588 30.5166 73.97 30.4889 74.0248 30.4889C74.0908 30.4889 74.0908 30.5428 74.0908 30.6089C74.0908 30.7551 74.0248 31.1983 73.9893 31.3276C73.9351 31.5 73.864 31.5 73.5625 31.5C72.9656 31.5 72.5319 31.4831 72.1893 31.4785C71.8541 31.4677 71.6073 31.4585 71.3693 31.4585C71.2834 31.4585 71.1076 31.4584 70.9195 31.4677C70.7326 31.4677 70.5282 31.4785 70.3737 31.4785C70.2678 31.4785 70.2129 31.4585 70.2129 31.4154C70.2129 31.3815 70.2441 31.3584 70.3375 31.3584C70.4572 31.3584 70.5506 31.3492 70.6242 31.3353C70.7824 31.3138 70.8223 31.1707 70.8572 30.9768C70.8933 30.7059 70.8933 30.1919 70.8933 29.5917V28.4421Z" fill="#58595B"/>
<path d="M76.2297 31.33C76.1117 31.2834 76.0908 31.2548 76.0908 31.1179C76.0908 30.7629 76.1213 30.3809 76.1264 30.2831C76.1349 30.1823 76.1557 30.1131 76.2156 30.1131C76.2765 30.1131 76.2878 30.1703 76.2878 30.2214C76.2878 30.3072 76.3149 30.438 76.3482 30.5478C76.5079 31.0187 76.9306 31.1916 77.3747 31.1916C78.018 31.1916 78.3357 30.8036 78.3357 30.4651C78.3357 30.1537 78.2308 29.8559 77.632 29.4453L77.3024 29.2151C76.5135 28.6691 76.2426 28.2223 76.2426 27.7019C76.2426 27.0054 76.9029 26.5 77.8984 26.5C78.3662 26.5 78.6659 26.5662 78.851 26.6083C78.9164 26.6234 78.952 26.6444 78.952 26.6865C78.952 26.7723 78.9255 26.9513 78.9255 27.4507C78.9255 27.5876 78.8984 27.6432 78.8453 27.6432C78.7923 27.6432 78.7725 27.6056 78.7725 27.5274C78.7725 27.4702 78.7393 27.2732 78.5891 27.1077C78.478 26.9859 78.272 26.7948 77.807 26.7948C77.2731 26.7948 76.9514 27.0671 76.9514 27.4507C76.9514 27.744 77.1134 27.9651 77.7127 28.3697L77.9097 28.5036C78.7787 29.0812 79.0908 29.522 79.0908 30.1282C79.0908 30.4937 78.9345 30.9389 78.4136 31.2368C78.0586 31.4413 77.658 31.5 77.2731 31.5C76.86 31.5 76.535 31.4534 76.2297 31.33Z" fill="#58595B"/>
<path d="M84.8167 31.1781C83.6406 31.1781 82.9365 30.1282 82.9365 28.8015C82.9365 27.213 83.7369 26.8069 84.442 26.8069C85.4442 26.8069 86.2336 27.6928 86.2336 29.1204C86.2336 30.9615 85.2415 31.1781 84.8167 31.1781ZM84.6178 26.5C82.7824 26.5 82.0908 27.9079 82.0908 28.9955C82.0908 30.1282 82.8007 31.5 84.5571 31.5C86.1122 31.5 87.0908 30.3418 87.0908 28.8827C87.0908 27.4251 86.1411 26.5 84.6178 26.5Z" fill="#58595B"/>
<path d="M97.1814 26.9554L96.0773 26.9784C95.651 26.9953 95.4693 27.0244 95.3598 27.1716C95.2865 27.2697 95.2527 27.3464 95.2346 27.3954C95.2213 27.4476 95.198 27.4752 95.1549 27.4752C95.1025 27.4752 95.0908 27.443 95.0908 27.3724C95.0908 27.2697 95.2271 26.6779 95.2434 26.6257C95.2655 26.5399 95.2865 26.5 95.3331 26.5C95.3913 26.5 95.4659 26.5675 95.651 26.5782C95.8642 26.5966 96.146 26.6104 96.3906 26.6104H99.3221C99.5586 26.6104 99.721 26.5905 99.8323 26.5782C99.9429 26.5583 100.004 26.546 100.031 26.546C100.083 26.546 100.091 26.5828 100.091 26.6825C100.091 26.822 100.066 27.2697 100.066 27.4353C100.061 27.5043 100.048 27.5396 100.004 27.5396C99.9429 27.5396 99.9289 27.5074 99.9208 27.4123L99.9138 27.3387C99.8987 27.1716 99.696 26.9876 99.0403 26.9738L98.1039 26.9554V29.6202C98.1039 30.2182 98.1039 30.7303 98.1452 31.0078C98.1668 31.1933 98.2122 31.3359 98.4323 31.3574C98.5325 31.3712 98.699 31.3804 98.8108 31.3804C98.8889 31.3804 98.9279 31.4034 98.9279 31.4371C98.9279 31.4801 98.8691 31.5 98.7875 31.5C98.2995 31.5 97.8337 31.4801 97.6252 31.4801C97.4563 31.4801 96.9904 31.5 96.6957 31.5C96.5979 31.5 96.549 31.4801 96.549 31.4371C96.549 31.4034 96.5781 31.3804 96.6667 31.3804C96.7738 31.3804 96.8623 31.3712 96.9287 31.3574C97.0766 31.3359 97.122 31.1933 97.143 31.0001C97.1814 30.7303 97.1814 30.2182 97.1814 29.6202V26.9554Z" fill="#58595B"/>
<path d="M101.23 31.33C101.116 31.2834 101.091 31.2548 101.091 31.1179C101.091 30.7629 101.122 30.3809 101.128 30.2831C101.14 30.1823 101.16 30.1131 101.217 30.1131C101.281 30.1131 101.285 30.1703 101.285 30.2214C101.285 30.3072 101.315 30.438 101.348 30.5478C101.508 31.0187 101.931 31.1916 102.374 31.1916C103.022 31.1916 103.339 30.8036 103.339 30.4651C103.339 30.1537 103.231 29.8559 102.634 29.4453L102.303 29.2151C101.517 28.6691 101.241 28.2223 101.241 27.7019C101.241 27.0054 101.904 26.5 102.898 26.5C103.363 26.5 103.664 26.5662 103.855 26.6083C103.918 26.6234 103.952 26.6444 103.952 26.6865C103.952 26.7723 103.924 26.9513 103.924 27.4507C103.924 27.5876 103.905 27.6432 103.847 27.6432C103.799 27.6432 103.774 27.6056 103.774 27.5274C103.774 27.4702 103.738 27.2732 103.585 27.1077C103.481 26.9859 103.273 26.7948 102.806 26.7948C102.279 26.7948 101.952 27.0671 101.952 27.4507C101.952 27.744 102.119 27.9651 102.712 28.3697L102.912 28.5036C103.782 29.0812 104.091 29.522 104.091 30.1282C104.091 30.4937 103.932 30.9389 103.415 31.2368C103.06 31.4413 102.655 31.5 102.279 31.5C101.86 31.5 101.538 31.4534 101.23 31.33Z" fill="#58595B"/>
<path d="M91.4662 29.0172C91.3505 29.0999 91.2717 29.1281 91.0164 29.1281C90.8559 29.1281 90.6664 29.1062 90.5363 29.0609C90.4909 29.039 90.4779 29.0172 90.4779 28.9422V26.9326C90.4779 26.8763 90.4909 26.8514 90.5363 26.8404C90.5976 26.817 90.7123 26.8107 90.8708 26.8107C91.2423 26.8107 91.8406 27.0825 91.8406 28.0241C91.8406 28.5659 91.6551 28.8704 91.4662 29.0172ZM94.015 31.3782C93.9642 31.3782 93.9083 31.3735 93.8355 31.3657C93.7408 31.3438 93.4795 31.2985 93.127 30.9144C92.7526 30.5006 92.3168 29.9119 91.7539 29.1764C92.3916 28.633 92.5881 28.1833 92.5881 27.6946C92.5881 27.2495 92.3338 26.9122 92.1573 26.7873C91.8152 26.5406 91.3894 26.5 90.9915 26.5C90.7941 26.5 90.3144 26.5203 90.099 26.5203C89.9614 26.5203 89.5645 26.5 89.2284 26.5C89.1337 26.5 89.0908 26.5141 89.0908 26.5625C89.0908 26.6093 89.1287 26.6249 89.1945 26.6249C89.2863 26.6249 89.393 26.6265 89.4438 26.6421C89.6533 26.6905 89.7041 26.7936 89.7161 27.0153C89.729 27.2308 89.729 27.4151 89.729 28.4191V29.5856C89.729 30.1945 89.729 30.7161 89.7011 30.9909C89.6742 31.1877 89.6433 31.3329 89.5136 31.3548C89.4568 31.3688 89.381 31.3782 89.2863 31.3782C89.2105 31.3782 89.1846 31.4016 89.1846 31.436C89.1846 31.4797 89.2284 31.5 89.3102 31.5C89.5645 31.5 89.9614 31.4797 90.0845 31.4797C90.1778 31.4797 90.6475 31.5 91.0164 31.5C91.1012 31.5 91.1431 31.4797 91.1431 31.436C91.1431 31.4016 91.1161 31.3782 91.0663 31.3782C90.9915 31.3782 90.8504 31.3688 90.7542 31.3548C90.5662 31.3329 90.5278 31.1877 90.5098 30.9909C90.4779 30.7161 90.4779 30.1945 90.4779 29.5793V29.4872C90.4779 29.4466 90.4949 29.4325 90.5278 29.4325L91.0793 29.4466C91.1231 29.4466 91.161 29.456 91.1939 29.495C91.2757 29.5887 91.5649 30.0384 91.8202 30.4038C92.1752 30.9144 92.415 31.2236 92.6878 31.3735C92.8513 31.4672 93.0108 31.5 93.3639 31.5H93.9682C94.0459 31.5 94.0908 31.489 94.0908 31.436C94.0908 31.4016 94.0629 31.3782 94.015 31.3782Z" fill="#58595B"/>
<path d="M107.091 25.7607H107.486V27.5H107.686V25.7607H108.091V25.5H107.091V25.7607Z" fill="#58595B"/>
<path d="M110.838 25.5L110.096 26.4819L109.33 25.5H109.091V27.5H109.367V26.0528C109.367 26.0198 109.363 25.9769 109.363 25.9769C109.363 25.9769 109.383 26.0099 109.397 26.0215L110.034 26.8449H110.151L110.788 26.0017C110.8 25.9868 110.817 25.9505 110.817 25.9505C110.817 25.9505 110.807 25.9951 110.807 26.0314V27.5H111.091V25.5H110.838Z" fill="#58595B"/>
</svg>
