<svg width="131" height="46" viewBox="0 0 131 46" fill="none" xmlns="http://www.w3.org/2000/svg">
<mask id="mask0_149_2327" style="mask-type:luminance" maskUnits="userSpaceOnUse" x="0" y="0" width="131" height="40">
<path d="M0.53418 0.0996094H130.267V39.2238H0.53418V0.0996094Z" fill="white"/>
</mask>
<g mask="url(#mask0_149_2327)">
<path fill-rule="evenodd" clip-rule="evenodd" d="M92.101 25.3865C90.4714 27.8128 89.7336 30.3636 90.5889 30.9499C91.4453 31.535 93.5709 29.9328 95.2004 27.5065C96.83 25.0802 97.5313 22.4928 96.6761 21.9076C95.8196 21.3225 93.7294 22.9602 92.101 25.3865ZM58.0946 16.6516C57.3157 16.6516 56.6828 17.2836 56.6828 18.0653C56.6828 18.8448 57.3157 19.479 58.0946 19.479C58.8734 19.479 59.5052 18.8448 59.5052 18.0653C59.5052 17.2836 58.8734 16.6516 58.0946 16.6516ZM39.5627 30.8722C42.449 30.8722 48.1085 22.0516 44.8072 22.0516C42.1696 22.0516 36.4154 30.8722 39.5627 30.8722ZM130.267 17.4025V17.8928L123.442 18.1053C123.442 18.1053 121.101 21.4539 119.028 24.615C118.752 25.0356 117.361 27.1648 116.604 28.5145C115.385 30.6836 112.321 35.6665 115.404 36.7945C115.775 36.975 116.539 37.295 116.271 37.5933C115.882 37.9705 115.263 38.1567 114.679 38.1567C108.857 38.1567 112.874 30.5408 115.127 27.5853C115.136 27.575 115.129 27.5648 115.116 27.5796C114.438 28.3156 111.847 31.7179 109.177 31.7179C107.797 31.7179 107.026 30.8665 107.026 29.791C107.026 26.6973 112.917 21.8676 110.553 21.8676C110.179 21.8676 109.588 22.1968 108.876 22.6448C106.754 23.9808 105.571 25.471 104.661 26.687C102.894 29.0562 101.206 31.5922 101.206 31.5922L98.5736 31.5945C98.5736 31.5945 103.296 24.4699 103.373 24.3522C102.207 25.3762 99.763 26.1396 98.5736 24.687C98.333 27.4448 94.5231 31.9465 91.4555 31.9465C88.8316 31.9465 88.169 29.295 88.859 27.2505C86.8668 29.7968 84.87 31.6436 82.944 31.6436C81.8948 31.6436 80.9267 30.8756 80.9267 29.4859C80.9267 27.2756 84.8404 23.8688 84.8404 22.3979C84.8404 22.1853 84.7491 21.8585 84.4013 21.8585C83.6647 21.8585 82.8026 22.3202 81.831 23.0939C79.8342 24.8036 79.093 26.1076 77.517 28.479C76.8511 29.4802 76.8898 29.5053 75.4735 31.5922L72.8416 31.5899C72.8416 31.5899 77.6242 24.3739 78.0461 23.735C78.4179 23.1682 79.3575 21.8196 78.2947 21.8196C76.6538 21.8196 73.8063 24.3362 71.4583 27.5042C70.562 28.8425 68.7409 31.5888 68.7409 31.5888H66.1112L70.9247 24.3293C70.6487 24.4436 69.5015 24.9122 68.5527 24.9088C67.783 24.9065 67.068 24.5316 67.068 23.4516C67.068 22.3419 68.027 21.751 68.4866 21.6402C68.5014 21.6402 68.4991 21.6299 68.4854 21.6299C66.1717 21.727 62.9525 24.7739 59.8017 29.4916C58.9738 30.7328 58.4116 31.5888 58.4116 31.5888L55.799 31.5876C55.799 31.5876 56.9861 29.8573 58.3489 27.807C58.358 27.791 58.358 27.7819 58.3386 27.8002C58.1539 27.9705 54.889 31.6459 52.8809 31.6459C51.1647 31.6459 50.664 29.7705 50.9605 28.2185C50.9605 28.2185 48.5726 31.631 46.3364 31.631C44.619 31.631 43.9519 29.9225 44.0933 28.5168C44.0774 28.487 44.0625 28.5179 44.0318 28.5179C43.7261 29.063 41.7898 31.6733 39.4282 31.6482C34.089 31.6482 38.0335 21.247 44.229 21.247C45.8586 21.247 46.6648 21.8916 46.6648 23.2676C47.0902 22.6219 47.9568 21.3248 47.9568 21.3248H50.5888C50.5888 21.3248 47.9352 25.3065 46.5736 27.3968C45.6157 28.8699 44.984 30.927 46.3182 30.927C48.5145 30.927 50.6766 27.5556 52.4213 24.8962C53.7088 22.9328 54.8252 21.2996 54.8252 21.2996H57.4583C57.4583 21.2996 54.9757 25.0516 53.2424 27.703C51.866 29.6219 52.0017 30.9225 52.9105 30.9225C54.7454 30.9225 58.9601 26.6928 61.1028 23.4059C61.9261 22.143 62.4872 21.3008 62.4872 21.3008L65.0975 21.2996L63.2387 24.0448L63.2592 24.0733C65.2069 22.1808 67.2379 21.0848 68.3497 21.0848C70.6726 21.0848 70.4525 23.5305 69.2951 24.3213C69.8824 24.199 71.1425 23.9602 71.8643 22.8996L72.9134 21.3053L75.6024 21.303L73.8497 23.8425L73.8588 23.8482C75.9274 21.7819 77.6037 21.2448 78.6768 21.2448C81.3383 21.2448 80.1592 23.855 80.1592 23.855C80.1524 23.8699 80.1604 23.8745 80.1752 23.855C80.531 23.3888 82.4297 21.2448 84.6933 21.2448C86.0583 21.2448 86.6113 21.887 86.6216 22.967C86.6353 24.4013 85.4003 26.0676 83.6943 28.8425C83.2233 29.6059 82.3909 30.8413 83.3853 30.8413C85.7994 30.8413 90.159 24.4539 90.2741 24.3065C91.8387 22.2836 93.7009 20.9476 96.1082 20.9476C97.4686 20.9476 98.2771 22.0299 98.5873 23.1648C99.8291 26.8048 103.637 23.879 104.848 22.1248C105.043 21.8436 105.223 21.5579 105.387 21.3053H108.023L106.23 23.9888C106.567 23.6985 108.866 21.2482 111.154 21.2482C112.603 21.2482 112.883 22.3042 112.883 23.1499C112.883 25.055 110.69 27.4973 109.811 29.2322C108.952 30.9259 109.69 31.4036 111.513 30.1728C113.846 28.5979 116.007 25.8596 118.533 22.2562C119.431 20.9739 120.525 19.4059 121.356 18.1522C118.784 18.1865 97.7434 18.6516 97.7434 18.6516L96.5632 17.4905L121.85 17.4265C121.85 17.4265 124.137 13.5602 126.04 13.5602C126.152 13.559 126.167 13.559 126.178 13.559C126.528 13.559 126.343 13.7442 126.207 13.9499C125.351 15.2379 123.905 17.415 123.905 17.415L130.267 17.4025ZM51.2616 2.65504C57.3237 2.65504 57.578 8.00475 51.8032 8.00475C48.8988 8.00475 45.9533 6.32247 44.1868 5.54647C46.1129 3.89504 48.7197 2.6619 51.2616 2.65504ZM51.3847 2.0219C48.4187 2.01161 45.5929 3.11561 43.2278 5.05161C40.2686 3.78761 34.3433 0.0996094 27.954 0.0996094C20.3102 0.0996094 15.4534 4.97961 15.4534 10.159C15.4534 14.4379 19.098 17.2928 23.1565 17.2928C29.1673 17.2928 30.0579 12.9808 30.0385 12.455C30.0385 12.1659 29.9245 11.5865 29.6759 11.3865C29.5368 11.2905 29.3292 11.3042 29.3361 11.4676C29.3361 13.1168 26.2149 16.4482 22.3685 16.4676C13.5182 16.5099 17.1389 0.842467 26.9094 0.842467C32.2633 0.842467 37.9126 4.41275 42.0019 6.21961C39.4088 9.0379 36.6297 12.8322 32.6077 20.8516C27.1067 31.8208 19.894 38.5648 11.8818 38.5648C7.45272 38.5648 2.9529 35.695 2.9529 28.711C2.9529 16.8973 18.5962 13.6573 18.5962 25.767C18.5962 30.735 15.1706 33.3373 12.3289 33.3647C9.10737 33.3647 8.41062 31.3739 8.41404 29.4608C8.41404 25.5065 10.3686 24.7145 9.40957 24.7145C5.89386 24.7145 5.07167 34.0436 12.7782 34.0436C17.7033 34.0436 20.6888 29.6859 20.7412 25.4402C20.7914 21.407 18.1948 17.4756 12.0997 17.4756C4.49579 17.4756 0.520531 23.0116 0.534215 28.4973C0.547899 33.8848 4.40913 39.2242 12.4623 39.2242C18.9349 39.2242 23.0869 36.4665 26.6916 33.0996C30.6566 29.3956 33.1118 24.5259 35.1815 19.7819C35.9227 19.9088 37.3664 20.1156 37.9058 19.9636C37.6937 20.5385 37.5774 22.1716 38.1122 22.1716C38.3197 22.1568 38.1544 21.7488 38.5729 20.8859C39.1146 19.7728 40.0975 19.2813 41.986 17.943C42.8241 17.3488 42.4786 16.455 41.6062 16.455C39.9048 16.455 39.1317 19.1362 37.1862 19.1362C36.6149 19.1328 35.9113 19.0173 35.5464 18.9259C36.8236 15.8013 40.0223 9.32132 42.9154 6.7179C44.1857 7.26075 48.3446 9.31904 51.3996 9.31904C58.6077 9.31904 59.5793 2.0219 51.3847 2.0219ZM16.1878 36.343C21.0138 34.223 28.3451 22.6448 29.8196 19.4573C28.954 19.4573 25.0004 19.591 25.0004 23.2813C24.3527 23.2813 23.7198 22.5213 23.7552 21.6162C23.7552 20.1465 25.257 18.639 30.3168 18.639C32.4469 15.1476 35.7779 10.5259 38.0153 8.96818C38.9572 8.31561 38.9766 8.45961 38.4201 9.12818C37.7051 10.1168 36.6674 11.6299 35.5441 13.5202C33.7253 16.4939 31.8118 20.5385 29.4592 24.5819C27.1614 28.2516 24.6435 31.2333 22.0196 33.4825C19.6157 35.455 17.1811 36.6859 15.7032 37.015C15.0486 37.1453 15.1467 36.687 16.1878 36.343Z" fill="#58595B"/>
</g>
<path fill-rule="evenodd" clip-rule="evenodd" d="M32.9774 35.6924C32.8431 35.6924 32.7344 35.8024 32.7344 35.9381C32.7344 36.075 32.8431 36.1838 32.9774 36.1838H104.014C104.15 36.1838 104.259 36.075 104.259 35.9381C104.259 35.8024 104.15 35.6924 104.014 35.6924H32.9774Z" fill="#58595B"/>
<path fill-rule="evenodd" clip-rule="evenodd" d="M32.5264 42.8527C32.5461 42.8527 32.5669 42.841 32.5669 42.8094V42.6796C32.5669 41.7412 32.5669 41.5692 32.553 41.3715C32.5403 41.1621 32.487 41.0626 32.2695 41.0193C32.2163 41.0076 32.104 41.0006 32.0115 41.0006C31.9397 41.0006 31.8992 40.9889 31.8992 40.9456C31.8992 40.9023 31.9467 40.8906 32.0392 40.8906C32.3945 40.8906 32.8099 40.9093 32.9881 40.9093C33.1466 40.9093 33.562 40.8906 33.8189 40.8906C33.9115 40.8906 33.9566 40.9023 33.9566 40.9456C33.9566 40.9889 33.9173 41.0006 33.8386 41.0006C33.7865 41.0006 33.7263 41.0076 33.6477 41.0193C33.4695 41.0509 33.4162 41.1562 33.4035 41.3715C33.3908 41.5692 33.3908 41.7412 33.3908 42.6796V43.7665C33.3908 44.3339 33.3908 44.8218 33.4232 45.0874C33.4428 45.2606 33.4822 45.3963 33.6801 45.4209C33.7726 45.4326 33.9173 45.4454 34.0168 45.4454C34.0885 45.4454 34.1221 45.4642 34.1221 45.4946C34.1221 45.5379 34.0689 45.5566 33.9902 45.5566C33.562 45.5566 33.1466 45.5379 32.9615 45.5379C32.8099 45.5379 32.3945 45.5566 32.1376 45.5566C32.045 45.5566 31.9999 45.5379 31.9999 45.4946C31.9999 45.4642 32.0253 45.4454 32.104 45.4454C32.2035 45.4454 32.2822 45.4326 32.3424 45.4209C32.4743 45.3963 32.5067 45.2606 32.5333 45.0816C32.5669 44.8218 32.5669 44.3339 32.5669 43.7665V43.2236C32.5669 43.199 32.5461 43.1862 32.5264 43.1862H30.0073C29.9876 43.1862 29.9679 43.192 29.9679 43.2236V43.7665C29.9679 44.3339 29.9679 44.8218 30.0003 45.0874C30.02 45.2606 30.0605 45.3963 30.2584 45.4209C30.351 45.4326 30.4956 45.4454 30.594 45.4454C30.6669 45.4454 30.7004 45.4642 30.7004 45.4946C30.7004 45.5379 30.6472 45.5566 30.5685 45.5566C30.1392 45.5566 29.7238 45.5379 29.5398 45.5379C29.3882 45.5379 28.9728 45.5566 28.7078 45.5566C28.6233 45.5566 28.5771 45.5379 28.5771 45.4946C28.5771 45.4642 28.6037 45.4454 28.6824 45.4454C28.7807 45.4454 28.8606 45.4326 28.9196 45.4209C29.0515 45.3963 29.085 45.2606 29.1105 45.0816C29.1441 44.8218 29.1441 44.3339 29.1441 43.7665V42.6796C29.1441 41.7412 29.1441 41.5692 29.1302 41.3715C29.1174 41.1621 29.0642 41.0626 28.8467 41.0193C28.7946 41.0076 28.6824 41.0006 28.5898 41.0006C28.518 41.0006 28.4775 40.9889 28.4775 40.9456C28.4775 40.9023 28.5238 40.8906 28.6164 40.8906C28.9728 40.8906 29.3882 40.9093 29.5653 40.9093C29.7238 40.9093 30.1392 40.8906 30.3972 40.8906C30.4887 40.8906 30.5349 40.9023 30.5349 40.9456C30.5349 40.9889 30.4956 41.0006 30.4169 41.0006C30.3637 41.0006 30.3047 41.0076 30.2248 41.0193C30.0478 41.0509 29.9946 41.1562 29.9807 41.3715C29.9679 41.5692 29.9679 41.7412 29.9679 42.6796V42.8094C29.9679 42.841 29.9876 42.8527 30.0073 42.8527H32.5264Z" fill="#58595B"/>
<mask id="mask1_149_2327" style="mask-type:luminance" maskUnits="userSpaceOnUse" x="35" y="40" width="6" height="6">
<path d="M35.3438 40.8037H40.7314V45.6438H35.3438V40.8037Z" fill="white"/>
</mask>
<g mask="url(#mask1_149_2327)">
<path fill-rule="evenodd" clip-rule="evenodd" d="M39.808 43.3414C39.808 41.9585 38.9575 41.1009 37.8756 41.1009C37.1176 41.1009 36.2544 41.4952 36.2544 43.0326C36.2544 44.3161 37.0123 45.3351 38.2783 45.3351C38.74 45.3351 39.808 45.1245 39.808 43.3414ZM35.3438 43.2244C35.3438 42.1679 36.0889 40.8037 38.0677 40.8037C39.7097 40.8037 40.7314 41.6988 40.7314 43.1133C40.7314 44.5267 39.6761 45.644 38.0017 45.644C36.1086 45.644 35.3438 44.3161 35.3438 43.2244Z" fill="#58595B"/>
</g>
<path fill-rule="evenodd" clip-rule="evenodd" d="M43.6048 41.2366L42.6223 41.2612C42.2393 41.2729 42.082 41.3033 41.9824 41.4402C41.9165 41.5326 41.8829 41.6075 41.8702 41.6555C41.8575 41.7058 41.8378 41.7304 41.7985 41.7304C41.751 41.7304 41.7383 41.6988 41.7383 41.6309C41.7383 41.5326 41.8633 40.971 41.8771 40.9219C41.8968 40.8412 41.9165 40.8037 41.9558 40.8037C42.0091 40.8037 42.075 40.8657 42.2393 40.8786C42.4314 40.8973 42.6814 40.9102 42.8989 40.9102H45.5106C45.9329 40.9102 46.0915 40.847 46.1435 40.847C46.1898 40.847 46.1956 40.8844 46.1956 40.9769C46.1956 41.1067 46.1759 41.5326 46.1759 41.6929C46.1701 41.7549 46.1563 41.7924 46.1169 41.7924C46.0637 41.7924 46.051 41.7608 46.044 41.6683L46.0382 41.6005C46.0243 41.4402 45.8461 41.267 45.2595 41.2553L44.4286 41.2366V43.7673C44.4286 44.3348 44.4286 44.8227 44.4622 45.0883C44.4819 45.2614 44.5212 45.3971 44.7191 45.4217C44.8117 45.4334 44.9563 45.4463 45.0558 45.4463C45.1276 45.4463 45.1611 45.465 45.1611 45.4954C45.1611 45.5387 45.1079 45.5574 45.035 45.5574C44.6011 45.5574 44.1856 45.5387 44.0005 45.5387C43.8489 45.5387 43.4335 45.5574 43.1697 45.5574C43.084 45.5574 43.0378 45.5387 43.0378 45.4954C43.0378 45.465 43.0644 45.4463 43.1431 45.4463C43.2414 45.4463 43.3213 45.4334 43.3803 45.4217C43.5122 45.3971 43.5515 45.2614 43.5712 45.0824C43.6048 44.8227 43.6048 44.3348 43.6048 43.7673V41.2366Z" fill="#58595B"/>
<path fill-rule="evenodd" clip-rule="evenodd" d="M48.0317 42.6801C48.0317 41.7417 48.0317 41.5686 48.019 41.372C48.0051 41.1614 47.9531 41.0631 47.7344 41.0198C47.6823 41.007 47.57 41.0011 47.4775 41.0011C47.4046 41.0011 47.3652 40.9882 47.3652 40.9461C47.3652 40.9028 47.4115 40.89 47.511 40.89C47.8605 40.89 48.2747 40.9087 48.4599 40.9087C48.6716 40.9087 49.9838 40.9087 50.1088 40.9028C50.2338 40.89 50.3391 40.8783 50.3923 40.8654C50.4247 40.8584 50.4652 40.8408 50.4976 40.8408C50.5312 40.8408 50.537 40.8654 50.537 40.8958C50.537 40.9391 50.5046 41.0128 50.4849 41.2971C50.4779 41.3591 50.4652 41.6306 50.4513 41.7055C50.4455 41.7359 50.4317 41.7733 50.3854 41.7733C50.3391 41.7733 50.3264 41.7417 50.3264 41.6867C50.3264 41.6434 50.3206 41.5381 50.287 41.4644C50.2407 41.3533 50.1748 41.2784 49.845 41.2421C49.7327 41.2304 49.0408 41.2176 48.9077 41.2176C48.8753 41.2176 48.8626 41.2363 48.8626 41.2784V42.8403C48.8626 42.8836 48.8695 42.9082 48.9077 42.9082C49.0535 42.9082 49.8126 42.9082 49.9642 42.8965C50.1215 42.8836 50.2211 42.8649 50.2801 42.8041C50.3264 42.7549 50.353 42.7234 50.3854 42.7234C50.412 42.7234 50.4317 42.7362 50.4317 42.7725C50.4317 42.8099 50.3981 42.9082 50.3784 43.2241C50.3657 43.347 50.353 43.5938 50.353 43.6371C50.353 43.6863 50.353 43.7541 50.294 43.7541C50.2465 43.7541 50.2338 43.7296 50.2338 43.6991C50.228 43.6371 50.228 43.5564 50.2083 43.4768C50.1748 43.3528 50.0822 43.2604 49.838 43.2358C49.7131 43.2241 49.0604 43.2171 48.9019 43.2171C48.8695 43.2171 48.8626 43.2417 48.8626 43.2791V43.767C48.8626 43.9764 48.8568 44.5439 48.8626 44.7241C48.8753 45.1499 48.9806 45.2424 49.6541 45.2424C49.8253 45.2424 50.1019 45.2424 50.2731 45.1675C50.4455 45.0938 50.5242 44.9639 50.5705 44.7112C50.5832 44.6433 50.5971 44.6188 50.6423 44.6188C50.6955 44.6188 50.6955 44.6679 50.6955 44.7299C50.6955 44.8715 50.6423 45.2915 50.6099 45.4144C50.5636 45.5758 50.5046 45.5758 50.2535 45.5758C49.2583 45.5758 48.8163 45.5384 48.4275 45.5384C48.2747 45.5384 47.8605 45.5571 47.5967 45.5571C47.511 45.5571 47.4647 45.5384 47.4647 45.4951C47.4647 45.4647 47.4914 45.4448 47.57 45.4448C47.6684 45.4448 47.7482 45.4331 47.8073 45.4202C47.9392 45.3956 47.9727 45.2599 47.9993 45.0821C48.0317 44.8223 48.0317 44.3344 48.0317 43.767V42.6801Z" fill="#58595B"/>
<path fill-rule="evenodd" clip-rule="evenodd" d="M53.7479 43.7667C53.7479 44.5564 53.7479 44.9823 53.8868 45.0935C53.999 45.1859 54.1703 45.2292 54.6852 45.2292C55.0335 45.2292 55.2904 45.2233 55.4559 45.0572C55.5346 44.9765 55.6144 44.8033 55.6271 44.6863C55.6341 44.6313 55.6468 44.5939 55.7 44.5939C55.7463 44.5939 55.7521 44.6243 55.7521 44.6992C55.7521 44.7659 55.707 45.2292 55.6537 45.4082C55.6144 45.5439 55.5808 45.5755 55.2383 45.5755C54.2883 45.5755 53.8532 45.5381 53.3198 45.5381C53.1682 45.5381 52.7516 45.5568 52.489 45.5568C52.4033 45.5568 52.3559 45.5381 52.3559 45.4948C52.3559 45.4643 52.3837 45.4456 52.4623 45.4456C52.5607 45.4456 52.6394 45.4328 52.6996 45.4211C52.8315 45.3965 52.8639 45.2608 52.8916 45.0818C52.924 44.822 52.924 44.3341 52.924 43.7667V42.6797C52.924 41.7414 52.924 41.5694 52.9102 41.3717C52.8974 41.1623 52.8442 41.0628 52.6278 41.0195C52.5746 41.0066 52.4959 41.0008 52.4091 41.0008C52.3374 41.0008 52.2969 40.9879 52.2969 40.9458C52.2969 40.9025 52.3432 40.8896 52.4427 40.8896C52.7516 40.8896 53.1682 40.9095 53.3464 40.9095C53.5038 40.9095 53.9851 40.8896 54.242 40.8896C54.3346 40.8896 54.3809 40.9025 54.3809 40.9458C54.3809 40.9879 54.3415 41.0008 54.2617 41.0008C54.19 41.0008 54.0835 41.0066 54.0048 41.0195C53.8266 41.0499 53.7745 41.1552 53.7618 41.3717C53.7479 41.5694 53.7479 41.7414 53.7479 42.6797V43.7667Z" fill="#58595B"/>
<path fill-rule="evenodd" clip-rule="evenodd" d="M57.3486 45.4825C57.2433 45.4393 57.2236 45.4088 57.2236 45.2731C57.2236 44.9338 57.2502 44.5629 57.256 44.4635C57.263 44.371 57.2826 44.3032 57.3359 44.3032C57.3949 44.3032 57.4007 44.3593 57.4007 44.4085C57.4007 44.4892 57.4273 44.6191 57.4608 44.7232C57.6055 45.1807 57.9954 45.3468 58.4039 45.3468C58.9975 45.3468 59.288 44.9701 59.288 44.6437C59.288 44.3406 59.1885 44.0505 58.6411 43.655L58.338 43.4339C57.6124 42.9027 57.3613 42.4698 57.3613 41.9702C57.3613 41.2904 57.9688 40.8037 58.8853 40.8037C59.3134 40.8037 59.59 40.8646 59.7624 40.909C59.8214 40.9207 59.855 40.9394 59.855 40.9827C59.855 41.0623 59.8284 41.2413 59.8284 41.7233C59.8284 41.8591 59.8087 41.9082 59.7555 41.9082C59.7092 41.9082 59.6895 41.8719 59.6895 41.797C59.6895 41.7421 59.6571 41.5502 59.5182 41.3899C59.4199 41.2729 59.2278 41.0869 58.7997 41.0869C58.3113 41.0869 58.0151 41.3524 58.0151 41.7233C58.0151 42.0076 58.1655 42.2241 58.714 42.6125L58.8992 42.7412C59.6895 43.3157 59.9799 43.7299 59.9799 44.3161C59.9799 44.6741 59.8341 45.1 59.3597 45.3901C59.0299 45.5878 58.6608 45.6428 58.3113 45.6428C57.9295 45.6428 57.6321 45.5995 57.3486 45.4825Z" fill="#58595B"/>
<path fill-rule="evenodd" clip-rule="evenodd" d="M67.1665 44.8845C66.7835 44.5756 66.1517 43.9953 65.9793 43.8221C65.808 43.6501 65.3868 43.2055 65.2746 43.0511C65.0501 43.2055 64.8186 43.4957 64.8186 43.9894C64.8186 44.7605 65.3995 45.2554 66.0846 45.2554C66.5925 45.2554 67.0276 45.0073 67.1665 44.8845ZM65.1021 42.8171C64.8256 42.4708 64.7735 42.218 64.7666 41.9396C64.7596 41.4529 65.2213 40.8047 66.3692 40.8047C66.6921 40.8047 66.9883 40.8655 67.1665 40.9346C67.2787 40.9708 67.2787 41.02 67.2787 41.0937C67.2787 41.2973 67.2255 41.7922 67.2058 41.8846C67.1931 41.977 67.1665 41.9899 67.1271 41.9899C67.0878 41.9899 67.0809 41.9642 67.0809 41.8717C67.0809 41.7114 67.0346 41.5137 66.8899 41.3534C66.758 41.2048 66.5266 41.0761 66.1586 41.0761C65.8809 41.0761 65.4516 41.2551 65.4516 41.7793C65.4516 42.3596 66.0198 42.8534 66.5463 43.4033C66.7707 43.6443 67.5819 44.3287 67.708 44.434C67.8399 44.2609 68.0239 43.8596 68.0239 43.4828C68.0239 43.3904 67.9973 43.2734 67.899 43.1997C67.8122 43.1248 67.6745 43.1072 67.575 43.1072C67.5368 43.1072 67.4963 43.0944 67.4963 43.0569C67.4963 43.0078 67.5495 42.9961 67.6016 42.9961C67.7601 42.9961 68.0239 43.0019 68.3931 43.0394C68.518 43.0511 68.6175 43.0885 68.6175 43.1622C68.6175 43.6373 68.3468 44.2117 67.9707 44.6259C68.4127 44.9652 68.7101 45.1313 68.8872 45.2296C69.0989 45.3478 69.4611 45.4461 69.593 45.4461C69.6532 45.4461 69.6856 45.4519 69.6856 45.5022C69.6856 45.5385 69.6335 45.5572 69.4877 45.5572H68.9797C68.2287 45.5572 67.9915 45.4894 67.4245 45.0822C67.2058 45.2671 66.7638 45.6438 65.8612 45.6438C64.4495 45.6438 64.0283 44.8166 64.0283 44.2796C64.0283 43.5577 64.7076 42.9961 65.1021 42.8171Z" fill="#58595B"/>
<path fill-rule="evenodd" clip-rule="evenodd" d="M73.8767 43.1674C73.8767 43.2353 73.8895 43.2599 73.9357 43.2786C74.0746 43.3219 74.2725 43.3406 74.4368 43.3406C74.7006 43.3406 74.7862 43.316 74.9054 43.2353C75.1033 43.0996 75.2942 42.8164 75.2942 42.3098C75.2942 41.4335 74.6752 41.1796 74.2852 41.1796C74.1209 41.1796 74.0017 41.1866 73.9357 41.2042C73.8895 41.2171 73.8767 41.2416 73.8767 41.2908V43.1674ZM73.098 42.6796C73.098 41.7412 73.098 41.5692 73.0852 41.3715C73.0725 41.1621 73.0193 41.0626 72.8017 41.0193C72.7497 41.0076 72.6363 41.0006 72.5449 41.0006C72.472 41.0006 72.4326 40.9889 72.4326 40.9456C72.4326 40.9023 72.4789 40.8906 72.5773 40.8906C72.9267 40.8906 73.3421 40.9093 73.481 40.9093C73.7055 40.9093 74.2054 40.8906 74.4102 40.8906C74.8256 40.8906 75.2676 40.9281 75.624 41.1562C75.8092 41.2732 76.0718 41.5879 76.0718 42.001C76.0718 42.4573 75.8682 42.8773 75.2017 43.3839C75.7883 44.0754 76.2442 44.6253 76.633 45.0067C77.0022 45.3659 77.2729 45.408 77.3713 45.4267C77.4442 45.4396 77.5032 45.4454 77.5564 45.4454C77.6097 45.4454 77.6351 45.4642 77.6351 45.4946C77.6351 45.5437 77.59 45.5566 77.5102 45.5566H76.883C76.5139 45.5566 76.3495 45.5262 76.1783 45.4396C75.8948 45.298 75.6437 45.0067 75.2746 44.5317C75.0107 44.1924 74.7076 43.7723 74.6219 43.6799C74.5884 43.6436 74.549 43.6366 74.5027 43.6366L73.93 43.6249C73.8964 43.6249 73.8767 43.6366 73.8767 43.6741V43.7606C73.8767 44.3339 73.8767 44.8218 73.9091 45.0816C73.93 45.2606 73.9693 45.3963 74.166 45.4209C74.2655 45.4326 74.4102 45.4454 74.49 45.4454C74.5421 45.4454 74.5687 45.4642 74.5687 45.4946C74.5687 45.5379 74.5224 45.5566 74.4368 45.5566C74.0549 45.5566 73.5666 45.5379 73.4683 45.5379C73.3421 45.5379 72.9267 45.5566 72.664 45.5566C72.5773 45.5566 72.531 45.5379 72.531 45.4946C72.531 45.4642 72.5576 45.4454 72.6363 45.4454C72.7358 45.4454 72.8145 45.4326 72.8746 45.4209C73.0066 45.3963 73.039 45.2606 73.0656 45.0816C73.098 44.8218 73.098 44.3339 73.098 43.7665V42.6796Z" fill="#58595B"/>
<path fill-rule="evenodd" clip-rule="evenodd" d="M78.8421 42.6801C78.8421 41.7417 78.8421 41.5686 78.8294 41.372C78.8155 41.1614 78.7634 41.0631 78.5459 41.0198C78.4927 41.007 78.3804 41.0011 78.2878 41.0011C78.2161 41.0011 78.1768 40.9882 78.1768 40.9461C78.1768 40.9028 78.223 40.89 78.3214 40.89C78.6709 40.89 79.0863 40.9087 79.2703 40.9087C79.482 40.9087 80.7942 40.9087 80.9192 40.9028C81.0453 40.89 81.1506 40.8783 81.2027 40.8654C81.2362 40.8584 81.2756 40.8408 81.308 40.8408C81.3415 40.8408 81.3485 40.8654 81.3485 40.8958C81.3485 40.9391 81.3149 41.0128 81.2953 41.2971C81.2895 41.3591 81.2756 41.6306 81.2617 41.7055C81.2559 41.7359 81.242 41.7733 81.1969 41.7733C81.1506 41.7733 81.1379 41.7417 81.1379 41.6867C81.1379 41.6434 81.1298 41.5381 81.0974 41.4644C81.0511 41.3533 80.9851 41.2784 80.6554 41.2421C80.5443 41.2304 79.8511 41.2176 79.7192 41.2176C79.6857 41.2176 79.6729 41.2363 79.6729 41.2784V42.8403C79.6729 42.8836 79.6799 42.9082 79.7192 42.9082C79.8639 42.9082 80.623 42.9082 80.7745 42.8965C80.9331 42.8836 81.0314 42.8649 81.0904 42.8041C81.1379 42.7549 81.1633 42.7234 81.1969 42.7234C81.2224 42.7234 81.242 42.7362 81.242 42.7725C81.242 42.8099 81.2096 42.9082 81.19 43.2241C81.1761 43.347 81.1633 43.5938 81.1633 43.6371C81.1633 43.6863 81.1633 43.7541 81.1043 43.7541C81.0569 43.7541 81.0453 43.7296 81.0453 43.6991C81.0372 43.6371 81.0372 43.5564 81.0175 43.4768C80.9851 43.3528 80.8926 43.2604 80.6484 43.2358C80.5234 43.2241 79.8708 43.2171 79.7123 43.2171C79.6799 43.2171 79.6729 43.2417 79.6729 43.2791V43.767C79.6729 43.9764 79.6672 44.5439 79.6729 44.7241C79.6857 45.1499 79.791 45.2424 80.4644 45.2424C80.6357 45.2424 80.9134 45.2424 81.0847 45.1675C81.2559 45.0938 81.3346 44.9639 81.3809 44.7112C81.3936 44.6433 81.4075 44.6188 81.4538 44.6188C81.5059 44.6188 81.5059 44.6679 81.5059 44.7299C81.5059 44.8715 81.4538 45.2915 81.4202 45.4144C81.3739 45.5758 81.3149 45.5758 81.065 45.5758C80.0687 45.5758 79.6267 45.5384 79.2379 45.5384C79.0863 45.5384 78.6709 45.5571 78.407 45.5571C78.3214 45.5571 78.2751 45.5384 78.2751 45.4951C78.2751 45.4647 78.3017 45.4448 78.3804 45.4448C78.4788 45.4448 78.5586 45.4331 78.6188 45.4202C78.7495 45.3956 78.7831 45.2599 78.8086 45.0821C78.8421 44.8223 78.8421 44.3344 78.8421 43.767V42.6801Z" fill="#58595B"/>
<path fill-rule="evenodd" clip-rule="evenodd" d="M83.6642 45.4825C83.5589 45.4393 83.5381 45.4088 83.5381 45.2731C83.5381 44.9338 83.5659 44.5629 83.5716 44.4635C83.5786 44.371 83.5983 44.3032 83.6503 44.3032C83.7105 44.3032 83.7163 44.3593 83.7163 44.4085C83.7163 44.4892 83.7429 44.6191 83.7765 44.7232C83.9211 45.1807 84.3099 45.3468 84.7195 45.3468C85.3131 45.3468 85.6024 44.9701 85.6024 44.6437C85.6024 44.3406 85.5041 44.0505 84.9567 43.655L84.6536 43.4339C83.928 42.9027 83.6769 42.4698 83.6769 41.9702C83.6769 41.2904 84.2833 40.8037 85.2009 40.8037C85.629 40.8037 85.9068 40.8646 86.078 40.909C86.137 40.9207 86.1694 40.9394 86.1694 40.9827C86.1694 41.0623 86.144 41.2413 86.144 41.7233C86.144 41.8591 86.1231 41.9082 86.0699 41.9082C86.0248 41.9082 86.0051 41.8719 86.0051 41.797C86.0051 41.7421 85.9727 41.5502 85.8339 41.3899C85.7343 41.2729 85.5434 41.0869 85.1153 41.0869C84.627 41.0869 84.3296 41.3524 84.3296 41.7233C84.3296 42.0076 84.4823 42.2241 85.0285 42.6125L85.2136 42.7412C86.0051 43.3157 86.2944 43.7299 86.2944 44.3161C86.2944 44.6741 86.1498 45.1 85.6753 45.3901C85.3455 45.5878 84.9764 45.6428 84.627 45.6428C84.2439 45.6428 83.9477 45.5995 83.6642 45.4825Z" fill="#58595B"/>
<mask id="mask2_149_2327" style="mask-type:luminance" maskUnits="userSpaceOnUse" x="88" y="40" width="6" height="6">
<path d="M88.1416 40.8037H93.5293V45.6438H88.1416V40.8037Z" fill="white"/>
</mask>
<g mask="url(#mask2_149_2327)">
<path fill-rule="evenodd" clip-rule="evenodd" d="M92.6059 43.3414C92.6059 41.9585 91.7554 41.1009 90.6734 41.1009C89.9155 41.1009 89.0523 41.4952 89.0523 43.0326C89.0523 44.3161 89.8102 45.3351 91.0761 45.3351C91.5378 45.3351 92.6059 45.1245 92.6059 43.3414ZM88.1416 43.2244C88.1416 42.1679 88.8868 40.8037 90.8644 40.8037C92.5075 40.8037 93.5293 41.6988 93.5293 43.1133C93.5293 44.5267 92.4739 45.644 90.7996 45.644C88.9065 45.644 88.1416 44.3161 88.1416 43.2244Z" fill="#58595B"/>
</g>
<path fill-rule="evenodd" clip-rule="evenodd" d="M96.2117 43.1674C96.2117 43.2353 96.2256 43.2599 96.2719 43.2786C96.4096 43.3219 96.6074 43.3406 96.7717 43.3406C97.0367 43.3406 97.1224 43.316 97.2404 43.2353C97.4383 43.0996 97.6292 42.8164 97.6292 42.3098C97.6292 41.4335 97.0101 41.1796 96.6202 41.1796C96.4558 41.1796 96.3378 41.1866 96.2719 41.2042C96.2256 41.2171 96.2117 41.2416 96.2117 41.2908V43.1674ZM95.4341 42.6796C95.4341 41.7412 95.4341 41.5692 95.4214 41.3715C95.4075 41.1621 95.3554 41.0626 95.1379 41.0193C95.0846 41.0076 94.9724 41.0006 94.8798 41.0006C94.8081 41.0006 94.7676 40.9889 94.7676 40.9456C94.7676 40.9023 94.8139 40.8906 94.9134 40.8906C95.2617 40.8906 95.6782 40.9093 95.8159 40.9093C96.0404 40.9093 96.5415 40.8906 96.7463 40.8906C97.1617 40.8906 97.6037 40.9281 97.9601 41.1562C98.1441 41.2732 98.4079 41.5879 98.4079 42.001C98.4079 42.4573 98.2031 42.8773 97.5378 43.3839C98.1244 44.0754 98.5792 44.6253 98.968 45.0067C99.3383 45.3659 99.6079 45.408 99.7063 45.4267C99.7792 45.4396 99.8393 45.4454 99.8914 45.4454C99.9446 45.4454 99.9701 45.4642 99.9701 45.4946C99.9701 45.5437 99.925 45.5566 99.8463 45.5566H99.2191C98.85 45.5566 98.6845 45.5262 98.5132 45.4396C98.2297 45.298 97.9798 45.0067 97.6095 44.5317C97.3468 44.1924 97.0437 43.7723 96.9569 43.6799C96.9245 43.6436 96.8851 43.6366 96.8389 43.6366L96.2649 43.6249C96.2325 43.6249 96.2117 43.6366 96.2117 43.6741V43.7606C96.2117 44.3339 96.2117 44.8218 96.2452 45.0816C96.2649 45.2606 96.3043 45.3963 96.5021 45.4209C96.6005 45.4326 96.7463 45.4454 96.8261 45.4454C96.8782 45.4454 96.9048 45.4642 96.9048 45.4946C96.9048 45.5379 96.8585 45.5566 96.7717 45.5566C96.3899 45.5566 95.9027 45.5379 95.8032 45.5379C95.6782 45.5379 95.2617 45.5566 94.999 45.5566C94.9134 45.5566 94.8671 45.5379 94.8671 45.4946C94.8671 45.4642 94.8937 45.4454 94.9724 45.4454C95.0707 45.4454 95.1506 45.4326 95.2096 45.4209C95.3415 45.3963 95.3739 45.2606 95.4017 45.0816C95.4341 44.8218 95.4341 44.3339 95.4341 43.7665V42.6796Z" fill="#58595B"/>
<path fill-rule="evenodd" clip-rule="evenodd" d="M101.676 41.2366L100.694 41.2612C100.311 41.2729 100.153 41.3033 100.054 41.4402C99.9878 41.5326 99.9554 41.6075 99.9426 41.6555C99.9288 41.7058 99.9091 41.7304 99.8686 41.7304C99.8223 41.7304 99.8096 41.6988 99.8096 41.6309C99.8096 41.5326 99.9345 40.971 99.9484 40.9219C99.9681 40.8412 99.9878 40.8037 100.027 40.8037C100.08 40.8037 100.146 40.8657 100.311 40.8786C100.503 40.8973 100.753 40.9102 100.97 40.9102H103.582C104.004 40.9102 104.163 40.847 104.215 40.847C104.261 40.847 104.268 40.8844 104.268 40.9769C104.268 41.1067 104.247 41.5326 104.247 41.6929C104.241 41.7549 104.228 41.7924 104.188 41.7924C104.136 41.7924 104.122 41.7608 104.115 41.6683L104.11 41.6005C104.096 41.4402 103.919 41.267 103.331 41.2553L102.5 41.2366V43.7673C102.5 44.3348 102.5 44.8227 102.533 45.0883C102.553 45.2614 102.593 45.3971 102.79 45.4217C102.883 45.4334 103.028 45.4463 103.127 45.4463C103.199 45.4463 103.232 45.465 103.232 45.4954C103.232 45.5387 103.179 45.5574 103.106 45.5574C102.672 45.5574 102.256 45.5387 102.072 45.5387C101.92 45.5387 101.505 45.5574 101.241 45.5574C101.155 45.5574 101.109 45.5387 101.109 45.4954C101.109 45.465 101.134 45.4463 101.214 45.4463C101.314 45.4463 101.393 45.4334 101.452 45.4217C101.583 45.3971 101.623 45.2614 101.644 45.0824C101.676 44.8227 101.676 44.3348 101.676 43.7673V41.2366Z" fill="#58595B"/>
<path fill-rule="evenodd" clip-rule="evenodd" d="M105.608 45.4825C105.503 45.4393 105.483 45.4088 105.483 45.2731C105.483 44.9338 105.509 44.5629 105.517 44.4635C105.523 44.371 105.542 44.3032 105.596 44.3032C105.655 44.3032 105.662 44.3593 105.662 44.4085C105.662 44.4892 105.688 44.6191 105.721 44.7232C105.865 45.1807 106.254 45.3468 106.664 45.3468C107.257 45.3468 107.547 44.9701 107.547 44.6437C107.547 44.3406 107.448 44.0505 106.902 43.655L106.598 43.4339C105.872 42.9027 105.621 42.4698 105.621 41.9702C105.621 41.2904 106.229 40.8037 107.145 40.8037C107.573 40.8037 107.851 40.8646 108.022 40.909C108.081 40.9207 108.115 40.9394 108.115 40.9827C108.115 41.0623 108.088 41.2413 108.088 41.7233C108.088 41.8591 108.068 41.9082 108.015 41.9082C107.969 41.9082 107.949 41.8719 107.949 41.797C107.949 41.7421 107.917 41.5502 107.778 41.3899C107.679 41.2729 107.488 41.0869 107.059 41.0869C106.571 41.0869 106.275 41.3524 106.275 41.7233C106.275 42.0076 106.426 42.2241 106.974 42.6125L107.158 42.7412C107.949 43.3157 108.24 43.7299 108.24 44.3161C108.24 44.6741 108.095 45.1 107.619 45.3901C107.29 45.5878 106.921 45.6428 106.571 45.6428C106.188 45.6428 105.892 45.5995 105.608 45.4825Z" fill="#58595B"/>
</svg>
