<svg width="124" height="20" viewBox="0 0 124 20" fill="none" xmlns="http://www.w3.org/2000/svg">
<path fill-rule="evenodd" clip-rule="evenodd" d="M27.7002 0H24.8466V8.35581H14.529V0H11.7002V19H14.529V10.3201H24.8466V19H27.7002V0Z" fill="#58595B"/>
<path fill-rule="evenodd" clip-rule="evenodd" d="M0.700195 19H3.7002V0H0.700195V19Z" fill="#58595B"/>
<path fill-rule="evenodd" clip-rule="evenodd" d="M49.2596 10.363V17.8624C48.4437 18.4158 47.0704 18.8576 45.5247 18.8576C41.0044 18.8576 37.908 14.8515 37.908 9.79436C37.908 5.02666 40.6192 1.11196 45.1447 1.11196C48.2663 1.11196 50.0451 2.57426 51.3576 4.20919H51.5046V0.847931C50.5721 0.614369 47.9724 0 45.2612 0C38.6986 0 34.7002 4.79817 34.7002 10.0584C34.7002 15.8162 39.0178 20 45.322 20C48.4437 20 50.866 18.8017 52.1786 18.4209V10.363H49.2596Z" fill="#58595B"/>
<path fill-rule="evenodd" clip-rule="evenodd" d="M54.0638 1.62524C54.1956 1.62524 54.2615 1.56939 54.2615 1.45768V1.45261C54.2615 1.33075 54.1905 1.29013 54.0638 1.29013H53.9169V1.62524H54.0638ZM53.6635 1.09719H54.0638C54.3324 1.09719 54.5047 1.20889 54.5047 1.44245V1.44753C54.5047 1.62016 54.4033 1.71663 54.2716 1.75725L54.5756 2.24469H54.3172L54.0385 1.79787H53.9169V2.24469H53.6685V1.09719H53.6635ZM55.0115 1.68109C55.0115 1.11242 54.6162 0.711302 54.0587 0.711302C53.5064 0.711302 53.106 1.11242 53.106 1.68617C53.106 2.25992 53.5216 2.65088 54.0587 2.65088C54.601 2.65088 55.0115 2.25484 55.0115 1.68109ZM52.9033 1.68617C52.9033 1.04134 53.4152 0.523438 54.0638 0.523438C54.7226 0.523438 55.2243 1.03626 55.2243 1.68109C55.2243 2.33608 54.7125 2.83875 54.0638 2.83875C53.4202 2.83875 52.9033 2.34116 52.9033 1.68617Z" fill="#333333"/>
<path fill-rule="evenodd" clip-rule="evenodd" d="M62.5928 0.339844H63.5252V3.59955H69.049V0.339844H69.9814V7.55487H69.049V4.35609H63.5252V7.55487H62.5928V0.339844Z" fill="#58595B"/>
<path fill-rule="evenodd" clip-rule="evenodd" d="M80.4659 3.96551V3.88427C80.4659 2.2798 79.0875 0.969824 76.7107 0.969824C74.3137 0.969824 72.9556 2.19856 72.9556 3.90458V3.98582C72.9556 5.7223 74.5063 6.91042 76.7411 6.91042C79.0368 6.91042 80.4659 5.70199 80.4659 3.96551ZM71.9775 3.99597V3.91473C71.9775 1.86853 73.8424 0.253906 76.7107 0.253906C79.579 0.253906 81.4439 1.86853 81.4439 3.89442V3.97566C81.4439 6.01171 79.579 7.64665 76.7411 7.64665C73.8424 7.64665 71.9775 6.01171 71.9775 3.99597Z" fill="#58595B"/>
<path fill-rule="evenodd" clip-rule="evenodd" d="M85.189 1.06592H82.2295V0.339844H89.086V1.06592H86.1265V7.55487H85.189V1.06592Z" fill="#58595B"/>
<path fill-rule="evenodd" clip-rule="evenodd" d="M90.8604 0.339844H96.9263V1.06592H91.7979V3.49801H96.1206V4.22408H91.7979V6.8288H97.1645V7.55487H90.8604V0.339844Z" fill="#58595B"/>
<path fill-rule="evenodd" clip-rule="evenodd" d="M99.0186 0.339844H99.9561V6.8288H104.598V7.55487H99.0186V0.339844Z" fill="#58595B"/>
<path fill-rule="evenodd" clip-rule="evenodd" d="M105.733 5.35692H106.651C106.803 6.24547 107.477 6.93092 109.402 6.93092C110.943 6.93092 111.81 6.40795 111.81 5.52955C111.81 4.68162 111.176 4.40744 109.2 4.17896C107.213 3.94539 106.108 3.47319 106.108 2.17845C106.108 1.06649 107.269 0.249023 109.159 0.249023C111.034 0.249023 112.23 0.914167 112.423 2.23938H111.566C111.343 1.30005 110.558 0.970019 109.159 0.970019C107.639 0.970019 106.985 1.43206 106.985 2.16321C106.985 2.80805 107.456 3.18378 109.473 3.41226C111.587 3.65598 112.717 4.07741 112.717 5.49909C112.717 6.74813 111.49 7.64684 109.402 7.64684C106.985 7.64684 105.916 6.62628 105.733 5.35692Z" fill="#58595B"/>
<path fill-rule="evenodd" clip-rule="evenodd" d="M66.0743 16.0239C67.2753 16.0239 68.0304 15.5314 68.0304 14.6124V14.5718C68.0304 13.5411 67.2145 13.1603 66.0743 13.1603H63.5252V16.0239H66.0743ZM62.5928 12.4443H66.0185C67.6199 12.4443 68.9679 13.0384 68.9679 14.5616V14.6022C68.9679 15.8513 67.9088 16.4809 66.9054 16.6586L69.5456 19.6543H68.4155L65.8361 16.7297H63.5303V19.6594H62.5928V12.4443Z" fill="#58595B"/>
<path fill-rule="evenodd" clip-rule="evenodd" d="M71.5928 12.4443H77.6588V13.1704H72.5303V15.6025H76.853V16.3286H72.5303V18.9333H77.8969V19.6594H71.5928V12.4443Z" fill="#58595B"/>
<path fill-rule="evenodd" clip-rule="evenodd" d="M79.4883 17.4612H80.4055C80.5576 18.3498 81.2316 19.0352 83.1573 19.0352C84.6978 19.0352 85.5644 18.5122 85.5644 17.6338C85.5644 16.7859 84.931 16.5117 82.9546 16.2833C80.968 16.0497 79.8633 15.5775 79.8633 14.2878C79.8633 13.1759 81.0238 12.3584 82.914 12.3584C84.7891 12.3584 85.985 13.0235 86.1776 14.3488H85.3212C85.0982 13.4094 84.3127 13.0794 82.914 13.0794C81.3937 13.0794 80.74 13.5414 80.74 14.2726C80.74 14.9174 81.2113 15.2932 83.2282 15.5216C85.3414 15.7654 86.4715 16.1868 86.4715 17.6085C86.4715 18.8575 85.2401 19.7562 83.1573 19.7562C80.74 19.7511 79.6707 18.7306 79.4883 17.4612Z" fill="#58595B"/>
<path fill-rule="evenodd" clip-rule="evenodd" d="M96.7737 16.0651V15.9839C96.7737 14.3794 95.3953 13.0694 93.0185 13.0694C90.6215 13.0694 89.2634 14.2982 89.2634 16.0042V16.0854C89.2634 17.8219 90.8141 19.01 93.0489 19.01C95.3446 19.0151 96.7737 17.8016 96.7737 16.0651ZM88.2803 16.0956V16.0143C88.2803 13.9681 90.1452 12.3535 93.0135 12.3535C95.8818 12.3535 97.7467 13.9681 97.7467 15.994V16.0753C97.7467 18.1113 95.8818 19.7463 93.0439 19.7463C90.1452 19.7513 88.2803 18.1164 88.2803 16.0956Z" fill="#58595B"/>
<path fill-rule="evenodd" clip-rule="evenodd" d="M103.569 16.0239C104.765 16.0239 105.525 15.5314 105.525 14.6124V14.5718C105.525 13.5411 104.71 13.1603 103.569 13.1603H101.02V16.0239H103.569ZM100.088 12.4443H103.514C105.115 12.4443 106.463 13.0384 106.463 14.5616V14.6022C106.463 15.8513 105.404 16.4809 104.4 16.6586L107.041 19.6543H105.911L103.331 16.7297H101.025V19.6594H100.088V12.4443Z" fill="#58595B"/>
<path fill-rule="evenodd" clip-rule="evenodd" d="M111.146 13.1704H108.182V12.4443H115.043V13.1704H112.079V19.6594H111.146V13.1704Z" fill="#58595B"/>
<path fill-rule="evenodd" clip-rule="evenodd" d="M116.351 17.4612H117.268C117.42 18.3498 118.094 19.0352 120.02 19.0352C121.56 19.0352 122.427 18.5122 122.427 17.6338C122.427 16.7859 121.793 16.5117 119.817 16.2833C117.83 16.0497 116.726 15.5775 116.726 14.2878C116.726 13.1759 117.886 12.3584 119.776 12.3584C121.651 12.3584 122.847 13.0235 123.04 14.3488H122.183C121.96 13.4094 121.175 13.0794 119.776 13.0794C118.256 13.0794 117.602 13.5414 117.602 14.2726C117.602 14.9174 118.074 15.2932 120.091 15.5216C122.204 15.7654 123.334 16.1868 123.334 17.6085C123.334 18.8575 122.107 19.7562 120.02 19.7562C117.602 19.7511 116.533 18.7306 116.351 17.4612Z" fill="#58595B"/>
<path fill-rule="evenodd" clip-rule="evenodd" d="M119.499 3.34469C120.512 2.90803 120.887 2.4663 120.887 1.89255C120.887 1.33911 120.492 0.902448 119.798 0.902448C119.154 0.902448 118.648 1.26802 118.648 1.98394C118.648 2.52723 119.012 2.95373 119.499 3.34469ZM119.347 6.92936C120.193 6.92936 120.827 6.59425 121.257 6.1322L119.18 3.99968C118.328 4.31448 117.7 4.78668 117.7 5.64477C117.705 6.43685 118.283 6.92936 119.347 6.92936ZM121.683 6.56886C121.156 7.16292 120.381 7.63004 119.332 7.63004C117.852 7.63004 116.879 6.91413 116.879 5.70062C116.879 4.54804 117.766 3.92352 118.683 3.57825C118.207 3.15175 117.887 2.64908 117.887 1.97379C117.887 0.861829 118.794 0.237305 119.813 0.237305C120.903 0.237305 121.632 0.943068 121.632 1.91286C121.632 2.62877 121.07 3.32946 119.97 3.76104L121.719 5.53814L122.854 3.83213H123.629L122.185 6.01542L123.7 7.55896H122.636L121.683 6.56886Z" fill="#58595B"/>
</svg>
