<svg width="126" height="50" viewBox="0 0 126 50" fill="none" xmlns="http://www.w3.org/2000/svg">
<path d="M39.1983 46.4274C38.9783 46.4721 38.8583 46.5 38.7783 46.5C38.8583 46.5 38.9883 46.4721 39.1983 46.4274C39.1983 46.1201 39.2083 45.8073 39.1983 45.5C39.2083 45.8073 39.1983 46.1145 39.1983 46.4274Z" fill="#333333"/>
<path d="M125.384 17.667C125.325 17.6404 125.224 17.6777 125.16 17.7203C125.086 17.7735 125.027 17.8587 124.974 17.9386C124.016 19.3817 122.85 20.6437 121.593 21.8311C120.869 22.5127 120.103 23.1411 119.251 23.6576C118.697 23.993 118.117 24.2753 117.457 24.3498C116.988 24.4031 116.632 24.2114 116.451 23.78C116.381 23.6203 116.334 23.4392 116.323 23.2635C116.312 23.0026 116.328 22.7364 116.366 22.4808C116.456 21.8737 116.658 21.2933 116.94 20.7502C117.398 19.8716 117.899 19.0142 118.373 18.141C118.527 17.8587 118.681 17.5712 118.798 17.273C118.91 16.9801 118.788 16.7618 118.479 16.7192C117.835 16.6393 117.233 16.7192 116.786 17.2677C116.61 17.4807 116.44 17.6937 116.291 17.928C115.631 18.9663 114.992 20.0207 114.321 21.0537C113.794 21.8684 113.225 22.6512 112.522 23.3274C112.149 23.6842 111.745 23.9984 111.25 24.1741C110.627 24.3924 110.073 24.2912 109.594 23.828C109.466 23.7055 109.333 23.5777 109.242 23.4233C109.014 23.0452 108.779 22.6671 108.609 22.2624C108.13 21.1442 107.896 19.9621 107.736 18.7586C107.699 18.4818 107.763 18.3167 107.981 18.1569C109.647 16.9322 111.329 15.7235 113.177 14.7756C113.491 14.6159 113.571 14.3283 113.39 14.0248C113.219 13.7319 112.932 13.6361 112.628 13.8118C112.213 14.0461 111.803 14.2964 111.415 14.5733C109.748 15.7341 108.087 16.9109 106.426 18.0771C106.325 18.1463 106.235 18.2421 106.07 18.2688C106.112 18.1676 106.139 18.1037 106.165 18.0398C108.013 14.2059 109.887 10.3826 111.894 6.6285C112.682 5.1535 113.469 3.67318 114.587 2.40052C114.843 2.10765 115.045 1.75621 115.232 1.41009C115.327 1.23969 115.365 1.02669 115.375 0.829672C115.386 0.600701 115.226 0.472903 115.003 0.504853C114.843 0.526152 114.667 0.568752 114.529 0.65395C114.231 0.850972 113.922 1.04799 113.672 1.29826C112.948 2.02778 112.234 2.76794 111.548 3.53473C108.795 6.58058 105.809 9.36018 102.407 11.6712C101.912 12.0067 101.443 12.3794 100.996 12.7734C100.208 13.4763 99.5588 14.2804 99.3778 15.3667C99.3725 15.388 99.3512 15.404 99.3246 15.4412C99.2553 15.4466 99.1755 15.4625 99.0956 15.4679C98.542 15.4998 98.0043 15.617 97.4985 15.8406C96.6414 16.2133 95.992 16.7991 95.6619 17.699C95.598 17.88 95.5075 18.0504 95.4223 18.2208C94.8633 19.3391 94.1819 20.3774 93.3781 21.3306C92.6274 22.2198 91.8076 23.0346 90.8067 23.6576C90.4181 23.8972 90.0135 24.1102 89.5504 24.1581C89.2043 24.1954 89.0127 24.0516 89.002 23.7055C88.9967 23.4605 89.0233 23.1943 89.1085 22.9653C89.3481 22.3423 89.6142 21.73 89.9017 21.1229C90.269 20.3455 90.6683 19.584 91.0357 18.8013C91.1581 18.5457 91.2433 18.2634 91.2965 17.9865C91.4136 17.3262 91.0516 16.8364 90.3915 16.7192C90.2744 16.6979 90.1519 16.6926 90.0348 16.6926C89.2842 16.6873 88.6027 16.9269 87.9586 17.2943C87.192 17.7309 86.5425 18.306 85.8983 18.9024C85.7865 19.0036 85.6747 19.1101 85.5683 19.2113C85.5523 19.0675 85.5789 18.9557 85.6215 18.8492C85.8238 18.338 86.0368 17.8321 86.2337 17.3156C86.3881 16.9162 86.2603 16.6979 85.8398 16.6979C85.1264 16.6979 84.5302 16.9375 84.1682 17.6031C84.1096 17.7096 84.0457 17.8055 83.9765 17.9067C82.9863 19.3976 81.8417 20.7555 80.5747 22.0175C79.9146 22.6778 79.2278 23.3115 78.424 23.8013C78.1737 23.9558 77.8916 24.0836 77.6094 24.1634C77.2687 24.2593 77.0611 24.1102 77.0398 23.7641C77.0238 23.5085 77.0398 23.2263 77.125 22.992C77.3645 22.3423 77.6148 21.6927 77.9288 21.075C78.4932 19.9674 79.116 18.8918 79.7123 17.8002C79.8187 17.6031 79.9359 17.4061 80.0264 17.1985C80.1222 16.9855 80.0423 16.8257 79.8241 16.7458C79.7389 16.7139 79.6377 16.6979 79.5419 16.6979C78.9244 16.7086 78.3814 16.9162 78.014 17.4274C77.2528 18.4977 76.3424 19.4296 75.3629 20.2922C73.8403 21.6341 72.1953 22.8003 70.3693 23.7002C70.2362 23.7641 70.0978 23.8226 69.9594 23.8865C70.2681 23.5457 70.6035 23.2582 70.9176 22.9494C71.7108 22.1772 72.4082 21.3306 72.9033 20.3348C73.2068 19.7278 73.4197 19.0994 73.4197 18.4125C73.4197 17.5765 72.9513 16.9855 72.1367 16.7778C71.599 16.6447 71.0667 16.6873 70.5396 16.8097C69.6293 17.0174 68.8254 17.4647 68.0641 17.9972C67.9949 18.0451 67.9204 18.0824 67.7767 18.1569C67.8619 17.9919 67.8991 17.9067 67.947 17.8268C68.3782 17.0547 68.8041 16.2826 69.2354 15.5051C69.3259 15.3401 69.427 15.1697 69.4962 14.9939C69.5867 14.7703 69.5122 14.6212 69.2833 14.5466C69.1715 14.5094 69.0437 14.4827 68.9319 14.4987C68.1493 14.5999 67.4892 14.9034 67.1219 15.6649C66.2115 17.5499 65.2959 19.4296 64.3802 21.3093C64.3057 21.4584 64.2258 21.6075 64.1247 21.7406C63.3847 22.6938 62.469 23.4286 61.367 23.9185C61.1062 24.0356 60.824 24.1102 60.5472 24.1581C60.2597 24.2114 60.084 24.0676 60.0468 23.78C60.0255 23.6043 60.0308 23.4179 60.0734 23.2476C60.1319 22.9813 60.2118 22.7151 60.3236 22.4648C60.5578 21.927 60.8187 21.3998 61.0689 20.8726C61.4096 20.1644 61.7663 19.4562 62.1017 18.7427C62.2081 18.519 62.2827 18.2741 62.3359 18.0291C62.4637 17.4168 62.1336 16.9056 61.5267 16.7512C61.3883 16.7139 61.2446 16.7086 61.1008 16.7032C60.3076 16.6926 59.5996 16.9642 58.9394 17.3742C58.242 17.8055 57.6458 18.354 57.0495 18.9077C56.9857 18.9663 56.9165 19.0089 56.8419 19.0675C56.8526 18.6735 56.9005 18.3167 56.8685 17.9599C56.794 17.1346 56.2829 16.6979 55.4578 16.7032C54.7764 16.7032 54.1695 16.9429 53.5998 17.2836C52.7374 17.8002 52.0294 18.4924 51.3745 19.2432C51.2947 19.3391 51.2095 19.4296 51.1243 19.5201C51.1403 19.2858 51.2308 19.0888 51.2734 18.8864C51.3533 18.5031 51.4491 18.1143 51.4597 17.7256C51.4757 17.1079 51.1084 16.7405 50.4908 16.7139C50.2779 16.7032 50.0596 16.7245 49.852 16.7671C49.2025 16.9109 48.6488 17.2464 48.1804 17.6937C47.6107 18.2421 47.0677 18.8119 46.5567 19.4083C45.79 20.2976 45.0767 21.2241 44.3154 22.1187C43.7085 22.8322 43.0484 23.4872 42.2392 23.9824C41.5844 24.3818 40.887 24.6427 40.1044 24.5948C39.572 24.5628 39.1302 24.3551 38.848 23.8865C38.5126 23.3328 38.5393 22.731 38.6457 22.1506C38.7096 22.1187 38.7309 22.1027 38.7522 22.1027C40.4771 21.8258 42.0103 21.1069 43.421 20.0952C44.0279 19.6586 44.5656 19.1527 44.9968 18.5403C45.2949 18.1143 45.5132 17.6511 45.5558 17.1239C45.6037 16.5648 45.3588 16.1281 44.8371 15.9311C44.5656 15.8299 44.2568 15.7767 43.964 15.7607C43.3358 15.7288 42.729 15.8832 42.1434 16.1122C40.6847 16.6766 39.4922 17.6244 38.4594 18.7799C37.7939 19.5254 37.2403 20.3455 36.8623 21.272C36.5642 22.0015 36.3992 22.7577 36.5429 23.5511C36.7239 24.5681 37.2776 25.2976 38.2518 25.6864C38.8267 25.9153 39.4177 25.9313 40.0192 25.8514C41.1904 25.6917 42.2019 25.1805 43.1336 24.4829C44.3686 23.5564 45.3801 22.4115 46.3224 21.1975C46.8069 20.5744 47.2966 19.9568 47.813 19.3604C48.0845 19.0462 48.4146 18.7799 48.7287 18.5084C48.8511 18.4019 48.9949 18.2954 49.2238 18.3912C49.2131 18.519 49.2291 18.6628 49.1919 18.7853C49.0641 19.1953 48.9416 19.6106 48.7766 20.0047C48.1857 21.4424 47.5735 22.8695 46.9772 24.3072C46.8814 24.5362 46.7962 24.7758 46.7323 25.0154C46.6525 25.3136 46.7483 25.4574 47.0464 25.484C47.7279 25.5532 48.3401 25.3988 48.7606 24.8131C48.9949 24.4829 49.2025 24.1262 49.3835 23.7641C50.182 22.1559 51.1989 20.6969 52.4127 19.3817C52.7906 18.9716 53.2325 18.6149 53.6744 18.2741C53.866 18.125 54.1215 18.0345 54.3611 17.9865C54.7284 17.9067 54.9201 18.0771 54.8935 18.4498C54.8775 18.7214 54.8349 19.0036 54.7391 19.2539C54.4942 19.9142 54.244 20.5744 53.9512 21.2134C53.4667 22.2784 52.945 23.3327 52.4499 24.3924C52.3541 24.5948 52.2689 24.8131 52.2104 25.0314C52.1358 25.3083 52.2263 25.4467 52.5138 25.4787C53.0994 25.5479 53.6477 25.4361 54.0577 24.9781C54.3079 24.6959 54.5315 24.3764 54.7125 24.041C55.0106 23.5085 55.2714 22.9547 55.5323 22.4062C55.8996 21.6341 56.3575 20.9259 56.9058 20.2709C57.4701 19.6 58.0823 18.977 58.817 18.4924C59.1204 18.2901 59.4558 18.1143 59.8019 17.9972C60.2065 17.8587 60.3875 18.0504 60.2597 18.4551C60.1532 18.7853 60.0201 19.1048 59.8657 19.4136C59.5037 20.1538 59.1098 20.8833 58.7638 21.6288C58.4816 22.2358 58.2314 22.8588 57.9918 23.4818C57.912 23.6895 57.8747 23.9238 57.8641 24.1475C57.8321 24.861 58.2154 25.3189 58.9235 25.4574C59.4186 25.5532 59.903 25.468 60.3768 25.3349C61.3351 25.058 62.1762 24.5735 62.9535 23.9558C63.0599 23.8706 63.1664 23.7854 63.2729 23.7002C63.2835 23.8226 63.2569 23.9078 63.225 23.993C62.9748 24.5735 62.7245 25.1592 62.4743 25.7396C61.7343 27.4489 60.9944 29.1635 60.1 30.8036C59.0672 32.7099 57.8108 34.4458 56.1552 35.8729C55.1756 36.7196 54.1056 37.4384 52.961 38.0508C52.7906 38.1413 52.583 38.1946 52.4606 38.4129C52.6682 38.5673 52.8758 38.4821 53.0515 38.4182C53.5626 38.2212 54.079 38.0189 54.5634 37.7739C56.7834 36.645 58.7105 35.1381 60.3076 33.2105C61.5959 31.6503 62.6287 29.9303 63.5337 28.1358C64.4175 26.3839 65.2533 24.6107 66.1263 22.8588C66.7066 21.6927 67.3508 20.5585 68.1334 19.5095C68.506 19.0089 68.9106 18.5403 69.4217 18.1729C69.789 17.912 70.1776 17.715 70.6408 17.7043C71.0241 17.699 71.2424 17.8587 71.3542 18.2262C71.4447 18.5244 71.4287 18.8279 71.3116 19.1048C71.1306 19.5467 70.9549 19.994 70.71 20.404C69.8369 21.8737 68.7136 23.1144 67.2869 24.0676C67.0314 24.238 66.7705 24.419 66.5469 24.632C66.1849 24.9728 66.2967 25.3722 66.7812 25.4734C66.9994 25.5213 67.2337 25.5106 67.4573 25.4893C68.7296 25.3722 69.8955 24.9196 71.0241 24.3551C72.6797 23.5298 74.1757 22.4595 75.5652 21.2401C75.6663 21.1495 75.7728 21.0643 75.8739 20.9791C75.8846 21.0963 75.8473 21.1655 75.8207 21.2401C75.5811 21.8258 75.3203 22.4062 75.118 23.0026C75.0009 23.3487 74.937 23.7268 74.921 24.0889C74.8944 24.8397 75.3149 25.3243 76.0549 25.4734C76.5181 25.5639 76.96 25.4787 77.3912 25.3296C77.9821 25.1272 78.5198 24.8078 79.0255 24.4457C80.3032 23.5404 81.3786 22.4169 82.4114 21.256C82.5924 21.0537 82.768 20.846 82.949 20.6437C82.9384 20.8354 82.8745 20.9951 82.8 21.1495C82.2836 22.2305 81.7672 23.3061 81.2561 24.3871C81.1709 24.5681 81.0911 24.7598 81.0379 24.9568C80.9314 25.3296 81.0379 25.4787 81.4212 25.5C82.0706 25.5426 82.6296 25.3402 83.0342 24.8131C83.2099 24.5894 83.3696 24.3445 83.5027 24.0942C83.7795 23.5777 84.0457 23.0559 84.2906 22.5234C84.8868 21.2294 85.7546 20.1431 86.8087 19.2006C87.2718 18.7853 87.7616 18.3966 88.3366 18.141C88.5069 18.0664 88.6986 18.0025 88.8849 17.9812C89.1883 17.9493 89.3161 18.093 89.2416 18.3912C89.1883 18.6202 89.1032 18.8492 89.002 19.0675C88.7199 19.6639 88.4111 20.2443 88.1289 20.8354C87.7616 21.6128 87.3943 22.3902 87.0589 23.1837C86.9311 23.4872 86.8513 23.828 86.8247 24.1528C86.7714 24.8397 87.1654 25.3189 87.8415 25.4627C88.262 25.5532 88.6773 25.5053 89.0872 25.4201C90.0667 25.2124 90.9185 24.7279 91.7064 24.1368C93.2556 22.9707 94.4854 21.517 95.5075 19.8822C95.5714 19.7757 95.6459 19.6745 95.7151 19.5627C96.2528 20.3721 96.7692 21.1442 97.275 21.9216C97.3868 22.092 97.4719 22.2784 97.5465 22.4648C97.6157 22.6405 97.6742 22.8269 97.7008 23.0133C97.818 23.8386 97.2483 24.5309 96.4125 24.5788C95.8748 24.6107 95.3957 24.4457 95.0018 24.0782C94.8527 23.9398 94.7143 23.7907 94.5705 23.6469C94.2724 23.3594 93.969 23.3114 93.591 23.4925C93.1225 23.7161 93.016 24.1634 93.3621 24.5468C93.5271 24.7279 93.7347 24.8876 93.9477 25.0101C95.8589 26.0804 97.786 25.2497 98.691 24.2114C99.5269 23.2529 99.7079 22.1826 99.1489 21.0164C99.0158 20.7395 98.8507 20.4733 98.6751 20.2124C98.4195 19.8343 98.1321 19.4828 97.8872 19.0994C97.6902 18.7906 97.4932 18.4658 97.3708 18.1197C97.0727 17.2836 97.5039 16.6074 98.3769 16.4689C98.9838 16.3731 99.5056 16.5595 99.9953 16.9003C100.192 17.0334 100.389 17.1718 100.608 17.2624C101.576 17.6617 103.046 17.3209 103.764 16.5541C103.791 16.5275 103.812 16.5009 103.834 16.4743C103.908 16.3678 103.999 16.2453 103.898 16.1175C103.796 15.9897 103.674 16.0855 103.573 16.1281C103.136 16.3145 102.673 16.3731 102.205 16.3465C101.459 16.3092 100.964 15.7873 100.959 15.0419C100.954 14.6957 101.055 14.3816 101.225 14.0887C101.486 13.6361 101.827 13.2474 102.226 12.9225C102.966 12.3155 103.711 11.7191 104.478 11.144C106.144 9.89267 107.805 8.64664 109.29 7.17697C109.322 7.14502 109.37 7.12372 109.413 7.09709C109.402 7.24087 109.354 7.34736 109.301 7.44854C108.966 8.09818 108.625 8.74249 108.3 9.39746C106.32 13.4444 104.345 17.4966 102.375 21.5489C101.933 22.4541 101.513 23.3594 101.087 24.2753C100.97 24.5255 100.868 24.7811 100.799 25.0474C100.73 25.3083 100.826 25.4574 101.076 25.484C101.699 25.5532 102.29 25.4627 102.716 24.9675C102.961 24.68 103.174 24.3498 103.339 24.009C104.1 22.4382 104.835 20.8567 105.58 19.2752C105.617 19.1953 105.67 19.1207 105.75 18.9876C105.771 19.1101 105.782 19.1633 105.787 19.2219C105.91 20.1591 106.08 21.0856 106.373 21.9909C106.655 22.8482 107.017 23.6682 107.613 24.3605C108.433 25.3136 109.466 25.6757 110.701 25.4361C111.308 25.3189 111.851 25.0367 112.346 24.6746C112.99 24.2007 113.512 23.615 113.991 22.9866C114.066 22.8908 114.14 22.7949 114.247 22.6618C114.311 23.0718 114.332 23.4179 114.417 23.7481C114.651 24.664 115.237 25.255 116.169 25.4361C116.515 25.5053 116.882 25.5106 117.239 25.484C118.138 25.4095 118.947 25.042 119.709 24.5788C121.801 23.2955 123.499 21.6022 124.819 19.5308C125.059 19.1527 125.224 18.7214 125.405 18.306C125.464 18.1782 125.48 18.0291 125.49 17.8854C125.48 17.8002 125.437 17.6883 125.384 17.667ZM39.3112 20.2603C39.9553 19.1048 40.8071 18.1303 41.8985 17.3795C42.1593 17.1985 42.4574 17.06 42.7556 16.9429C42.9792 16.8577 43.2347 16.8151 43.4264 17.0174C43.6233 17.2251 43.6074 17.4913 43.5062 17.7256C43.3891 17.9972 43.2507 18.2741 43.0697 18.5031C42.0422 19.7917 40.7592 20.7448 39.2047 21.3093C39.0982 21.3466 38.9811 21.3679 38.8693 21.3998C38.848 21.3732 38.8214 21.3466 38.8001 21.3199C38.9705 20.9632 39.1195 20.6011 39.3112 20.2603Z" fill="#58595B"/>
<path d="M33.7569 31.0001C34.6167 32.2598 35.6002 33.4176 36.8523 34.3075C39.4049 36.1192 42.1941 36.6231 45.2035 35.7065C47.0199 35.1544 48.616 34.1895 50.0347 32.9406C50.5936 32.4474 51.088 31.8846 51.5986 31.3432C51.7544 31.1824 51.8727 30.984 51.8727 30.7321C51.6577 30.6678 51.561 30.8125 51.4535 30.909C51.0074 31.311 50.5829 31.7398 50.1153 32.1204C48.6536 33.3104 47.0468 34.2592 45.2035 34.7363C42.6938 35.3795 40.3938 34.9668 38.3624 33.3158C37.6262 32.7208 37.0028 32.0239 36.4331 31.2681C35.2616 29.7083 34.3803 27.9822 33.601 26.2026C32.3972 23.4367 31.4675 20.5796 30.6184 17.685C30.5217 17.3473 30.5217 17.3473 30.8119 17.1222C32.9185 15.5087 35.009 13.8738 37.1264 12.2818C39.9047 10.1966 42.753 8.20794 45.7087 6.38542C47.9281 5.01854 50.1906 3.73205 52.6089 2.73503C53.8503 2.22044 55.1132 1.78625 56.4459 1.58255C57.2628 1.45927 58.085 1.43246 58.8911 1.62008C59.2243 1.70048 59.5629 1.82913 59.8584 2.00066C60.2507 2.2258 60.3636 2.56886 60.2131 2.99769C60.1164 3.27642 59.9498 3.53372 59.7939 3.79102C59.6811 3.97327 59.5252 4.12872 59.4016 4.31097C59.2673 4.50394 59.3103 4.68619 59.5306 4.77732C59.6596 4.82556 59.8154 4.84164 59.9498 4.82556C60.3851 4.77196 60.6968 4.51466 60.9655 4.18768C61.7769 3.20674 61.6372 2.11323 60.6162 1.36814C60.0035 0.923232 59.3049 0.708819 58.574 0.590891C57.2413 0.381838 55.9247 0.558729 54.6241 0.864269C53.114 1.21805 51.6792 1.77553 50.2712 2.41877C48.0034 3.45331 45.8591 4.70227 43.7633 6.037C40.6893 7.99353 37.7498 10.143 34.8209 12.3032C32.8487 13.7559 30.871 15.1978 28.8988 16.6398C28.8182 16.6987 28.7268 16.747 28.5763 16.8381C28.6247 16.7148 28.6462 16.6612 28.6731 16.613C29.5114 14.9566 30.3336 13.3003 31.1881 11.6493C32.2199 9.64451 33.3269 7.68799 34.606 5.82795C34.7349 5.64034 34.8424 5.43664 34.9445 5.23295C35.0144 5.09358 35.0681 4.94349 35.1004 4.7934C35.1702 4.4557 35.009 4.28417 34.6704 4.31633C34.5522 4.32705 34.434 4.35385 34.3158 4.38065C32.4241 4.8202 30.5056 5.13646 28.5817 5.39376C27.8401 5.49025 27.0985 5.59209 26.3622 5.7261C24.9972 5.97268 23.6967 6.39614 22.4929 7.08763C21.2086 7.82736 20.1445 8.79222 19.5157 10.1484C18.7311 11.8476 18.7204 13.5468 19.6071 15.2193C19.8059 15.5945 20.0693 15.9268 20.3971 16.1949C20.5153 16.2913 20.6389 16.4039 20.827 16.286C20.8163 16.2163 20.827 16.1359 20.7948 16.0823C20.6873 15.884 20.5637 15.6856 20.4454 15.4926C19.6447 14.1526 19.5157 12.7535 20.1123 11.3062C20.7034 9.86429 21.7728 8.87798 23.1539 8.20258C24.304 7.63974 25.5346 7.34492 26.7922 7.16267C28.2378 6.95898 29.6887 6.78209 31.1343 6.59448C31.2203 6.58376 31.3117 6.59448 31.4353 6.59448C31.3869 6.69632 31.3601 6.75529 31.3332 6.80353C30.296 8.58316 29.4039 10.4432 28.5011 12.2925C26.8136 15.7553 25.1692 19.2449 23.3259 22.6273C21.9878 25.0823 20.5637 27.4891 18.9139 29.7512C17.7101 31.4021 16.3988 32.9513 14.8296 34.2753C13.7441 35.1919 12.5671 35.9745 11.2021 36.4087C8.76772 37.1913 6.48377 36.8697 4.39865 35.3688C3.59793 34.7899 2.95842 34.0555 2.45326 33.2086C2.31891 32.9834 2.18994 32.7476 2.03409 32.5332C1.80838 32.2276 1.4107 32.1365 1.02378 32.2705C0.690587 32.3831 0.507871 32.6672 0.491749 33.0478C0.470253 33.5677 0.679839 34.0073 0.97541 34.4147C1.33009 34.8971 1.78151 35.2777 2.28129 35.5993C4.18369 36.8268 6.28493 37.4433 8.53664 37.4969C10.5788 37.5451 12.5027 37.0359 14.3137 36.0924C16.1516 35.1276 17.7101 33.8036 19.1073 32.2866C20.9452 30.2926 22.4607 28.0573 23.8472 25.7416C25.3089 23.3027 26.6041 20.7726 27.8777 18.2318C27.9422 18.1085 28.0067 17.9852 28.1034 17.7976C28.1679 17.953 28.2109 18.0388 28.2378 18.1246C28.3882 18.5427 28.5333 18.9662 28.6892 19.3843C29.4792 21.5284 30.2476 23.6833 31.0752 25.8167C31.7685 27.6445 32.6498 29.3813 33.7569 31.0001Z" fill="#58595B"/>
<path d="M27.8902 45.2309C27.9002 44.9524 27.9452 44.9002 28.1852 44.8538C28.2502 44.8422 28.3202 44.8422 28.3852 44.8248C28.4152 44.819 28.4452 44.7958 28.4802 44.7726C28.4852 44.7204 28.4902 44.6682 28.4902 44.6218C28.4902 44.587 28.4702 44.5522 28.4552 44.5C27.8002 44.5 27.1402 44.5 26.4702 44.5C26.4702 44.616 26.4702 44.7088 26.4702 44.8248C26.6002 44.8422 26.7102 44.8538 26.8252 44.8654C26.9952 44.877 27.1102 44.9814 27.1152 45.1787C27.1252 45.6659 27.1202 46.1589 27.1202 46.6752C26.3452 46.681 25.6152 46.7042 24.8802 46.6636C24.8802 46.1589 24.8702 45.7065 24.8852 45.2483C24.8902 44.9872 24.9602 44.9176 25.1902 44.8654C25.2952 44.8422 25.4052 44.8248 25.5252 44.8016C25.5152 44.6856 25.5102 44.5986 25.5052 44.5C24.8302 44.5 24.1702 44.5 23.5152 44.5C23.4952 44.819 23.4952 44.819 23.7002 44.8538C24.0852 44.9292 24.1102 44.9524 24.1102 45.3991C24.1102 46.4142 24.1052 47.4292 24.0952 48.4443C24.0902 49.0244 24.0652 49.0476 23.5802 49.1404C23.5602 49.1462 23.5402 49.1636 23.4902 49.1868C23.4952 49.2796 23.5002 49.384 23.5002 49.5C24.2002 49.5 24.8652 49.5 25.5452 49.5C25.5452 49.3724 25.5452 49.2738 25.5452 49.1926C25.5202 49.1694 25.5102 49.1578 25.5002 49.152C25.4002 49.1404 25.3002 49.1288 25.2002 49.1114C24.9852 49.0824 24.8752 48.9954 24.8702 48.7517C24.8552 48.2123 24.8652 47.6671 24.8652 47.0812C25.6352 47.0928 26.3652 47.058 27.1052 47.1044C27.1052 47.6497 27.1202 48.1601 27.1002 48.6647C27.0852 49.0302 27.0152 49.0824 26.7102 49.1172C26.6152 49.1288 26.5152 49.1404 26.4002 49.1578C26.4052 49.2854 26.4102 49.384 26.4152 49.4942C27.1152 49.4942 27.7902 49.4942 28.4852 49.4942C28.4852 49.3666 28.4852 49.268 28.4852 49.1694C28.4252 49.152 28.3852 49.1288 28.3452 49.123C27.8902 49.065 27.8752 49.0592 27.8702 48.5429C27.8652 47.8295 27.8752 47.1102 27.8752 46.3968C27.8752 46.0139 27.8752 45.6195 27.8902 45.2309Z" fill="#58595B"/>
<path d="M81.3134 44.5352C81.3192 44.6497 81.325 44.7355 81.3308 44.8328C81.4643 44.8499 81.5746 44.8671 81.6907 44.8843C82.0332 44.9472 82.1551 45.0673 82.2074 45.4106C82.2248 45.5136 82.2306 45.6166 82.2306 45.7196C82.2306 46.389 82.2364 47.0527 82.2306 47.7221C82.2306 47.7851 82.2015 47.848 82.1841 47.951C82.1029 47.8766 82.0506 47.8366 82.01 47.7908C81.0464 46.7609 80.0886 45.731 79.1249 44.7012C79.0495 44.6211 78.9508 44.5181 78.8579 44.5124C78.4225 44.4952 77.9814 44.5009 77.5576 44.5009C77.4531 44.7584 77.5402 44.8385 77.7608 44.8728C78.2194 44.9529 78.3297 45.0845 78.3471 45.5365C78.3471 45.5766 78.3529 45.6109 78.3471 45.6509C78.3181 46.6122 78.2948 47.5734 78.2542 48.5403C78.2368 48.9466 78.1671 49.0095 77.7492 49.0782C77.4531 49.1296 77.4473 49.1354 77.5518 49.4558C78.2368 49.4558 78.916 49.4558 79.601 49.4558C79.6474 49.1354 79.6474 49.1354 79.3746 49.0782C78.9102 48.9866 78.8115 48.9294 78.7999 48.5861C78.7708 47.6478 78.7708 46.7152 78.7592 45.7768C78.7592 45.7711 78.7766 45.7597 78.8115 45.7368C78.8637 45.7768 78.9218 45.8169 78.9682 45.8684C79.2469 46.1602 79.5197 46.4462 79.7925 46.7438C80.5704 47.5906 81.354 48.4316 82.1145 49.2956C82.2654 49.4615 82.3873 49.553 82.6485 49.4672C82.6485 49.3871 82.6485 49.3242 82.6485 49.2612C82.6659 48.0826 82.6659 46.8982 82.7008 45.7196C82.724 44.9701 82.7472 44.9758 83.467 44.787C83.4728 44.7469 83.4902 44.6954 83.4902 44.6497C83.4902 44.6153 83.4728 44.581 83.4554 44.5295C82.7472 44.5352 82.039 44.5352 81.3134 44.5352Z" fill="#58595B"/>
<path d="M61.3215 48.4149C61.0631 48.0703 60.7934 47.7314 60.535 47.3926C60.4788 47.3191 60.4395 47.2231 60.3946 47.1384C60.5294 47.0424 60.653 46.9689 60.7541 46.8786C61.1136 46.5679 61.3664 46.1952 61.2821 45.6868C61.1979 45.1503 60.8833 44.7775 60.3721 44.625C60.0631 44.5346 59.7317 44.5064 59.4059 44.5007C58.816 44.4951 58.2205 44.5233 57.6307 44.5403C57.597 44.5403 57.5633 44.5629 57.5127 44.5798C57.5183 44.6645 57.5183 44.7492 57.5239 44.8396C57.6138 44.8566 57.6869 44.8679 57.7599 44.8848C58.1306 44.9639 58.1981 45.0317 58.1981 45.4214C58.2037 46.438 58.2037 47.449 58.1981 48.4657C58.1924 48.9684 58.1363 49.0192 57.6475 49.0926C57.6026 49.0983 57.5576 49.1209 57.4902 49.1491C57.5015 49.2508 57.5071 49.3468 57.5127 49.4485C58.2767 49.4485 59.0126 49.4485 59.771 49.4485C59.7654 49.3242 59.7598 49.2282 59.7485 49.1152C59.5912 49.0983 59.4564 49.0813 59.316 49.0587C59.1643 49.0361 59.0463 48.974 59.0295 48.8046C58.9958 48.3132 59.007 47.8275 59.0126 47.3474C59.5463 47.2796 59.5463 47.2796 59.7991 47.6693C59.8496 47.7427 59.889 47.8218 59.9395 47.8952C60.226 48.3132 60.5125 48.7255 60.8046 49.1435C60.9788 49.3863 61.2091 49.5106 61.5125 49.4993C61.7653 49.4936 62.0181 49.4993 62.2709 49.4993C62.4787 49.4993 62.5349 49.4033 62.4562 49.1886C61.9619 49.1378 61.6192 48.8102 61.3215 48.4149ZM59.0576 46.9972C59.0576 46.2573 59.0576 45.5852 59.0576 44.8905C59.5126 44.8227 59.9283 44.8509 60.2148 45.2519C60.4788 45.6247 60.4788 46.0427 60.271 46.438C60.0294 46.8955 59.5744 46.952 59.0576 46.9972Z" fill="#58595B"/>
<path d="M32.8742 44.6405C32.4295 44.4724 31.9686 44.4668 31.5077 44.5621C30.4558 44.7693 29.6695 45.604 29.5231 46.6571C29.3604 47.7943 29.8051 48.6906 30.7757 49.2228C31.1499 49.4244 31.5403 49.5421 31.9036 49.486C32.5814 49.486 32.961 49.3796 33.4056 49.0491C34.1918 48.4721 34.5768 47.6991 34.4738 46.6851C34.3654 45.6488 33.796 44.9934 32.8742 44.6405ZM33.4056 47.996C33.2538 48.5954 32.8742 48.9987 32.2886 49.1051C31.6921 49.2172 31.2041 48.9483 30.8841 48.4329C30.3202 47.5198 30.2985 46.5563 30.7865 45.604C31.2475 44.7077 32.3319 44.6293 32.9555 45.3799C33.308 45.8113 33.514 46.4387 33.5303 47.1781C33.4924 47.4526 33.4707 47.7327 33.4056 47.996Z" fill="#58595B"/>
<path d="M43.1861 48.1211C43.1036 48.3027 43.0315 48.49 42.9335 48.6659C42.815 48.8758 42.6603 49.0517 42.4335 49.1085C42.0212 49.2106 41.6139 49.1879 41.2016 49.0914C41.2016 48.4389 41.2016 47.8091 41.2016 47.1849C41.5521 47.1225 41.9335 47.1168 42.0315 47.2416C42.15 47.3948 42.2119 47.6048 42.3098 47.8147C42.3614 47.8091 42.4335 47.8034 42.5315 47.792C42.5315 47.4856 42.5315 47.2076 42.5315 46.9295C42.5315 46.6572 42.5212 46.3791 42.5212 46.1238C42.315 46.05 42.2377 46.1351 42.2222 46.3054C42.181 46.6855 41.9542 46.799 41.6346 46.8104C41.5005 46.8161 41.3614 46.8104 41.2119 46.8104C41.2119 46.1578 41.2119 45.545 41.2119 44.9152C41.5933 44.8641 41.949 44.8584 42.2995 44.9662C42.7016 45.0854 42.8871 45.4656 43.1036 45.8174C43.2016 45.7663 43.2737 45.7323 43.3665 45.6812C43.284 45.4259 43.2067 45.1875 43.1243 44.9549C42.9593 44.5009 42.9593 44.4953 42.5315 44.5009C41.6758 44.5123 40.8201 44.535 39.9645 44.5577C39.9181 44.5577 39.8768 44.5747 39.815 44.5861C39.8098 44.6768 39.8047 44.762 39.7995 44.8754C39.8871 44.8925 39.9284 44.8981 39.9748 44.9038C40.3407 44.9492 40.382 44.9946 40.4026 45.3918C40.4078 45.4542 40.4078 45.5166 40.4078 45.5847C40.4078 46.504 40.4078 47.4175 40.4078 48.3368C40.4078 48.4786 40.4026 48.6148 40.382 48.7567C40.3459 49.0517 40.2995 49.1028 40.0366 49.1368C39.8665 49.1595 39.6964 49.1709 39.4902 49.1879C39.5005 49.3127 39.5109 49.4149 39.516 49.5C40.8098 49.5 42.0624 49.5 43.3459 49.5C43.3975 48.995 43.4438 48.524 43.4902 48.0531C43.248 47.985 43.248 47.985 43.1861 48.1211Z" fill="#58595B"/>
<path d="M92.1861 48.12C92.1088 48.301 92.0315 48.4876 91.9335 48.6629C91.8253 48.8609 91.6758 49.0306 91.4645 49.0928C91.0469 49.2059 90.6243 49.1833 90.2016 49.0928C90.2016 48.4367 90.2016 47.8089 90.2016 47.1529C90.5005 47.1415 90.7995 47.0793 91.0315 47.2547C91.1706 47.3565 91.217 47.6053 91.3098 47.8089C91.3562 47.8089 91.4232 47.8089 91.5263 47.8089C91.5263 47.2151 91.5676 46.6608 91.5212 46.1122C91.2686 46.1292 91.2686 46.1292 91.2119 46.3441C91.1191 46.6891 91.0263 46.7796 90.7016 46.8079C90.5366 46.8248 90.3665 46.8079 90.2016 46.8079C90.2016 46.1518 90.2016 45.5523 90.2016 44.9301C90.583 44.8736 90.9335 44.8736 91.284 44.9754C91.6861 45.0942 91.882 45.4674 92.0933 45.8181C92.1913 45.7728 92.2583 45.7389 92.3614 45.6937C92.2583 45.3883 92.15 45.1111 92.0727 44.8227C92.0057 44.5682 91.8614 44.4946 91.6346 44.5003C90.7325 44.5286 89.8304 44.5399 88.9284 44.5625C88.8974 44.5625 88.8614 44.5795 88.8098 44.5964C88.8098 44.6869 88.8098 44.7831 88.8098 44.8905C88.8975 44.9019 88.9645 44.9075 89.0315 44.9188C89.3098 44.9641 89.3665 45.0206 89.3923 45.326C89.3975 45.3883 89.3975 45.4505 89.3975 45.5183C89.4026 46.4176 89.4078 47.3225 89.4078 48.2218C89.4078 48.3858 89.4026 48.5498 89.382 48.7138C89.3459 49.0532 89.2995 49.0984 89.0005 49.138C88.8407 49.1607 88.681 49.1663 88.4902 49.1889C88.5005 49.3134 88.5057 49.4152 88.516 49.5C89.8098 49.5 91.0624 49.5 92.3459 49.5C92.3974 48.9966 92.4438 48.5216 92.4902 48.0691C92.3356 47.9503 92.248 47.9673 92.1861 48.12Z" fill="#58595B"/>
<path d="M56.1742 48.1186C56.1068 48.2941 56.0291 48.4639 55.941 48.6281C55.7804 48.9338 55.542 49.1263 55.2104 49.1377C54.8788 49.1433 54.542 49.132 54.1742 49.1263C54.1431 48.4413 54.1431 47.8015 54.1638 47.1731C54.5576 47.1165 54.9358 47.1165 55.0239 47.241C55.1379 47.3996 55.2001 47.6034 55.2933 47.8072C55.3452 47.8072 55.4125 47.8015 55.5058 47.7959C55.5058 47.2297 55.5058 46.6749 55.5058 46.12C55.4643 46.1087 55.4332 46.0861 55.4022 46.0861C55.3555 46.0861 55.3141 46.0974 55.2726 46.1087C55.0809 46.7824 54.8011 46.941 54.1742 46.7428C54.1742 46.4427 54.1742 46.1427 54.1742 45.837C54.1742 45.5369 54.1742 45.2368 54.1742 44.9254C54.5731 44.8688 54.9151 44.8688 55.2571 44.9594C55.6768 45.0726 55.8788 45.4576 56.1016 45.82C56.2001 45.769 56.2674 45.7294 56.3607 45.6784C56.2778 45.4237 56.2001 45.1859 56.1172 44.9537C55.9514 44.5065 55.9514 44.4952 55.5213 44.5008C54.6612 44.5121 53.8011 44.5348 52.941 44.5574C52.8944 44.5574 52.8529 44.5744 52.8011 44.5857C52.7908 44.6424 52.7752 44.6877 52.7752 44.7386C52.7752 44.7839 52.7959 44.8292 52.8063 44.8858C52.8996 44.8971 52.9825 44.8971 53.0602 44.9141C53.2985 44.9537 53.3503 45.016 53.3762 45.2821C53.3814 45.3444 53.3814 45.4067 53.3814 45.4746C53.3866 46.4144 53.3918 47.3543 53.3918 48.2941C53.3918 48.4696 53.3659 48.6508 53.3503 48.8263C53.3348 49.0018 53.2415 49.1037 53.0809 49.1207C52.9203 49.1377 52.7545 49.149 52.5939 49.1603C52.5628 49.166 52.5317 49.183 52.4902 49.1999C52.4902 49.2962 52.4902 49.3924 52.4902 49.5C53.7752 49.5 55.0395 49.5 56.34 49.5C56.3918 48.9961 56.4436 48.5149 56.4902 48.045C56.3244 47.9487 56.2363 47.9657 56.1742 48.1186Z" fill="#58595B"/>
<path d="M88.0774 48.14C87.9087 48.3295 87.7459 48.5246 87.5656 48.703C86.8678 49.4111 85.7571 49.255 85.1581 48.6306C84.3614 47.7943 84.3731 46.2221 85.1639 45.3803C85.8094 44.6946 87.3388 44.5998 87.8273 45.8486C87.8796 45.9768 87.9262 46.1051 87.9843 46.25C88.0948 46.2389 88.1878 46.2277 88.2809 46.2166C88.339 45.7315 88.2925 45.0179 88.1704 44.689C87.9145 44.8674 87.6819 44.7559 87.4435 44.6834C86.6992 44.4548 85.9606 44.4214 85.2163 44.689C83.9893 45.1294 83.3147 46.289 83.5299 47.5044C83.7101 48.5302 84.8616 49.5839 86.106 49.4947C86.6992 49.4557 87.2923 49.4557 87.9203 49.4334C88.1064 49.0041 88.2983 48.5581 88.4902 48.1177C88.2169 47.9839 88.2169 47.9839 88.0774 48.14Z" fill="#58595B"/>
<path d="M38.4853 44.9972C38.4853 44.8978 38.4803 44.7928 38.4803 44.6934C38.4754 44.4945 38.3765 44.4448 38.248 44.5718C38.1095 44.7155 37.9562 44.7265 37.7881 44.7265C37.0465 44.7265 36.2999 44.721 35.5582 44.7265C35.3308 44.7265 35.1182 44.7155 34.9451 44.5166C34.9253 44.489 34.866 44.5055 34.8017 44.5C34.6979 44.9751 34.5941 45.4392 34.4902 45.8978C34.6732 46.0304 34.7869 46.0083 34.8611 45.8039C34.9006 45.6878 34.955 45.5773 35.0143 45.4724C35.1083 45.2956 35.2418 45.1464 35.4247 45.1243C35.6522 45.0967 35.8796 45.1188 36.1268 45.1188C36.1367 45.2017 36.1466 45.2569 36.1466 45.3177C36.1417 46.3619 36.1417 47.4006 36.1268 48.4448C36.1169 49.047 36.1021 49.047 35.578 49.1464C35.5582 49.1519 35.5384 49.1685 35.4989 49.1906C35.4989 49.2845 35.4989 49.384 35.4989 49.5C36.2158 49.5 36.913 49.5 37.625 49.5C37.625 49.384 37.625 49.2901 37.625 49.1685C37.5211 49.1519 37.4222 49.1354 37.3283 49.1188C37.0218 49.0635 36.9377 48.953 36.9179 48.5994C36.913 48.5276 36.913 48.4503 36.913 48.3785C36.9179 47.384 36.9278 46.395 36.9377 45.4006C36.9377 45.3066 36.9575 45.2127 36.9674 45.0912C37.086 45.0912 37.1849 45.0912 37.2838 45.0912C37.887 45.1022 37.9958 45.1906 38.1787 45.826C38.1985 45.8923 38.2134 45.9365 38.2282 45.9586C38.2331 45.9641 38.2331 45.9696 38.2381 45.9751C38.248 45.9862 38.2578 45.9917 38.2677 45.9917C38.2727 45.9917 38.2776 45.9917 38.2826 45.9917C38.3221 45.9972 38.3864 45.9696 38.4902 45.9199C38.4803 45.6105 38.4853 45.3066 38.4853 44.9972Z" fill="#58595B"/>
<path d="M64.8568 46.97C64.5932 46.7972 64.3082 46.6523 64.0392 46.4907C63.851 46.3737 63.6627 46.2622 63.5014 46.1173C63.2809 45.9334 63.2432 45.6715 63.3185 45.3984C63.3938 45.1421 63.5659 44.9805 63.8295 44.9192C64.2167 44.83 64.5233 44.9805 64.7492 45.2926C64.8944 45.4876 65.002 45.7161 65.1364 45.9446C65.2117 45.9279 65.287 45.9056 65.4108 45.8777C65.3516 45.4374 65.3408 45.0306 65.2548 44.674C65.0235 44.6405 64.846 44.6127 64.6685 44.5848C64.491 44.557 64.3135 44.5068 64.1307 44.5012C63.4584 44.4734 62.8345 44.9248 62.6516 45.5433C62.4741 46.1619 62.7323 46.7526 63.3669 47.1427C63.5821 47.2765 63.8241 47.3768 64.0392 47.5049C64.206 47.6053 64.3781 47.7111 64.5072 47.8505C64.8837 48.2628 64.76 48.8926 64.2705 49.1378C63.8886 49.3272 63.3992 49.2046 63.1464 48.8201C63.0335 48.6474 62.9582 48.4412 62.8667 48.2517C62.7699 48.0511 62.7699 48.0511 62.4902 48.1737C62.5386 48.6084 62.5548 49.0542 62.7 49.5C63.2755 49.5 63.8295 49.5 64.3835 49.5C64.4319 49.5 64.4803 49.4944 64.5233 49.4777C65.002 49.2437 65.4 48.926 65.4753 48.3409C65.5506 47.7613 65.3408 47.2876 64.8568 46.97Z" fill="#58595B"/>
<path d="M73.0343 47.1176C72.8361 46.9401 72.5951 46.818 72.3701 46.6737C72.0916 46.4962 71.8024 46.3464 71.54 46.1522C71.299 45.9802 71.2293 45.7194 71.3097 45.4198C71.39 45.1258 71.5882 44.9593 71.872 44.9094C72.2791 44.8373 72.5737 45.0315 72.7933 45.3588C72.9164 45.5419 73.0075 45.7416 73.12 45.9525C73.2164 45.9192 73.2967 45.8859 73.3931 45.8526C73.3449 45.4365 73.2967 45.0481 73.2485 44.6819C72.9325 44.6264 72.6647 44.5876 72.3969 44.5321C72.0381 44.46 71.7007 44.5099 71.3793 44.6764C70.4206 45.1646 70.3135 46.3741 71.1865 47.0122C71.39 47.162 71.631 47.2619 71.8453 47.395C72.0595 47.5282 72.2952 47.6447 72.4773 47.8222C72.895 48.2328 72.745 48.9153 72.2148 49.1427C71.8292 49.3092 71.3686 49.176 71.1329 48.8043C71.0205 48.6323 70.9401 48.4326 70.8598 48.2384C70.7794 48.0553 70.6723 48.0386 70.4902 48.1551C70.5384 48.5935 70.5491 49.0484 70.7045 49.4923C71.1919 49.4923 71.6471 49.4701 72.1023 49.4978C72.4719 49.52 72.7558 49.3702 73.0182 49.1427C73.6395 48.6045 73.6502 47.6613 73.0343 47.1176Z" fill="#58595B"/>
<path d="M102.991 47.1761C102.859 47.0644 102.72 46.9644 102.546 46.8291C102.72 46.6939 102.859 46.5939 102.985 46.4762C103.34 46.1469 103.436 45.6587 103.219 45.2411C102.955 44.7295 102.498 44.506 101.932 44.5001C101.379 44.4942 100.862 44.8471 100.663 45.3352C100.453 45.8528 100.621 46.288 101 46.6703C101.12 46.788 101.247 46.9056 101.391 47.035C101.222 47.1644 101.072 47.2761 100.928 47.3879C100.266 47.9172 100.404 48.77 101.012 49.2229C101.457 49.5581 101.974 49.5346 102.444 49.4346C102.943 49.3288 103.328 48.97 103.448 48.4465C103.58 47.9348 103.394 47.5114 102.991 47.1761ZM101.301 45.5234C101.319 45.1647 101.625 44.8824 101.986 44.8706C102.323 44.8588 102.654 45.1412 102.69 45.4999C102.738 45.941 102.582 46.2939 102.131 46.5762C101.938 46.4351 101.734 46.3116 101.553 46.1586C101.367 45.994 101.283 45.7646 101.301 45.5234ZM102.54 48.8347C102.335 49.0935 101.998 49.1876 101.668 49.0759C101.361 48.9759 101.144 48.67 101.138 48.3054C101.132 47.8349 101.379 47.5173 101.794 47.2761C101.956 47.3702 102.125 47.4585 102.275 47.5643C102.389 47.6525 102.498 47.7584 102.582 47.876C102.78 48.1701 102.756 48.5642 102.54 48.8347Z" fill="#58595B"/>
<path d="M48.3986 48.0145C48.2972 47.9624 48.2313 48.0029 48.1705 48.1069C48.0995 48.2399 48.0133 48.3613 47.9424 48.4942C47.7295 48.8642 47.4253 49.0723 47.0451 49.1185C46.8778 49.1416 46.7055 49.1532 46.5331 49.1532C46.1377 49.1474 46.0972 49.1069 46.0972 48.6618C46.0921 47.922 46.1022 47.1821 46.1073 46.4422C46.1073 46.078 46.1073 45.7139 46.1174 45.3555C46.1276 44.9393 46.1681 44.8931 46.5281 44.8526C46.6244 44.841 46.7207 44.8179 46.8373 44.8006C46.8322 44.685 46.8271 44.604 46.8221 44.5C46.1022 44.5 45.4027 44.5 44.7082 44.5C44.6829 44.8121 44.6829 44.8121 44.8907 44.8526C45.3216 44.9393 45.3216 44.9393 45.3267 45.4422C45.3267 46.4017 45.3267 47.3613 45.3267 48.3208C45.3267 48.448 45.3267 48.5809 45.3064 48.7081C45.2658 48.9971 45.2101 49.0607 44.9617 49.0954C44.8147 49.1185 44.6727 49.1243 44.4902 49.1416C44.5004 49.2746 44.5054 49.3786 44.5105 49.5C45.7018 49.5 46.8576 49.5 48.0944 49.5C48.2212 49.0896 48.3479 48.6792 48.4746 48.2688C48.4949 48.1763 48.5152 48.0723 48.3986 48.0145Z" fill="#58595B"/>
<path d="M106.499 44.5833C105.709 44.2955 104.847 44.7772 104.582 45.6583C104.295 46.604 104.698 47.4675 105.554 47.7319C105.704 47.7789 105.853 47.8082 106.079 47.867C105.554 48.4133 105.079 48.9008 104.61 49.3943C104.621 49.4295 104.637 49.4648 104.648 49.5C104.847 49.4648 105.074 49.4883 105.245 49.3884C106.09 48.9008 106.781 48.2312 107.212 47.2972C107.35 46.9976 107.449 46.651 107.482 46.3221C107.554 45.535 107.123 44.8066 106.499 44.5833ZM106.488 47.215C106.35 47.4617 106.256 47.4969 105.996 47.4147C105.77 47.3442 105.599 47.1973 105.494 46.9741C105.262 46.4807 105.223 45.9696 105.389 45.4468C105.416 45.3587 105.46 45.2765 105.505 45.2001C105.792 44.7419 106.355 44.7596 106.587 45.253C106.703 45.5056 106.742 45.7993 106.814 46.0754C106.775 46.4866 106.681 46.8684 106.488 47.215Z" fill="#58595B"/>
<path d="M74.7515 44.8538C75.0631 44.906 75.1083 44.9698 75.1234 45.3237C75.1234 45.3643 75.1234 45.3991 75.1234 45.4397C75.1184 46.0255 75.1133 46.6114 75.1083 47.1972C75.1033 47.6903 75.1033 48.1891 75.0932 48.6821C75.0882 49.0302 75.048 49.0708 74.7415 49.123C74.6661 49.1346 74.5907 49.1578 74.5103 49.1752C74.5003 49.239 74.4902 49.2912 74.4902 49.3434C74.4902 49.3898 74.5103 49.442 74.5204 49.5C75.1787 49.5 75.8219 49.5 76.4802 49.5C76.4802 49.3724 76.4802 49.2738 76.4802 49.1694C76.3847 49.152 76.3093 49.1346 76.234 49.123C75.9375 49.0708 75.8822 49.0186 75.8772 48.6763C75.8671 47.5974 75.8621 46.5186 75.8721 45.4339C75.8772 44.9234 75.8973 44.9234 76.3194 44.848C76.3747 44.8364 76.4249 44.8132 76.4902 44.7958C76.4902 44.703 76.4902 44.616 76.4902 44.5C75.8018 44.5 75.1536 44.5 74.5053 44.5C74.5103 44.8074 74.5103 44.8074 74.7515 44.8538Z" fill="#58595B"/>
<path d="M51.2981 44.8856C51.504 44.8453 51.504 44.8453 51.4789 44.5576C51.1173 44.4713 49.5907 44.4828 49.5003 44.5864C49.5053 44.6554 49.5103 44.7417 49.5153 44.8223C49.5605 44.8453 49.5957 44.8626 49.6258 44.8683C50.113 44.9546 50.118 44.9661 50.113 45.5185C50.1079 46.3988 50.1029 47.2733 50.0979 48.1536C50.0979 48.3493 50.1029 48.5391 50.0929 48.7348C50.0828 49.0052 50.0276 49.0685 49.7966 49.1145C49.7012 49.1318 49.6057 49.149 49.4902 49.172C49.5003 49.2986 49.5103 49.3964 49.5153 49.5C50.1732 49.5 50.811 49.5 51.4488 49.5C51.5141 49.1663 51.5091 49.1605 51.2881 49.1203C50.9064 49.0455 50.8662 49.0109 50.8612 48.5852C50.8562 47.538 50.8512 46.4966 50.8612 45.4494C50.8713 44.9834 50.9014 44.9604 51.2981 44.8856Z" fill="#58595B"/>
<path d="M120.124 13.5C120.169 13.494 120.243 13.5 120.323 13.482C120.426 13.464 120.528 13.44 120.619 13.3981C121.416 13.0443 122.014 12.4627 122.384 11.6352C122.441 11.5033 122.475 11.3534 122.486 11.2095C122.526 10.7838 122.253 10.472 121.843 10.502C121.644 10.514 121.433 10.5739 121.257 10.6639C120.539 11.0476 120.016 11.6412 119.634 12.3847C119.583 12.4927 119.543 12.6066 119.515 12.7265C119.412 13.1942 119.634 13.494 120.124 13.5Z" fill="#58595B"/>
<path d="M80.1277 13.5C80.2988 13.4523 80.4813 13.4284 80.6467 13.3629C81.3938 13.0349 81.9585 12.4923 82.3349 11.741C82.4033 11.6039 82.4547 11.4429 82.4775 11.2879C82.5573 10.787 82.2551 10.4472 81.7703 10.5068C81.582 10.5306 81.3938 10.5962 81.2284 10.6857C80.5155 11.0792 79.9908 11.6695 79.6201 12.4148C79.5801 12.4983 79.5516 12.5877 79.5288 12.6772C79.3919 13.1721 79.6258 13.4821 80.1277 13.5Z" fill="#58595B"/>
<path d="M98.9393 49.0657C98.7199 49.0242 98.5945 48.8997 98.5757 48.6863C98.5631 48.5796 98.5694 48.4728 98.5694 48.3661C98.5694 47.2219 98.5757 46.0776 98.5757 44.9334C98.5757 44.7911 98.5631 44.6547 98.5569 44.5184C98.4691 44.5124 98.4189 44.4887 98.3876 44.5065C97.8045 44.7081 97.2277 44.9037 96.651 45.1112C96.4691 45.1764 96.4503 45.3069 96.5506 45.5144C96.9205 45.5144 97.303 45.5144 97.7168 45.5144C97.7168 46.4926 97.7168 47.4057 97.7168 48.3246C97.7168 48.3898 97.7168 48.4551 97.7105 48.5262C97.6666 48.8701 97.5224 49.0183 97.1588 49.0835C97.0083 49.1072 96.8641 49.1309 96.7011 49.1546C96.7136 49.2792 96.7199 49.3681 96.7262 49.4985C97.5976 49.4985 98.4503 49.5044 99.3092 49.4926C99.5474 49.4867 99.491 49.3147 99.4659 49.1487C99.2716 49.1131 99.1023 49.0954 98.9393 49.0657Z" fill="#58595B"/>
<path d="M109.593 44.7819C109.374 44.7819 109.138 44.8165 109.018 44.5288C109.008 44.5115 108.955 44.5173 108.872 44.5C108.746 44.943 108.616 45.3918 108.49 45.8349C108.647 45.9615 108.752 45.9672 108.835 45.8003C108.94 45.5817 109.112 45.5414 109.311 45.5472C109.603 45.5529 109.896 45.5529 110.189 45.5529C110.356 45.5529 110.529 45.5587 110.753 45.5587C110.633 45.8061 110.544 45.9902 110.455 46.1628C109.959 47.1582 109.457 48.1479 108.966 49.1433C108.914 49.2468 108.877 49.3619 108.825 49.5C109.055 49.5 109.227 49.5 109.405 49.5C110.079 47.935 110.8 46.4102 111.49 44.7762C110.811 44.7819 110.199 44.7877 109.593 44.7819Z" fill="#58595B"/>
</svg>
