<svg width="108" height="84" viewBox="0 0 108 84" fill="none" xmlns="http://www.w3.org/2000/svg">
<path d="M54.6645 39.3105C54.1535 39.3105 53.6462 39.3311 53.1465 39.3702L54.4296 51.2033H54.9482L56.1147 39.3652C55.635 39.3287 55.1528 39.3105 54.6645 39.3105Z" fill="#58595B"/>
<path d="M54.6653 38.3215C55.1839 38.3215 55.6987 38.342 56.2085 38.3812L59.8459 1.50753L48.8721 0.0644531L53.0393 38.3892C53.5781 38.3445 54.1166 38.3215 54.6653 38.3215Z" fill="#58595B"/>
<path d="M50.6607 39.7291C50.1598 39.8348 49.6687 39.961 49.1865 40.102L52.9407 51.4093L53.4505 51.3011L52.0883 39.4824C51.6123 39.5477 51.1364 39.6291 50.6607 39.7291Z" fill="#58595B"/>
<path d="M50.4524 38.7624C50.9585 38.6555 51.467 38.5678 51.9729 38.5014L47.7403 1.69043L36.7051 2.54811L48.8767 39.1645C49.3915 39.0104 49.915 38.8754 50.4524 38.7624Z" fill="#58595B"/>
<path d="M46.8311 40.9689C46.3665 41.1763 45.9108 41.3995 45.4727 41.6388L51.5295 51.9169L52.004 51.7069L48.1771 40.4307C47.7251 40.5923 47.278 40.7719 46.8311 40.9689Z" fill="#58595B"/>
<path d="M46.4249 40.0651C46.897 39.8569 47.3766 39.6674 47.8563 39.4964L35.9432 4.37402L25.3311 7.49867L44.9684 40.7859C45.438 40.5288 45.9238 40.2882 46.4249 40.0651Z" fill="#58595B"/>
<path d="M43.3479 42.9729C42.9385 43.2724 42.5419 43.585 42.1602 43.91L50.2587 52.7066L50.6754 52.4039L44.552 42.1699C44.1465 42.4204 43.7447 42.6882 43.3479 42.9729Z" fill="#58595B"/>
<path d="M42.759 42.1729C43.1771 41.8715 43.6053 41.5862 44.0397 41.3215L24.9687 9.44238L15.2529 14.6924L41.487 43.1784C41.8938 42.8298 42.3182 42.4935 42.759 42.1729Z" fill="#58595B"/>
<path d="M40.3702 45.6529C40.0287 46.0307 39.7073 46.4192 39.4033 46.8162L49.1794 53.7423L49.5259 53.3595L41.3734 44.6182C41.0281 44.9475 40.6966 45.2924 40.3702 45.6529Z" fill="#58595B"/>
<path d="M39.6242 44.9937C39.9683 44.6109 40.3274 44.2442 40.6952 43.8943L15.3112 16.668L6.91895 23.8135L38.5922 46.2402C38.9161 45.8152 39.2588 45.3988 39.6242 44.9937Z" fill="#58595B"/>
<path d="M38.0199 48.8912C37.7662 49.3318 37.5327 49.7754 37.3193 50.2279L48.3457 54.9776L48.6006 54.532L38.7845 47.6719C38.5171 48.0664 38.2623 48.4711 38.0199 48.8912Z" fill="#58595B"/>
<path d="M7.39473 25.7334L0.696289 34.4578L36.4075 49.8325C36.6336 49.3502 36.8797 48.873 37.1508 48.4019C37.4069 47.9551 37.6807 47.5226 37.9681 47.105L7.39473 25.7334Z" fill="#58595B"/>
<path d="M58.6702 39.7299C58.1693 39.623 57.6695 39.5378 57.1724 39.4727L55.9268 51.3118L56.4339 51.4187L60.0752 40.0823C59.6157 39.9487 59.1461 39.8305 58.6702 39.7299Z" fill="#58595B"/>
<path d="M58.8801 38.7629C59.3874 38.8697 59.8858 38.9971 60.3755 39.1406L71.7209 3.83489L61.2983 0.150391L57.2754 38.49C57.8104 38.559 58.3453 38.6491 58.8801 38.7629Z" fill="#58595B"/>
<path d="M62.4981 40.9692C62.0312 40.7616 61.5591 40.5745 61.0869 40.4092L57.3691 51.7264L57.8424 51.9364L63.799 41.6055C63.377 41.378 62.9426 41.1667 62.4981 40.9692Z" fill="#58595B"/>
<path d="M62.9067 40.0653C63.3813 40.2752 63.8421 40.5034 64.2903 40.7452L82.8441 8.56961L73.4271 2.80762L61.3975 39.4687C61.9034 39.6458 62.4069 39.8453 62.9067 40.0653Z" fill="#58595B"/>
<path d="M65.9788 42.9731C65.567 42.6722 65.145 42.3939 64.7182 42.1328L58.6914 52.4315L59.1083 52.7348L67.1163 43.8636C66.7522 43.556 66.373 43.2576 65.9788 42.9731Z" fill="#58595B"/>
<path d="M66.5713 42.1735C66.9906 42.478 67.3938 42.7962 67.7792 43.1243L92.72 15.5009L84.7296 7.91797L65.2178 41.2792C65.6761 41.5577 66.1281 41.8541 66.5713 42.1735Z" fill="#58595B"/>
<path d="M68.9613 45.6537C68.6211 45.2752 68.2681 44.9142 67.9066 44.5693L59.8369 53.3927L60.1797 53.7773L69.8841 46.7593C69.5929 46.3815 69.2864 46.0135 68.9613 45.6537Z" fill="#58595B"/>
<path d="M69.7078 44.9941C70.053 45.3782 70.3795 45.7717 70.6871 46.1737L100.914 24.3235L94.7013 15.2529L68.5752 43.8383C68.9669 44.2049 69.3437 44.5903 69.7078 44.9941Z" fill="#58595B"/>
<path d="M70.5064 47.6133L60.7529 54.571L61.0079 55.0178L71.9802 50.1649C71.7744 49.7349 71.5521 49.3098 71.3099 48.891C71.0562 48.4504 70.7901 48.0252 70.5064 47.6133Z" fill="#58595B"/>
<path d="M102.902 24.4912L71.3154 47.0349C71.6216 47.4755 71.908 47.9297 72.1791 48.402C72.4354 48.8477 72.6739 49.3019 72.8899 49.7574L107.062 34.6475L102.902 24.4912Z" fill="#58595B"/>
<path d="M7.4064 64.601L7.67273 64.5525C7.75418 64.4991 7.73544 64.3239 7.64879 64.2881C7.41902 64.3039 7.13769 64.3142 6.79492 64.3142C6.61545 64.3142 6.34927 64.3039 6.13072 64.2881C5.99269 64.8951 5.73152 65.4402 5.47287 66.049L4.70822 67.8196C4.52985 68.2555 4.41575 68.5138 4.28635 68.7813C4.18081 68.5685 3.97128 68.107 3.90591 67.9499L3.01202 65.8179C2.80862 65.3202 2.59759 64.8405 2.56495 64.2881C2.26612 64.3142 1.98111 64.3142 1.69475 64.3142C1.39467 64.3142 1.17753 64.3039 0.932695 64.2881C0.861133 64.3142 0.851078 64.4906 0.900051 64.5525L1.17753 64.6095C1.49394 64.664 1.61573 64.8582 1.61573 65.2929C1.61573 65.8549 1.56802 66.6214 1.53404 67.2484C1.49394 68.2082 1.47762 68.8085 1.41232 69.3894C1.36218 69.9533 1.29924 70.0911 0.908833 70.1468L0.769461 70.1656C0.721748 70.2104 0.721748 70.3869 0.794648 70.4324C1.1109 70.4142 1.40486 70.4052 1.66469 70.4052C1.96478 70.4052 2.21589 70.4142 2.51724 70.4324C2.58252 70.3966 2.58252 70.2202 2.52485 70.1656L2.25616 70.1086C1.90836 70.0438 1.89698 69.8976 1.89698 69.2888C1.89698 68.5327 1.91582 67.7093 1.93213 67.1466C1.94712 66.7608 1.96478 66.0405 1.98111 65.5857H1.99743C2.09544 65.8629 2.31384 66.4449 2.46828 66.8324L3.19015 68.6049C3.37724 69.0668 3.72628 69.9722 3.86573 70.4688C3.92098 70.5069 4.04144 70.5069 4.07542 70.4688C4.22106 70.0364 4.62662 69.0117 4.90402 68.3666L5.6022 66.7408C5.75412 66.3716 5.87089 66.0963 6.08937 65.5857H6.1057V66.4449V69.3621C6.1057 69.9879 6.08059 70.0638 5.75414 70.1183L5.53575 70.1656C5.45539 70.2202 5.48788 70.3966 5.5545 70.4324C5.90984 70.4142 6.26007 70.4052 6.64183 70.4052C6.96585 70.4052 7.28335 70.4142 7.63249 70.4324C7.72289 70.3966 7.73042 70.2013 7.64882 70.1656L7.41144 70.1183C7.15286 70.0825 7.06364 70.0177 7.03986 69.3997C6.98219 68.0336 6.96586 66.6675 6.96586 65.3013C6.96585 64.8121 7.0473 64.6543 7.4064 64.601Z" fill="#58595B"/>
<path d="M10.611 70.1653L10.375 70.118C10.0749 70.0725 10.0435 70.0435 10.2067 69.5002L10.5382 68.3936C10.611 68.1438 10.6035 68.1438 10.8144 68.1438H11.8954C12.1227 68.1438 12.1453 68.1438 12.2281 68.3936L12.6099 69.6487C12.7153 70.0435 12.6902 70.0999 12.3964 70.1357L12.2194 70.1653C12.1704 70.2199 12.1805 70.3866 12.2432 70.4327C12.5282 70.4236 12.886 70.4049 13.2351 70.4049C13.6571 70.4049 13.9583 70.4139 14.2897 70.4327C14.3451 70.3866 14.3451 70.2302 14.2823 70.1653L14.1592 70.1357C13.7474 70.0525 13.7047 69.9876 13.5177 69.3722L12.3487 65.5049C12.2194 65.0888 12.114 64.6541 11.9846 64.2393C11.9507 64.1932 11.9117 64.166 11.8452 64.166C11.8289 64.166 11.5628 64.5449 11.2789 64.6092C11.3028 64.7657 11.2261 64.987 11.1233 65.2823L10.0108 68.5688C9.84005 69.0666 9.71072 69.4552 9.61397 69.6935C9.49101 69.9979 9.40312 70.0822 9.16715 70.118L8.92349 70.1653C8.86574 70.2472 8.87335 70.3866 8.93103 70.4327C9.21612 70.4139 9.46591 70.4049 9.7346 70.4049C10.0673 70.4139 10.3359 70.4139 10.5959 70.4327C10.6612 70.3952 10.6676 70.2303 10.611 70.1653ZM10.8144 67.461L11.1558 66.3805C11.3028 65.9457 11.3668 65.7158 11.3995 65.6515H11.4146C11.4572 65.7158 11.5049 65.8923 11.6432 66.3805L11.9846 67.4894C12.0486 67.709 12.0172 67.7289 11.79 67.7289H10.945C10.749 67.7289 10.724 67.7289 10.8144 67.461Z" fill="#58595B"/>
<path d="M17.2389 70.1656L17.0593 70.1371C16.8559 70.1014 16.7179 70.0455 16.645 69.9073C16.507 69.6308 16.4994 68.7813 16.4994 68.0893V66.2891C16.4994 65.801 16.4994 65.6991 16.5244 65.6991C16.6625 65.8368 16.9238 66.1872 17.45 66.8628L19.3496 69.3264C19.9348 70.0825 20.1707 70.3967 20.3012 70.5894C20.3966 70.5991 20.5122 70.5633 20.575 70.4615C20.5512 70.2492 20.5512 69.1141 20.5512 68.8358V66.6317C20.5512 65.9028 20.5512 65.0994 20.6653 64.8139C20.7207 64.6659 20.8613 64.6283 21.0145 64.6011L21.2016 64.5544C21.2655 64.4906 21.2505 64.333 21.1852 64.2881C20.8939 64.3057 20.6804 64.3142 20.3314 64.3142C20.0162 64.3142 19.7161 64.3058 19.3999 64.2881C19.3182 64.3142 19.3093 64.4906 19.3822 64.5544L19.5706 64.5828C19.7715 64.6186 19.902 64.6743 19.9749 64.8139C20.1218 65.0891 20.1292 65.9386 20.1292 66.6317V68.4308C20.1292 68.5787 20.1292 68.6248 20.1054 68.6522C20.0238 68.5975 19.2705 67.6201 18.9252 67.1944L18.1166 66.1969C17.8315 65.8471 16.9465 64.6829 16.8082 64.2881C16.6124 64.3057 16.4191 64.3142 16.2483 64.3142C16.0462 64.3142 15.5978 64.3245 15.289 64.2881C15.2087 64.3142 15.2011 64.4997 15.2564 64.5544L15.3794 64.5828C15.4924 64.6114 15.7209 64.6829 15.8088 64.7677C16.085 65.0333 16.0776 65.1837 16.0776 65.9028V68.0893C16.0776 68.8171 16.0776 69.6205 15.972 69.9073C15.9143 70.0528 15.7686 70.0928 15.6155 70.1189L15.4348 70.1656C15.3718 70.2305 15.3895 70.3869 15.4522 70.433C15.7359 70.4142 15.9557 70.407 16.296 70.407C16.6048 70.407 16.9238 70.4142 17.2226 70.433C17.3054 70.407 17.3106 70.2305 17.2389 70.1656Z" fill="#58595B"/>
<path d="M26.9428 64.601C26.3503 64.3584 25.8003 64.2881 25.0256 64.2881C24.2334 64.2881 23.5817 64.3142 22.9979 64.3699C22.9313 64.4149 22.9313 64.5822 22.9903 64.6283L23.1599 64.6471C23.5404 64.7029 23.5503 64.8121 23.5503 65.6974V69.0754C23.5503 70.0528 23.4763 70.0825 23.0933 70.1371L22.9149 70.1656C22.8573 70.2305 22.8673 70.3966 22.9313 70.4324C23.2891 70.4142 23.6558 70.4052 23.9646 70.4052C24.2647 70.4052 24.6451 70.4596 25.1399 70.4596C25.8794 70.4596 26.5776 70.3482 27.1564 70.0177C28.1608 69.4355 28.6078 68.3835 28.6078 67.3588C28.6078 65.9853 27.9184 65.0072 26.9428 64.601ZM25.4099 70.091C24.5498 70.091 24.492 69.6107 24.492 68.7151V65.4694C24.492 65.0333 24.4996 64.8405 24.5548 64.7847C24.6125 64.7302 24.8737 64.6543 25.2152 64.6543C26.5713 64.6543 27.5041 65.5408 27.5041 67.3679C27.5041 68.9286 26.855 70.091 25.4099 70.091Z" fill="#58595B"/>
<path d="M32.6187 70.1357L32.4392 70.1653C32.3901 70.2199 32.3976 70.3866 32.463 70.4327C32.748 70.4236 33.1058 70.4049 33.4549 70.4049C33.8767 70.4049 34.1755 70.4139 34.5096 70.4327C34.5648 70.3866 34.5648 70.2302 34.5019 70.1653L34.3789 70.1357C33.9671 70.0525 33.9244 69.9876 33.7374 69.3722L32.5684 65.5049C32.4392 65.0888 32.3336 64.6541 32.2042 64.2393C32.1704 64.1932 32.1315 64.166 32.0649 64.166C32.0485 64.166 31.7824 64.5449 31.4962 64.6092C31.5225 64.7657 31.446 64.987 31.3405 65.2823L30.2306 68.5688C30.0599 69.0666 29.9292 69.4552 29.8338 69.6935C29.7108 69.9979 29.6228 70.0822 29.3867 70.118L29.1432 70.1653C29.0855 70.2472 29.093 70.3866 29.1507 70.4327C29.4344 70.4139 29.6881 70.4049 29.9518 70.4049C30.287 70.4139 30.5558 70.4139 30.8131 70.4327C30.8809 70.3952 30.8872 70.2303 30.8295 70.1653L30.5947 70.118C30.2933 70.0725 30.2632 70.0435 30.4264 69.5002L30.7578 68.3936C30.8295 68.1438 30.8232 68.1438 31.0341 68.1438H32.1138C32.3412 68.1438 32.365 68.1438 32.4479 68.3936L32.8271 69.6487C32.9325 70.0435 32.91 70.0999 32.6187 70.1357ZM32.0097 67.7289H31.1646C30.9688 67.7289 30.9437 67.7289 31.0341 67.461L31.3756 66.3805C31.5225 65.9457 31.5866 65.7158 31.6193 65.6515H31.6343C31.677 65.7158 31.7247 65.8923 31.8628 66.3805L32.2042 67.4894C32.2683 67.709 32.2369 67.7289 32.0097 67.7289Z" fill="#58595B"/>
<path d="M40.5259 70.1746C40.4305 70.1632 40.3188 70.1746 40.0915 69.9533C39.7097 69.5932 39.3029 68.8097 38.6551 67.5631C38.6224 67.5086 38.605 67.4339 38.6551 67.4066C39.0519 67.221 39.6294 66.7966 39.6294 65.9472C39.6294 65.2844 39.3256 64.8496 38.9138 64.601C38.5571 64.3791 38.0048 64.2881 37.3719 64.2881C36.7052 64.2881 36.0159 64.3142 35.5035 64.3699C35.4383 64.4149 35.4383 64.5653 35.4961 64.6283L35.7069 64.6555C36.0874 64.7028 36.0962 64.8139 36.0962 65.6991V69.0753C36.0962 70.0541 36.0247 70.0825 35.6417 70.1371L35.4634 70.1656C35.3881 70.2305 35.4157 70.3967 35.4785 70.433C35.8526 70.4154 36.2167 70.407 36.5758 70.407C36.9325 70.407 37.2979 70.4154 37.6532 70.433C37.721 70.3966 37.7285 70.2305 37.6707 70.1656L37.4924 70.1371C37.1107 70.0825 37.0379 70.0541 37.0379 69.0753V67.8959C37.0379 67.7019 37.0455 67.6922 37.289 67.6922C37.5577 67.6922 37.6481 67.7292 37.7938 68.0064C37.9896 68.3665 38.2156 68.8716 38.4354 69.2615C38.9314 70.1182 39.1448 70.4251 39.1448 70.4251L40.5296 70.4239C40.5296 70.4239 40.5686 70.2105 40.5259 70.1746ZM37.4284 67.3417C37.0379 67.3417 37.0379 67.3218 37.0379 67.0277V65.108C37.0379 64.6829 37.0455 64.6555 37.4673 64.6555C38.1755 64.6555 38.5887 65.2941 38.5887 66.0217C38.5887 66.8985 38.2246 67.3417 37.4284 67.3417Z" fill="#58595B"/>
<path d="M65.8109 67.6922C66.077 67.6922 66.1675 67.7292 66.313 68.0064C66.5064 68.3665 66.7351 68.8716 66.9559 69.2615C67.4507 70.1182 67.6667 70.4251 67.6667 70.4251L69.0515 70.4239C69.0515 70.4239 69.0879 70.2105 69.0465 70.1746C68.9498 70.1632 68.8407 70.1746 68.6107 69.9533C68.2303 69.5932 67.8248 68.8097 67.1745 67.5631C67.1443 67.5086 67.1255 67.4339 67.1745 67.4066C67.5713 67.221 68.1512 66.7966 68.1512 65.9472C68.1512 65.2844 67.8474 64.8496 67.4356 64.601C67.0789 64.3791 66.524 64.2881 65.8899 64.2881C65.227 64.2881 64.5339 64.3142 64.0253 64.3699C63.9589 64.4149 63.9589 64.5653 64.0153 64.6283L64.2263 64.6555C64.6092 64.7028 64.6181 64.8139 64.6181 65.6991V69.0753C64.6181 70.0541 64.5427 70.0825 64.161 70.1371L63.9827 70.1656C63.9099 70.2305 63.9349 70.3967 64.0003 70.433C64.3744 70.4154 64.7385 70.407 65.0976 70.407C65.453 70.407 65.8196 70.4154 66.175 70.433C66.2403 70.3966 66.249 70.2305 66.1913 70.1656L66.0143 70.1371C65.6325 70.0825 65.5585 70.0541 65.5585 69.0753V67.8959C65.5585 67.7019 65.5674 67.6922 65.8109 67.6922ZM65.5585 65.108C65.5585 64.6829 65.5674 64.6555 65.9892 64.6555C66.6948 64.6555 67.1091 65.2941 67.1091 66.0217C67.1091 66.8985 66.745 67.3417 65.9478 67.3417C65.5585 67.3417 65.5585 67.3218 65.5585 67.0277L65.5585 65.108Z" fill="#58595B"/>
<path d="M78.1514 83.4094C77.7697 83.0491 77.3629 82.2669 76.7137 81.0202C76.6797 80.9645 76.6634 80.8911 76.7137 80.8639C77.1117 80.6782 77.6867 80.2538 77.6867 79.4044C77.6867 78.7416 77.3855 78.3055 76.9724 78.0569C76.617 77.8363 76.0646 77.7441 75.4293 77.7441C74.765 77.7441 74.0756 77.7701 73.5635 77.826C73.4968 77.8721 73.4968 78.0212 73.5534 78.0843L73.7644 78.1127C74.1473 78.1588 74.1536 78.2711 74.1536 79.1564V82.5325C74.1536 83.5125 74.0833 83.5397 73.7015 83.5955L73.5208 83.6216C73.448 83.6864 73.4731 83.8526 73.5384 83.8902C73.9125 83.8714 74.2766 83.8629 74.6357 83.8629C74.9911 83.8629 75.3564 83.8714 75.713 83.8902C75.7783 83.8526 75.7871 83.6864 75.7294 83.6216L75.5523 83.5955C75.1706 83.5397 75.0965 83.5125 75.0965 82.5325V81.3519C75.0965 81.158 75.1052 81.1494 75.3489 81.1494C75.6176 81.1494 75.708 81.1852 75.8537 81.4623C76.0469 81.8225 76.2755 82.3287 76.494 82.7174C76.9888 83.5755 77.2046 83.8823 77.2046 83.8823L78.5896 83.8799C78.5896 83.8799 78.626 83.6677 78.5859 83.6307C78.4878 83.6216 78.3786 83.6307 78.1514 83.4094ZM75.487 80.7977C75.0965 80.7977 75.0965 80.7801 75.0965 80.4849V78.5652C75.0965 78.14 75.1052 78.1127 75.5273 78.1127C76.2342 78.1127 76.6484 78.75 76.6484 79.4789C76.6484 80.3557 76.2843 80.7977 75.487 80.7977Z" fill="#58595B"/>
<path d="M41.8995 70.1359L41.7185 70.1656C41.6609 70.2305 41.6709 70.3954 41.7362 70.433C42.0927 70.4142 42.4745 70.4051 42.831 70.4051C43.1902 70.4051 43.5543 70.4142 43.9108 70.433C43.9761 70.3954 43.9862 70.2305 43.9284 70.1656L43.7501 70.1359C43.3683 70.0825 43.2956 70.0528 43.2956 69.0754V65.6415C43.2956 64.6646 43.3683 64.6374 43.7501 64.5822L43.9284 64.5525C43.9862 64.4906 43.9761 64.3239 43.9108 64.2881C43.5543 64.3045 43.1902 64.3142 42.831 64.3142C42.4594 64.3142 42.0927 64.3045 41.7362 64.2881C41.6709 64.3239 41.6609 64.4906 41.7185 64.5525L41.8995 64.5822C42.2799 64.6374 42.3539 64.6646 42.3539 65.6415V69.0754C42.3539 70.0528 42.2799 70.0825 41.8995 70.1359Z" fill="#58595B"/>
<path d="M47.7834 70.433C47.8638 70.407 47.8688 70.2305 47.7985 70.1656L47.6203 70.1371C47.4156 70.1014 47.2787 70.0455 47.2046 69.9073C47.0678 69.6308 47.0578 68.7813 47.0578 68.0893V66.2891C47.0578 65.801 47.0578 65.6991 47.0842 65.6991C47.2235 65.8368 47.4823 66.1872 48.0095 66.8628L49.9104 69.3264C50.493 70.0825 50.7304 70.3967 50.8597 70.5894C50.9564 70.5991 51.0706 70.5633 51.1334 70.4615C51.1095 70.2492 51.1095 69.1141 51.1095 68.8358V66.6317C51.1095 65.9028 51.1095 65.0994 51.2238 64.8139C51.2815 64.6659 51.4197 64.6283 51.5728 64.6011L51.7612 64.5544C51.824 64.4906 51.8089 64.333 51.7462 64.2881C51.4548 64.3057 51.2414 64.3142 50.8911 64.3142C50.5747 64.3142 50.2745 64.3058 49.9581 64.2881C49.8777 64.3142 49.8678 64.4906 49.9417 64.5544L50.1288 64.5828C50.3322 64.6186 50.4616 64.6743 50.5345 64.8139C50.6813 65.0891 50.6876 65.9386 50.6876 66.6317V68.4308C50.6876 68.5787 50.6876 68.6248 50.6639 68.6522C50.5822 68.5975 49.8287 67.6201 49.4886 67.1944L48.675 66.1969C48.3912 65.8471 47.5047 64.6829 47.3666 64.2881C47.1733 64.3057 46.9786 64.3142 46.8067 64.3142C46.6044 64.3142 46.1563 64.3245 45.8499 64.2881C45.767 64.3142 45.7607 64.4997 45.8172 64.5544L45.9402 64.5828C46.0532 64.6114 46.2793 64.6829 46.3697 64.7677C46.6434 65.0333 46.6384 65.1837 46.6384 65.9028V68.0893C46.6384 68.8171 46.6384 69.6205 46.5329 69.9073C46.4751 70.0528 46.327 70.0928 46.1738 70.1189L45.9955 70.1656C45.9303 70.2305 45.9478 70.3869 46.0106 70.433C46.2956 70.4142 46.5141 70.407 46.8568 70.407C47.1659 70.407 47.4823 70.4142 47.7834 70.433Z" fill="#58595B"/>
<path d="M59.3649 70.5528C61.006 70.5528 62.2227 69.1952 62.2227 67.3785C62.2227 65.6982 61.2558 64.166 59.3801 64.166C57.6762 64.166 56.4746 65.5594 56.4746 67.4416C56.4746 69.0848 57.5293 70.5528 59.3649 70.5528ZM59.2745 64.5346C60.5652 64.5346 61.119 66.1519 61.119 67.5447C61.119 69.3989 60.3718 70.1836 59.4466 70.1836C58.0567 70.1836 57.5783 68.4475 57.5783 67.1747C57.5783 65.2089 58.4635 64.5346 59.2745 64.5346Z" fill="#58595B"/>
<path d="M72.9201 64.5822L73.0984 64.5525C73.1561 64.4906 73.1485 64.3239 73.0834 64.2881C72.7242 64.3045 72.3601 64.3142 72.0035 64.3142C71.6293 64.3142 71.2626 64.3045 70.9061 64.2881C70.8408 64.3239 70.8308 64.4906 70.8885 64.5525L71.0694 64.5822C71.4499 64.6374 71.5239 64.6646 71.5239 65.6415V69.0754C71.5239 70.0528 71.4499 70.0825 71.0694 70.1359L70.8885 70.1656C70.8308 70.2305 70.8408 70.3954 70.9061 70.433C71.2626 70.4142 71.6444 70.4051 72.0035 70.4051C72.3601 70.4051 72.7242 70.4142 73.0834 70.433C73.1485 70.3954 73.1561 70.2305 73.0984 70.1656L72.9201 70.1359C72.5383 70.0825 72.4655 70.0528 72.4655 69.0754V65.6415C72.4655 64.6646 72.5383 64.6374 72.9201 64.5822Z" fill="#58595B"/>
<path d="M76.7242 70.4063H77.6495C78.6 70.4063 79.2993 70.4148 79.6547 70.4324C79.7701 70.1838 79.9472 69.4834 79.9962 69.0947C79.9471 69.0019 79.8104 68.9747 79.7363 69.0389C79.4537 69.7878 79.273 70.0534 78.2422 70.0364C77.5604 70.0364 77.4223 69.963 77.3256 69.8327C77.2037 69.6763 77.1862 69.3433 77.1862 68.8728V67.7012C77.1862 67.4709 77.1962 67.4522 77.3833 67.4522H77.7712C78.4769 67.4522 78.6151 67.4709 78.6728 67.8565L78.7305 68.227C78.7933 68.2828 78.9515 68.2828 78.9892 68.2167C78.9818 67.9226 78.9654 67.6 78.9654 67.2496C78.9654 66.9083 78.9818 66.5753 78.9892 66.3267C78.9515 66.251 78.7933 66.251 78.7305 66.317L78.6728 66.6311C78.6151 67.0271 78.4769 67.0374 77.7712 67.0374H77.3833C77.1962 67.0374 77.1862 67.0271 77.1862 66.7875V65.228C77.1862 64.7028 77.1862 64.6841 77.5364 64.6841H78.0802C78.2986 64.6841 78.5434 64.7028 78.7305 64.7672C78.9892 64.8404 79.1123 65.0703 79.2428 65.6069C79.3056 65.6627 79.4689 65.6426 79.5014 65.5705C79.4537 65.1722 79.4036 64.4433 79.3733 64.2881C79.268 64.3051 78.7933 64.3154 78.2747 64.3154H76.7242C76.3675 64.3154 75.9846 64.3051 75.6769 64.2881C75.6118 64.3239 75.6016 64.49 75.6606 64.5538L75.7899 64.5737C76.1717 64.6367 76.2458 64.6652 76.2458 65.6426V69.0766C76.2458 70.0534 76.1717 70.0819 75.7899 70.128L75.4912 70.1668C75.4334 70.2299 75.4409 70.3967 75.5062 70.4324C75.8703 70.4148 76.3675 70.4063 76.7242 70.4063Z" fill="#58595B"/>
<path d="M87.0909 70.4615C87.0659 70.2492 87.0659 69.1141 87.0659 68.8358V66.6317C87.0659 65.9028 87.0659 65.0994 87.18 64.8139C87.2377 64.6659 87.3759 64.6283 87.5304 64.6011L87.7162 64.5544C87.7815 64.4906 87.7652 64.333 87.6999 64.2881C87.4073 64.3057 87.1963 64.3142 86.8472 64.3142C86.5308 64.3142 86.232 64.3058 85.9132 64.2881C85.8302 64.3142 85.8239 64.4906 85.8968 64.5544L86.0839 64.5828C86.2898 64.6186 86.418 64.6743 86.4907 64.8139C86.6351 65.0891 86.6438 65.9386 86.6438 66.6317V68.4308C86.6438 68.5787 86.6438 68.6248 86.6188 68.6522C86.5385 68.5975 85.7839 67.6201 85.4411 67.1944L84.6299 66.1969C84.3449 65.8471 83.4622 64.6829 83.3228 64.2881C83.1284 64.3057 82.935 64.3142 82.7617 64.3142C82.5595 64.3142 82.1138 64.3245 81.8049 64.2881C81.7246 64.3142 81.7146 64.4997 81.771 64.5544L81.8953 64.5828C82.0083 64.6114 82.2356 64.6829 82.3248 64.7677C82.5985 65.0333 82.5933 65.1837 82.5933 65.9028V68.0893C82.5933 68.8171 82.5933 69.6205 82.4855 69.9073C82.4302 70.0528 82.2832 70.0928 82.1301 70.1189L81.9505 70.1656C81.8853 70.2305 81.9003 70.3869 81.9668 70.433C82.2506 70.4142 82.4703 70.407 82.8094 70.407C83.1208 70.407 83.4372 70.4142 83.7386 70.433C83.8189 70.407 83.8263 70.2305 83.7536 70.1656L83.5753 70.1371C83.3719 70.1014 83.2338 70.0455 83.161 69.9073C83.0228 69.6308 83.0153 68.7813 83.0153 68.0893V66.2891C83.0153 65.801 83.0153 65.6991 83.0404 65.6991C83.1785 65.8368 83.4372 66.1872 83.9646 66.8628L85.8655 69.3264C86.4505 70.0825 86.6841 70.3967 86.8172 70.5894C86.9126 70.5991 87.0281 70.5633 87.0909 70.4615Z" fill="#58595B"/>
<path d="M93.0953 70.1288C92.7148 70.0827 92.6408 70.053 92.6408 69.0756V65.0893C92.6408 64.7018 92.6484 64.6831 92.8592 64.6831H93.3237C94.1926 64.6831 94.3459 64.8571 94.4513 65.5799C94.5254 65.6417 94.6622 65.626 94.7049 65.5514C94.6797 65.2561 94.7438 64.4623 94.8255 64.0822C94.8091 64.0549 94.7677 64.0361 94.72 64.0361C94.6886 64.0361 94.6573 64.0549 94.6221 64.0761C94.5254 64.2871 94.4036 64.3144 94.0055 64.3144H90.6921C90.1396 64.3144 90.0266 64.3048 89.9864 64.0761C89.9713 64.0477 89.9376 64.0361 89.9036 64.0361C89.8659 64.0361 89.8319 64.0477 89.817 64.0761C89.7605 64.3975 89.6374 64.9699 89.498 65.4696C89.5294 65.5598 89.7026 65.5859 89.7605 65.5314C90.0593 64.7849 90.2778 64.6831 91.026 64.6831H91.4807C91.6915 64.6831 91.6991 64.7018 91.6991 65.0893V69.0756C91.6991 70.053 91.6237 70.0827 91.2445 70.1191L90.9029 70.1658C90.8478 70.2106 90.854 70.3957 90.9206 70.4332C91.4404 70.4144 91.8209 70.4054 92.1786 70.4054C92.5353 70.4054 92.9018 70.4144 93.3727 70.4332C93.4393 70.3957 93.4443 70.2307 93.3865 70.1658L93.0953 70.1288Z" fill="#58595B"/>
<path d="M100.918 70.1357C100.505 70.0525 100.463 69.9876 100.277 69.3722L99.1065 65.5049C98.9772 65.0888 98.8717 64.6541 98.7424 64.2393C98.7098 64.1932 98.6683 64.166 98.6043 64.166C98.5867 64.166 98.3206 64.5449 98.0368 64.6092C98.0581 64.7657 97.9866 64.987 97.8812 65.2823L96.7686 68.5688C96.5955 69.0666 96.4673 69.4552 96.3718 69.6935C96.2501 69.9979 96.161 70.0822 95.9249 70.118L95.6812 70.1653C95.6236 70.2472 95.6312 70.3866 95.6889 70.4327C95.9726 70.4139 96.2237 70.4049 96.4924 70.4049C96.8265 70.4139 97.0938 70.4139 97.3538 70.4327C97.4178 70.3952 97.4253 70.2303 97.3687 70.1653L97.1327 70.118C96.8339 70.0725 96.8012 70.0435 96.9645 69.5002L97.296 68.3936C97.3687 68.1438 97.3625 68.1438 97.5735 68.1438H98.6534C98.8805 68.1438 98.9031 68.1438 98.9847 68.3936L99.3677 69.6487C99.4719 70.0435 99.4481 70.0999 99.1568 70.1357L98.9772 70.1653C98.9295 70.2199 98.9371 70.3866 99.0011 70.4327C99.2848 70.4236 99.6439 70.4049 99.9929 70.4049C100.415 70.4049 100.716 70.4139 101.048 70.4327C101.105 70.3866 101.105 70.2302 101.04 70.1653L100.918 70.1357ZM98.5465 67.7289H97.7028C97.507 67.7289 97.4831 67.7289 97.5735 67.461L97.9137 66.3805C98.0581 65.9457 98.1246 65.7158 98.1573 65.6515H98.1723C98.215 65.7158 98.2627 65.8923 98.4021 66.3805L98.7424 67.4894C98.8077 67.709 98.7751 67.7289 98.5465 67.7289Z" fill="#58595B"/>
<path d="M106.758 69.039C106.386 69.9891 106.255 70.0364 105.354 70.0364C104.706 70.0364 104.576 69.9619 104.475 69.8327C104.356 69.6763 104.339 69.3433 104.339 68.8825V65.6427C104.339 64.6829 104.415 64.6555 104.794 64.5919L104.972 64.5538C105.038 64.5088 105.03 64.3239 104.955 64.2881C104.598 64.3039 104.233 64.3136 103.877 64.3136C103.503 64.3136 103.139 64.3039 102.732 64.2881C102.659 64.3239 102.659 64.5088 102.715 64.5538L102.943 64.5919C103.325 64.6555 103.398 64.6829 103.398 65.6427V69.0747C103.398 70.0364 103.325 70.0638 102.943 70.1183L102.7 70.1656C102.627 70.2099 102.652 70.3966 102.715 70.4324C103.056 70.4136 103.463 70.4064 103.877 70.4064H104.721C105.63 70.4064 106.327 70.4136 106.67 70.4324C106.767 70.1838 106.946 69.4822 107.011 69.0947C106.971 69.0201 106.841 68.9929 106.758 69.039Z" fill="#58595B"/>
<path d="M15.4523 77.4824C15.4198 77.4824 15.3858 77.5012 15.352 77.5213C15.2565 77.7335 15.1359 77.7595 14.7355 77.7595H11.4233C10.872 77.7595 10.7578 77.751 10.7189 77.5213C10.7001 77.4927 10.6675 77.4824 10.6359 77.4824C10.5946 77.4824 10.5618 77.4927 10.5469 77.5213C10.4891 77.8426 10.3673 78.4163 10.2305 78.9146C10.2618 79.0063 10.4325 79.0335 10.4891 78.9777C10.7916 78.2313 11.0102 78.1294 11.7559 78.1294H12.2106C12.4227 78.1294 12.4303 78.1471 12.4303 78.5357V82.5219C12.4303 83.5006 12.3561 83.5291 11.9745 83.5649L11.6342 83.6121C11.5778 83.6571 11.5878 83.8419 11.6505 83.8777C12.1704 83.8607 12.5545 83.8504 12.9085 83.8504C13.2677 83.8504 13.6318 83.8607 14.1026 83.8777C14.1692 83.8419 14.1768 83.6758 14.1189 83.6121L13.8265 83.5739C13.446 83.5291 13.3733 83.5006 13.3733 82.5219V78.5357C13.3733 78.147 13.3807 78.1294 13.5892 78.1294H14.0538C14.9225 78.1294 15.0782 78.3046 15.1838 79.025C15.2566 79.0893 15.3947 79.0711 15.436 78.9965C15.4097 78.7018 15.4763 77.9075 15.5579 77.5297C15.5403 77.5012 15.5002 77.4824 15.4523 77.4824Z" fill="#58595B"/>
<path d="M22.3144 83.5848C21.934 83.529 21.8611 83.5017 21.8611 82.523V79.0904C21.8611 78.1129 21.934 78.0832 22.3144 78.0287L22.4613 78.0001C22.5189 77.9553 22.5115 77.7692 22.4436 77.7334C22.121 77.7515 21.7556 77.7606 21.3965 77.7606C21.0399 77.7606 20.6746 77.7515 20.3016 77.7334C20.2351 77.7692 20.2276 77.9553 20.2842 78.0001L20.4637 78.0287C20.8467 78.0832 20.9194 78.1129 20.9194 79.0904V80.2055C20.9194 80.4638 20.8931 80.4838 20.48 80.4838H18.5804C18.1647 80.4838 18.1408 80.4638 18.1408 80.2055V79.0904C18.1408 78.1129 18.2123 78.0832 18.5967 78.0287L18.7347 78.0001C18.7899 77.9553 18.7824 77.7692 18.7171 77.7334C18.3983 77.7515 18.0353 77.7606 17.68 77.7606C17.3209 77.7606 16.9392 77.7515 16.5801 77.7334C16.5173 77.7692 16.5098 77.9553 16.5675 78.0001L16.7459 78.0287C17.125 78.0832 17.199 78.1129 17.199 79.0904V82.523C17.199 83.5017 17.125 83.529 16.7459 83.5932L16.6304 83.6132C16.5725 83.675 16.5801 83.8431 16.6454 83.8776C16.9543 83.8618 17.3209 83.8515 17.68 83.8515C18.0353 83.8515 18.3983 83.8618 18.8251 83.8776C18.8879 83.8431 18.8968 83.675 18.8402 83.6132L18.5967 83.5732C18.2123 83.529 18.1408 83.5017 18.1408 82.523V81.1665C18.1408 80.9173 18.1647 80.8985 18.5804 80.8985H20.48C20.8931 80.8985 20.9194 80.9173 20.9194 81.1665V82.523C20.9194 83.5017 20.8467 83.529 20.4637 83.5848L20.2842 83.6132C20.2276 83.675 20.2351 83.8431 20.3016 83.8776C20.6583 83.8618 21.0248 83.8515 21.3965 83.8515C21.7556 83.8515 22.121 83.8618 22.4763 83.8776C22.5429 83.8431 22.5492 83.675 22.4915 83.6132L22.3144 83.5848Z" fill="#58595B"/>
<path d="M28.0583 82.4837C27.7746 83.2327 27.5938 83.5007 26.5643 83.4825C25.8813 83.4825 25.743 83.408 25.6465 83.2788C25.5259 83.1223 25.5071 82.7894 25.5071 82.3201V81.1462C25.5071 80.917 25.5171 80.8982 25.7042 80.8982H26.0921C26.8003 80.8982 26.9359 80.917 26.9937 81.3027L27.0513 81.6743C27.1143 81.7289 27.2724 81.7289 27.3113 81.664C27.3024 81.3687 27.2875 81.0444 27.2875 80.6956C27.2875 80.3543 27.3025 80.0214 27.3113 79.7716C27.2724 79.6983 27.1143 79.6983 27.0513 79.7631L26.9937 80.076C26.9359 80.4731 26.8003 80.4834 26.0921 80.4834H25.7042C25.5171 80.4834 25.5071 80.4731 25.5071 80.2335V78.6741C25.5071 78.1472 25.5071 78.1302 25.8574 78.1302H26.3998C26.6219 78.1302 26.8643 78.1472 27.0513 78.212C27.3113 78.2878 27.4331 78.5164 27.5637 79.0531C27.6289 79.1089 27.7896 79.09 27.8223 79.0155C27.7745 78.6183 27.7256 77.8889 27.6942 77.7324C27.5888 77.7511 27.1143 77.7602 26.5956 77.7602H25.045C24.6883 77.7602 24.3055 77.7511 23.9978 77.7324C23.9338 77.7699 23.9263 77.935 23.9814 77.9998L24.1134 78.0186C24.4925 78.0828 24.5679 78.1125 24.5679 79.09V82.5226C24.5679 83.5007 24.4925 83.528 24.1134 83.5728L23.812 83.6128C23.7543 83.6746 23.763 83.8427 23.8271 83.8772C24.1937 83.8609 24.6883 83.8511 25.045 83.8511H25.9716C26.9208 83.8511 27.6202 83.8608 27.9755 83.8772C28.091 83.6298 28.2693 82.9283 28.3183 82.5397C28.2693 82.4492 28.1313 82.4208 28.0583 82.4837Z" fill="#58595B"/>
<path d="M38.2412 83.5848C37.8594 83.529 37.7878 83.5017 37.7878 82.523V79.0904C37.7878 78.1129 37.8594 78.0832 38.2412 78.0287L38.3867 78.0001C38.4446 77.9553 38.437 77.7692 38.3717 77.7334C38.0465 77.7515 37.6824 77.7606 37.3246 77.7606C36.9679 77.7606 36.6014 77.7515 36.2297 77.7334C36.163 77.7692 36.1556 77.9553 36.212 78.0001L36.3904 78.0287C36.7721 78.0832 36.8449 78.1129 36.8449 79.0904V80.2055C36.8449 80.4638 36.8198 80.4838 36.408 80.4838H34.5058C34.0927 80.4838 34.0688 80.4638 34.0688 80.2055V79.0904C34.0688 78.1129 34.1417 78.0832 34.5245 78.0287L34.6626 78.0001C34.718 77.9553 34.7105 77.7692 34.6451 77.7334C34.3287 77.7515 33.9634 77.7606 33.6055 77.7606C33.2489 77.7606 32.8672 77.7515 32.5107 77.7334C32.4453 77.7692 32.4352 77.9553 32.493 78.0001L32.6714 78.0287C33.0531 78.0832 33.1258 78.1129 33.1258 79.0904V82.523C33.1258 83.5017 33.0531 83.529 32.6714 83.5932L32.5583 83.6132C32.5006 83.675 32.5107 83.8431 32.5747 83.8776C32.8847 83.8618 33.2489 83.8515 33.6055 83.8515C33.9634 83.8515 34.3287 83.8618 34.7506 83.8776C34.8159 83.8431 34.8234 83.675 34.7682 83.6132L34.5245 83.5732C34.1417 83.529 34.0688 83.5017 34.0688 82.523V81.1665C34.0688 80.9173 34.0927 80.8985 34.5058 80.8985H36.408C36.8198 80.8985 36.8449 80.9173 36.8449 81.1665V82.523C36.8449 83.5017 36.7721 83.529 36.3904 83.5848L36.212 83.6132C36.1556 83.675 36.163 83.8431 36.2297 83.8776C36.5862 83.8618 36.9503 83.8515 37.3246 83.8515C37.6824 83.8515 38.0465 83.8618 38.4056 83.8776C38.4696 83.8431 38.4771 83.675 38.4219 83.6132L38.2412 83.5848Z" fill="#58595B"/>
<path d="M42.7536 77.6133C41.0485 77.6133 39.8457 79.0061 39.8457 80.8889C39.8457 82.532 40.9016 84 42.7373 84C44.3783 84 45.5937 82.6424 45.5937 80.8245C45.5937 79.1456 44.6269 77.6133 42.7536 77.6133ZM42.8189 83.6308C41.4289 83.6308 40.9518 81.8947 40.9518 80.622C40.9518 78.6561 41.8345 77.9831 42.6456 77.9831C43.9363 77.9831 44.4927 79.5972 44.4927 80.9906C44.4927 82.8462 43.743 83.6308 42.8189 83.6308Z" fill="#58595B"/>
<path d="M51.7785 77.4824C51.7485 77.4824 51.7158 77.5012 51.6807 77.5213C51.5827 77.7335 51.4623 77.7595 51.0642 77.7595H47.7506C47.1995 77.7595 47.0864 77.751 47.0451 77.5213C47.03 77.4927 46.9961 77.4824 46.9647 77.4824C46.9246 77.4824 46.8906 77.4927 46.8756 77.5213C46.819 77.8426 46.6959 78.4163 46.5566 78.9146C46.5905 79.0063 46.7613 79.0335 46.819 78.9777C47.1178 78.2313 47.3363 78.1294 48.0847 78.1294H48.5392C48.7501 78.1294 48.7589 78.1471 48.7589 78.5357V82.5219C48.7589 83.5006 48.6875 83.5291 48.3031 83.5649L47.9642 83.6121C47.9063 83.6571 47.9139 83.8419 47.9792 83.8777C48.5002 83.8607 48.8795 83.8504 49.2387 83.8504C49.5938 83.8504 49.963 83.8607 50.4314 83.8777C50.498 83.8419 50.503 83.6758 50.4477 83.6121L50.1539 83.5739C49.7748 83.5291 49.6995 83.5006 49.6995 82.5219V78.5357C49.6995 78.147 49.7069 78.1294 49.9178 78.1294H50.3824C51.2513 78.1294 51.4044 78.3046 51.5099 79.025C51.5827 79.0893 51.7208 79.0711 51.7635 78.9965C51.7384 78.7018 51.8037 77.9075 51.8841 77.5297C51.8691 77.5012 51.8264 77.4824 51.7785 77.4824Z" fill="#58595B"/>
<path d="M57.5012 82.4837C57.2161 83.2327 57.0366 83.5007 56.0057 83.4825C55.3241 83.4825 55.1858 83.408 55.0879 83.2788C54.966 83.1223 54.9497 82.7894 54.9497 82.3201V81.1462C54.9497 80.917 54.9573 80.8982 55.1444 80.8982H55.5348C56.2406 80.8982 56.3798 80.917 56.4364 81.3027L56.4942 81.6743C56.5569 81.7289 56.7126 81.7289 56.7528 81.664C56.7441 81.3687 56.7289 81.0444 56.7289 80.6956C56.7289 80.3543 56.7441 80.0214 56.7528 79.7716C56.7126 79.6983 56.5569 79.6983 56.4942 79.7631L56.4364 80.076C56.3798 80.4731 56.2406 80.4834 55.5348 80.4834H55.1444C54.9573 80.4834 54.9497 80.4731 54.9497 80.2335V78.6741C54.9497 78.1472 54.9497 78.1302 55.2988 78.1302H55.8439C56.0647 78.1302 56.3057 78.1472 56.4942 78.212C56.7528 78.2878 56.8733 78.5164 57.0052 79.0531C57.0692 79.1089 57.2324 79.09 57.2638 79.0155C57.216 78.6183 57.1659 77.8889 57.1345 77.7324C57.029 77.7511 56.5569 77.7602 56.0397 77.7602H54.4878C54.1298 77.7602 53.7496 77.7511 53.4381 77.7324C53.3752 77.7699 53.3665 77.935 53.4229 77.9998L53.5536 78.0186C53.9353 78.0828 54.008 78.1125 54.008 79.09V82.5226C54.008 83.5007 53.9353 83.528 53.5536 83.5728L53.2522 83.6128C53.1945 83.6746 53.2032 83.8427 53.2698 83.8772C53.6339 83.8609 54.1298 83.8511 54.4878 83.8511H55.4119C56.3637 83.8511 57.0604 83.8608 57.4183 83.8772C57.5325 83.6298 57.7121 82.9283 57.7598 82.5397C57.7121 82.4492 57.5715 82.4208 57.5012 82.4837Z" fill="#58595B"/>
<path d="M63.2293 82.4848C62.8552 83.4362 62.7258 83.4835 61.8256 83.4835C61.1739 83.4835 61.0446 83.4077 60.9467 83.2798C60.8262 83.1233 60.8099 82.7904 60.8099 82.3295V79.091C60.8099 78.1299 60.8813 78.1026 61.2631 78.0378L61.4426 78.0007C61.5068 77.9559 61.4979 77.7698 61.4264 77.7334C61.0684 77.7509 60.7043 77.7595 60.3465 77.7595C59.9724 77.7595 59.6057 77.7509 59.2002 77.7334C59.1285 77.7698 59.1285 77.9559 59.1839 78.0007L59.4111 78.0378C59.794 78.1026 59.8669 78.1299 59.8669 79.091V82.5218C59.8669 83.4835 59.794 83.5108 59.4111 83.5654L59.1688 83.6119C59.0947 83.657 59.1185 83.8437 59.1839 83.8782C59.5253 83.8606 59.9321 83.8521 60.3465 83.8521H61.1928C62.0993 83.8521 62.7986 83.8606 63.1389 83.8782C63.237 83.6309 63.4151 82.9281 63.4791 82.5406C63.4403 82.4673 63.3097 82.4399 63.2293 82.4848Z" fill="#58595B"/>
<path d="M71.1376 81.397C70.5764 81.397 70.1884 81.3872 69.872 81.3684C69.8042 81.4157 69.8042 81.5722 69.8619 81.637L70.1544 81.6917C70.7006 81.7935 70.7058 81.8492 70.7058 82.5036V82.8376C70.7058 83.1693 70.6818 83.3342 70.6341 83.4191C70.5362 83.5555 70.3014 83.6314 69.9122 83.6314C69.43 83.6314 68.7847 83.4361 68.3439 82.8462C67.9057 82.2556 67.76 81.4618 67.76 80.7239C67.76 79.1534 68.4494 77.9837 69.877 77.9837C70.6818 77.9837 71.2581 78.4251 71.439 79.3208C71.4791 79.4039 71.6574 79.3942 71.6975 79.3008C71.6574 78.5823 71.6008 78.1122 71.5921 77.8358C71.4954 77.8358 71.2581 77.7969 71.0723 77.7509C70.7872 77.6878 70.3741 77.6133 69.9925 77.6133C68.865 77.6133 67.9786 78.0104 67.4035 78.7022C66.8913 79.3008 66.6553 80.0957 66.6553 80.8706C66.6553 81.6456 66.8913 82.4205 67.3709 82.9844C67.9787 83.7029 68.8951 83.9999 69.872 83.9999C70.334 83.9999 70.943 83.8781 71.4464 83.7503C71.6009 83.7029 71.7452 83.6762 71.8358 83.6762C71.8696 83.6483 71.8696 83.5744 71.8433 83.538C71.6875 83.4537 71.6498 83.2142 71.6498 82.8923V82.3568C71.6498 81.7935 71.6975 81.7104 71.999 81.6656L72.1433 81.637C72.2174 81.5722 72.2099 81.4157 72.1283 81.3684C71.7805 81.3872 71.5017 81.397 71.1376 81.397Z" fill="#58595B"/>
<path d="M82.4249 77.6133C80.7211 77.6133 79.5195 79.0061 79.5195 80.8889C79.5195 82.532 80.5741 84 82.4099 84C84.0497 84 85.2675 82.6424 85.2675 80.8245C85.2675 79.1456 84.3008 77.6133 82.4249 77.6133ZM82.4914 83.6308C81.1016 83.6308 80.6232 81.8947 80.6232 80.622C80.6232 78.6561 81.5084 77.9831 82.3196 77.9831C83.6127 77.9831 84.1639 79.5972 84.1639 80.9906C84.1639 82.8462 83.4169 83.6308 82.4914 83.6308Z" fill="#58595B"/>
<path d="M91.3627 77.7602C91.0462 77.7602 90.7372 77.7511 90.4623 77.7324C90.3807 77.7602 90.3718 77.9264 90.446 77.9907L90.6092 78.0186C90.8125 78.0568 90.9406 78.1217 91.0135 78.2581C91.1592 78.5273 91.1667 79.3842 91.1667 80.076V81.2311C91.1667 82.6342 90.7297 83.5468 89.6663 83.5468C88.5362 83.5468 88.196 82.4766 88.196 81.2039V79.09C88.196 78.1125 88.2701 78.0828 88.6505 78.0186L88.8289 77.9907C88.8866 77.9264 88.8765 77.7699 88.8137 77.7324C88.4546 77.7512 88.0904 77.7603 87.7263 77.7603C87.3686 77.7603 87.0031 77.7512 86.6767 77.7324C86.614 77.7699 86.6052 77.9264 86.6617 77.9907L86.7997 78.0186C87.179 78.0828 87.2542 78.1125 87.2542 79.09V81.4336C87.2542 82.3662 87.4251 83.0114 87.7904 83.408C88.1633 83.8142 88.6995 83.9992 89.4641 83.9992C90.0216 83.9992 90.6318 83.8239 91.0562 83.3072C91.4781 82.7894 91.5911 82.0133 91.5911 81.1753V80.076C91.5911 79.3483 91.5911 78.5364 91.7041 78.2581C91.7605 78.1125 91.9087 78.0744 92.0606 78.0367L92.2402 77.9907C92.3042 77.9264 92.2879 77.7784 92.2239 77.7324C91.9238 77.7511 91.7041 77.7602 91.3627 77.7602Z" fill="#58595B"/>
<path d="M97.3036 78.1016C96.9369 77.8622 96.3768 77.7324 95.6059 77.7324C94.8677 77.7324 94.3805 77.7414 93.813 77.8172C93.7464 77.8529 93.7464 78.0107 93.803 78.0744L94.0867 78.1125C94.4282 78.1671 94.4358 78.3054 94.4358 79.1446V82.5226C94.4358 83.5014 94.3629 83.528 93.9813 83.5928L93.8519 83.6128C93.7943 83.6746 93.803 83.8427 93.8683 83.8784C94.1921 83.8609 94.5613 83.8512 94.9167 83.8512C95.2744 83.8512 95.6385 83.8609 96.1183 83.8784C96.176 83.8427 96.181 83.6746 96.1333 83.6128L95.8345 83.5728C95.4515 83.528 95.3801 83.5013 95.3801 82.5226V78.4903C95.3801 78.1302 95.3875 78.1016 95.7919 78.1016C96.5325 78.1016 96.9557 78.7572 96.9557 79.506C96.9557 80.2609 96.6871 80.8709 95.9475 81.0357C95.9073 81.0904 95.9149 81.2123 95.97 81.2669C96.0367 81.2772 96.1033 81.2772 96.176 81.2772C96.8163 81.2772 97.9941 80.8878 97.9941 79.4859C97.9941 78.8766 97.7254 78.3884 97.3036 78.1016Z" fill="#58595B"/>
</svg>
