<svg xmlns="http://www.w3.org/2000/svg" xmlns:xlink="http://www.w3.org/1999/xlink" width="1080" zoomAndPan="magnify" viewBox="0 0 810 809.999993" height="1080" preserveAspectRatio="xMidYMid meet" version="1.0"><rect x="-81" width="972" fill="#ffffff" y="-80.999999" height="971.999992" fill-opacity="1"/><rect x="-81" width="972" fill="#ffffff" y="-80.999999" height="971.999992" fill-opacity="1"/><path fill="#ffffff" d="M 325.125 382.085938 L 329.785156 382.085938 L 333.855469 395.648438 L 338.285156 381.953125 L 342.089844 381.953125 L 346.519531 395.648438 L 350.609375 382.011719 L 355.152344 382.011719 L 348.328125 402.378906 L 344.523438 402.378906 L 340.109375 389.183594 L 335.660156 402.378906 L 331.855469 402.378906 Z M 325.125 382.085938 " fill-opacity="1" fill-rule="nonzero"/><path fill="#ffffff" d="M 363.160156 394.292969 L 355.554688 382.085938 L 360.632812 382.085938 L 365.328125 390.171875 L 370.121094 382.085938 L 375.046875 382.085938 L 367.441406 394.199219 L 367.441406 402.226562 L 363.160156 402.226562 Z M 363.160156 394.292969 " fill-opacity="1" fill-rule="nonzero"/><path fill="#ffffff" d="M 377.632812 382.085938 L 381.628906 382.085938 L 390.871094 394.484375 L 390.871094 382.085938 L 395.148438 382.085938 L 395.148438 402.226562 L 391.460938 402.226562 L 381.949219 389.410156 L 381.949219 402.226562 L 377.632812 402.226562 Z M 377.632812 382.085938 " fill-opacity="1" fill-rule="nonzero"/><path fill="#ffffff" d="M 399.75 382.085938 L 407.359375 382.085938 C 408.007812 382.046875 408.65625 382.074219 409.304688 382.164062 C 409.949219 382.253906 410.578125 382.40625 411.195312 382.621094 C 411.8125 382.835938 412.402344 383.109375 412.960938 383.4375 C 413.523438 383.769531 414.050781 384.152344 414.535156 384.585938 C 415.023438 385.023438 415.460938 385.5 415.855469 386.023438 C 416.246094 386.546875 416.585938 387.101562 416.867188 387.691406 C 417.152344 388.277344 417.375 388.890625 417.539062 389.523438 C 417.699219 390.15625 417.800781 390.796875 417.835938 391.453125 C 417.835938 391.660156 417.835938 391.871094 417.835938 392.101562 C 417.84375 392.753906 417.785156 393.40625 417.664062 394.050781 C 417.542969 394.691406 417.359375 395.320312 417.117188 395.925781 C 416.871094 396.535156 416.570312 397.113281 416.214844 397.664062 C 415.855469 398.210938 415.449219 398.71875 414.992188 399.1875 C 414.535156 399.65625 414.035156 400.074219 413.496094 400.445312 C 412.957031 400.816406 412.386719 401.128906 411.785156 401.386719 C 411.183594 401.644531 410.566406 401.839844 409.925781 401.976562 C 409.285156 402.109375 408.640625 402.179688 407.984375 402.1875 L 399.75 402.1875 Z M 407.359375 398.242188 C 407.734375 398.257812 408.109375 398.238281 408.480469 398.179688 C 408.851562 398.121094 409.214844 398.027344 409.570312 397.898438 C 409.921875 397.769531 410.261719 397.605469 410.582031 397.40625 C 410.902344 397.210938 411.203125 396.984375 411.480469 396.730469 C 411.757812 396.472656 412.003906 396.191406 412.226562 395.886719 C 412.449219 395.582031 412.636719 395.253906 412.792969 394.914062 C 412.949219 394.570312 413.074219 394.214844 413.160156 393.847656 C 413.246094 393.480469 413.296875 393.105469 413.3125 392.730469 C 413.328125 392.558594 413.328125 392.386719 413.3125 392.214844 C 413.335938 391.839844 413.324219 391.46875 413.277344 391.097656 C 413.230469 390.726562 413.148438 390.363281 413.03125 390.007812 C 412.914062 389.652344 412.761719 389.3125 412.578125 388.984375 C 412.390625 388.660156 412.175781 388.355469 411.933594 388.074219 C 411.6875 387.789062 411.417969 387.53125 411.125 387.300781 C 410.828125 387.074219 410.515625 386.875 410.183594 386.707031 C 409.847656 386.535156 409.5 386.402344 409.140625 386.304688 C 408.78125 386.203125 408.414062 386.140625 408.042969 386.113281 L 404.085938 386.113281 L 404.085938 398.261719 Z M 407.359375 398.242188 " fill-opacity="1" fill-rule="nonzero"/><path fill="#ffffff" d="M 421.660156 382.085938 L 425.917969 382.085938 L 425.917969 390.039062 L 433.945312 390.039062 L 433.945312 382.085938 L 438.320312 382.085938 L 438.320312 402.226562 L 433.984375 402.226562 L 433.984375 394.140625 L 425.917969 394.140625 L 425.917969 402.226562 L 421.660156 402.226562 Z M 421.660156 382.085938 " fill-opacity="1" fill-rule="nonzero"/><path fill="#ffffff" d="M 449.691406 381.933594 L 453.703125 381.933594 L 462.1875 402.226562 L 457.640625 402.226562 L 455.738281 397.726562 L 447.503906 397.726562 L 445.601562 402.226562 L 441.132812 402.226562 Z M 454.273438 393.738281 L 451.652344 387.199219 L 449.027344 393.738281 Z M 454.273438 393.738281 " fill-opacity="1" fill-rule="nonzero"/><path fill="#ffffff" d="M 465.078125 382.085938 L 469.832031 382.085938 L 475.003906 390.59375 L 480.195312 382.085938 L 484.875 382.085938 L 484.875 402.226562 L 480.558594 402.226562 L 480.558594 389.066406 L 475.003906 397.6875 L 474.890625 397.6875 L 469.394531 389.164062 L 469.394531 402.226562 L 465.152344 402.226562 Z M 465.078125 382.085938 " fill-opacity="1" fill-rule="nonzero"/><path fill="#ffffff" d="M 325.429688 420.441406 C 325.421875 419.921875 325.460938 419.40625 325.554688 418.894531 C 325.648438 418.382812 325.789062 417.882812 325.980469 417.402344 C 326.167969 416.917969 326.40625 416.457031 326.683594 416.019531 C 326.964844 415.582031 327.285156 415.175781 327.644531 414.804688 C 328.007812 414.429688 328.398438 414.09375 328.824219 413.800781 C 329.253906 413.503906 329.703125 413.253906 330.179688 413.046875 C 330.652344 412.839844 331.144531 412.679688 331.652344 412.570312 C 332.15625 412.460938 332.671875 412.402344 333.1875 412.390625 L 333.417969 412.390625 C 334.511719 412.332031 335.578125 412.484375 336.613281 412.851562 C 337.648438 413.21875 338.574219 413.773438 339.386719 414.507812 L 337.277344 417.121094 C 336.746094 416.601562 336.136719 416.203125 335.449219 415.929688 C 334.757812 415.65625 334.042969 415.523438 333.300781 415.539062 C 332.996094 415.554688 332.699219 415.597656 332.402344 415.671875 C 332.105469 415.746094 331.820312 415.851562 331.542969 415.980469 C 331.269531 416.113281 331.007812 416.269531 330.765625 416.453125 C 330.519531 416.636719 330.296875 416.84375 330.09375 417.070312 C 329.890625 417.300781 329.710938 417.542969 329.554688 417.808594 C 329.398438 418.074219 329.273438 418.347656 329.171875 418.636719 C 329.074219 418.925781 329.003906 419.222656 328.960938 419.527344 C 328.921875 419.832031 328.910156 420.132812 328.929688 420.441406 C 328.90625 420.742188 328.917969 421.042969 328.957031 421.34375 C 328.996094 421.644531 329.0625 421.9375 329.15625 422.222656 C 329.253906 422.511719 329.378906 422.785156 329.527344 423.046875 C 329.679688 423.308594 329.855469 423.554688 330.050781 423.78125 C 330.25 424.011719 330.46875 424.214844 330.710938 424.398438 C 330.949219 424.585938 331.203125 424.742188 331.476562 424.878906 C 331.746094 425.011719 332.027344 425.117188 332.320312 425.195312 C 332.609375 425.273438 332.90625 425.320312 333.207031 425.339844 L 333.511719 425.339844 C 334.695312 425.324219 335.757812 424.964844 336.707031 424.253906 L 336.707031 422.136719 L 333.320312 422.136719 L 333.320312 419.199219 L 339.941406 419.199219 L 339.941406 425.953125 C 339.042969 426.75 338.035156 427.363281 336.914062 427.792969 C 335.792969 428.21875 334.636719 428.433594 333.4375 428.429688 C 332.933594 428.457031 332.4375 428.433594 331.9375 428.363281 C 331.441406 428.292969 330.957031 428.171875 330.484375 428.003906 C 330.011719 427.835938 329.558594 427.621094 329.128906 427.363281 C 328.699219 427.105469 328.296875 426.808594 327.925781 426.46875 C 327.550781 426.132812 327.214844 425.761719 326.917969 425.355469 C 326.617188 424.953125 326.363281 424.523438 326.148438 424.066406 C 325.933594 423.613281 325.765625 423.140625 325.644531 422.652344 C 325.523438 422.164062 325.453125 421.667969 325.429688 421.164062 Z M 325.429688 420.441406 " fill-opacity="1" fill-rule="nonzero"/><path fill="#ffffff" d="M 348.269531 412.488281 L 351.351562 412.488281 L 357.875 428.070312 L 354.394531 428.070312 L 353.003906 424.597656 L 346.539062 424.597656 L 345.152344 428.070312 L 341.746094 428.070312 Z M 351.75 421.640625 L 349.847656 416.625 L 347.8125 421.601562 Z M 351.75 421.640625 " fill-opacity="1" fill-rule="nonzero"/><path fill="#ffffff" d="M 360.136719 412.601562 L 367.097656 412.601562 C 367.910156 412.554688 368.703125 412.664062 369.46875 412.9375 C 370.238281 413.207031 370.925781 413.617188 371.527344 414.164062 C 372.441406 415.179688 372.878906 416.367188 372.839844 417.730469 C 372.863281 418.257812 372.804688 418.773438 372.660156 419.277344 C 372.515625 419.785156 372.296875 420.253906 372.003906 420.6875 C 371.707031 421.121094 371.351562 421.5 370.9375 421.820312 C 370.519531 422.140625 370.066406 422.386719 369.570312 422.558594 L 373.375 428.125 L 369.359375 428.125 L 366.109375 423.167969 L 363.484375 423.167969 L 363.484375 428.070312 L 360.136719 428.070312 Z M 366.8125 420.230469 C 368.449219 420.230469 369.378906 419.332031 369.378906 418.035156 C 369.378906 416.570312 368.371094 415.785156 366.753906 415.785156 L 363.484375 415.785156 L 363.484375 420.269531 Z M 366.8125 420.230469 " fill-opacity="1" fill-rule="nonzero"/><path fill="#ffffff" d="M 375.75 412.601562 L 381.683594 412.601562 C 382.183594 412.566406 382.683594 412.585938 383.183594 412.648438 C 383.679688 412.714844 384.167969 412.828125 384.644531 412.992188 C 385.117188 413.152344 385.574219 413.363281 386.007812 413.613281 C 386.441406 413.867188 386.847656 414.160156 387.226562 414.492188 C 387.601562 414.828125 387.941406 415.195312 388.246094 415.59375 C 388.550781 415.996094 388.8125 416.421875 389.03125 416.875 C 389.25 417.328125 389.425781 417.800781 389.550781 418.285156 C 389.679688 418.773438 389.757812 419.269531 389.785156 419.773438 C 389.785156 419.945312 389.785156 420.097656 389.785156 420.25 C 389.796875 420.75 389.761719 421.246094 389.675781 421.738281 C 389.59375 422.230469 389.460938 422.710938 389.28125 423.179688 C 389.101562 423.644531 388.878906 424.089844 388.613281 424.515625 C 388.347656 424.9375 388.042969 425.332031 387.699219 425.695312 C 387.355469 426.054688 386.980469 426.382812 386.574219 426.671875 C 386.167969 426.960938 385.734375 427.207031 385.277344 427.410156 C 384.824219 427.613281 384.351562 427.769531 383.867188 427.882812 C 383.378906 427.992188 382.886719 428.054688 382.386719 428.070312 L 375.75 428.070312 Z M 381.683594 425.074219 C 381.972656 425.089844 382.257812 425.074219 382.542969 425.03125 C 382.828125 424.988281 383.105469 424.917969 383.378906 424.824219 C 383.648438 424.726562 383.910156 424.601562 384.15625 424.453125 C 384.402344 424.304688 384.632812 424.132812 384.847656 423.941406 C 385.058594 423.746094 385.253906 423.535156 385.425781 423.300781 C 385.597656 423.070312 385.746094 422.824219 385.867188 422.5625 C 385.992188 422.300781 386.089844 422.03125 386.160156 421.75 C 386.230469 421.46875 386.273438 421.1875 386.285156 420.898438 L 386.285156 420.441406 C 386.300781 420.152344 386.289062 419.867188 386.246094 419.582031 C 386.207031 419.296875 386.136719 419.019531 386.042969 418.746094 C 385.945312 418.476562 385.828125 418.214844 385.683594 417.96875 C 385.535156 417.71875 385.367188 417.488281 385.179688 417.273438 C 384.988281 417.058594 384.78125 416.863281 384.550781 416.6875 C 384.324219 416.511719 384.082031 416.363281 383.824219 416.234375 C 383.566406 416.109375 383.300781 416.007812 383.023438 415.929688 C 382.746094 415.855469 382.464844 415.808594 382.179688 415.785156 L 379.136719 415.785156 L 379.136719 425.09375 Z M 381.683594 425.074219 " fill-opacity="1" fill-rule="nonzero"/><path fill="#ffffff" d="M 392.65625 412.601562 L 404.066406 412.601562 L 404.066406 415.632812 L 395.984375 415.632812 L 395.984375 418.800781 L 403.097656 418.800781 L 403.097656 421.832031 L 395.984375 421.832031 L 395.984375 425.113281 L 404.257812 425.113281 L 404.257812 428.070312 L 392.65625 428.070312 Z M 392.65625 412.601562 " fill-opacity="1" fill-rule="nonzero"/><path fill="#ffffff" d="M 407.109375 412.601562 L 410.210938 412.601562 L 417.34375 422.136719 L 417.34375 412.601562 L 420.652344 412.601562 L 420.652344 428.070312 L 417.800781 428.070312 L 410.421875 418.191406 L 410.421875 428.070312 L 407.109375 428.070312 Z M 407.109375 412.601562 " fill-opacity="1" fill-rule="nonzero"/><path fill="#58595b" d="M 451.53125 350.535156 C 447.894531 352.246094 425.996094 362.621094 391.007812 348.472656 C 388.261719 347.253906 385.46875 346.175781 382.617188 345.238281 C 379.769531 344.300781 376.878906 343.503906 373.949219 342.851562 C 371.019531 342.203125 368.066406 341.695312 365.089844 341.335938 C 362.109375 340.976562 359.121094 340.769531 356.121094 340.707031 C 353.121094 340.644531 350.125 340.730469 347.132812 340.964844 C 344.144531 341.199219 341.171875 341.582031 338.21875 342.113281 C 335.265625 342.644531 332.34375 343.320312 329.457031 344.136719 C 326.570312 344.957031 323.734375 345.917969 320.941406 347.019531 L 320.941406 361.078125 C 345.511719 348.304688 373.316406 355.40625 386.363281 360.183594 C 388.984375 361.140625 391.644531 361.96875 394.34375 362.664062 C 397.046875 363.355469 399.777344 363.917969 402.53125 364.339844 C 405.289062 364.765625 408.0625 365.050781 410.847656 365.203125 C 413.632812 365.351562 416.417969 365.363281 419.203125 365.238281 C 421.992188 365.113281 424.765625 364.851562 427.523438 364.449219 C 430.285156 364.050781 433.019531 363.515625 435.726562 362.84375 C 438.433594 362.171875 441.101562 361.371094 443.730469 360.433594 C 446.359375 359.5 448.933594 358.4375 451.457031 357.246094 L 451.375 357.003906 C 444.207031 359.257812 436.875 360.621094 429.378906 361.097656 C 421.882812 361.578125 414.433594 361.152344 407.039062 359.832031 C 414.746094 360.304688 422.378906 359.765625 429.941406 358.21875 C 437.503906 356.671875 444.734375 354.164062 451.632812 350.703125 Z M 451.53125 350.535156 " fill-opacity="1" fill-rule="nonzero"/><path fill="#58595b" d="M 502.480469 365.09375 C 500.210938 366.132812 470.246094 380.953125 412.363281 363.699219 C 392.105469 357.675781 357.125 340.367188 309.738281 359.550781 L 309.738281 379.816406 C 348.023438 361.316406 387.042969 371.636719 406.203125 378.832031 C 410.050781 380.21875 413.960938 381.417969 417.925781 382.429688 C 421.890625 383.441406 425.894531 384.257812 429.9375 384.882812 C 433.984375 385.503906 438.046875 385.933594 442.132812 386.164062 C 446.21875 386.394531 450.304688 386.429688 454.394531 386.265625 C 458.484375 386.101562 462.554688 385.742188 466.609375 385.183594 C 470.664062 384.625 474.679688 383.875 478.664062 382.929688 C 482.644531 381.984375 486.570312 380.851562 490.441406 379.527344 C 494.3125 378.203125 498.113281 376.695312 501.839844 375.003906 L 501.707031 374.761719 C 492.609375 377.867188 476.554688 382.214844 448.710938 378.089844 C 475.148438 377.269531 490.160156 373.050781 502.65625 365.316406 Z M 502.480469 365.09375 " fill-opacity="1" fill-rule="nonzero"/><path fill="#58595b" d="M 448.320312 373.589844 C 444.328125 375.484375 425.882812 383.332031 393.265625 370.132812 C 379.074219 364.40625 353.085938 356.390625 328.816406 367.546875 L 328.816406 381.007812 C 340.121094 376.082031 359.320312 369.757812 388.800781 381.546875 C 391.175781 382.472656 393.589844 383.277344 396.046875 383.960938 C 398.5 384.644531 400.984375 385.203125 403.496094 385.636719 C 406.007812 386.070312 408.535156 386.378906 411.078125 386.558594 C 413.621094 386.738281 416.164062 386.789062 418.710938 386.714844 C 421.261719 386.640625 423.796875 386.4375 426.324219 386.105469 C 428.851562 385.773438 431.355469 385.320312 433.839844 384.738281 C 436.320312 384.152344 438.765625 383.449219 441.175781 382.621094 C 443.585938 381.792969 445.949219 380.84375 448.265625 379.78125 C 448.832031 379.5 448.710938 379.296875 448.058594 379.539062 C 442.9375 381.335938 437.671875 382.441406 432.261719 382.855469 C 426.847656 383.269531 421.476562 382.972656 416.140625 381.972656 C 434.324219 380.878906 442.011719 378.089844 448.414062 373.886719 C 449.175781 373.367188 449.128906 373.179688 448.320312 373.589844 Z M 448.320312 373.589844 " fill-opacity="1" fill-rule="nonzero"/><path fill="#58595b" d="M 235.519531 385.730469 C 238.179688 385.507812 240.8125 385.675781 243.425781 386.230469 C 246.035156 386.785156 248.511719 387.703125 250.851562 388.984375 C 251.796875 389.566406 252.644531 390.261719 253.398438 391.078125 C 254.152344 391.890625 254.785156 392.789062 255.292969 393.777344 C 255.800781 394.761719 256.167969 395.800781 256.390625 396.886719 C 256.617188 397.972656 256.695312 399.070312 256.621094 400.175781 C 256.621094 408.820312 248.011719 412.929688 242.328125 414.0625 L 242.328125 414.34375 C 252.394531 415.457031 260.742188 420.71875 260.742188 430.5 C 260.738281 431.3125 260.675781 432.117188 260.550781 432.921875 C 260.429688 433.722656 260.246094 434.511719 260.003906 435.289062 C 259.765625 436.0625 259.46875 436.816406 259.113281 437.550781 C 258.761719 438.28125 258.355469 438.980469 257.898438 439.652344 C 257.441406 440.324219 256.9375 440.957031 256.386719 441.554688 C 255.835938 442.152344 255.242188 442.703125 254.609375 443.210938 C 253.976562 443.71875 253.308594 444.179688 252.605469 444.585938 C 251.90625 444.996094 251.175781 445.351562 250.421875 445.652344 C 244.214844 448.066406 237.785156 449.15625 231.125 448.925781 L 202.921875 448.925781 L 202.921875 445.652344 C 212.117188 444.945312 212.960938 444.21875 212.960938 433.902344 L 212.960938 400.605469 C 212.960938 390.265625 212.117188 389.578125 203.484375 388.851562 L 203.484375 385.730469 Z M 224.027344 413.207031 L 231.828125 413.207031 C 238.636719 413.207031 244.765625 410.105469 244.765625 401.457031 C 244.765625 393.109375 238.238281 389.707031 231.28125 389.707031 C 224.351562 389.707031 224.027344 389.988281 224.027344 393.390625 Z M 224.027344 416.890625 L 224.027344 434.308594 C 224.027344 443.511719 227.019531 444.945312 233.800781 444.945312 C 234.273438 444.996094 234.746094 445.023438 235.21875 445.023438 C 235.695312 445.023438 236.167969 445 236.636719 444.945312 C 237.109375 444.894531 237.574219 444.816406 238.039062 444.714844 C 238.5 444.609375 238.953125 444.480469 239.402344 444.328125 C 239.851562 444.171875 240.289062 443.996094 240.71875 443.792969 C 241.144531 443.589844 241.5625 443.363281 241.964844 443.113281 C 242.367188 442.867188 242.757812 442.59375 243.132812 442.304688 C 243.503906 442.011719 243.859375 441.699219 244.199219 441.371094 C 244.539062 441.039062 244.859375 440.6875 245.160156 440.324219 C 245.457031 439.957031 245.738281 439.574219 245.996094 439.175781 C 246.253906 438.777344 246.488281 438.367188 246.699219 437.945312 C 246.914062 437.519531 247.101562 437.085938 247.265625 436.640625 C 247.429688 436.199219 247.570312 435.746094 247.683594 435.285156 C 247.796875 434.824219 247.886719 434.359375 247.949219 433.890625 C 248.011719 433.421875 248.050781 432.949219 248.058594 432.476562 C 248.070312 432 248.054688 431.527344 248.011719 431.058594 C 248.011719 421 240.335938 416.890625 231.28125 416.890625 Z M 224.027344 416.890625 " fill-opacity="1" fill-rule="nonzero"/><path fill="#58595b" d="M 295.035156 446.300781 L 297.167969 446.078125 C 300.359375 445.746094 301.34375 444.832031 299.109375 439.535156 L 295.257812 430.445312 L 279.585938 430.445312 C 278.785156 432.246094 276.898438 437.527344 275.78125 440.910156 C 274.414062 444.742188 275.417969 445.855469 278.683594 446.078125 L 281.289062 446.300781 L 281.289062 448.925781 L 261.542969 448.925781 L 261.542969 446.300781 C 266.503906 445.746094 268.476562 445.28125 271.734375 437.527344 L 288.390625 398.019531 L 291.210938 397.332031 L 308 438.882812 C 310.6875 445.523438 312.847656 445.96875 317.804688 446.300781 L 317.804688 448.925781 L 295.035156 448.925781 Z M 280.816406 426.613281 L 293.898438 426.613281 L 287.367188 409.507812 L 287.160156 409.507812 Z M 280.816406 426.613281 " fill-opacity="1" fill-rule="nonzero"/><path fill="#58595b" d="M 323.289062 448.925781 L 323.289062 446.300781 C 331.429688 445.746094 331.980469 445.1875 331.980469 436.96875 L 331.980469 430.128906 C 332.023438 429.171875 331.898438 428.234375 331.605469 427.324219 C 331.3125 426.414062 330.871094 425.582031 330.277344 424.828125 C 327.914062 420.644531 324.777344 415.457031 319.554688 406.90625 C 316.679688 401.960938 315.890625 401.847656 310.800781 401.273438 L 310.800781 398.6875 L 333.339844 398.6875 L 333.339844 401.273438 L 329.820312 401.738281 C 327.253906 402.070312 327.140625 402.761719 328.25 405.007812 C 328.835938 406.125 336.019531 418.507812 338.753906 422.894531 C 342.234375 416.925781 345.722656 409.378906 347.519531 405.679688 C 348.992188 402.535156 348.75 402.070312 345.722656 401.738281 L 342.449219 401.273438 L 342.449219 398.6875 L 362.296875 398.6875 L 362.296875 401.273438 C 361.296875 401.183594 360.304688 401.253906 359.324219 401.480469 C 358.34375 401.707031 357.425781 402.078125 356.5625 402.597656 C 355.699219 403.113281 354.9375 403.753906 354.277344 404.511719 C 353.617188 405.269531 353.089844 406.109375 352.695312 407.035156 C 349.679688 411.421875 346.292969 416.835938 342.570312 423.359375 C 341.359375 424.996094 340.761719 426.828125 340.78125 428.863281 L 340.78125 436.96875 C 340.78125 445.1875 341.453125 445.746094 349.808594 446.300781 L 349.808594 448.925781 Z M 323.289062 448.925781 " fill-opacity="1" fill-rule="nonzero"/><path fill="#58595b" d="M 433.617188 398.6875 L 433.617188 401.273438 C 425.476562 401.847656 425.027344 402.183594 425.128906 409.824219 L 425.726562 437.75 C 425.828125 445.429688 426.191406 445.746094 434.289062 446.304688 L 434.289062 448.925781 L 409.132812 448.925781 L 409.132812 446.304688 C 416.832031 445.746094 417.257812 445.429688 417.15625 437.75 L 416.828125 406.90625 L 416.457031 406.90625 L 396.972656 447.992188 L 394.941406 447.992188 L 376.589844 408.933594 L 376.386719 408.933594 L 375.679688 427.058594 C 375.386719 431.976562 375.429688 436.890625 375.800781 441.804688 C 376.125 444.742188 378.285156 445.855469 383.785156 446.300781 L 383.785156 448.921875 L 363.0625 448.921875 L 363.0625 446.300781 C 368.011719 445.96875 369.59375 444.742188 370.261719 441.804688 C 371.113281 437.039062 371.566406 432.234375 371.621094 427.394531 L 372.535156 411.421875 C 373 401.960938 372.535156 401.847656 364.53125 401.273438 L 364.53125 398.6875 L 380.640625 398.6875 L 398.683594 435.628906 L 416.375 398.6875 Z M 433.617188 398.6875 " fill-opacity="1" fill-rule="nonzero"/><path fill="#58595b" d="M 438.1875 424.921875 C 438.15625 424.050781 438.167969 423.179688 438.222656 422.308594 C 438.277344 421.4375 438.371094 420.570312 438.511719 419.710938 C 438.652344 418.847656 438.832031 417.996094 439.054688 417.152344 C 439.277344 416.308594 439.542969 415.480469 439.847656 414.660156 C 440.152344 413.84375 440.496094 413.042969 440.878906 412.261719 C 441.261719 411.476562 441.683594 410.714844 442.144531 409.972656 C 442.601562 409.230469 443.09375 408.511719 443.625 407.816406 C 444.152344 407.125 444.714844 406.457031 445.308594 405.820312 C 445.902344 405.179688 446.527344 404.574219 447.179688 403.996094 C 447.835938 403.417969 448.515625 402.875 449.222656 402.363281 C 449.929688 401.851562 450.664062 401.378906 451.417969 400.941406 C 452.171875 400.5 452.945312 400.101562 453.738281 399.738281 C 454.53125 399.375 455.339844 399.054688 456.167969 398.769531 C 456.992188 398.488281 457.828125 398.246094 458.675781 398.042969 C 459.527344 397.84375 460.382812 397.683594 461.246094 397.570312 C 462.113281 397.453125 462.980469 397.378906 463.851562 397.347656 C 464.253906 397.332031 464.652344 397.328125 465.054688 397.332031 C 465.878906 397.285156 466.707031 397.28125 467.53125 397.316406 C 468.359375 397.351562 469.183594 397.429688 470.003906 397.546875 C 470.820312 397.660156 471.632812 397.816406 472.4375 398.015625 C 473.242188 398.210938 474.035156 398.445312 474.816406 398.71875 C 475.597656 398.996094 476.363281 399.304688 477.113281 399.65625 C 477.863281 400.003906 478.59375 400.390625 479.304688 400.8125 C 480.019531 401.234375 480.707031 401.6875 481.375 402.175781 C 482.042969 402.667969 482.6875 403.1875 483.300781 403.738281 C 483.917969 404.292969 484.507812 404.871094 485.066406 405.484375 C 485.625 406.09375 486.152344 406.730469 486.652344 407.390625 C 487.148438 408.050781 487.609375 408.738281 488.039062 409.445312 C 488.46875 410.152344 488.863281 410.878906 489.222656 411.625 C 489.582031 412.371094 489.902344 413.132812 490.183594 413.910156 C 490.46875 414.6875 490.714844 415.476562 490.917969 416.277344 C 491.125 417.082031 491.292969 417.890625 491.417969 418.707031 C 491.542969 419.527344 491.628906 420.347656 491.675781 421.175781 C 491.710938 421.859375 491.722656 422.542969 491.703125 423.230469 C 491.738281 424.082031 491.730469 424.929688 491.683594 425.78125 C 491.632812 426.632812 491.542969 427.476562 491.410156 428.316406 C 491.277344 429.160156 491.101562 429.992188 490.886719 430.816406 C 490.675781 431.640625 490.421875 432.449219 490.125 433.25 C 489.832031 434.050781 489.5 434.832031 489.128906 435.597656 C 488.757812 436.363281 488.351562 437.109375 487.90625 437.835938 C 487.460938 438.5625 486.980469 439.265625 486.46875 439.945312 C 485.957031 440.625 485.410156 441.277344 484.832031 441.902344 C 484.253906 442.527344 483.648438 443.125 483.011719 443.691406 C 482.375 444.257812 481.714844 444.789062 481.027344 445.292969 C 480.335938 445.792969 479.625 446.257812 478.890625 446.691406 C 478.15625 447.121094 477.402344 447.515625 476.632812 447.871094 C 475.859375 448.230469 475.070312 448.546875 474.265625 448.828125 C 473.460938 449.105469 472.644531 449.347656 471.816406 449.546875 C 470.988281 449.746094 470.152344 449.902344 469.3125 450.019531 C 468.46875 450.136719 467.621094 450.214844 466.769531 450.25 C 466.21875 450.269531 465.667969 450.273438 465.117188 450.261719 C 464.277344 450.304688 463.4375 450.304688 462.597656 450.261719 C 461.757812 450.21875 460.921875 450.136719 460.089844 450.011719 C 459.257812 449.890625 458.433594 449.726562 457.617188 449.519531 C 456.800781 449.316406 455.996094 449.070312 455.207031 448.789062 C 454.414062 448.503906 453.636719 448.183594 452.878906 447.820312 C 452.117188 447.460938 451.375 447.066406 450.65625 446.632812 C 449.933594 446.199219 449.234375 445.734375 448.558594 445.230469 C 447.886719 444.730469 447.234375 444.199219 446.613281 443.632812 C 445.988281 443.066406 445.394531 442.472656 444.832031 441.847656 C 444.265625 441.226562 443.734375 440.574219 443.234375 439.898438 C 442.730469 439.222656 442.265625 438.527344 441.832031 437.804688 C 441.402344 437.082031 441.003906 436.339844 440.644531 435.582031 C 440.285156 434.820312 439.964844 434.042969 439.683594 433.25 C 439.398438 432.460938 439.15625 431.65625 438.953125 430.839844 C 438.75 430.023438 438.585938 429.199219 438.460938 428.367188 C 438.339844 427.535156 438.257812 426.699219 438.214844 425.859375 C 438.199219 425.546875 438.191406 425.234375 438.1875 424.921875 Z M 466.03125 446.859375 C 474.710938 446.859375 481.570312 441.246094 481.570312 425.496094 C 481.570312 412.652344 475.300781 400.734375 464 400.734375 C 454.863281 400.734375 448.320312 408.503906 448.320312 422.207031 C 448.320312 436.855469 454.863281 446.859375 466.03125 446.859375 Z M 466.03125 446.859375 " fill-opacity="1" fill-rule="nonzero"/><path fill="#58595b" d="M 546.824219 449.464844 L 543.175781 449.464844 L 508.820312 411.183594 L 508.742188 411.183594 L 508.742188 427.636719 C 508.632812 432.449219 508.851562 437.246094 509.40625 442.027344 C 509.71875 444.742188 512.207031 445.96875 517.835938 446.300781 L 517.835938 448.925781 L 496.460938 448.925781 L 496.460938 446.300781 C 501.167969 446.078125 503.511719 444.742188 503.988281 442.027344 C 504.546875 437.246094 504.777344 432.449219 504.675781 427.636719 L 504.675781 412.558594 C 504.675781 403.539062 502.863281 401.847656 495.214844 401.273438 L 495.214844 398.6875 L 509.058594 398.6875 L 542.535156 435.5 L 542.738281 435.5 L 542.738281 419.976562 C 542.832031 415.113281 542.609375 410.269531 542.070312 405.4375 C 541.613281 402.761719 539.136719 401.625 533.515625 401.273438 L 533.515625 398.6875 L 555.023438 398.6875 L 555.023438 401.273438 C 550.292969 401.515625 547.941406 402.761719 547.492188 405.4375 C 546.945312 410.269531 546.722656 415.113281 546.824219 419.976562 Z M 546.824219 449.464844 " fill-opacity="1" fill-rule="nonzero"/><path fill="#58595b" d="M 578.464844 402.070312 L 574.984375 402.070312 C 568.328125 402.070312 566.050781 403.316406 564.820312 404.65625 C 563.203125 406.886719 562.191406 409.367188 561.789062 412.09375 L 559.070312 412.09375 C 559.433594 406.253906 559.972656 400.734375 560.09375 396.792969 L 561.546875 396.792969 C 561.769531 397.144531 562.039062 397.460938 562.355469 397.734375 C 562.671875 398.007812 563.023438 398.226562 563.40625 398.398438 C 563.789062 398.566406 564.1875 398.675781 564.605469 398.722656 C 565.019531 398.773438 565.433594 398.761719 565.84375 398.6875 L 600.761719 398.6875 C 601.136719 398.738281 601.515625 398.730469 601.890625 398.667969 C 602.265625 398.605469 602.625 398.488281 602.964844 398.320312 C 603.304688 398.152344 603.613281 397.9375 603.894531 397.675781 C 604.171875 397.417969 604.402344 397.121094 604.59375 396.792969 L 606.09375 396.792969 C 606.167969 399.914062 606.625 407.035156 607.078125 411.871094 L 604.269531 412.09375 C 604.0625 409.179688 603.085938 406.550781 601.335938 404.210938 C 600.023438 403.300781 598.585938 402.664062 597.03125 402.292969 C 595.472656 401.925781 593.902344 401.851562 592.320312 402.074219 L 587.285156 402.074219 L 587.285156 436.96875 C 587.285156 445.1875 587.9375 445.746094 596.03125 446.304688 L 596.03125 448.925781 L 570.023438 448.925781 L 570.023438 446.304688 C 577.804688 445.746094 578.464844 445.1875 578.464844 436.96875 Z M 578.464844 402.070312 " fill-opacity="1" fill-rule="nonzero"/></svg>