<svg width="131" height="39" viewBox="0 0 131 39" fill="none" xmlns="http://www.w3.org/2000/svg">
<path fill-rule="evenodd" clip-rule="evenodd" d="M4.86807 23.7354H0.908336V23.4589H1.10902C1.85321 23.4589 2.06875 23.2965 2.06875 22.6106V15.6993C2.06875 15.1569 1.89502 14.9232 1.39517 14.9232H0.681641V14.6486C1.08114 14.6344 1.78167 14.5888 2.48312 14.5584C3.15113 14.5327 3.80613 14.5166 4.1982 14.5156H4.29575C7.24836 14.5289 7.92566 15.9815 7.92566 17.1025C7.92566 18.8125 6.58222 19.8936 4.46856 19.8936C4.44626 19.8936 4.42304 19.8936 4.39981 19.8936C4.01517 19.8936 3.63053 19.8556 3.2524 19.7786V22.3322C3.2524 23.1483 3.49675 23.4589 4.39609 23.4589H4.86807V23.7354ZM4.23908 14.793C3.91205 14.793 3.59523 14.793 3.2524 14.85V19.4984C3.50511 19.5649 3.76339 19.6038 4.02446 19.6143C5.58253 19.6143 6.58222 18.5322 6.58222 17.0578C6.58222 15.9159 6.13997 14.793 4.23908 14.793Z" fill="#57585B"/>
<path fill-rule="evenodd" clip-rule="evenodd" d="M118.827 22.3906C118.827 23.18 119.083 23.4584 119.953 23.4584H120.481V23.7348H115.979V23.4584H116.509C117.382 23.4584 117.641 23.18 117.641 22.3896V15.1706H115.152C114.58 15.1706 114.325 15.5078 114.109 16.7932H113.852L114.081 14.4258H114.35L114.51 14.6025L114.795 14.6471H121.668C121.867 14.6471 122.084 14.6025 122.111 14.4258H122.384L122.611 16.7932H122.356C122.141 15.5078 121.883 15.1706 121.311 15.1706H118.827V22.3906ZM105.007 22.3906C105.007 23.18 105.264 23.4584 106.137 23.4584H106.665V23.7348H102.162V23.4584H102.69C103.563 23.4584 103.821 23.18 103.821 22.3896V15.1706H101.334C100.762 15.1706 100.505 15.5078 100.291 16.7932H100.033L100.264 14.4258H100.532L100.69 14.6025L100.976 14.6471H107.849C108.049 14.6471 108.265 14.6025 108.29 14.4258H108.565L108.794 16.7932H108.536C108.321 15.5078 108.064 15.1706 107.492 15.1706H105.007V22.3906ZM89.9142 19.7011L89.0873 21.9954C88.987 22.2747 88.8002 22.7136 88.8002 22.9159C88.8002 23.3111 89.1719 23.4584 89.9579 23.4584H90.1874V23.7339H86.8836V23.4584C87.8145 23.4432 87.9715 23.2817 88.4295 22.0087L91.031 14.7469L90.9009 14.4277H92.144L95.1338 22.5369C95.4181 23.3102 95.7172 23.4584 96.4317 23.4584V23.7339H92.5026V23.4584H92.8743C93.6891 23.4584 93.9891 23.3719 93.9891 22.9606C93.9891 22.7259 93.8888 22.5093 93.8293 22.3611L92.8743 19.7011H89.9142ZM91.3738 15.6541L90.1576 19.057H92.6308L91.3738 15.6541ZM82.4556 15.9743C82.9136 15.1734 82.6432 14.9226 81.7272 14.9226V14.6481H84.9557V14.9245C83.9867 14.9967 83.5695 15.3929 83.17 16.0797L80.7981 20.1856V22.3754C80.7981 23.1506 81.0703 23.4593 81.9409 23.4593H82.1295V23.7367H78.1967V23.4593H78.4689C79.3543 23.4593 79.6126 23.124 79.6126 22.4058V20.3481L77.0697 16.283C76.3682 15.1582 76.0384 14.9559 75.1094 14.9245V14.6481H78.9102V14.9245C77.7962 14.9245 77.7238 15.2019 78.1549 15.8764L80.4423 19.4836L82.4546 15.9771L82.4556 15.9743ZM63.3639 19.3952V22.1711C63.3639 23.123 63.5479 23.4593 64.5058 23.4593H64.5476V23.7348H60.9641V23.4584H61.0459C61.8914 23.4584 62.1784 23.2247 62.1784 22.3906V15.9619C62.1784 15.2 61.9332 14.9815 61.1453 14.9226V14.6481H64.5485V14.9245C63.5349 14.9245 63.3639 15.2019 63.3639 16.3277V18.8699H68.9644V15.9904C68.9644 15.2181 68.7229 14.9245 67.8356 14.9245H67.5652V14.6481H71.2379V14.9245C70.3803 14.954 70.1509 15.2181 70.1509 16.1234V22.1882C70.1509 23.2266 70.437 23.4593 71.2955 23.4593H71.4367V23.7367H67.3934V23.4593H67.8356C68.7656 23.4593 68.9644 23.124 68.9644 22.3621V19.3962L63.3639 19.3952ZM44.6709 23.7348V23.4584C45.3278 23.4432 45.6009 23.3254 45.6009 23.0489C45.6009 22.801 45.2859 22.3041 43.8412 20.8288C42.6985 19.6574 42.3556 19.438 41.7285 19.5121V22.2452C41.7285 23.1648 41.9849 23.4584 42.8703 23.4584H43.0562V23.7339H39.1382V23.4584H39.3984C40.3117 23.4584 40.5402 23.1354 40.5402 22.3896V15.9743C40.5402 15.0993 40.1537 14.9226 39.3984 14.9226H39.1392V14.6452H42.9986V14.9226H42.8703C42.0137 14.9226 41.7276 15.2 41.7276 16.0778V19.2318C42.2841 19.1758 42.7263 18.9145 43.3265 18.2989C44.4405 17.1599 45.3138 15.8432 45.3138 15.3767C45.3138 15.0414 45.0992 14.9226 44.3271 14.9226V14.6452H48.0862V14.9226C47.0707 14.9378 46.6285 15.0832 46.1974 15.5221C45.7579 15.9743 44.8567 17.8021 43.3563 18.9715C43.6117 19.0152 43.8691 19.2318 44.4981 19.8769C46.0013 21.4111 46.8003 22.5511 47.2695 23.0337C47.5139 23.2817 47.8846 23.4584 48.8564 23.4584V23.7339H44.6718L44.6709 23.7348ZM26.9645 22.3611C26.9645 23.237 27.3064 23.4584 28.1073 23.4584H28.4362V23.7339H24.391V23.4584H24.6353C25.478 23.4584 25.7781 23.2237 25.7781 22.2452V16.0921C25.7781 15.1867 25.5356 14.9226 24.7078 14.9226H24.391V14.6481C24.7357 14.6481 25.6062 14.5911 26.1934 14.5597C26.7769 14.5312 27.0639 14.516 27.9939 14.516C30.6353 14.516 31.8236 15.6237 31.8236 17.1152C31.8236 18.2125 31.0952 19.133 29.9209 19.4836C30.4523 19.9082 30.8797 20.3177 31.5514 21.0036L32.6802 22.1588C33.5229 23.0204 34.3962 23.56 35.4953 23.636V23.8973C32.9952 24.0141 32.3504 23.4593 31.0794 22.1588L30.1373 21.1945C29.5083 20.5514 29.0085 20.1258 28.6657 19.893C28.307 19.9073 28.0803 19.9234 27.692 19.9234C27.3789 19.9234 27.1931 19.9082 26.9645 19.8949V22.3611ZM26.9645 19.6137C27.3064 19.6584 27.522 19.6422 27.8509 19.6422C29.4359 19.6422 30.4792 18.9563 30.4792 17.2036C30.4792 15.8441 29.88 14.7934 27.6799 14.7934C27.4077 14.7934 27.221 14.7934 26.9645 14.821V19.6137ZM14.2454 19.6992L13.4158 21.9935C13.3173 22.2728 13.1315 22.7117 13.1315 22.915C13.1315 23.3102 13.5013 23.4565 14.2891 23.4565H14.5177V23.732H11.2139V23.4565C12.1448 23.4413 12.3018 23.2807 12.7599 22.0077L15.3594 14.7459L15.2312 14.4258H16.4771L19.4613 22.5359C19.7465 23.3083 20.0466 23.4565 20.762 23.4565V23.732H16.832V23.4565H17.2036C18.0194 23.4565 18.3185 23.37 18.3185 22.9596C18.3185 22.724 18.2191 22.5084 18.1597 22.3602L17.2036 19.6992H14.2454ZM15.7022 15.6541L14.4879 19.057H16.9602L15.7022 15.6541Z" fill="#57585B"/>
<path fill-rule="evenodd" clip-rule="evenodd" d="M130.504 17.275V17.1221C130.505 17.1439 130.505 17.1648 130.505 17.1857C130.505 17.2161 130.505 17.2456 130.504 17.275Z" fill="white"/>
<path fill-rule="evenodd" clip-rule="evenodd" d="M98.9357 38.252H25.5469V37.643H98.9357V38.252ZM127.868 19.9246H127.831C126.37 19.9246 125.144 18.7513 125.144 17.1857C125.144 15.6429 126.37 14.4725 127.831 14.4725C129.265 14.4725 130.471 15.6116 130.504 17.123V17.275C130.47 18.7352 129.306 19.9132 127.868 19.9246ZM127.831 14.8725C126.584 14.8725 125.631 15.8804 125.631 17.1857C125.631 18.5186 126.584 19.5237 127.831 19.5237C129.068 19.5237 130.022 18.5186 130.022 17.1857C130.022 15.8804 129.068 14.8725 127.831 14.8725ZM129.158 18.7865H128.637L127.79 17.4156H127.279V18.7865H126.792V15.6002H127.995C128.737 15.6002 129.088 15.9004 129.088 16.5112C129.088 17.0898 128.729 17.3292 128.267 17.3786L129.158 18.7865ZM127.279 17.0157H127.784C128.211 17.0157 128.603 16.9938 128.603 16.4894C128.603 16.0666 128.246 16.0011 127.92 16.0011H127.279V17.0157ZM98.9357 0.86283H25.5469V0.25293H98.9357V0.86283Z" fill="#57585B"/>
</svg>
