<svg width="131" height="50" viewBox="0 0 131 50" fill="none" xmlns="http://www.w3.org/2000/svg">
<g filter="url(#filter0_d_149_475)">
<mask id="mask0_149_475" style="mask-type:luminance" maskUnits="userSpaceOnUse" x="-27" y="2" width="187" height="42">
<path d="M-14.806 2.5C-14.806 2.5 -26.5547 2.5 -26.5547 14.2143V31.7857C-26.5547 31.7857 -26.5547 43.5 -14.806 43.5H148C148 43.5 159.747 43.5 159.747 31.7857V14.2143C159.747 14.2143 159.747 2.5 148 2.5" fill="white"/>
</mask>
<g mask="url(#mask0_149_475)">
<path fill-rule="evenodd" clip-rule="evenodd" d="M25.7475 42.9235C25.7015 42.9186 25.6085 42.9147 25.5448 42.905C25.4068 42.8825 25.3686 42.8044 25.3549 42.6521C25.3324 42.4588 25.3324 42.1182 25.3324 41.6818V40.8716C25.3324 40.158 25.3324 40.0379 25.3412 39.8915C25.3549 39.7441 25.3931 39.666 25.5125 39.6484C25.5683 39.6386 25.5948 39.6386 25.6741 39.6289C25.7201 39.6289 25.7426 39.6064 25.7426 39.583C25.7426 39.5557 25.7201 39.5381 25.6506 39.5381C25.4528 39.5381 24.9222 39.5518 24.881 39.5518C24.834 39.5518 24.4189 39.5381 24.1516 39.5381C24.0821 39.5381 24.0586 39.5557 24.0586 39.583C24.0586 39.6025 24.0821 39.6289 24.1458 39.6289C24.2016 39.6347 24.2711 39.6386 24.3083 39.6425C24.46 39.6757 24.4972 39.7538 24.507 39.8866C24.5158 40.034 24.5158 40.1121 24.5158 40.8257V40.9213C24.5158 40.9458 24.5021 40.9545 24.4884 40.9545H23.0482C23.0345 40.9545 23.0208 40.9458 23.0208 40.9213V40.8257C23.0208 40.2507 23.0208 40.0623 23.0345 39.9149C23.0443 39.7812 23.0668 39.6748 23.1922 39.6474C23.2372 39.6386 23.2979 39.6347 23.3537 39.6289C23.4085 39.6289 23.4359 39.6064 23.4359 39.583C23.4359 39.5557 23.4213 39.5371 23.339 39.5371C23.1403 39.5371 22.7526 39.5518 22.5773 39.5518C22.4716 39.5518 22.1172 39.5371 21.8489 39.5371C21.798 39.5371 21.7471 39.5459 21.7471 39.5791C21.7471 39.6015 21.7559 39.624 21.8391 39.6289C21.89 39.6347 21.9135 39.6347 21.9693 39.6425C22.1309 39.666 22.1808 39.7538 22.1906 39.9149C22.1994 40.0623 22.2043 40.1677 22.2043 40.8803V41.6818C22.2043 42.1182 22.1945 42.4403 22.1808 42.6336C22.172 42.7712 22.1309 42.8903 22.0192 42.905C21.9595 42.9147 21.9311 42.9186 21.8773 42.9235C21.8166 42.9235 21.798 42.9411 21.798 42.9743C21.798 43.0065 21.8489 43.0153 21.8998 43.0153C22.0476 43.0153 22.5323 43.0016 22.5734 43.0016C22.6194 43.0016 23.1638 43.0153 23.4262 43.0153C23.4957 43.0153 23.5192 42.9918 23.5192 42.9694C23.5192 42.9372 23.482 42.9235 23.432 42.9235C23.3801 42.9186 23.3341 42.9147 23.2372 42.9011C23.0992 42.8767 23.058 42.7898 23.0443 42.657C23.0247 42.4589 23.0208 42.2704 23.0208 41.8331V41.3548C23.0208 41.3313 23.0345 41.3274 23.0482 41.3274H24.4884C24.5021 41.3274 24.5158 41.3362 24.5158 41.3548V41.7267C24.5158 42.165 24.507 42.454 24.4884 42.6473C24.4737 42.7937 24.4463 42.8825 24.3357 42.904C24.2936 42.9138 24.2388 42.9186 24.1928 42.9235C24.133 42.9235 24.1046 42.9411 24.1046 42.9645C24.1046 42.9918 24.1232 43.0153 24.2065 43.0153C24.4326 43.0153 24.7919 43.0016 24.8663 43.0016C24.9496 43.0016 25.4156 43.0153 25.7338 43.0153C25.7886 43.0153 25.8258 43.0016 25.8258 42.9684C25.8258 42.9469 25.8033 42.9235 25.7475 42.9235Z" fill="#585A5B"/>
</g>
<mask id="mask1_149_475" style="mask-type:luminance" maskUnits="userSpaceOnUse" x="-27" y="2" width="187" height="42">
<path d="M-14.806 2.5C-14.806 2.5 -26.5547 2.5 -26.5547 14.2143V31.7857C-26.5547 31.7857 -26.5547 43.5 -14.806 43.5H148C148 43.5 159.747 43.5 159.747 31.7857V14.2143C159.747 14.2143 159.747 2.5 148 2.5" fill="white"/>
</mask>
<g mask="url(#mask1_149_475)">
<path fill-rule="evenodd" clip-rule="evenodd" d="M30.602 42.7858C29.808 42.7858 29.4447 41.9532 29.4447 41.0834C29.4447 39.9939 29.9186 39.7587 30.3445 39.7587C31.16 39.7587 31.4792 40.6285 31.4792 41.3918C31.4792 42.6609 30.8888 42.7858 30.602 42.7858ZM30.4962 39.4736C29.1393 39.4736 28.5205 40.3708 28.5205 41.2913C28.5205 42.1045 29.1021 43.0807 30.4639 43.0807C31.6731 43.0807 32.4015 42.2607 32.4015 41.1888C32.4015 40.2556 31.6682 39.4736 30.4962 39.4736Z" fill="#585A5B"/>
</g>
<mask id="mask2_149_475" style="mask-type:luminance" maskUnits="userSpaceOnUse" x="-27" y="2" width="187" height="42">
<path d="M-14.806 2.5C-14.806 2.5 -26.5547 2.5 -26.5547 14.2143V31.7857C-26.5547 31.7857 -26.5547 43.5 -14.806 43.5H148C148 43.5 159.747 43.5 159.747 31.7857V14.2143C159.747 14.2143 159.747 2.5 148 2.5" fill="white"/>
</mask>
<g mask="url(#mask2_149_475)">
<path fill-rule="evenodd" clip-rule="evenodd" d="M38.4299 39.5059C38.3976 39.5059 38.3613 39.5195 38.2869 39.5342C38.2223 39.542 38.1391 39.5527 37.9971 39.5527H35.9891C35.8138 39.5527 35.5602 39.5381 35.477 39.5195C35.3713 39.4961 35.3527 39.4834 35.3204 39.4834C35.292 39.4834 35.2783 39.5283 35.2695 39.5976C35.2372 39.7724 35.1862 40.0213 35.1676 40.2107C35.1637 40.2653 35.1637 40.3014 35.2048 40.3014C35.2372 40.3014 35.2509 40.2653 35.2607 40.2282C35.2695 40.1999 35.2783 40.1716 35.3018 40.1218C35.3615 39.9608 35.4633 39.9012 35.7218 39.8875C35.9519 39.8729 36.2387 39.8788 36.4179 39.8788V41.6818C36.4179 42.1269 36.4091 42.4598 36.3905 42.6521C36.3768 42.7859 36.3445 42.8874 36.2426 42.9049C36.1917 42.9147 36.1418 42.9186 36.0958 42.9245C36.04 42.9245 36.0028 42.9372 36.0028 42.9694C36.0028 43.0065 36.0361 43.0153 36.1085 43.0153C36.2613 43.0153 36.7097 43.0016 36.788 43.0016C36.8614 43.0016 37.3088 43.0153 37.6231 43.0153C37.7054 43.0153 37.7289 43.0016 37.7289 42.9743C37.7289 42.942 37.7103 42.9284 37.6368 42.9235C37.5536 42.9147 37.4988 42.9098 37.4381 42.9001C37.3 42.8766 37.2677 42.78 37.2579 42.6609C37.2344 42.4676 37.2344 42.04 37.2344 41.6808V39.8778C37.5859 39.8778 37.8258 39.8866 37.9785 39.9012C38.2497 39.9188 38.3192 40.0291 38.3378 40.1716C38.3427 40.196 38.3427 40.2136 38.3476 40.2644C38.3515 40.319 38.3613 40.3464 38.3976 40.3464C38.426 40.3464 38.4397 40.319 38.4436 40.2546C38.4485 40.1394 38.4769 39.7128 38.4769 39.6484C38.4769 39.5342 38.471 39.5059 38.4299 39.5059Z" fill="#585A5B"/>
</g>
<mask id="mask3_149_475" style="mask-type:luminance" maskUnits="userSpaceOnUse" x="-27" y="2" width="187" height="42">
<path d="M-14.806 2.5C-14.806 2.5 -26.5547 2.5 -26.5547 14.2143V31.7857C-26.5547 31.7857 -26.5547 43.5 -14.806 43.5H148C148 43.5 159.747 43.5 159.747 31.7857V14.2143C159.747 14.2143 159.747 2.5 148 2.5" fill="white"/>
</mask>
<g mask="url(#mask3_149_475)">
<path fill-rule="evenodd" clip-rule="evenodd" d="M43.6539 42.1884C43.6265 42.1884 43.6069 42.2167 43.5991 42.2714C43.557 42.4832 43.5012 42.5838 43.3729 42.6346C43.2437 42.6853 43.0635 42.6892 42.9431 42.6892C42.4311 42.6892 42.3664 42.616 42.3615 42.2939C42.3576 42.1201 42.3615 41.8477 42.3615 41.6916V41.3743C42.3615 41.3372 42.3664 41.3138 42.3899 41.3138C42.5329 41.3138 42.9108 41.3235 43.04 41.3323C43.2662 41.347 43.3308 41.4251 43.3494 41.5578C43.3543 41.5949 43.3582 41.6271 43.3631 41.6642C43.3729 41.7052 43.3817 41.7384 43.414 41.7384C43.4424 41.7384 43.4551 41.7101 43.4551 41.6506C43.4551 41.5998 43.4551 41.3753 43.46 41.2689C43.4737 41.0892 43.4972 40.9233 43.4972 40.8774C43.4972 40.8501 43.4972 40.8218 43.4698 40.8218C43.4463 40.8218 43.4326 40.8413 43.4052 40.8813C43.3543 40.9643 43.2946 40.978 43.0684 40.9877C42.902 40.9926 42.528 40.9965 42.3987 40.9926C42.3664 40.9926 42.3615 40.9692 42.3615 40.937V39.9246C42.3615 39.8924 42.3713 39.8788 42.3987 39.8788C42.5368 39.8788 42.9382 39.8885 43.0909 39.9022C43.3122 39.9207 43.3729 39.9813 43.3954 40.0867C43.414 40.1511 43.4189 40.197 43.4189 40.2478C43.4228 40.2888 43.4424 40.3122 43.4649 40.3122C43.4923 40.3122 43.5109 40.2839 43.5109 40.2478C43.5247 40.0076 43.5345 39.8475 43.5482 39.7548C43.5619 39.622 43.5707 39.5752 43.5707 39.5527C43.5707 39.5293 43.5668 39.5107 43.5433 39.5107C43.5247 39.5107 43.5012 39.5205 43.4698 39.5303C43.4228 39.5391 43.3122 39.5478 43.2202 39.5478C43.1467 39.5478 42.0159 39.5537 41.919 39.5537C41.7163 39.5537 41.4951 39.5391 41.2317 39.5391C41.1573 39.5391 41.1299 39.5537 41.1299 39.581C41.1299 39.6084 41.1524 39.6259 41.2131 39.6308C41.2591 39.6367 41.3237 39.6367 41.3658 39.6445C41.4804 39.6728 41.5225 39.7509 41.5313 39.8846C41.5401 40.032 41.545 40.1238 41.545 40.8735V41.6837C41.545 41.9688 41.5401 42.2402 41.5313 42.4237C41.5225 42.7136 41.5039 42.8893 41.3746 42.9069C41.3384 42.9167 41.2914 42.9206 41.2356 42.9255C41.1671 42.9255 41.1436 42.9489 41.1436 42.9713C41.1436 43.0036 41.172 43.0172 41.2552 43.0172C41.5078 43.0172 41.7017 43.0036 41.919 43.0036C42.4036 43.0036 42.7492 43.0309 43.3866 43.0309C43.557 43.0309 43.5893 43.026 43.6216 42.9069C43.6451 42.82 43.695 42.4696 43.695 42.29C43.695 42.2343 43.6911 42.1884 43.6539 42.1884Z" fill="#585A5B"/>
</g>
<mask id="mask4_149_475" style="mask-type:luminance" maskUnits="userSpaceOnUse" x="-27" y="2" width="187" height="42">
<path d="M-14.806 2.5C-14.806 2.5 -26.5547 2.5 -26.5547 14.2143V31.7857C-26.5547 31.7857 -26.5547 43.5 -14.806 43.5H148C148 43.5 159.747 43.5 159.747 31.7857V14.2143C159.747 14.2143 159.747 2.5 148 2.5" fill="white"/>
</mask>
<g mask="url(#mask4_149_475)">
<path fill-rule="evenodd" clip-rule="evenodd" d="M49.3223 42.1416C49.2851 42.1416 49.2753 42.1797 49.2626 42.2294C49.2117 42.4462 49.1333 42.5653 49.0227 42.616C48.8935 42.6853 48.7456 42.6892 48.4921 42.6892C48.1083 42.6892 48.0211 42.6658 47.9555 42.5799C47.8772 42.4833 47.8919 42.1513 47.8919 41.6867V40.9184C47.8919 40.1589 47.8958 40.0672 47.9056 39.9198C47.9154 39.7587 47.9467 39.6718 48.072 39.6484C48.1357 39.6347 48.1827 39.6347 48.2287 39.6298C48.2933 39.6298 48.3393 39.6211 48.3393 39.5801C48.3393 39.5517 48.3119 39.5381 48.2287 39.5381C48.0632 39.5381 47.4905 39.5518 47.4484 39.5518C47.2692 39.5518 47.0293 39.5381 46.766 39.5381C46.6739 39.5381 46.627 39.5469 46.627 39.584C46.627 39.6211 46.6739 39.6298 46.7239 39.6298C46.7934 39.6347 46.8629 39.6386 46.904 39.6523C47.0196 39.6855 47.0519 39.7636 47.0607 39.8924C47.0705 40.0398 47.0754 40.1228 47.0754 40.8725V41.6828C47.0754 41.9678 47.0705 42.2441 47.0607 42.4276C47.047 42.7956 47.043 42.8786 46.8766 42.9059C46.8257 42.9157 46.7748 42.9196 46.72 42.9245C46.6553 42.9245 46.627 42.9382 46.627 42.9655C46.627 43.0075 46.6642 43.0163 46.7288 43.0163C46.9824 43.0163 47.232 43.0026 47.4484 43.0026C47.9379 43.0026 48.3667 43.0299 49.0031 43.0299C49.1882 43.0299 49.2254 43.025 49.2626 42.9059C49.3086 42.7722 49.3585 42.3349 49.3585 42.2304C49.3595 42.165 49.3546 42.1416 49.3223 42.1416Z" fill="#585A5B"/>
</g>
<mask id="mask5_149_475" style="mask-type:luminance" maskUnits="userSpaceOnUse" x="-27" y="2" width="187" height="42">
<path d="M-14.806 2.5C-14.806 2.5 -26.5547 2.5 -26.5547 14.2143V31.7857C-26.5547 31.7857 -26.5547 43.5 -14.806 43.5H148C148 43.5 159.747 43.5 159.747 31.7857V14.2143C159.747 14.2143 159.747 2.5 148 2.5" fill="white"/>
</mask>
<g mask="url(#mask5_149_475)">
<path fill-rule="evenodd" clip-rule="evenodd" d="M53.3735 40.8725L53.1375 40.7163C52.8242 40.5045 52.7694 40.3249 52.7694 40.1687C52.7694 39.9568 52.9065 39.745 53.2854 39.745C53.6173 39.745 53.8307 39.9022 53.9178 40.0496C53.9824 40.155 53.9961 40.2702 54.001 40.3161C54.0099 40.3893 54.0285 40.403 54.052 40.403C54.0882 40.403 54.1019 40.3717 54.1019 40.2888C54.1019 39.8788 54.1117 39.787 54.1205 39.6396C54.1205 39.6025 54.1068 39.5888 54.0608 39.5752C53.9873 39.5517 53.909 39.5342 53.8346 39.5195C53.6408 39.4834 53.5027 39.4746 53.304 39.4746C52.5657 39.4746 52.1281 39.9022 52.1281 40.4303C52.1281 40.8364 52.2848 41.1576 52.8477 41.5529L53.1336 41.7521C53.5252 42.0186 53.5624 42.1796 53.5624 42.3719C53.5624 42.5701 53.4293 42.7946 52.9897 42.7946C52.6304 42.7946 52.2848 42.5789 52.2064 42.2021C52.1927 42.1464 52.1869 42.1054 52.1829 42.0586C52.178 42.0225 52.1741 41.9815 52.1408 41.9815C52.1144 41.9815 52.0948 42.0088 52.086 42.0918C52.0723 42.2197 52.0586 42.3954 52.0586 42.7683C52.0586 42.86 52.0811 42.9196 52.1594 42.9518C52.3396 43.0348 52.5834 43.0807 52.93 43.0807C53.1698 43.0807 53.4655 43.0436 53.7328 42.8825C54.0794 42.6804 54.2213 42.3671 54.2213 42.0498C54.2213 41.5851 54.0197 41.3001 53.3735 40.8725Z" fill="#585A5B"/>
</g>
<mask id="mask6_149_475" style="mask-type:luminance" maskUnits="userSpaceOnUse" x="-27" y="2" width="187" height="42">
<path d="M-14.806 2.5C-14.806 2.5 -26.5547 2.5 -26.5547 14.2143V31.7857C-26.5547 31.7857 -26.5547 43.5 -14.806 43.5H148C148 43.5 159.747 43.5 159.747 31.7857V14.2143C159.747 14.2143 159.747 2.5 148 2.5" fill="white"/>
</mask>
<g mask="url(#mask6_149_475)">
<path fill-rule="evenodd" clip-rule="evenodd" d="M66.211 39.6324C66.1278 39.5865 66.0259 39.5865 65.932 39.65C65.8585 39.6968 65.8017 39.7623 65.7655 39.8452C65.7293 39.9184 65.7469 39.9741 65.7841 40.0122C65.8487 40.058 65.9231 40.1683 65.9231 40.3441C65.9231 40.5383 65.7097 40.6594 65.413 40.6594C65.2456 40.6594 65.089 40.6496 64.949 40.6398C64.7727 40.6311 64.6895 40.6223 64.4575 40.6223C64.0306 40.6223 63.6772 40.6965 63.3159 40.9639C62.8704 41.2968 62.796 41.6209 62.796 41.7322C62.796 41.8611 62.843 42.0007 62.9448 42.0739C63.0467 42.1481 63.1671 42.1481 63.2601 42.1022C63.3345 42.0553 63.4265 41.9723 63.4461 41.9265C63.4637 41.8894 63.4461 41.8425 63.4089 41.8152C63.3345 41.7507 63.2699 41.6395 63.2699 41.455C63.2699 41.2314 63.4089 40.9464 63.8446 40.9464C63.9562 40.9464 64.0492 40.9639 64.1236 41.0196C64.2999 41.1494 64.3919 41.4179 64.3919 41.7517C64.3919 42.149 64.2803 42.4819 64.0306 42.7133C63.734 42.9993 63.4089 43.0745 63.0007 43.0745C62.3231 43.0745 61.4606 42.7133 61.4606 41.659C61.4606 41.4188 61.5438 41.002 61.7945 40.798C61.9707 40.6496 62.1929 40.6311 62.3231 40.6232L62.611 40.6135C62.6942 40.6135 62.7402 40.5588 62.7774 40.5022C62.8244 40.4378 62.8244 40.4104 62.7862 40.4007C62.4524 40.345 62.0627 40.2338 62.0627 39.6148C62.0627 39.4479 62.1195 39.2546 62.2213 39.1424C62.3045 39.0506 62.4436 38.9754 62.5826 38.9754C62.75 38.9754 63.0467 39.0125 63.1299 39.3552C63.1397 39.3923 63.1955 39.4098 63.2327 39.3737C63.2787 39.3376 63.4089 39.2351 63.4637 39.1599C63.5205 39.0877 63.5391 39.0506 63.5391 38.9754C63.5391 38.7822 63.3541 38.5967 62.9634 38.5967C62.8616 38.5967 62.6854 38.6338 62.4632 38.7538C62.1567 38.9208 61.9423 39.077 61.7572 39.3464C61.5624 39.6227 61.5438 39.8081 61.5438 40.0122C61.5438 40.225 61.6368 40.4182 61.7024 40.5022C61.7396 40.5481 61.7573 40.5764 61.7024 40.6232C61.581 40.7238 61.3588 40.8536 61.1356 41.1309C60.9221 41.3808 60.8291 41.7517 60.8291 41.9831C60.8291 42.7865 61.4322 43.4991 62.5738 43.4991C62.8244 43.4991 63.4001 43.4444 63.9474 43.0374C64.5319 42.603 64.8853 42.0192 64.8853 41.5282C64.8853 41.372 64.8569 41.206 64.8286 41.1504C64.8011 41.0762 64.81 41.0293 64.8658 41.0391C64.9216 41.0391 65.0332 41.0206 65.1448 41.0108C65.2926 41.002 65.7381 40.8536 65.9603 40.6691C66.1562 40.512 66.3872 40.2523 66.3872 39.9555C66.3872 39.7993 66.2942 39.6685 66.211 39.6324Z" fill="#585A5B"/>
</g>
<mask id="mask7_149_475" style="mask-type:luminance" maskUnits="userSpaceOnUse" x="-27" y="2" width="187" height="42">
<path d="M-14.806 2.5C-14.806 2.5 -26.5547 2.5 -26.5547 14.2143V31.7857C-26.5547 31.7857 -26.5547 43.5 -14.806 43.5H148C148 43.5 159.747 43.5 159.747 31.7857V14.2143C159.747 14.2143 159.747 2.5 148 2.5" fill="white"/>
</mask>
<g mask="url(#mask7_149_475)">
<path fill-rule="evenodd" clip-rule="evenodd" d="M73.2295 41.2357C73.1551 41.2904 73.0631 41.3089 72.9388 41.3089C72.8095 41.3089 72.6705 41.2962 72.5834 41.2493C72.556 41.2357 72.5423 41.2171 72.5423 41.181V39.9012C72.5423 39.8641 72.5511 39.8602 72.5697 39.8505C72.602 39.8368 72.6803 39.8319 72.7537 39.8319C72.9946 39.8319 73.4097 40.0028 73.4097 40.6558C73.4097 40.9643 73.3265 41.1625 73.2295 41.2357ZM75.0849 42.9235C75.0477 42.9196 75.0202 42.9196 74.9693 42.9098C74.8401 42.8913 74.7285 42.8132 74.4847 42.5418C74.2037 42.2197 73.8659 41.7277 73.5849 41.3226C73.9815 41.0795 74.2037 40.7847 74.2037 40.3981C74.2037 40.0486 74.005 39.8134 73.7837 39.6943C73.58 39.5801 73.2756 39.5381 72.8418 39.5381C72.6294 39.5381 72.1868 39.5518 72.0987 39.5518C72.0351 39.5518 71.5916 39.5381 71.3938 39.5381C71.3243 39.5381 71.292 39.5518 71.292 39.5801C71.292 39.6074 71.3194 39.625 71.3742 39.6298C71.4163 39.6347 71.4898 39.6347 71.5593 39.6484C71.6699 39.6718 71.7257 39.7314 71.7345 39.9198C71.7394 40.0672 71.7482 40.1589 71.7482 40.8725V41.6818C71.7482 42.1279 71.7433 42.4501 71.7257 42.6433C71.712 42.8005 71.6748 42.8835 71.5828 42.905C71.5319 42.9157 71.4721 42.9196 71.4251 42.9235C71.3742 42.9235 71.3419 42.9382 71.3419 42.9694C71.3419 43.0026 71.3664 43.0163 71.434 43.0163C71.5916 43.0163 72.039 43.0026 72.0938 43.0026C72.1262 43.0026 72.6294 43.0163 72.9378 43.0163C73.0034 43.0163 73.0347 43.0026 73.0347 42.9743C73.0347 42.9469 73.0259 42.9284 72.9515 42.9235C72.8604 42.9157 72.8095 42.9157 72.7449 42.8962C72.6059 42.864 72.5746 42.7634 72.5648 42.6433C72.5413 42.4501 72.5413 42.2333 72.5413 41.8712V41.6359C72.5413 41.6086 72.555 41.5988 72.5785 41.5988H72.883C72.9065 41.5988 72.929 41.6125 72.9378 41.6271C73.022 41.7511 73.1277 41.9395 73.3402 42.289C73.5203 42.5789 73.6672 42.7771 73.815 42.864C73.9766 42.9694 74.1792 43.0163 74.6551 43.0163H75.0702C75.1162 43.0163 75.1622 43.0104 75.1622 42.9694C75.1632 42.9421 75.1358 42.9235 75.0849 42.9235Z" fill="#585A5B"/>
</g>
<mask id="mask8_149_475" style="mask-type:luminance" maskUnits="userSpaceOnUse" x="-27" y="2" width="187" height="42">
<path d="M-14.806 2.5C-14.806 2.5 -26.5547 2.5 -26.5547 14.2143V31.7857C-26.5547 31.7857 -26.5547 43.5 -14.806 43.5H148C148 43.5 159.747 43.5 159.747 31.7857V14.2143C159.747 14.2143 159.747 2.5 148 2.5" fill="white"/>
</mask>
<g mask="url(#mask8_149_475)">
<path fill-rule="evenodd" clip-rule="evenodd" d="M80.0797 42.1884C80.0523 42.1884 80.0327 42.2167 80.0239 42.2714C79.9827 42.4832 79.9269 42.5838 79.7987 42.6346C79.6694 42.6853 79.4893 42.6892 79.3689 42.6892C78.8568 42.6892 78.7922 42.616 78.7873 42.2939C78.7834 42.1201 78.7873 41.8477 78.7873 41.6916V41.3743C78.7873 41.3372 78.7922 41.3138 78.8157 41.3138C78.9587 41.3138 79.3366 41.3235 79.4658 41.3323C79.692 41.347 79.7566 41.4251 79.7752 41.5578C79.7801 41.5949 79.784 41.6271 79.7889 41.6642C79.7977 41.7052 79.8075 41.7384 79.8398 41.7384C79.8672 41.7384 79.8809 41.7101 79.8809 41.6506C79.8809 41.5998 79.8809 41.3753 79.8858 41.2689C79.8995 41.0892 79.923 40.9233 79.923 40.8774C79.923 40.8501 79.923 40.8218 79.8956 40.8218C79.8721 40.8218 79.8594 40.8413 79.831 40.8813C79.7801 40.9643 79.7204 40.978 79.4942 40.9877C79.3278 40.9926 78.9547 40.9965 78.8245 40.9926C78.7922 40.9926 78.7873 40.9692 78.7873 40.937V39.9246C78.7873 39.8924 78.7971 39.8788 78.8245 39.8788C78.9635 39.8788 79.364 39.8885 79.5167 39.9022C79.738 39.9207 79.7987 39.9813 79.8212 40.0867C79.8398 40.1511 79.8447 40.197 79.8447 40.2478C79.8496 40.2888 79.8682 40.3122 79.8907 40.3122C79.9181 40.3122 79.9367 40.2839 79.9367 40.2478C79.9504 40.0076 79.9602 39.8475 79.9739 39.7548C79.9876 39.622 79.9965 39.5752 79.9965 39.5527C79.9965 39.5293 79.9925 39.5107 79.969 39.5107C79.9514 39.5107 79.9279 39.5205 79.8956 39.5303C79.8496 39.5391 79.738 39.5478 79.646 39.5478C79.5725 39.5478 78.4417 39.5537 78.3448 39.5537C78.1411 39.5537 77.9209 39.5391 77.6575 39.5391C77.5831 39.5391 77.5557 39.5537 77.5557 39.581C77.5557 39.6084 77.5782 39.6259 77.6389 39.6308C77.6849 39.6367 77.7495 39.6367 77.7916 39.6445C77.9062 39.6728 77.9483 39.7509 77.9571 39.8846C77.9659 40.032 77.9708 40.1238 77.9708 40.8735V41.6837C77.9708 41.9688 77.9659 42.2402 77.9571 42.4237C77.9483 42.7136 77.9297 42.8893 77.8004 42.9069C77.7632 42.9167 77.7172 42.9206 77.6614 42.9255C77.5919 42.9255 77.5694 42.9489 77.5694 42.9713C77.5694 43.0036 77.5968 43.0172 77.68 43.0172C77.9346 43.0172 78.1274 43.0036 78.3448 43.0036C78.8294 43.0036 79.175 43.0309 79.8124 43.0309C79.9827 43.0309 80.0151 43.026 80.0474 42.9069C80.0709 42.82 80.1208 42.4696 80.1208 42.29C80.1208 42.2343 80.1159 42.1884 80.0797 42.1884Z" fill="#585A5B"/>
</g>
<mask id="mask9_149_475" style="mask-type:luminance" maskUnits="userSpaceOnUse" x="-27" y="2" width="187" height="42">
<path d="M-14.806 2.5C-14.806 2.5 -26.5547 2.5 -26.5547 14.2143V31.7857C-26.5547 31.7857 -26.5547 43.5 -14.806 43.5H148C148 43.5 159.747 43.5 159.747 31.7857V14.2143C159.747 14.2143 159.747 2.5 148 2.5" fill="white"/>
</mask>
<g mask="url(#mask9_149_475)">
<path fill-rule="evenodd" clip-rule="evenodd" d="M84.2778 40.8725L84.0428 40.7163C83.7285 40.5045 83.6737 40.3249 83.6737 40.1687C83.6737 39.9568 83.8108 39.745 84.1897 39.745C84.5216 39.745 84.734 39.9022 84.8221 40.0496C84.8867 40.155 84.9004 40.2702 84.9053 40.3161C84.9142 40.3893 84.9328 40.403 84.9553 40.403C84.9925 40.403 85.0062 40.3717 85.0062 40.2888C85.0062 39.8788 85.016 39.787 85.0248 39.6396C85.0248 39.6025 85.0111 39.5888 84.9651 39.5752C84.8916 39.5517 84.8133 39.5342 84.7389 39.5195C84.546 39.4834 84.407 39.4746 84.2092 39.4746C83.47 39.4746 83.0324 39.9022 83.0324 40.4303C83.0324 40.8364 83.19 41.1576 83.753 41.5529L84.0389 41.7521C84.4305 42.0186 84.4677 42.1796 84.4677 42.3719C84.4677 42.5701 84.3336 42.7946 83.895 42.7946C83.5356 42.7946 83.19 42.5789 83.1107 42.2021C83.097 42.1464 83.0921 42.1054 83.0872 42.0586C83.0823 42.0225 83.0784 41.9815 83.0461 41.9815C83.0187 41.9815 83.0001 42.0088 82.9903 42.0918C82.9776 42.2197 82.9629 42.3954 82.9629 42.7683C82.9629 42.86 82.9864 42.9196 83.0647 42.9518C83.2449 43.0348 83.4886 43.0807 83.8352 43.0807C84.0751 43.0807 84.3708 43.0436 84.6381 42.8825C84.9846 42.6804 85.1266 42.3671 85.1266 42.0498C85.1266 41.5851 84.9239 41.3001 84.2778 40.8725Z" fill="#585A5B"/>
</g>
<mask id="mask10_149_475" style="mask-type:luminance" maskUnits="userSpaceOnUse" x="-27" y="2" width="187" height="42">
<path d="M-14.806 2.5C-14.806 2.5 -26.5547 2.5 -26.5547 14.2143V31.7857C-26.5547 31.7857 -26.5547 43.5 -14.806 43.5H148C148 43.5 159.747 43.5 159.747 31.7857V14.2143C159.747 14.2143 159.747 2.5 148 2.5" fill="white"/>
</mask>
<g mask="url(#mask10_149_475)">
<path fill-rule="evenodd" clip-rule="evenodd" d="M90.0453 42.7858C89.2523 42.7858 88.8881 41.9532 88.8881 41.0834C88.8881 39.9939 89.362 39.7587 89.7878 39.7587C90.6044 39.7587 90.9226 40.6285 90.9226 41.3918C90.9226 42.6609 90.3322 42.7858 90.0453 42.7858ZM89.9396 39.4736C88.5826 39.4736 87.9639 40.3708 87.9639 41.2913C87.9639 42.1045 88.5464 43.0807 89.9073 43.0807C91.1164 43.0807 91.8448 42.2607 91.8448 41.1888C91.8448 40.2556 91.1115 39.4736 89.9396 39.4736Z" fill="#585A5B"/>
</g>
<mask id="mask11_149_475" style="mask-type:luminance" maskUnits="userSpaceOnUse" x="-27" y="2" width="187" height="42">
<path d="M-14.806 2.5C-14.806 2.5 -26.5547 2.5 -26.5547 14.2143V31.7857C-26.5547 31.7857 -26.5547 43.5 -14.806 43.5H148C148 43.5 159.747 43.5 159.747 31.7857V14.2143C159.747 14.2143 159.747 2.5 148 2.5" fill="white"/>
</mask>
<g mask="url(#mask11_149_475)">
<path fill-rule="evenodd" clip-rule="evenodd" d="M96.7295 41.2357C96.6551 41.2904 96.5621 41.3089 96.4388 41.3089C96.3095 41.3089 96.1705 41.2962 96.0834 41.2493C96.056 41.2357 96.0423 41.2171 96.0423 41.181V39.9012C96.0423 39.8641 96.0511 39.8602 96.0697 39.8505C96.102 39.8368 96.1803 39.8319 96.2537 39.8319C96.4936 39.8319 96.9097 40.0028 96.9097 40.6558C96.9087 40.9643 96.8265 41.1625 96.7295 41.2357ZM98.5849 42.9235C98.5467 42.9196 98.5193 42.9196 98.4684 42.9098C98.3401 42.8913 98.2285 42.8132 97.9837 42.5418C97.7027 42.2197 97.3659 41.7277 97.084 41.3226C97.4815 41.0795 97.7027 40.7847 97.7027 40.3981C97.7027 40.0486 97.504 39.8134 97.2827 39.6943C97.08 39.5801 96.7746 39.5381 96.3418 39.5381C96.1284 39.5381 95.6859 39.5518 95.5987 39.5518C95.5341 39.5518 95.0916 39.5381 94.8928 39.5381C94.8233 39.5381 94.791 39.5518 94.791 39.5801C94.791 39.6074 94.8184 39.625 94.8742 39.6298C94.9154 39.6347 94.9888 39.6347 95.0583 39.6484C95.1699 39.6718 95.2247 39.7314 95.2335 39.9198C95.2384 40.0672 95.2473 40.1589 95.2473 40.8725V41.6818C95.2473 42.1279 95.2424 42.4501 95.2247 42.6433C95.211 42.8005 95.1738 42.8835 95.0808 42.905C95.0309 42.9157 94.9712 42.9196 94.9242 42.9235C94.8733 42.9235 94.8409 42.9382 94.8409 42.9694C94.8409 43.0026 94.8644 43.0163 94.933 43.0163C95.0906 43.0163 95.538 43.0026 95.5929 43.0026C95.6252 43.0026 96.1274 43.0163 96.4368 43.0163C96.5024 43.0163 96.5347 43.0026 96.5347 42.9743C96.5347 42.9469 96.5249 42.9284 96.4515 42.9235C96.3595 42.9157 96.3086 42.9157 96.243 42.8962C96.1049 42.864 96.0726 42.7634 96.0638 42.6433C96.0403 42.4501 96.0403 42.2333 96.0403 41.8712V41.6359C96.0403 41.6086 96.054 41.5988 96.0765 41.5988H96.383C96.4055 41.5988 96.428 41.6125 96.4368 41.6271C96.52 41.7511 96.6267 41.9395 96.8392 42.289C97.0184 42.5789 97.1662 42.7771 97.314 42.864C97.4756 42.9694 97.6783 43.0163 98.1541 43.0163H98.5692C98.6142 43.0163 98.6612 43.0104 98.6612 42.9694C98.6632 42.9421 98.6348 42.9235 98.5849 42.9235Z" fill="#585A5B"/>
</g>
<mask id="mask12_149_475" style="mask-type:luminance" maskUnits="userSpaceOnUse" x="-27" y="2" width="187" height="42">
<path d="M-14.806 2.5C-14.806 2.5 -26.5547 2.5 -26.5547 14.2143V31.7857C-26.5547 31.7857 -26.5547 43.5 -14.806 43.5H148C148 43.5 159.747 43.5 159.747 31.7857V14.2143C159.747 14.2143 159.747 2.5 148 2.5" fill="white"/>
</mask>
<g mask="url(#mask12_149_475)">
<path fill-rule="evenodd" clip-rule="evenodd" d="M103.77 39.5059C103.738 39.5059 103.701 39.5195 103.627 39.5342C103.563 39.542 103.479 39.5527 103.337 39.5527H101.33C101.154 39.5527 100.901 39.5381 100.817 39.5195C100.712 39.4961 100.693 39.4834 100.661 39.4834C100.633 39.4834 100.62 39.5283 100.609 39.5976C100.578 39.7724 100.527 40.0213 100.508 40.2107C100.503 40.2653 100.503 40.3014 100.545 40.3014C100.578 40.3014 100.591 40.2653 100.6 40.2282C100.609 40.1999 100.62 40.1716 100.642 40.1218C100.702 39.9608 100.804 39.9012 101.062 39.8875C101.292 39.8729 101.579 39.8788 101.759 39.8788V41.6818C101.759 42.1269 101.749 42.4598 101.731 42.6521C101.717 42.7859 101.685 42.8874 101.583 42.9049C101.533 42.9147 101.482 42.9186 101.436 42.9245C101.38 42.9245 101.343 42.9372 101.343 42.9694C101.343 43.0065 101.375 43.0153 101.45 43.0153C101.602 43.0153 102.05 43.0016 102.128 43.0016C102.203 43.0016 102.649 43.0153 102.964 43.0153C103.047 43.0153 103.07 43.0016 103.07 42.9743C103.07 42.942 103.052 42.9284 102.977 42.9235C102.894 42.9147 102.839 42.9098 102.779 42.9001C102.641 42.8766 102.609 42.78 102.599 42.6609C102.577 42.4676 102.577 42.04 102.577 41.6808V39.8778C102.927 39.8778 103.166 39.8866 103.319 39.9012C103.591 39.9188 103.661 40.0291 103.679 40.1716C103.683 40.196 103.683 40.2136 103.688 40.2644C103.693 40.319 103.702 40.3464 103.738 40.3464C103.766 40.3464 103.78 40.319 103.785 40.2546C103.79 40.1394 103.816 39.7128 103.816 39.6484C103.815 39.5342 103.811 39.5059 103.77 39.5059Z" fill="#585A5B"/>
</g>
<path fill-rule="evenodd" clip-rule="evenodd" d="M105.71 40.8725L105.474 40.7163C105.16 40.5045 105.104 40.3249 105.104 40.1687C105.104 39.9568 105.243 39.745 105.622 39.745C105.955 39.745 106.167 39.9022 106.256 40.0496C106.32 40.155 106.334 40.2702 106.338 40.3161C106.348 40.3893 106.367 40.403 106.39 40.403C106.427 40.403 106.44 40.3717 106.44 40.2888C106.44 39.8788 106.45 39.787 106.46 39.6396C106.46 39.6025 106.446 39.5888 106.399 39.5752C106.325 39.5517 106.247 39.5342 106.173 39.5195C105.979 39.4834 105.84 39.4746 105.641 39.4746C104.901 39.4746 104.462 39.9022 104.462 40.4303C104.462 40.8364 104.619 41.1576 105.183 41.5529L105.47 41.7521C105.863 42.0186 105.901 42.1796 105.901 42.3719C105.901 42.5701 105.766 42.7946 105.328 42.7946C104.967 42.7946 104.619 42.5789 104.541 42.2021C104.527 42.1464 104.522 42.1054 104.517 42.0586C104.512 42.0225 104.508 41.9815 104.476 41.9815C104.449 41.9815 104.43 42.0088 104.42 42.0918C104.406 42.2197 104.393 42.3954 104.393 42.7683C104.393 42.86 104.416 42.9196 104.496 42.9518C104.674 43.0348 104.919 43.0807 105.267 43.0807C105.507 43.0807 105.802 43.0436 106.071 42.8825C106.419 42.6804 106.562 42.3671 106.562 42.0498C106.561 41.5851 106.357 41.3001 105.71 40.8725Z" fill="#585A5B"/>
<mask id="mask13_149_475" style="mask-type:luminance" maskUnits="userSpaceOnUse" x="4" y="2" width="36" height="25">
<path d="M4.13086 2.50098H39.5232V26.5257H4.13086V2.50098Z" fill="white"/>
</mask>
<g mask="url(#mask13_149_475)">
<path fill-rule="evenodd" clip-rule="evenodd" d="M25.704 16.7621C28.306 13.2322 31.5967 9.38898 36.9468 8.30638C37.0047 8.64902 37.0626 9.019 37.0626 9.36067C37.0626 13.0321 33.1429 16.8754 27.5054 16.8754C26.9059 16.8754 26.3044 16.8471 25.704 16.7621ZM37.977 9.61643C37.977 9.13321 37.8926 8.64902 37.7768 8.19314C38.3214 8.10724 38.8639 8.05062 39.4653 8.02231L39.5232 7.45319C38.8639 7.50981 38.235 7.59571 37.6051 7.70993C36.5475 4.86238 32.9987 2.5 26.1327 2.5C12.6294 2.5 4.7892 9.5315 4.7892 13.859C4.7892 15.7664 6.3335 17.1321 9.56633 17.1321C17.178 17.1321 23.9576 12.9755 26.8195 6.17145L26.533 6.05821C24.4727 10.3007 13.9726 16.563 8.82361 16.563C6.41984 16.563 5.27584 15.4238 5.27584 13.8287C5.27584 9.84486 12.4852 2.86998 25.7884 2.86998C32.6269 2.86998 35.945 5.14743 36.8045 7.85245C25.0162 10.6131 20.5256 25.871 7.07818 25.871C5.64671 25.871 4.41735 25.7294 4.41735 25.7294L4.13086 26.0711C6.53365 26.3835 8.56558 26.526 10.3669 26.526C16.9199 26.526 20.0105 24.4194 23.7005 19.4945C24.2725 18.7545 24.8445 17.9014 25.4744 17.0462C26.3908 17.217 27.2777 17.2746 28.1352 17.2746C34.1437 17.2746 37.977 13.4021 37.977 9.61643Z" fill="#585A5B"/>
</g>
<mask id="mask14_149_475" style="mask-type:luminance" maskUnits="userSpaceOnUse" x="-27" y="2" width="187" height="42">
<path d="M-14.806 2.5C-14.806 2.5 -26.5547 2.5 -26.5547 14.2143V31.7857C-26.5547 31.7857 -26.5547 43.5 -14.806 43.5H148C148 43.5 159.747 43.5 159.747 31.7857V14.2143C159.747 14.2143 159.747 2.5 148 2.5" fill="white"/>
</mask>
<g mask="url(#mask14_149_475)">
<path fill-rule="evenodd" clip-rule="evenodd" d="M98.2434 26.2274C98.0427 26.2264 97.9301 26.1415 97.9311 25.9697C97.936 24.5767 104.471 18.1406 108.525 18.1572C108.745 18.1582 108.927 18.1611 109.085 18.1641L106.327 21.5436C106.272 21.6227 106.221 21.7018 106.169 21.7799C103.636 23.6161 99.7619 26.2333 98.2434 26.2274ZM51.701 17.9288C52.0446 17.9288 52.1866 18.0147 52.1866 18.1846C52.1866 18.9245 49.3033 20.9462 46.276 21.4021C48.1891 19.6078 50.5016 17.9288 51.701 17.9288ZM68.9784 17.9288C69.3201 17.9288 69.464 18.0147 69.464 18.1846C69.464 18.9245 66.5807 20.9462 63.5544 21.4021C65.4675 19.6078 67.7801 17.9288 68.9784 17.9288ZM97.6227 17.9288C97.9654 17.9288 98.1073 18.0147 98.1073 18.1846C98.1073 18.9245 95.224 20.9462 92.1978 21.4021C94.1118 19.6078 96.4234 17.9288 97.6227 17.9288ZM120.33 17.9366C118.883 18.1074 117.182 18.7976 115.307 20.1936L115.566 20.421C117.279 19.1285 118.785 18.4921 120.062 18.3408C122.642 18.0352 124.198 19.7718 124.478 22.1196C124.949 26.0761 121.862 31.7741 113.98 32.7064C109.698 33.213 105.717 31.162 105.32 27.8254C105.138 26.2996 106.206 23.6795 107.847 21.7652C111.711 17.266 117.411 11.0593 120.696 7.97556L120.591 7.81644C120.591 7.81644 119.048 8.14249 117.773 8.29282C115.898 10.665 113.182 13.452 110.366 16.5934L109.291 17.9112C109.093 17.9054 108.917 17.9034 108.784 17.9024C104.261 17.8839 101.041 19.6508 99.1256 21.5905C96.7269 23.1661 94.6131 24.6264 93.2542 25.3869C92.512 25.8154 91.2569 26.2128 90.3424 26.2128C89.6865 26.2128 89.2009 26.0126 89.2009 25.4162C89.2009 24.7036 90.4276 23.1378 91.9706 21.6295C95.7664 21.0594 98.3942 19.068 98.3942 18.1572C98.3942 17.8722 98.1651 17.7013 97.6227 17.7013C94.1921 17.7013 91.2882 19.6352 89.5739 21.6549C85.7741 24.1657 82.8732 26.2128 81.8325 26.2128C81.5466 26.2128 81.4046 26.0712 81.4046 25.7588C81.4046 24.0495 88.0554 21.1161 88.0554 18.3847C88.0554 17.5315 87.7979 16.6763 87.7979 15.8232C87.7979 15.708 87.8556 15.5664 88.0279 15.4805C88.4832 15.2804 89.3976 14.6839 89.3976 14.0572C89.3976 13.7156 89.1402 13.5447 88.7975 13.5447C88.1983 13.5447 87.3994 14.0855 87.3994 15.2531V15.7929C86.8413 16.4889 85.0996 18.2763 80.1436 21.5466L80.1426 21.5446C76.2606 24.1061 73.2912 26.2118 72.2357 26.2118C71.9508 26.2118 71.8069 26.0712 71.8069 25.7578C71.8069 24.0485 78.4586 21.1161 78.4586 18.3837C78.4586 17.5305 78.2011 16.6754 78.2011 15.8222C78.2011 15.707 78.2589 15.5664 78.4302 15.4795C78.8865 15.2804 79.8009 14.683 79.8009 14.0572C79.8009 13.7146 79.5434 13.5447 79.2008 13.5447C78.6016 13.5447 77.8017 14.0846 77.8017 15.2531V15.7929C77.2446 16.4889 75.5038 18.2753 70.5488 21.5456L70.5478 21.5436C68.1208 23.1378 65.9805 24.6186 64.6089 25.3859C63.8668 25.8145 62.6106 26.2118 61.6962 26.2118C61.0402 26.2118 60.5556 26.0117 60.5556 25.4152C60.5556 24.7026 61.7833 23.1378 63.3253 21.6286C67.1211 21.0594 69.7489 19.067 69.7489 18.1572C69.7489 17.8712 69.5198 17.7004 68.9774 17.7004C65.9179 17.7004 63.2783 19.2388 61.5268 21.0038C60.0416 22.0425 58.4682 23.8172 54.6989 24.1852C59.9916 17.6379 61.0755 10.2442 71.5054 6.22135C71.7492 6.1374 71.9939 6.05832 72.2397 5.99194C72.4237 5.94118 72.6107 5.90213 72.7958 5.87578C72.8868 5.86699 72.9798 5.85821 73.0689 5.86016C73.1277 5.85918 73.207 5.87382 73.251 5.88359C73.2491 5.89042 73.25 5.89335 73.2452 5.90116C73.2295 5.93532 73.203 5.9734 73.1747 6.01049C73.1159 6.08468 73.0474 6.1579 72.9749 6.22721C72.8291 6.3668 72.6724 6.49859 72.5118 6.62647C72.1936 6.88516 71.8627 7.13213 71.524 7.3674L71.5387 7.3918C71.8989 7.18778 72.2534 6.97399 72.598 6.74263C72.7693 6.62451 72.9377 6.50151 73.1012 6.3668C73.1825 6.29944 73.2608 6.22818 73.3362 6.14521C73.3734 6.10323 73.4106 6.05832 73.4419 6.0017C73.4684 5.95192 73.5193 5.85918 73.4576 5.74106L73.4478 5.72447L73.4351 5.71568C73.2853 5.62197 73.1962 5.63173 73.0826 5.61513C72.9759 5.60732 72.8731 5.61318 72.7693 5.61806C72.5667 5.63954 72.366 5.66882 72.1721 5.71763C71.8774 5.78499 71.5945 5.88163 71.3164 5.98706C62.8348 8.96151 59.8928 14.9368 54.1653 21.9488L52.6556 23.8123C52.4069 23.6083 52.1034 23.1583 52.0104 22.7961L53.572 21.6813C53.5269 21.2273 53.2273 21.1532 52.8856 21.1863C51.9879 21.2742 51.6227 21.9136 51.656 22.6135C49.9064 23.7781 48.3898 24.7943 47.3324 25.3859C46.5913 25.8145 45.3352 26.2118 44.4197 26.2118C43.7647 26.2118 43.2791 26.0117 43.2791 25.4152C43.2791 24.7026 44.5069 23.1378 46.0489 21.6286C49.8447 21.0594 52.4725 19.067 52.4725 18.1572C52.4725 17.8712 52.2434 17.7004 51.702 17.7004C48.9224 17.7004 46.4885 18.9694 44.7536 20.5245C40.9265 23.047 36.04 26.2118 35.0237 26.2118C34.7388 26.2118 34.5959 26.0702 34.5959 25.7578C34.5959 24.0485 41.2476 21.1151 41.2476 18.3837C41.2476 17.5305 40.9901 16.6754 40.9901 15.8222C40.9901 15.707 41.0469 15.5654 41.2202 15.4795C41.6754 15.2804 42.5899 14.683 42.5899 14.0572C42.5899 13.7146 42.3324 13.5447 41.9897 13.5447C41.3905 13.5447 40.5916 14.0846 40.5916 15.2531V15.7929C40.0199 16.5045 38.2213 18.3544 32.9961 21.7711L33.1968 21.9409C38.0794 18.7537 39.9915 16.8179 40.619 16.0779C40.6768 16.6188 40.7904 17.102 40.7904 17.3011C40.7904 18.6112 33.7108 22.5403 33.7108 25.301C33.7108 26.1835 34.0525 26.5534 34.6527 26.5534C35.9558 26.5534 40.2558 23.7889 43.8558 21.4197C42.677 22.7326 41.9946 24.112 41.9946 25.0452C41.9946 26.1268 42.8797 26.5534 43.9919 26.5534C45.0777 26.5534 46.42 26.1552 47.447 25.6143C48.6434 24.9749 50.0797 23.9851 51.6951 22.8957C51.7823 23.3428 52.0143 23.7801 52.3971 24.0944C48.4133 28.8328 43.8636 33.2569 36.7439 34.0486C36.6627 34.0545 36.5804 34.0603 36.4962 34.0643C36.2329 34.076 35.9587 34.1053 35.6836 34.1092C35.4075 34.1189 35.1265 34.1297 34.8504 34.114C34.7094 34.115 34.5763 34.0916 34.4412 34.0789C34.3139 34.0603 34.2023 34.0398 34.0868 33.9754C33.8479 33.8485 33.7686 33.7177 33.9223 33.5215C34.0642 33.336 34.2796 33.1867 34.4803 33.0617C34.685 32.9358 34.8876 32.8264 35.0776 32.7308C35.8422 32.354 36.3846 32.1685 36.3846 32.1685L36.3729 32.1324C36.3729 32.1324 35.8177 32.272 35.013 32.5883C34.8132 32.6703 34.5969 32.763 34.3766 32.8821C34.1563 33.0031 33.9233 33.1339 33.7216 33.3624C33.6266 33.4717 33.5238 33.6591 33.5894 33.8641C33.6579 34.0584 33.8058 34.158 33.935 34.2409C34.0603 34.3268 34.2277 34.3757 34.3805 34.4059C34.5273 34.4284 34.6762 34.4616 34.822 34.4684C35.1158 34.5006 35.4065 34.5045 35.6924 34.5016C35.9812 34.5123 36.2573 34.4664 36.5285 34.4498C36.6725 34.442 36.8125 34.4225 36.9486 34.401C37.0886 34.3903 37.2286 34.3835 37.3686 34.3698C43.051 33.8153 48.1186 30.7755 52.5244 26.571C53.2303 25.873 53.8539 25.2102 54.4443 24.4956C57.5381 24.194 59.2182 23.3096 60.2844 22.4983C59.6343 23.4511 59.272 24.3668 59.272 25.0452C59.272 26.1268 60.1571 26.5534 61.2693 26.5534C62.3551 26.5534 63.6974 26.1542 64.7244 25.6143C66.2635 24.7914 68.202 23.3886 70.4069 21.94L70.4088 21.9409C75.2914 18.7527 77.2035 16.8179 77.832 16.0779C77.8888 16.6178 78.0024 17.102 78.0024 17.3011C78.0024 18.6102 70.9228 22.5393 70.9228 25.301C70.9228 26.1835 71.2645 26.5534 71.8647 26.5534C73.3156 26.5534 76.3233 24.3765 80.0036 21.94L80.0046 21.9409C84.8881 18.7527 86.8002 16.8179 87.4278 16.0779C87.4855 16.6178 87.5991 17.102 87.5991 17.3011C87.5991 18.6102 80.5196 22.5393 80.5196 25.301C80.5196 26.1835 80.8603 26.5534 81.4614 26.5534C82.8419 26.5534 85.6342 24.5796 89.0746 22.2885C88.3315 23.3164 87.9153 24.317 87.9153 25.0452C87.9153 26.1268 88.8004 26.5534 89.9136 26.5534C90.9994 26.5534 92.3407 26.1542 93.3677 25.6143C94.7688 24.8656 96.4968 23.6385 98.4569 22.3314C97.5023 23.5107 97.0216 24.6782 97.0186 25.4816C97.0157 26.1366 97.328 26.5359 97.9282 26.5378C99.574 26.5447 103.303 24.193 105.778 22.432C104.844 24.153 104.606 25.9355 104.785 27.4301C105.236 31.2177 108.867 33.7118 114.339 33.0637C123.043 32.0338 126.265 26.4929 125.777 22.3949C125.45 19.6537 123.448 17.5676 120.33 17.9366Z" fill="#585A5B"/>
</g>
<mask id="mask15_149_475" style="mask-type:luminance" maskUnits="userSpaceOnUse" x="-27" y="2" width="187" height="42">
<path d="M-14.806 2.5C-14.806 2.5 -26.5547 2.5 -26.5547 14.2143V31.7857C-26.5547 31.7857 -26.5547 43.5 -14.806 43.5H148C148 43.5 159.747 43.5 159.747 31.7857V14.2143C159.747 14.2143 159.747 2.5 148 2.5" fill="white"/>
</mask>
<g mask="url(#mask15_149_475)">
<path fill-rule="evenodd" clip-rule="evenodd" d="M123.76 9.71998C123.556 9.71998 123.352 9.65067 123.263 9.46714C123.227 9.39784 123.219 9.31584 123.215 9.23872L123.028 9.33634C123.062 9.51693 123.146 9.66141 123.297 9.76195C123.4 9.82834 123.551 9.88105 123.76 9.88105C124.266 9.88105 124.497 9.56964 124.497 9.29436C124.497 8.92145 124.147 8.80724 124.042 8.77405C123.98 8.7516 123.699 8.67936 123.642 8.66276C123.531 8.6286 123.31 8.55929 123.31 8.32012C123.31 8.0585 123.562 7.96967 123.773 7.96967C123.944 7.96967 124.103 8.03117 124.201 8.16686C124.245 8.22543 124.268 8.29279 124.284 8.34257L124.458 8.24788C124.413 8.13953 124.284 7.81738 123.779 7.81738C123.473 7.81738 123.129 7.94234 123.129 8.32891C123.129 8.69303 123.444 8.7965 123.723 8.86874C123.983 8.93512 124.097 8.96343 124.187 9.0386C124.239 9.0796 124.307 9.16062 124.307 9.30314C124.307 9.51107 124.14 9.71998 123.76 9.71998Z" fill="#585A5B"/>
</g>
<mask id="mask16_149_475" style="mask-type:luminance" maskUnits="userSpaceOnUse" x="-27" y="2" width="187" height="42">
<path d="M-14.806 2.5C-14.806 2.5 -26.5547 2.5 -26.5547 14.2143V31.7857C-26.5547 31.7857 -26.5547 43.5 -14.806 43.5H148C148 43.5 159.747 43.5 159.747 31.7857V14.2143C159.747 14.2143 159.747 2.5 148 2.5H-14.806Z" fill="white"/>
</mask>
<g mask="url(#mask16_149_475)">
<path fill-rule="evenodd" clip-rule="evenodd" d="M126.524 7.86621L125.888 9.53354L125.221 7.86621H125.001V9.83128H125.182L125.161 8.16395L125.816 9.83128H125.944L126.589 8.16395L126.574 9.83128H126.756V7.86621H126.524Z" fill="#585A5B"/>
</g>
</g>
<defs>
<filter id="filter0_d_149_475" x="0.130859" y="0.500977" width="130.626" height="48.998" filterUnits="userSpaceOnUse" color-interpolation-filters="sRGB">
<feFlood flood-opacity="0" result="BackgroundImageFix"/>
<feColorMatrix in="SourceAlpha" type="matrix" values="0 0 0 0 0 0 0 0 0 0 0 0 0 0 0 0 0 0 127 0" result="hardAlpha"/>
<feOffset dy="2"/>
<feGaussianBlur stdDeviation="2"/>
<feColorMatrix type="matrix" values="0 0 0 0 0 0 0 0 0 0 0 0 0 0 0 0 0 0 0.0567909 0"/>
<feBlend mode="normal" in2="BackgroundImageFix" result="effect1_dropShadow_149_475"/>
<feBlend mode="normal" in="SourceGraphic" in2="effect1_dropShadow_149_475" result="shape"/>
</filter>
</defs>
</svg>
