<svg width="95" height="73" viewBox="0 0 95 73" fill="none" xmlns="http://www.w3.org/2000/svg">
<path fill-rule="evenodd" clip-rule="evenodd" d="M0.964844 72.5743H94.8161V0.805664H0.964844V72.5743ZM1.33542 72.2068H94.447V1.17169H1.33542V72.2068Z" fill="#58595B"/>
<path fill-rule="evenodd" clip-rule="evenodd" d="M9.46029 59.9827C9.51831 59.5816 9.62853 59.2243 9.79097 58.9094C9.95341 58.5958 10.1811 58.3459 10.4712 58.158C10.7627 57.9716 11.1412 57.8784 11.6083 57.8784C12.0738 57.8784 12.4523 57.9716 12.7439 58.158C13.0339 58.3459 13.2602 58.5958 13.4241 58.9094C13.5865 59.2243 13.6967 59.5816 13.7548 59.9827C13.8113 60.3838 13.8403 60.799 13.8403 61.2283C13.8403 61.789 13.8026 62.2762 13.7258 62.6942C13.6489 63.1108 13.5213 63.4597 13.3429 63.7393C13.163 64.0203 12.931 64.2279 12.6467 64.3635C12.3639 64.5019 12.0158 64.5697 11.6083 64.5697C11.192 64.5697 10.8425 64.5019 10.5626 64.3635C10.2812 64.2279 10.052 64.0203 9.87219 63.7393C9.6938 63.4597 9.56617 63.1108 9.4893 62.6942C9.41243 62.2762 9.37472 61.789 9.37472 61.2283C9.37472 60.799 9.40228 60.3838 9.46029 59.9827ZM8.52047 62.5304C8.68726 62.9513 8.91931 63.3213 9.21663 63.6418C9.51395 63.9624 9.86639 64.2195 10.2754 64.4115C10.6844 64.605 11.1282 64.701 11.6083 64.701C12.0738 64.701 12.5104 64.6008 12.915 64.4016C13.3211 64.2025 13.675 63.9413 13.9752 63.6178C14.2754 63.2944 14.5104 62.9244 14.6844 62.5064C14.8556 62.0912 14.9426 61.6647 14.9426 61.2283C14.9426 60.7312 14.8483 60.2708 14.6598 59.8485C14.4712 59.4248 14.2203 59.0576 13.907 58.7455C13.5938 58.4363 13.2384 58.1905 12.8396 58.0126C12.4393 57.836 12.0288 57.7471 11.6083 57.7471C11.2109 57.7471 10.8149 57.836 10.419 58.0126C10.023 58.1905 9.66624 58.4363 9.35007 58.7455C9.03389 59.0576 8.77428 59.4248 8.57413 59.8485C8.37253 60.2708 8.27246 60.7312 8.27246 61.2283C8.27246 61.6774 8.35513 62.111 8.52047 62.5304ZM16.2653 64.5598H19.3516V64.4299H18.2871V61.2015H19.0645C19.2936 61.2015 19.4807 61.241 19.6243 61.3173C19.7679 61.3964 19.8839 61.4995 19.9695 61.6308C20.0565 61.7607 20.1232 61.9104 20.1711 62.0785C20.2189 62.2465 20.2653 62.4202 20.3103 62.601H20.4147V59.6988H20.3103C20.2407 59.9784 20.1682 60.2058 20.0942 60.3838C20.0217 60.5631 19.9303 60.7015 19.8259 60.8046C19.72 60.9063 19.5938 60.9769 19.4474 61.0136C19.3009 61.0518 19.1225 61.0701 18.9107 61.0701H18.2871V58.0479H19.8781C20.1406 58.0479 20.364 58.0775 20.5496 58.1397C20.7353 58.2018 20.8933 58.2979 21.0282 58.4235C21.1617 58.5521 21.2777 58.7074 21.3734 58.891C21.4691 59.0746 21.5591 59.2878 21.6417 59.5293H21.7476V57.9165H16.2653V58.0479H17.3284V64.4299H16.2653V64.5598ZM26.673 64.5598H29.7593V64.4299H28.6962V58.0479H29.2517C29.3793 58.0479 29.5229 58.0578 29.6839 58.0804C29.842 58.1001 30.0044 58.1623 30.1668 58.2611C30.3307 58.3614 30.4859 58.5182 30.6368 58.7328C30.7876 58.9475 30.9167 59.2441 31.0254 59.624H31.1299V57.9165H25.3024V59.624H25.4083C25.517 59.2441 25.6461 58.9475 25.797 58.7328C25.9463 58.5182 26.1044 58.3614 26.2669 58.2611C26.4293 58.1623 26.5903 58.1001 26.7498 58.0804C26.9094 58.0578 27.0544 58.0479 27.182 58.0479H27.7375V64.4299H26.673V64.5598ZM32.1654 64.5598H35.2517V64.4299H34.1872V61.2283H37.3794V64.4299H36.3148V64.5598H39.4012V64.4299H38.3381V58.0479H39.4012V57.9165H36.3148V58.0479H37.3794V61.0984H34.1872V58.0479H35.2517V57.9165H32.1654V58.0479H33.23V64.4299H32.1654V64.5598ZM40.3599 64.5598H46.2062V62.5177H46.1003C46.0815 62.6603 46.0365 62.8411 45.9654 63.0586C45.8958 63.2761 45.787 63.4865 45.6406 63.6885C45.4941 63.8904 45.3041 64.0641 45.0706 64.211C44.8371 64.3579 44.5441 64.4299 44.1931 64.4299H42.3816V61.0616H43.159C43.3882 61.0616 43.5753 61.0998 43.7188 61.1775C43.8624 61.2565 43.9785 61.3596 44.064 61.4896C44.1496 61.6209 44.2178 61.7706 44.2656 61.9373C44.3135 62.1067 44.3599 62.2804 44.4049 62.4612H44.5093V59.559H44.4049C44.3338 59.8386 44.2613 60.066 44.1873 60.2439C44.1148 60.4219 44.0249 60.5631 43.9204 60.6648C43.8146 60.7665 43.6898 60.8371 43.5419 60.8738C43.394 60.9119 43.2156 60.9303 43.0053 60.9303H42.3816V58.0479H43.9727C44.2352 58.0479 44.4585 58.0775 44.6442 58.1397C44.8284 58.2018 44.9893 58.2979 45.1228 58.4235C45.2577 58.5521 45.3722 58.7074 45.4694 58.891C45.5637 59.0746 45.6536 59.2878 45.7363 59.5293H45.8422V57.9165H40.3599V58.0479H41.423V64.4299H40.3599V64.5598ZM49.2925 58.0479H50.1555L52.5978 64.701H52.8575L54.5254 60.2214H54.5442L56.1932 64.701H56.4326L58.9155 58.0479H59.777V57.9165H57.7263V58.0479H58.7517L56.7386 63.4597H56.7197L54.7458 58.0479H55.7901V57.9165H52.9155V58.0479H53.7204L54.4485 60.0152L53.1736 63.4597H53.1548L51.1809 58.0479H52.1772V57.9165H49.2925V58.0479ZM61.7321 59.9827C61.7901 59.5816 61.9004 59.2243 62.0642 58.9094C62.2267 58.5958 62.4515 58.3459 62.7444 58.158C63.0345 57.9716 63.4131 57.8784 63.8801 57.8784C64.3456 57.8784 64.7242 57.9716 65.0157 58.158C65.3058 58.3459 65.532 58.5958 65.6959 58.9094C65.8583 59.2243 65.97 59.5816 66.0251 59.9827C66.0831 60.3838 66.1136 60.799 66.1136 61.2283C66.1136 61.789 66.0744 62.2762 65.9976 62.6942C65.9207 63.1108 65.7931 63.4597 65.6147 63.7393C65.4348 64.0203 65.2028 64.2279 64.9185 64.3635C64.6342 64.5019 64.2876 64.5697 63.8801 64.5697C63.4638 64.5697 63.1157 64.5019 62.8358 64.3635C62.553 64.2279 62.3239 64.0203 62.144 63.7393C61.9656 63.4597 61.838 63.1108 61.7611 62.6942C61.6842 62.2762 61.6465 61.789 61.6465 61.2283C61.6465 60.799 61.6755 60.3838 61.7321 59.9827ZM60.7937 62.5304C60.9591 62.9513 61.1897 63.3213 61.4885 63.6418C61.7858 63.9624 62.1397 64.2195 62.5472 64.4115C62.9562 64.605 63.4015 64.701 63.8801 64.701C64.3456 64.701 64.7822 64.6008 65.1868 64.4016C65.5929 64.2025 65.9468 63.9413 66.247 63.6178C66.5472 63.2944 66.7837 62.9244 66.9562 62.5064C67.1288 62.0912 67.2159 61.6647 67.2159 61.2283C67.2159 60.7312 67.1201 60.2708 66.9316 59.8485C66.743 59.4248 66.4921 59.0576 66.1789 58.7455C65.867 58.4363 65.5103 58.1905 65.11 58.0126C64.7111 57.836 64.3021 57.7471 63.8801 57.7471C63.4827 57.7471 63.0882 57.836 62.6908 58.0126C62.2948 58.1905 61.9395 58.4363 61.6233 58.7455C61.3057 59.0576 61.0461 59.4248 60.846 59.8485C60.6444 60.2708 60.5443 60.7312 60.5443 61.2283C60.5443 61.6774 60.6269 62.111 60.7937 62.5304ZM70.5589 58.0479C70.6416 58.0338 70.7431 58.0267 70.8606 58.0239C70.9795 58.0196 71.097 58.0182 71.2101 58.0182C71.3769 58.0182 71.5451 58.0338 71.7148 58.0648C71.8831 58.0959 72.0368 58.1623 72.1746 58.2611C72.3124 58.3614 72.4226 58.5083 72.5111 58.7046C72.5966 58.9009 72.6387 59.1607 72.6387 59.4841C72.6387 59.7694 72.6111 60.0067 72.5531 60.1931C72.4951 60.3795 72.4139 60.5278 72.3095 60.6351C72.2036 60.7453 72.076 60.8216 71.9295 60.8653C71.783 60.9077 71.6191 60.9303 71.4422 60.9303H70.5589V58.0479ZM68.5371 64.5598H71.6235V64.4299H70.5589V61.0616H71.519C71.6264 61.0616 71.754 61.0687 71.9019 61.0842C72.0484 61.0998 72.1905 61.1492 72.3269 61.2283C72.4661 61.3102 72.585 61.4373 72.6866 61.6124C72.7895 61.7861 72.8533 62.0276 72.878 62.3397L72.9447 63.1885C72.965 63.4244 72.9984 63.632 73.0462 63.8099C73.0941 63.9864 73.1695 64.1361 73.2725 64.2562C73.374 64.3791 73.5103 64.4694 73.68 64.533C73.8483 64.5937 74.0615 64.6262 74.3167 64.6262C74.4516 64.6262 74.5633 64.6177 74.6561 64.6022C74.7489 64.5867 74.8273 64.5669 74.8925 64.5415C74.9563 64.5175 75.0071 64.4892 75.0506 64.4624C75.0912 64.4341 75.1275 64.4087 75.1608 64.3833L75.0738 64.2802C75.0042 64.348 74.923 64.3988 74.8345 64.4299C74.7446 64.461 74.6576 64.4765 74.5749 64.4765C74.3907 64.4765 74.2558 64.4115 74.1732 64.2802C74.089 64.1489 74.0296 64.0048 73.9919 63.8424C73.9643 63.7365 73.9469 63.6065 73.9382 63.4498C73.928 63.2944 73.9193 63.132 73.9092 62.9654C73.9005 62.7959 73.8874 62.6335 73.87 62.4739C73.8541 62.3157 73.828 62.1745 73.7903 62.0502C73.725 61.8384 73.6162 61.6661 73.4639 61.5319C73.3102 61.3992 73.142 61.2918 72.9607 61.2099C72.7794 61.1294 72.5995 61.0715 72.4226 61.0376C72.2486 61.0037 72.1093 60.9797 72.0063 60.967V60.9501C72.3776 60.9049 72.6749 60.8202 72.8983 60.6916C73.1217 60.5645 73.2928 60.4247 73.4103 60.2722C73.5292 60.1197 73.6046 59.9714 73.6409 59.8245C73.6757 59.6776 73.6945 59.559 73.6945 59.4644C73.6945 59.278 73.6467 59.0802 73.5539 58.8684C73.461 58.6552 73.3029 58.4673 73.0796 58.2979C72.8301 58.1058 72.5633 57.99 72.2747 57.949C71.9875 57.9081 71.6554 57.8869 71.2783 57.8869C71.2014 57.8869 71.1245 57.8883 71.0477 57.8925C70.9708 57.8954 70.8954 57.8968 70.8185 57.8968C70.7416 57.9038 70.6648 57.9081 70.5879 57.9109C70.5125 57.9151 70.4356 57.9165 70.3587 57.9165H68.5371V58.0479H69.6002V64.4299H68.5371V64.5598ZM75.841 64.5598H81.6961V62.5177H81.5917C81.4437 63.108 81.2102 63.5755 80.8911 63.9158C80.5721 64.259 80.1312 64.4299 79.5684 64.4299H77.8614V58.0479H78.9259V57.9165H75.841V58.0479H76.9042V64.4299H75.841V64.5598ZM84.8114 58.0479C84.9318 58.0408 85.0594 58.0338 85.19 58.0281C85.3205 58.0225 85.4655 58.0182 85.6265 58.0182C86.1631 58.0182 86.6127 58.0959 86.9768 58.2512C87.3423 58.4066 87.6338 58.6269 87.8542 58.9094C88.0747 59.1932 88.2328 59.535 88.3285 59.9361C88.4242 60.3372 88.4721 60.7848 88.4721 61.2763C88.4721 61.6915 88.4315 62.0771 88.3532 62.4287C88.2719 62.779 88.1298 63.1236 87.9253 63.4597C87.7919 63.6772 87.641 63.8537 87.4714 63.9864C87.3017 64.1206 87.1189 64.2223 86.9246 64.2943C86.7288 64.3663 86.5257 64.4129 86.3111 64.4341C86.0964 64.4567 85.8803 64.468 85.6642 64.468C85.4916 64.468 85.3335 64.4652 85.19 64.4581C85.0449 64.4511 84.9187 64.4426 84.8114 64.4299V58.0479ZM82.7882 64.5598H84.4184C84.5141 64.5598 84.6142 64.5612 84.72 64.5655C84.8245 64.5683 84.9318 64.5725 85.042 64.5796C85.1508 64.5852 85.2581 64.5909 85.3669 64.5937C85.4757 64.5951 85.5772 64.598 85.6729 64.598C85.8977 64.598 86.095 64.5937 86.269 64.5895C86.4402 64.5824 86.5982 64.5697 86.7418 64.5513C86.8869 64.533 87.0261 64.5047 87.1639 64.468C87.3017 64.4299 87.4467 64.3776 87.6004 64.3099C87.8745 64.1969 88.1327 64.0486 88.372 63.865C88.6113 63.6814 88.8202 63.4639 89 63.2125C89.1784 62.9597 89.3191 62.6702 89.4221 62.3454C89.5236 62.0177 89.5743 61.6492 89.5743 61.2382C89.5743 60.8837 89.5308 60.5448 89.4453 60.2214C89.3597 59.8979 89.2248 59.6 89.0421 59.3246C88.8608 59.052 88.6273 58.8105 88.3416 58.6015C88.0587 58.3939 87.7208 58.2258 87.3321 58.1015C87.1987 58.0592 87.0711 58.0239 86.9536 57.9942C86.8361 57.9674 86.7099 57.9448 86.5794 57.9292C86.4489 57.9151 86.3082 57.9038 86.1588 57.8968C86.008 57.8911 85.8368 57.8869 85.6454 57.8869C85.5555 57.8869 85.4655 57.8883 85.3756 57.8925C85.2871 57.8954 85.1972 57.8968 85.1087 57.8968C85.0188 57.9038 84.9289 57.9081 84.8404 57.9109C84.7491 57.9151 84.6606 57.9165 84.5707 57.9165H82.7882V58.0479H83.8527V64.4299H82.7882V64.5598Z" fill="#58595B"/>
<path fill-rule="evenodd" clip-rule="evenodd" d="M8.39746 19.1451H8.67303C8.72234 19.0264 8.78035 18.9304 8.84852 18.8584C8.91523 18.7863 9.04141 18.751 9.22561 18.751C9.43446 18.751 9.67956 18.799 9.96238 18.8937C10.2452 18.9897 10.5092 19.073 10.7543 19.1451C10.9617 19.2044 11.1531 19.2496 11.3243 19.2792C11.4968 19.3089 11.668 19.3357 11.8406 19.3597C12.0117 19.3851 12.1959 19.3993 12.3917 19.4049C12.589 19.412 12.8167 19.4134 13.0734 19.4134C13.7985 19.4134 14.4483 19.2976 15.0255 19.0646C15.6028 18.8315 16.093 18.5208 16.4976 18.1325C16.9037 17.7441 17.2126 17.2964 17.4273 16.788C17.6419 16.2796 17.7507 15.7457 17.7507 15.1837C17.7507 14.5736 17.6303 14.0722 17.391 13.6768C17.1517 13.2828 16.8631 12.9664 16.5252 12.7263C16.1887 12.4876 15.8421 12.3083 15.4867 12.1882C15.13 12.0696 14.8355 11.9736 14.602 11.9016L12.3743 11.2208C12.0552 11.1262 11.7391 11.0147 11.4272 10.889C11.114 10.7633 10.8297 10.6093 10.5788 10.4229C10.3279 10.2379 10.1219 10.0105 9.96238 9.74221C9.80139 9.47247 9.72307 9.14765 9.72307 8.76351C9.72307 8.28617 9.8246 7.89215 10.0262 7.58145C10.2292 7.27075 10.4831 7.01937 10.7905 6.82871C11.098 6.63806 11.4301 6.50248 11.7855 6.42481C12.1408 6.34713 12.4657 6.309 12.7615 6.309C13.288 6.309 13.7521 6.4008 14.151 6.5858C14.5498 6.77222 14.8906 7.01654 15.1735 7.32159C15.4548 7.62664 15.6854 7.97829 15.8624 8.37938C16.0408 8.78046 16.1669 9.19566 16.2409 9.62499H16.4614V6.38103H16.2032C16.1046 6.54767 16.0292 6.65218 15.9741 6.69314C15.9175 6.73692 15.8102 6.75669 15.6506 6.75669C15.478 6.75669 15.3112 6.71997 15.1459 6.64936C14.9791 6.57733 14.792 6.49683 14.5832 6.40786C14.3743 6.31747 14.1263 6.23697 13.8377 6.16495C13.5491 6.09434 13.1908 6.05762 12.7615 6.05762C12.1713 6.05762 11.6288 6.15365 11.1314 6.34431C10.6339 6.53637 10.2075 6.79905 9.85216 7.13376C9.49537 7.46847 9.21981 7.86531 9.02401 8.32571C8.82676 8.78611 8.72814 9.28464 8.72814 9.82271C8.72814 10.6475 8.9834 11.3042 9.49247 11.7942C10.0015 12.2857 10.7543 12.6797 11.7478 12.9777L13.8653 13.6062C14.1234 13.6768 14.3961 13.7785 14.6847 13.9098C14.9733 14.0425 15.2402 14.2134 15.4867 14.421C15.7318 14.6315 15.9349 14.8843 16.093 15.1837C16.2525 15.4816 16.3323 15.8404 16.3323 16.2584C16.3323 16.5451 16.283 16.8586 16.1858 17.2004C16.0872 17.5407 15.916 17.8571 15.6695 18.1508C15.4229 18.4432 15.0922 18.6861 14.6745 18.8767C14.2583 19.0674 13.7246 19.1634 13.0734 19.1634C12.8399 19.1634 12.5919 19.1578 12.3279 19.1451C12.0639 19.1338 11.7884 19.0914 11.4997 19.0194C11.2111 18.9487 10.9254 18.8344 10.6426 18.679C10.3612 18.5237 10.0915 18.3019 9.8333 18.0152C9.57514 17.7286 9.34018 17.3642 9.12408 16.9221C8.90943 16.4801 8.73539 15.935 8.59906 15.291H8.39746V19.1451ZM23.8262 19.1451H28.1903V18.8937H26.1453V6.86402H26.183L30.5645 19.1634L34.9663 6.73833H35.0026V18.8937H32.9576V19.1451H38.8866V18.8937H36.843V6.631H38.8866V6.38103H34.8184L31.4115 16.0254H31.3752L27.9698 6.38103H23.8262V6.631H25.8697V18.8937H23.8262V19.1451ZM51.4059 13.6598H47.3551L49.3827 8.44152L51.4059 13.6598ZM43.3986 19.1451H47.3551V18.8937H45.313L47.2464 13.9098H51.5162L53.4509 18.8937H51.4059V19.1451H57.0782V18.8937H55.4393L50.4313 6.05762H49.9904L45.0186 18.8937H43.3986V19.1451ZM61.6628 19.1451H72.9131V15.219H72.71C72.4272 16.3544 71.9776 17.2512 71.3656 17.9079C70.7506 18.566 69.9051 18.8937 68.8246 18.8937H65.5468V6.631H67.5903V6.38103H61.6628V6.631H63.7063V18.8937H61.6628V19.1451ZM78.3243 19.1451H89.5746V15.219H89.3716C89.0888 16.3544 88.6421 17.2512 88.0271 17.9079C87.4136 18.566 86.5666 18.8937 85.4876 18.8937H82.2098V6.631H84.2533V6.38103H78.3243V6.631H80.3693V18.8937H78.3243V19.1451Z" fill="#58595B"/>
<path fill-rule="evenodd" clip-rule="evenodd" d="M66.738 22.6586C66.8961 22.6346 67.0904 22.6204 67.3167 22.6134C67.5444 22.6077 67.7692 22.6049 67.9897 22.6049C68.3087 22.6049 68.6307 22.6346 68.9556 22.6939C69.2819 22.7546 69.5763 22.8803 69.8403 23.0709C70.1028 23.2616 70.3189 23.5455 70.4842 23.9225C70.6496 24.2996 70.7323 24.7981 70.7323 25.4195C70.7323 25.9689 70.6771 26.4222 70.5669 26.7824C70.4567 27.1411 70.3001 27.4249 70.0985 27.634C69.8954 27.843 69.6517 27.9884 69.3704 28.0718C69.089 28.1565 68.7757 28.1975 68.432 28.1975H66.738V22.6586ZM62.8525 35.1726H68.7815V34.9212H66.738V28.4488H68.5785C68.7873 28.4488 69.0324 28.4658 69.3153 28.494C69.5981 28.5251 69.8707 28.6169 70.1347 28.7722C70.3987 28.9276 70.6293 29.1719 70.8251 29.508C71.0209 29.8413 71.1442 30.3088 71.1935 30.9062L71.3225 32.5373C71.3588 32.9921 71.4226 33.3889 71.514 33.7293C71.6068 34.0696 71.7518 34.3577 71.9476 34.5894C72.1434 34.8224 72.4045 35.0003 72.7308 35.119C73.0557 35.2376 73.4633 35.2969 73.9549 35.2969C74.2131 35.2969 74.4306 35.2828 74.609 35.2531C74.786 35.2235 74.9368 35.1839 75.0601 35.1373C75.1819 35.0893 75.2834 35.0385 75.3632 34.9848C75.443 34.9311 75.514 34.8789 75.575 34.8323L75.4096 34.6345C75.2747 34.7659 75.121 34.8619 74.9499 34.9212C74.7773 34.982 74.6105 35.0116 74.4524 35.0116C74.0956 35.0116 73.8374 34.8859 73.6779 34.6345C73.5184 34.3846 73.4023 34.1021 73.3284 33.7914C73.2791 33.5895 73.2471 33.3381 73.2283 33.0387C73.2094 32.7407 73.1906 32.43 73.1732 32.1066C73.1543 31.7832 73.1297 31.4711 73.0992 31.166C73.0673 30.861 73.0151 30.5884 72.9426 30.3497C72.8193 29.9444 72.6104 29.6125 72.3146 29.3541C72.0216 29.0985 71.6996 28.8923 71.3501 28.7355C70.9991 28.5816 70.6568 28.47 70.3189 28.4036C69.981 28.3387 69.7141 28.2935 69.5169 28.2695V28.2342C70.229 28.1509 70.8004 27.9856 71.2312 27.7413C71.659 27.497 71.9882 27.2272 72.2145 26.9349C72.4422 26.6411 72.5901 26.3545 72.6569 26.0748C72.7236 25.7938 72.7584 25.5636 72.7584 25.3828C72.7584 25.0241 72.6685 24.6428 72.4915 24.2361C72.3131 23.8307 72.0086 23.465 71.5807 23.143C71.1006 22.773 70.5858 22.5484 70.0332 22.4707C69.4806 22.3931 68.8425 22.3535 68.1187 22.3535C67.9723 22.3535 67.8243 22.3563 67.6764 22.3634C67.5284 22.3691 67.382 22.3719 67.234 22.3719C67.0875 22.3832 66.9396 22.3931 66.7931 22.3987C66.6452 22.4044 66.4972 22.4086 66.3508 22.4086H62.8525V22.6586H64.8961V34.9212H62.8525V35.1726Z" fill="#58595B"/>
<path fill-rule="evenodd" clip-rule="evenodd" d="M8.39746 35.1722H19.6463V31.2461H19.4433C19.1619 32.3816 18.7138 33.2784 18.1003 33.9351C17.4868 34.5932 16.6398 34.9208 15.5593 34.9208H12.2815V22.6582H14.325V22.4082H8.39746V22.6582H10.4395V34.9208H8.39746V35.1722Z" fill="#58595B"/>
<path fill-rule="evenodd" clip-rule="evenodd" d="M20.6113 22.6582H22.6549V31.1388C22.6549 32.5963 23.045 33.6781 23.8238 34.3842C24.6027 35.0889 25.7296 35.4406 27.2031 35.4406C28.172 35.4406 28.9508 35.3092 29.5411 35.0465C30.1299 34.7839 30.5897 34.4364 30.9218 34.0071C31.2656 33.5651 31.4933 33.1372 31.6035 32.7248C31.7137 32.3124 31.7688 31.8548 31.7688 31.3535V22.6582H33.8124V22.4082H29.4483V22.6582H31.4933V30.9948C31.4933 31.4255 31.4744 31.787 31.4381 32.0794C31.4004 32.3731 31.3482 32.6231 31.2801 32.8321C31.2133 33.0411 31.1336 33.2247 31.0407 33.3787C30.9494 33.534 30.842 33.6908 30.7188 33.8447C30.3388 34.3475 29.8834 34.6977 29.3569 34.894C28.829 35.0917 28.2213 35.1906 27.5338 35.1906C27.0422 35.1906 26.607 35.1242 26.2271 34.9929C25.8456 34.8615 25.5265 34.644 25.2684 34.339C25.0117 34.0339 24.8188 33.6329 24.6882 33.1372C24.5606 32.6415 24.4953 32.0342 24.4953 31.3182V22.6582H26.5389V22.4082H20.6113V22.6582Z" fill="#58595B"/>
<path fill-rule="evenodd" clip-rule="evenodd" d="M34.7773 35.1722H38.6251V34.9208H36.8586L40.3742 29.1842L43.9653 34.9208H42.1973V35.1722H47.7217V34.9208H46.193L41.6085 27.6237L44.6832 22.6582H46.4512V22.4082H42.6208V22.6582H44.3873L41.4431 27.3737L38.496 22.6582H40.2654V22.4082H34.7773V22.6582H36.306L40.2277 28.9329L36.5453 34.9208H34.7773V35.1722Z" fill="#58595B"/>
<path fill-rule="evenodd" clip-rule="evenodd" d="M48.6875 22.6582H50.731V31.1388C50.731 32.5963 51.1197 33.6781 51.9 34.3842C52.6788 35.0889 53.8058 35.4406 55.2779 35.4406C56.2481 35.4406 57.0284 35.3092 57.6173 35.0465C58.2061 34.7839 58.6659 34.4364 58.9965 34.0071C59.3403 33.5651 59.568 33.1372 59.6782 32.7248C59.7899 32.3124 59.845 31.8548 59.845 31.3535V22.6582H61.8885V22.4082H57.5259V22.6582H59.568V30.9948C59.568 31.4255 59.5506 31.787 59.5129 32.0794C59.4766 32.3731 59.4244 32.6231 59.3577 32.8321C59.2895 33.0411 59.2097 33.2247 59.1184 33.3787C59.0255 33.534 58.9182 33.6908 58.7949 33.8447C58.415 34.3475 57.961 34.6977 57.4331 34.894C56.9051 35.0917 56.2974 35.1906 55.61 35.1906C55.1183 35.1906 54.6832 35.1242 54.3018 34.9929C53.9218 34.8615 53.6027 34.644 53.346 34.339C53.0878 34.0339 52.8935 33.6329 52.7644 33.1372C52.6353 32.6415 52.5715 32.0342 52.5715 31.3182V22.6582H54.6151V22.4082H48.6875V22.6582Z" fill="#58595B"/>
<path fill-rule="evenodd" clip-rule="evenodd" d="M80.3138 35.1722H86.2414V34.9208H84.1993V29.2026L87.7889 22.6582H89.5743V22.4082H85.6337V22.6582H87.4945L84.0151 28.9696L80.3327 22.6582H82.1732V22.4082H76.54V22.6582H78.2137L82.3574 29.776V34.9208H80.3138V35.1722Z" fill="#58595B"/>
<path fill-rule="evenodd" clip-rule="evenodd" d="M66.5137 51.1941H77.7625V47.2681H77.5609C77.2767 48.4021 76.83 49.2989 76.215 49.957C75.603 50.6151 74.7545 50.9428 73.6755 50.9428H70.3977V38.6801H72.4412V38.4287H66.5137V38.6801H68.5572V50.9428H66.5137V51.1941Z" fill="#58595B"/>
<path fill-rule="evenodd" clip-rule="evenodd" d="M80.2217 51.1933H80.4972C80.5451 51.0747 80.6046 50.9773 80.6713 50.9066C80.7395 50.8346 80.8656 50.7979 81.0498 50.7979C81.2587 50.7979 81.5038 50.8459 81.7851 50.942C82.068 51.038 82.3334 51.1213 82.5785 51.1933C82.7859 51.2527 82.9773 51.2978 83.1485 51.3275C83.3211 51.3572 83.4922 51.384 83.6633 51.408C83.8359 51.4334 84.0187 51.4475 84.2159 51.4532C84.4117 51.4588 84.6394 51.4617 84.8976 51.4617C85.6213 51.4617 86.2725 51.3459 86.8483 51.1128C87.4255 50.8798 87.9172 50.5691 88.3218 50.1807C88.7279 49.7924 89.0369 49.3447 89.2515 48.8349C89.4662 48.3279 89.5749 47.7926 89.5749 47.2305C89.5749 46.6218 89.4546 46.1191 89.2153 45.7251C88.9759 45.3296 88.6873 45.0147 88.3494 44.7746C88.0129 44.5359 87.6663 44.3566 87.3095 44.2365C86.9527 44.1179 86.6583 44.0219 86.4248 43.9498L84.1985 43.2691C83.878 43.1731 83.5618 43.0629 83.25 42.9373C82.9367 42.8116 82.6539 42.6562 82.403 42.4712C82.1506 42.2862 81.9461 42.0588 81.7851 41.7891C81.6256 41.5208 81.5458 41.1959 81.5458 40.8118C81.5458 40.3345 81.6474 39.9404 81.8504 39.6297C82.0535 39.319 82.3073 39.0677 82.6133 38.877C82.9222 38.6849 83.2514 38.5508 83.6082 38.4731C83.965 38.3954 84.2899 38.3559 84.5843 38.3559C85.1122 38.3559 85.5763 38.4491 85.9752 38.6341C86.3726 38.8191 86.7134 39.0648 86.9962 39.3699C87.279 39.6735 87.5082 40.0266 87.6866 40.4277C87.865 40.8273 87.9912 41.244 88.0637 41.6733H88.2856V38.4279H88.0274C87.9288 38.596 87.8534 38.7005 87.7968 38.7414C87.7417 38.7838 87.6344 38.805 87.4748 38.805C87.3037 38.805 87.1355 38.7683 86.9672 38.6976C86.8033 38.6256 86.6162 38.5451 86.4074 38.4547C86.1985 38.3658 85.9491 38.2853 85.6619 38.2132C85.3733 38.1412 85.0151 38.1045 84.5843 38.1045C83.9955 38.1045 83.453 38.2019 82.9556 38.3926C82.4581 38.5847 82.0317 38.8459 81.6764 39.182C81.3196 39.5153 81.044 39.9136 80.8468 40.374C80.651 40.833 80.5524 41.3329 80.5524 41.8696C80.5524 42.6958 80.8062 43.3525 81.3167 43.8425C81.8258 44.3326 82.5785 44.728 83.572 45.026L85.6895 45.653C85.9462 45.7251 86.2203 45.8267 86.5089 45.9581C86.7961 46.0894 87.063 46.2603 87.3095 46.4693C87.5561 46.6783 87.7577 46.9325 87.9172 47.2305C88.0767 47.5299 88.1565 47.8886 88.1565 48.3067C88.1565 48.5934 88.1086 48.9069 88.01 49.2472C87.91 49.589 87.7388 49.9054 87.4937 50.1991C87.2486 50.49 86.915 50.7344 86.4988 50.925C86.0811 51.1143 85.5473 51.2117 84.8976 51.2117C84.6641 51.2117 84.4161 51.2046 84.1521 51.1933C83.8881 51.182 83.6111 51.1397 83.324 51.0676C83.0353 50.9956 82.7496 50.8826 82.4668 50.7259C82.184 50.5719 81.9157 50.3502 81.6575 50.0635C81.3994 49.7754 81.163 49.4125 80.9483 48.9704C80.7337 48.527 80.5582 47.9833 80.4233 47.3379H80.2217V51.1933Z" fill="#58595B"/>
<path fill-rule="evenodd" clip-rule="evenodd" d="M8.39746 51.1941H14.325V50.9428H12.2815V44.7938H18.4135V50.9428H16.37V51.1941H22.2975V50.9428H20.254V38.6801H22.2975V38.4287H16.37V38.6801H18.4135V44.5424H12.2815V38.6801H14.325V38.4287H8.39746V38.6801H10.441V50.9428H8.39746V51.1941Z" fill="#58595B"/>
<path fill-rule="evenodd" clip-rule="evenodd" d="M34.3733 47.6086C34.2254 48.4093 33.9802 49.0773 33.6365 49.6154C33.2928 50.1535 32.8475 50.5546 32.3022 50.8172C31.7554 51.0799 31.0897 51.2127 30.3051 51.2127C29.5059 51.2127 28.8373 51.0799 28.2978 50.8172C27.7568 50.5546 27.3145 50.1535 26.9722 49.6154C26.6285 49.0773 26.3819 48.4093 26.2354 47.6086C26.0875 46.8078 26.0135 45.8687 26.0135 44.7939C26.0135 43.9692 26.0701 43.1713 26.1803 42.4002C26.2905 41.6291 26.5023 40.9413 26.8156 40.3383C27.1274 39.7352 27.5639 39.2536 28.1223 38.8949C28.6807 38.5362 29.4073 38.3568 30.3051 38.3568C31.1999 38.3568 31.9266 38.5362 32.4864 38.8949C33.0433 39.2536 33.4799 39.7352 33.7932 40.3383C34.1064 40.9413 34.3182 41.6291 34.4284 42.4002C34.5386 43.1713 34.5937 43.9692 34.5937 44.7939C34.5937 45.8687 34.5198 46.8078 34.3733 47.6086ZM36.1688 42.1403C35.8062 41.3282 35.3247 40.6221 34.7228 40.0247C34.1209 39.4273 33.4378 38.9571 32.6706 38.6167C31.9034 38.2764 31.1144 38.1055 30.3051 38.1055C29.5436 38.1055 28.7822 38.2764 28.0208 38.6167C27.2594 38.9571 26.5762 39.4273 25.9686 40.0247C25.3609 40.6221 24.8634 41.3282 24.4761 42.1403C24.0904 42.9524 23.8975 43.8378 23.8975 44.7939C23.8975 45.654 24.057 46.4872 24.3761 47.2936C24.6951 48.1 25.139 48.8118 25.7104 49.4276C26.2818 50.0433 26.9591 50.5376 27.7452 50.9076C28.5299 51.2776 29.3827 51.4626 30.3051 51.4626C31.1999 51.4626 32.0368 51.2706 32.8171 50.8893C33.5959 50.5065 34.2747 50.0038 34.8519 49.3824C35.4277 48.761 35.8831 48.0506 36.2138 47.2499C36.5459 46.4491 36.7112 45.63 36.7112 44.7939C36.7112 43.8378 36.53 42.9524 36.1688 42.1403Z" fill="#58595B"/>
<path fill-rule="evenodd" clip-rule="evenodd" d="M41.8028 51.1941H47.7318V50.9428H45.6868V38.6801H46.7557C47.0008 38.6801 47.2764 38.7013 47.5838 38.7422C47.8899 38.7846 48.2002 38.9018 48.5135 39.0925C48.8268 39.2831 49.1285 39.5854 49.4171 39.9977C49.7042 40.4101 49.9537 40.9807 50.1625 41.7094H50.3641V38.4287H39.1689V41.7094H39.372C39.5808 40.9807 39.8289 40.4101 40.1175 39.9977C40.4061 39.5854 40.7078 39.2831 41.021 39.0925C41.3329 38.9018 41.6432 38.7846 41.9493 38.7422C42.2567 38.7013 42.5337 38.6801 42.7789 38.6801H43.8463V50.9428H41.8028V51.1941Z" fill="#58595B"/>
<path fill-rule="evenodd" clip-rule="evenodd" d="M52.8242 51.1941H64.0542V47.2681H63.8512C63.8149 47.542 63.7293 47.8895 63.5945 48.3075C63.4596 48.7255 63.2507 49.1294 62.9679 49.5178C62.6866 49.9062 62.3211 50.2409 61.8729 50.5219C61.4262 50.803 60.862 50.9428 60.1891 50.9428H56.7082V44.4704H58.2006C58.6415 44.4704 59.0012 44.5452 59.2768 44.6949C59.5524 44.8446 59.7743 45.0452 59.9396 45.2951C60.1064 45.5465 60.234 45.8332 60.3268 46.1566C60.4197 46.4786 60.5081 46.8133 60.5937 47.1607H60.7968V41.5837H60.5937C60.4574 42.1218 60.3196 42.561 60.1789 42.9028C60.0368 43.2431 59.8656 43.5114 59.664 43.7092C59.461 43.9055 59.2188 44.041 58.936 44.1131C58.6546 44.1837 58.3109 44.219 57.9062 44.219H56.7082V38.6801H59.7641C60.2674 38.6801 60.6967 38.7394 61.0535 38.8595C61.4088 38.9795 61.7163 39.1617 61.9744 39.406C62.2326 39.6517 62.453 39.9497 62.6358 40.3028C62.82 40.6558 62.9926 41.064 63.1521 41.53H63.3552V38.4287H52.8242V38.6801H54.8678V50.9428H52.8242V51.1941Z" fill="#58595B"/>
<path fill-rule="evenodd" clip-rule="evenodd" d="M89.8914 57.9226C89.8537 57.9226 89.8189 57.9268 89.7898 57.9338C89.7594 57.9409 89.7318 57.955 89.7086 57.9734C89.6854 57.9918 89.6637 58.0172 89.6463 58.0511C89.6274 58.0835 89.61 58.1259 89.5955 58.1768H89.5752V57.9014H90.544V58.1768H90.5237C90.5092 58.1259 90.4918 58.0835 90.473 58.0511C90.4541 58.0172 90.4323 57.9918 90.4091 57.9734C90.3859 57.955 90.3598 57.9409 90.3294 57.9338C90.2989 57.9268 90.2656 57.9226 90.2279 57.9226H90.1713V58.9521H90.3134V58.9733H89.8044V58.9521H89.9465V57.9226H89.8914Z" fill="#58595B"/>
<path fill-rule="evenodd" clip-rule="evenodd" d="M91.0546 57.9014L91.3229 58.6513H91.3258L91.5971 57.9014H91.9843V57.9226H91.8422V58.9521H91.9843V58.9733H91.4767V58.9521H91.6174V57.9226H91.6145L91.2345 58.9733H91.2098L90.8269 57.9226H90.824V58.9521H90.9661V58.9733H90.6572V58.9521H90.7994V57.9226H90.6572V57.9014H91.0546Z" fill="#58595B"/>
</svg>
