<svg width="128" height="66" viewBox="0 0 128 66" fill="none" xmlns="http://www.w3.org/2000/svg">
<g clip-path="url(#clip0_1_3833)">
<g filter="url(#filter0_d_1_3833)">
<mask id="mask0_1_3833" style="mask-type:luminance" maskUnits="userSpaceOnUse" x="3" y="45" width="122" height="15">
<path d="M3.67773 45.459H124.302V59.5001H3.67773V45.459Z" fill="white"/>
</mask>
<g mask="url(#mask0_1_3833)">
<path fill-rule="evenodd" clip-rule="evenodd" d="M72.4936 55.9994H71.8714C71.8714 55.9994 71.9823 56.0836 71.8237 56.484L71.0607 58.4374L69.9727 55.974H69.8618L68.7981 58.4986C68.7981 58.4986 68.1294 56.7148 68.0295 56.4644C67.8965 56.1263 68.0162 55.9994 68.0162 55.9994H67.1467C67.2499 56.0974 67.2842 56.1701 67.4096 56.4817L68.5974 59.4471H68.7638L69.7908 57.0678L70.9021 59.4471H71.0141L72.2175 56.4874C72.3428 56.1898 72.4027 56.0917 72.4936 55.9994ZM82.3479 57.414C82.1571 57.4463 81.8987 57.4451 81.5538 57.4451C81.5538 57.4451 81.1224 57.4451 81.1068 57.444L81.109 56.3617C81.1146 56.3594 81.434 56.3651 81.5693 56.3651C81.79 56.3651 82.1316 56.3651 82.3468 56.4078C82.5864 56.4551 82.857 56.5867 82.857 56.8694C82.857 57.174 82.725 57.3274 82.3479 57.414ZM83.6333 59.079C83.3062 58.6174 83.0433 58.1686 82.8692 57.9482C82.7782 57.8328 82.6862 57.7128 82.6019 57.7128C82.796 57.7128 83.5047 57.5894 83.5047 56.8544C83.5047 56.0017 82.5509 56.0051 81.464 56.0051L80.3504 56.004C80.4347 56.1251 80.4813 56.2498 80.4813 56.5532L80.4802 58.8748C80.4802 59.184 80.4103 59.3017 80.3371 59.424H81.2421C81.1579 59.3028 81.1124 59.1794 81.1124 58.8748V57.7913C81.2943 57.7913 81.698 57.7913 81.8444 57.8363C82.105 57.9171 82.2703 58.1259 82.5719 58.6244C82.8437 59.0744 83.0921 59.4148 83.0921 59.4148C83.2285 59.4286 83.9594 59.4182 83.9594 59.4182C83.9594 59.4182 83.7875 59.2867 83.6333 59.079ZM40.0006 58.8898L39.9995 57.7717C40.3688 57.7671 41.6543 57.7648 41.8561 57.8778V57.2871C41.7064 57.4221 40.4642 57.4024 39.9995 57.3944L39.9984 56.394C39.9984 56.394 41.6509 56.3559 42.0202 56.4471C42.1267 56.4736 42.2021 56.5267 42.2021 56.5267C42.2033 56.5174 42.2021 56.0051 42.2021 56.0051H39.3019C39.3695 56.1251 39.4061 56.2498 39.4061 56.5532L39.405 58.8748C39.405 59.184 39.3607 59.2924 39.2985 59.4251H40.1137C40.0317 59.2948 40.0006 59.1898 40.0006 58.8898ZM56.0691 56.5509C56.0691 56.2417 56.1212 56.124 56.1833 56.0017H55.3726C55.4403 56.1217 55.4757 56.2463 55.4757 56.5509V57.4001H53.4062L53.4073 56.5509C53.4073 56.2417 53.4583 56.124 53.5204 56.0017H52.7108C52.7773 56.1217 52.8139 56.2463 52.8139 56.5509L52.8128 58.8736C52.8128 59.1817 52.7574 59.2994 52.7008 59.4205H53.5093C53.4417 59.3005 53.4062 59.1771 53.4062 58.8736V57.7809H55.4757L55.4746 58.8736C55.4746 59.1817 55.4203 59.2994 55.3626 59.4205H56.1711C56.1035 59.3005 56.068 59.1771 56.068 58.8736L56.0691 56.5509ZM60.4999 59.0328C60.3158 59.0305 59.5528 59.0259 59.5272 59.0178L59.5261 57.7624C59.8955 57.7555 61.1421 57.7544 61.3428 57.8674V57.2848C61.1942 57.4186 59.9909 57.3978 59.5261 57.3921L59.525 56.3755C59.525 56.3755 61.2208 56.3363 61.5891 56.4286C61.6955 56.4563 61.7709 56.5094 61.7709 56.5094C61.772 56.499 61.7709 56.0017 61.7709 56.0017H58.8285C58.8962 56.1217 58.9328 56.2463 58.9328 56.5509L58.9317 58.8724C58.9317 59.1805 58.8884 59.289 58.8252 59.4205H61.8242L61.9318 58.8771C61.6977 59.0605 61.0589 59.0386 60.4999 59.0328ZM49.2393 56.3721H49.9502C50.2275 56.3721 50.4427 56.3905 50.5347 56.5059V56.0063H47.3605V56.5059C47.4526 56.3905 47.691 56.3721 47.9439 56.3721H48.6471V58.8736C48.6471 59.1817 48.5894 59.2994 48.5328 59.4205C48.5417 59.4182 49.3425 59.4205 49.3425 59.4205C49.2759 59.3005 49.2393 59.1771 49.2393 58.8736V56.3721ZM88.9492 58.8932C88.7174 59.0767 88.0808 59.0548 87.5229 59.0501C87.3521 59.049 86.9373 59.0421 86.9373 59.0421L86.9451 56.5613C86.9451 56.2532 86.9972 56.1355 87.0593 56.0144H86.2508C86.3185 56.1355 86.3539 56.2578 86.3539 56.5624L86.3528 58.8748C86.3528 59.184 86.2985 59.3005 86.2408 59.4228H88.8427L88.9492 58.8932ZM33.4159 57.6667C33.4159 58.1271 33.5512 58.4917 33.8995 58.8032C34.0736 58.959 34.3875 59.1067 34.8444 59.1067C35.2947 59.1067 35.5742 59.0086 35.8049 58.8009C36.1277 58.5078 36.2851 58.0924 36.2851 57.669C36.2851 57.1982 36.1343 56.8048 35.7772 56.5486C35.5398 56.379 35.2614 56.2809 34.8533 56.2809C34.3997 56.2809 34.118 56.3951 33.9261 56.5382C33.6189 56.7678 33.4159 57.1636 33.4159 57.6667ZM34.8367 55.9174C35.5165 55.9174 36.1343 56.1424 36.4992 56.5359C36.7532 56.8105 36.9096 57.2144 36.9096 57.6724C36.9096 58.0024 36.7543 58.4663 36.5025 58.7617C36.0644 59.2786 35.5243 59.4863 34.8478 59.4863C34.159 59.4863 33.5446 59.2324 33.1697 58.7651C32.9257 58.4605 32.7738 58.0555 32.7815 57.6609C32.7904 57.2132 32.9545 56.8451 33.2418 56.5417C33.6477 56.1136 34.2023 55.9174 34.8367 55.9174ZM74.6397 57.6805C74.6397 58.1421 74.7761 58.5067 75.1233 58.8182C75.2974 58.9751 75.6124 59.1217 76.0693 59.1217C76.5196 59.1217 76.798 59.0236 77.0287 58.8148C77.3514 58.5228 77.5089 58.1074 77.5089 57.684C77.5089 57.2121 77.3581 56.8198 77.001 56.5636C76.7647 56.3951 76.4852 56.2948 76.0771 56.2948C75.6235 56.2948 75.3429 56.4101 75.151 56.5521C74.8427 56.7828 74.6397 57.1774 74.6397 57.6805ZM76.0616 55.9313C76.7403 55.9313 77.3581 56.1563 77.723 56.5498C77.9781 56.8255 78.1334 57.2282 78.1334 57.6874C78.1334 58.0186 77.9781 58.4813 77.7274 58.7755C77.2893 59.2924 76.7481 59.5001 76.0727 59.5001C75.3839 59.5001 74.7684 59.2474 74.3935 58.7801C74.1506 58.4755 73.9987 58.0705 74.0053 57.6759C74.0142 57.2282 74.1795 56.8601 74.4667 56.5567C74.8726 56.1274 75.4261 55.9313 76.0616 55.9313ZM92.6347 59.0386H91.6121V56.3813H92.6303C93.5453 56.3813 93.9534 56.8405 93.9534 57.6886C93.9534 58.4628 93.5664 59.0386 92.6347 59.0386ZM92.6403 56.0132H90.8801C90.9467 56.1344 90.9822 56.2544 90.9822 56.559V58.8782C90.9822 59.1851 90.9267 59.304 90.8702 59.4251H92.6403C93.6595 59.4251 94.579 58.8667 94.579 57.6805C94.579 56.2659 93.4932 56.0132 92.6403 56.0132ZM53.669 50.5624H51.9766V46.1663H53.6602C55.1774 46.1663 55.8506 46.9255 55.8506 48.3286C55.8506 49.6105 55.2107 50.5624 53.669 50.5624ZM53.6768 45.5571H50.7643C50.8763 45.7578 50.9362 45.9563 50.9362 46.4594L50.9351 50.2982C50.9351 50.8071 50.8431 51.0032 50.7477 51.204H53.6768C55.3637 51.204 56.8865 50.2786 56.8865 48.3171C56.8865 45.9748 55.0898 45.5571 53.6768 45.5571ZM68.4188 46.4536C68.4188 45.9505 68.482 45.7463 68.5863 45.5455H67.648C67.7356 45.7474 67.8166 45.9436 67.8166 46.4536V49.9024L64.2886 45.5409L62.9932 45.5398C63.0885 45.7405 63.1706 45.9378 63.1706 46.4501V50.2867C63.1706 50.7898 63.1163 50.9951 63.0109 51.1948H63.9425C63.8538 50.994 63.7662 50.7978 63.7662 50.2867V46.5413L67.5049 51.2121H68.4188V46.4536ZM34.6248 50.3144C34.2378 50.6178 33.183 50.5809 32.258 50.574C31.9752 50.5717 31.2865 50.5601 31.2865 50.5601L31.2998 46.4467C31.2998 45.9355 31.3874 45.7405 31.4894 45.5398H30.1496C30.2606 45.7394 30.3204 45.9436 30.3204 46.4478L30.3193 50.2844C30.3193 50.7955 30.2273 50.9905 30.133 51.1924L34.4474 51.1913L34.6248 50.3144ZM118.14 50.3144C117.753 50.6178 116.699 50.5809 115.774 50.574C115.491 50.5717 114.802 50.5601 114.802 50.5601L114.815 46.4467C114.815 45.9355 114.902 45.7405 115.005 45.5398H113.664C113.776 45.7394 113.836 45.9436 113.836 46.4478L113.835 50.2844C113.835 50.7955 113.742 50.9905 113.648 51.1924L117.963 51.1913L118.14 50.3144ZM60.226 46.4594C60.226 45.9482 60.3125 45.7532 60.4156 45.5513H59.0747C59.1868 45.7521 59.2467 45.9563 59.2467 46.4594L59.2455 50.2982C59.2455 50.8082 59.1524 51.0032 59.0592 51.204H60.3957C60.2848 51.0044 60.2238 50.8001 60.2238 50.2959L60.226 46.4594ZM121.962 45.4924C120.677 45.4624 119.568 45.8363 119.46 46.9094C119.431 47.1886 119.5 47.4978 119.691 47.7378C120.388 48.6136 122.235 48.6724 122.968 49.2586C123.18 49.4271 123.292 49.6705 123.268 49.8978C123.2 50.5371 122.422 50.7055 121.457 50.6824C120.146 50.6501 119.526 50.1413 119.327 49.9555C119.327 49.9901 119.358 50.8648 119.358 50.8648C119.755 51.024 120.516 51.264 121.456 51.2824C122.908 51.3171 124.189 50.9236 124.298 49.7051C124.32 49.4524 124.269 49.0451 124.061 48.7901C123.615 48.2444 122.763 48.0448 121.949 47.7655C121.177 47.5013 120.49 47.3698 120.503 46.7986C120.513 46.3048 121.27 46.1005 121.944 46.1144C122.483 46.1236 123.095 46.209 123.511 46.4074C123.713 46.4998 123.884 46.5551 124.062 46.7467L124.063 45.879C123.513 45.6655 122.627 45.5086 121.962 45.4924ZM91.8927 48.3286C91.8927 49.0832 92.1168 49.6821 92.6869 50.1921C92.973 50.4494 93.4887 50.6905 94.2374 50.6905C94.9771 50.6905 95.4341 50.5301 95.8123 50.1886C96.3424 49.7086 96.5986 49.0267 96.5986 48.3332C96.5986 47.559 96.3524 46.9151 95.7657 46.4951C95.3775 46.2182 94.9206 46.0555 94.2507 46.0555C93.5076 46.0555 93.0462 46.2424 92.7312 46.4778C92.2266 46.8551 91.8927 47.5036 91.8927 48.3286ZM94.2252 45.459C95.3387 45.459 96.3524 45.8282 96.9502 46.4744C97.3672 46.9244 97.6234 47.5855 97.6234 48.339C97.6234 48.8801 97.3683 49.6405 96.9557 50.124C96.2382 50.9709 95.352 51.3124 94.2429 51.3124C93.1139 51.3124 92.1046 50.8971 91.4901 50.1309C91.0898 49.6313 90.8413 48.9655 90.8535 48.3205C90.8679 47.5855 91.1374 46.9821 91.6088 46.4836C92.2754 45.7809 93.1826 45.459 94.2252 45.459ZM88.449 46.4536C88.449 45.9424 88.5355 45.7474 88.6376 45.5455H87.2978C87.4087 45.7451 87.4697 45.9505 87.4697 46.4536L87.4686 47.8567H84.0481V46.4536C84.0481 45.9424 84.1347 45.7474 84.2378 45.5455H82.8969C83.0078 45.7451 83.0677 45.9505 83.0677 46.4536V50.2913C83.0677 50.8024 82.9745 50.9974 82.8803 51.1982H84.2178C84.1069 50.9974 84.047 50.7944 84.047 50.2913V48.4855H87.4686L87.4675 50.2913C87.4675 50.8024 87.3754 50.9974 87.2822 51.1982H88.6187C88.5067 50.9974 88.4468 50.7944 88.4468 50.2913L88.449 46.4536ZM16.3736 46.4536C16.3736 45.9424 16.4601 45.7474 16.5633 45.5455H15.2224C15.3344 45.7451 15.3932 45.9505 15.3932 46.4536V47.8567H11.9728V46.4536C11.9728 45.9424 12.0593 45.7474 12.1635 45.5455H10.8226C10.9335 45.7451 10.9934 45.9505 10.9934 46.4536L10.9923 50.2913C10.9923 50.8024 10.9003 50.9974 10.806 51.1982H12.1436C12.0326 50.9974 11.9728 50.7944 11.9728 50.2913V48.4855H15.3932V50.2913C15.3932 50.8024 15.3 50.9974 15.2058 51.1982H16.5433C16.4324 50.9974 16.3725 50.7944 16.3725 50.2913L16.3736 46.4536ZM108.902 50.5578C108.598 50.5544 107.337 50.5428 107.295 50.5313L107.294 48.4544C107.904 48.4463 109.964 48.4417 110.296 48.6298V47.6686C110.049 47.8855 108.06 47.8555 107.292 47.8428L107.291 46.1628C107.291 46.1628 110.093 46.1005 110.703 46.2528C110.878 46.2955 111.007 46.3855 111.007 46.3855C111.009 46.3694 111.015 45.5467 111.015 45.5467L106.14 45.5455C106.252 45.7451 106.312 45.9505 106.312 46.4536L106.311 50.2913C106.311 50.8013 106.237 50.979 106.133 51.1982L111.092 51.1948L111.269 50.2982C110.883 50.6005 109.826 50.5624 108.902 50.5578ZM38.8782 50.5578C38.5754 50.5544 37.3133 50.5428 37.2711 50.5313L37.2689 48.4544C37.8811 48.4463 39.9418 48.4417 40.2734 48.6298V47.6686C40.025 47.8855 38.0375 47.8555 37.2689 47.8428L37.2678 46.1628C37.2678 46.1628 40.0694 46.1005 40.6794 46.2528C40.8557 46.2955 40.9832 46.3855 40.9832 46.3855C40.9855 46.3694 40.9899 45.5467 40.9899 45.5467C40.9921 45.5467 36.1166 45.5455 36.1166 45.5455C36.2286 45.7451 36.2885 45.9505 36.2885 46.4536L36.2863 50.2913C36.2863 50.8013 36.2142 50.979 36.1099 51.1982L41.0686 51.1948L41.245 50.2982C40.859 50.6005 39.8032 50.5624 38.8782 50.5578ZM21.9634 50.5578C21.6607 50.5544 20.3996 50.5428 20.3564 50.5313L20.3542 48.4544C20.9664 48.4463 23.0271 48.4417 23.3587 48.6298V47.6686C23.1114 47.8855 21.1228 47.8555 20.3542 47.8428L20.3531 46.1628C20.3531 46.1628 23.1546 46.1005 23.7646 46.2528C23.941 46.2955 24.0696 46.3855 24.0696 46.3855C24.0707 46.3694 24.0763 45.5467 24.0763 45.5467L19.2018 45.5455C19.3149 45.7451 19.3737 45.9505 19.3737 46.4536L19.3726 50.2913C19.3726 50.8013 19.2994 50.979 19.1963 51.1982L24.1539 51.1948L24.3302 50.2982C23.9443 50.6005 22.8884 50.5624 21.9634 50.5578ZM102.032 46.1571L103.208 46.1559C103.666 46.1559 104.021 46.1882 104.17 46.3786V45.5536H98.9266V46.3786C99.0774 46.1882 99.4723 46.1559 99.8893 46.1559L101.052 46.1571V50.2913C101.052 50.8013 100.957 50.9974 100.863 51.1982C100.877 51.1924 102.203 51.1982 102.203 51.1982C102.092 50.9974 102.032 50.7955 102.032 50.2913V46.1571ZM6.78221 46.1571L7.95896 46.1559C8.41701 46.1559 8.77192 46.1882 8.92165 46.3786V45.5536H3.67676V46.3786C3.8287 46.1882 4.22243 46.1559 4.64056 46.1559L5.80289 46.1571V50.2913C5.80289 50.8013 5.7075 50.9974 5.61434 51.1982C5.62876 51.1924 6.95412 51.1982 6.95412 51.1982C6.84321 50.9974 6.78221 50.7955 6.78221 50.2913V46.1571ZM76.8025 46.0071C76.2191 45.6805 75.2542 45.4809 74.4146 45.4809C73.0826 45.4809 72.2208 45.8721 71.6552 46.3163C71.0152 46.8217 70.6437 47.5371 70.6581 48.3182C70.6714 49.0844 71.0485 49.8471 71.6308 50.3271C72.3494 50.919 73.2589 51.2721 74.4146 51.2721C75.3617 51.2721 76.0738 51.0632 76.8002 50.6074V48.309L75.6202 48.3044C75.7067 48.4105 75.812 48.6055 75.812 49.0786L75.7976 50.3478C75.4017 50.5809 74.9602 50.6432 74.4146 50.6432C73.4641 50.6432 72.7398 50.3571 72.284 49.8448C71.8581 49.3671 71.6685 48.9101 71.6685 48.3171C71.6685 47.7274 71.9202 47.2221 72.3228 46.8321C72.8951 46.2817 73.575 46.0901 74.4135 46.0901C75.1798 46.0901 75.9407 46.2886 76.4697 46.6417C76.6039 46.7305 76.7237 46.8182 76.8025 46.884V46.0071ZM44.2684 49.0382H46.6252L45.464 46.6578L44.2684 49.0382ZM45.9941 45.5559L48.6471 50.6144C48.8101 50.8948 48.9709 51.0805 49.1251 51.1971C49.0763 51.1959 47.4492 51.1971 47.4492 51.1971C47.5369 51.0471 47.5413 50.8474 47.4149 50.559L46.9213 49.6082H43.9833L43.4587 50.6801C43.3478 50.9155 43.3789 51.0805 43.4643 51.1959H42.3108C42.4772 51.0759 42.6036 50.859 42.7034 50.6951L45.3475 45.5524L45.9941 45.5559Z" fill="#58595B"/>
</g>
<mask id="mask1_1_3833" style="mask-type:luminance" maskUnits="userSpaceOnUse" x="52" y="2" width="23" height="34">
<path d="M52.9121 2.5H74.2347V35.7976H52.9121V2.5Z" fill="white"/>
</mask>
<g mask="url(#mask1_1_3833)">
<path fill-rule="evenodd" clip-rule="evenodd" d="M63.7343 23.2739C63.7343 23.2739 60.9466 32.1303 60.877 32.3488C60.6381 31.5115 59.1531 26.009 58.9186 25.1996C58.797 24.7804 58.7119 24.1594 58.7019 23.9151C58.6886 23.5766 58.7672 23.3468 58.8103 23.2526L58.8556 23.1551C58.8556 23.1551 58.1645 23.2459 57.6957 23.3188C57.3042 23.3804 56.5799 23.5138 56.5799 23.5138L56.6573 23.5923C56.9194 23.8983 57.0001 24.1673 57.3263 25.2658L60.407 35.7979H60.5994C60.5994 35.7979 63.4247 27.0133 63.4888 26.8149C63.5551 27.0122 66.4733 35.7979 66.4733 35.7979H66.6524L69.7795 25.2871C70.1168 24.1953 70.318 23.8288 70.5226 23.5766L70.579 23.5183C70.485 23.4869 70.1632 23.4095 69.7718 23.3199C69.3582 23.2257 68.9823 23.1652 68.9823 23.1652L69.0309 23.2829C69.0331 23.2851 69.1216 23.451 69.1238 23.7671C69.126 24.0216 69.0309 24.6751 68.8606 25.2624C68.8606 25.2624 66.9211 32.1695 66.8592 32.3802C66.7884 32.1717 63.8471 23.2739 63.8471 23.2739H63.7343ZM70.7449 8.94862L70.7681 9.00131C71.1518 9.84311 71.3597 10.7062 71.3597 12.8438C71.3597 12.8438 71.2358 19.2801 71.2358 19.3687C70.8134 19.2891 67.0472 18.5818 63.4943 18.5818C59.8276 18.5818 56.1874 19.2812 55.7661 19.3687C55.7661 19.2767 55.7672 12.8416 55.7672 12.8416C55.7672 10.7376 56.0503 9.89131 56.4218 9.00019L56.4539 8.94526H52.9608L52.984 9.00131C53.3688 9.84311 53.5756 10.7062 53.5756 12.8438L53.5723 29.1531C53.5723 31.3053 53.2615 32.1213 52.932 32.9855L52.9121 33.0405H56.3787L56.3544 32.9923C55.9707 32.1493 55.7628 31.2873 55.7628 29.1498C55.7628 29.1498 55.765 21.0769 55.765 21.0198C56.0348 20.948 59.1431 20.1992 63.4943 20.1992C67.7648 20.1992 70.9538 20.9525 71.2358 21.0209C71.2358 21.0792 71.3552 29.1531 71.3552 29.1531C71.3552 31.3075 71.1263 32.1202 70.7847 32.9855L70.7648 33.0416H74.1628L74.1374 32.9923C73.7548 32.1493 73.5458 31.2873 73.5458 29.1498L73.5502 12.8416C73.5502 10.7376 73.8344 9.89131 74.2048 9.00019L74.2347 8.94862H70.7449ZM62.6926 2.5L62.665 2.55156C62.4549 3.01226 62.31 3.48977 62.31 4.63086C62.31 4.63086 62.2846 14.4938 62.2846 14.5756C62.7844 14.551 63.6613 14.5543 63.9433 14.5543C65.561 14.5543 67.2683 14.802 67.9981 14.0611L68.0512 14.0701L67.4474 15.6898C66.5241 15.5889 65.2547 15.478 63.9433 15.478C62.7833 15.478 61.8788 15.5071 60.2765 15.6248L60.2036 15.6338L60.2257 15.5766C60.4037 15.1092 60.5729 14.6675 60.5729 13.4995L60.5751 4.6331C60.5751 3.47408 60.4634 3.00777 60.2555 2.55156L60.229 2.5H62.6926Z" fill="#58595B"/>
</g>
<path fill-rule="evenodd" clip-rule="evenodd" d="M72.8967 38.5419C72.8967 38.7493 72.5318 38.8569 72.5318 38.8569C72.2564 38.7997 71.9391 38.7134 71.9391 38.5061C71.9391 38.3155 72.158 38.2124 72.3936 38.2124C72.7806 38.2124 72.9177 38.357 72.8967 38.5419ZM71.7843 39.6023C71.7843 39.4443 71.9767 39.238 72.2222 39.173C72.2222 39.173 72.9564 39.3086 72.9564 39.609C72.9564 39.8747 72.7054 39.9745 72.4168 39.9745C72.1038 39.9745 71.7843 39.896 71.7843 39.6023ZM71.5244 38.5767C71.5244 38.7661 71.6306 38.9477 71.8915 39.0576C71.6162 39.1674 71.405 39.3591 71.405 39.618C71.405 39.9151 71.7213 40.2099 72.3692 40.2099C72.963 40.2099 73.391 39.9431 73.391 39.5474C73.391 39.1271 72.8215 38.9712 72.8215 38.9712C73.0847 38.8614 73.2527 38.6888 73.2527 38.5016C73.2527 38.2393 73.0216 37.9736 72.4223 37.9736C71.9103 37.9736 71.5244 38.2079 71.5244 38.5767ZM68.708 40.1886H70.2417L70.3766 39.8411C70.3766 39.8411 70.2462 39.905 70.0394 39.905H69.2709V39.8904C69.2709 39.8904 69.4721 39.7458 69.6347 39.6281C69.9763 39.386 70.3313 39.0598 70.3313 38.6619C70.3313 38.2673 70.0294 38.0039 69.419 38.0039C69.0409 38.0039 68.8297 38.0835 68.7954 38.0924L68.7611 38.4511C68.8197 38.4041 69.0575 38.2483 69.345 38.2483C69.711 38.2483 69.9222 38.4298 69.9222 38.7146C69.9222 39.0206 69.6203 39.3322 69.0486 39.6819L68.708 39.8825V40.1886ZM66.8636 39.1652C66.5485 39.1517 66.3815 38.96 66.3815 38.7605C66.3815 38.3738 66.6668 38.2583 66.8901 38.2583C67.1301 38.2583 67.3159 38.431 67.3446 38.7504C67.3512 38.8244 67.3546 38.9556 67.349 39.0284C67.349 39.0284 67.1743 39.1775 66.8636 39.1652ZM66.5761 39.961C66.4213 39.961 66.2178 39.9095 66.1272 39.8433L66.2366 40.1717C66.261 40.1807 66.4357 40.2043 66.5518 40.2043C66.9499 40.2043 67.2108 40.1023 67.432 39.887C67.6376 39.6864 67.7792 39.3131 67.7792 38.932C67.7792 38.4198 67.5127 38.014 66.9078 38.014C66.3948 38.014 66.0221 38.3413 66.0221 38.7695C66.0221 39.2122 66.3406 39.4319 66.742 39.4319C67.1146 39.4319 67.296 39.3064 67.296 39.3064C67.2761 39.4633 67.1533 39.961 66.5761 39.961ZM64.9285 40.1886C64.8898 40.1292 64.8412 40.0574 64.8412 39.8691V38.0095L64.348 38.2326C64.4353 38.2774 64.4818 38.4153 64.4818 38.5408V39.8769C64.4818 40.0182 64.4431 40.1292 64.3955 40.1886H64.9285ZM63.0376 39.154C63.0376 39.0374 62.9448 38.9432 62.8298 38.9432C62.7148 38.9432 62.6208 39.0374 62.6208 39.154C62.6208 39.2716 62.7148 39.3669 62.8298 39.3669C62.9448 39.3669 63.0376 39.2716 63.0376 39.154ZM58.6931 38.1519C58.4752 38.0711 58.1181 38.0117 57.856 38.0106C57.3496 37.9983 56.9128 38.1463 56.8719 38.5576C56.8619 38.663 56.8874 38.7964 56.9659 38.8883C57.27 39.2347 57.9699 39.2414 58.2607 39.4633C58.3448 39.5295 58.3901 39.609 58.3812 39.6976C58.3547 39.9442 58.0462 40.0036 57.6669 39.9958C57.1483 39.9868 56.905 39.8007 56.8243 39.729C56.8243 39.7436 56.8398 40.0787 56.8398 40.0787C56.9957 40.1404 57.2987 40.2289 57.668 40.2334C58.2408 40.2457 58.7439 40.091 58.7838 39.6225C58.7937 39.5261 58.7727 39.3692 58.692 39.2705C58.515 39.062 58.1767 38.9903 57.8549 38.8827C57.5497 38.7784 57.2799 38.7336 57.2832 38.5128C57.2865 38.3234 57.5851 38.2438 57.8494 38.246C58.0639 38.2505 58.3038 38.2808 58.4697 38.357C58.5493 38.3929 58.6245 38.4119 58.6931 38.4848V38.1519ZM54.8726 39.9386C54.751 39.9386 54.2545 39.9364 54.239 39.9285L54.2379 39.1327C54.4779 39.1282 55.2928 39.1271 55.4222 39.1988V38.83C55.3238 38.9107 54.5398 38.9029 54.2368 38.8973L54.2357 38.2527C54.2357 38.2527 55.3437 38.227 55.5814 38.2864C55.6522 38.3021 55.702 38.3379 55.702 38.3379V38.014H53.7835C53.8277 38.0891 53.8509 38.1687 53.8509 38.3626V39.8377C53.8509 40.0361 53.8211 40.1034 53.7812 40.1874L55.7351 40.1852L55.8059 39.8422C55.6544 39.9565 55.2375 39.9431 54.8726 39.9386ZM60.8416 39.8411C60.8416 40.0361 60.8659 40.1146 60.909 40.1919C60.909 40.1919 60.3871 40.1908 60.3805 40.1919C60.417 40.1135 60.4535 40.0395 60.4535 39.8411V38.2527H59.9957C59.832 38.2527 59.6772 38.2673 59.6175 38.3402V38.0207H61.6853V38.3402C61.6256 38.2673 61.4851 38.2527 61.3038 38.2527H60.8416V39.8411Z" fill="#58595B"/>
<path fill-rule="evenodd" clip-rule="evenodd" d="M95.0645 57.9986H96.8038V56.2354H95.0645V57.9986Z" fill="#58595B"/>
<path fill-rule="evenodd" clip-rule="evenodd" d="M95.5079 56.3474C95.3685 56.4259 95.2602 56.5324 95.1806 56.6748C95.1043 56.816 95.0645 56.9639 95.0645 57.1175C95.0645 57.2688 95.1032 57.4146 95.1806 57.5558C95.2569 57.6959 95.3652 57.8046 95.5023 57.882C95.6406 57.9593 95.7854 57.9986 95.9358 57.9986C96.0851 57.9986 96.2299 57.9593 96.3682 57.882C96.5064 57.8046 96.6136 57.6959 96.6899 57.5558C96.7662 57.4146 96.8049 57.2688 96.8049 57.1175C96.8049 56.9639 96.7651 56.816 96.6888 56.6748C96.6103 56.5324 96.502 56.4259 96.3626 56.3474C96.2244 56.2735 96.0818 56.2354 95.9358 56.2354C95.7898 56.2354 95.6472 56.2735 95.5079 56.3474ZM96.2919 56.4763C96.408 56.5391 96.4986 56.6299 96.5628 56.7476C96.628 56.8664 96.6601 56.9897 96.6601 57.1175C96.6601 57.2442 96.628 57.3664 96.565 57.4829C96.5008 57.5984 96.4113 57.6903 96.2963 57.7553C96.1813 57.8192 96.0608 57.8528 95.9358 57.8528C95.8108 57.8528 95.6903 57.8192 95.5753 57.7553C95.4592 57.6903 95.3685 57.5984 95.3044 57.4829C95.2414 57.3664 95.2082 57.2442 95.2082 57.1175C95.2082 56.9897 95.2414 56.8664 95.3066 56.7476C95.3719 56.6299 95.4636 56.5391 95.5786 56.4763C95.6947 56.4136 95.8131 56.3811 95.9358 56.3811C96.0563 56.3811 96.1746 56.4136 96.2919 56.4763ZM95.7036 57.6051V57.2005H95.7943C95.8473 57.2005 95.8871 57.2128 95.9137 57.2341C95.9546 57.2632 96.0066 57.3372 96.0729 57.4549L96.1547 57.6051H96.3405L96.2255 57.419C96.1713 57.3305 96.126 57.2677 96.0884 57.2296C96.0685 57.2117 96.042 57.1937 96.0077 57.1803C96.0895 57.1736 96.1525 57.1455 96.2023 57.094C96.252 57.0424 96.2753 56.9819 96.2753 56.9124C96.2753 56.8642 96.2609 56.8182 96.2321 56.7734C96.2023 56.7308 96.1625 56.6994 96.1127 56.6826C96.0641 56.6647 95.9856 56.6557 95.875 56.6557H95.5532V57.6051H95.7036ZM95.7036 56.7846H95.8761C95.9502 56.7846 96.001 56.7891 96.0276 56.8003C96.0563 56.8115 96.0773 56.8283 96.0917 56.8496C96.1072 56.8732 96.116 56.8978 96.116 56.9258C96.116 56.9696 96.0995 57.0054 96.0663 57.0312C96.0353 57.057 95.9756 57.0704 95.8883 57.0704H95.7036V56.7846Z" fill="#58595B"/>
</g>
</g>
<defs>
<filter id="filter0_d_1_3833" x="-0.322266" y="0.5" width="128.625" height="65" filterUnits="userSpaceOnUse" color-interpolation-filters="sRGB">
<feFlood flood-opacity="0" result="BackgroundImageFix"/>
<feColorMatrix in="SourceAlpha" type="matrix" values="0 0 0 0 0 0 0 0 0 0 0 0 0 0 0 0 0 0 127 0" result="hardAlpha"/>
<feOffset dy="2"/>
<feGaussianBlur stdDeviation="2"/>
<feColorMatrix type="matrix" values="0 0 0 0 0 0 0 0 0 0 0 0 0 0 0 0 0 0 0.0567909 0"/>
<feBlend mode="normal" in2="BackgroundImageFix" result="effect1_dropShadow_1_3833"/>
<feBlend mode="normal" in="SourceGraphic" in2="effect1_dropShadow_1_3833" result="shape"/>
</filter>
<clipPath id="clip0_1_3833">
<rect width="128" height="65" fill="white" transform="translate(-0.00976562 0.5)"/>
</clipPath>
</defs>
</svg>