<svg xmlns="http://www.w3.org/2000/svg" xmlns:xlink="http://www.w3.org/1999/xlink" width="1080" zoomAndPan="magnify" viewBox="0 0 810 809.999993" height="1080" preserveAspectRatio="xMidYMid meet" version="1.0"><rect x="-81" width="972" fill="#ffffff" y="-80.999999" height="971.999992" fill-opacity="1"/><rect x="-81" width="972" fill="#ffffff" y="-80.999999" height="971.999992" fill-opacity="1"/><path fill="#ffffff" d="M 453 395 L 449.519531 395 L 440.621094 415.253906 L 444.691406 415.253906 L 446.726562 410.484375 L 455.738281 410.484375 L 457.640625 415.253906 L 461.824219 415.253906 Z M 454.273438 407.089844 L 448.152344 407.089844 L 451.214844 399.9375 Z M 454.273438 407.089844 " fill-opacity="1" fill-rule="nonzero"/><path fill="#ffffff" d="M 406.769531 395.152344 L 399.292969 395.152344 L 399.292969 415.253906 L 406.902344 415.253906 C 413.464844 415.253906 417.550781 410.808594 417.550781 405.183594 C 417.558594 404.527344 417.503906 403.878906 417.382812 403.234375 C 417.261719 402.589844 417.078125 401.964844 416.835938 401.359375 C 416.59375 400.75 416.292969 400.171875 415.933594 399.625 C 415.574219 399.078125 415.167969 398.570312 414.710938 398.101562 C 414.253906 397.636719 413.753906 397.21875 413.214844 396.851562 C 412.671875 396.480469 412.101562 396.171875 411.5 395.914062 C 410.898438 395.660156 410.277344 395.46875 409.640625 395.335938 C 409 395.203125 408.355469 395.136719 407.699219 395.132812 C 407.433594 395.113281 407.167969 395.113281 406.902344 395.132812 M 406.902344 411.667969 L 403.097656 411.667969 L 403.097656 398.699219 L 406.730469 398.699219 C 407.140625 398.722656 407.546875 398.78125 407.945312 398.882812 C 408.34375 398.980469 408.730469 399.117188 409.101562 399.289062 C 409.476562 399.464844 409.828125 399.667969 410.164062 399.910156 C 410.496094 400.152344 410.804688 400.421875 411.085938 400.71875 C 411.371094 401.019531 411.621094 401.34375 411.84375 401.691406 C 412.066406 402.035156 412.25 402.402344 412.402344 402.785156 C 412.554688 403.167969 412.671875 403.5625 412.75 403.964844 C 412.824219 404.371094 412.863281 404.78125 412.863281 405.191406 C 412.863281 405.605469 412.824219 406.011719 412.75 406.417969 C 412.671875 406.824219 412.554688 407.214844 412.402344 407.597656 C 412.25 407.980469 412.066406 408.347656 411.84375 408.695312 C 411.621094 409.042969 411.371094 409.367188 411.085938 409.664062 C 410.804688 409.964844 410.496094 410.234375 410.164062 410.472656 C 409.828125 410.714844 409.476562 410.921875 409.101562 411.09375 C 408.730469 411.269531 408.34375 411.402344 407.945312 411.503906 C 407.546875 411.601562 407.140625 411.664062 406.730469 411.6875 " fill-opacity="1" fill-rule="nonzero"/><path fill="#ffffff" d="M 364.929688 403.085938 L 360.097656 395.171875 L 355.535156 395.171875 L 362.96875 406.957031 L 362.96875 415.253906 L 366.832031 415.253906 L 366.832031 406.878906 L 374.285156 395.171875 L 369.855469 395.171875 Z M 364.929688 403.085938 " fill-opacity="1" fill-rule="nonzero"/><path fill="#ffffff" d="M 348.117188 415.367188 L 354.03125 395.152344 L 349.960938 395.152344 L 346.273438 408.921875 L 341.992188 395.09375 L 338.285156 395.09375 L 333.929688 408.902344 L 330.222656 395.152344 L 326.074219 395.152344 L 332.046875 415.367188 L 335.488281 415.367188 L 339.996094 401.007812 L 344.617188 415.367188 Z M 348.117188 415.367188 " fill-opacity="1" fill-rule="nonzero"/><path fill="#ffffff" d="M 390.261719 408.367188 L 380.046875 395.152344 L 376.550781 395.152344 L 376.550781 415.253906 L 380.351562 415.253906 L 380.351562 401.636719 L 390.851562 415.253906 L 394.046875 415.253906 L 394.046875 395.152344 L 390.261719 395.152344 Z M 390.261719 408.367188 " fill-opacity="1" fill-rule="nonzero"/><path fill="#ffffff" d="M 437.882812 415.253906 L 437.882812 395.152344 L 434.039062 395.152344 L 434.039062 403.332031 L 425.082031 403.332031 L 425.082031 395.152344 L 421.222656 395.152344 L 421.222656 415.253906 L 425.082031 415.253906 L 425.082031 406.957031 L 434.039062 406.957031 L 434.039062 415.253906 Z M 437.882812 415.253906 " fill-opacity="1" fill-rule="nonzero"/><path fill="#ffffff" d="M 474.074219 404.285156 L 468.214844 395.152344 L 464.222656 395.152344 L 464.222656 415.253906 L 468.023438 415.253906 L 468.023438 401.65625 L 473.84375 410.410156 L 474.1875 410.410156 L 480.0625 401.597656 L 480.0625 415.253906 L 483.925781 415.253906 L 483.925781 395.152344 L 479.929688 395.152344 Z M 474.074219 404.285156 " fill-opacity="1" fill-rule="nonzero"/><path fill="#58595b" d="M 269.058594 508.320312 L 273.007812 508.320312 L 281.660156 528.625 L 277.191406 528.625 L 275.289062 523.871094 L 266.585938 523.871094 L 264.734375 528.625 L 260.40625 528.625 Z M 273.816406 520.257812 L 271.007812 513.410156 L 268.15625 520.257812 Z M 289.792969 508.464844 L 294.023438 508.464844 L 294.023438 524.726562 L 304.152344 524.726562 L 304.152344 528.625 L 289.886719 528.625 Z M 312.519531 508.464844 L 316.75 508.464844 L 316.75 524.726562 L 326.878906 524.726562 L 326.878906 528.625 L 312.613281 528.625 Z M 334.199219 517.6875 L 343.1875 517.6875 L 343.1875 521.730469 L 334.199219 521.730469 Z M 352.078125 508.464844 L 356.3125 508.464844 L 356.3125 528.625 L 352.078125 528.625 Z M 366.390625 508.464844 L 370.289062 508.464844 L 379.800781 521.160156 L 379.800781 508.464844 L 383.984375 508.464844 L 383.984375 528.625 L 380.371094 528.625 L 370.386719 515.5 L 370.386719 528.625 L 366.199219 528.625 Z M 393.113281 518.59375 C 393.101562 517.902344 393.15625 517.214844 393.28125 516.535156 C 393.410156 515.855469 393.601562 515.195312 393.863281 514.554688 C 394.121094 513.914062 394.441406 513.304688 394.828125 512.730469 C 395.210938 512.152344 395.648438 511.625 396.136719 511.136719 C 396.628906 510.648438 397.164062 510.21875 397.742188 509.839844 C 398.324219 509.460938 398.933594 509.144531 399.578125 508.890625 C 400.21875 508.636719 400.882812 508.449219 401.5625 508.328125 C 402.242188 508.210938 402.929688 508.160156 403.621094 508.179688 C 405.105469 508.105469 406.535156 508.339844 407.921875 508.878906 C 409.304688 509.417969 410.515625 510.214844 411.5625 511.269531 L 408.851562 514.40625 C 408.160156 513.6875 407.355469 513.125 406.441406 512.722656 C 405.527344 512.320312 404.570312 512.105469 403.574219 512.078125 C 403.164062 512.085938 402.757812 512.136719 402.355469 512.226562 C 401.953125 512.316406 401.566406 512.449219 401.191406 512.617188 C 400.816406 512.785156 400.460938 512.988281 400.128906 513.230469 C 399.792969 513.46875 399.488281 513.738281 399.207031 514.042969 C 398.929688 514.34375 398.679688 514.667969 398.46875 515.019531 C 398.253906 515.371094 398.078125 515.742188 397.9375 516.128906 C 397.796875 516.515625 397.699219 516.910156 397.636719 517.316406 C 397.578125 517.726562 397.558594 518.132812 397.582031 518.542969 C 397.558594 518.957031 397.578125 519.367188 397.636719 519.773438 C 397.699219 520.183594 397.796875 520.582031 397.9375 520.96875 C 398.078125 521.355469 398.253906 521.726562 398.464844 522.078125 C 398.679688 522.433594 398.925781 522.761719 399.203125 523.0625 C 399.484375 523.367188 399.789062 523.640625 400.125 523.882812 C 400.457031 524.125 400.8125 524.332031 401.1875 524.503906 C 401.5625 524.675781 401.953125 524.804688 402.351562 524.898438 C 402.753906 524.992188 403.160156 525.046875 403.574219 525.058594 C 404.605469 525.050781 405.59375 524.832031 406.535156 524.414062 C 407.480469 523.992188 408.300781 523.398438 408.992188 522.632812 L 411.703125 525.390625 C 410.667969 526.582031 409.421875 527.492188 407.972656 528.117188 C 406.523438 528.742188 405.007812 529.019531 403.429688 528.957031 C 402.75 528.96875 402.074219 528.910156 401.402344 528.78125 C 400.730469 528.65625 400.082031 528.464844 399.449219 528.207031 C 398.816406 527.949219 398.214844 527.632812 397.648438 527.253906 C 397.082031 526.875 396.554688 526.445312 396.074219 525.960938 C 395.59375 525.476562 395.164062 524.953125 394.789062 524.382812 C 394.414062 523.8125 394.097656 523.210938 393.84375 522.578125 C 393.589844 521.945312 393.402344 521.292969 393.277344 520.621094 C 393.15625 519.949219 393.101562 519.273438 393.113281 518.59375 Z M 420.214844 508.464844 L 424.445312 508.464844 L 424.445312 524.726562 L 434.574219 524.726562 L 434.574219 528.625 L 420.308594 528.625 Z M 442.609375 520.019531 L 442.609375 508.464844 L 446.84375 508.464844 L 446.84375 519.875 C 446.84375 523.25 448.554688 525.011719 451.3125 525.011719 C 454.070312 525.011719 456.066406 523.347656 456.066406 520.019531 L 456.066406 508.464844 L 460.296875 508.464844 L 460.296875 519.828125 C 460.375 520.429688 460.386719 521.035156 460.328125 521.640625 C 460.269531 522.242188 460.144531 522.835938 459.953125 523.410156 C 459.761719 523.988281 459.507812 524.535156 459.195312 525.054688 C 458.878906 525.574219 458.511719 526.050781 458.089844 526.488281 C 457.664062 526.925781 457.199219 527.308594 456.691406 527.640625 C 456.179688 527.972656 455.640625 528.242188 455.070312 528.449219 C 454.5 528.660156 453.914062 528.804688 453.3125 528.882812 C 452.710938 528.960938 452.105469 528.96875 451.5 528.910156 C 451.203125 528.949219 450.902344 528.96875 450.597656 528.972656 C 450.296875 528.980469 449.992188 528.964844 449.691406 528.933594 C 449.390625 528.90625 449.09375 528.859375 448.796875 528.792969 C 448.5 528.730469 448.210938 528.648438 447.921875 528.550781 C 447.636719 528.453125 447.355469 528.339844 447.082031 528.210938 C 446.808594 528.078125 446.546875 527.933594 446.289062 527.773438 C 446.03125 527.613281 445.785156 527.441406 445.546875 527.253906 C 445.308594 527.066406 445.085938 526.863281 444.871094 526.648438 C 444.65625 526.433594 444.457031 526.210938 444.265625 525.972656 C 444.078125 525.734375 443.90625 525.488281 443.746094 525.230469 C 443.585938 524.976562 443.441406 524.710938 443.3125 524.4375 C 443.179688 524.164062 443.066406 523.882812 442.96875 523.597656 C 442.871094 523.308594 442.792969 523.019531 442.726562 522.722656 C 442.664062 522.425781 442.613281 522.128906 442.585938 521.828125 C 442.554688 521.527344 442.542969 521.226562 442.546875 520.921875 C 442.550781 520.621094 442.570312 520.320312 442.609375 520.019531 Z M 468.238281 525.675781 L 470.710938 522.679688 C 471.546875 523.441406 472.488281 524.035156 473.535156 524.460938 C 474.582031 524.882812 475.667969 525.117188 476.796875 525.152344 C 478.699219 525.152344 479.839844 524.34375 479.839844 523.109375 C 479.839844 521.921875 479.128906 521.300781 475.703125 520.445312 C 471.566406 519.398438 469 518.257812 469 514.265625 C 469.015625 513.832031 469.078125 513.402344 469.183594 512.980469 C 469.289062 512.558594 469.433594 512.15625 469.625 511.761719 C 469.8125 511.371094 470.042969 511.003906 470.308594 510.664062 C 470.574219 510.320312 470.871094 510.007812 471.203125 509.722656 C 471.535156 509.441406 471.890625 509.199219 472.269531 508.992188 C 472.652344 508.78125 473.050781 508.617188 473.46875 508.492188 C 473.882812 508.367188 474.308594 508.285156 474.742188 508.25 C 475.171875 508.214844 475.605469 508.222656 476.035156 508.273438 C 477.382812 508.25 478.691406 508.453125 479.964844 508.886719 C 481.238281 509.320312 482.402344 509.953125 483.453125 510.792969 L 481.21875 514.027344 C 479.679688 512.785156 477.917969 512.117188 475.941406 512.03125 C 474.183594 512.03125 473.230469 512.886719 473.230469 513.882812 C 473.230469 515.261719 474.132812 515.738281 477.652344 516.691406 C 481.171875 517.640625 484.070312 519.210938 484.070312 522.679688 C 484.070312 526.675781 481.027344 528.910156 476.75 528.910156 C 475.179688 528.925781 473.65625 528.65625 472.1875 528.097656 C 470.71875 527.539062 469.402344 526.734375 468.238281 525.675781 Z M 493.152344 508.464844 L 497.386719 508.464844 L 497.386719 528.625 L 493.152344 528.625 Z M 505.707031 508.464844 L 510.460938 508.464844 L 515.882812 522.730469 L 521.300781 508.464844 L 526.058594 508.464844 L 517.640625 528.625 L 513.886719 528.625 Z M 533.949219 508.464844 L 549.070312 508.464844 L 549.070312 512.269531 L 538.132812 512.269531 L 538.132812 516.546875 L 547.644531 516.546875 L 547.644531 520.351562 L 538.132812 520.351562 L 538.132812 524.820312 L 549.214844 524.820312 L 549.214844 528.625 L 533.949219 528.625 Z M 462.914062 281.375 L 465.957031 281.375 L 468.808594 290.882812 L 471.851562 281.375 L 474.277344 281.375 L 477.367188 290.882812 L 480.222656 281.375 L 483.167969 281.375 L 478.414062 294.925781 L 476.320312 294.925781 L 473.230469 285.941406 L 470.140625 294.925781 L 467.667969 294.925781 Z M 488.96875 289.269531 L 483.785156 281.375 L 487.117188 281.375 L 490.394531 286.890625 L 493.773438 281.375 L 497.003906 281.375 L 491.773438 289.457031 L 491.773438 294.832031 L 488.96875 294.832031 Z M 499.003906 281.375 L 501.617188 281.375 L 508.085938 289.839844 L 508.085938 281.375 L 510.890625 281.375 L 510.890625 294.832031 L 508.464844 294.832031 L 501.808594 286.082031 L 501.808594 294.832031 L 499.003906 294.832031 Z M 514.359375 281.375 L 519.496094 281.375 C 519.953125 281.347656 520.410156 281.363281 520.863281 281.425781 C 521.316406 281.492188 521.761719 281.601562 522.191406 281.757812 C 522.625 281.914062 523.035156 282.109375 523.425781 282.351562 C 523.816406 282.589844 524.179688 282.867188 524.515625 283.179688 C 524.851562 283.496094 525.148438 283.839844 525.410156 284.214844 C 525.675781 284.589844 525.898438 284.988281 526.078125 285.410156 C 526.261719 285.832031 526.398438 286.265625 526.492188 286.71875 C 526.582031 287.167969 526.628906 287.621094 526.628906 288.078125 C 526.632812 288.539062 526.589844 288.996094 526.5 289.449219 C 526.410156 289.902344 526.273438 290.339844 526.09375 290.761719 C 525.914062 291.1875 525.691406 291.589844 525.429688 291.964844 C 525.167969 292.34375 524.867188 292.691406 524.53125 293.007812 C 524.199219 293.324219 523.835938 293.605469 523.441406 293.847656 C 523.050781 294.089844 522.636719 294.289062 522.203125 294.445312 C 521.769531 294.601562 521.324219 294.710938 520.871094 294.777344 C 520.414062 294.84375 519.957031 294.859375 519.496094 294.832031 L 514.359375 294.832031 Z M 517.164062 283.941406 L 517.164062 292.261719 L 519.496094 292.261719 C 519.773438 292.28125 520.046875 292.269531 520.324219 292.226562 C 520.597656 292.1875 520.863281 292.117188 521.125 292.019531 C 521.386719 291.921875 521.632812 291.796875 521.867188 291.648438 C 522.097656 291.5 522.316406 291.328125 522.511719 291.132812 C 522.710938 290.9375 522.886719 290.722656 523.039062 290.488281 C 523.191406 290.257812 523.316406 290.011719 523.417969 289.753906 C 523.515625 289.496094 523.589844 289.226562 523.632812 288.953125 C 523.679688 288.679688 523.695312 288.402344 523.679688 288.125 C 523.695312 287.847656 523.679688 287.574219 523.632812 287.300781 C 523.589844 287.027344 523.515625 286.757812 523.417969 286.5 C 523.316406 286.242188 523.191406 285.996094 523.039062 285.765625 C 522.886719 285.53125 522.710938 285.316406 522.511719 285.121094 C 522.316406 284.925781 522.101562 284.753906 521.867188 284.605469 C 521.632812 284.457031 521.386719 284.332031 521.125 284.234375 C 520.863281 284.136719 520.597656 284.066406 520.324219 284.027344 C 520.046875 283.984375 519.773438 283.972656 519.496094 283.988281 Z M 529.386719 281.375 L 532.238281 281.375 L 532.238281 286.746094 L 537.847656 286.746094 L 537.847656 281.375 L 540.703125 281.375 L 540.703125 294.832031 L 537.847656 294.832031 L 537.847656 289.125 L 532.238281 289.125 L 532.238281 294.59375 L 529.386719 294.59375 Z M 548.691406 281.042969 L 551.304688 281.042969 L 557.152344 294.59375 L 554.15625 294.59375 L 552.921875 291.503906 L 547.121094 291.503906 L 545.882812 294.59375 L 542.890625 294.59375 Z M 551.875 288.984375 L 549.972656 284.464844 L 548.070312 288.984375 Z M 559.339844 281.375 L 562.382812 281.375 L 566.046875 287.175781 L 569.660156 281.375 L 572.703125 281.375 L 572.703125 294.832031 L 569.894531 294.832031 L 569.894531 285.605469 L 566.046875 291.503906 L 561.910156 285.703125 L 561.910156 294.59375 L 559.152344 294.59375 Z M 508.179688 445.320312 C 464.671875 469.09375 430.535156 473.328125 409.421875 457.777344 C 392.921875 445.652344 387.453125 423.351562 388.882812 404.808594 C 395.957031 394.863281 402.296875 384.464844 407.898438 373.617188 C 416.164062 358.007812 422.835938 341.746094 427.917969 324.832031 C 432.671875 307.382812 432.671875 296.636719 427.347656 291.976562 C 426.832031 291.480469 426.257812 291.0625 425.625 290.722656 C 424.992188 290.382812 424.324219 290.136719 423.625 289.980469 C 422.925781 289.828125 422.214844 289.769531 421.5 289.808594 C 420.78125 289.847656 420.085938 289.984375 419.40625 290.21875 C 414.320312 292.027344 406.1875 299.730469 394.300781 346.136719 C 388.074219 370.957031 383.601562 395.488281 383.601562 395.488281 C 383.136719 397.738281 382.785156 400.003906 382.558594 402.289062 C 372.621094 415.316406 364.441406 421.308594 359.925781 420.261719 C 355.40625 419.214844 352.933594 413.511719 355.742188 392.160156 L 355.742188 390.308594 C 378.894531 362.347656 389.925781 326.070312 387.976562 310.238281 C 387.167969 303.722656 384.316406 301.34375 382.082031 300.726562 C 380.796875 300.226562 379.472656 300.035156 378.097656 300.164062 C 376.726562 300.289062 375.453125 300.714844 374.285156 301.441406 C 364.441406 307.335938 356.597656 334.722656 349.558594 387.789062 C 344.574219 393.695312 339.023438 399.023438 332.917969 403.761719 C 332.300781 396.632812 331.964844 390.164062 331.730469 384.746094 C 330.871094 367.617188 331.046875 350.5 332.25 333.390625 C 337.292969 319.9375 335.914062 317.988281 335.152344 316.894531 C 334.738281 316.292969 334.195312 315.851562 333.527344 315.558594 C 332.859375 315.269531 332.164062 315.171875 331.441406 315.277344 C 330.816406 315.417969 330.253906 315.691406 329.753906 316.089844 C 329.253906 316.492188 328.867188 316.980469 328.589844 317.558594 C 327.042969 322.191406 326.171875 326.945312 325.976562 331.824219 C 320.554688 346.085938 308.050781 373.378906 282.328125 420.59375 C 275.261719 420.175781 268.324219 419.015625 261.511719 417.105469 C 254.699219 415.199219 248.164062 412.589844 241.910156 409.277344 C 241.527344 409.085938 241.117188 408.972656 240.6875 408.941406 C 240.261719 408.910156 239.839844 408.964844 239.433594 409.101562 C 239.023438 409.234375 238.65625 409.445312 238.332031 409.726562 C 238.007812 410.007812 237.746094 410.34375 237.554688 410.726562 C 237.363281 411.113281 237.25 411.519531 237.21875 411.949219 C 237.191406 412.378906 237.242188 412.796875 237.378906 413.207031 C 237.515625 413.613281 237.726562 413.980469 238.007812 414.304688 C 238.289062 414.628906 238.625 414.886719 239.011719 415.078125 C 245.21875 418.351562 251.6875 420.980469 258.417969 422.964844 C 265.148438 424.949219 272.007812 426.25 278.996094 426.871094 C 273.578125 436.714844 267.632812 447.363281 261.070312 458.871094 C 260.933594 459.058594 260.816406 459.257812 260.722656 459.46875 C 260.628906 459.679688 260.554688 459.898438 260.503906 460.125 C 260.457031 460.351562 260.429688 460.578125 260.429688 460.808594 C 260.429688 461.042969 260.453125 461.269531 260.5 461.496094 C 260.550781 461.722656 260.621094 461.941406 260.714844 462.15625 C 260.808594 462.367188 260.921875 462.566406 261.058594 462.753906 C 261.195312 462.941406 261.351562 463.109375 261.523438 463.265625 C 261.695312 463.417969 261.882812 463.554688 262.082031 463.667969 C 262.285156 463.785156 262.496094 463.875 262.714844 463.945312 C 262.9375 464.015625 263.164062 464.0625 263.394531 464.085938 C 263.625 464.109375 263.855469 464.105469 264.082031 464.082031 C 264.3125 464.054688 264.539062 464.003906 264.757812 463.929688 C 264.976562 463.855469 265.1875 463.761719 265.386719 463.640625 C 265.585938 463.523438 265.769531 463.386719 265.941406 463.230469 C 266.109375 463.070312 266.261719 462.898438 266.394531 462.707031 C 266.527344 462.519531 266.640625 462.316406 266.730469 462.105469 C 274.019531 449.425781 280.550781 437.761719 286.320312 427.109375 C 293.617188 427.007812 300.777344 425.953125 307.792969 423.945312 C 314.808594 421.9375 321.441406 419.046875 327.6875 415.269531 C 330.0625 438.285156 334.582031 464.910156 343.1875 485.832031 C 343.4375 486.4375 343.835938 486.921875 344.382812 487.285156 C 344.925781 487.648438 345.527344 487.828125 346.183594 487.828125 C 346.609375 487.824219 347.023438 487.742188 347.417969 487.589844 C 347.820312 487.421875 348.171875 487.183594 348.476562 486.875 C 348.78125 486.570312 349.015625 486.214844 349.183594 485.8125 C 349.347656 485.414062 349.429688 484.996094 349.429688 484.5625 C 349.425781 484.128906 349.34375 483.710938 349.179688 483.3125 C 340.476562 462.058594 336.054688 434.242188 333.679688 411.277344 C 338.921875 407.53125 343.804688 403.363281 348.324219 398.769531 C 346.945312 413.988281 348.65625 423.875 357.832031 426.683594 C 365.25 428.488281 373.761719 421.925781 381.605469 413.179688 C 381.785156 419.355469 382.6875 425.425781 384.316406 431.390625 C 384.660156 432.917969 385.070312 434.429688 385.546875 435.921875 C 386.023438 437.417969 386.5625 438.886719 387.167969 440.332031 C 387.773438 441.78125 388.4375 443.195312 389.167969 444.585938 C 389.894531 445.972656 390.683594 447.328125 391.527344 448.648438 C 392.375 449.964844 393.277344 451.246094 394.234375 452.488281 C 395.195312 453.726562 396.203125 454.925781 397.265625 456.078125 C 398.328125 457.230469 399.441406 458.332031 400.601562 459.390625 C 401.757812 460.445312 402.960938 461.449219 404.207031 462.398438 C 405.453125 463.347656 406.742188 464.242188 408.066406 465.082031 C 409.390625 465.921875 410.75 466.699219 412.140625 467.417969 C 413.535156 468.140625 414.957031 468.796875 416.40625 469.390625 C 417.855469 469.988281 419.328125 470.519531 420.824219 470.984375 C 422.320312 471.453125 423.835938 471.855469 425.367188 472.1875 C 426.898438 472.523438 428.441406 472.792969 429.996094 472.992188 C 431.550781 473.191406 433.113281 473.324219 434.679688 473.386719 C 436.246094 473.449219 437.8125 473.445312 439.378906 473.375 C 463.152344 473.375 489.683594 462.4375 510.699219 450.980469 C 511.078125 450.773438 511.40625 450.5 511.679688 450.164062 C 511.953125 449.832031 512.148438 449.457031 512.273438 449.042969 C 512.398438 448.628906 512.441406 448.207031 512.398438 447.773438 C 512.355469 447.34375 512.234375 446.9375 512.03125 446.558594 C 511.828125 446.25 511.578125 445.984375 511.285156 445.761719 C 510.992188 445.542969 510.671875 445.375 510.320312 445.261719 C 509.972656 445.148438 509.613281 445.097656 509.246094 445.109375 C 508.878906 445.117188 508.523438 445.1875 508.179688 445.320312 Z M 400.769531 347.941406 C 412.273438 303.105469 419.789062 297.304688 421.6875 296.636719 L 422.070312 296.636719 C 422.496094 296.707031 422.863281 296.898438 423.164062 297.207031 C 425.445312 299.253906 426.300781 307.195312 421.785156 323.40625 C 416.820312 339.894531 410.308594 355.742188 402.242188 370.957031 C 398.535156 378.039062 394.871094 384.410156 391.355469 389.976562 C 393.113281 380.609375 396.488281 364.25 400.769531 347.941406 Z M 363.585938 344.136719 C 369.671875 315.609375 375.140625 308.808594 377.851562 307.195312 C 378.234375 306.917969 378.660156 306.777344 379.132812 306.765625 C 379.402344 306.726562 379.671875 306.726562 379.941406 306.765625 C 380.417969 306.765625 381.320312 308.097656 381.703125 311.234375 C 383.269531 323.976562 374.902344 352.601562 357.925781 377.328125 C 359.164062 367.578125 361.113281 355.453125 363.585938 343.902344 Z M 289.839844 420.59375 C 306.765625 389.453125 317.132812 368.292969 323.121094 355.027344 C 323.742188 353.648438 324.359375 352.269531 324.976562 350.984375 C 324.691406 361.398438 324.976562 373.238281 325.308594 385.078125 C 325.59375 391.449219 326.070312 399.339844 326.832031 408.042969 C 321.320312 411.71875 315.429688 414.617188 309.160156 416.746094 C 302.886719 418.875 296.445312 420.15625 289.839844 420.59375 Z M 289.839844 420.59375 " fill-opacity="1" fill-rule="nonzero"/><path fill="#58595b" d="M 571.941406 405.949219 C 571.800781 405.777344 571.644531 405.617188 571.472656 405.472656 C 571.300781 405.332031 571.113281 405.207031 570.917969 405.101562 C 570.71875 405 570.511719 404.914062 570.296875 404.855469 C 570.078125 404.792969 569.859375 404.753906 569.636719 404.738281 C 569.414062 404.722656 569.191406 404.730469 568.96875 404.761719 C 568.746094 404.792969 568.53125 404.84375 568.320312 404.921875 C 568.109375 404.996094 567.90625 405.09375 567.714844 405.210938 C 567.527344 405.328125 567.347656 405.464844 567.1875 405.617188 C 546.265625 423.589844 538.65625 420.976562 536.945312 419.882812 C 533.664062 417.648438 532.191406 410.371094 535.519531 395.777344 C 535.851562 394.824219 536.136719 393.824219 536.46875 392.78125 C 536.542969 392.398438 536.542969 392.019531 536.46875 391.640625 C 537.421875 388.40625 538.515625 384.792969 539.941406 380.894531 C 540.085938 380.484375 540.148438 380.066406 540.125 379.636719 C 540.105469 379.203125 540 378.792969 539.816406 378.402344 C 539.632812 378.015625 539.378906 377.675781 539.058594 377.382812 C 538.738281 377.09375 538.375 376.878906 537.96875 376.734375 C 537.5625 376.585938 537.140625 376.527344 536.710938 376.546875 C 536.28125 376.570312 535.867188 376.671875 535.480469 376.859375 C 535.089844 377.042969 534.75 377.296875 534.460938 377.617188 C 534.167969 377.9375 533.953125 378.300781 533.808594 378.707031 L 533.378906 379.941406 C 531.898438 379.222656 530.355469 378.679688 528.75 378.308594 C 527.144531 377.941406 525.515625 377.757812 523.871094 377.757812 C 522.222656 377.757812 520.597656 377.941406 518.992188 378.308594 C 517.386719 378.679688 515.84375 379.222656 514.359375 379.941406 C 511.601562 381.519531 509.152344 383.484375 507.007812 385.828125 C 504.863281 388.175781 503.132812 390.792969 501.808594 393.683594 C 501.652344 393.890625 501.527344 394.109375 501.425781 394.347656 C 498.984375 399.734375 496.101562 404.867188 492.773438 409.753906 C 489.445312 414.507812 483.265625 422.496094 478.175781 420.359375 C 474.230469 418.644531 476.84375 408.28125 478.984375 399.960938 C 479.792969 396.726562 480.648438 393.398438 481.21875 390.449219 C 481.683594 388.941406 481.917969 387.394531 481.917969 385.8125 C 481.917969 384.234375 481.683594 382.6875 481.21875 381.179688 C 478.984375 376.851562 476.703125 376.898438 470.804688 375.566406 L 469 375.566406 L 468.570312 373.808594 C 468.332031 372.65625 468 371.53125 467.574219 370.433594 C 465.957031 366.582031 463.960938 366.199219 462.390625 366.25 C 461.71875 366.242188 461.082031 366.382812 460.472656 366.664062 C 459.863281 366.949219 459.347656 367.347656 458.917969 367.863281 C 457.941406 368.964844 457.402344 370.25 457.304688 371.714844 C 457.214844 372.710938 457.320312 373.6875 457.613281 374.644531 C 457.910156 375.597656 458.378906 376.460938 459.015625 377.230469 C 456.777344 384.828125 454.050781 392.246094 450.835938 399.484375 C 444.035156 414.273438 437.09375 421.738281 431.152344 420.5 C 430.382812 420.285156 429.699219 419.914062 429.105469 419.375 C 428.511719 418.839844 428.066406 418.203125 427.777344 417.457031 C 423.019531 407.425781 430.628906 380.84375 439.519531 356.929688 L 443.75 356.546875 C 462.769531 355.074219 499.714844 351.792969 507.941406 350.796875 C 508.53125 350.703125 509.058594 350.472656 509.53125 350.109375 C 510.003906 349.75 510.363281 349.292969 510.605469 348.75 C 510.828125 348.261719 510.941406 347.746094 510.941406 347.207031 C 510.941406 346.664062 510.828125 346.152344 510.605469 345.660156 C 510.34375 345.167969 509.964844 344.800781 509.464844 344.554688 C 508.964844 344.308594 508.441406 344.234375 507.894531 344.328125 C 480.792969 347.609375 472.375 348.464844 445.082031 350.175781 L 441.992188 350.175781 C 446.746094 337.957031 451.5 326.925781 454.832031 319.9375 C 455.015625 319.546875 455.117188 319.132812 455.136719 318.703125 C 455.15625 318.269531 455.09375 317.851562 454.945312 317.445312 C 454.796875 317.039062 454.578125 316.675781 454.289062 316.359375 C 453.996094 316.039062 453.65625 315.789062 453.261719 315.605469 C 452.871094 315.421875 452.460938 315.320312 452.027344 315.300781 C 451.597656 315.28125 451.179688 315.347656 450.773438 315.492188 C 450.367188 315.640625 450.003906 315.859375 449.6875 316.152344 C 449.367188 316.445312 449.117188 316.785156 448.933594 317.179688 C 448.933594 317.179688 441.898438 332.15625 434.667969 350.460938 C 433.25 350.535156 431.855469 350.757812 430.484375 351.128906 C 429.992188 351.328125 429.570312 351.621094 429.210938 352.015625 C 428.851562 352.40625 428.597656 352.855469 428.441406 353.363281 C 428.042969 354.296875 428.042969 355.234375 428.441406 356.167969 C 428.703125 356.632812 429.070312 356.980469 429.550781 357.214844 C 430.027344 357.453125 430.53125 357.53125 431.054688 357.453125 L 431.863281 357.453125 C 431.578125 358.164062 431.292969 358.878906 431.054688 359.640625 C 419.976562 390.640625 416.792969 410.421875 421.546875 420.167969 C 421.894531 420.976562 422.328125 421.734375 422.851562 422.441406 C 423.371094 423.148438 423.964844 423.789062 424.632812 424.363281 C 425.300781 424.9375 426.023438 425.425781 426.804688 425.832031 C 427.582031 426.242188 428.398438 426.554688 429.25 426.777344 C 430.160156 426.964844 431.078125 427.058594 432.007812 427.0625 C 448.648438 427.0625 460.535156 394.0625 464.339844 380.609375 L 468.808594 381.414062 L 471.710938 381.796875 C 475.277344 382.082031 474.324219 385.171875 473.992188 387.644531 C 473.660156 390.117188 472.804688 394.777344 470.617188 404 C 468.382812 413.796875 467.429688 423.019531 474.941406 426.207031 C 476.324219 426.804688 477.765625 427.109375 479.269531 427.109375 C 485.117188 427.109375 490.679688 422.355469 495.292969 416.410156 C 495.242188 417.34375 495.3125 418.261719 495.503906 419.175781 C 495.691406 420.089844 495.996094 420.960938 496.414062 421.796875 C 496.828125 422.628906 497.347656 423.394531 497.960938 424.09375 C 498.578125 424.792969 499.273438 425.402344 500.046875 425.921875 C 501.703125 426.84375 503.480469 427.285156 505.375 427.253906 C 507.234375 427.066406 509.054688 426.699219 510.835938 426.140625 C 512.621094 425.585938 514.328125 424.855469 515.964844 423.953125 C 517.597656 423.050781 519.125 421.992188 520.546875 420.777344 C 521.964844 419.5625 523.246094 418.21875 524.394531 416.742188 C 525.296875 415.753906 526.105469 414.691406 526.816406 413.558594 C 526.902344 414.699219 527.113281 415.820312 527.449219 416.914062 C 527.785156 418.011719 528.234375 419.054688 528.804688 420.050781 C 529.371094 421.046875 530.039062 421.964844 530.8125 422.8125 C 531.585938 423.660156 532.441406 424.410156 533.378906 425.066406 C 535.5625 426.542969 537.972656 427.257812 540.605469 427.203125 C 548.308594 427.203125 558.675781 421.640625 571.5625 410.5625 C 571.890625 410.28125 572.15625 409.949219 572.351562 409.5625 C 572.550781 409.175781 572.667969 408.765625 572.703125 408.335938 C 572.738281 407.902344 572.691406 407.480469 572.558594 407.066406 C 572.425781 406.65625 572.21875 406.28125 571.941406 405.949219 Z M 520.207031 412.226562 C 515.453125 418.457031 507.132812 421.738281 504.234375 419.976562 C 501.332031 418.21875 501.285156 411.371094 507.941406 396.203125 C 507.953125 396.027344 507.953125 395.855469 507.941406 395.679688 C 508.960938 393.507812 510.28125 391.539062 511.902344 389.769531 C 513.523438 388 515.375 386.515625 517.449219 385.316406 C 518.578125 384.800781 519.75 384.421875 520.964844 384.179688 C 522.179688 383.9375 523.40625 383.839844 524.644531 383.882812 C 525.882812 383.929688 527.101562 384.117188 528.292969 384.445312 C 529.488281 384.777344 530.628906 385.242188 531.714844 385.839844 C 530.859375 388.644531 530.097656 391.257812 529.527344 393.777344 C 527.621094 400.535156 524.515625 406.683594 520.207031 412.226562 Z M 520.207031 412.226562 " fill-opacity="1" fill-rule="nonzero"/></svg>