<svg width="130" height="32" viewBox="0 0 130 32" fill="none" xmlns="http://www.w3.org/2000/svg">
<path fill-rule="evenodd" clip-rule="evenodd" d="M128.268 28.369C128.469 28.369 128.649 28.3836 128.649 28.5968C128.649 28.8259 128.335 28.7902 128.107 28.7902H127.85V28.369H128.268ZM128.441 29.0326C128.667 29.0246 128.891 28.9028 128.891 28.5703C128.891 28.2167 128.619 28.1226 128.312 28.1226H127.607V29.8087H127.85V29.0326H128.163L128.589 29.8087H128.868L128.441 29.0326ZM128.185 30.4551C129.021 30.4551 129.685 29.7915 129.685 28.9557C129.685 28.1213 129.021 27.4551 128.185 27.4551C127.346 27.4551 126.685 28.1213 126.685 28.9557C126.685 29.7915 127.346 30.4551 128.185 30.4551ZM128.185 27.7001C128.868 27.7001 129.443 28.2432 129.443 28.9557C129.443 29.6617 128.868 30.2127 128.185 30.2127C127.498 30.2127 126.928 29.6617 126.928 28.9557C126.928 28.2432 127.498 27.7001 128.185 27.7001Z" fill="#58595B"/>
<path fill-rule="evenodd" clip-rule="evenodd" d="M11.3844 22.7178C11.502 22.7178 11.502 22.6474 11.4787 22.5541L9.23436 16.2425C9.11675 15.8921 8.99914 15.8921 8.88153 16.2425L6.80136 22.5541C6.75481 22.6717 6.80136 22.7178 6.87364 22.7178H11.3844ZM8.92809 13.3668C9.21108 12.5957 9.30541 12.4551 9.44752 12.4551C9.58963 12.4551 9.68396 12.5715 9.96695 13.2965C10.321 14.1851 14.0293 23.8392 15.4712 27.3926C16.3214 29.4731 17.0074 29.8477 17.5036 29.9871C17.8564 30.1047 18.2117 30.1277 18.4481 30.1277C18.5902 30.1277 18.6846 30.1496 18.6846 30.2684C18.6846 30.4078 18.4702 30.4551 18.2117 30.4551C17.8564 30.4551 16.1327 30.4551 14.5022 30.4078C14.0538 30.386 13.7929 30.386 13.7929 30.2453C13.7929 30.1496 13.8651 30.1047 13.9595 30.0817C14.1016 30.0344 14.2425 29.8246 14.1016 29.45L11.9038 23.6998C11.8572 23.6052 11.8095 23.5591 11.6919 23.5591H6.61392C6.49509 23.5591 6.42281 23.6295 6.37626 23.7471L4.95885 27.8849C4.74691 28.468 4.62808 29.0293 4.62808 29.45C4.62808 29.9168 5.12546 30.1277 5.52606 30.1277H5.7625C5.92788 30.1277 5.99894 30.175 5.99894 30.2684C5.99894 30.4078 5.85683 30.4551 5.64489 30.4551C5.07768 30.4551 4.0621 30.386 3.80238 30.386C3.54022 30.386 2.24286 30.4551 1.13172 30.4551C0.826679 30.4551 0.68457 30.4078 0.68457 30.2684C0.68457 30.175 0.777676 30.1277 0.896508 30.1277C1.06189 30.1277 1.39266 30.1047 1.58132 30.0817C2.66796 29.941 3.14084 29.0536 3.56472 27.8849L8.92809 13.3668Z" fill="#58595B"/>
<path fill-rule="evenodd" clip-rule="evenodd" d="M30.9705 27.1415C31.0171 29.0422 31.2524 29.6441 31.8922 29.8291C32.3408 29.9457 32.8617 29.9685 33.0737 29.9685C33.1914 29.9685 33.2637 30.0141 33.2637 30.1079C33.2637 30.246 33.1191 30.2917 32.8384 30.2917C31.489 30.2917 30.5452 30.2232 30.332 30.2232C30.1199 30.2232 29.1259 30.2917 28.0633 30.2917C27.8267 30.2917 27.6846 30.2689 27.6846 30.1079C27.6846 30.0141 27.7557 29.9685 27.8758 29.9685C28.0633 29.9685 28.4886 29.9457 28.8428 29.8291C29.4336 29.6669 29.5512 28.9953 29.5512 26.8868L29.5757 13.6133C29.5757 12.7098 29.6481 12.4551 29.8356 12.4551C30.0256 12.4551 30.4276 12.9645 30.6629 13.1964C31.0171 13.5892 34.5384 17.3197 38.1786 21.1415C40.5183 23.5972 43.0946 26.4242 43.8484 27.1884L43.5898 15.4202C43.5665 13.9148 43.4011 13.4042 42.6693 13.2192C42.2428 13.1267 41.6999 13.1027 41.5111 13.1027C41.3456 13.1027 41.3199 13.0342 41.3199 12.9405C41.3199 12.8023 41.5111 12.7795 41.793 12.7795C42.8569 12.7795 43.993 12.8492 44.2517 12.8492C44.5127 12.8492 45.291 12.7795 46.2605 12.7795C46.5203 12.7795 46.6846 12.8023 46.6846 12.9405C46.6846 13.0342 46.5926 13.1027 46.4272 13.1027C46.3071 13.1027 46.1404 13.1027 45.8597 13.1723C45.079 13.3357 44.9834 13.8439 44.9834 15.2352L44.9356 28.8091C44.9356 30.3397 44.8902 30.4551 44.7248 30.4551C44.536 30.4551 44.2517 30.2004 42.999 28.9713C42.7392 28.7406 39.3356 25.3357 36.8316 22.695C34.0886 19.7983 31.4191 16.8788 30.6629 16.045L30.9705 27.1415Z" fill="#58595B"/>
<path fill-rule="evenodd" clip-rule="evenodd" d="M70.3809 17.0268C70.4741 16.6629 70.5207 16.3449 70.5207 16.0739C70.5207 15.8313 70.4864 15.5677 70.4214 15.2831C70.3552 14.9997 70.2337 14.7361 70.0596 14.4923C69.8842 14.2498 69.6499 14.0406 69.3555 13.8637C69.0612 13.6904 68.6711 13.6013 68.1916 13.6013C67.306 13.6013 66.4425 13.8513 65.5987 14.3512C64.7536 14.8512 63.9637 15.5071 63.2265 16.3164C62.4906 17.1295 61.8123 18.0552 61.1966 19.0959C60.5809 20.1367 60.0498 21.1898 59.6095 22.2578C59.1655 23.327 58.8257 24.3603 58.5853 25.3615C58.3437 26.3614 58.2235 27.2401 58.2235 27.9962C58.2235 28.8625 58.3891 29.5641 58.7252 30.1049C59.06 30.6457 59.6168 30.9143 60.3932 30.9143C61.1696 30.9143 61.9608 30.6717 62.7641 30.1866C63.5687 29.699 64.3047 29.1186 64.9744 28.4429C65.6453 27.766 66.2193 27.0916 66.7025 26.4146C67.1846 25.7402 67.4937 25.2118 67.6274 24.8343L69.7578 18.8732C70.0792 18.0069 70.2865 17.3931 70.3809 17.0268ZM69.0587 27.8848C68.8833 28.5345 68.7962 29.1149 68.7962 29.6285C68.7962 30.3326 69.5211 30.6829 70.192 30.6829C70.7268 30.6829 71.2101 30.5282 71.6393 30.2176C72.0674 29.9045 72.4354 29.5542 72.7432 29.1632C73.0535 28.7696 73.3062 28.3774 73.5074 27.9851C73.7073 27.594 73.8496 27.3156 73.8398 27.3824L74.3635 27.6658C74.3193 27.7351 74.117 28.115 73.8496 28.5741C73.5822 29.0345 73.2338 29.4738 72.8046 29.8933C72.3753 30.3128 71.881 30.6754 71.3155 30.9873C70.755 31.2979 70.0976 31.4551 69.347 31.4551C67.5795 31.4551 66.6952 30.6433 66.6952 29.0196C66.6952 28.8315 66.7344 28.4999 66.8154 28.0247C66.8951 27.5544 67.0043 27.1275 67.1392 26.75H67.057C66.6817 27.2091 66.2536 27.714 65.7716 28.2697C65.2883 28.8241 64.745 29.3389 64.1428 29.8104C63.5418 30.2844 62.877 30.6754 62.1533 30.9873C61.4321 31.2979 60.6251 31.4551 59.7432 31.4551C59.1777 31.4551 58.8196 31.2719 58.2787 31.0306C57.7648 30.8029 57.3723 30.4156 56.97 29.996C56.5677 29.5765 56.2525 29.0419 56.0255 28.3922C55.7974 27.7437 55.6846 26.9728 55.6846 26.0817C55.6846 25.0001 55.8968 23.9186 56.326 22.8357C56.7541 21.7541 57.3122 20.7183 57.9941 19.7332C58.6773 18.7457 59.3887 17.9339 60.2865 17.0961C61.1856 16.257 62.0957 15.5269 63.0205 14.9057C63.9453 14.2844 64.6923 13.9169 65.5901 13.5654C66.4891 13.214 67.2852 13.0382 67.9818 13.0382C68.7852 13.0382 69.4684 13.2672 70.0314 13.7275C70.5919 14.1867 70.8752 14.7943 70.8752 15.5529H70.9562L76.0598 1.02186H72.5237L72.6844 0.455078H78.6846L69.6806 25.8553C69.4389 26.5594 69.2304 27.2351 69.0587 27.8848Z" fill="#58595B"/>
<path fill-rule="evenodd" clip-rule="evenodd" d="M94.3858 22.7178C94.5034 22.7178 94.5034 22.6474 94.4802 22.5541L92.2355 16.2425C92.1179 15.8921 92.0003 15.8921 91.8826 16.2425L89.8022 22.5541C89.7532 22.6717 89.8022 22.7178 89.872 22.7178H94.3858ZM91.928 13.3668C92.2122 12.5957 92.3066 12.4551 92.4475 12.4551C92.5896 12.4551 92.6852 12.5715 92.9682 13.2965C93.3235 14.1851 97.0311 23.8392 98.472 27.3926C99.3223 29.4731 100.008 29.8477 100.506 29.9871C100.86 30.1047 101.213 30.1277 101.449 30.1277C101.593 30.1277 101.685 30.1496 101.685 30.2684C101.685 30.4078 101.474 30.4551 101.213 30.4551C100.86 30.4551 99.1348 30.4551 97.5041 30.4078C97.0556 30.386 96.7959 30.386 96.7959 30.2453C96.7959 30.1496 96.8657 30.1047 96.96 30.0817C97.1009 30.0344 97.2443 29.8246 97.1009 29.45L94.9053 23.6998C94.8575 23.6052 94.8097 23.5591 94.6909 23.5591H89.6123C89.4947 23.5591 89.4248 23.6295 89.377 23.7471L87.9607 27.8849C87.7462 28.468 87.6286 29.0293 87.6286 29.45C87.6286 29.9168 88.1236 30.1277 88.5279 30.1277H88.7632C88.9286 30.1277 88.9984 30.175 88.9984 30.2684C88.9984 30.4078 88.8575 30.4551 88.6456 30.4551C88.0783 30.4551 87.0626 30.386 86.8016 30.386C86.5418 30.386 85.2431 30.4551 84.1318 30.4551C83.8255 30.4551 83.6846 30.4078 83.6846 30.2684C83.6846 30.175 83.7777 30.1277 83.8965 30.1277C84.0619 30.1277 84.3915 30.1047 84.5802 30.0817C85.6682 29.941 86.14 29.0536 86.5651 27.8849L91.928 13.3668Z" fill="#58595B"/>
<path fill-rule="evenodd" clip-rule="evenodd" d="M118.961 29.3959C121.503 29.3959 122.278 28.9493 122.786 28.2428C123.006 27.9377 123.224 27.3019 123.271 26.9725C123.322 26.7382 123.368 26.5966 123.489 26.5966C123.634 26.5966 123.685 26.6906 123.685 27.1372C123.685 27.8657 123.344 29.2556 123.2 29.8437C123.054 30.4075 123.03 30.4551 122.474 30.4551C118.428 30.4551 114.36 30.3379 110.12 30.3379C109.83 30.3379 109.685 30.3135 109.685 30.1488C109.685 30.0316 109.734 29.9145 110.025 29.4899C113.632 24.1964 117.289 18.9017 120.656 13.585H115.401C114.166 13.585 112.689 13.6546 111.912 14.0561C111.041 14.5027 110.605 15.3727 110.534 15.9145C110.485 16.2672 110.387 16.3379 110.266 16.3379C110.146 16.3379 110.12 16.2196 110.12 16.0329C110.12 15.7498 110.485 13.6094 110.605 12.9029C110.654 12.5722 110.702 12.4551 110.846 12.4551C111.065 12.4551 111.212 12.5954 111.864 12.6198C114.166 12.715 115.328 12.6918 116.079 12.6918H122.837C123.2 12.6918 123.322 12.7382 123.322 12.8785C123.322 12.9725 123.322 13.0201 123.224 13.1616C119.71 18.5734 116.054 23.9841 112.374 29.3959H118.961Z" fill="#58595B"/>
</svg>