<svg width="86" height="82" viewBox="0 0 86 82" fill="none" xmlns="http://www.w3.org/2000/svg">
<path d="M0.0387244 74.06L0.802426 74.0497L0.753968 80.7585L-0.00976562 80.7691V81.0937C1.89209 81.0726 3.33546 81.0621 4.62098 80.3945C5.28693 80.0618 5.71071 79.6354 5.71071 79.0944C5.71071 78.543 5.26272 77.9294 4.52414 77.4924C4.1967 77.3053 3.88132 77.1908 3.59021 77.0765C4.45127 76.7322 5.52887 76.2121 5.52887 75.2755C5.52887 74.485 4.80239 74.0481 4.47547 73.9028C4.08765 73.7472 3.68735 73.6957 2.60766 73.6957C1.55308 73.6957 0.935596 73.7267 0.0144713 73.768L0.0387244 74.06ZM2.07389 74.0792C2.58339 74.0689 3.23848 74.0583 3.74797 74.5059C4.02698 74.7451 4.29387 75.2029 4.29387 75.5877C4.29387 76.4514 3.09292 77.0652 2.64405 77.2629C2.54702 77.3045 2.3893 77.3774 2.3893 77.5022C2.3893 77.6167 2.51061 77.6583 2.58339 77.679C2.71683 77.7206 2.85028 77.752 2.98373 77.7936C4.08755 78.1587 4.47567 78.9184 4.47567 79.3553C4.47567 79.7404 4.23308 80.0631 3.76002 80.2919C3.18989 80.573 2.5106 80.6251 1.97685 80.6667C2.01326 76.982 2.02537 76.1392 2.07389 74.0792ZM7.30005 81.1129C7.60303 80.5925 7.67571 80.4572 8.56053 79.1879C8.75467 78.8965 8.96077 78.6051 9.16656 78.3034C9.65145 77.5856 9.67568 77.5856 10.1486 77.5751H11.7483C12.1001 77.5751 12.3059 77.5648 12.4878 77.544C12.6696 77.5232 12.815 77.4816 13.0211 77.4295C13.4576 78.1994 14.197 79.4169 14.6454 80.1971C15.0211 80.8525 15.0334 80.8944 15.118 81.1752C15.6998 81.0086 15.8455 80.9776 16.415 80.9152C16.0393 80.1868 15.8939 79.9475 14.5969 77.752C13.1788 75.339 12.5 73.997 12.4758 73.9244C12.4151 73.7994 12.4031 73.7475 12.3909 73.633C11.9544 73.6851 11.7848 73.6954 11.3364 73.7162C10.7666 74.9228 9.94251 76.0252 9.1181 77.1176C8.76663 77.5856 8.42743 78.0433 8.06368 78.5011C7.77262 78.8549 7.48185 79.2087 7.20306 79.573C6.66975 80.2411 6.46367 80.5419 6.11218 81.071L7.30005 81.1129ZM11.6637 74.7881C12.0513 75.5788 12.197 75.891 12.8392 77.0873C12.5243 77.1811 12.3182 77.2332 11.5545 77.2332C11.203 77.2332 10.7546 77.2332 10.4032 77.2124C10.1728 77.2019 10.0759 77.1916 10.0759 77.0873C10.0759 77.0355 10.1971 76.8481 10.2455 76.7649C10.682 76.0887 11.1423 75.4227 11.6637 74.7881ZM18.3546 81.0086C18.3546 79.9165 18.403 78.7825 18.4637 77.6693C18.488 76.8789 18.5122 76.5251 18.5122 76.0363C18.5122 75.7449 18.5003 75.4432 18.5003 75.1416C18.7668 75.4848 18.779 75.4951 19.8945 76.4522C21.0707 77.4822 22.2592 78.4911 23.4473 79.5109C24.7207 80.5719 24.7207 80.5822 25.3872 81.196C25.7987 80.9568 25.9561 80.8631 26.3799 80.6446C26.283 80.5095 26.2345 80.3534 26.2103 80.1974C26.1254 79.6667 26.1134 78.3561 26.1134 77.9502C26.1134 77.2532 26.1376 76.5564 26.1619 75.8696C26.198 74.8815 26.2103 74.7254 26.2223 73.6019C25.7745 73.7162 25.6414 73.7475 25.1207 73.8412C25.1814 74.8294 25.1933 75.1726 25.1933 77.0244V77.9918C25.1933 78.7617 25.2056 78.9594 25.2783 79.5835C24.5266 78.9073 24.4174 78.8138 23.4473 78.0023C22.7563 77.4406 21.0587 75.9944 20.5978 75.5888C19.4096 74.5485 18.9974 74.0492 18.6091 73.5812C18.0037 73.6746 17.8829 73.6851 17.3983 73.7059C17.4955 74.434 17.5317 75.2558 17.5317 76.0673C17.5317 77.0142 17.3621 80.3951 17.3379 80.7799C17.3256 80.9462 17.3014 81.1129 17.2894 81.2792L18.3546 81.0086ZM32.2351 77.7528C33.011 77.1181 33.6778 76.5667 35.0962 75.0271C35.6538 74.4132 35.9326 74.07 36.2721 73.633L36.2479 73.5811C35.775 73.6227 35.6538 73.6227 35.2174 73.6435C35.0478 73.9868 34.9509 74.1947 34.4053 74.8502C33.9566 75.3808 33.5443 75.828 32.9506 76.3898C32.5261 76.7746 32.3565 76.8891 31.9566 77.17C31.3635 76.6498 31.1454 76.4522 29.8607 75.1C29.1816 74.3821 28.9755 74.1326 28.3088 73.3105C27.715 73.5498 27.5574 73.6019 26.9268 73.758C27.3028 74.2468 27.339 74.2782 27.9573 74.892C28.2118 75.1521 29.2908 76.2858 29.5092 76.5148C30.1152 77.1284 30.4182 77.399 30.9758 77.8878V78.9281C30.9638 79.3132 30.9516 79.6875 30.9516 80.0621V81.1647C31.545 81.1337 31.6781 81.1231 32.2958 81.1023C32.2473 80.4885 32.2473 80.3013 32.2351 79.6772V77.7528ZM35.3426 81.1129C35.6456 80.5925 35.7186 80.4572 36.6034 79.1879C36.7973 78.8965 37.0034 78.6051 37.2095 78.3034C37.6944 77.5856 37.7186 77.5856 38.1912 77.5751H39.7913C40.1427 77.5751 40.3488 77.5648 40.5304 77.544C40.7123 77.5232 40.8579 77.4816 41.0637 77.4295C41.5002 78.1994 42.2396 79.4169 42.688 80.1971C43.0637 80.8525 43.076 80.8944 43.1609 81.1752C43.7427 81.0086 43.8881 80.9776 44.4579 80.9152C44.0819 80.1868 43.9365 79.9475 42.6395 77.752C41.2214 75.339 40.5427 73.997 40.5184 73.9244C40.4577 73.7994 40.4457 73.7475 40.4335 73.633C39.9974 73.6851 39.8274 73.6954 39.379 73.7162C38.8092 74.9228 37.9851 76.0252 37.161 77.1176C36.8092 77.5856 36.47 78.0433 36.1063 78.5011C35.8156 78.8549 35.5245 79.2087 35.2457 79.573C34.7124 80.2411 34.5063 80.5419 34.1548 81.071L35.3426 81.1129ZM39.7063 74.7881C40.0943 75.5788 40.2396 75.891 40.8822 77.0873C40.5669 77.1811 40.3608 77.2332 39.5971 77.2332C39.2456 77.2332 38.7972 77.2332 38.4458 77.2124C38.2154 77.2019 38.1185 77.1916 38.1185 77.0873C38.1185 77.0355 38.2397 76.8481 38.2881 76.7649C38.7246 76.0887 39.1852 75.4227 39.7063 74.7881ZM46.3975 81.0086C46.3975 79.9165 46.4459 78.7825 46.5064 77.6693C46.5306 76.8789 46.5548 76.5251 46.5548 76.0363C46.5548 75.7449 46.5429 75.4432 46.5429 75.1416C46.8097 75.4848 46.8216 75.4951 47.9371 76.4522C49.1133 77.4822 50.3018 78.4911 51.4902 79.5109C52.7633 80.5719 52.7633 80.5822 53.4298 81.196C53.8413 80.9568 53.9987 80.8631 54.4228 80.6446C54.3256 80.5095 54.2771 80.3534 54.2529 80.1974C54.1679 79.6667 54.156 78.3561 54.156 77.9502C54.156 77.2532 54.1802 76.5564 54.2044 75.8696C54.241 74.8815 54.2529 74.7254 54.2652 73.6019C53.8171 73.7162 53.684 73.7475 53.1636 73.8412C53.224 74.8294 53.2363 75.1726 53.2363 77.0244V77.9918C53.2363 78.7617 53.2482 78.9594 53.3209 79.5835C52.5692 78.9073 52.46 78.8138 51.4902 78.0023C50.7989 77.4406 49.1013 75.9944 48.6407 75.5888C47.4522 74.5485 47.04 74.0492 46.652 73.5812C46.0466 73.6746 45.9255 73.6851 45.4412 73.7059C45.5381 74.434 45.5743 75.2558 45.5743 76.0673C45.5743 77.0142 45.4047 80.3951 45.3805 80.7799C45.3682 80.9462 45.344 81.1129 45.332 81.2792L46.3975 81.0086ZM58.279 74.0381C58.7277 74.121 59.0307 74.1831 59.7217 74.1831C60.3884 74.1831 60.7399 74.1831 61.4432 74.2145C61.4554 74.9949 61.4674 75.7649 61.4674 76.5348C61.4797 76.9094 61.4554 78.5843 61.4554 78.9278C61.4554 80.1034 61.4554 80.2387 61.3947 81.0918C61.9759 81.0815 62.1574 81.0918 62.7509 81.1337C62.7147 80.4261 62.7024 79.9994 62.7024 79.4687C62.7024 79.0942 62.7266 77.4295 62.7266 77.0863C62.7266 75.6296 62.7266 75.4735 62.7509 74.2561C64.1694 74.2768 64.4601 74.2666 65.3452 74.1834L65.8182 73.5706L65.7817 73.5396C65.0057 73.7267 63.7571 73.7475 62.0728 73.7475C61.3705 73.7475 60.631 73.7475 59.8551 73.6957C59.3095 73.6643 59.1156 73.633 58.6792 73.5498L58.279 74.0381ZM66.0982 74.0273H66.7892C66.8134 74.5995 66.8376 75.026 66.8376 75.6711C66.8376 76.5035 66.8015 77.6582 66.765 78.5635C66.7288 79.708 66.7045 80.041 66.5711 81.1129L67.9396 81.0294C67.9638 80.2595 67.9758 79.5001 67.988 78.7301C68 77.8041 68 76.8886 68.0242 75.9728C68.0607 74.9323 68.1092 74.5785 68.1941 74.0065C68.7278 74.0065 69.4436 74.0065 70.05 74.5266C70.5232 74.9428 70.6928 75.5253 70.6928 76.0873C70.6928 76.389 70.3533 76.8259 70.05 77.0965C69.4679 77.6272 68.7643 77.752 68.1699 77.8665C68.7643 78.4179 69.1768 78.803 70.5717 79.8954C71.2016 80.3845 71.8432 80.8525 72.51 81.3105L73.6251 80.6446C72.2796 79.8746 71.6012 79.3545 69.6255 77.7417C70.1107 77.544 70.4383 77.4087 70.9836 76.9196C71.8797 76.1184 72.037 75.5151 72.037 75.1405C72.037 74.8491 71.9401 74.6098 71.6497 74.3497C70.8262 73.6227 69.3952 73.6227 68.9584 73.6227C68.5097 73.6227 68.073 73.6435 67.6369 73.6641C67.1161 73.6957 66.6076 73.7165 66.0982 73.7475V74.0273ZM79.4195 80.3648L79.2742 80.2503C78.7408 80.5417 78.4256 80.5417 77.2497 80.5522H75.6739L75.8192 77.5648H77.3104C77.9407 77.5648 78.0741 77.5751 78.5709 77.6272L79.3469 76.8373L79.2499 76.7535C78.6439 76.9207 78.3164 76.9626 77.48 76.9626H75.8435L75.8919 74.2144C76.2192 74.2144 76.5587 74.2039 76.8859 74.2039C77.3589 74.2039 77.771 74.2144 78.3406 74.2458L79.0923 73.7683L79.0316 73.6227C78.5951 73.7059 78.1833 73.7788 76.8859 73.7788C76.3403 73.7788 75.9162 73.7683 75.5285 73.7475C75.1292 73.737 74.778 73.7162 74.3781 73.6851C74.4873 74.121 74.5477 74.3811 74.5962 75.0054C74.6204 75.474 74.6327 75.9425 74.6327 76.4214C74.6327 77.5543 74.5842 78.5535 74.4873 79.553C74.4143 80.2503 74.3781 80.5417 74.257 81.1544C74.8142 81.092 75.2381 81.0297 76.4495 81.0297C76.9467 81.0297 77.4923 81.0297 77.9529 81.061C78.2317 81.0818 78.3529 81.1128 78.5347 81.1544L79.4195 80.3648ZM85.9902 80.3648L85.8445 80.2503C85.3112 80.5417 84.9962 80.5417 83.82 80.5522H82.2446L82.3896 77.5648H83.8808C84.511 77.5648 84.6444 77.5751 85.1416 77.6272L85.9175 76.8373L85.8203 76.7535C85.2143 76.9207 84.887 76.9626 84.0504 76.9626H82.4138L82.4623 74.2144C82.7898 74.2144 83.129 74.2039 83.4566 74.2039C83.9292 74.2039 84.3414 74.2144 84.9112 74.2458L85.663 73.7683L85.6022 73.6227C85.1658 73.7059 84.7536 73.7788 83.4566 73.7788C82.911 73.7788 82.4865 73.7683 82.0991 73.7475C81.6995 73.737 81.3484 73.7162 80.9484 73.6851C81.0576 74.121 81.1184 74.3811 81.1668 75.0054C81.1911 75.474 81.203 75.9425 81.203 76.4214C81.203 77.5543 81.1546 78.5535 81.0576 79.553C80.985 80.2503 80.9484 80.5417 80.8273 81.1544C81.3849 81.092 81.8084 81.0297 83.0202 81.0297C83.517 81.0297 84.0626 81.0297 84.5233 81.061C84.8021 81.0818 84.9232 81.1128 85.1051 81.1544L85.9902 80.3648Z" fill="#58595B"/>
<path d="M61.5082 19.1755C62.6285 17.4972 62.9418 16.1148 62.6564 14.1068C60.4197 13.7955 58.591 14.6995 57.4507 16.6795C56.4027 18.4993 57.4488 22.0567 57.4807 22.086C57.4875 22.0991 60.4262 20.7968 61.5082 19.1755ZM60.5371 5.1816C60.1389 5.05572 58.8261 4.68375 57.8332 5.04824C56.6835 5.47017 55.7047 7.35417 55.6682 7.35262C55.7059 7.31678 57.5203 7.86646 58.5569 7.41804C59.6194 6.95843 60.4136 5.58639 60.5371 5.1816ZM55.6612 3.29685C55.6612 3.29685 52.3737 3.10562 50.8668 4.35449C49.3602 5.60322 48.4556 9.45475 48.4556 9.45475C48.4556 9.45475 52.1772 8.8284 53.5995 7.91164C55.0215 6.99488 55.6612 3.29685 55.6612 3.29685ZM45.2957 12.3475C46.4231 5.9167 49.2425 0.950342 49.2425 0.950342L45.7677 0.47043C45.7677 0.47043 44.2403 3.52866 42.7647 7.69539C42.2758 6.87367 41.2348 5.8734 40.2941 4.67711C39.1247 3.18996 39.0008 2.53811 37.3885 0.790244L32.6551 0.569281C32.6551 0.569281 36.9912 6.08779 39.2899 9.93496C39.9278 11.0022 40.4004 11.5684 40.8666 12.7071C40.5353 14.5216 40.2656 16.2622 40.055 17.3672C39.2249 21.7189 38.6097 24.874 38.1419 28.2275C36.3402 27.4971 34.5206 27.1101 32.1831 26.4775C28.1541 25.3872 25.8548 24.8546 21.7587 24.0647L21.6011 27.437C22.3969 27.5906 24.7614 27.5968 27.2921 28.3967C28.768 28.8632 29.5773 29.239 30.9245 30.0097C29.104 36.2868 28.2614 40.7438 27.2921 46.379C26.4403 51.3305 26.0715 57.0804 26.0715 57.0804L30.6097 59.0557C30.6097 59.0557 30.9775 51.3025 31.5534 46.379C31.9881 42.6664 31.9213 40.4848 32.9696 36.9013C33.6265 34.6555 34.1681 33.5711 35.1374 31.3122C35.1374 31.3122 37.0712 32.2523 37.8737 32.7291C37.6264 37.5638 37.1454 42.4813 36.9164 49.1115C36.7785 53.1132 37.0731 59.6334 37.0731 59.6334C37.0731 59.6334 39.6396 60.2401 41.4813 60.3059C42.7904 60.3529 46.0825 60.0289 46.0825 60.0289C46.0825 60.0289 44.091 49.5528 43.8663 39.6341C44.5435 39.3004 45.463 38.747 46.5543 38.3543C47.457 38.0296 47.9842 38.1032 48.9277 37.7146C48.8869 38.948 49.1346 44.8988 49.1659 48.4219C49.2008 52.3538 50.6584 59.9204 50.6584 59.9204L56.3493 57.9361C56.3493 57.9361 56.1909 55.0016 56.1921 53.1242C56.1942 49.4194 56.1992 47.2967 56.8214 43.6465C57.4102 40.1913 58.7262 36.2154 59.1817 34.9818C60.748 34.725 62.0268 34.342 62.0268 34.342L62.1019 31.091C58.3877 31.339 56.3772 31.5621 52.797 32.3349C49.0972 33.133 46.7578 33.4212 43.7088 34.662C43.4314 29.2827 44.0714 19.3298 45.2957 12.3475ZM52.2449 41.7269C52.26 39.9205 52.3544 37.384 52.4436 36.4214C53.3095 36.1702 54.2738 35.9368 55.2483 35.7262C54.9994 36.7025 54.3244 39.6111 53.9759 41.4069C53.2681 45.0537 53.5038 47.9785 52.8745 51.5109C52.3326 48.1486 52.2174 45.1344 52.2449 41.7269ZM42.4502 5.12272C42.4502 5.12272 43.8639 3.55618 43.7088 2.38987C43.5788 1.41237 42.2926 0.310547 42.2926 0.310547C42.2926 0.310547 40.9133 1.51 40.8636 2.54998C40.8066 3.73277 42.4502 5.12272 42.4502 5.12272ZM33.3905 4.57103C31.8514 7.13199 31.6663 9.46192 32.7805 12.2409C33.8291 14.8556 38.0132 17.1528 38.0132 17.1528C38.0132 17.1528 38.6091 12.5886 37.6104 9.97483C36.6519 7.46697 35.576 6.08903 33.3905 4.57103ZM31.7849 14.7584C31.7849 14.7584 31.3141 10.8654 29.8096 8.81502C28.3052 6.76461 26.9301 6.01455 24.5806 5.49042C23.9534 7.87208 24.0086 9.46534 25.7055 11.7077C27.8745 14.5742 31.7849 14.7584 31.7849 14.7584ZM30.8169 8.08864C30.8169 8.08864 31.7251 6.06129 31.3962 4.803C31.0268 3.38806 30.2323 2.53009 28.8655 2.06987C28.0701 3.27736 27.9481 4.4218 28.4707 5.77429C28.9366 6.98086 30.8169 8.08864 30.8169 8.08864ZM25.8554 12.9635C24.7979 11.7828 23.8633 11.269 22.3126 11.0162C22.0572 12.8111 22.4101 14.0947 23.5442 15.4947C24.6318 16.8378 27.4291 17.5695 27.4291 17.5695C27.4291 17.5695 27.1146 14.3695 25.8554 12.9635ZM29.6524 16.0398C28.9216 18.6473 28.6353 20.2696 30.769 22.898C32.9034 25.5268 37.0461 26.3946 37.0461 26.3946C37.0461 26.3946 37.4237 20.4497 35.363 18.203C33.3025 15.9565 32.0237 15.8821 29.6524 16.0398ZM29.4442 23.6599C29.4442 23.6599 28.2322 20.0165 26.3937 18.7209C24.7516 17.5632 23.4121 17.2189 21.4261 17.4442C21.4338 19.4021 21.9782 20.7009 23.3618 22.0629C25.1216 23.7952 29.4442 23.6599 29.4442 23.6599ZM20.9902 33.9123C20.9902 33.9123 23.1086 36.05 25.7812 35.2874C29.6524 34.1821 29.8826 31.0589 29.8826 31.0589C29.8826 31.0589 27.6446 29.4512 25.2335 29.8498C22.822 30.2484 20.9902 33.9123 20.9902 33.9123ZM57.1199 24.7422C55.6514 26.3466 55.1441 30.0667 55.1465 29.9922C55.2198 29.995 58.9373 29.7429 60.611 28.2369C62.3659 26.658 63.0641 25.0061 62.9841 22.6251C60.5742 22.3337 59.5093 22.1315 57.1199 24.7422ZM47.6682 23.96C45.6083 26.3791 45.4419 30.1686 45.7472 31.9283C46.4038 31.9887 51.6589 30.2942 53.9759 27.437C56.1921 24.7044 56.0327 23.6471 56.0348 21.0118C52.6434 20.349 49.9282 21.3057 47.6682 23.96ZM48.8226 12.7279C46.7115 15.3427 46.8691 21.172 46.8691 21.172C46.8691 21.172 52.5254 19.8031 54.6024 17.0628C56.5225 14.5294 57.1019 12.3019 56.6641 9.13504C53.312 9.00977 50.9505 10.092 48.8226 12.7279Z" fill="#58595B"/>
</svg>