<svg xmlns="http://www.w3.org/2000/svg" xmlns:xlink="http://www.w3.org/1999/xlink" width="1080" zoomAndPan="magnify" viewBox="0 0 810 809.999993" height="1080" preserveAspectRatio="xMidYMid meet" version="1.0"><rect x="-81" width="972" fill="#ffffff" y="-80.999999" height="971.999992" fill-opacity="1"/><rect x="-81" width="972" fill="#ffffff" y="-80.999999" height="971.999992" fill-opacity="1"/><path fill="#58595b" d="M 412.226562 358.335938 L 404.300781 334.089844 L 396.375 358.335938 L 370.726562 358.335938 L 391.246094 373.722656 L 383.316406 398.433594 L 404.300781 383.046875 L 425.285156 398.433594 L 417.359375 373.722656 L 437.871094 358.335938 Z M 412.226562 358.335938 " fill-opacity="1" fill-rule="nonzero"/><path fill="#58595b" d="M 465.847656 377.457031 L 461.183594 364.398438 L 456.988281 377.457031 L 443.464844 377.457031 L 454.660156 385.382812 L 450.460938 398.433594 L 461.183594 390.042969 L 472.375 398.433594 L 468.175781 385.382812 L 479.371094 377.457031 Z M 465.847656 377.457031 " fill-opacity="1" fill-rule="nonzero"/><path fill="#58595b" d="M 351.613281 377.457031 L 347.414062 364.398438 L 342.753906 377.457031 L 329.230469 377.457031 L 340.421875 385.382812 L 336.226562 398.433594 L 347.414062 390.042969 L 358.140625 398.433594 L 353.941406 385.382812 L 365.136719 377.457031 Z M 351.613281 377.457031 " fill-opacity="1" fill-rule="nonzero"/><path fill="#58595b" d="M 412.226562 358.335938 L 404.300781 334.089844 L 396.375 358.335938 L 370.726562 358.335938 L 391.246094 373.722656 L 383.316406 398.433594 L 404.300781 383.046875 L 425.285156 398.433594 L 417.359375 373.722656 L 437.871094 358.335938 Z M 412.226562 358.335938 " fill-opacity="1" fill-rule="nonzero"/><path fill="#58595b" d="M 465.847656 377.457031 L 461.183594 364.398438 L 456.988281 377.457031 L 443.464844 377.457031 L 454.660156 385.382812 L 450.460938 398.433594 L 461.183594 390.042969 L 472.375 398.433594 L 468.175781 385.382812 L 479.371094 377.457031 Z M 465.847656 377.457031 " fill-opacity="1" fill-rule="nonzero"/><path fill="#58595b" d="M 351.613281 377.457031 L 347.414062 364.398438 L 342.753906 377.457031 L 329.230469 377.457031 L 340.421875 385.382812 L 336.226562 398.433594 L 347.414062 390.042969 L 358.140625 398.433594 L 353.941406 385.382812 L 365.136719 377.457031 Z M 351.613281 377.457031 " fill-opacity="1" fill-rule="nonzero"/><path fill="#58595b" d="M 429.480469 418.019531 C 429.941406 417.980469 430.398438 417.984375 430.859375 418.039062 C 431.320312 418.09375 431.769531 418.191406 432.207031 418.335938 C 432.648438 418.480469 433.070312 418.667969 433.46875 418.898438 C 433.871094 419.125 434.246094 419.390625 434.59375 419.695312 C 434.945312 420 435.257812 420.339844 435.539062 420.707031 C 435.820312 421.074219 436.058594 421.464844 436.261719 421.882812 C 436.460938 422.300781 436.621094 422.730469 436.734375 423.179688 C 436.847656 423.628906 436.917969 424.082031 436.9375 424.546875 C 436.957031 425 436.933594 425.457031 436.863281 425.90625 C 436.796875 426.359375 436.683594 426.800781 436.53125 427.230469 C 436.382812 427.660156 436.191406 428.074219 435.957031 428.46875 C 435.726562 428.863281 435.460938 429.230469 435.160156 429.574219 C 434.859375 429.921875 434.53125 430.230469 434.171875 430.511719 C 433.808594 430.792969 433.425781 431.039062 433.019531 431.246094 C 432.613281 431.453125 432.191406 431.621094 431.75 431.75 C 431.3125 431.878906 430.867188 431.964844 430.410156 432.003906 L 429.480469 432.003906 C 429.035156 432.050781 428.589844 432.054688 428.144531 432.011719 C 427.703125 431.972656 427.265625 431.886719 426.835938 431.761719 C 426.410156 431.632812 426 431.464844 425.605469 431.257812 C 425.207031 431.046875 424.839844 430.804688 424.492188 430.523438 C 424.144531 430.242188 423.828125 429.929688 423.542969 429.585938 C 423.261719 429.242188 423.011719 428.871094 422.800781 428.480469 C 422.585938 428.085938 422.414062 427.675781 422.285156 427.25 C 422.152344 426.824219 422.0625 426.386719 422.019531 425.945312 L 422.019531 425.011719 C 422.011719 424.550781 422.046875 424.09375 422.132812 423.636719 C 422.214844 423.183594 422.34375 422.742188 422.515625 422.316406 C 422.6875 421.886719 422.902344 421.480469 423.15625 421.09375 C 423.410156 420.710938 423.703125 420.355469 424.027344 420.027344 C 424.355469 419.703125 424.710938 419.410156 425.097656 419.15625 C 425.480469 418.902344 425.886719 418.6875 426.316406 418.515625 C 426.742188 418.34375 427.183594 418.214844 427.640625 418.128906 C 428.09375 418.046875 428.550781 418.007812 429.011719 418.019531 Z M 429.480469 418.019531 " fill-opacity="1" fill-rule="nonzero"/><path fill="#58595b" d="M 482.632812 418.484375 L 482.632812 419.882812 C 484.03125 420.222656 485.121094 421 485.898438 422.214844 C 486.273438 422.605469 486.429688 423.074219 486.363281 423.613281 L 486.363281 468.839844 C 486.503906 470.058594 486.191406 471.144531 485.429688 472.105469 C 485.039062 472.628906 484.558594 473.050781 483.992188 473.375 C 483.425781 473.699219 482.816406 473.898438 482.167969 473.96875 L 482.167969 474.902344 L 505.945312 474.902344 L 505.945312 473.503906 C 504.546875 473.160156 503.457031 472.382812 502.683594 471.171875 C 502.089844 470.164062 501.777344 469.078125 501.75 467.90625 L 501.75 424.546875 C 501.609375 423.328125 501.921875 422.242188 502.683594 421.28125 C 503.25 420.398438 504.027344 419.773438 505.011719 419.417969 C 505.480469 419.417969 505.480469 418.949219 505.945312 418.949219 L 505.945312 417.550781 Z M 482.632812 418.484375 " fill-opacity="1" fill-rule="nonzero"/><path fill="#58595b" d="M 412.226562 435.269531 C 409.796875 435.335938 407.621094 436.113281 405.699219 437.601562 C 403.679688 440.308594 402.128906 443.261719 401.035156 446.460938 L 400.570312 447.859375 L 400.570312 436.203125 L 382.386719 436.203125 L 382.386719 437.601562 C 383.277344 438.078125 384.054688 438.699219 384.71875 439.464844 C 385.113281 439.910156 385.390625 440.421875 385.554688 440.992188 C 385.71875 441.5625 385.75 442.144531 385.648438 442.730469 L 385.648438 468.839844 C 385.621094 470.007812 385.3125 471.097656 384.71875 472.105469 C 384.152344 472.988281 383.375 473.609375 382.386719 473.96875 L 382.386719 474.902344 L 406.164062 474.902344 L 406.164062 473.503906 C 404.53125 473.082031 402.976562 472.460938 401.503906 471.636719 C 401.261719 471.449219 401.058594 471.230469 400.886719 470.976562 C 400.714844 470.722656 400.589844 470.449219 400.503906 470.15625 C 400.421875 469.863281 400.386719 469.566406 400.394531 469.261719 C 400.40625 468.957031 400.464844 468.660156 400.570312 468.375 L 400.570312 449.257812 L 401.035156 449.257812 C 403.023438 448.71875 405.042969 448.40625 407.097656 448.324219 C 408.984375 448.246094 410.847656 448.402344 412.691406 448.792969 L 416.421875 435.734375 C 415.023438 435.734375 413.625 435.269531 412.226562 435.269531 Z M 412.226562 435.269531 " fill-opacity="1" fill-rule="nonzero"/><path fill="#58595b" d="M 378.65625 450.191406 C 378.65625 439 369.796875 435.269531 361.871094 435.269531 C 360.320312 435.171875 358.773438 435.242188 357.238281 435.480469 C 355.699219 435.71875 354.207031 436.121094 352.757812 436.683594 C 351.308594 437.25 349.9375 437.960938 348.644531 438.824219 C 347.351562 439.683594 346.164062 440.675781 345.085938 441.796875 C 344.183594 442.722656 343.382812 443.726562 342.675781 444.8125 C 341.972656 445.894531 341.378906 447.035156 340.902344 448.238281 C 340.421875 449.4375 340.0625 450.671875 339.824219 451.941406 C 339.585938 453.210938 339.476562 454.492188 339.488281 455.785156 C 339.488281 468.839844 347.417969 475.835938 360.472656 475.835938 L 361.40625 475.835938 C 363.066406 475.777344 364.691406 475.503906 366.277344 475.003906 C 367.863281 474.507812 369.355469 473.804688 370.753906 472.902344 C 372.148438 472 373.398438 470.925781 374.503906 469.683594 C 375.609375 468.4375 376.527344 467.070312 377.257812 465.578125 L 377.257812 465.109375 L 376.324219 464.179688 C 373.628906 465.964844 370.675781 467.054688 367.464844 467.441406 C 366.652344 467.472656 365.839844 467.417969 365.035156 467.285156 C 364.230469 467.152344 363.449219 466.941406 362.6875 466.648438 C 361.925781 466.355469 361.199219 465.992188 360.511719 465.554688 C 359.824219 465.117188 359.1875 464.617188 358.597656 464.050781 C 358.011719 463.484375 357.484375 462.867188 357.023438 462.195312 C 356.5625 461.523438 356.167969 460.8125 355.847656 460.0625 C 355.53125 459.3125 355.289062 458.539062 355.125 457.742188 C 354.960938 456.941406 354.878906 456.132812 354.875 455.320312 L 354.875 454.386719 L 378.191406 454.386719 C 378.636719 453.019531 378.792969 451.621094 378.65625 450.191406 Z M 365.132812 452.054688 L 355.34375 453.453125 L 354.875 453.453125 L 354.875 452.988281 C 354.875 442.730469 356.742188 438.535156 361.40625 438.535156 C 363.734375 438.535156 366.066406 439.933594 366.066406 445.527344 C 365.921875 447.726562 365.609375 449.902344 365.132812 452.054688 Z M 365.132812 452.054688 " fill-opacity="1" fill-rule="nonzero"/><path fill="#58595b" d="M 554.902344 471.636719 C 554.664062 471.449219 554.457031 471.230469 554.289062 470.976562 C 554.117188 470.722656 553.988281 470.453125 553.90625 470.15625 C 553.820312 469.863281 553.785156 469.566406 553.796875 469.261719 C 553.808594 468.957031 553.867188 468.660156 553.972656 468.375 L 553.972656 445.992188 C 553.972656 444.480469 553.734375 443.003906 553.253906 441.570312 C 552.777344 440.132812 552.082031 438.8125 551.171875 437.601562 C 550.050781 436.695312 548.808594 436.003906 547.449219 435.523438 C 546.089844 435.046875 544.6875 434.804688 543.246094 434.804688 C 541.683594 434.738281 540.167969 434.988281 538.710938 435.558594 C 537.25 436.125 535.964844 436.960938 534.855469 438.066406 L 528.792969 443.195312 L 528.792969 435.734375 L 510.140625 435.734375 L 510.140625 437.601562 C 511.183594 438.058594 512.117188 438.679688 512.941406 439.464844 C 513.800781 440.203125 514.265625 441.132812 514.339844 442.261719 L 514.339844 468.375 C 514.3125 469.542969 514 470.632812 513.40625 471.636719 C 512.746094 472.402344 511.96875 473.027344 511.074219 473.503906 L 511.074219 474.902344 L 533.457031 474.902344 L 533.457031 473.503906 C 532.523438 473.035156 531.589844 472.105469 530.660156 471.636719 C 530.417969 471.449219 530.210938 471.230469 530.042969 470.976562 C 529.871094 470.722656 529.746094 470.449219 529.660156 470.15625 C 529.578125 469.863281 529.539062 469.566406 529.550781 469.261719 C 529.5625 468.957031 529.621094 468.660156 529.726562 468.375 L 529.726562 445.992188 C 530.191406 445.992188 533.457031 442.730469 535.789062 442.730469 C 536.71875 442.730469 537.1875 442.730469 537.652344 443.195312 C 538.117188 443.195312 538.117188 443.664062 538.585938 444.128906 C 539.050781 444.59375 539.050781 444.59375 539.050781 445.0625 C 539.050781 445.527344 539.050781 445.527344 539.515625 445.992188 C 539.515625 446.460938 539.984375 447.390625 539.984375 447.859375 L 539.984375 468.375 C 539.957031 469.542969 539.644531 470.632812 539.050781 471.636719 C 538.585938 472.570312 537.652344 473.035156 537.1875 473.503906 L 537.1875 474.902344 L 559.101562 474.902344 L 559.101562 473.503906 C 556.300781 473.503906 555.371094 472.570312 554.902344 471.636719 Z M 554.902344 471.636719 " fill-opacity="1" fill-rule="nonzero"/><path fill="#58595b" d="M 605.261719 471.636719 C 605.019531 471.449219 604.8125 471.230469 604.644531 470.976562 C 604.472656 470.722656 604.347656 470.453125 604.261719 470.15625 C 604.179688 469.863281 604.140625 469.566406 604.152344 469.261719 C 604.164062 468.957031 604.222656 468.660156 604.328125 468.375 L 604.328125 445.992188 C 604.328125 444.480469 604.089844 443.003906 603.609375 441.570312 C 603.132812 440.132812 602.4375 438.8125 601.53125 437.601562 C 600.40625 436.695312 599.164062 436.003906 597.804688 435.523438 C 596.445312 435.046875 595.046875 434.804688 593.605469 434.804688 C 592.039062 434.738281 590.527344 434.988281 589.066406 435.558594 C 587.605469 436.125 586.320312 436.960938 585.210938 438.066406 L 579.148438 443.195312 L 579.148438 435.734375 L 560.5 435.734375 L 560.5 437.601562 C 561.539062 438.058594 562.472656 438.679688 563.296875 439.464844 C 564.15625 440.203125 564.621094 441.132812 564.695312 442.261719 L 564.695312 468.375 C 564.667969 469.542969 564.355469 470.632812 563.761719 471.636719 C 563.101562 472.402344 562.324219 473.027344 561.429688 473.503906 L 561.429688 474.902344 L 583.8125 474.902344 L 583.8125 473.503906 C 582.878906 473.035156 581.945312 472.105469 581.015625 471.636719 C 580.773438 471.449219 580.570312 471.230469 580.398438 470.976562 C 580.226562 470.722656 580.101562 470.449219 580.015625 470.15625 C 579.933594 469.863281 579.898438 469.566406 579.90625 469.261719 C 579.917969 468.957031 579.976562 468.660156 580.082031 468.375 L 580.082031 445.992188 C 580.546875 445.992188 583.8125 442.730469 586.144531 442.730469 C 587.074219 442.730469 587.542969 442.730469 588.007812 443.195312 C 588.476562 443.195312 588.476562 443.664062 588.941406 444.128906 C 589.40625 444.59375 589.40625 444.59375 589.40625 445.0625 C 589.40625 445.527344 589.40625 445.527344 589.875 445.992188 C 589.875 446.460938 590.339844 447.390625 590.339844 447.859375 L 590.339844 468.375 C 590.3125 469.542969 590 470.632812 589.40625 471.636719 C 588.941406 472.570312 588.007812 473.035156 587.542969 473.503906 L 587.542969 474.902344 L 609.457031 474.902344 L 609.457031 473.503906 C 606.660156 473.503906 605.726562 472.570312 605.261719 471.636719 Z M 605.261719 471.636719 " fill-opacity="1" fill-rule="nonzero"/><path fill="#58595b" d="M 476.105469 448.324219 C 473.773438 439.933594 470.511719 438.535156 467.246094 438.535156 C 463.050781 438.535156 458.386719 441.796875 458.386719 452.054688 C 458.386719 460.914062 463.050781 467.441406 470.976562 467.441406 C 472.582031 467.359375 474.144531 467.039062 475.652344 466.480469 C 477.164062 465.925781 478.558594 465.15625 479.835938 464.175781 L 480.769531 465.109375 C 480.425781 465.949219 480.019531 466.757812 479.550781 467.535156 C 479.082031 468.308594 478.554688 469.042969 477.972656 469.738281 C 477.386719 470.429688 476.753906 471.074219 476.066406 471.667969 C 475.382812 472.257812 474.652344 472.796875 473.882812 473.273438 C 473.113281 473.753906 472.3125 474.167969 471.476562 474.519531 C 470.640625 474.871094 469.78125 475.15625 468.902344 475.375 C 468.023438 475.59375 467.128906 475.738281 466.226562 475.816406 C 465.324219 475.894531 464.421875 475.898438 463.515625 475.835938 C 462.914062 475.878906 462.3125 475.898438 461.707031 475.886719 C 461.105469 475.875 460.503906 475.832031 459.902344 475.761719 C 459.304688 475.691406 458.707031 475.59375 458.117188 475.464844 C 457.527344 475.339844 456.945312 475.183594 456.371094 475 C 455.796875 474.8125 455.230469 474.601562 454.675781 474.363281 C 454.121094 474.125 453.582031 473.859375 453.050781 473.570312 C 452.523438 473.277344 452.011719 472.960938 451.511719 472.621094 C 451.015625 472.277344 450.535156 471.914062 450.070312 471.527344 C 449.609375 471.140625 449.164062 470.730469 448.742188 470.300781 C 448.316406 469.871094 447.917969 469.421875 447.535156 468.949219 C 447.15625 468.480469 446.800781 467.996094 446.46875 467.492188 C 446.136719 466.988281 445.828125 466.46875 445.546875 465.933594 C 445.261719 465.402344 445.007812 464.855469 444.777344 464.296875 C 444.546875 463.738281 444.347656 463.171875 444.171875 462.59375 C 443.996094 462.015625 443.851562 461.429688 443.734375 460.839844 C 443.617188 460.246094 443.527344 459.648438 443.464844 459.046875 L 443.464844 455.785156 C 443.464844 445.527344 450.925781 435.269531 466.78125 435.269531 C 471.109375 435.324219 475.304688 436.101562 479.367188 437.601562 L 477.039062 447.859375 Z M 476.105469 448.324219 " fill-opacity="1" fill-rule="nonzero"/><path fill="#58595b" d="M 438.335938 471.636719 C 437.742188 470.632812 437.433594 469.542969 437.40625 468.375 L 437.40625 436.203125 L 419.6875 436.203125 L 419.6875 437.601562 C 420.550781 437.980469 421.171875 438.601562 421.550781 439.464844 C 422.144531 440.472656 422.457031 441.5625 422.484375 442.730469 L 422.484375 468.839844 C 422.625 470.058594 422.3125 471.144531 421.550781 472.105469 C 421.160156 472.628906 420.679688 473.050781 420.113281 473.375 C 419.546875 473.699219 418.9375 473.898438 418.289062 473.96875 L 418.289062 474.902344 L 441.601562 474.902344 L 441.601562 473.503906 C 440.953125 473.433594 440.34375 473.234375 439.777344 472.910156 C 439.207031 472.585938 438.730469 472.160156 438.335938 471.636719 Z M 438.335938 471.636719 " fill-opacity="1" fill-rule="nonzero"/><path fill="#58595b" d="M 259.757812 468.839844 L 240.640625 418.484375 L 224.324219 418.484375 L 225.722656 422.214844 C 225.722656 422.214844 215.464844 449.257812 210.800781 460.914062 C 209.75 463.644531 208.503906 466.289062 207.070312 468.839844 C 206.375 470.054688 205.453125 471.070312 204.316406 471.882812 C 203.175781 472.695312 201.917969 473.238281 200.542969 473.503906 L 200.542969 474.902344 L 219.195312 474.902344 L 219.195312 473.503906 C 214.066406 472.570312 213.132812 471.636719 216.863281 461.378906 L 219.195312 454.851562 L 238.3125 454.851562 L 243.441406 468.375 C 243.824219 469.105469 243.980469 469.882812 243.90625 470.707031 C 243.90625 472.105469 243.441406 472.570312 240.640625 473.503906 L 240.640625 474.902344 L 263.023438 474.902344 L 263.023438 473.503906 C 262.148438 473.019531 261.425781 472.367188 260.851562 471.550781 C 260.277344 470.730469 259.914062 469.828125 259.757812 468.839844 Z M 220.59375 451.121094 L 228.054688 428.742188 L 236.445312 451.121094 Z M 220.59375 451.121094 " fill-opacity="1" fill-rule="nonzero"/><path fill="#58595b" d="M 335.292969 471.636719 C 335.054688 471.449219 334.847656 471.230469 334.675781 470.976562 C 334.507812 470.722656 334.378906 470.453125 334.296875 470.15625 C 334.210938 469.863281 334.175781 469.566406 334.1875 469.261719 C 334.199219 468.957031 334.257812 468.660156 334.359375 468.375 L 334.359375 445.992188 C 334.363281 444.480469 334.121094 443.003906 333.644531 441.570312 C 333.164062 440.132812 332.472656 438.8125 331.5625 437.601562 C 330.441406 436.695312 329.199219 436.003906 327.839844 435.523438 C 326.480469 435.046875 325.078125 434.804688 323.636719 434.804688 C 322.070312 434.738281 320.558594 434.988281 319.097656 435.558594 C 317.640625 436.125 316.355469 436.960938 315.246094 438.066406 L 309.183594 443.664062 L 309.183594 442.730469 C 308.714844 440.765625 307.785156 439.054688 306.386719 437.601562 C 305.261719 436.695312 304.019531 436.003906 302.660156 435.523438 C 301.300781 435.046875 299.902344 434.804688 298.460938 434.804688 C 296.894531 434.738281 295.382812 434.988281 293.921875 435.558594 C 292.460938 436.125 291.175781 436.960938 290.066406 438.066406 L 284.003906 443.664062 L 284.003906 436.203125 L 265.355469 436.203125 L 265.355469 437.601562 C 266.394531 438.058594 267.328125 438.679688 268.152344 439.464844 C 268.546875 439.910156 268.824219 440.421875 268.988281 440.992188 C 269.152344 441.5625 269.183594 442.144531 269.085938 442.730469 L 269.085938 468.839844 C 269.054688 470.007812 268.746094 471.097656 268.152344 472.105469 C 267.488281 472.871094 266.710938 473.492188 265.820312 473.96875 L 265.820312 474.902344 L 288.203125 474.902344 L 288.203125 473.503906 C 287.269531 473.035156 286.335938 472.105469 285.402344 471.636719 C 285.164062 471.449219 284.957031 471.230469 284.789062 470.976562 C 284.617188 470.722656 284.488281 470.449219 284.40625 470.15625 C 284.324219 469.863281 284.285156 469.566406 284.296875 469.261719 C 284.308594 468.957031 284.367188 468.660156 284.472656 468.375 L 284.472656 445.992188 C 286.242188 444.441406 288.261719 443.351562 290.53125 442.730469 C 291.464844 442.730469 291.929688 442.730469 292.398438 443.195312 C 292.863281 443.195312 292.863281 443.664062 293.332031 444.128906 C 293.796875 444.59375 293.796875 444.59375 293.796875 445.0625 C 293.796875 445.527344 293.796875 445.527344 294.261719 445.992188 C 294.261719 446.460938 294.730469 447.390625 294.730469 447.859375 L 294.730469 468.375 C 294.703125 469.542969 294.390625 470.632812 293.796875 471.636719 C 293.332031 472.570312 292.398438 473.035156 291.929688 473.503906 L 291.929688 474.902344 L 313.847656 474.902344 L 313.847656 473.503906 C 312.914062 473.035156 311.980469 472.105469 311.046875 471.636719 C 310.808594 471.449219 310.601562 471.230469 310.433594 470.976562 C 310.261719 470.722656 310.132812 470.449219 310.050781 470.15625 C 309.96875 469.863281 309.929688 469.566406 309.941406 469.261719 C 309.953125 468.957031 310.011719 468.660156 310.117188 468.375 L 310.117188 445.992188 C 310.582031 445.992188 313.847656 442.730469 316.175781 442.730469 C 317.109375 442.730469 317.574219 442.730469 318.042969 443.195312 C 318.507812 443.195312 318.507812 443.664062 318.976562 444.128906 C 319.441406 444.59375 319.441406 444.59375 319.441406 445.0625 C 319.441406 445.527344 319.441406 445.527344 319.90625 445.992188 C 319.90625 446.460938 320.375 447.390625 320.375 447.859375 L 320.375 468.375 C 320.347656 469.542969 320.035156 470.632812 319.441406 471.636719 C 318.976562 472.570312 318.042969 473.035156 317.574219 473.503906 L 317.574219 474.902344 L 339.488281 474.902344 L 339.488281 473.503906 C 336.691406 473.035156 335.761719 472.570312 335.292969 471.636719 Z M 335.292969 471.636719 " fill-opacity="1" fill-rule="nonzero"/></svg>