<svg xmlns="http://www.w3.org/2000/svg" xmlns:xlink="http://www.w3.org/1999/xlink" width="1080" zoomAndPan="magnify" viewBox="0 0 810 809.999993" height="1080" preserveAspectRatio="xMidYMid meet" version="1.0"><rect x="-81" width="972" fill="#ffffff" y="-80.999999" height="971.999992" fill-opacity="1"/><rect x="-81" width="972" fill="#ffffff" y="-80.999999" height="971.999992" fill-opacity="1"/><path fill="#58595b" d="M 323.167969 466.8125 C 323.167969 470.332031 326.117188 471.566406 329.921875 471.566406 L 335.816406 471.566406 L 335.816406 460.632812 C 330.398438 461.011719 323.457031 462.058594 323.167969 466.8125 Z M 323.167969 466.8125 " fill-opacity="1" fill-rule="nonzero"/><path fill="#58595b" d="M 282.5625 441.421875 L 276.003906 441.421875 L 276.003906 470.234375 L 282.5625 470.234375 C 288.460938 470.234375 292.976562 466.667969 292.976562 455.972656 C 292.976562 445.273438 288.460938 441.421875 282.5625 441.421875 Z M 282.5625 441.421875 " fill-opacity="1" fill-rule="nonzero"/><path fill="#58595b" d="M 495.339844 422.070312 C 495.769531 418.597656 496.007812 415.078125 496.101562 411.5625 C 496.136719 410.082031 496.132812 408.605469 496.097656 407.125 C 496.058594 405.648438 495.984375 404.171875 495.871094 402.695312 C 495.761719 401.222656 495.613281 399.75 495.429688 398.28125 C 495.246094 396.816406 495.027344 395.351562 494.773438 393.898438 C 494.519531 392.441406 494.230469 390.988281 493.902344 389.546875 C 493.578125 388.105469 493.214844 386.671875 492.820312 385.246094 C 492.421875 383.820312 491.992188 382.40625 491.527344 381.003906 C 491.058594 379.601562 490.558594 378.210938 490.027344 376.828125 C 489.492188 375.449219 488.925781 374.085938 488.324219 372.734375 C 487.722656 371.382812 487.085938 370.046875 486.421875 368.726562 C 485.753906 367.40625 485.054688 366.105469 484.324219 364.820312 C 483.59375 363.535156 482.832031 362.265625 482.039062 361.019531 C 481.246094 359.769531 480.421875 358.542969 479.570312 357.332031 C 478.714844 356.125 477.835938 354.9375 476.921875 353.773438 C 476.011719 352.609375 475.070312 351.46875 474.105469 350.351562 C 473.136719 349.230469 472.140625 348.136719 471.121094 347.066406 C 470.101562 346 469.054688 344.953125 467.980469 343.9375 C 466.90625 342.917969 465.8125 341.925781 464.691406 340.960938 C 463.570312 339.996094 462.425781 339.0625 461.257812 338.152344 C 460.089844 337.246094 458.902344 336.367188 457.691406 335.515625 C 456.480469 334.664062 455.25 333.847656 454 333.054688 C 452.75 332.265625 451.480469 331.507812 450.191406 330.78125 C 448.90625 330.054688 447.601562 329.359375 446.277344 328.695312 C 444.957031 328.035156 443.617188 327.402344 442.265625 326.804688 C 440.914062 326.207031 439.546875 325.644531 438.164062 325.113281 C 436.785156 324.582031 435.390625 324.085938 433.988281 323.625 C 432.582031 323.164062 431.167969 322.734375 429.742188 322.34375 C 428.316406 321.953125 426.878906 321.59375 425.4375 321.273438 C 423.992188 320.949219 422.542969 320.664062 421.085938 320.414062 C 419.628906 320.160156 418.164062 319.945312 416.699219 319.769531 C 415.230469 319.589844 413.757812 319.445312 412.285156 319.339844 C 410.808594 319.234375 409.332031 319.164062 407.851562 319.128906 C 406.375 319.09375 404.894531 319.097656 403.417969 319.132812 C 401.9375 319.171875 400.460938 319.246094 398.988281 319.359375 C 397.511719 319.46875 396.042969 319.617188 394.574219 319.800781 C 393.105469 319.980469 391.644531 320.199219 390.1875 320.457031 C 388.730469 320.710938 387.28125 321 385.839844 321.328125 C 384.398438 321.652344 382.964844 322.015625 381.539062 322.410156 C 380.113281 322.808594 378.699219 323.238281 377.296875 323.703125 C 375.890625 324.171875 374.5 324.671875 373.121094 325.203125 C 371.742188 325.738281 370.378906 326.304688 369.027344 326.90625 C 367.675781 327.507812 366.339844 328.140625 365.019531 328.808594 C 363.699219 329.476562 362.394531 330.175781 361.109375 330.90625 C 359.824219 331.636719 358.558594 332.398438 357.308594 333.191406 C 356.0625 333.984375 354.832031 334.808594 353.625 335.660156 C 352.417969 336.511719 351.230469 337.394531 350.066406 338.308594 C 348.902344 339.21875 347.761719 340.160156 346.640625 341.125 C 345.523438 342.09375 344.429688 343.085938 343.359375 344.109375 C 342.289062 345.128906 341.246094 346.175781 340.226562 347.25 C 339.210938 348.320312 338.21875 349.417969 337.253906 350.539062 C 336.289062 351.660156 335.351562 352.804688 334.445312 353.972656 C 333.535156 355.140625 332.65625 356.328125 331.808594 357.539062 C 330.957031 358.75 330.136719 359.980469 329.347656 361.230469 C 328.558594 362.480469 327.800781 363.75 327.074219 365.039062 C 326.347656 366.324219 325.652344 367.628906 324.988281 368.953125 C 324.324219 370.273438 323.695312 371.613281 323.097656 372.964844 C 322.5 374.316406 321.9375 375.683594 321.40625 377.0625 C 320.875 378.445312 320.378906 379.835938 319.917969 381.242188 C 319.453125 382.648438 319.027344 384.0625 318.636719 385.488281 C 318.242188 386.914062 317.886719 388.347656 317.5625 389.792969 C 317.242188 391.234375 316.957031 392.6875 316.703125 394.144531 C 316.453125 395.601562 316.238281 397.0625 316.058594 398.53125 C 315.878906 400 315.738281 401.472656 315.632812 402.945312 C 315.523438 404.421875 315.453125 405.898438 315.417969 407.378906 C 315.417969 408.804688 315.417969 410.183594 315.417969 411.5625 C 315.386719 415.078125 315.59375 418.582031 316.039062 422.070312 C 271.4375 425.207031 241.101562 429.203125 241.101562 429.203125 L 241.101562 491.015625 L 569.183594 491.015625 L 569.183594 429.203125 C 569.183594 429.203125 539.324219 425.207031 495.339844 422.070312 Z M 388.167969 418.980469 C 367.246094 419.265625 347.230469 420.121094 329.160156 421.214844 L 366.960938 411.277344 L 325.878906 402.859375 L 367.816406 403.191406 L 329.398438 386.457031 L 370.386719 395.488281 L 336.199219 371.144531 L 374.570312 388.5 L 346.039062 357.546875 L 379.609375 382.558594 L 358.308594 346.324219 L 385.980469 377.800781 L 372.667969 338.003906 L 393.351562 374.523438 L 388.597656 332.871094 L 401.195312 372.855469 L 405.238281 331.0625 L 409.992188 372.855469 L 422.640625 332.871094 L 417.886719 374.523438 L 438.285156 338.003906 L 425.019531 377.800781 L 452.832031 346.375 L 431.339844 382.605469 L 464.957031 357.453125 L 436.429688 388.40625 L 474.800781 371.050781 L 440.804688 395.488281 L 481.742188 386.410156 L 443.371094 403.144531 L 485.355469 402.8125 L 444.179688 411.230469 L 481.742188 421.167969 C 463.769531 420.074219 443.703125 419.214844 423.019531 418.929688 Z M 283.183594 477.699219 L 264.164062 477.699219 L 264.164062 433.957031 L 283.183594 433.957031 C 301.011719 433.957031 307.480469 444.085938 307.480469 455.875 C 307.480469 467.667969 301.011719 477.699219 283.183594 477.699219 Z M 349.179688 477.128906 C 342.871094 478.015625 336.53125 478.414062 330.160156 478.320312 C 317.796875 478.320312 311.757812 474.65625 311.949219 467.191406 C 311.949219 457.683594 324.453125 456.207031 337.054688 455.210938 L 337.054688 454.640625 C 337.054688 451.214844 333.058594 450.121094 329.445312 450.121094 C 325.832031 450.121094 321.21875 451.738281 318.652344 451.738281 C 318.011719 451.660156 317.4375 451.421875 316.933594 451.019531 C 316.429688 450.617188 316.066406 450.113281 315.847656 449.503906 C 315.085938 447.792969 314.375 445.605469 314.375 445.605469 C 319.9375 443.792969 325.640625 442.9375 331.492188 443.039062 C 341.429688 443.039062 348.988281 446.367188 348.988281 456.160156 Z M 370.242188 485.214844 L 362.445312 485.214844 L 367.199219 474.5625 L 351.269531 443.5625 L 358.308594 443.5625 C 359.074219 443.515625 359.828125 443.59375 360.566406 443.796875 C 361.308594 444 361.996094 444.316406 362.632812 444.746094 C 363.265625 445.175781 363.816406 445.695312 364.28125 446.308594 C 364.746094 446.917969 365.101562 447.589844 365.34375 448.316406 L 372.429688 462.582031 L 380.558594 443.5625 L 392.828125 443.5625 L 376.945312 480.554688 C 376.730469 481.261719 376.402344 481.914062 375.964844 482.511719 C 375.53125 483.109375 375.007812 483.621094 374.398438 484.042969 C 373.792969 484.464844 373.132812 484.777344 372.417969 484.976562 C 371.707031 485.175781 370.980469 485.257812 370.242188 485.214844 Z M 407.902344 478.320312 C 402.628906 478.605469 397.585938 477.652344 392.78125 475.464844 C 393.128906 474.363281 393.570312 473.300781 394.113281 472.28125 C 394.359375 471.644531 394.757812 471.125 395.308594 470.71875 C 395.859375 470.316406 396.472656 470.089844 397.15625 470.046875 C 400.289062 470.773438 403.457031 471.265625 406.664062 471.519531 C 409.898438 471.519531 412.703125 470.234375 412.511719 468.144531 C 412.324219 466.050781 410.085938 464.246094 405.617188 462.960938 C 396.679688 460.488281 394.730469 457.015625 394.730469 453.453125 C 394.730469 447.648438 401.195312 442.941406 410.894531 442.941406 C 415.847656 442.730469 420.605469 443.601562 425.160156 445.558594 C 424.785156 446.664062 424.34375 447.742188 423.828125 448.792969 C 423.582031 449.414062 423.1875 449.921875 422.648438 450.320312 C 422.105469 450.714844 421.503906 450.933594 420.832031 450.980469 C 418.074219 450.226562 415.269531 449.734375 412.417969 449.503906 C 408.992188 449.503906 407.664062 450.980469 407.664062 452.40625 C 407.664062 454.828125 410.800781 456.351562 414.605469 457.492188 C 424.113281 460.296875 426.113281 463.484375 426.113281 467.476562 C 426.300781 473.46875 419.265625 478.320312 407.902344 478.320312 Z M 454.640625 477.699219 L 441.5625 477.699219 L 441.5625 433.957031 L 448.171875 433.957031 C 452.929688 433.957031 454.734375 435.621094 454.734375 439.1875 Z M 501.808594 477.699219 L 489.585938 477.699219 L 489.585938 455.78125 C 489.566406 455.382812 489.507812 454.992188 489.410156 454.609375 C 489.308594 454.222656 489.175781 453.851562 489.003906 453.492188 C 488.832031 453.136719 488.625 452.796875 488.386719 452.480469 C 488.148438 452.164062 487.882812 451.871094 487.585938 451.605469 C 487.289062 451.339844 486.972656 451.105469 486.628906 450.90625 C 486.289062 450.703125 485.929688 450.535156 485.554688 450.40625 C 485.179688 450.273438 484.792969 450.179688 484.402344 450.125 C 484.007812 450.070312 483.613281 450.054688 483.214844 450.074219 L 482.929688 450.074219 C 481.617188 450.019531 480.335938 450.183594 479.078125 450.566406 C 477.824219 450.949219 476.664062 451.53125 475.609375 452.308594 L 475.609375 477.652344 L 463.484375 477.652344 L 463.484375 443.511719 L 469.476562 443.511719 C 472.519531 443.511719 474.230469 444.371094 475.179688 446.082031 C 478.535156 444.027344 482.183594 442.964844 486.117188 442.894531 C 494.582031 442.894531 501.808594 446.890625 501.808594 456.730469 Z M 547.835938 477.699219 L 535.660156 477.699219 L 535.660156 455.78125 C 535.640625 455.382812 535.582031 454.992188 535.484375 454.609375 C 535.382812 454.222656 535.25 453.851562 535.078125 453.492188 C 534.90625 453.136719 534.699219 452.796875 534.460938 452.480469 C 534.222656 452.164062 533.957031 451.871094 533.660156 451.605469 C 533.363281 451.339844 533.046875 451.105469 532.703125 450.90625 C 532.363281 450.703125 532.003906 450.535156 531.628906 450.40625 C 531.253906 450.273438 530.867188 450.179688 530.476562 450.125 C 530.082031 450.070312 529.6875 450.054688 529.289062 450.074219 L 529.003906 450.074219 C 527.6875 450.03125 526.398438 450.199219 525.136719 450.582031 C 523.871094 450.964844 522.707031 451.539062 521.636719 452.308594 L 521.636719 477.652344 L 509.605469 477.652344 L 509.605469 443.511719 L 515.644531 443.511719 C 518.734375 443.511719 520.398438 444.371094 521.300781 446.082031 C 524.667969 444.054688 528.3125 442.996094 532.238281 442.894531 C 540.796875 442.894531 547.929688 446.890625 547.929688 456.730469 Z M 547.835938 477.699219 " fill-opacity="1" fill-rule="nonzero"/></svg>