<svg xmlns="http://www.w3.org/2000/svg" xmlns:xlink="http://www.w3.org/1999/xlink" width="1080" zoomAndPan="magnify" viewBox="0 0 810 809.999993" height="1080" preserveAspectRatio="xMidYMid meet" version="1.0"><rect x="-81" width="972" fill="#ffffff" y="-80.999999" height="971.999992" fill-opacity="1"/><rect x="-81" width="972" fill="#ffffff" y="-80.999999" height="971.999992" fill-opacity="1"/><path fill="#58595b" d="M 219.941406 448.269531 L 219.941406 454.972656 L 212.476562 454.972656 L 212.476562 448.269531 L 210.054688 448.269531 L 210.054688 465.148438 L 212.476562 465.148438 L 212.476562 457.300781 L 219.941406 457.300781 L 219.941406 465.195312 L 222.367188 465.195312 L 222.367188 448.269531 Z M 219.941406 448.269531 " fill-opacity="1" fill-rule="nonzero"/><path fill="#58595b" d="M 233.828125 456.730469 C 233.785156 457.328125 233.800781 457.925781 233.878906 458.519531 C 233.957031 459.113281 234.09375 459.691406 234.289062 460.257812 C 234.480469 460.824219 234.734375 461.363281 235.039062 461.878906 C 235.34375 462.394531 235.695312 462.875 236.097656 463.316406 C 236.5 463.761719 236.945312 464.160156 237.425781 464.511719 C 237.910156 464.867188 238.425781 465.167969 238.96875 465.417969 C 239.511719 465.664062 240.078125 465.859375 240.660156 465.992188 C 241.242188 466.125 241.835938 466.199219 242.433594 466.214844 C 243.03125 466.230469 243.625 466.183594 244.214844 466.078125 C 244.804688 465.972656 245.378906 465.808594 245.933594 465.585938 C 246.488281 465.363281 247.015625 465.085938 247.515625 464.757812 C 248.015625 464.429688 248.476562 464.050781 248.902344 463.628906 C 249.324219 463.203125 249.703125 462.742188 250.03125 462.242188 C 250.359375 461.742188 250.636719 461.214844 250.859375 460.660156 C 251.082031 460.105469 251.246094 459.53125 251.351562 458.941406 C 251.457031 458.351562 251.503906 457.757812 251.488281 457.160156 C 251.476562 456.5625 251.398438 455.96875 251.265625 455.386719 C 251.132812 454.804688 250.9375 454.238281 250.691406 453.695312 C 250.441406 453.152344 250.140625 452.636719 249.785156 452.152344 C 249.433594 451.671875 249.035156 451.226562 248.589844 450.824219 C 248.148438 450.421875 247.667969 450.070312 247.152344 449.765625 C 246.636719 449.460938 246.097656 449.207031 245.53125 449.015625 C 244.964844 448.820312 244.386719 448.683594 243.792969 448.605469 C 243.199219 448.527344 242.601562 448.511719 242.003906 448.554688 C 241.480469 448.59375 240.960938 448.675781 240.453125 448.808594 C 239.941406 448.9375 239.449219 449.113281 238.96875 449.332031 C 238.488281 449.550781 238.035156 449.8125 237.601562 450.113281 C 237.167969 450.410156 236.765625 450.75 236.394531 451.121094 C 236.023438 451.492188 235.683594 451.894531 235.386719 452.328125 C 235.085938 452.761719 234.824219 453.214844 234.605469 453.695312 C 234.386719 454.175781 234.210938 454.667969 234.082031 455.179688 C 233.949219 455.6875 233.867188 456.207031 233.828125 456.730469 Z M 236.253906 456.730469 C 236.214844 456.3125 236.21875 455.890625 236.265625 455.472656 C 236.308594 455.054688 236.394531 454.644531 236.519531 454.242188 C 236.648438 453.839844 236.8125 453.453125 237.011719 453.082031 C 237.214844 452.710938 237.453125 452.367188 237.722656 452.042969 C 237.992188 451.71875 238.292969 451.425781 238.621094 451.160156 C 238.949219 450.898438 239.300781 450.667969 239.671875 450.472656 C 240.046875 450.277344 240.4375 450.117188 240.839844 450 C 241.246094 449.882812 241.65625 449.804688 242.078125 449.765625 C 242.496094 449.730469 242.917969 449.734375 243.335938 449.777344 C 243.753906 449.824219 244.164062 449.910156 244.566406 450.035156 C 244.96875 450.160156 245.355469 450.324219 245.726562 450.527344 C 246.097656 450.730469 246.441406 450.964844 246.765625 451.234375 C 247.089844 451.507812 247.382812 451.804688 247.648438 452.132812 C 247.914062 452.460938 248.140625 452.8125 248.335938 453.1875 C 248.53125 453.558594 248.691406 453.949219 248.808594 454.355469 C 248.925781 454.757812 249.003906 455.171875 249.042969 455.589844 C 249.089844 455.972656 249.089844 456.351562 249.042969 456.730469 C 249.074219 457.148438 249.0625 457.566406 249.011719 457.980469 C 248.960938 458.394531 248.871094 458.800781 248.742188 459.199219 C 248.613281 459.597656 248.445312 459.980469 248.238281 460.34375 C 248.035156 460.707031 247.796875 461.050781 247.527344 461.367188 C 247.253906 461.6875 246.953125 461.976562 246.625 462.234375 C 246.300781 462.496094 245.949219 462.71875 245.578125 462.910156 C 245.203125 463.101562 244.816406 463.257812 244.414062 463.371094 C 244.015625 463.488281 243.605469 463.5625 243.1875 463.597656 C 242.769531 463.636719 242.355469 463.628906 241.9375 463.585938 C 241.523438 463.539062 241.117188 463.453125 240.714844 463.328125 C 240.316406 463.203125 239.933594 463.039062 239.566406 462.839844 C 239.199219 462.636719 238.855469 462.40625 238.535156 462.136719 C 238.210938 461.871094 237.921875 461.574219 237.65625 461.25 C 237.394531 460.921875 237.164062 460.578125 236.96875 460.207031 C 236.773438 459.835938 236.613281 459.453125 236.492188 459.050781 C 236.375 458.652344 236.292969 458.242188 236.253906 457.824219 C 236.140625 457.46875 236.078125 457.105469 236.0625 456.730469 Z M 236.253906 456.730469 " fill-opacity="1" fill-rule="nonzero"/><path fill="#58595b" d="M 261.214844 448.269531 L 261.214844 450.503906 L 265.113281 450.503906 L 265.113281 465.148438 L 267.539062 465.148438 L 267.539062 450.503906 L 271.867188 450.503906 L 271.867188 448.269531 Z M 261.214844 448.269531 " fill-opacity="1" fill-rule="nonzero"/><path fill="#58595b" d="M 282.5625 448.269531 L 282.5625 465.148438 L 291.789062 465.148438 L 291.789062 462.914062 L 284.988281 462.914062 L 284.988281 457.300781 L 291.597656 457.300781 L 291.597656 455.019531 L 284.988281 455.019531 L 284.988281 450.742188 L 291.789062 450.742188 L 291.789062 448.269531 Z M 282.5625 448.269531 " fill-opacity="1" fill-rule="nonzero"/><path fill="#58595b" d="M 303.769531 448.269531 L 303.769531 465.148438 L 311.234375 465.148438 L 311.234375 462.914062 L 306.480469 462.914062 L 306.480469 448.269531 Z M 303.769531 448.269531 " fill-opacity="1" fill-rule="nonzero"/><path fill="#58595b" d="M 321.933594 452.546875 C 321.933594 455.019531 323.691406 456.113281 325.59375 456.921875 L 326.734375 457.398438 C 328.066406 457.96875 329.492188 458.679688 329.492188 460.394531 C 329.507812 460.78125 329.445312 461.15625 329.304688 461.519531 C 329.167969 461.886719 328.964844 462.207031 328.695312 462.488281 C 328.425781 462.769531 328.113281 462.988281 327.757812 463.144531 C 327.402344 463.300781 327.03125 463.382812 326.640625 463.390625 C 325.804688 463.378906 325.074219 463.09375 324.453125 462.53125 C 323.867188 461.957031 323.597656 461.261719 323.644531 460.441406 L 321.171875 460.917969 C 321.183594 461.269531 321.230469 461.617188 321.308594 461.960938 C 321.386719 462.304688 321.5 462.636719 321.644531 462.960938 C 321.789062 463.28125 321.964844 463.585938 322.171875 463.875 C 322.375 464.160156 322.605469 464.425781 322.863281 464.667969 C 323.121094 464.910156 323.398438 465.121094 323.699219 465.308594 C 324 465.496094 324.3125 465.652344 324.644531 465.777344 C 324.972656 465.902344 325.3125 465.992188 325.660156 466.050781 C 326.007812 466.109375 326.359375 466.132812 326.710938 466.121094 C 327.066406 466.113281 327.414062 466.066406 327.757812 465.988281 C 328.101562 465.90625 328.433594 465.796875 328.753906 465.648438 C 329.078125 465.503906 329.382812 465.328125 329.667969 465.125 C 329.957031 464.917969 330.222656 464.6875 330.460938 464.429688 C 330.703125 464.175781 330.917969 463.894531 331.105469 463.597656 C 331.292969 463.296875 331.449219 462.980469 331.574219 462.652344 C 331.699219 462.320312 331.789062 461.984375 331.847656 461.632812 C 331.90625 461.285156 331.929688 460.9375 331.917969 460.582031 C 331.910156 459.980469 331.800781 459.390625 331.59375 458.824219 C 331.382812 458.257812 331.089844 457.738281 330.703125 457.273438 C 330.320312 456.808594 329.867188 456.417969 329.351562 456.105469 C 328.832031 455.789062 328.277344 455.574219 327.6875 455.449219 L 326.5 454.972656 C 325.070312 454.402344 324.359375 453.640625 324.359375 452.738281 C 324.394531 452.429688 324.488281 452.136719 324.632812 451.863281 C 324.78125 451.589844 324.976562 451.355469 325.214844 451.15625 C 325.453125 450.957031 325.722656 450.808594 326.015625 450.710938 C 326.3125 450.617188 326.617188 450.578125 326.925781 450.597656 C 327.445312 450.585938 327.929688 450.714844 328.375 450.980469 C 328.820312 451.246094 329.160156 451.609375 329.398438 452.070312 L 331.347656 450.882812 C 331.097656 450.394531 330.78125 449.960938 330.390625 449.578125 C 330 449.195312 329.558594 448.882812 329.066406 448.644531 C 328.574219 448.40625 328.054688 448.25 327.515625 448.179688 C 326.972656 448.109375 326.433594 448.125 325.894531 448.230469 C 325.359375 448.332031 324.851562 448.519531 324.375 448.789062 C 323.898438 449.058594 323.480469 449.398438 323.113281 449.804688 C 322.746094 450.210938 322.453125 450.664062 322.238281 451.167969 C 322.019531 451.667969 321.886719 452.191406 321.839844 452.738281 Z M 321.933594 452.546875 " fill-opacity="1" fill-rule="nonzero"/><path fill="#58595b" d="M 357.925781 465.148438 L 360.542969 465.148438 L 362.445312 461.011719 L 369.765625 461.011719 L 371.621094 465.148438 L 374.238281 465.148438 L 366.105469 447.316406 Z M 366.105469 452.785156 L 368.722656 458.871094 L 363.441406 458.871094 Z M 366.105469 452.785156 " fill-opacity="1" fill-rule="nonzero"/><path fill="#58595b" d="M 384.746094 465.148438 L 387.21875 465.148438 L 387.21875 453.117188 L 399.578125 466.097656 L 399.578125 448.269531 L 397.15625 448.269531 L 397.15625 460.203125 C 396.582031 459.539062 384.746094 447.222656 384.746094 447.222656 Z M 384.746094 465.148438 " fill-opacity="1" fill-rule="nonzero"/><path fill="#58595b" d="M 411.800781 448.269531 L 411.800781 465.148438 L 415.316406 465.148438 C 415.851562 465.164062 416.378906 465.132812 416.90625 465.050781 C 417.429688 464.96875 417.945312 464.839844 418.445312 464.660156 C 418.949219 464.484375 419.429688 464.261719 419.890625 463.992188 C 420.347656 463.722656 420.78125 463.414062 421.183594 463.066406 C 421.582031 462.714844 421.949219 462.332031 422.28125 461.914062 C 422.609375 461.496094 422.898438 461.050781 423.144531 460.578125 C 423.390625 460.105469 423.589844 459.617188 423.746094 459.105469 C 423.898438 458.597656 424.003906 458.078125 424.0625 457.546875 C 424.117188 457.019531 424.125 456.488281 424.082031 455.957031 C 424.039062 455.425781 423.945312 454.902344 423.804688 454.390625 C 423.664062 453.878906 423.476562 453.382812 423.242188 452.902344 C 423.011719 452.425781 422.734375 451.972656 422.414062 451.546875 C 422.097656 451.121094 421.742188 450.726562 421.347656 450.367188 C 420.957031 450.007812 420.53125 449.6875 420.082031 449.40625 C 419.628906 449.125 419.152344 448.890625 418.65625 448.699219 C 418.160156 448.507812 417.648438 448.363281 417.125 448.269531 Z M 414.746094 450.503906 C 418.21875 450.503906 422.402344 451.597656 422.402344 456.730469 C 422.402344 461.867188 418.21875 462.914062 414.746094 462.914062 L 414.222656 462.914062 L 414.222656 450.503906 Z M 414.746094 450.503906 " fill-opacity="1" fill-rule="nonzero"/><path fill="#58595b" d="M 452.546875 448.269531 L 452.546875 465.148438 L 454.972656 465.148438 L 454.972656 458.207031 L 455.542969 458.207031 L 460.296875 465.148438 L 463.246094 465.148438 L 457.96875 457.921875 C 458.519531 457.8125 459.03125 457.617188 459.511719 457.328125 C 459.992188 457.042969 460.410156 456.679688 460.761719 456.246094 C 461.113281 455.808594 461.378906 455.328125 461.5625 454.800781 C 461.742188 454.269531 461.828125 453.726562 461.820312 453.164062 C 461.828125 452.335938 461.636719 451.558594 461.238281 450.828125 C 460.839844 450.101562 460.289062 449.515625 459.585938 449.078125 C 458.160156 448.441406 456.671875 448.171875 455.117188 448.269531 Z M 455.351562 450.457031 C 458.253906 450.457031 459.632812 451.359375 459.632812 453.214844 C 459.632812 455.066406 457.398438 456.113281 455.449219 456.113281 L 454.972656 456.113281 L 454.972656 450.457031 Z M 455.351562 450.457031 " fill-opacity="1" fill-rule="nonzero"/><path fill="#58595b" d="M 474.230469 448.269531 L 474.230469 465.148438 L 483.453125 465.148438 L 483.453125 462.914062 L 476.65625 462.914062 L 476.65625 457.300781 L 483.265625 457.300781 L 483.265625 455.019531 L 476.65625 455.019531 L 476.65625 450.742188 L 483.453125 450.742188 L 483.453125 448.269531 Z M 474.230469 448.269531 " fill-opacity="1" fill-rule="nonzero"/><path fill="#58595b" d="M 495.339844 452.546875 C 495.339844 455.019531 497.148438 456.113281 499.050781 456.921875 L 500.191406 457.398438 C 501.523438 457.96875 502.949219 458.679688 502.949219 460.394531 C 502.957031 460.78125 502.886719 461.152344 502.746094 461.515625 C 502.605469 461.875 502.402344 462.195312 502.136719 462.476562 C 501.871094 462.753906 501.558594 462.976562 501.207031 463.132812 C 500.851562 463.289062 500.484375 463.375 500.097656 463.390625 C 499.203125 463.421875 498.425781 463.136719 497.765625 462.53125 C 497.230469 461.9375 496.960938 461.242188 496.957031 460.441406 L 494.484375 460.917969 C 494.511719 461.246094 494.566406 461.570312 494.652344 461.890625 C 494.738281 462.210938 494.851562 462.519531 494.992188 462.816406 C 495.136719 463.117188 495.304688 463.398438 495.496094 463.664062 C 495.691406 463.933594 495.910156 464.179688 496.148438 464.40625 C 496.390625 464.636719 496.648438 464.839844 496.925781 465.019531 C 497.203125 465.199219 497.496094 465.351562 497.800781 465.476562 C 498.109375 465.601562 498.421875 465.699219 498.746094 465.765625 C 499.070312 465.832031 499.398438 465.871094 499.726562 465.875 C 500.058594 465.882812 500.386719 465.859375 500.714844 465.808594 C 501.039062 465.753906 501.359375 465.671875 501.667969 465.558594 C 501.980469 465.445312 502.277344 465.304688 502.5625 465.136719 C 502.847656 464.96875 503.117188 464.777344 503.367188 464.5625 C 503.617188 464.34375 503.84375 464.105469 504.050781 463.847656 C 504.253906 463.589844 504.433594 463.3125 504.589844 463.019531 C 504.746094 462.730469 504.871094 462.425781 504.96875 462.109375 C 505.070312 461.792969 505.136719 461.472656 505.175781 461.144531 C 505.214844 460.816406 505.226562 460.484375 505.203125 460.15625 C 505.183594 459.824219 505.132812 459.5 505.050781 459.179688 C 504.96875 458.859375 504.859375 458.550781 504.71875 458.25 C 504.582031 457.949219 504.414062 457.664062 504.222656 457.394531 C 504.03125 457.125 503.816406 456.875 503.582031 456.644531 C 503.34375 456.414062 503.085938 456.207031 502.808594 456.027344 C 502.535156 455.84375 502.246094 455.6875 501.941406 455.558594 C 501.636719 455.429688 501.324219 455.328125 501 455.257812 L 499.8125 454.78125 C 498.335938 454.210938 497.625 453.453125 497.625 452.546875 C 497.660156 452.238281 497.75 451.949219 497.898438 451.675781 C 498.046875 451.402344 498.242188 451.164062 498.480469 450.964844 C 498.71875 450.765625 498.984375 450.617188 499.28125 450.523438 C 499.578125 450.425781 499.878906 450.386719 500.191406 450.40625 C 500.71875 450.382812 501.214844 450.5 501.671875 450.769531 C 502.128906 451.035156 502.476562 451.40625 502.710938 451.882812 L 504.660156 450.695312 C 504.433594 450.273438 504.152344 449.894531 503.8125 449.558594 C 503.472656 449.222656 503.089844 448.945312 502.664062 448.722656 C 502.242188 448.503906 501.792969 448.351562 501.324219 448.265625 C 500.851562 448.179688 500.378906 448.164062 499.90625 448.222656 C 499.328125 448.242188 498.769531 448.363281 498.238281 448.589844 C 497.703125 448.8125 497.226562 449.125 496.804688 449.523438 C 496.386719 449.921875 496.050781 450.378906 495.796875 450.902344 C 495.546875 451.421875 495.394531 451.972656 495.339844 452.546875 Z M 495.339844 452.546875 " fill-opacity="1" fill-rule="nonzero"/><path fill="#58595b" d="M 515.882812 456.730469 C 515.890625 457.308594 515.957031 457.875 516.078125 458.4375 C 516.199219 459 516.371094 459.546875 516.601562 460.074219 C 516.828125 460.605469 517.105469 461.105469 517.433594 461.578125 C 517.757812 462.054688 518.128906 462.492188 518.542969 462.894531 C 518.953125 463.292969 519.402344 463.652344 519.882812 463.964844 C 520.367188 464.277344 520.875 464.542969 521.410156 464.757812 C 521.945312 464.96875 522.496094 465.128906 523.058594 465.234375 C 523.625 465.339844 524.195312 465.390625 524.773438 465.386719 C 525.347656 465.378906 525.917969 465.316406 526.480469 465.199219 C 527.042969 465.082031 527.589844 464.910156 528.121094 464.683594 C 528.648438 464.457031 529.152344 464.183594 529.628906 463.859375 C 530.101562 463.535156 530.542969 463.167969 530.945312 462.757812 C 531.351562 462.347656 531.710938 461.902344 532.027344 461.421875 C 532.34375 460.941406 532.609375 460.433594 532.824219 459.902344 C 533.042969 459.367188 533.207031 458.820312 533.316406 458.253906 C 533.421875 457.6875 533.476562 457.117188 533.472656 456.542969 C 533.46875 455.96875 533.410156 455.398438 533.296875 454.832031 C 533.179688 454.269531 533.011719 453.722656 532.789062 453.191406 C 532.566406 452.660156 532.296875 452.15625 531.976562 451.679688 C 531.652344 451.199219 531.289062 450.757812 530.882812 450.351562 C 530.472656 449.949219 530.027344 449.585938 529.550781 449.265625 C 529.070312 448.945312 528.566406 448.679688 528.035156 448.457031 C 527.5 448.238281 526.953125 448.074219 526.386719 447.960938 C 525.824219 447.847656 525.253906 447.792969 524.679688 447.792969 C 524.09375 447.792969 523.515625 447.851562 522.945312 447.964844 C 522.371094 448.082031 521.816406 448.25 521.277344 448.476562 C 520.742188 448.703125 520.230469 448.976562 519.746094 449.304688 C 519.261719 449.632812 518.816406 450.003906 518.40625 450.417969 C 517.996094 450.835938 517.632812 451.289062 517.3125 451.777344 C 516.996094 452.265625 516.726562 452.78125 516.511719 453.320312 C 516.292969 453.863281 516.132812 454.421875 516.027344 454.996094 C 515.921875 455.570312 515.871094 456.148438 515.882812 456.730469 Z M 518.308594 456.730469 C 518.269531 456.3125 518.273438 455.890625 518.320312 455.472656 C 518.363281 455.054688 518.449219 454.644531 518.574219 454.242188 C 518.703125 453.839844 518.867188 453.453125 519.066406 453.082031 C 519.269531 452.710938 519.507812 452.367188 519.777344 452.042969 C 520.046875 451.71875 520.347656 451.425781 520.675781 451.160156 C 521.003906 450.898438 521.355469 450.667969 521.726562 450.472656 C 522.101562 450.277344 522.492188 450.117188 522.894531 450 C 523.300781 449.882812 523.710938 449.804688 524.132812 449.765625 C 524.550781 449.730469 524.972656 449.734375 525.390625 449.777344 C 525.808594 449.824219 526.21875 449.910156 526.621094 450.035156 C 527.023438 450.160156 527.410156 450.324219 527.78125 450.527344 C 528.152344 450.730469 528.496094 450.964844 528.820312 451.234375 C 529.144531 451.507812 529.4375 451.804688 529.703125 452.132812 C 529.96875 452.460938 530.195312 452.8125 530.390625 453.1875 C 530.585938 453.558594 530.746094 453.949219 530.863281 454.355469 C 530.980469 454.757812 531.058594 455.171875 531.097656 455.589844 C 531.144531 455.972656 531.144531 456.351562 531.097656 456.730469 C 531.128906 457.148438 531.117188 457.566406 531.066406 457.980469 C 531.015625 458.394531 530.925781 458.800781 530.796875 459.199219 C 530.667969 459.597656 530.5 459.980469 530.292969 460.34375 C 530.089844 460.707031 529.851562 461.050781 529.582031 461.367188 C 529.308594 461.6875 529.007812 461.976562 528.679688 462.234375 C 528.355469 462.496094 528.003906 462.71875 527.632812 462.910156 C 527.257812 463.101562 526.871094 463.257812 526.472656 463.371094 C 526.070312 463.488281 525.660156 463.5625 525.242188 463.597656 C 524.824219 463.636719 524.410156 463.628906 523.992188 463.585938 C 523.578125 463.539062 523.171875 463.453125 522.769531 463.328125 C 522.371094 463.203125 521.988281 463.039062 521.621094 462.839844 C 521.253906 462.636719 520.910156 462.40625 520.589844 462.136719 C 520.265625 461.871094 519.976562 461.574219 519.710938 461.25 C 519.449219 460.921875 519.21875 460.578125 519.023438 460.207031 C 518.828125 459.835938 518.667969 459.453125 518.546875 459.050781 C 518.429688 458.652344 518.347656 458.242188 518.308594 457.824219 C 518.257812 457.460938 518.257812 457.097656 518.308594 456.730469 Z M 518.308594 456.730469 " fill-opacity="1" fill-rule="nonzero"/><path fill="#58595b" d="M 544.980469 448.269531 L 544.980469 465.148438 L 547.644531 465.148438 L 547.644531 458.207031 L 552.398438 465.148438 L 555.347656 465.148438 L 550.070312 457.921875 C 550.617188 457.8125 551.132812 457.617188 551.613281 457.328125 C 552.09375 457.042969 552.507812 456.679688 552.859375 456.246094 C 553.214844 455.808594 553.480469 455.328125 553.664062 454.800781 C 553.84375 454.269531 553.929688 453.726562 553.921875 453.164062 C 553.929688 452.335938 553.734375 451.558594 553.339844 450.828125 C 552.941406 450.101562 552.390625 449.515625 551.683594 449.078125 C 550.261719 448.441406 548.773438 448.171875 547.214844 448.269531 Z M 547.785156 450.457031 C 550.6875 450.457031 552.066406 451.359375 552.066406 453.214844 C 552.066406 455.066406 549.832031 456.113281 547.882812 456.113281 L 547.644531 456.113281 L 547.644531 450.457031 Z M 547.785156 450.457031 " fill-opacity="1" fill-rule="nonzero"/><path fill="#58595b" d="M 564.714844 448.269531 L 564.714844 450.503906 L 568.613281 450.503906 L 568.613281 465.148438 L 571.039062 465.148438 L 571.039062 450.503906 L 574.9375 450.503906 L 574.9375 448.269531 Z M 564.714844 448.269531 " fill-opacity="1" fill-rule="nonzero"/><path fill="#58595b" d="M 585.921875 452.546875 C 585.921875 455.019531 587.726562 456.113281 589.628906 456.921875 L 590.769531 457.398438 C 592.101562 457.96875 593.480469 458.679688 593.480469 460.394531 C 593.492188 460.777344 593.433594 461.148438 593.296875 461.511719 C 593.160156 461.871094 592.960938 462.191406 592.699219 462.472656 C 592.433594 462.753906 592.128906 462.972656 591.777344 463.132812 C 591.425781 463.289062 591.058594 463.375 590.675781 463.390625 C 589.839844 463.378906 589.109375 463.09375 588.488281 462.53125 C 587.953125 461.9375 587.683594 461.242188 587.679688 460.441406 L 585.207031 460.917969 C 585.277344 461.566406 585.460938 462.183594 585.757812 462.769531 C 586.058594 463.351562 586.449219 463.863281 586.9375 464.300781 C 587.425781 464.742188 587.972656 465.078125 588.585938 465.3125 C 589.195312 465.550781 589.828125 465.667969 590.484375 465.671875 C 590.828125 465.683594 591.167969 465.664062 591.507812 465.609375 C 591.847656 465.554688 592.179688 465.464844 592.5 465.347656 C 592.824219 465.226562 593.128906 465.078125 593.421875 464.894531 C 593.714844 464.714844 593.988281 464.507812 594.238281 464.273438 C 594.492188 464.039062 594.71875 463.785156 594.917969 463.503906 C 595.121094 463.226562 595.292969 462.929688 595.433594 462.617188 C 595.578125 462.304688 595.6875 461.980469 595.769531 461.648438 C 595.847656 461.3125 595.894531 460.972656 595.90625 460.632812 C 595.898438 460.03125 595.792969 459.445312 595.585938 458.882812 C 595.382812 458.316406 595.089844 457.800781 594.707031 457.332031 C 594.328125 456.867188 593.882812 456.476562 593.371094 456.160156 C 592.859375 455.847656 592.308594 455.625 591.722656 455.496094 L 590.53125 455.019531 C 589.058594 454.449219 588.34375 453.6875 588.34375 452.785156 C 588.375 452.472656 588.464844 452.179688 588.609375 451.902344 C 588.753906 451.628906 588.949219 451.386719 589.191406 451.1875 C 589.429688 450.988281 589.699219 450.839844 589.996094 450.746094 C 590.296875 450.652344 590.601562 450.621094 590.914062 450.644531 C 591.4375 450.617188 591.925781 450.734375 592.375 451.003906 C 592.824219 451.273438 593.164062 451.644531 593.386719 452.121094 L 595.382812 450.929688 C 595.175781 450.527344 594.914062 450.164062 594.601562 449.835938 C 594.289062 449.507812 593.9375 449.230469 593.546875 449.003906 C 593.152344 448.773438 592.738281 448.605469 592.296875 448.5 C 591.859375 448.390625 591.414062 448.34375 590.960938 448.363281 C 590.660156 448.34375 590.359375 448.351562 590.058594 448.390625 C 589.757812 448.425781 589.464844 448.492188 589.179688 448.582031 C 588.890625 448.675781 588.613281 448.796875 588.351562 448.941406 C 588.085938 449.085938 587.835938 449.257812 587.605469 449.449219 C 587.371094 449.640625 587.160156 449.855469 586.96875 450.089844 C 586.777344 450.320312 586.609375 450.570312 586.464844 450.835938 C 586.320312 451.101562 586.203125 451.378906 586.109375 451.667969 C 586.019531 451.953125 585.957031 452.246094 585.921875 452.546875 Z M 585.921875 452.546875 " fill-opacity="1" fill-rule="nonzero"/><path fill="#58595b" d="M 210.339844 350.746094 L 210.339844 428.15625 L 233.828125 428.15625 C 257.886719 428.15625 272.816406 413.320312 272.816406 389.453125 C 272.816406 365.582031 258.078125 350.746094 233.828125 350.746094 Z M 233.636719 360.734375 C 251.847656 360.734375 262.164062 371.242188 262.164062 389.640625 C 262.164062 408.042969 251.707031 418.171875 233.636719 418.171875 L 220.609375 418.171875 L 220.609375 360.734375 Z M 233.636719 360.734375 " fill-opacity="1" fill-rule="nonzero"/><path fill="#58595b" d="M 380.039062 350.746094 L 380.039062 428.15625 L 432.339844 428.15625 L 432.339844 418.171875 L 390.355469 418.171875 L 390.355469 350.746094 Z M 380.039062 350.746094 " fill-opacity="1" fill-rule="nonzero"/><path fill="#58595b" d="M 434.050781 389.453125 C 434.058594 390.523438 434.105469 391.589844 434.195312 392.660156 C 434.289062 393.726562 434.421875 394.789062 434.597656 395.84375 C 434.773438 396.902344 434.992188 397.949219 435.253906 398.988281 C 435.511719 400.027344 435.8125 401.054688 436.15625 402.066406 C 436.5 403.082031 436.882812 404.082031 437.304688 405.066406 C 437.726562 406.050781 438.1875 407.015625 438.6875 407.964844 C 439.1875 408.910156 439.722656 409.835938 440.296875 410.742188 C 440.871094 411.644531 441.480469 412.527344 442.125 413.382812 C 442.769531 414.238281 443.445312 415.066406 444.15625 415.867188 C 444.867188 416.667969 445.609375 417.441406 446.378906 418.183594 C 447.152344 418.925781 447.953125 419.632812 448.78125 420.3125 C 449.613281 420.988281 450.46875 421.632812 451.347656 422.242188 C 452.230469 422.851562 453.132812 423.425781 454.058594 423.960938 C 454.984375 424.5 455.933594 425 456.898438 425.460938 C 457.867188 425.921875 458.847656 426.34375 459.851562 426.726562 C 460.851562 427.109375 461.863281 427.449219 462.890625 427.75 C 463.917969 428.054688 464.957031 428.3125 466.007812 428.53125 C 467.054688 428.75 468.109375 428.925781 469.171875 429.058594 C 470.234375 429.191406 471.300781 429.285156 472.371094 429.332031 C 473.441406 429.378906 474.511719 429.386719 475.582031 429.347656 C 476.652344 429.3125 477.71875 429.230469 478.785156 429.109375 C 479.847656 428.984375 480.90625 428.820312 481.957031 428.613281 C 483.007812 428.40625 484.046875 428.15625 485.078125 427.863281 C 486.109375 427.574219 487.128906 427.242188 488.132812 426.871094 C 489.136719 426.496094 490.125 426.085938 491.09375 425.632812 C 492.066406 425.183594 493.019531 424.695312 493.949219 424.164062 C 494.882812 423.636719 495.792969 423.074219 496.679688 422.472656 C 497.566406 421.875 498.425781 421.238281 499.261719 420.570312 C 500.097656 419.898438 500.90625 419.199219 501.6875 418.464844 C 502.46875 417.730469 503.214844 416.964844 503.933594 416.171875 C 504.652344 415.378906 505.339844 414.554688 505.992188 413.707031 C 506.644531 412.859375 507.261719 411.984375 507.847656 411.085938 L 511.175781 405.476562 L 499.476562 405.476562 L 498.382812 406.996094 C 496.992188 408.917969 495.394531 410.652344 493.59375 412.199219 C 491.792969 413.746094 489.839844 415.0625 487.730469 416.148438 C 485.617188 417.238281 483.410156 418.0625 481.105469 418.628906 C 478.800781 419.195312 476.460938 419.488281 474.085938 419.5 C 473.132812 419.519531 472.179688 419.488281 471.230469 419.414062 C 470.277344 419.339844 469.332031 419.214844 468.394531 419.046875 C 467.457031 418.878906 466.527344 418.664062 465.609375 418.40625 C 464.691406 418.148438 463.789062 417.84375 462.898438 417.496094 C 462.011719 417.148438 461.140625 416.757812 460.292969 416.324219 C 459.441406 415.894531 458.613281 415.417969 457.808594 414.90625 C 457.007812 414.390625 456.230469 413.839844 455.480469 413.25 C 454.730469 412.660156 454.011719 412.035156 453.320312 411.375 C 452.632812 410.714844 451.976562 410.023438 451.355469 409.300781 C 450.734375 408.574219 450.152344 407.820312 449.605469 407.039062 C 449.058594 406.257812 448.550781 405.453125 448.082031 404.621094 C 447.613281 403.789062 447.1875 402.9375 446.800781 402.066406 C 446.414062 401.191406 446.074219 400.304688 445.777344 399.398438 C 445.476562 398.492188 445.226562 397.570312 445.015625 396.640625 C 444.808594 395.710938 444.648438 394.769531 444.53125 393.824219 C 444.414062 392.878906 444.34375 391.925781 444.320312 390.972656 L 444.320312 389.738281 C 444.296875 388.777344 444.320312 387.824219 444.390625 386.867188 C 444.460938 385.910156 444.578125 384.960938 444.742188 384.019531 C 444.90625 383.074219 445.117188 382.140625 445.371094 381.214844 C 445.628906 380.292969 445.929688 379.382812 446.273438 378.492188 C 446.617188 377.597656 447.003906 376.722656 447.4375 375.867188 C 447.867188 375.011719 448.339844 374.179688 448.851562 373.367188 C 449.363281 372.558594 449.914062 371.777344 450.503906 371.023438 C 451.09375 370.265625 451.71875 369.542969 452.378906 368.847656 C 453.039062 368.15625 453.734375 367.496094 454.460938 366.867188 C 455.183594 366.242188 455.941406 365.65625 456.722656 365.101562 C 457.507812 364.550781 458.316406 364.039062 459.148438 363.566406 C 459.984375 363.097656 460.835938 362.667969 461.714844 362.277344 C 462.589844 361.890625 463.480469 361.546875 464.390625 361.246094 C 465.300781 360.945312 466.222656 360.691406 467.160156 360.480469 C 468.09375 360.273438 469.035156 360.109375 469.988281 359.992188 C 470.9375 359.875 471.894531 359.804688 472.851562 359.78125 L 474.132812 359.78125 C 476.511719 359.839844 478.855469 360.164062 481.15625 360.761719 C 483.460938 361.359375 485.664062 362.210938 487.773438 363.3125 C 489.878906 364.417969 491.832031 365.75 493.632812 367.304688 C 495.433594 368.859375 497.03125 370.601562 498.433594 372.523438 L 499.523438 374.046875 L 511.601562 374.046875 L 507.941406 368.292969 C 507.019531 366.898438 506.019531 365.566406 504.933594 364.292969 C 503.851562 363.019531 502.695312 361.820312 501.46875 360.6875 C 500.238281 359.554688 498.945312 358.503906 497.585938 357.527344 C 496.230469 356.554688 494.820312 355.664062 493.351562 354.863281 C 491.886719 354.058594 490.378906 353.347656 488.828125 352.730469 C 487.277344 352.109375 485.691406 351.585938 484.078125 351.160156 C 482.460938 350.734375 480.828125 350.40625 479.171875 350.175781 C 477.515625 349.949219 475.851562 349.824219 474.183594 349.796875 C 472.882812 349.78125 471.589844 349.824219 470.296875 349.9375 C 469.003906 350.046875 467.71875 350.21875 466.441406 350.457031 C 465.167969 350.691406 463.90625 350.992188 462.660156 351.351562 C 461.414062 351.714844 460.1875 352.132812 458.980469 352.617188 C 457.777344 353.097656 456.597656 353.636719 455.445312 354.234375 C 454.292969 354.832031 453.171875 355.484375 452.085938 356.191406 C 450.996094 356.898438 449.949219 357.660156 448.933594 358.46875 C 447.921875 359.28125 446.949219 360.140625 446.023438 361.046875 C 445.09375 361.953125 444.210938 362.902344 443.375 363.894531 C 442.542969 364.890625 441.757812 365.921875 441.023438 366.992188 C 440.289062 368.0625 439.609375 369.167969 438.984375 370.304688 C 438.359375 371.441406 437.792969 372.605469 437.28125 373.800781 C 436.773438 374.992188 436.320312 376.207031 435.929688 377.445312 C 435.539062 378.683594 435.210938 379.9375 434.945312 381.207031 C 434.675781 382.476562 434.472656 383.757812 434.332031 385.046875 C 434.191406 386.335938 434.113281 387.632812 434.097656 388.929688 Z M 434.050781 389.453125 " fill-opacity="1" fill-rule="nonzero"/><path fill="#58595b" d="M 520.78125 389.785156 C 520.796875 390.90625 520.859375 392.023438 520.972656 393.140625 C 521.085938 394.253906 521.242188 395.363281 521.449219 396.464844 C 521.652344 397.566406 521.90625 398.660156 522.203125 399.742188 C 522.5 400.820312 522.84375 401.886719 523.230469 402.941406 C 523.621094 403.992188 524.050781 405.023438 524.527344 406.039062 C 525 407.054688 525.519531 408.050781 526.078125 409.023438 C 526.636719 409.992188 527.238281 410.941406 527.875 411.859375 C 528.515625 412.78125 529.191406 413.675781 529.90625 414.539062 C 530.621094 415.402344 531.371094 416.234375 532.15625 417.035156 C 532.941406 417.835938 533.757812 418.601562 534.605469 419.332031 C 535.457031 420.066406 536.335938 420.757812 537.246094 421.417969 C 538.152344 422.074219 539.085938 422.691406 540.046875 423.269531 C 541.007812 423.847656 541.992188 424.382812 542.996094 424.878906 C 544.003906 425.375 545.027344 425.824219 546.074219 426.234375 C 547.117188 426.644531 548.175781 427.007812 549.25 427.324219 C 550.324219 427.644531 551.410156 427.917969 552.511719 428.144531 C 553.609375 428.371094 554.714844 428.550781 555.828125 428.6875 C 556.941406 428.820312 558.054688 428.90625 559.175781 428.945312 C 560.296875 428.984375 561.417969 428.976562 562.539062 428.921875 C 563.65625 428.867188 564.773438 428.761719 565.882812 428.613281 C 566.996094 428.464844 568.097656 428.269531 569.191406 428.023438 C 570.285156 427.78125 571.367188 427.492188 572.4375 427.160156 C 573.507812 426.824219 574.5625 426.445312 575.601562 426.023438 C 576.640625 425.597656 577.65625 425.132812 578.65625 424.625 C 579.65625 424.113281 580.632812 423.5625 581.582031 422.972656 C 582.535156 422.378906 583.460938 421.75 584.359375 421.078125 C 585.257812 420.410156 586.128906 419.703125 586.964844 418.957031 C 587.804688 418.214844 588.613281 417.4375 589.386719 416.625 C 590.160156 415.8125 590.894531 414.96875 591.597656 414.097656 C 592.300781 413.222656 592.964844 412.320312 593.589844 411.390625 C 594.214844 410.460938 594.800781 409.503906 595.347656 408.527344 C 595.890625 407.546875 596.394531 406.546875 596.855469 405.523438 L 598.664062 401.386719 L 588.15625 401.386719 L 587.347656 403.097656 C 586.753906 404.367188 586.070312 405.582031 585.300781 406.753906 C 584.53125 407.921875 583.679688 409.027344 582.75 410.070312 C 581.816406 411.117188 580.816406 412.089844 579.742188 412.988281 C 578.671875 413.886719 577.539062 414.707031 576.347656 415.441406 C 575.160156 416.175781 573.921875 416.820312 572.636719 417.375 C 571.351562 417.933594 570.035156 418.390625 568.683594 418.753906 C 567.332031 419.121094 565.960938 419.382812 564.570312 419.546875 C 563.179688 419.714844 561.785156 419.777344 560.386719 419.738281 C 559.472656 419.75 558.558594 419.714844 557.644531 419.640625 C 556.734375 419.5625 555.824219 419.445312 554.925781 419.285156 C 554.023438 419.125 553.132812 418.921875 552.25 418.679688 C 551.367188 418.4375 550.496094 418.15625 549.640625 417.832031 C 548.78125 417.507812 547.945312 417.144531 547.121094 416.746094 C 546.296875 416.34375 545.496094 415.90625 544.710938 415.429688 C 543.929688 414.953125 543.171875 414.445312 542.4375 413.898438 C 541.703125 413.351562 540.996094 412.773438 540.3125 412.160156 C 539.632812 411.550781 538.980469 410.90625 538.359375 410.234375 C 537.738281 409.5625 537.148438 408.863281 536.589844 408.136719 C 536.035156 407.410156 535.511719 406.660156 535.023438 405.886719 C 534.535156 405.109375 534.085938 404.316406 533.671875 403.496094 C 533.257812 402.679688 532.886719 401.847656 532.546875 400.996094 C 532.210938 400.144531 531.917969 399.277344 531.660156 398.398438 C 531.40625 397.519531 531.191406 396.632812 531.015625 395.734375 C 530.84375 394.832031 530.710938 393.929688 530.621094 393.019531 L 599.519531 393.019531 L 599.851562 388.261719 C 599.789062 386.988281 599.664062 385.71875 599.480469 384.457031 C 599.296875 383.195312 599.050781 381.945312 598.746094 380.707031 C 598.4375 379.46875 598.074219 378.25 597.652344 377.042969 C 597.226562 375.839844 596.746094 374.660156 596.210938 373.503906 C 595.671875 372.347656 595.078125 371.21875 594.433594 370.121094 C 593.785156 369.019531 593.089844 367.953125 592.339844 366.921875 C 591.589844 365.890625 590.792969 364.898438 589.945312 363.941406 C 589.101562 362.988281 588.210938 362.074219 587.277344 361.207031 C 586.34375 360.335938 585.367188 359.515625 584.355469 358.738281 C 583.34375 357.964844 582.292969 357.238281 581.210938 356.566406 C 580.128906 355.890625 579.015625 355.273438 577.871094 354.707031 C 576.730469 354.140625 575.5625 353.628906 574.367188 353.175781 C 573.175781 352.722656 571.964844 352.328125 570.734375 351.992188 C 569.503906 351.65625 568.261719 351.378906 567.003906 351.164062 C 565.746094 350.949219 564.480469 350.792969 563.207031 350.699219 C 561.9375 350.605469 560.664062 350.570312 559.386719 350.601562 C 558.113281 350.628906 556.839844 350.71875 555.574219 350.871094 C 554.308594 351.023438 553.050781 351.238281 551.804688 351.511719 C 550.558594 351.785156 549.332031 352.117188 548.117188 352.507812 C 546.902344 352.902344 545.710938 353.351562 544.539062 353.859375 C 543.371094 354.363281 542.226562 354.925781 541.109375 355.546875 C 539.992188 356.164062 538.910156 356.832031 537.859375 357.554688 C 536.808594 358.277344 535.792969 359.050781 534.816406 359.871094 C 533.839844 360.691406 532.90625 361.554688 532.011719 362.46875 C 531.117188 363.378906 530.273438 364.328125 529.46875 365.320312 C 528.667969 366.316406 527.917969 367.34375 527.214844 368.410156 C 526.515625 369.472656 525.867188 370.570312 525.269531 371.699219 C 524.675781 372.828125 524.132812 373.980469 523.648438 375.160156 C 523.164062 376.339844 522.738281 377.542969 522.371094 378.761719 C 522.003906 379.984375 521.695312 381.21875 521.445312 382.472656 C 521.195312 383.722656 521.007812 384.984375 520.882812 386.253906 C 520.753906 387.523438 520.6875 388.792969 520.683594 390.070312 Z M 560.480469 359.589844 C 561.332031 359.589844 562.183594 359.621094 563.03125 359.691406 C 563.878906 359.761719 564.71875 359.871094 565.558594 360.011719 C 566.398438 360.15625 567.230469 360.332031 568.050781 360.546875 C 568.875 360.761719 569.6875 361.011719 570.492188 361.292969 C 571.292969 361.578125 572.082031 361.894531 572.855469 362.246094 C 573.628906 362.597656 574.390625 362.980469 575.132812 363.398438 C 575.871094 363.8125 576.59375 364.261719 577.300781 364.738281 C 578.003906 365.21875 578.683594 365.722656 579.34375 366.261719 C 580.003906 366.796875 580.640625 367.363281 581.253906 367.953125 C 581.863281 368.542969 582.449219 369.160156 583.007812 369.800781 C 583.566406 370.441406 584.097656 371.105469 584.601562 371.792969 C 585.101562 372.480469 585.574219 373.1875 586.015625 373.914062 C 586.457031 374.640625 586.867188 375.386719 587.242188 376.148438 C 587.621094 376.910156 587.964844 377.6875 588.273438 378.480469 C 588.585938 379.273438 588.863281 380.078125 589.105469 380.890625 C 589.347656 381.707031 589.550781 382.53125 589.722656 383.367188 L 531.144531 383.367188 C 531.300781 382.523438 531.496094 381.691406 531.726562 380.867188 C 531.957031 380.042969 532.226562 379.230469 532.527344 378.425781 C 532.832031 377.625 533.167969 376.839844 533.539062 376.070312 C 533.914062 375.296875 534.316406 374.542969 534.753906 373.808594 C 535.195312 373.074219 535.664062 372.359375 536.164062 371.664062 C 536.667969 370.96875 537.199219 370.300781 537.757812 369.652344 C 538.320312 369.003906 538.90625 368.382812 539.523438 367.789062 C 540.136719 367.191406 540.777344 366.625 541.441406 366.085938 C 542.109375 365.546875 542.796875 365.039062 543.507812 364.558594 C 544.214844 364.082031 544.945312 363.632812 545.695312 363.21875 C 546.445312 362.804688 547.210938 362.425781 547.996094 362.078125 C 548.777344 361.730469 549.574219 361.421875 550.382812 361.144531 C 551.195312 360.867188 552.015625 360.628906 552.847656 360.421875 C 553.679688 360.21875 554.519531 360.050781 555.363281 359.921875 C 556.210938 359.792969 557.0625 359.699219 557.917969 359.644531 C 558.769531 359.589844 559.625 359.570312 560.480469 359.589844 Z M 560.480469 359.589844 " fill-opacity="1" fill-rule="nonzero"/><path fill="#58595b" d="M 369.910156 388.691406 C 369.910156 389.9375 369.847656 391.179688 369.726562 392.417969 C 369.605469 393.660156 369.421875 394.890625 369.179688 396.113281 C 368.9375 397.332031 368.632812 398.539062 368.273438 399.734375 C 367.910156 400.925781 367.492188 402.097656 367.015625 403.246094 C 366.539062 404.398438 366.003906 405.523438 365.417969 406.621094 C 364.832031 407.71875 364.191406 408.789062 363.5 409.824219 C 362.808594 410.859375 362.066406 411.859375 361.273438 412.820312 C 360.484375 413.785156 359.648438 414.707031 358.769531 415.589844 C 357.886719 416.46875 356.964844 417.304688 356.003906 418.09375 C 355.039062 418.886719 354.039062 419.625 353.003906 420.320312 C 351.96875 421.011719 350.902344 421.652344 349.800781 422.238281 C 348.703125 422.824219 347.578125 423.355469 346.429688 423.832031 C 345.277344 424.308594 344.105469 424.730469 342.914062 425.089844 C 341.722656 425.453125 340.515625 425.753906 339.292969 426 C 338.070312 426.242188 336.839844 426.425781 335.597656 426.546875 C 334.359375 426.667969 333.117188 426.730469 331.871094 426.730469 C 330.625 426.730469 329.382812 426.667969 328.144531 426.546875 C 326.902344 426.425781 325.671875 426.242188 324.449219 426 C 323.226562 425.753906 322.019531 425.453125 320.828125 425.089844 C 319.636719 424.730469 318.464844 424.308594 317.316406 423.832031 C 316.164062 423.355469 315.039062 422.824219 313.941406 422.238281 C 312.839844 421.652344 311.773438 421.011719 310.738281 420.320312 C 309.703125 419.625 308.703125 418.886719 307.738281 418.09375 C 306.777344 417.304688 305.855469 416.46875 304.972656 415.589844 C 304.09375 414.707031 303.257812 413.785156 302.46875 412.820312 C 301.675781 411.859375 300.933594 410.859375 300.242188 409.824219 C 299.550781 408.789062 298.910156 407.71875 298.324219 406.621094 C 297.738281 405.523438 297.203125 404.398438 296.726562 403.246094 C 296.25 402.097656 295.832031 400.925781 295.472656 399.734375 C 295.109375 398.539062 294.808594 397.332031 294.5625 396.113281 C 294.320312 394.890625 294.136719 393.660156 294.015625 392.417969 C 293.894531 391.179688 293.832031 389.9375 293.832031 388.691406 C 293.832031 387.445312 293.894531 386.203125 294.015625 384.960938 C 294.136719 383.722656 294.320312 382.492188 294.5625 381.269531 C 294.808594 380.046875 295.109375 378.839844 295.472656 377.648438 C 295.832031 376.457031 296.25 375.285156 296.726562 374.132812 C 297.203125 372.984375 297.738281 371.859375 298.324219 370.757812 C 298.910156 369.660156 299.550781 368.59375 300.242188 367.558594 C 300.933594 366.523438 301.675781 365.523438 302.46875 364.558594 C 303.257812 363.597656 304.09375 362.675781 304.972656 361.792969 C 305.855469 360.914062 306.777344 360.078125 307.738281 359.285156 C 308.703125 358.496094 309.703125 357.753906 310.738281 357.0625 C 311.773438 356.371094 312.839844 355.730469 313.941406 355.144531 C 315.039062 354.558594 316.164062 354.023438 317.316406 353.546875 C 318.464844 353.070312 319.636719 352.652344 320.828125 352.289062 C 322.019531 351.929688 323.226562 351.625 324.449219 351.382812 C 325.671875 351.140625 326.902344 350.957031 328.144531 350.835938 C 329.382812 350.714844 330.625 350.652344 331.871094 350.652344 C 333.117188 350.652344 334.359375 350.714844 335.597656 350.835938 C 336.839844 350.957031 338.070312 351.140625 339.292969 351.382812 C 340.515625 351.625 341.722656 351.929688 342.914062 352.289062 C 344.105469 352.652344 345.277344 353.070312 346.429688 353.546875 C 347.578125 354.023438 348.703125 354.558594 349.800781 355.144531 C 350.902344 355.730469 351.96875 356.371094 353.003906 357.0625 C 354.039062 357.753906 355.039062 358.496094 356.003906 359.285156 C 356.964844 360.078125 357.886719 360.914062 358.769531 361.792969 C 359.648438 362.675781 360.484375 363.597656 361.273438 364.558594 C 362.066406 365.523438 362.808594 366.523438 363.5 367.558594 C 364.191406 368.59375 364.832031 369.660156 365.417969 370.757812 C 366.003906 371.859375 366.539062 372.984375 367.015625 374.132812 C 367.492188 375.285156 367.910156 376.457031 368.273438 377.648438 C 368.632812 378.839844 368.9375 380.046875 369.179688 381.269531 C 369.421875 382.492188 369.605469 383.722656 369.726562 384.960938 C 369.847656 386.203125 369.910156 387.445312 369.910156 388.691406 Z M 331.871094 356.929688 C 330.820312 356.925781 329.773438 356.976562 328.730469 357.078125 C 327.683594 357.179688 326.648438 357.332031 325.617188 357.535156 C 324.589844 357.738281 323.570312 357.992188 322.566406 358.292969 C 321.5625 358.597656 320.574219 358.949219 319.605469 359.351562 C 318.632812 359.75 317.683594 360.195312 316.757812 360.691406 C 315.832031 361.183594 314.933594 361.722656 314.058594 362.304688 C 313.183594 362.886719 312.34375 363.507812 311.53125 364.171875 C 310.71875 364.835938 309.941406 365.539062 309.195312 366.28125 C 308.453125 367.023438 307.746094 367.796875 307.082031 368.609375 C 306.414062 369.417969 305.789062 370.261719 305.203125 371.132812 C 304.621094 372.003906 304.078125 372.902344 303.582031 373.828125 C 303.085938 374.753906 302.636719 375.699219 302.234375 376.667969 C 301.832031 377.636719 301.476562 378.625 301.171875 379.628906 C 300.863281 380.632812 300.609375 381.648438 300.402344 382.675781 C 300.195312 383.707031 300.039062 384.742188 299.933594 385.789062 C 299.832031 386.832031 299.777344 387.878906 299.777344 388.929688 C 299.773438 389.976562 299.824219 391.023438 299.925781 392.070312 C 300.027344 393.113281 300.179688 394.152344 300.382812 395.179688 C 300.585938 396.210938 300.839844 397.230469 301.144531 398.234375 C 301.445312 399.238281 301.796875 400.226562 302.199219 401.195312 C 302.597656 402.167969 303.042969 403.113281 303.539062 404.042969 C 304.03125 404.96875 304.570312 405.867188 305.152344 406.742188 C 305.734375 407.613281 306.355469 408.457031 307.019531 409.269531 C 307.683594 410.082031 308.386719 410.859375 309.128906 411.601562 C 309.871094 412.347656 310.644531 413.050781 311.457031 413.71875 C 312.265625 414.386719 313.109375 415.011719 313.980469 415.597656 C 314.851562 416.179688 315.75 416.722656 316.675781 417.21875 C 317.601562 417.714844 318.546875 418.164062 319.515625 418.566406 C 320.484375 418.96875 321.472656 419.324219 322.476562 419.628906 C 323.480469 419.9375 324.496094 420.191406 325.523438 420.398438 C 326.554688 420.605469 327.589844 420.761719 328.636719 420.863281 C 329.679688 420.96875 330.726562 421.023438 331.777344 421.023438 C 332.824219 421.023438 333.871094 420.976562 334.917969 420.875 C 335.960938 420.773438 337 420.621094 338.027344 420.417969 C 339.058594 420.214844 340.078125 419.960938 341.082031 419.65625 C 342.085938 419.355469 343.074219 419.003906 344.042969 418.601562 C 345.015625 418.203125 345.960938 417.753906 346.890625 417.261719 C 347.816406 416.769531 348.714844 416.230469 349.589844 415.648438 C 350.460938 415.066406 351.304688 414.445312 352.117188 413.777344 C 352.929688 413.113281 353.707031 412.410156 354.449219 411.671875 C 355.195312 410.929688 355.898438 410.152344 356.566406 409.34375 C 357.234375 408.53125 357.859375 407.691406 358.445312 406.820312 C 359.027344 405.949219 359.566406 405.050781 360.066406 404.125 C 360.5625 403.199219 361.011719 402.253906 361.414062 401.285156 C 361.816406 400.316406 362.171875 399.328125 362.476562 398.324219 C 362.785156 397.320312 363.039062 396.304688 363.246094 395.273438 C 363.453125 394.246094 363.609375 393.210938 363.710938 392.164062 C 363.816406 391.121094 363.871094 390.074219 363.871094 389.023438 C 363.871094 387.980469 363.820312 386.9375 363.71875 385.898438 C 363.617188 384.859375 363.464844 383.828125 363.261719 382.804688 C 363.058594 381.78125 362.804688 380.769531 362.503906 379.769531 C 362.203125 378.769531 361.851562 377.785156 361.453125 376.820312 C 361.054688 375.855469 360.609375 374.914062 360.121094 373.992188 C 359.628906 373.070312 359.097656 372.175781 358.519531 371.304688 C 357.941406 370.433594 357.320312 369.597656 356.660156 368.789062 C 356 367.976562 355.300781 367.203125 354.566406 366.464844 C 353.828125 365.722656 353.058594 365.019531 352.253906 364.355469 C 351.449219 363.691406 350.613281 363.066406 349.75 362.484375 C 348.882812 361.898438 347.988281 361.359375 347.070312 360.863281 C 346.152344 360.367188 345.210938 359.917969 344.25 359.515625 C 343.285156 359.109375 342.304688 358.753906 341.308594 358.445312 C 340.308594 358.136719 339.300781 357.878906 338.277344 357.671875 C 337.253906 357.460938 336.222656 357.304688 335.183594 357.195312 C 334.148438 357.085938 333.105469 357.03125 332.0625 357.023438 Z M 331.871094 356.929688 " fill-opacity="1" fill-rule="nonzero"/><path fill="#58595b" d="M 356.359375 366.960938 L 356.359375 366.535156 C 356.359375 365.960938 355.835938 365.390625 355.503906 364.773438 C 355.167969 364.15625 355.503906 364.773438 355.503906 364.535156 C 354.40625 362.449219 353.125 360.484375 351.652344 358.640625 C 351.175781 358.007812 350.699219 357.4375 350.226562 356.929688 C 349.75 356.40625 349.273438 355.882812 348.75 355.40625 C 348.472656 355.179688 348.21875 354.925781 347.988281 354.644531 L 347.371094 354.074219 L 346.847656 353.601562 C 346.277344 353.082031 345.6875 352.582031 345.082031 352.101562 C 344.480469 351.617188 343.863281 351.152344 343.230469 350.710938 C 342.597656 350.265625 341.953125 349.839844 341.296875 349.433594 C 340.636719 349.027344 339.96875 348.644531 339.285156 348.28125 C 338.605469 347.914062 337.914062 347.570312 337.210938 347.25 C 336.507812 346.925781 335.796875 346.625 335.078125 346.347656 C 334.355469 346.066406 333.628906 345.8125 332.890625 345.578125 C 332.15625 345.34375 331.414062 345.128906 330.664062 344.941406 C 329.914062 344.75 329.160156 344.585938 328.402344 344.441406 C 327.640625 344.296875 326.878906 344.179688 326.113281 344.082031 C 325.34375 343.984375 324.578125 343.910156 323.804688 343.859375 C 323.035156 343.8125 322.261719 343.785156 321.488281 343.78125 C 320.714844 343.777344 319.945312 343.800781 319.171875 343.84375 C 318.402344 343.886719 317.632812 343.953125 316.863281 344.046875 C 316.097656 344.136719 315.332031 344.25 314.574219 344.386719 C 313.8125 344.527344 313.058594 344.6875 312.308594 344.871094 C 311.554688 345.054688 310.8125 345.257812 310.074219 345.488281 C 309.335938 345.71875 308.605469 345.96875 307.882812 346.242188 C 307.160156 346.515625 306.445312 346.808594 305.742188 347.128906 C 305.035156 347.445312 304.34375 347.78125 303.660156 348.140625 C 302.972656 348.5 302.300781 348.878906 301.640625 349.28125 C 300.980469 349.679688 300.332031 350.101562 299.695312 350.539062 C 299.0625 350.980469 298.4375 351.4375 297.832031 351.917969 C 297.222656 352.394531 296.632812 352.890625 296.054688 353.402344 C 295.476562 353.917969 294.917969 354.449219 294.371094 354.996094 C 293.828125 355.542969 293.300781 356.109375 292.789062 356.6875 C 292.277344 357.269531 291.785156 357.863281 291.3125 358.472656 C 290.835938 359.082031 290.382812 359.707031 289.945312 360.34375 C 289.507812 360.980469 289.09375 361.632812 288.695312 362.296875 C 288.300781 362.960938 287.921875 363.632812 287.566406 364.320312 C 287.210938 365.003906 286.878906 365.703125 286.566406 366.410156 C 286.253906 367.113281 285.960938 367.832031 285.691406 368.554688 C 285.421875 369.277344 285.175781 370.011719 284.949219 370.75 C 284.726562 371.488281 284.523438 372.234375 284.34375 372.984375 C 284.164062 373.738281 284.007812 374.492188 283.875 375.253906 C 283.742188 376.015625 283.628906 376.78125 283.542969 377.546875 C 283.457031 378.316406 283.394531 379.085938 283.355469 379.859375 C 283.3125 380.628906 283.296875 381.402344 283.304688 382.175781 C 283.3125 382.945312 283.34375 383.71875 283.398438 384.488281 C 283.453125 385.261719 283.527344 386.027344 283.628906 386.796875 C 283.730469 387.5625 283.855469 388.324219 284.003906 389.082031 C 284.152344 389.839844 284.320312 390.59375 284.515625 391.339844 C 284.707031 392.089844 284.925781 392.832031 285.164062 393.566406 C 285.402344 394.300781 285.664062 395.027344 285.945312 395.746094 C 286.226562 396.464844 286.53125 397.175781 286.859375 397.875 C 287.183594 398.578125 287.53125 399.265625 287.898438 399.945312 C 288.269531 400.625 288.65625 401.292969 289.066406 401.949219 C 289.476562 402.605469 289.902344 403.246094 290.351562 403.875 C 290.800781 404.507812 291.265625 405.121094 291.753906 405.722656 C 292.238281 406.324219 292.742188 406.910156 293.261719 407.480469 C 293.785156 408.050781 294.320312 408.605469 294.875 409.140625 C 295.433594 409.679688 296.003906 410.199219 296.589844 410.703125 C 297.175781 411.207031 297.777344 411.691406 298.394531 412.15625 C 299.011719 412.621094 299.640625 413.070312 300.285156 413.496094 C 300.925781 413.925781 301.582031 414.332031 302.25 414.71875 C 302.917969 415.109375 303.597656 415.476562 304.289062 415.820312 C 304.980469 416.167969 305.679688 416.492188 306.390625 416.796875 C 307.101562 417.101562 307.820312 417.382812 308.550781 417.640625 C 309.277344 417.902344 310.011719 418.140625 310.753906 418.355469 C 311.496094 418.570312 312.246094 418.761719 312.996094 418.929688 C 313.75 419.101562 314.511719 419.246094 315.273438 419.371094 C 316.035156 419.492188 316.800781 419.59375 317.570312 419.671875 C 318.339844 419.746094 319.109375 419.800781 319.882812 419.828125 C 320.65625 419.859375 321.425781 419.867188 322.199219 419.847656 C 322.972656 419.832031 323.742188 419.789062 324.511719 419.726562 C 325.28125 419.660156 326.050781 419.574219 326.816406 419.460938 C 327.578125 419.351562 328.339844 419.214844 329.097656 419.058594 C 329.851562 418.902344 330.605469 418.722656 331.351562 418.519531 C 332.09375 418.3125 332.832031 418.089844 333.566406 417.839844 C 334.296875 417.59375 335.019531 417.320312 335.734375 417.027344 C 336.453125 416.738281 337.15625 416.421875 337.851562 416.085938 C 338.550781 415.753906 339.234375 415.394531 339.910156 415.019531 C 340.582031 414.640625 341.246094 414.242188 341.894531 413.828125 C 342.546875 413.410156 343.183594 412.972656 343.804688 412.515625 C 344.429688 412.058594 345.039062 411.585938 345.632812 411.089844 C 346.226562 410.597656 346.808594 410.085938 347.371094 409.558594 C 347.933594 409.027344 348.480469 408.484375 349.011719 407.921875 C 349.542969 407.359375 350.054688 406.78125 350.550781 406.1875 C 351.042969 405.59375 351.519531 404.988281 351.980469 404.363281 C 352.4375 403.742188 352.875 403.105469 353.292969 402.457031 C 353.714844 401.808594 354.113281 401.148438 354.492188 400.472656 C 354.871094 399.800781 355.230469 399.117188 355.566406 398.421875 C 355.902344 397.726562 356.21875 397.019531 356.511719 396.304688 C 356.808594 395.589844 357.082031 394.867188 357.332031 394.136719 C 357.582031 393.40625 357.808594 392.667969 358.011719 391.925781 C 358.21875 391.179688 358.402344 390.429688 358.5625 389.671875 C 358.71875 388.917969 358.855469 388.15625 358.96875 387.390625 C 359.082031 386.628906 359.171875 385.859375 359.238281 385.089844 C 359.304688 384.320312 359.347656 383.550781 359.367188 382.777344 C 359.386719 382.003906 359.382812 381.230469 359.355469 380.460938 C 359.328125 379.6875 359.277344 378.917969 359.203125 378.148438 C 359.128906 377.378906 359.03125 376.613281 358.910156 375.847656 C 358.789062 375.085938 358.644531 374.328125 358.476562 373.574219 C 358.308594 372.820312 358.117188 372.070312 357.90625 371.328125 C 357.691406 370.585938 357.457031 369.847656 357.199219 369.121094 C 356.941406 368.390625 356.660156 367.671875 356.359375 366.960938 Z M 321.554688 414.507812 C 320.53125 414.46875 319.511719 414.382812 318.496094 414.246094 C 317.480469 414.109375 316.476562 413.921875 315.480469 413.6875 C 314.484375 413.457031 313.5 413.175781 312.53125 412.847656 C 311.558594 412.519531 310.609375 412.144531 309.671875 411.726562 C 308.738281 411.308594 307.828125 410.84375 306.9375 410.339844 C 306.046875 409.832031 305.183594 409.285156 304.347656 408.695312 C 303.507812 408.105469 302.703125 407.480469 301.925781 406.8125 C 301.148438 406.144531 300.402344 405.445312 299.695312 404.707031 C 298.984375 403.96875 298.3125 403.199219 297.675781 402.394531 C 297.039062 401.59375 296.441406 400.761719 295.886719 399.902344 C 295.332031 399.042969 294.816406 398.160156 294.34375 397.25 C 293.871094 396.34375 293.445312 395.414062 293.0625 394.464844 C 292.679688 393.515625 292.34375 392.546875 292.054688 391.566406 C 291.761719 390.585938 291.519531 389.589844 291.324219 388.585938 C 291.132812 387.582031 290.984375 386.570312 290.886719 385.550781 C 290.789062 384.53125 290.738281 383.507812 290.738281 382.484375 C 290.738281 381.460938 290.789062 380.441406 290.886719 379.421875 C 290.984375 378.402344 291.132812 377.390625 291.324219 376.386719 C 291.519531 375.378906 291.761719 374.386719 292.054688 373.40625 C 292.34375 372.421875 292.679688 371.457031 293.0625 370.507812 C 293.445312 369.558594 293.871094 368.628906 294.34375 367.71875 C 294.816406 366.8125 295.332031 365.925781 295.886719 365.066406 C 296.441406 364.207031 297.039062 363.378906 297.675781 362.574219 C 298.3125 361.773438 298.984375 361.003906 299.695312 360.265625 C 300.402344 359.527344 301.148438 358.824219 301.925781 358.160156 C 302.703125 357.492188 303.507812 356.863281 304.347656 356.277344 C 305.183594 355.6875 306.046875 355.140625 306.9375 354.632812 C 307.828125 354.125 308.738281 353.664062 309.671875 353.246094 C 310.609375 352.824219 311.558594 352.453125 312.53125 352.125 C 313.5 351.796875 314.484375 351.515625 315.480469 351.28125 C 316.476562 351.050781 317.480469 350.863281 318.496094 350.726562 C 319.511719 350.589844 320.53125 350.5 321.554688 350.460938 C 323.683594 350.46875 325.792969 350.691406 327.878906 351.128906 L 328.257812 351.128906 L 330.539062 351.746094 L 331.441406 351.746094 L 333.058594 352.363281 C 333.914062 352.695312 334.722656 353.03125 335.578125 353.457031 L 336.007812 353.457031 L 337.816406 354.457031 C 339.679688 355.589844 341.425781 356.890625 343.046875 358.355469 C 344.253906 359.429688 345.375 360.589844 346.410156 361.835938 C 347.441406 363.078125 348.375 364.394531 349.210938 365.78125 C 350.042969 367.167969 350.769531 368.609375 351.382812 370.105469 C 351.996094 371.601562 352.496094 373.136719 352.878906 374.710938 C 353.261719 376.28125 353.523438 377.875 353.664062 379.484375 C 353.804688 381.097656 353.824219 382.710938 353.71875 384.324219 C 353.617188 385.9375 353.390625 387.535156 353.046875 389.117188 C 352.699219 390.699219 352.234375 392.242188 351.65625 393.753906 C 351.074219 395.261719 350.382812 396.722656 349.582031 398.125 C 348.78125 399.53125 347.878906 400.867188 346.875 402.136719 C 345.871094 403.40625 344.773438 404.589844 343.589844 405.695312 C 342.40625 406.796875 341.144531 407.804688 339.808594 408.714844 C 338.472656 409.625 337.074219 410.429688 335.617188 411.128906 C 334.15625 411.828125 332.652344 412.414062 331.105469 412.886719 C 329.558594 413.355469 327.984375 413.707031 326.382812 413.941406 C 324.78125 414.171875 323.171875 414.285156 321.554688 414.273438 Z M 321.554688 414.507812 " fill-opacity="1" fill-rule="nonzero"/><path fill="#58595b" d="M 359.828125 396.011719 C 359.828125 397.257812 359.769531 398.5 359.644531 399.742188 C 359.523438 400.980469 359.339844 402.210938 359.097656 403.433594 C 358.855469 404.65625 358.554688 405.863281 358.191406 407.054688 C 357.828125 408.246094 357.410156 409.417969 356.933594 410.570312 C 356.457031 411.722656 355.925781 412.84375 355.335938 413.945312 C 354.75 415.042969 354.109375 416.109375 353.417969 417.144531 C 352.726562 418.183594 351.984375 419.179688 351.195312 420.144531 C 350.40625 421.109375 349.570312 422.03125 348.6875 422.910156 C 347.808594 423.792969 346.886719 424.625 345.921875 425.417969 C 344.960938 426.207031 343.960938 426.949219 342.925781 427.640625 C 341.886719 428.332031 340.820312 428.972656 339.722656 429.558594 C 338.625 430.148438 337.5 430.679688 336.347656 431.15625 C 335.195312 431.632812 334.023438 432.050781 332.832031 432.414062 C 331.640625 432.773438 330.433594 433.078125 329.210938 433.320312 C 327.988281 433.5625 326.757812 433.746094 325.519531 433.867188 C 324.28125 433.992188 323.035156 434.050781 321.789062 434.050781 C 320.546875 434.050781 319.300781 433.992188 318.0625 433.867188 C 316.824219 433.746094 315.59375 433.5625 314.371094 433.320312 C 313.148438 433.078125 311.941406 432.773438 310.75 432.414062 C 309.558594 432.050781 308.386719 431.632812 307.234375 431.15625 C 306.082031 430.679688 304.957031 430.148438 303.859375 429.558594 C 302.761719 428.972656 301.695312 428.332031 300.65625 427.640625 C 299.621094 426.949219 298.621094 426.207031 297.660156 425.417969 C 296.695312 424.625 295.773438 423.792969 294.894531 422.910156 C 294.011719 422.03125 293.175781 421.109375 292.386719 420.144531 C 291.597656 419.179688 290.855469 418.183594 290.164062 417.144531 C 289.472656 416.109375 288.832031 415.042969 288.242188 413.945312 C 287.65625 412.84375 287.125 411.722656 286.648438 410.570312 C 286.171875 409.417969 285.753906 408.246094 285.390625 407.054688 C 285.027344 405.863281 284.726562 404.65625 284.484375 403.433594 C 284.242188 402.210938 284.058594 400.980469 283.9375 399.742188 C 283.8125 398.5 283.753906 397.257812 283.753906 396.011719 C 283.753906 394.765625 283.8125 393.523438 283.9375 392.285156 C 284.058594 391.046875 284.242188 389.8125 284.484375 388.59375 C 284.726562 387.371094 285.027344 386.164062 285.390625 384.972656 C 285.753906 383.777344 286.171875 382.609375 286.648438 381.457031 C 287.125 380.304688 287.65625 379.179688 288.242188 378.082031 C 288.832031 376.984375 289.472656 375.917969 290.164062 374.878906 C 290.855469 373.84375 291.597656 372.84375 292.386719 371.882812 C 293.175781 370.917969 294.011719 369.996094 294.894531 369.117188 C 295.773438 368.234375 296.695312 367.398438 297.660156 366.609375 C 298.621094 365.820312 299.621094 365.078125 300.65625 364.386719 C 301.695312 363.691406 302.761719 363.054688 303.859375 362.464844 C 304.957031 361.878906 306.082031 361.347656 307.234375 360.871094 C 308.386719 360.394531 309.558594 359.972656 310.75 359.613281 C 311.941406 359.25 313.148438 358.949219 314.371094 358.707031 C 315.59375 358.460938 316.824219 358.28125 318.0625 358.15625 C 319.300781 358.035156 320.546875 357.976562 321.789062 357.976562 C 323.035156 357.976562 324.28125 358.035156 325.519531 358.15625 C 326.757812 358.28125 327.988281 358.460938 329.210938 358.707031 C 330.433594 358.949219 331.640625 359.25 332.832031 359.613281 C 334.023438 359.972656 335.195312 360.394531 336.347656 360.871094 C 337.5 361.347656 338.625 361.878906 339.722656 362.464844 C 340.820312 363.054688 341.886719 363.691406 342.925781 364.386719 C 343.960938 365.078125 344.960938 365.820312 345.921875 366.609375 C 346.886719 367.398438 347.808594 368.234375 348.6875 369.117188 C 349.570312 369.996094 350.40625 370.917969 351.195312 371.882812 C 351.984375 372.84375 352.726562 373.84375 353.417969 374.878906 C 354.109375 375.917969 354.75 376.984375 355.335938 378.082031 C 355.925781 379.179688 356.457031 380.304688 356.933594 381.457031 C 357.410156 382.609375 357.828125 383.777344 358.191406 384.972656 C 358.554688 386.164062 358.855469 387.371094 359.097656 388.59375 C 359.339844 389.8125 359.523438 391.046875 359.644531 392.285156 C 359.769531 393.523438 359.828125 394.765625 359.828125 396.011719 Z M 321.789062 364.203125 C 320.742188 364.203125 319.695312 364.253906 318.648438 364.359375 C 317.605469 364.460938 316.566406 364.613281 315.539062 364.820312 C 314.507812 365.023438 313.492188 365.277344 312.488281 365.582031 C 311.484375 365.886719 310.496094 366.242188 309.527344 366.644531 C 308.558594 367.042969 307.609375 367.492188 306.683594 367.988281 C 305.757812 368.484375 304.859375 369.019531 303.988281 369.605469 C 303.113281 370.1875 302.273438 370.8125 301.460938 371.476562 C 300.648438 372.144531 299.871094 372.847656 299.128906 373.589844 C 298.386719 374.332031 297.683594 375.109375 297.019531 375.921875 C 296.351562 376.730469 295.726562 377.574219 295.144531 378.445312 C 294.5625 379.320312 294.023438 380.21875 293.527344 381.144531 C 293.03125 382.070312 292.585938 383.015625 292.183594 383.988281 C 291.78125 384.957031 291.429688 385.945312 291.125 386.949219 C 290.820312 387.953125 290.5625 388.96875 290.359375 390 C 290.15625 391.027344 290 392.066406 289.898438 393.109375 C 289.796875 394.152344 289.742188 395.203125 289.742188 396.25 C 289.742188 397.300781 289.796875 398.347656 289.898438 399.390625 C 290 400.4375 290.15625 401.472656 290.359375 402.503906 C 290.5625 403.53125 290.820312 404.550781 291.125 405.554688 C 291.429688 406.558594 291.78125 407.546875 292.183594 408.515625 C 292.585938 409.484375 293.03125 410.433594 293.527344 411.359375 C 294.023438 412.285156 294.5625 413.183594 295.144531 414.054688 C 295.726562 414.929688 296.351562 415.769531 297.019531 416.582031 C 297.683594 417.394531 298.386719 418.167969 299.128906 418.910156 C 299.871094 419.652344 300.648438 420.359375 301.460938 421.023438 C 302.273438 421.691406 303.113281 422.3125 303.988281 422.898438 C 304.859375 423.480469 305.757812 424.019531 306.683594 424.515625 C 307.609375 425.007812 308.558594 425.457031 309.527344 425.859375 C 310.496094 426.261719 311.484375 426.613281 312.488281 426.917969 C 313.492188 427.222656 314.507812 427.476562 315.539062 427.683594 C 316.566406 427.886719 317.605469 428.042969 318.648438 428.144531 C 319.695312 428.246094 320.742188 428.296875 321.789062 428.296875 C 322.839844 428.296875 323.886719 428.246094 324.933594 428.144531 C 325.976562 428.042969 327.015625 427.886719 328.042969 427.683594 C 329.074219 427.476562 330.089844 427.222656 331.09375 426.917969 C 332.097656 426.613281 333.085938 426.261719 334.054688 425.859375 C 335.023438 425.457031 335.972656 425.007812 336.898438 424.515625 C 337.824219 424.019531 338.722656 423.480469 339.59375 422.898438 C 340.46875 422.3125 341.308594 421.691406 342.121094 421.023438 C 342.933594 420.359375 343.710938 419.652344 344.453125 418.910156 C 345.195312 418.167969 345.898438 417.394531 346.5625 416.582031 C 347.230469 415.769531 347.855469 414.929688 348.4375 414.054688 C 349.019531 413.183594 349.558594 412.285156 350.054688 411.359375 C 350.550781 410.433594 350.996094 409.484375 351.398438 408.515625 C 351.800781 407.546875 352.152344 406.558594 352.457031 405.554688 C 352.761719 404.550781 353.019531 403.53125 353.222656 402.503906 C 353.425781 401.472656 353.582031 400.4375 353.683594 399.390625 C 353.785156 398.347656 353.839844 397.300781 353.839844 396.25 C 353.839844 395.203125 353.789062 394.160156 353.683594 393.117188 C 353.582031 392.078125 353.429688 391.042969 353.226562 390.015625 C 353.023438 388.988281 352.769531 387.976562 352.464844 386.972656 C 352.164062 385.972656 351.8125 384.988281 351.414062 384.019531 C 351.011719 383.050781 350.566406 382.105469 350.074219 381.183594 C 349.582031 380.257812 349.046875 379.363281 348.46875 378.492188 C 347.886719 377.621094 347.265625 376.777344 346.605469 375.96875 C 345.941406 375.15625 345.242188 374.382812 344.503906 373.640625 C 343.765625 372.898438 342.992188 372.195312 342.183594 371.527344 C 341.375 370.863281 340.539062 370.238281 339.667969 369.652344 C 338.800781 369.070312 337.90625 368.53125 336.984375 368.035156 C 336.0625 367.539062 335.121094 367.085938 334.152344 366.683594 C 333.1875 366.28125 332.207031 365.925781 331.203125 365.617188 C 330.203125 365.308594 329.191406 365.050781 328.164062 364.84375 C 327.140625 364.636719 326.105469 364.476562 325.066406 364.371094 C 324.023438 364.265625 322.980469 364.207031 321.933594 364.203125 Z M 321.789062 364.203125 " fill-opacity="1" fill-rule="nonzero"/></svg>