<svg width="120" height="39" viewBox="0 0 120 39" fill="none" xmlns="http://www.w3.org/2000/svg">
  <g clip-path="url(#clip0_1_3860)">
    <g clip-path="url(#clip1_1_3860)">
      <g filter="url(#filter0_d_1_3860)">
        <mask id="mask0_1_3860" style="mask-type:luminance" maskUnits="userSpaceOnUse" x="4" y="2" width="113"
          height="31">
          <path d="M4.41895 2.81055H116.35V32.4225H4.41895V2.81055Z" fill="white" />
        </mask>
        <g mask="url(#mask0_1_3860)">
          <path fill-rule="evenodd" clip-rule="evenodd"
            d="M14.145 2.81534C13.0376 2.81534 11.9302 2.8177 10.8228 2.81179C10.6772 2.81061 10.6283 2.84371 10.6331 2.99385C10.6426 3.38041 10.6414 3.76698 10.6331 4.15355C10.6307 4.28358 10.6617 4.32969 10.8025 4.32851C13.0185 4.32496 15.2334 4.32496 17.4482 4.32969C17.595 4.32969 17.614 4.27294 17.6117 4.15C17.6057 3.78708 17.5985 3.42297 17.614 3.06123C17.6224 2.8709 17.5794 2.80825 17.3718 2.81061C16.2966 2.82125 15.2202 2.81534 14.145 2.81534ZM78.661 12.9654C78.7469 13.203 78.8126 13.3945 78.883 13.5836C80.772 18.6705 82.7505 23.723 84.7136 28.7827C85.0608 29.6788 85.4129 30.5772 85.6205 31.5194C85.6527 31.6648 85.6885 31.8138 85.5919 31.9544C85.525 32.0526 85.5596 32.0939 85.6754 32.0939C86.457 32.0927 87.2386 32.0927 88.0191 32.0939C88.1563 32.0939 88.1778 32.0466 88.0919 31.9438C87.9212 31.7416 87.8138 31.504 87.6993 31.27C87.1945 30.2427 86.7506 29.1882 86.3126 28.1313C83.747 21.9439 81.3555 15.6891 78.9546 9.43899C78.914 9.33141 78.9176 9.20138 78.7255 9.19428C78.5178 9.18719 78.5178 9.3326 78.4737 9.4449C77.0023 13.1297 75.519 16.8098 74.0059 20.4768C72.6311 23.8093 71.2672 27.1466 69.7564 30.4212C69.5249 30.9224 69.297 31.4272 68.9867 31.8882C68.9497 31.9438 68.8567 31.9816 68.9056 32.0644C68.9426 32.1282 69.0225 32.0916 69.081 32.0916C69.7827 32.0939 70.4844 32.088 71.186 32.0963C71.3686 32.0975 71.4533 32.0786 71.3268 31.8859C71.2731 31.8019 71.3065 31.7015 71.3244 31.6081C71.4342 31.0477 71.6407 30.5181 71.8471 29.9897C74.0715 24.3153 76.4426 18.6977 78.661 12.9654ZM14.2011 12.9855C14.2847 13.216 14.3575 13.4241 14.435 13.6298C16.2358 18.4636 18.1009 23.2738 19.9792 28.0793C20.4052 29.1657 20.8372 30.2521 21.126 31.3858C21.1702 31.5572 21.2429 31.744 21.1451 31.9166C21.0496 32.0868 21.1272 32.0951 21.2704 32.0939C21.9399 32.0904 22.6093 32.0963 23.2788 32.0904C23.4088 32.0892 23.5914 32.159 23.6547 32.049C23.7131 31.9473 23.5234 31.8587 23.4816 31.7405C23.4685 31.7038 23.4411 31.6719 23.422 31.6376C23.0938 31.0241 22.8122 30.3893 22.5377 29.7521C20.5604 25.1476 18.7573 20.4745 16.9422 15.8061C16.1105 13.6664 15.2918 11.522 14.4684 9.3787C14.4314 9.28294 14.4159 9.19783 14.2692 9.19665C14.126 9.19428 14.0746 9.25457 14.0329 9.36924C13.9362 9.62814 13.8324 9.88348 13.7298 10.14C11.25 16.3026 8.78701 22.4711 6.12709 28.5593C5.61993 29.7213 5.16766 30.913 4.44569 31.9722C4.38126 32.0667 4.44211 32.0951 4.534 32.0939C4.71777 32.0916 4.90035 32.0927 5.08412 32.0927C5.65095 32.0927 6.21659 32.0927 6.78223 32.0927C6.8586 32.0916 6.97913 32.1069 6.90395 31.9781C6.8049 31.8055 6.84786 31.6423 6.88724 31.4745C7.01254 30.9437 7.20824 30.4342 7.40514 29.927C8.89322 26.1051 10.4792 22.321 11.9983 18.5109C12.7286 16.6797 13.4589 14.8486 14.2011 12.9855ZM114.252 28.2342C114.235 28.2413 114.219 28.2472 114.203 28.2531C114.062 28.0651 113.925 27.8748 113.782 27.688C109.055 21.4911 104.174 15.4136 99.2924 9.33614C99.2161 9.24039 99.1373 9.16473 99.0168 9.20729C98.8939 9.24984 98.9583 9.37161 98.9583 9.45436C98.9511 14.6748 98.9559 19.8964 98.9392 25.1168C98.9332 26.9811 98.8903 28.8454 98.7065 30.7013C98.6659 31.1151 98.6588 31.5454 98.4523 31.9202C98.3497 32.1081 98.4308 32.0939 98.5657 32.0939C99.2674 32.0916 99.9702 32.0868 100.671 32.0963C100.877 32.0998 100.906 32.0608 100.807 31.8788C100.746 31.7665 100.734 31.6222 100.716 31.491C100.629 30.8397 100.602 30.1836 100.582 29.5298C100.436 24.1912 100.514 18.8514 100.495 13.5127C100.495 13.4654 100.462 13.3992 100.554 13.3709C100.711 13.5836 100.868 13.8 101.03 14.0128C105.736 20.1754 110.591 26.2233 115.446 32.2713C115.519 32.3611 115.591 32.4545 115.717 32.4119C115.859 32.3646 115.783 32.2346 115.783 32.1471C115.787 27.5887 115.781 23.0315 115.789 18.4742C115.794 15.9941 115.806 13.5139 116.031 11.0408C116.074 10.5821 116.077 10.1093 116.327 9.69079C116.393 9.58085 116.309 9.57612 116.23 9.57612C115.481 9.57612 114.732 9.57612 113.982 9.57612C113.889 9.57494 113.837 9.60213 113.894 9.69788C114.041 9.93904 114.043 10.2109 114.066 10.4757C114.223 12.3187 114.227 14.1676 114.235 16.0154C114.254 20.0276 114.248 24.041 114.252 28.0533C114.252 28.1136 114.252 28.1739 114.252 28.2342ZM54.7921 14.079C54.8088 14.0813 54.8255 14.0837 54.8422 14.0849C54.8935 14.6748 54.9425 15.2647 54.9997 15.8534C55.199 17.9127 55.4079 19.9709 55.6024 22.0302C55.7623 23.7278 55.9174 25.4254 56.057 27.1253C56.1692 28.5037 56.2862 29.8809 56.2754 31.2652C56.2742 31.4922 56.2981 31.7275 56.1943 31.9403C56.1203 32.088 56.1859 32.0939 56.3064 32.0939C57.0236 32.0916 57.742 32.0892 58.4592 32.0951C58.6525 32.0963 58.6656 32.0502 58.5571 31.9024C58.4508 31.7617 58.4186 31.5856 58.3757 31.4177C58.2074 30.7675 58.0988 30.1055 57.995 29.4435C57.6644 27.3369 57.4127 25.2208 57.1656 23.1036C56.8804 20.6494 56.6215 18.1917 56.3745 15.734C56.1609 13.6286 55.964 11.522 55.7551 9.41535C55.748 9.34205 55.8148 9.21674 55.6489 9.19901C55.5045 9.18364 55.4795 9.28176 55.4353 9.37279C52.3434 15.8191 49.1393 22.2158 46.4114 28.8276C46.378 28.9092 46.3362 28.9872 46.2956 29.0723C46.2586 29.0428 46.2407 29.0357 46.236 29.0227C46.0474 28.5711 45.8601 28.1195 45.6715 27.6691C44.0331 23.7514 42.1918 19.9248 40.366 16.091C39.2968 13.8473 38.2085 11.6118 37.1285 9.37279C37.0844 9.28176 37.0569 9.18246 36.9125 9.20019C36.7526 9.22029 36.8111 9.33969 36.8039 9.41771C36.6834 10.6507 36.5736 11.8861 36.4507 13.1191C36.1524 16.1052 35.854 19.0902 35.5139 22.0704C35.2061 24.7681 34.9089 27.4681 34.4471 30.1457C34.3397 30.7687 34.2955 31.4166 33.9495 31.9804C33.9029 32.0561 33.9423 32.0939 34.0294 32.0939C34.7872 32.0927 35.545 32.0927 36.3015 32.0939C36.3791 32.0939 36.4364 32.0738 36.3922 31.9852C36.2598 31.718 36.2812 31.4307 36.2824 31.1494C36.2872 29.9885 36.3672 28.83 36.4638 27.6726C36.6225 25.7765 36.786 23.8803 36.9626 21.9865C37.1559 19.9189 37.366 17.8524 37.5676 15.786C37.6225 15.2174 37.6715 14.6476 37.7228 14.0837C37.7478 14.0802 37.761 14.0778 37.761 14.0778C37.8636 14.3249 37.9662 14.5708 38.0665 14.8178C39.1369 17.4682 40.403 20.03 41.6273 22.6106C43.0856 25.6843 44.4293 28.8087 45.9066 31.8729C45.9782 32.0218 46.045 32.1105 46.2348 32.0998C46.4233 32.0892 46.557 32.0892 46.6608 31.8741C48.0761 28.9198 49.378 25.9148 50.7742 22.9523C51.9305 20.4969 53.1405 18.0652 54.1907 15.5614C54.3971 15.0696 54.5928 14.5731 54.7921 14.079Z"
            fill="#58595B" />
        </g>
        <path fill-rule="evenodd" clip-rule="evenodd"
          d="M54.7923 14.0793C54.5918 14.5734 54.3973 15.0688 54.1908 15.5605C53.1407 18.0644 51.9307 20.4961 50.7743 22.9526C49.3782 25.9151 48.075 28.9202 46.6598 31.8732C46.5571 32.0895 46.4235 32.0883 46.2349 32.099C46.0452 32.1096 45.9784 32.0221 45.9068 31.8732C44.4294 28.809 43.0857 25.6834 41.6275 22.611C40.402 20.0303 39.137 17.4674 38.0666 14.8182C37.9664 14.5699 37.8638 14.324 37.7611 14.0781C37.7611 14.0758 37.7468 14.0793 37.7229 14.0828C37.6716 14.6479 37.6227 15.2177 37.5678 15.7852C37.3661 17.8528 37.1561 19.918 36.9628 21.9856C36.7862 23.8806 36.6215 25.7756 36.464 27.6718C36.3673 28.8291 36.2874 29.9876 36.2814 31.1497C36.2802 31.4311 36.2599 31.7183 36.3924 31.9855C36.4365 32.0742 36.3793 32.0931 36.3017 32.0931C35.5439 32.0931 34.7874 32.0931 34.0296 32.0943C33.9413 32.0943 33.9031 32.0564 33.9496 31.9808C34.2957 31.4157 34.3399 30.7679 34.4473 30.1449C34.9091 27.4673 35.2062 24.7684 35.5141 22.0707C35.8542 19.0893 36.1525 16.1043 36.4509 13.1194C36.5738 11.8864 36.6836 10.651 36.8029 9.41686C36.8112 9.33883 36.7516 9.21944 36.9127 9.19934C37.0571 9.18161 37.0845 9.28091 37.1287 9.37193C38.2086 11.6109 39.2969 13.8464 40.3662 16.0913C42.1919 19.9239 44.0332 23.7506 45.6717 27.6682C45.8602 28.1198 46.0476 28.5714 46.2361 29.023C46.2409 29.0348 46.2588 29.0419 46.2946 29.0727C46.3352 28.9875 46.3769 28.9083 46.4104 28.8279C49.1395 22.2149 52.3436 15.8194 55.4355 9.37312C55.4784 9.28209 55.5047 9.18397 55.6491 9.19934C55.815 9.21707 55.7481 9.3412 55.7553 9.41567C55.9641 11.5211 56.161 13.6277 56.3734 15.7331C56.6216 18.192 56.8806 20.6498 57.1658 23.1039C57.4128 25.2212 57.6634 27.3372 57.994 29.4427C58.0978 30.1059 58.2076 30.7679 58.3758 31.4181C58.4188 31.5859 58.451 31.7621 58.556 31.9028C58.6658 32.0493 58.6515 32.0966 58.4594 32.0954C57.7422 32.0895 57.0238 32.0907 56.3066 32.0943C56.1861 32.0943 56.1204 32.0872 56.1944 31.9394C56.2983 31.7278 56.2744 31.4925 56.2756 31.2644C56.2851 29.8801 56.1694 28.5029 56.0572 27.1256C55.9176 25.4257 55.7625 23.7269 55.6025 22.0293C55.408 19.97 55.1992 17.9119 54.9999 15.8525C54.9414 15.2638 54.8937 14.6739 54.8412 14.0852C54.8257 14.0828 54.809 14.0817 54.7923 14.0793Z"
          fill="#58595B" />
        <mask id="mask1_1_3860" style="mask-type:luminance" maskUnits="userSpaceOnUse" x="98" y="9" width="19"
          height="24">
          <path d="M98.4053 9.19434H116.35V32.4229H98.4053V9.19434Z" fill="white" />
        </mask>
        <g mask="url(#mask1_1_3860)">
          <path fill-rule="evenodd" clip-rule="evenodd"
            d="M114.252 28.2345C114.252 28.1743 114.252 28.114 114.252 28.0537C114.248 24.0402 114.254 20.028 114.235 16.0157C114.227 14.168 114.223 12.3191 114.066 10.4761C114.043 10.2113 114.041 9.93823 113.894 9.69825C113.835 9.60132 113.889 9.57531 113.982 9.57531C114.731 9.57649 115.481 9.57649 116.23 9.57649C116.309 9.57649 116.393 9.58122 116.327 9.69116C116.076 10.1085 116.073 10.5825 116.031 11.0412C115.805 13.5131 115.794 15.9944 115.789 18.4734C115.779 23.0319 115.786 27.5891 115.783 32.1463C115.783 32.235 115.859 32.365 115.717 32.4123C115.591 32.4549 115.519 32.3615 115.446 32.2704C110.591 26.2237 105.736 20.1746 101.029 14.0131C100.867 13.8004 100.711 13.584 100.552 13.3712C100.462 13.3984 100.495 13.4646 100.495 13.5119C100.513 18.8517 100.434 24.1916 100.582 29.529C100.6 30.1839 100.628 30.84 100.716 31.4902C100.734 31.6226 100.745 31.7657 100.807 31.8791C100.906 32.0612 100.876 32.099 100.671 32.0967C99.9689 32.086 99.2672 32.0919 98.5655 32.0931C98.4307 32.0943 98.3483 32.1085 98.4521 31.9205C98.6586 31.5458 98.6646 31.1155 98.7063 30.7017C98.8901 28.8445 98.9331 26.9803 98.939 25.1172C98.9557 19.8956 98.951 14.6752 98.9581 9.45355C98.9581 9.37079 98.8937 9.25021 99.0166 9.20647C99.1371 9.16392 99.2159 9.23958 99.2922 9.33533C104.174 15.4128 109.055 21.4903 113.782 27.6872C113.925 27.874 114.062 28.0643 114.202 28.2535C114.218 28.2475 114.235 28.2405 114.252 28.2345Z"
            fill="#58595B" />
        </g>
        <path fill-rule="evenodd" clip-rule="evenodd"
          d="M14.2011 12.9851C13.4589 14.8482 12.7286 16.6794 11.9983 18.5106C10.4792 22.3207 8.89203 26.1048 7.40514 29.9279C7.20824 30.435 7.01254 30.9433 6.88724 31.4741C6.84786 31.642 6.8049 31.8063 6.90395 31.9777C6.97913 32.1066 6.8586 32.0912 6.78223 32.0924C6.21659 32.0924 5.65095 32.0924 5.08412 32.0924C4.90035 32.0924 4.71777 32.0912 4.534 32.0936C4.44211 32.0948 4.38126 32.0664 4.44569 31.9718C5.16766 30.9126 5.61993 29.721 6.12709 28.5589C8.78701 22.4708 11.25 16.3023 13.7298 10.1397C13.8324 9.88432 13.9362 9.6278 14.0329 9.3689C14.0746 9.25423 14.126 9.19512 14.2692 9.19631C14.4159 9.19749 14.4314 9.2826 14.4684 9.37954C15.2918 11.5216 16.1105 13.6661 16.9422 15.8058C18.7573 20.4741 20.5604 25.1472 22.5377 29.7517C22.8122 30.3889 23.0938 31.0249 23.422 31.6373C23.4411 31.6716 23.4685 31.7035 23.4816 31.7401C23.5234 31.8583 23.7131 31.947 23.6547 32.0487C23.5914 32.1586 23.4088 32.0889 23.2788 32.09C22.6093 32.096 21.9399 32.09 21.2704 32.0936C21.1272 32.0948 21.0496 32.0865 21.1451 31.9163C21.243 31.7437 21.1702 31.5581 21.126 31.3855C20.8372 30.2518 20.4052 29.1654 19.9792 28.079C18.1009 23.2735 16.2358 18.4645 14.435 13.6306C14.3575 13.4237 14.2847 13.2157 14.2011 12.9851Z"
          fill="#58595B" />
        <path fill-rule="evenodd" clip-rule="evenodd"
          d="M78.6609 12.9656C76.4414 18.6979 74.0714 24.3155 71.8471 29.9899C71.6394 30.5183 71.4342 31.0491 71.3244 31.6083C71.3053 31.7029 71.2731 31.8033 71.3268 31.8861C71.4521 32.08 71.3685 32.0977 71.1848 32.0965C70.4843 32.0882 69.7826 32.0942 69.0809 32.0918C69.0213 32.0918 68.9425 32.1284 68.9055 32.0646C68.8566 31.9819 68.9497 31.944 68.9866 31.8885C69.2969 31.4274 69.5248 30.9226 69.7563 30.4214C71.2671 27.1468 72.6311 23.8096 74.0058 20.4782C75.5189 16.81 77.0022 13.1299 78.4736 9.44513C78.5177 9.33283 78.5177 9.1886 78.7254 9.19451C78.9175 9.2016 78.9127 9.33164 78.9545 9.43922C81.3555 15.6905 83.7469 21.9441 86.3126 28.1316C86.7505 29.1884 87.1944 30.2429 87.6992 31.2702C87.8126 31.5043 87.9212 31.7419 88.0918 31.944C88.1777 32.0469 88.1562 32.0942 88.019 32.0942C87.2374 32.093 86.4569 32.093 85.6753 32.0942C85.5596 32.0942 85.5238 32.0528 85.5918 31.9547C85.6884 31.814 85.6526 31.665 85.6204 31.5196C85.4128 30.5774 85.0608 29.679 84.7135 28.7829C82.7505 23.7233 80.7707 18.6707 78.8829 13.5839C78.8125 13.3947 78.7469 13.2044 78.6609 12.9656Z"
          fill="#58595B" />
        <path fill-rule="evenodd" clip-rule="evenodd"
          d="M14.1451 2.81534C15.2203 2.81534 16.2967 2.82125 17.3718 2.81061C17.5795 2.80825 17.6224 2.8709 17.6141 3.06123C17.5986 3.42297 17.6057 3.78708 17.6117 4.15C17.6141 4.27294 17.595 4.32969 17.4482 4.32969C15.2334 4.32496 13.0186 4.32496 10.8026 4.32851C10.6618 4.32969 10.6307 4.28358 10.6331 4.15355C10.6415 3.76698 10.6427 3.38041 10.6331 2.99385C10.6284 2.84371 10.6773 2.81061 10.8229 2.81179C11.9303 2.8177 13.0377 2.81534 14.1451 2.81534Z"
          fill="#58595B" />
      </g>
    </g>
  </g>
  <defs>
    <filter id="filter0_d_1_3860" x="0.418945" y="0.810547" width="119.932" height="37.6123"
      filterUnits="userSpaceOnUse" color-interpolation-filters="sRGB">
      <feFlood flood-opacity="0" result="BackgroundImageFix" />
      <feColorMatrix in="SourceAlpha" type="matrix" values="0 0 0 0 0 0 0 0 0 0 0 0 0 0 0 0 0 0 127 0"
        result="hardAlpha" />
      <feOffset dy="2" />
      <feGaussianBlur stdDeviation="2" />
      <feColorMatrix type="matrix" values="0 0 0 0 0 0 0 0 0 0 0 0 0 0 0 0 0 0 0.0567909 0" />
      <feBlend mode="normal" in2="BackgroundImageFix" result="effect1_dropShadow_1_3860" />
      <feBlend mode="normal" in="SourceGraphic" in2="effect1_dropShadow_1_3860" result="shape" />
    </filter>
    <clipPath id="clip0_1_3860">
      <rect width="119" height="38" fill="white" transform="translate(0.900391 0.810547)" />
    </clipPath>
    <clipPath id="clip1_1_3860">
      <rect width="119" height="38" fill="white" transform="translate(0.900391 0.810547)" />
    </clipPath>
  </defs>
</svg>