<svg width="131" height="33" viewBox="0 0 131 33" fill="none" xmlns="http://www.w3.org/2000/svg">
  <g clip-path="url(#clip0_1_3864)">
    <g clip-path="url(#clip1_1_3864)">
      <path fill-rule="evenodd" clip-rule="evenodd"
        d="M128.268 29.369C128.469 29.369 128.649 29.3836 128.649 29.5968C128.649 29.8259 128.335 29.7902 128.107 29.7902H127.85V29.369H128.268ZM128.441 30.0326C128.667 30.0246 128.891 29.9028 128.891 29.5703C128.891 29.2167 128.619 29.1226 128.312 29.1226H127.607V30.8087H127.85V30.0326H128.163L128.589 30.8087H128.868L128.441 30.0326ZM128.185 31.4551C129.021 31.4551 129.685 30.7915 129.685 29.9557C129.685 29.1213 129.021 28.4551 128.185 28.4551C127.346 28.4551 126.685 29.1213 126.685 29.9557C126.685 30.7915 127.346 31.4551 128.185 31.4551ZM128.185 28.7001C128.868 28.7001 129.443 29.2432 129.443 29.9557C129.443 30.6617 128.868 31.2127 128.185 31.2127C127.498 31.2127 126.928 30.6617 126.928 29.9557C126.928 29.2432 127.498 28.7001 128.185 28.7001Z"
        fill="#58595B" />
      <path fill-rule="evenodd" clip-rule="evenodd"
        d="M11.3844 23.7178C11.502 23.7178 11.502 23.6474 11.4787 23.5541L9.23436 17.2425C9.11675 16.8921 8.99914 16.8921 8.88153 17.2425L6.80136 23.5541C6.75481 23.6717 6.80136 23.7178 6.87364 23.7178H11.3844ZM8.92809 14.3668C9.21108 13.5957 9.30541 13.4551 9.44752 13.4551C9.58963 13.4551 9.68396 13.5715 9.96695 14.2965C10.321 15.1851 14.0293 24.8392 15.4712 28.3926C16.3214 30.4731 17.0074 30.8477 17.5036 30.9871C17.8564 31.1047 18.2117 31.1277 18.4481 31.1277C18.5902 31.1277 18.6846 31.1496 18.6846 31.2684C18.6846 31.4078 18.4702 31.4551 18.2117 31.4551C17.8564 31.4551 16.1327 31.4551 14.5022 31.4078C14.0538 31.386 13.7929 31.386 13.7929 31.2453C13.7929 31.1496 13.8651 31.1047 13.9595 31.0817C14.1016 31.0344 14.2425 30.8246 14.1016 30.45L11.9038 24.6998C11.8572 24.6052 11.8095 24.5591 11.6919 24.5591H6.61392C6.49509 24.5591 6.42281 24.6295 6.37626 24.7471L4.95885 28.8849C4.74691 29.468 4.62808 30.0293 4.62808 30.45C4.62808 30.9168 5.12546 31.1277 5.52606 31.1277H5.7625C5.92788 31.1277 5.99894 31.175 5.99894 31.2684C5.99894 31.4078 5.85683 31.4551 5.64489 31.4551C5.07768 31.4551 4.0621 31.386 3.80238 31.386C3.54022 31.386 2.24286 31.4551 1.13172 31.4551C0.826679 31.4551 0.68457 31.4078 0.68457 31.2684C0.68457 31.175 0.777676 31.1277 0.896508 31.1277C1.06189 31.1277 1.39266 31.1047 1.58132 31.0817C2.66796 30.941 3.14084 30.0536 3.56472 28.8849L8.92809 14.3668Z"
        fill="#58595B" />
      <path fill-rule="evenodd" clip-rule="evenodd"
        d="M30.9705 28.1415C31.0171 30.0422 31.2524 30.6441 31.8922 30.8291C32.3408 30.9457 32.8617 30.9685 33.0737 30.9685C33.1914 30.9685 33.2637 31.0141 33.2637 31.1079C33.2637 31.246 33.1191 31.2917 32.8384 31.2917C31.489 31.2917 30.5452 31.2232 30.332 31.2232C30.1199 31.2232 29.1259 31.2917 28.0633 31.2917C27.8267 31.2917 27.6846 31.2689 27.6846 31.1079C27.6846 31.0141 27.7557 30.9685 27.8758 30.9685C28.0633 30.9685 28.4886 30.9457 28.8428 30.8291C29.4336 30.6669 29.5512 29.9953 29.5512 27.8868L29.5757 14.6133C29.5757 13.7098 29.6481 13.4551 29.8356 13.4551C30.0256 13.4551 30.4276 13.9645 30.6629 14.1964C31.0171 14.5892 34.5384 18.3197 38.1786 22.1415C40.5183 24.5972 43.0946 27.4242 43.8484 28.1884L43.5898 16.4202C43.5665 14.9148 43.4011 14.4042 42.6693 14.2192C42.2428 14.1267 41.6999 14.1027 41.5111 14.1027C41.3456 14.1027 41.3199 14.0342 41.3199 13.9405C41.3199 13.8023 41.5111 13.7795 41.793 13.7795C42.8569 13.7795 43.993 13.8492 44.2517 13.8492C44.5127 13.8492 45.291 13.7795 46.2605 13.7795C46.5203 13.7795 46.6846 13.8023 46.6846 13.9405C46.6846 14.0342 46.5926 14.1027 46.4272 14.1027C46.3071 14.1027 46.1404 14.1027 45.8597 14.1723C45.079 14.3357 44.9834 14.8439 44.9834 16.2352L44.9356 29.8091C44.9356 31.3397 44.8902 31.4551 44.7248 31.4551C44.536 31.4551 44.2517 31.2004 42.999 29.9713C42.7392 29.7406 39.3356 26.3357 36.8316 23.695C34.0886 20.7983 31.4191 17.8788 30.6629 17.045L30.9705 28.1415Z"
        fill="#58595B" />
      <path fill-rule="evenodd" clip-rule="evenodd"
        d="M70.3809 18.0268C70.4741 17.6629 70.5207 17.3449 70.5207 17.0739C70.5207 16.8313 70.4864 16.5677 70.4214 16.2831C70.3552 15.9997 70.2337 15.7361 70.0596 15.4923C69.8842 15.2498 69.6499 15.0406 69.3555 14.8637C69.0612 14.6904 68.6711 14.6013 68.1916 14.6013C67.306 14.6013 66.4425 14.8513 65.5987 15.3512C64.7536 15.8512 63.9637 16.5071 63.2265 17.3164C62.4906 18.1295 61.8123 19.0552 61.1966 20.0959C60.5809 21.1367 60.0498 22.1898 59.6095 23.2578C59.1655 24.327 58.8257 25.3603 58.5853 26.3615C58.3437 27.3614 58.2235 28.2401 58.2235 28.9962C58.2235 29.8625 58.3891 30.5641 58.7252 31.1049C59.06 31.6457 59.6168 31.9143 60.3932 31.9143C61.1696 31.9143 61.9608 31.6717 62.7641 31.1866C63.5687 30.699 64.3047 30.1186 64.9744 29.4429C65.6453 28.766 66.2193 28.0916 66.7025 27.4146C67.1846 26.7402 67.4937 26.2118 67.6274 25.8343L69.7578 19.8732C70.0792 19.0069 70.2865 18.3931 70.3809 18.0268ZM69.0587 28.8848C68.8833 29.5345 68.7962 30.1149 68.7962 30.6285C68.7962 31.3326 69.5211 31.6829 70.192 31.6829C70.7268 31.6829 71.2101 31.5282 71.6393 31.2176C72.0674 30.9045 72.4354 30.5542 72.7432 30.1632C73.0535 29.7696 73.3062 29.3774 73.5074 28.9851C73.7073 28.594 73.8496 28.3156 73.8398 28.3824L74.3635 28.6658C74.3193 28.7351 74.117 29.115 73.8496 29.5741C73.5822 30.0345 73.2338 30.4738 72.8046 30.8933C72.3753 31.3128 71.881 31.6754 71.3155 31.9873C70.755 32.2979 70.0976 32.4551 69.347 32.4551C67.5795 32.4551 66.6952 31.6433 66.6952 30.0196C66.6952 29.8315 66.7344 29.4999 66.8154 29.0247C66.8951 28.5544 67.0043 28.1275 67.1392 27.75H67.057C66.6817 28.2091 66.2536 28.714 65.7716 29.2697C65.2883 29.8241 64.745 30.3389 64.1428 30.8104C63.5418 31.2844 62.877 31.6754 62.1533 31.9873C61.4321 32.2979 60.6251 32.4551 59.7432 32.4551C59.1777 32.4551 58.8196 32.2719 58.2787 32.0306C57.7648 31.8029 57.3723 31.4156 56.97 30.996C56.5677 30.5765 56.2525 30.0419 56.0255 29.3922C55.7974 28.7437 55.6846 27.9728 55.6846 27.0817C55.6846 26.0001 55.8968 24.9186 56.326 23.8357C56.7541 22.7541 57.3122 21.7183 57.9941 20.7332C58.6773 19.7457 59.3887 18.9339 60.2865 18.0961C61.1856 17.257 62.0957 16.5269 63.0205 15.9057C63.9453 15.2844 64.6923 14.9169 65.5901 14.5654C66.4891 14.214 67.2852 14.0382 67.9818 14.0382C68.7852 14.0382 69.4684 14.2672 70.0314 14.7275C70.5919 15.1867 70.8752 15.7943 70.8752 16.5529H70.9562L76.0598 2.02186H72.5237L72.6844 1.45508H78.6846L69.6806 26.8553C69.4389 27.5594 69.2304 28.2351 69.0587 28.8848Z"
        fill="#58595B" />
      <path fill-rule="evenodd" clip-rule="evenodd"
        d="M94.3858 23.7178C94.5034 23.7178 94.5034 23.6474 94.4802 23.5541L92.2355 17.2425C92.1179 16.8921 92.0003 16.8921 91.8826 17.2425L89.8022 23.5541C89.7532 23.6717 89.8022 23.7178 89.872 23.7178H94.3858ZM91.928 14.3668C92.2122 13.5957 92.3066 13.4551 92.4475 13.4551C92.5896 13.4551 92.6852 13.5715 92.9682 14.2965C93.3235 15.1851 97.0311 24.8392 98.472 28.3926C99.3223 30.4731 100.008 30.8477 100.506 30.9871C100.86 31.1047 101.213 31.1277 101.449 31.1277C101.593 31.1277 101.685 31.1496 101.685 31.2684C101.685 31.4078 101.474 31.4551 101.213 31.4551C100.86 31.4551 99.1348 31.4551 97.5041 31.4078C97.0556 31.386 96.7959 31.386 96.7959 31.2453C96.7959 31.1496 96.8657 31.1047 96.96 31.0817C97.1009 31.0344 97.2443 30.8246 97.1009 30.45L94.9053 24.6998C94.8575 24.6052 94.8097 24.5591 94.6909 24.5591H89.6123C89.4947 24.5591 89.4248 24.6295 89.377 24.7471L87.9607 28.8849C87.7462 29.468 87.6286 30.0293 87.6286 30.45C87.6286 30.9168 88.1236 31.1277 88.5279 31.1277H88.7632C88.9286 31.1277 88.9984 31.175 88.9984 31.2684C88.9984 31.4078 88.8575 31.4551 88.6456 31.4551C88.0783 31.4551 87.0626 31.386 86.8016 31.386C86.5418 31.386 85.2431 31.4551 84.1318 31.4551C83.8255 31.4551 83.6846 31.4078 83.6846 31.2684C83.6846 31.175 83.7777 31.1277 83.8965 31.1277C84.0619 31.1277 84.3915 31.1047 84.5802 31.0817C85.6682 30.941 86.14 30.0536 86.5651 28.8849L91.928 14.3668Z"
        fill="#58595B" />
      <path fill-rule="evenodd" clip-rule="evenodd"
        d="M118.961 30.3959C121.503 30.3959 122.278 29.9493 122.786 29.2428C123.006 28.9377 123.224 28.3019 123.271 27.9725C123.322 27.7382 123.368 27.5966 123.489 27.5966C123.634 27.5966 123.685 27.6906 123.685 28.1372C123.685 28.8657 123.344 30.2556 123.2 30.8437C123.054 31.4075 123.03 31.4551 122.474 31.4551C118.428 31.4551 114.36 31.3379 110.12 31.3379C109.83 31.3379 109.685 31.3135 109.685 31.1488C109.685 31.0316 109.734 30.9145 110.025 30.4899C113.632 25.1964 117.289 19.9017 120.656 14.585H115.401C114.166 14.585 112.689 14.6546 111.912 15.0561C111.041 15.5027 110.605 16.3727 110.534 16.9145C110.485 17.2672 110.387 17.3379 110.266 17.3379C110.146 17.3379 110.12 17.2196 110.12 17.0329C110.12 16.7498 110.485 14.6094 110.605 13.9029C110.654 13.5722 110.702 13.4551 110.846 13.4551C111.065 13.4551 111.212 13.5954 111.864 13.6198C114.166 13.715 115.328 13.6918 116.079 13.6918H122.837C123.2 13.6918 123.322 13.7382 123.322 13.8785C123.322 13.9725 123.322 14.0201 123.224 14.1616C119.71 19.5734 116.054 24.9841 112.374 30.3959H118.961Z"
        fill="#58595B" />
    </g>
  </g>
  <defs>
    <clipPath id="clip0_1_3864">
      <rect width="130" height="32" fill="white" transform="translate(0.200195 0.810547)" />
    </clipPath>
    <clipPath id="clip1_1_3864">
      <rect width="130" height="32" fill="white" transform="translate(0.200195 0.810547)" />
    </clipPath>
  </defs>
</svg>