<svg width="123" height="50" viewBox="0 0 123 50" fill="none" xmlns="http://www.w3.org/2000/svg">
  <g clip-path="url(#clip0_1_3777)">
    <path fill-rule="evenodd" clip-rule="evenodd"
      d="M8.03285 41.1064C9.54035 41.1064 11.1516 40.4664 11.1516 38.6689V38.6302C11.1516 37.2827 10.0204 36.4777 8.1241 36.4777H2.81535V41.1064H8.03285ZM8.46785 47.3514C10.5804 47.3514 11.8929 46.4252 11.8929 44.9352V44.8977C11.8929 42.9089 9.54535 42.6127 8.14535 42.6127H2.81535V47.3514H8.46785ZM1.23535 48.8602V34.9727H8.14535C9.69535 34.9727 10.9979 35.4227 11.8116 36.2389C12.4354 36.8627 12.7516 37.6352 12.7516 38.5364V38.5752C12.7516 39.9052 12.1316 40.9814 10.9879 41.6652C12.6304 42.2864 13.4929 43.3927 13.4929 44.8977V44.9352C13.4929 47.3202 11.5041 48.8602 8.42785 48.8602H1.23535Z"
      fill="#58595B" />
    <path fill-rule="evenodd" clip-rule="evenodd"
      d="M3.1125 42.9095H8.145C9.43375 42.9095 11.5962 43.1683 11.5962 44.8983V44.9358C11.5962 46.262 10.4263 47.0545 8.46875 47.0545H3.1125V42.9095ZM3.1125 36.7745H8.12375C9.83375 36.7745 10.855 37.4683 10.855 38.6308V38.6695C10.855 40.6545 8.695 40.8095 8.0325 40.8095H3.1125V36.7745ZM8.145 34.6758H1.5325H0.9375V35.2708V48.5633V49.1583H1.5325H8.4275C11.635 49.1583 13.79 47.4608 13.79 44.9358V44.8983C13.79 43.4445 13.0225 42.3083 11.5988 41.6083C12.5425 40.8733 13.0487 39.8295 13.0487 38.5758V38.537C13.0487 37.5683 12.6937 36.7008 12.0212 36.0283C11.1512 35.157 9.775 34.6758 8.145 34.6758ZM2.5175 47.6495H8.46875C10.7475 47.6495 12.19 46.607 12.19 44.9358V44.8983C12.19 43.2645 10.765 42.3158 8.145 42.3158H2.5175V47.6495ZM2.5175 41.4033H8.0325C10.0238 41.4033 11.4487 40.437 11.4487 38.6695V38.6308C11.4487 37.1695 10.2513 36.1808 8.12375 36.1808H2.5175V41.4033ZM8.145 35.2708C9.64625 35.2708 10.86 35.7058 11.6012 36.4483C12.1512 36.9995 12.455 37.7008 12.455 38.537V38.5758C12.455 40.377 11.2762 41.2908 10.195 41.7258C11.79 42.1445 13.195 43.057 13.195 44.8983V44.9358C13.195 47.1558 11.2975 48.5633 8.4275 48.5633H1.5325V35.2708H8.145Z"
      fill="#58595B" />
    <path fill-rule="evenodd" clip-rule="evenodd"
      d="M20.79 34.5V48.5H31.79V46.979H22.4117V42.2006H31.1018V40.6822H22.4117V36.0159H31.6886V34.5H20.79Z"
      fill="#58595B" />
    <path fill-rule="evenodd" clip-rule="evenodd"
      d="M31.1161 34.5H21.3679H20.79V35.0752V47.926V48.5H21.3679H31.2122H31.79V47.926V47.0415V46.4675H31.2122H22.9044V42.4594H30.5601H31.138V41.8855V41.0046V40.4294H30.5601H22.9044V36.5288H31.1161H31.6939V35.9549V35.0752V34.5H31.1161ZM21.3679 35.0752H31.1161V35.9549H22.3265V41.0046H30.5601V41.8855H22.3265V47.0415H31.2122V47.926H21.3679V35.0752Z"
      fill="#58595B" />
    <path fill-rule="evenodd" clip-rule="evenodd" d="M38.79 34.5V48.5H49.79V46.979H40.4024V34.5H38.79Z"
      fill="#58595B" />
    <path fill-rule="evenodd" clip-rule="evenodd"
      d="M40.3184 34.5H39.3647H38.79V35.0752V47.926V48.5H39.3647H49.2154H49.79V47.926V47.0415V46.4675H49.2154H40.8918V35.0752V34.5H40.3184ZM39.3647 35.0752H40.3184V47.0415H49.2154V47.926H39.3647V35.0752Z"
      fill="#58595B" />
    <path fill-rule="evenodd" clip-rule="evenodd"
      d="M66.5248 34.5L61.7918 42.1918L57.0564 34.5H55.79V48.5H57.2039V37.5218L61.7883 44.8343L66.3488 37.5256V48.5H67.79V34.5H66.5248Z"
      fill="#58595B" />
    <path fill-rule="evenodd" clip-rule="evenodd"
      d="M67.1841 34.5H66.2363H65.9149L65.7337 34.7525L60.792 41.651L55.8476 34.7525L55.6678 34.5H55.3463H54.396H53.79V35.0752V47.926V48.5H54.396H55.3693H55.9752V47.926V38.606L60.2894 44.5185L60.7907 45.2048L61.2882 44.5173L65.5743 38.6144V47.926V48.5H66.1815H67.1841H67.79V47.926V35.0752V34.5H67.1841ZM66.2363 35.0752H67.1841V47.926H66.1815V36.7645L60.7894 44.1922L55.3693 36.7645V47.926H54.396V35.0752H55.3463L60.7932 42.6745L66.2363 35.0752Z"
      fill="#58595B" />
    <path fill-rule="evenodd" clip-rule="evenodd"
      d="M100.333 34.5V45.5979L92.0839 34.5H90.79V48.5H92.2527V37.1526L100.673 48.5H101.79V34.5H100.333Z"
      fill="#58595B" />
    <path fill-rule="evenodd" clip-rule="evenodd"
      d="M102.207 34.5H101.277H100.694V35.0752V44.6055L92.7394 34.7175L92.5654 34.5H92.2836H91.3733H90.79V35.0752V47.926V48.5H91.3733H92.3081H92.8901V47.926V38.1577L101.022 48.2825L101.198 48.5H101.48H102.207H102.79V47.926V35.0752V34.5H102.207ZM101.277 35.0752H102.207V47.926H101.48L92.3081 36.5059V47.926H91.3733V35.0752H92.2836L101.277 46.2537V35.0752Z"
      fill="#58595B" />
    <path fill-rule="evenodd" clip-rule="evenodd"
      d="M115.015 47.3519C118.312 47.3519 120.616 45.1319 120.616 41.9544V41.9169C120.616 38.7644 118.26 36.4769 115.015 36.4769H111.675V47.3519H115.015ZM110.133 48.8606V34.9731H115.015C119.175 34.9731 122.195 37.8781 122.195 41.8794V41.9169C122.195 45.9406 119.175 48.8606 115.015 48.8606H110.133Z"
      fill="#58595B" />
    <path fill-rule="evenodd" clip-rule="evenodd"
      d="M111.966 36.7745H115.015C118.142 36.7745 120.326 38.8895 120.326 41.917V41.9545C120.326 44.957 118.142 47.0545 115.015 47.0545H111.966V36.7745ZM115.015 34.6758H110.423H109.843V35.2708V48.5633V49.1583H110.423H115.015C117.115 49.1583 119.023 48.417 120.39 47.0708C121.742 45.7408 122.484 43.9108 122.484 41.917V41.8795C122.484 37.7058 119.343 34.6758 115.015 34.6758ZM111.385 47.6495H115.015C118.626 47.6495 120.906 45.1245 120.906 41.9545V41.917C120.906 38.7645 118.626 36.1808 115.015 36.1808H111.385V47.6495ZM115.015 35.2708C119.092 35.2708 121.905 38.137 121.905 41.8795V41.917C121.905 45.6558 119.092 48.5633 115.015 48.5633H110.423V35.2708H115.015Z"
      fill="#58595B" />
    <path fill-rule="evenodd" clip-rule="evenodd"
      d="M80.0771 36.2177C77.0198 36.2177 74.5393 38.7589 74.5393 41.8939C74.5393 45.0277 77.0198 47.5689 80.0771 47.5689C83.1356 47.5689 85.6137 45.0277 85.6137 41.8939C85.6137 38.7589 83.1356 36.2177 80.0771 36.2177ZM87.1466 41.9577C87.1466 45.9589 83.9807 49.2027 80.0771 49.2027C76.1734 49.2027 73.0088 45.9589 73.0088 41.9577C73.0088 37.9552 76.1734 34.7114 80.0771 34.7114C83.9807 34.7114 87.1466 37.9552 87.1466 41.9577Z"
      fill="#58595B" />
    <path fill-rule="evenodd" clip-rule="evenodd"
      d="M78.4875 36.7743C75.6831 36.7743 73.4022 39.1386 73.4022 42.0455C73.4022 44.9512 75.6831 47.3154 78.4875 47.3154C81.292 47.3154 83.5717 44.9512 83.5717 42.0455C83.5717 39.1386 81.292 36.7743 78.4875 36.7743ZM78.4875 47.8985C75.3734 47.8985 72.8408 45.2734 72.8408 42.0455C72.8408 38.8176 75.3734 36.1924 78.4875 36.1924C81.6016 36.1924 84.1343 38.8176 84.1343 42.0455C84.1343 45.2734 81.6016 47.8985 78.4875 47.8985ZM78.4875 35.2982C74.8653 35.2982 71.9178 38.3533 71.9178 42.108C71.9178 45.8626 74.8653 48.9177 78.4875 48.9177C82.1098 48.9177 85.0573 45.8626 85.0573 42.108C85.0573 38.3533 82.1098 35.2982 78.4875 35.2982ZM78.4875 49.4996C74.5556 49.4996 71.3564 46.1835 71.3564 42.108C71.3564 38.0324 74.5556 34.7163 78.4875 34.7163C82.4194 34.7163 85.6186 38.0324 85.6186 42.108C85.6186 46.1835 82.4194 49.4996 78.4875 49.4996Z"
      fill="#58595B" />
    <path fill-rule="evenodd" clip-rule="evenodd"
      d="M51.1402 14.663C51.737 14.9178 52.4272 15.1469 53.2001 15.3478C53.414 14.919 53.6492 14.4805 53.9009 14.0383C53.4991 13.7479 53.1091 13.4503 52.738 13.1477C52.114 13.6671 51.5798 14.1742 51.1402 14.663ZM55.091 16.661C54.5958 16.5789 54.1196 16.4858 53.6681 16.3829C53.3242 17.1289 53.0547 17.826 52.8645 18.463C53.5145 18.4238 54.2318 18.3209 55.0071 18.1555C55.0201 17.6741 55.0485 17.1743 55.091 16.661ZM52.7475 12.006C53.1209 11.7157 53.5145 11.4278 53.9246 11.1424C53.6846 10.7026 53.4577 10.2591 53.2462 9.81569C52.4709 10.0031 51.7784 10.2199 51.178 10.4637C51.6141 10.966 52.14 11.4829 52.7475 12.006ZM55.1643 8.54292C55.13 8.02842 55.1099 7.52739 55.1064 7.04719C54.3346 6.86712 53.6196 6.75074 52.9708 6.69929C53.1493 7.33997 53.4057 8.04067 53.7343 8.79159C54.2035 8.69482 54.6821 8.61152 55.1643 8.54292ZM52.9425 21.6945C53.362 22.0485 54.1727 21.9848 55.1986 21.5267C55.0768 20.8076 55.0095 19.9869 54.9988 19.0791L54.9929 19.0804V19.0718C54.1396 19.247 53.3502 19.3462 52.6376 19.3719C52.4118 20.5173 52.517 21.3356 52.9425 21.6945ZM55.4727 13.6842C55.4113 13.5936 55.3522 13.5042 55.2931 13.4147C55.2186 13.5323 55.1454 13.6512 55.0709 13.7737C55.1856 13.8508 55.3014 13.928 55.4184 14.004C55.4349 13.9023 55.4526 13.7957 55.4727 13.6842ZM54.6206 14.5393C54.4256 14.8811 54.2425 15.2216 54.0711 15.556C54.4256 15.632 54.7944 15.703 55.1761 15.7667C55.2045 15.5046 55.2376 15.2388 55.2742 14.968C55.0544 14.8284 54.8369 14.6851 54.6206 14.5393ZM57.821 1.24437C57.7572 1.24437 57.6946 1.25049 57.6355 1.26397C57.1001 1.38524 56.651 2.06512 56.3544 3.19212C56.9796 3.54737 57.6402 4.00552 58.3256 4.55922L58.3268 4.55554L58.3327 4.56044C58.7381 3.75317 59.1553 3.05002 59.5772 2.46202C58.9378 1.67434 58.3209 1.24437 57.821 1.24437ZM59.017 5.14109C59.3716 5.44979 59.732 5.78422 60.0948 6.14069C60.4553 5.80014 60.8216 5.47307 61.1892 5.16192C60.8429 4.42202 60.486 3.77032 60.1208 3.21294C59.7486 3.75929 59.3786 4.40487 59.017 5.14109ZM60.6775 2.47304C61.0911 3.07329 61.4953 3.78257 61.8829 4.59107L61.8876 4.58739L61.8912 4.59352C62.5896 4.05084 63.2586 3.60617 63.8885 3.26562C63.6119 2.13249 63.1735 1.44404 62.6405 1.31174C62.1027 1.17944 61.4126 1.59962 60.6775 2.47304ZM64.0622 4.18682C63.4961 4.51267 62.8934 4.92794 62.2623 5.42652C62.4537 5.87119 62.6381 6.33547 62.813 6.81199C63.281 6.66744 63.7478 6.53759 64.2076 6.42244C64.2052 5.59679 64.1567 4.84832 64.0622 4.18682ZM55.3167 10.2371C55.2848 9.95657 55.2576 9.69197 55.234 9.43717C54.8606 9.49229 54.4883 9.55599 54.1219 9.62704C54.2897 9.97004 54.467 10.3143 54.6526 10.6548C54.8712 10.5139 55.0934 10.3743 55.3156 10.2395L55.3167 10.2371ZM55.4432 11.2036C55.325 11.2783 55.2068 11.3531 55.0898 11.429C55.1607 11.5515 55.234 11.674 55.3073 11.7965C55.3687 11.7059 55.4302 11.6164 55.4916 11.5282C55.4751 11.4192 55.4586 11.3114 55.4432 11.2036ZM53.4471 12.5842C53.739 12.8169 54.0427 13.0472 54.3536 13.2714C54.4942 13.0423 54.6336 12.8194 54.7755 12.6013C54.6348 12.3747 54.4977 12.1456 54.3642 11.9178C54.0475 12.1383 53.7402 12.3612 53.4471 12.5842ZM55.5649 2.79154C55.7883 2.01122 56.0719 1.47467 56.3697 1.10717C55.4467 1.42077 54.5816 1.84462 53.7875 2.36279C54.3016 2.35667 54.8984 2.49754 55.5649 2.79154ZM53.1056 3.47019C52.6742 3.81809 52.5548 4.63517 52.7605 5.78667C53.4731 5.82464 54.2602 5.93979 55.1099 6.12967V6.12354L55.1158 6.12477C55.1442 5.21214 55.2257 4.39262 55.3593 3.67722C54.3429 3.20314 53.5334 3.12352 53.1056 3.47019ZM62.436 24.0367C62.969 23.9167 63.4193 23.2356 63.7159 22.1061C63.0931 21.7521 62.4325 21.2952 61.7458 20.7415L61.7435 20.7476L61.7364 20.7427C61.3334 21.5438 60.9186 22.2458 60.4955 22.8362C61.214 23.7256 61.8983 24.158 62.436 24.0367ZM70.2596 15.1714C70.6969 15.8219 70.9262 16.3743 71.0219 16.8386C71.341 15.9431 71.5585 15.0036 71.666 14.0383C71.3788 14.4082 70.9345 14.7953 70.2596 15.1714ZM70.3022 10.3241C70.9699 10.7148 71.4084 11.1117 71.6885 11.4878C71.6483 11.0542 71.5868 10.6193 71.5006 10.1844C71.3954 9.66257 71.2583 9.15787 71.0952 8.66787C70.9912 9.13092 70.7525 9.68094 70.3022 10.3241ZM70.1214 17.8051C70.3636 17.2955 70.1308 16.5054 69.4655 15.5622C68.8143 15.8451 68.0579 16.0963 67.207 16.3094L67.2106 16.318L67.2023 16.3192C67.5568 17.1485 67.8263 17.9215 68.0047 18.6271C69.1322 18.6014 69.8815 18.3123 70.1214 17.8051ZM51.8812 5.78054C51.7547 4.97327 51.7855 4.36077 51.9013 3.89527C51.2146 4.58127 50.6119 5.35057 50.1073 6.18479C50.5233 5.97287 51.0941 5.81607 51.8812 5.78054ZM59.94 23.5418C59.4614 24.0882 58.9875 24.4716 58.5266 24.6909C59.4389 24.8134 60.3761 24.8244 61.3227 24.7141C60.8689 24.4863 60.4056 24.0967 59.94 23.5418ZM49.7681 14.9742C49.0803 14.5736 48.6383 14.1669 48.3594 13.7822C48.3996 14.222 48.461 14.663 48.5496 15.1065C48.656 15.6418 48.799 16.16 48.9692 16.6634C49.0685 16.193 49.306 15.6332 49.7681 14.9742ZM60.1338 1.75764C60.6172 1.20639 61.0958 0.821743 61.5615 0.603693C60.6373 0.477518 59.6883 0.464043 58.7275 0.576743C59.1896 0.802143 59.6587 1.19414 60.1338 1.75764ZM64.5054 22.5055C64.2867 23.2699 64.0114 23.8003 63.7206 24.1678C64.6212 23.8591 65.4674 23.4463 66.245 22.9403C65.7392 22.9391 65.1554 22.7933 64.5054 22.5055ZM59.3964 22.8264C58.9816 22.2286 58.5774 21.5181 58.1886 20.7072L58.1826 20.7121L58.1803 20.7047C57.4818 21.2474 56.8129 21.6921 56.1854 22.0314C56.4596 23.1657 56.8968 23.8566 57.431 23.9889C57.9628 24.1212 58.6601 23.7023 59.3964 22.8264ZM50.32 14.2661C50.788 13.7173 51.3671 13.1501 52.0478 12.5732L52.0419 12.5683L52.0455 12.5646C51.3836 11.9839 50.8152 11.4082 50.3519 10.8459C49.3474 11.3763 48.7955 11.9729 48.7896 12.5413C48.7848 13.1097 49.3249 13.7161 50.32 14.2661ZM64.1922 7.34977C63.8341 7.44287 63.4713 7.54454 63.1085 7.65602C63.1936 7.90714 63.2751 8.16194 63.3543 8.41919C63.6036 8.44614 63.8577 8.47677 64.1225 8.51229C64.1544 8.11539 64.178 7.72707 64.1922 7.34977ZM49.8118 10.1268C49.3604 9.45432 49.1335 8.88714 49.0436 8.41429C48.7116 9.33427 48.487 10.3008 48.3795 11.2955C48.6655 10.9145 49.1157 10.5152 49.8118 10.1268ZM51.9604 18.474C52.1518 17.7696 52.4355 16.9991 52.8066 16.1747L52.8006 16.1734L52.803 16.1685C51.9556 15.9395 51.2016 15.6749 50.5552 15.3796C49.8733 16.3082 49.6263 17.0934 49.8591 17.6079C50.0919 18.1224 50.8329 18.4262 51.9604 18.474ZM61.0533 20.1596C60.6976 19.8472 60.3371 19.5128 59.9766 19.1575C59.6221 19.4932 59.2557 19.8203 58.8811 20.1363C59.2286 20.8774 59.5866 21.5304 59.9518 22.0853C60.3241 21.5377 60.694 20.8921 61.0533 20.1596ZM55.3876 22.416C54.7235 22.6966 54.1302 22.8276 53.6208 22.8154C54.4091 23.3495 55.26 23.7856 56.1546 24.1102C55.8651 23.7366 55.5945 23.1964 55.3876 22.416ZM51.7595 19.3609C50.9724 19.3094 50.4039 19.1416 49.9915 18.9211C50.4866 19.7713 51.0764 20.5479 51.7441 21.2376C51.6377 20.7696 51.6188 20.1596 51.7595 19.3609ZM68.1891 19.5177C68.312 20.3029 68.2872 20.9044 68.1796 21.365C68.8462 20.6937 69.4324 19.9452 69.9276 19.1343C69.5139 19.3364 68.9526 19.4834 68.1891 19.5177ZM49.9513 7.49432C49.709 8.00269 49.9418 8.79159 50.606 9.73607C51.256 9.45309 52.0136 9.20197 52.8645 8.98882L52.8597 8.98024L52.868 8.97902C52.5135 8.15092 52.2452 7.37672 52.0667 6.67112C50.9405 6.69684 50.1924 6.98717 49.9513 7.49432ZM67.3252 13.291C66.9553 13.5789 66.5606 13.868 66.1434 14.1559C66.388 14.603 66.6161 15.0464 66.8241 15.4825C67.5994 15.2963 68.2919 15.0795 68.8923 14.8357C68.4586 14.3347 67.9338 13.8178 67.3252 13.291ZM69.7196 14.4523C70.7241 13.9219 71.2748 13.3265 71.2807 12.7594C71.2855 12.1922 70.7454 11.5858 69.7491 11.0333C69.2764 11.587 68.6985 12.153 68.026 12.7226L68.0307 12.7263L68.026 12.7312C68.689 13.3155 69.2563 13.8925 69.7196 14.4523ZM64.9072 16.7565C64.9403 17.2686 64.9604 17.7684 64.9639 18.251C65.7416 18.4311 66.4554 18.5475 67.0995 18.5989C66.921 17.9583 66.6657 17.2576 66.336 16.5079C65.8668 16.6034 65.3894 16.6867 64.9072 16.7565ZM64.6838 2.87974C65.3445 2.60289 65.933 2.47182 66.4412 2.48162C65.6541 1.94874 64.8056 1.51264 63.9145 1.18679C64.204 1.55919 64.4758 2.09942 64.6838 2.87974ZM56.1346 9.75322C56.2279 9.70054 56.3201 9.64787 56.4123 9.59642C56.4406 9.49352 56.4714 9.38939 56.5033 9.28037C56.365 9.29507 56.2279 9.30977 56.0932 9.32569C56.105 9.46412 56.1192 9.60744 56.1346 9.75322ZM68.1123 6.82424C67.9196 7.52984 67.6348 8.29914 67.2649 9.12112L67.2708 9.12357L67.2673 9.12969C68.1146 9.35877 68.8675 9.62337 69.5151 9.91982C70.197 8.98882 70.444 8.20359 70.2112 7.69032C69.9784 7.17582 69.2386 6.87324 68.1123 6.82424ZM68.3132 5.93734C69.0837 5.98879 69.6463 6.15049 70.0564 6.36487C69.5683 5.52697 68.9868 4.76134 68.3309 4.07902C68.4337 4.54452 68.4503 5.14844 68.3132 5.93734ZM66.9647 21.8293C67.3961 21.4801 67.5166 20.6631 67.3098 19.5116C66.6043 19.4736 65.8172 19.3584 64.9604 19.1673V19.1759L64.9556 19.1747C64.9285 20.08 64.8469 20.8995 64.7122 21.621C65.7274 22.0963 66.5369 22.1747 66.9647 21.8293ZM67.1278 3.60494C66.7095 3.25092 65.8987 3.31339 64.8741 3.77032C64.9946 4.49184 65.0608 5.31259 65.0715 6.22032L65.0774 6.21909V6.22644C65.9318 6.05127 66.7213 5.95204 67.4339 5.92632C67.6585 4.78094 67.5521 3.96264 67.1278 3.60494ZM68.9301 10.6352C68.3333 10.3804 67.6431 10.1513 66.8702 9.95044C66.6586 10.3755 66.4246 10.8141 66.1717 11.26C66.5795 11.5527 66.9695 11.8504 67.3358 12.1481C67.9527 11.636 68.4857 11.1301 68.9301 10.6352ZM64.7559 15.0587L64.7536 15.0611C64.7855 15.3417 64.8126 15.6063 64.8363 15.8611C65.2109 15.8059 65.582 15.7435 65.9472 15.6712C65.7817 15.3331 65.6045 14.9889 65.4154 14.6434C65.1979 14.7843 64.9781 14.9227 64.7559 15.0587ZM65.7203 12.0268C65.5808 12.2534 65.4402 12.4776 65.296 12.7006C65.4319 12.9186 65.5666 13.1452 65.7049 13.3817C66.0264 13.1587 66.3348 12.9345 66.6267 12.7128C66.3372 12.4825 66.0346 12.2534 65.7203 12.0268ZM64.7985 10.3265L64.7973 10.3302C65.0171 10.4711 65.2357 10.6144 65.452 10.7602C65.647 10.4147 65.829 10.0754 65.9992 9.74464C65.6423 9.66747 65.2736 9.59764 64.8942 9.53394C64.8658 9.79487 64.8339 10.0595 64.7973 10.3265H64.7985ZM64.5987 11.6164C64.659 11.7071 64.7193 11.7977 64.7784 11.8872C64.8528 11.7671 64.9273 11.6471 65.0017 11.5258C64.8859 11.4474 64.7689 11.3702 64.6519 11.293C64.6342 11.4033 64.6165 11.5111 64.5987 11.6164ZM56.0329 15.8954C56.1676 15.9137 56.3047 15.9309 56.443 15.948C56.4135 15.8427 56.3851 15.7373 56.3567 15.6308C56.261 15.5744 56.17 15.5205 56.0826 15.4678C56.0636 15.6124 56.0483 15.7545 56.0329 15.8954ZM64.6271 14.0934C64.7453 14.0187 64.8623 13.9439 64.9781 13.8692C64.906 13.7443 64.8351 13.623 64.763 13.5042C64.7016 13.5948 64.6401 13.6842 64.5786 13.7724C64.5952 13.879 64.6117 13.9868 64.6271 14.0934ZM64.9793 8.64092C65.4709 8.72177 65.9472 8.81364 66.401 8.91654C66.7449 8.17174 67.0156 7.47472 67.207 6.83527C66.557 6.87447 65.8396 6.97737 65.0644 7.14397C65.0514 7.62539 65.023 8.12642 64.9793 8.64092ZM59.3562 18.5316C59.1742 18.3417 58.9934 18.1494 58.8161 17.9534C58.5608 18.0477 58.3186 18.1347 58.0834 18.2155C58.2205 18.5855 58.3611 18.9456 58.5076 19.2935C58.7972 19.0461 59.0796 18.7913 59.3562 18.5316ZM64.0468 16.8668C63.7951 16.8962 63.5375 16.9231 63.2775 16.9464L63.2751 16.9501C63.1912 17.2037 63.1049 17.4548 63.0186 17.6998C63.3838 17.8211 63.7443 17.9301 64.0965 18.0281C64.0894 17.652 64.0728 17.2637 64.0468 16.8668ZM57.9687 16.9905C57.8636 16.9844 57.7584 16.977 57.6544 16.9685C57.6969 17.1032 57.7418 17.2392 57.7867 17.3727C57.9144 17.3298 58.0444 17.2833 58.1779 17.2355C58.1082 17.1559 58.0385 17.0738 57.9687 16.9905ZM56.0093 21.1114C56.5754 20.7868 57.1781 20.3727 57.808 19.8717C57.6166 19.427 57.4322 18.964 57.2585 18.4862C56.7905 18.6308 56.3225 18.7619 55.8627 18.8758C55.8651 19.7027 55.9147 20.4511 56.0093 21.1114ZM64.0953 18.9554C63.645 18.8354 63.1806 18.6957 62.7066 18.5389C62.5258 19.0081 62.3332 19.4699 62.1311 19.9146C62.7516 20.4254 63.346 20.8517 63.9086 21.1886C64.0161 20.5283 64.0787 19.7798 64.0953 18.9554ZM55.9478 16.7921C55.9159 17.1877 55.8923 17.5736 55.8781 17.9485C56.2362 17.8566 56.599 17.7537 56.9618 17.6422C56.8767 17.3899 56.7952 17.1351 56.7172 16.8803C56.4572 16.8521 56.2007 16.8227 55.949 16.7884L55.9478 16.7921ZM60.2851 17.6165C60.1894 17.5748 60.0901 17.532 59.9908 17.4879C59.8951 17.5283 59.7982 17.5687 59.6954 17.6104C59.7923 17.7145 59.8892 17.8162 59.9861 17.9178C60.0842 17.8198 60.1835 17.7194 60.2851 17.6165ZM62.3379 17.0138C62.2327 17.0199 62.1276 17.0248 62.0224 17.0297C61.9515 17.1106 61.8806 17.1914 61.8096 17.2698C61.9408 17.32 62.0696 17.3678 62.1973 17.4144C62.2446 17.2821 62.2918 17.1485 62.3379 17.0138ZM61.8865 18.2523C61.6513 18.1653 61.4102 18.0746 61.1656 17.9791L61.1632 17.9828L61.1573 17.9803C60.9682 18.1775 60.7862 18.365 60.6077 18.5426C60.8866 18.8158 61.1656 19.0767 61.4421 19.3241C61.5969 18.975 61.7446 18.6161 61.8865 18.2523ZM58.185 7.04597C58.4178 7.13172 58.6577 7.22237 58.9083 7.32037L58.913 7.31669L58.9154 7.31792C59.1116 7.11334 59.2924 6.92837 59.4637 6.75564C59.1825 6.48124 58.9036 6.22032 58.6294 5.97532C58.4734 6.32689 58.3256 6.68459 58.185 7.04597ZM60.7153 6.76912C60.8961 6.95777 61.0746 7.14887 61.2518 7.34242H61.253L61.2542 7.34487C61.5083 7.25054 61.7517 7.16357 61.9869 7.08272C61.851 6.71399 61.7092 6.35384 61.5626 6.00472C61.2778 6.24972 60.9942 6.50452 60.7153 6.76912ZM61.8912 8.06272C61.9609 8.14479 62.0306 8.22687 62.1004 8.30894C62.2079 8.31629 62.3131 8.32364 62.4171 8.33222C62.3734 8.19502 62.3285 8.06027 62.2836 7.92552C62.1547 7.96962 62.0247 8.01494 61.8912 8.06272ZM64.0374 9.40532C63.8979 9.38572 63.762 9.36857 63.6273 9.35264C63.6568 9.45799 63.6852 9.56212 63.7136 9.66624C63.8034 9.71892 63.8944 9.77282 63.9889 9.82917C64.0066 9.68707 64.0232 9.54497 64.0374 9.40532ZM55.9762 6.34282C56.4241 6.46287 56.8874 6.60252 57.3636 6.75932C57.5445 6.29382 57.7371 5.83322 57.9392 5.38609C57.3211 4.87527 56.7255 4.44774 56.1629 4.10964C56.0566 4.76502 55.9939 5.51349 55.9762 6.34282ZM59.7876 7.68297C59.8845 7.72462 59.9826 7.76749 60.0806 7.81037C60.1752 7.76994 60.2721 7.72952 60.3737 7.68909C60.2768 7.58497 60.1799 7.48329 60.083 7.38162C59.9885 7.47717 59.8892 7.57762 59.7876 7.68297ZM56.0235 8.43144C56.2752 8.40204 56.5316 8.37509 56.7928 8.35182L56.7952 8.34814C56.8803 8.09089 56.9654 7.84099 57.0516 7.59844C56.6841 7.47717 56.3248 7.36692 55.9738 7.26892C55.9821 7.64622 55.9975 8.03454 56.0235 8.43144ZM63.9357 15.545C63.8424 15.5989 63.7502 15.6504 63.6592 15.7018C63.6296 15.8047 63.5989 15.9101 63.567 16.0179C63.7053 16.0044 63.8424 15.9897 63.9771 15.9738C63.9653 15.8341 63.9511 15.692 63.9357 15.545ZM57.8718 7.88264C58.0006 7.93042 58.1295 7.97819 58.2618 8.02842C58.1921 8.10682 58.1212 8.18644 58.0515 8.26729C57.9439 8.27219 57.8376 8.27832 57.7324 8.28444C57.7785 8.14847 57.8257 8.01494 57.8718 7.88264Z"
      fill="#58595B" />
  </g>
  <defs>
    <clipPath id="clip0_1_3777">
      <rect width="122" height="49" fill="white" transform="translate(0.790039 0.5)" />
    </clipPath>
  </defs>
</svg>