<svg width="131" height="48" viewBox="0 0 131 48" fill="none" xmlns="http://www.w3.org/2000/svg">
  <g clip-path="url(#clip0_1_3785)">
    <mask id="mask0_1_3785" style="mask-type:luminance" maskUnits="userSpaceOnUse" x="0" y="1" width="131" height="40">
      <path d="M0.53418 1.09961H130.267V40.2238H0.53418V1.09961Z" fill="white" />
    </mask>
    <g mask="url(#mask0_1_3785)">
      <path fill-rule="evenodd" clip-rule="evenodd"
        d="M92.101 26.3865C90.4714 28.8128 89.7336 31.3636 90.5889 31.9499C91.4453 32.535 93.5709 30.9328 95.2004 28.5065C96.83 26.0802 97.5313 23.4928 96.6761 22.9076C95.8196 22.3225 93.7294 23.9602 92.101 26.3865ZM58.0946 17.6516C57.3157 17.6516 56.6828 18.2836 56.6828 19.0653C56.6828 19.8448 57.3157 20.479 58.0946 20.479C58.8734 20.479 59.5052 19.8448 59.5052 19.0653C59.5052 18.2836 58.8734 17.6516 58.0946 17.6516ZM39.5627 31.8722C42.449 31.8722 48.1085 23.0516 44.8072 23.0516C42.1696 23.0516 36.4154 31.8722 39.5627 31.8722ZM130.267 18.4025V18.8928L123.442 19.1053C123.442 19.1053 121.101 22.4539 119.028 25.615C118.752 26.0356 117.361 28.1648 116.604 29.5145C115.385 31.6836 112.321 36.6665 115.404 37.7945C115.775 37.975 116.539 38.295 116.271 38.5933C115.882 38.9705 115.263 39.1567 114.679 39.1567C108.857 39.1567 112.874 31.5408 115.127 28.5853C115.136 28.575 115.129 28.5648 115.116 28.5796C114.438 29.3156 111.847 32.7179 109.177 32.7179C107.797 32.7179 107.026 31.8665 107.026 30.791C107.026 27.6973 112.917 22.8676 110.553 22.8676C110.179 22.8676 109.588 23.1968 108.876 23.6448C106.754 24.9808 105.571 26.471 104.661 27.687C102.894 30.0562 101.206 32.5922 101.206 32.5922L98.5736 32.5945C98.5736 32.5945 103.296 25.4699 103.373 25.3522C102.207 26.3762 99.763 27.1396 98.5736 25.687C98.333 28.4448 94.5231 32.9465 91.4555 32.9465C88.8316 32.9465 88.169 30.295 88.859 28.2505C86.8668 30.7968 84.87 32.6436 82.944 32.6436C81.8948 32.6436 80.9267 31.8756 80.9267 30.4859C80.9267 28.2756 84.8404 24.8688 84.8404 23.3979C84.8404 23.1853 84.7491 22.8585 84.4013 22.8585C83.6647 22.8585 82.8026 23.3202 81.831 24.0939C79.8342 25.8036 79.093 27.1076 77.517 29.479C76.8511 30.4802 76.8898 30.5053 75.4735 32.5922L72.8416 32.5899C72.8416 32.5899 77.6242 25.3739 78.0461 24.735C78.4179 24.1682 79.3575 22.8196 78.2947 22.8196C76.6538 22.8196 73.8063 25.3362 71.4583 28.5042C70.562 29.8425 68.7409 32.5888 68.7409 32.5888H66.1112L70.9247 25.3293C70.6487 25.4436 69.5015 25.9122 68.5527 25.9088C67.783 25.9065 67.068 25.5316 67.068 24.4516C67.068 23.3419 68.027 22.751 68.4866 22.6402C68.5014 22.6402 68.4991 22.6299 68.4854 22.6299C66.1717 22.727 62.9525 25.7739 59.8017 30.4916C58.9738 31.7328 58.4116 32.5888 58.4116 32.5888L55.799 32.5876C55.799 32.5876 56.9861 30.8573 58.3489 28.807C58.358 28.791 58.358 28.7819 58.3386 28.8002C58.1539 28.9705 54.889 32.6459 52.8809 32.6459C51.1647 32.6459 50.664 30.7705 50.9605 29.2185C50.9605 29.2185 48.5726 32.631 46.3364 32.631C44.619 32.631 43.9519 30.9225 44.0933 29.5168C44.0774 29.487 44.0625 29.5179 44.0318 29.5179C43.7261 30.063 41.7898 32.6733 39.4282 32.6482C34.089 32.6482 38.0335 22.247 44.229 22.247C45.8586 22.247 46.6648 22.8916 46.6648 24.2676C47.0902 23.6219 47.9568 22.3248 47.9568 22.3248H50.5888C50.5888 22.3248 47.9352 26.3065 46.5736 28.3968C45.6157 29.8699 44.984 31.927 46.3182 31.927C48.5145 31.927 50.6766 28.5556 52.4213 25.8962C53.7088 23.9328 54.8252 22.2996 54.8252 22.2996H57.4583C57.4583 22.2996 54.9757 26.0516 53.2424 28.703C51.866 30.6219 52.0017 31.9225 52.9105 31.9225C54.7454 31.9225 58.9601 27.6928 61.1028 24.4059C61.9261 23.143 62.4872 22.3008 62.4872 22.3008L65.0975 22.2996L63.2387 25.0448L63.2592 25.0733C65.2069 23.1808 67.2379 22.0848 68.3497 22.0848C70.6726 22.0848 70.4525 24.5305 69.2951 25.3213C69.8824 25.199 71.1425 24.9602 71.8643 23.8996L72.9134 22.3053L75.6024 22.303L73.8497 24.8425L73.8588 24.8482C75.9274 22.7819 77.6037 22.2448 78.6768 22.2448C81.3383 22.2448 80.1592 24.855 80.1592 24.855C80.1524 24.8699 80.1604 24.8745 80.1752 24.855C80.531 24.3888 82.4297 22.2448 84.6933 22.2448C86.0583 22.2448 86.6113 22.887 86.6216 23.967C86.6353 25.4013 85.4003 27.0676 83.6943 29.8425C83.2233 30.6059 82.3909 31.8413 83.3853 31.8413C85.7994 31.8413 90.159 25.4539 90.2741 25.3065C91.8387 23.2836 93.7009 21.9476 96.1082 21.9476C97.4686 21.9476 98.2771 23.0299 98.5873 24.1648C99.8291 27.8048 103.637 24.879 104.848 23.1248C105.043 22.8436 105.223 22.5579 105.387 22.3053H108.023L106.23 24.9888C106.567 24.6985 108.866 22.2482 111.154 22.2482C112.603 22.2482 112.883 23.3042 112.883 24.1499C112.883 26.055 110.69 28.4973 109.811 30.2322C108.952 31.9259 109.69 32.4036 111.513 31.1728C113.846 29.5979 116.007 26.8596 118.533 23.2562C119.431 21.9739 120.525 20.4059 121.356 19.1522C118.784 19.1865 97.7434 19.6516 97.7434 19.6516L96.5632 18.4905L121.85 18.4265C121.85 18.4265 124.137 14.5602 126.04 14.5602C126.152 14.559 126.167 14.559 126.178 14.559C126.528 14.559 126.343 14.7442 126.207 14.9499C125.351 16.2379 123.905 18.415 123.905 18.415L130.267 18.4025ZM51.2616 3.65504C57.3237 3.65504 57.578 9.00475 51.8032 9.00475C48.8988 9.00475 45.9533 7.32247 44.1868 6.54647C46.1129 4.89504 48.7197 3.6619 51.2616 3.65504ZM51.3847 3.0219C48.4187 3.01161 45.5929 4.11561 43.2278 6.05161C40.2686 4.78761 34.3433 1.09961 27.954 1.09961C20.3102 1.09961 15.4534 5.97961 15.4534 11.159C15.4534 15.4379 19.098 18.2928 23.1565 18.2928C29.1673 18.2928 30.0579 13.9808 30.0385 13.455C30.0385 13.1659 29.9245 12.5865 29.6759 12.3865C29.5368 12.2905 29.3292 12.3042 29.3361 12.4676C29.3361 14.1168 26.2149 17.4482 22.3685 17.4676C13.5182 17.5099 17.1389 1.84247 26.9094 1.84247C32.2633 1.84247 37.9126 5.41275 42.0019 7.21961C39.4088 10.0379 36.6297 13.8322 32.6077 21.8516C27.1067 32.8208 19.894 39.5648 11.8818 39.5648C7.45272 39.5648 2.9529 36.695 2.9529 29.711C2.9529 17.8973 18.5962 14.6573 18.5962 26.767C18.5962 31.735 15.1706 34.3373 12.3289 34.3647C9.10737 34.3647 8.41062 32.3739 8.41404 30.4608C8.41404 26.5065 10.3686 25.7145 9.40957 25.7145C5.89386 25.7145 5.07167 35.0436 12.7782 35.0436C17.7033 35.0436 20.6888 30.6859 20.7412 26.4402C20.7914 22.407 18.1948 18.4756 12.0997 18.4756C4.49579 18.4756 0.520531 24.0116 0.534215 29.4973C0.547899 34.8848 4.40913 40.2242 12.4623 40.2242C18.9349 40.2242 23.0869 37.4665 26.6916 34.0996C30.6566 30.3956 33.1118 25.5259 35.1815 20.7819C35.9227 20.9088 37.3664 21.1156 37.9058 20.9636C37.6937 21.5385 37.5774 23.1716 38.1122 23.1716C38.3197 23.1568 38.1544 22.7488 38.5729 21.8859C39.1146 20.7728 40.0975 20.2813 41.986 18.943C42.8241 18.3488 42.4786 17.455 41.6062 17.455C39.9048 17.455 39.1317 20.1362 37.1862 20.1362C36.6149 20.1328 35.9113 20.0173 35.5464 19.9259C36.8236 16.8013 40.0223 10.3213 42.9154 7.7179C44.1857 8.26075 48.3446 10.319 51.3996 10.319C58.6077 10.319 59.5793 3.0219 51.3847 3.0219ZM16.1878 37.343C21.0138 35.223 28.3451 23.6448 29.8196 20.4573C28.954 20.4573 25.0004 20.591 25.0004 24.2813C24.3527 24.2813 23.7198 23.5213 23.7552 22.6162C23.7552 21.1465 25.257 19.639 30.3168 19.639C32.4469 16.1476 35.7779 11.5259 38.0153 9.96818C38.9572 9.31561 38.9766 9.45961 38.4201 10.1282C37.7051 11.1168 36.6674 12.6299 35.5441 14.5202C33.7253 17.4939 31.8118 21.5385 29.4592 25.5819C27.1614 29.2516 24.6435 32.2333 22.0196 34.4825C19.6157 36.455 17.1811 37.6859 15.7032 38.015C15.0486 38.1453 15.1467 37.687 16.1878 37.343Z"
        fill="#58595B" />
    </g>
    <path fill-rule="evenodd" clip-rule="evenodd"
      d="M32.9774 36.6924C32.8431 36.6924 32.7344 36.8024 32.7344 36.9381C32.7344 37.075 32.8431 37.1838 32.9774 37.1838H104.014C104.15 37.1838 104.259 37.075 104.259 36.9381C104.259 36.8024 104.15 36.6924 104.014 36.6924H32.9774Z"
      fill="#58595B" />
    <path fill-rule="evenodd" clip-rule="evenodd"
      d="M32.5264 43.8527C32.5461 43.8527 32.5669 43.841 32.5669 43.8094V43.6796C32.5669 42.7412 32.5669 42.5692 32.553 42.3715C32.5403 42.1621 32.487 42.0626 32.2695 42.0193C32.2163 42.0076 32.104 42.0006 32.0115 42.0006C31.9397 42.0006 31.8992 41.9889 31.8992 41.9456C31.8992 41.9023 31.9467 41.8906 32.0392 41.8906C32.3945 41.8906 32.8099 41.9093 32.9881 41.9093C33.1466 41.9093 33.562 41.8906 33.8189 41.8906C33.9115 41.8906 33.9566 41.9023 33.9566 41.9456C33.9566 41.9889 33.9173 42.0006 33.8386 42.0006C33.7865 42.0006 33.7263 42.0076 33.6477 42.0193C33.4695 42.0509 33.4162 42.1562 33.4035 42.3715C33.3908 42.5692 33.3908 42.7412 33.3908 43.6796V44.7665C33.3908 45.3339 33.3908 45.8218 33.4232 46.0874C33.4428 46.2606 33.4822 46.3963 33.6801 46.4209C33.7726 46.4326 33.9173 46.4454 34.0168 46.4454C34.0885 46.4454 34.1221 46.4642 34.1221 46.4946C34.1221 46.5379 34.0689 46.5566 33.9902 46.5566C33.562 46.5566 33.1466 46.5379 32.9615 46.5379C32.8099 46.5379 32.3945 46.5566 32.1376 46.5566C32.045 46.5566 31.9999 46.5379 31.9999 46.4946C31.9999 46.4642 32.0253 46.4454 32.104 46.4454C32.2035 46.4454 32.2822 46.4326 32.3424 46.4209C32.4743 46.3963 32.5067 46.2606 32.5333 46.0816C32.5669 45.8218 32.5669 45.3339 32.5669 44.7665V44.2236C32.5669 44.199 32.5461 44.1862 32.5264 44.1862H30.0073C29.9876 44.1862 29.9679 44.192 29.9679 44.2236V44.7665C29.9679 45.3339 29.9679 45.8218 30.0003 46.0874C30.02 46.2606 30.0605 46.3963 30.2584 46.4209C30.351 46.4326 30.4956 46.4454 30.594 46.4454C30.6669 46.4454 30.7004 46.4642 30.7004 46.4946C30.7004 46.5379 30.6472 46.5566 30.5685 46.5566C30.1392 46.5566 29.7238 46.5379 29.5398 46.5379C29.3882 46.5379 28.9728 46.5566 28.7078 46.5566C28.6233 46.5566 28.5771 46.5379 28.5771 46.4946C28.5771 46.4642 28.6037 46.4454 28.6824 46.4454C28.7807 46.4454 28.8606 46.4326 28.9196 46.4209C29.0515 46.3963 29.085 46.2606 29.1105 46.0816C29.1441 45.8218 29.1441 45.3339 29.1441 44.7665V43.6796C29.1441 42.7412 29.1441 42.5692 29.1302 42.3715C29.1174 42.1621 29.0642 42.0626 28.8467 42.0193C28.7946 42.0076 28.6824 42.0006 28.5898 42.0006C28.518 42.0006 28.4775 41.9889 28.4775 41.9456C28.4775 41.9023 28.5238 41.8906 28.6164 41.8906C28.9728 41.8906 29.3882 41.9093 29.5653 41.9093C29.7238 41.9093 30.1392 41.8906 30.3972 41.8906C30.4887 41.8906 30.5349 41.9023 30.5349 41.9456C30.5349 41.9889 30.4956 42.0006 30.4169 42.0006C30.3637 42.0006 30.3047 42.0076 30.2248 42.0193C30.0478 42.0509 29.9946 42.1562 29.9807 42.3715C29.9679 42.5692 29.9679 42.7412 29.9679 43.6796V43.8094C29.9679 43.841 29.9876 43.8527 30.0073 43.8527H32.5264Z"
      fill="#58595B" />
    <mask id="mask1_1_3785" style="mask-type:luminance" maskUnits="userSpaceOnUse" x="35" y="41" width="6" height="6">
      <path d="M35.3438 41.8037H40.7314V46.6438H35.3438V41.8037Z" fill="white" />
    </mask>
    <g mask="url(#mask1_1_3785)">
      <path fill-rule="evenodd" clip-rule="evenodd"
        d="M39.808 44.3414C39.808 42.9585 38.9575 42.1009 37.8756 42.1009C37.1176 42.1009 36.2544 42.4952 36.2544 44.0326C36.2544 45.3161 37.0123 46.3351 38.2783 46.3351C38.74 46.3351 39.808 46.1245 39.808 44.3414ZM35.3438 44.2244C35.3438 43.1679 36.0889 41.8037 38.0677 41.8037C39.7097 41.8037 40.7314 42.6988 40.7314 44.1133C40.7314 45.5267 39.6761 46.644 38.0017 46.644C36.1086 46.644 35.3438 45.3161 35.3438 44.2244Z"
        fill="#58595B" />
    </g>
    <path fill-rule="evenodd" clip-rule="evenodd"
      d="M43.6048 42.2366L42.6223 42.2612C42.2393 42.2729 42.082 42.3033 41.9824 42.4402C41.9165 42.5326 41.8829 42.6075 41.8702 42.6555C41.8575 42.7058 41.8378 42.7304 41.7985 42.7304C41.751 42.7304 41.7383 42.6988 41.7383 42.6309C41.7383 42.5326 41.8633 41.971 41.8771 41.9219C41.8968 41.8412 41.9165 41.8037 41.9558 41.8037C42.0091 41.8037 42.075 41.8657 42.2393 41.8786C42.4314 41.8973 42.6814 41.9102 42.8989 41.9102H45.5106C45.9329 41.9102 46.0915 41.847 46.1435 41.847C46.1898 41.847 46.1956 41.8844 46.1956 41.9769C46.1956 42.1067 46.1759 42.5326 46.1759 42.6929C46.1701 42.7549 46.1563 42.7924 46.1169 42.7924C46.0637 42.7924 46.051 42.7608 46.044 42.6683L46.0382 42.6005C46.0243 42.4402 45.8461 42.267 45.2595 42.2553L44.4286 42.2366V44.7673C44.4286 45.3348 44.4286 45.8227 44.4622 46.0883C44.4819 46.2614 44.5212 46.3971 44.7191 46.4217C44.8117 46.4334 44.9563 46.4463 45.0558 46.4463C45.1276 46.4463 45.1611 46.465 45.1611 46.4954C45.1611 46.5387 45.1079 46.5574 45.035 46.5574C44.6011 46.5574 44.1856 46.5387 44.0005 46.5387C43.8489 46.5387 43.4335 46.5574 43.1697 46.5574C43.084 46.5574 43.0378 46.5387 43.0378 46.4954C43.0378 46.465 43.0644 46.4463 43.1431 46.4463C43.2414 46.4463 43.3213 46.4334 43.3803 46.4217C43.5122 46.3971 43.5515 46.2614 43.5712 46.0824C43.6048 45.8227 43.6048 45.3348 43.6048 44.7673V42.2366Z"
      fill="#58595B" />
    <path fill-rule="evenodd" clip-rule="evenodd"
      d="M48.0317 43.6801C48.0317 42.7417 48.0317 42.5686 48.019 42.372C48.0051 42.1614 47.9531 42.0631 47.7344 42.0198C47.6823 42.007 47.57 42.0011 47.4775 42.0011C47.4046 42.0011 47.3652 41.9882 47.3652 41.9461C47.3652 41.9028 47.4115 41.89 47.511 41.89C47.8605 41.89 48.2747 41.9087 48.4599 41.9087C48.6716 41.9087 49.9838 41.9087 50.1088 41.9028C50.2338 41.89 50.3391 41.8783 50.3923 41.8654C50.4247 41.8584 50.4652 41.8408 50.4976 41.8408C50.5312 41.8408 50.537 41.8654 50.537 41.8958C50.537 41.9391 50.5046 42.0128 50.4849 42.2971C50.4779 42.3591 50.4652 42.6306 50.4513 42.7055C50.4455 42.7359 50.4317 42.7733 50.3854 42.7733C50.3391 42.7733 50.3264 42.7417 50.3264 42.6867C50.3264 42.6434 50.3206 42.5381 50.287 42.4644C50.2407 42.3533 50.1748 42.2784 49.845 42.2421C49.7327 42.2304 49.0408 42.2176 48.9077 42.2176C48.8753 42.2176 48.8626 42.2363 48.8626 42.2784V43.8403C48.8626 43.8836 48.8695 43.9082 48.9077 43.9082C49.0535 43.9082 49.8126 43.9082 49.9642 43.8965C50.1215 43.8836 50.2211 43.8649 50.2801 43.8041C50.3264 43.7549 50.353 43.7234 50.3854 43.7234C50.412 43.7234 50.4317 43.7362 50.4317 43.7725C50.4317 43.8099 50.3981 43.9082 50.3784 44.2241C50.3657 44.347 50.353 44.5938 50.353 44.6371C50.353 44.6863 50.353 44.7541 50.294 44.7541C50.2465 44.7541 50.2338 44.7296 50.2338 44.6991C50.228 44.6371 50.228 44.5564 50.2083 44.4768C50.1748 44.3528 50.0822 44.2604 49.838 44.2358C49.7131 44.2241 49.0604 44.2171 48.9019 44.2171C48.8695 44.2171 48.8626 44.2417 48.8626 44.2791V44.767C48.8626 44.9764 48.8568 45.5439 48.8626 45.7241C48.8753 46.1499 48.9806 46.2424 49.6541 46.2424C49.8253 46.2424 50.1019 46.2424 50.2731 46.1675C50.4455 46.0938 50.5242 45.9639 50.5705 45.7112C50.5832 45.6433 50.5971 45.6188 50.6423 45.6188C50.6955 45.6188 50.6955 45.6679 50.6955 45.7299C50.6955 45.8715 50.6423 46.2915 50.6099 46.4144C50.5636 46.5758 50.5046 46.5758 50.2535 46.5758C49.2583 46.5758 48.8163 46.5384 48.4275 46.5384C48.2747 46.5384 47.8605 46.5571 47.5967 46.5571C47.511 46.5571 47.4647 46.5384 47.4647 46.4951C47.4647 46.4647 47.4914 46.4448 47.57 46.4448C47.6684 46.4448 47.7482 46.4331 47.8073 46.4202C47.9392 46.3956 47.9727 46.2599 47.9993 46.0821C48.0317 45.8223 48.0317 45.3344 48.0317 44.767V43.6801Z"
      fill="#58595B" />
    <path fill-rule="evenodd" clip-rule="evenodd"
      d="M53.7479 44.7667C53.7479 45.5564 53.7479 45.9823 53.8868 46.0935C53.999 46.1859 54.1703 46.2292 54.6852 46.2292C55.0335 46.2292 55.2904 46.2233 55.4559 46.0572C55.5346 45.9765 55.6144 45.8033 55.6271 45.6863C55.6341 45.6313 55.6468 45.5939 55.7 45.5939C55.7463 45.5939 55.7521 45.6243 55.7521 45.6992C55.7521 45.7659 55.707 46.2292 55.6537 46.4082C55.6144 46.5439 55.5808 46.5755 55.2383 46.5755C54.2883 46.5755 53.8532 46.5381 53.3198 46.5381C53.1682 46.5381 52.7516 46.5568 52.489 46.5568C52.4033 46.5568 52.3559 46.5381 52.3559 46.4948C52.3559 46.4643 52.3837 46.4456 52.4623 46.4456C52.5607 46.4456 52.6394 46.4328 52.6996 46.4211C52.8315 46.3965 52.8639 46.2608 52.8916 46.0818C52.924 45.822 52.924 45.3341 52.924 44.7667V43.6797C52.924 42.7414 52.924 42.5694 52.9102 42.3717C52.8974 42.1623 52.8442 42.0628 52.6278 42.0195C52.5746 42.0066 52.4959 42.0008 52.4091 42.0008C52.3374 42.0008 52.2969 41.9879 52.2969 41.9458C52.2969 41.9025 52.3432 41.8896 52.4427 41.8896C52.7516 41.8896 53.1682 41.9095 53.3464 41.9095C53.5038 41.9095 53.9851 41.8896 54.242 41.8896C54.3346 41.8896 54.3809 41.9025 54.3809 41.9458C54.3809 41.9879 54.3415 42.0008 54.2617 42.0008C54.19 42.0008 54.0835 42.0066 54.0048 42.0195C53.8266 42.0499 53.7745 42.1552 53.7618 42.3717C53.7479 42.5694 53.7479 42.7414 53.7479 43.6797V44.7667Z"
      fill="#58595B" />
    <path fill-rule="evenodd" clip-rule="evenodd"
      d="M57.3486 46.4825C57.2433 46.4393 57.2236 46.4088 57.2236 46.2731C57.2236 45.9338 57.2502 45.5629 57.256 45.4635C57.263 45.371 57.2826 45.3032 57.3359 45.3032C57.3949 45.3032 57.4007 45.3593 57.4007 45.4085C57.4007 45.4892 57.4273 45.6191 57.4608 45.7232C57.6055 46.1807 57.9954 46.3468 58.4039 46.3468C58.9975 46.3468 59.288 45.9701 59.288 45.6437C59.288 45.3406 59.1885 45.0505 58.6411 44.655L58.338 44.4339C57.6124 43.9027 57.3613 43.4698 57.3613 42.9702C57.3613 42.2904 57.9688 41.8037 58.8853 41.8037C59.3134 41.8037 59.59 41.8646 59.7624 41.909C59.8214 41.9207 59.855 41.9394 59.855 41.9827C59.855 42.0623 59.8284 42.2413 59.8284 42.7233C59.8284 42.8591 59.8087 42.9082 59.7555 42.9082C59.7092 42.9082 59.6895 42.8719 59.6895 42.797C59.6895 42.7421 59.6571 42.5502 59.5182 42.3899C59.4199 42.2729 59.2278 42.0869 58.7997 42.0869C58.3113 42.0869 58.0151 42.3524 58.0151 42.7233C58.0151 43.0076 58.1655 43.2241 58.714 43.6125L58.8992 43.7412C59.6895 44.3157 59.9799 44.7299 59.9799 45.3161C59.9799 45.6741 59.8341 46.1 59.3597 46.3901C59.0299 46.5878 58.6608 46.6428 58.3113 46.6428C57.9295 46.6428 57.6321 46.5995 57.3486 46.4825Z"
      fill="#58595B" />
    <path fill-rule="evenodd" clip-rule="evenodd"
      d="M67.1665 45.8845C66.7835 45.5756 66.1517 44.9953 65.9793 44.8221C65.808 44.6501 65.3868 44.2055 65.2746 44.0511C65.0501 44.2055 64.8186 44.4957 64.8186 44.9894C64.8186 45.7605 65.3995 46.2554 66.0846 46.2554C66.5925 46.2554 67.0276 46.0073 67.1665 45.8845ZM65.1021 43.8171C64.8256 43.4708 64.7735 43.218 64.7666 42.9396C64.7596 42.4529 65.2213 41.8047 66.3692 41.8047C66.6921 41.8047 66.9883 41.8655 67.1665 41.9346C67.2787 41.9708 67.2787 42.02 67.2787 42.0937C67.2787 42.2973 67.2255 42.7922 67.2058 42.8846C67.1931 42.977 67.1665 42.9899 67.1271 42.9899C67.0878 42.9899 67.0809 42.9642 67.0809 42.8717C67.0809 42.7114 67.0346 42.5137 66.8899 42.3534C66.758 42.2048 66.5266 42.0761 66.1586 42.0761C65.8809 42.0761 65.4516 42.2551 65.4516 42.7793C65.4516 43.3596 66.0198 43.8534 66.5463 44.4033C66.7707 44.6443 67.5819 45.3287 67.708 45.434C67.8399 45.2609 68.0239 44.8596 68.0239 44.4828C68.0239 44.3904 67.9973 44.2734 67.899 44.1997C67.8122 44.1248 67.6745 44.1072 67.575 44.1072C67.5368 44.1072 67.4963 44.0944 67.4963 44.0569C67.4963 44.0078 67.5495 43.9961 67.6016 43.9961C67.7601 43.9961 68.0239 44.0019 68.3931 44.0394C68.518 44.0511 68.6175 44.0885 68.6175 44.1622C68.6175 44.6373 68.3468 45.2117 67.9707 45.6259C68.4127 45.9652 68.7101 46.1313 68.8872 46.2296C69.0989 46.3478 69.4611 46.4461 69.593 46.4461C69.6532 46.4461 69.6856 46.4519 69.6856 46.5022C69.6856 46.5385 69.6335 46.5572 69.4877 46.5572H68.9797C68.2287 46.5572 67.9915 46.4894 67.4245 46.0822C67.2058 46.2671 66.7638 46.6438 65.8612 46.6438C64.4495 46.6438 64.0283 45.8166 64.0283 45.2796C64.0283 44.5577 64.7076 43.9961 65.1021 43.8171Z"
      fill="#58595B" />
    <path fill-rule="evenodd" clip-rule="evenodd"
      d="M73.8767 44.1674C73.8767 44.2353 73.8895 44.2599 73.9357 44.2786C74.0746 44.3219 74.2725 44.3406 74.4368 44.3406C74.7006 44.3406 74.7862 44.316 74.9054 44.2353C75.1033 44.0996 75.2942 43.8164 75.2942 43.3098C75.2942 42.4335 74.6752 42.1796 74.2852 42.1796C74.1209 42.1796 74.0017 42.1866 73.9357 42.2042C73.8895 42.2171 73.8767 42.2416 73.8767 42.2908V44.1674ZM73.098 43.6796C73.098 42.7412 73.098 42.5692 73.0852 42.3715C73.0725 42.1621 73.0193 42.0626 72.8017 42.0193C72.7497 42.0076 72.6363 42.0006 72.5449 42.0006C72.472 42.0006 72.4326 41.9889 72.4326 41.9456C72.4326 41.9023 72.4789 41.8906 72.5773 41.8906C72.9267 41.8906 73.3421 41.9093 73.481 41.9093C73.7055 41.9093 74.2054 41.8906 74.4102 41.8906C74.8256 41.8906 75.2676 41.9281 75.624 42.1562C75.8092 42.2732 76.0718 42.5879 76.0718 43.001C76.0718 43.4573 75.8682 43.8773 75.2017 44.3839C75.7883 45.0754 76.2442 45.6253 76.633 46.0067C77.0022 46.3659 77.2729 46.408 77.3713 46.4267C77.4442 46.4396 77.5032 46.4454 77.5564 46.4454C77.6097 46.4454 77.6351 46.4642 77.6351 46.4946C77.6351 46.5437 77.59 46.5566 77.5102 46.5566H76.883C76.5139 46.5566 76.3495 46.5262 76.1783 46.4396C75.8948 46.298 75.6437 46.0067 75.2746 45.5317C75.0107 45.1924 74.7076 44.7723 74.6219 44.6799C74.5884 44.6436 74.549 44.6366 74.5027 44.6366L73.93 44.6249C73.8964 44.6249 73.8767 44.6366 73.8767 44.6741V44.7606C73.8767 45.3339 73.8767 45.8218 73.9091 46.0816C73.93 46.2606 73.9693 46.3963 74.166 46.4209C74.2655 46.4326 74.4102 46.4454 74.49 46.4454C74.5421 46.4454 74.5687 46.4642 74.5687 46.4946C74.5687 46.5379 74.5224 46.5566 74.4368 46.5566C74.0549 46.5566 73.5666 46.5379 73.4683 46.5379C73.3421 46.5379 72.9267 46.5566 72.664 46.5566C72.5773 46.5566 72.531 46.5379 72.531 46.4946C72.531 46.4642 72.5576 46.4454 72.6363 46.4454C72.7358 46.4454 72.8145 46.4326 72.8746 46.4209C73.0066 46.3963 73.039 46.2606 73.0656 46.0816C73.098 45.8218 73.098 45.3339 73.098 44.7665V43.6796Z"
      fill="#58595B" />
    <path fill-rule="evenodd" clip-rule="evenodd"
      d="M78.8421 43.6801C78.8421 42.7417 78.8421 42.5686 78.8294 42.372C78.8155 42.1614 78.7634 42.0631 78.5459 42.0198C78.4927 42.007 78.3804 42.0011 78.2878 42.0011C78.2161 42.0011 78.1768 41.9882 78.1768 41.9461C78.1768 41.9028 78.223 41.89 78.3214 41.89C78.6709 41.89 79.0863 41.9087 79.2703 41.9087C79.482 41.9087 80.7942 41.9087 80.9192 41.9028C81.0453 41.89 81.1506 41.8783 81.2027 41.8654C81.2362 41.8584 81.2756 41.8408 81.308 41.8408C81.3415 41.8408 81.3485 41.8654 81.3485 41.8958C81.3485 41.9391 81.3149 42.0128 81.2953 42.2971C81.2895 42.3591 81.2756 42.6306 81.2617 42.7055C81.2559 42.7359 81.242 42.7733 81.1969 42.7733C81.1506 42.7733 81.1379 42.7417 81.1379 42.6867C81.1379 42.6434 81.1298 42.5381 81.0974 42.4644C81.0511 42.3533 80.9851 42.2784 80.6554 42.2421C80.5443 42.2304 79.8511 42.2176 79.7192 42.2176C79.6857 42.2176 79.6729 42.2363 79.6729 42.2784V43.8403C79.6729 43.8836 79.6799 43.9082 79.7192 43.9082C79.8639 43.9082 80.623 43.9082 80.7745 43.8965C80.9331 43.8836 81.0314 43.8649 81.0904 43.8041C81.1379 43.7549 81.1633 43.7234 81.1969 43.7234C81.2224 43.7234 81.242 43.7362 81.242 43.7725C81.242 43.8099 81.2096 43.9082 81.19 44.2241C81.1761 44.347 81.1633 44.5938 81.1633 44.6371C81.1633 44.6863 81.1633 44.7541 81.1043 44.7541C81.0569 44.7541 81.0453 44.7296 81.0453 44.6991C81.0372 44.6371 81.0372 44.5564 81.0175 44.4768C80.9851 44.3528 80.8926 44.2604 80.6484 44.2358C80.5234 44.2241 79.8708 44.2171 79.7123 44.2171C79.6799 44.2171 79.6729 44.2417 79.6729 44.2791V44.767C79.6729 44.9764 79.6672 45.5439 79.6729 45.7241C79.6857 46.1499 79.791 46.2424 80.4644 46.2424C80.6357 46.2424 80.9134 46.2424 81.0847 46.1675C81.2559 46.0938 81.3346 45.9639 81.3809 45.7112C81.3936 45.6433 81.4075 45.6188 81.4538 45.6188C81.5059 45.6188 81.5059 45.6679 81.5059 45.7299C81.5059 45.8715 81.4538 46.2915 81.4202 46.4144C81.3739 46.5758 81.3149 46.5758 81.065 46.5758C80.0687 46.5758 79.6267 46.5384 79.2379 46.5384C79.0863 46.5384 78.6709 46.5571 78.407 46.5571C78.3214 46.5571 78.2751 46.5384 78.2751 46.4951C78.2751 46.4647 78.3017 46.4448 78.3804 46.4448C78.4788 46.4448 78.5586 46.4331 78.6188 46.4202C78.7495 46.3956 78.7831 46.2599 78.8086 46.0821C78.8421 45.8223 78.8421 45.3344 78.8421 44.767V43.6801Z"
      fill="#58595B" />
    <path fill-rule="evenodd" clip-rule="evenodd"
      d="M83.6642 46.4825C83.5589 46.4393 83.5381 46.4088 83.5381 46.2731C83.5381 45.9338 83.5659 45.5629 83.5716 45.4635C83.5786 45.371 83.5983 45.3032 83.6503 45.3032C83.7105 45.3032 83.7163 45.3593 83.7163 45.4085C83.7163 45.4892 83.7429 45.6191 83.7765 45.7232C83.9211 46.1807 84.3099 46.3468 84.7195 46.3468C85.3131 46.3468 85.6024 45.9701 85.6024 45.6437C85.6024 45.3406 85.5041 45.0505 84.9567 44.655L84.6536 44.4339C83.928 43.9027 83.6769 43.4698 83.6769 42.9702C83.6769 42.2904 84.2833 41.8037 85.2009 41.8037C85.629 41.8037 85.9068 41.8646 86.078 41.909C86.137 41.9207 86.1694 41.9394 86.1694 41.9827C86.1694 42.0623 86.144 42.2413 86.144 42.7233C86.144 42.8591 86.1231 42.9082 86.0699 42.9082C86.0248 42.9082 86.0051 42.8719 86.0051 42.797C86.0051 42.7421 85.9727 42.5502 85.8339 42.3899C85.7343 42.2729 85.5434 42.0869 85.1153 42.0869C84.627 42.0869 84.3296 42.3524 84.3296 42.7233C84.3296 43.0076 84.4823 43.2241 85.0285 43.6125L85.2136 43.7412C86.0051 44.3157 86.2944 44.7299 86.2944 45.3161C86.2944 45.6741 86.1498 46.1 85.6753 46.3901C85.3455 46.5878 84.9764 46.6428 84.627 46.6428C84.2439 46.6428 83.9477 46.5995 83.6642 46.4825Z"
      fill="#58595B" />
    <mask id="mask2_1_3785" style="mask-type:luminance" maskUnits="userSpaceOnUse" x="88" y="41" width="6" height="6">
      <path d="M88.1416 41.8037H93.5293V46.6438H88.1416V41.8037Z" fill="white" />
    </mask>
    <g mask="url(#mask2_1_3785)">
      <path fill-rule="evenodd" clip-rule="evenodd"
        d="M92.6059 44.3414C92.6059 42.9585 91.7554 42.1009 90.6734 42.1009C89.9155 42.1009 89.0523 42.4952 89.0523 44.0326C89.0523 45.3161 89.8102 46.3351 91.0761 46.3351C91.5378 46.3351 92.6059 46.1245 92.6059 44.3414ZM88.1416 44.2244C88.1416 43.1679 88.8868 41.8037 90.8644 41.8037C92.5075 41.8037 93.5293 42.6988 93.5293 44.1133C93.5293 45.5267 92.4739 46.644 90.7996 46.644C88.9065 46.644 88.1416 45.3161 88.1416 44.2244Z"
        fill="#58595B" />
    </g>
    <path fill-rule="evenodd" clip-rule="evenodd"
      d="M96.2117 44.1674C96.2117 44.2353 96.2256 44.2599 96.2719 44.2786C96.4096 44.3219 96.6074 44.3406 96.7717 44.3406C97.0367 44.3406 97.1224 44.316 97.2404 44.2353C97.4383 44.0996 97.6292 43.8164 97.6292 43.3098C97.6292 42.4335 97.0101 42.1796 96.6202 42.1796C96.4558 42.1796 96.3378 42.1866 96.2719 42.2042C96.2256 42.2171 96.2117 42.2416 96.2117 42.2908V44.1674ZM95.4341 43.6796C95.4341 42.7412 95.4341 42.5692 95.4214 42.3715C95.4075 42.1621 95.3554 42.0626 95.1379 42.0193C95.0846 42.0076 94.9724 42.0006 94.8798 42.0006C94.8081 42.0006 94.7676 41.9889 94.7676 41.9456C94.7676 41.9023 94.8139 41.8906 94.9134 41.8906C95.2617 41.8906 95.6782 41.9093 95.8159 41.9093C96.0404 41.9093 96.5415 41.8906 96.7463 41.8906C97.1617 41.8906 97.6037 41.9281 97.9601 42.1562C98.1441 42.2732 98.4079 42.5879 98.4079 43.001C98.4079 43.4573 98.2031 43.8773 97.5378 44.3839C98.1244 45.0754 98.5792 45.6253 98.968 46.0067C99.3383 46.3659 99.6079 46.408 99.7063 46.4267C99.7792 46.4396 99.8393 46.4454 99.8914 46.4454C99.9446 46.4454 99.9701 46.4642 99.9701 46.4946C99.9701 46.5437 99.925 46.5566 99.8463 46.5566H99.2191C98.85 46.5566 98.6845 46.5262 98.5132 46.4396C98.2297 46.298 97.9798 46.0067 97.6095 45.5317C97.3468 45.1924 97.0437 44.7723 96.9569 44.6799C96.9245 44.6436 96.8851 44.6366 96.8389 44.6366L96.2649 44.6249C96.2325 44.6249 96.2117 44.6366 96.2117 44.6741V44.7606C96.2117 45.3339 96.2117 45.8218 96.2452 46.0816C96.2649 46.2606 96.3043 46.3963 96.5021 46.4209C96.6005 46.4326 96.7463 46.4454 96.8261 46.4454C96.8782 46.4454 96.9048 46.4642 96.9048 46.4946C96.9048 46.5379 96.8585 46.5566 96.7717 46.5566C96.3899 46.5566 95.9027 46.5379 95.8032 46.5379C95.6782 46.5379 95.2617 46.5566 94.999 46.5566C94.9134 46.5566 94.8671 46.5379 94.8671 46.4946C94.8671 46.4642 94.8937 46.4454 94.9724 46.4454C95.0707 46.4454 95.1506 46.4326 95.2096 46.4209C95.3415 46.3963 95.3739 46.2606 95.4017 46.0816C95.4341 45.8218 95.4341 45.3339 95.4341 44.7665V43.6796Z"
      fill="#58595B" />
    <path fill-rule="evenodd" clip-rule="evenodd"
      d="M101.676 42.2366L100.694 42.2612C100.311 42.2729 100.153 42.3033 100.054 42.4402C99.9878 42.5326 99.9554 42.6075 99.9426 42.6555C99.9288 42.7058 99.9091 42.7304 99.8686 42.7304C99.8223 42.7304 99.8096 42.6988 99.8096 42.6309C99.8096 42.5326 99.9345 41.971 99.9484 41.9219C99.9681 41.8412 99.9878 41.8037 100.027 41.8037C100.08 41.8037 100.146 41.8657 100.311 41.8786C100.503 41.8973 100.753 41.9102 100.97 41.9102H103.582C104.004 41.9102 104.163 41.847 104.215 41.847C104.261 41.847 104.268 41.8844 104.268 41.9769C104.268 42.1067 104.247 42.5326 104.247 42.6929C104.241 42.7549 104.228 42.7924 104.188 42.7924C104.136 42.7924 104.122 42.7608 104.115 42.6683L104.11 42.6005C104.096 42.4402 103.919 42.267 103.331 42.2553L102.5 42.2366V44.7673C102.5 45.3348 102.5 45.8227 102.533 46.0883C102.553 46.2614 102.593 46.3971 102.79 46.4217C102.883 46.4334 103.028 46.4463 103.127 46.4463C103.199 46.4463 103.232 46.465 103.232 46.4954C103.232 46.5387 103.179 46.5574 103.106 46.5574C102.672 46.5574 102.256 46.5387 102.072 46.5387C101.92 46.5387 101.505 46.5574 101.241 46.5574C101.155 46.5574 101.109 46.5387 101.109 46.4954C101.109 46.465 101.134 46.4463 101.214 46.4463C101.314 46.4463 101.393 46.4334 101.452 46.4217C101.583 46.3971 101.623 46.2614 101.644 46.0824C101.676 45.8227 101.676 45.3348 101.676 44.7673V42.2366Z"
      fill="#58595B" />
    <path fill-rule="evenodd" clip-rule="evenodd"
      d="M105.608 46.4825C105.503 46.4393 105.483 46.4088 105.483 46.2731C105.483 45.9338 105.509 45.5629 105.517 45.4635C105.523 45.371 105.542 45.3032 105.596 45.3032C105.655 45.3032 105.662 45.3593 105.662 45.4085C105.662 45.4892 105.688 45.6191 105.721 45.7232C105.865 46.1807 106.254 46.3468 106.664 46.3468C107.257 46.3468 107.547 45.9701 107.547 45.6437C107.547 45.3406 107.448 45.0505 106.902 44.655L106.598 44.4339C105.872 43.9027 105.621 43.4698 105.621 42.9702C105.621 42.2904 106.229 41.8037 107.145 41.8037C107.573 41.8037 107.851 41.8646 108.022 41.909C108.081 41.9207 108.115 41.9394 108.115 41.9827C108.115 42.0623 108.088 42.2413 108.088 42.7233C108.088 42.8591 108.068 42.9082 108.015 42.9082C107.969 42.9082 107.949 42.8719 107.949 42.797C107.949 42.7421 107.917 42.5502 107.778 42.3899C107.679 42.2729 107.488 42.0869 107.059 42.0869C106.571 42.0869 106.275 42.3524 106.275 42.7233C106.275 43.0076 106.426 43.2241 106.974 43.6125L107.158 43.7412C107.949 44.3157 108.24 44.7299 108.24 45.3161C108.24 45.6741 108.095 46.1 107.619 46.3901C107.29 46.5878 106.921 46.6428 106.571 46.6428C106.188 46.6428 105.892 46.5995 105.608 46.4825Z"
      fill="#58595B" />
  </g>
  <defs>
    <clipPath id="clip0_1_3785">
      <rect width="130" height="47" fill="white" transform="translate(0.400391 0.5)" />
    </clipPath>
  </defs>
</svg>