<svg id="Layer_1" data-name="Layer 1" xmlns="http://www.w3.org/2000/svg" viewBox="0 0 170 70"><defs><style>.cls-1{fill:#fff;}</style></defs><title>daysinn</title><path class="cls-1" d="M67.79,48c0,.74.62,1,1.42,1h1.24V46.7C69.31,46.78,67.85,47,67.79,48Z"/><path class="cls-1" d="M59.25,42.66H57.87v6.06h1.38c1.24,0,2.19-.75,2.19-3S60.49,42.66,59.25,42.66Z"/><path class="cls-1" d="M104,38.59c.09-.73.14-1.47.16-2.21a19,19,0,0,0-38-.88c0,.3,0,.59,0,.88a16.29,16.29,0,0,0,.13,2.21c-9.38.66-15.76,1.5-15.76,1.5v13h69v-13S113.25,39.25,104,38.59Zm-22.54-.65c-4.4.06-8.61.24-12.41.47L77,36.32l-8.64-1.77,8.82.07L69.1,31.1,77.72,33l-7.19-5.12,8.07,3.65-6-6.51,7.06,5.26-4.48-7.62L81,29.28l-2.8-8.37,4.35,7.68-1-8.76,2.65,8.41.85-8.79,1,8.79,2.66-8.41-1,8.76L92,20.91l-2.79,8.37,5.85-6.61-4.52,7.62L97.61,25l-6,6.51,8.07-3.65L92.53,33l8.61-1.91-8.07,3.52,8.83-.07-8.66,1.77,7.9,2.09h0c-3.78-.23-8-.41-12.35-.47ZM59.38,50.29h-4v-9.2h4c3.75,0,5.11,2.13,5.11,4.61S63.13,50.29,59.38,50.29Zm13.88-.12a26,26,0,0,1-4,.25c-2.6,0-3.87-.77-3.83-2.34,0-2,2.63-2.31,5.28-2.52v-.12c0-.72-.84-.95-1.6-.95s-1.73.34-2.27.34a.72.72,0,0,1-.59-.47c-.16-.36-.31-.82-.31-.82A11,11,0,0,1,69.54,43c2.09,0,3.68.7,3.68,2.76Zm4.43,1.7H76.05l1-2.24L73.7,43.11h1.48a1.47,1.47,0,0,1,1.48,1l1.49,3,1.71-4h2.58L79.1,50.89A1.39,1.39,0,0,1,77.69,51.87Zm7.92-1.45a6.79,6.79,0,0,1-3.18-.6,4,4,0,0,1,.28-.67.74.74,0,0,1,.64-.47,13.55,13.55,0,0,0,2,.31c.68,0,1.27-.27,1.23-.71s-.51-.82-1.45-1.09c-1.88-.52-2.29-1.25-2.29-2,0-1.22,1.36-2.21,3.4-2.21a6.86,6.86,0,0,1,3,.55,5.72,5.72,0,0,1-.28.68.73.73,0,0,1-.63.46,9.65,9.65,0,0,0-1.77-.31c-.72,0-1,.31-1,.61,0,.51.66.83,1.46,1.07,2,.59,2.42,1.26,2.42,2.1C89.48,49.4,88,50.42,85.61,50.42Zm9.83-.13H92.69v-9.2h1.39c1,0,1.38.35,1.38,1.1Zm9.92,0h-2.57V45.68a1.27,1.27,0,0,0-1.34-1.2h-.06a2.42,2.42,0,0,0-1.54.47v5.33H97.3V43.1h1.26c.64,0,1,.18,1.2.54a4.56,4.56,0,0,1,2.3-.67c1.78,0,3.3.84,3.3,2.91Zm9.68,0h-2.56V45.68a1.27,1.27,0,0,0-1.34-1.2h-.06a2.51,2.51,0,0,0-1.55.47v5.33H107V43.1h1.27c.65,0,1,.18,1.19.54a4.69,4.69,0,0,1,2.3-.67c1.8,0,3.3.84,3.3,2.91Z"/></svg>