<svg id="Layer_1" data-name="Layer 1" xmlns="http://www.w3.org/2000/svg" width="170" height="70" viewBox="0 0 170 70">
  <defs>
    <style>
      .cls-1 {
        fill: #fff;
      }
    </style>
  </defs>
  <title>footer</title>
  <g>
    <path class="cls-1" d="M94.7862,23.54539c-.76528.35963-5.3704,2.54156-12.72924-.43412a19.07587,19.07587,0,0,0-14.73538-.305v2.95609c5.16689-2.68627,11.01488-1.19267,13.75874-.18777a17.77821,17.77821,0,0,0,13.69033-.61774L94.753,24.906a19.59268,19.59268,0,0,1-9.32388.59439,18.39371,18.39371,0,0,0,9.37863-1.91992l-.0215-.0351Z"/>
    <path class="cls-1" d="M105.50161,26.607c-.47745.219-6.7795,3.33534-18.95305-.29321-4.26063-1.26694-11.61759-4.90723-21.58339-.87194v4.26207c8.05171-3.89074,16.258-1.72051,20.28771-.20734a26.72734,26.72734,0,0,0,20.11372-.80539l-.02742-.05088c-1.9141.653-5.29026,1.568-11.146.69995,5.56027-.17211,8.71713-1.05972,11.34557-2.68628Z"/>
    <path class="cls-1" d="M94.11089,28.3939c-.8395.39889-4.71864,2.049-11.57841-.72723-2.98467-1.2043-8.451-2.88958-13.55521-.5435V29.954c2.37789-1.03607,6.41556-2.36566,12.61582.11335A16.00264,16.00264,0,0,0,94.09928,29.696c.11932-.05867.09393-.10165-.0431-.05088a13.02168,13.02168,0,0,1-6.713.5123c3.82428-.23068,5.44094-.81726,6.78745-1.70094.16042-.10949.15057-.14863-.01971-.06264Z"/>
    <path class="cls-1" d="M49.35588,30.9472a5.73309,5.73309,0,0,1,3.22439.68429,2.565,2.565,0,0,1,1.21342,2.35392c0,1.81824-1.81032,2.68236-3.00616,2.92091V36.965c2.11762.23466,3.87321,1.34119,3.87321,3.39786a3.44744,3.44744,0,0,1-2.17047,3.18683,10.20905,10.20905,0,0,1-4.05821.6882H42.5v-.6882c1.93369-.14863,2.11168-.30116,2.11168-2.47122v-7.003c0-2.17409-.178-2.3188-1.99331-2.47123v-.657Zm-2.41712,5.77928h1.64111c1.43166,0,2.72044-.653,2.72044-2.47122,0-1.75562-1.373-2.47122-2.836-2.47122-1.45707,0-1.52557.05859-1.52557.77419v4.16826Zm0,.7742v3.66379c0,1.93555.6292,2.2366,2.056,2.2366a2.699,2.699,0,0,0,2.9886-2.92089c0-2.11538-1.61464-2.9795-3.519-2.9795Z"/>
    <path class="cls-1" d="M61.87281,43.68658l.44824-.047c.67124-.07034.87881-.262.40906-1.37641l-.81028-1.91195H58.62391c-.16826.3792-.56557,1.48967-.80043,2.2014-.28771.80552-.07634,1.04014.61057,1.087l.5481.047v.55133h-4.153v-.55133c1.04313-.11733,1.458-.21505,2.143-1.84565l3.50333-8.30911.593-.14458,3.5308,8.73921c.56555,1.39585,1.01962,1.48967,2.06276,1.56013v.55133H61.87281v-.55136Zm-2.99048-4.141H61.634l-1.37383-3.59724h-.04311Z"/>
    <path class="cls-1" d="M67.81472,44.2379v-.55133c1.71259-.11732,1.828-.23465,1.828-1.96294V40.2847a1.6742,1.6742,0,0,0-.35813-1.11439C68.78745,38.29054,68.128,37.19959,67.03,35.401c-.60476-1.04014-.77111-1.06363-1.84168-1.18485v-.5435h4.74024v.5435l-.73986.09774c-.54015.07045-.56367.21517-.33069.6882.12325.23466,1.6341,2.83882,2.20952,3.76163.732-1.25517,1.466-2.84274,1.84369-3.62084.30923-.66079.25837-.75854-.37771-.829l-.68894-.09774v-.5435h4.17457v.5435a2.00718,2.00718,0,0,0-2.01978,1.21211c-.63407.92283-1.34652,2.0607-2.12938,3.43319a1.91226,1.91226,0,0,0-.37569,1.15745v1.70475c0,1.72833.14082,1.84564,1.89843,1.96294v.55133Z"/>
    <path class="cls-1" d="M91.01868,33.67263v.54349c-1.71247.12122-1.80639.19167-1.78491,1.79871l.12528,5.8731c.02149,1.61482.09786,1.68138,1.80059,1.79871V44.238H85.86937v-.55132c1.61867-.11733,1.70867-.18386,1.68706-1.79871L87.488,35.401h-.07837l-4.09821,8.64133h-.42664l-3.85955-8.21522h-.043l-.14878,3.81241a23.03666,23.03666,0,0,0,.02541,3.10071c.06851.61787.52258.85249,1.67924.94631v.55133H76.17965v-.55133c1.04125-.07046,1.374-.32844,1.51477-.94631a18.4249,18.4249,0,0,0,.28582-3.03037l.19175-3.35879c.09785-1.99024,0-2.01373-1.68315-2.13495v-.54349h3.38781l3.795,7.76955,3.7205-7.76955Z"/>
    <path class="cls-1" d="M91.97965,39.18988a5.60215,5.60215,0,0,1,5.39782-5.79928q.12618-.00453.25246-.00336A5.31495,5.31495,0,0,1,103.229,38.402q.01188.21583.00619.4321A5.46772,5.46772,0,0,1,97.991,44.51649q-.17355.007-.34729.00289a5.40162,5.40162,0,0,1-5.65805-5.1324q-.0048-.09849-.006-.19711Zm5.85582,4.614c1.826,0,3.26847-1.18092,3.26847-4.49277,0-2.70193-1.3191-5.20839-3.6951-5.20839-1.92194,0-3.29791,1.63453-3.29791,4.51627C94.11093,41.70013,95.4869,43.80389,97.83547,43.80388Z"/>
    <path class="cls-1" d="M114.82737,44.35131h-.76707l-7.22584-8.051h-.01568v3.46048a21.89334,21.89334,0,0,0,.13893,3.02646c.0665.5709.58919.82888,1.77327.89934v.55133h-4.49562v-.55133c.99034-.047,1.48342-.32844,1.58341-.89934a22.20111,22.20111,0,0,0,.14474-3.02646V36.58959c0-1.89642-.38163-2.25226-1.99045-2.37348v-.5435h2.91224l7.0399,7.74212h.043v-3.265a23.35362,23.35362,0,0,0-.14083-3.05777c-.09593-.563-.61648-.80149-1.79871-.87586v-.5435h4.52307v.5435c-.99431.05088-1.48948.3129-1.58341.87586a22.99166,22.99166,0,0,0-.14094,3.05777v6.20156Z"/>
    <path class="cls-1" d="M121.48176,34.38431h-.732c-1.39924,0-1.87873.2619-2.1371.54349a3.55965,3.55965,0,0,0-.63811,1.56406h-.57139c.07623-1.22779.18975-2.38914.21516-3.218h.30539a.88448.88448,0,0,0,.90421.39879h7.34329a.811.811,0,0,0,.80625-.39879h.31513c.01568.65689.11162,2.1544.20745,3.17106l-.591.047a3.14352,3.14352,0,0,0-.61648-1.65788,2.6824,2.6824,0,0,0-1.89652-.44967h-1.05894v7.33932c0,1.72833.137,1.84564,1.83975,1.96294v.55133h-5.47014v-.55133c1.63613-.11732,1.77506-.23465,1.77506-1.96294Z"/>
  </g>
</svg>
