<svg id="Layer_1" data-name="Layer 1" xmlns="http://www.w3.org/2000/svg" viewBox="0 0 170 70"><defs><style>.cls-1{fill:#fff;}</style></defs><title>wyn-garden</title><path class="cls-1" d="M43,22.89h2.45L47.59,30l2.33-7.18h2L54.25,30l2.15-7.15h2.39L55.2,33.53h-2l-2.32-6.92-2.34,6.92h-2Z"/><path class="cls-1" d="M63,29.29l-4-6.4h2.67l2.47,4.24,2.52-4.24h2.59l-4,6.35v4.21H63Z"/><path class="cls-1" d="M70.61,22.89h2.1l4.86,6.5v-6.5h2.25V33.45H77.88l-5-6.72v6.72H70.61Z"/><path class="cls-1" d="M82.24,22.89h4a5.21,5.21,0,0,1,5.51,4.91c0,.11,0,.22,0,.34h0a5.24,5.24,0,0,1-5.18,5.29H82.24Zm4,8.47a3,3,0,0,0,3.13-2.89,1.22,1.22,0,0,0,0-.27h0A3,3,0,0,0,86.6,25H84.52v6.37Z"/><path class="cls-1" d="M93.76,22.89H96v4.17h4.22V22.89h2.3V33.45h-2.28V29.21H96v4.24H93.76Z"/><path class="cls-1" d="M108.5,22.81h2.11l4.46,10.64h-2.39l-1-2.36h-4.33l-1,2.36H104ZM110.91,29l-1.38-3.43L108.15,29Z"/><path class="cls-1" d="M116.59,22.89h2.5l2.72,4.46,2.73-4.46H127V33.45h-2.27v-6.9l-2.92,4.52h-.06l-2.89-4.47v6.85h-2.23Z"/><path class="cls-1" d="M43.16,43h0a4.15,4.15,0,0,1,4.08-4.22h.12a4.34,4.34,0,0,1,3.14,1.11l-1.11,1.37a2.91,2.91,0,0,0-2.09-.83A2.42,2.42,0,0,0,45,43h0a2.41,2.41,0,0,0,2.25,2.57h.16A2.87,2.87,0,0,0,49.09,45V43.89H47.31V42.35h3.48v3.54a5.13,5.13,0,0,1-3.42,1.3,4,4,0,0,1-4.21-3.81Z"/><path class="cls-1" d="M55.17,38.83h1.62L60.22,47H58.39l-.73-1.82h-3.4L53.53,47H51.74ZM57,43.63,56,41l-1.07,2.61Z"/><path class="cls-1" d="M61.41,38.89h3.66a3.19,3.19,0,0,1,2.33.82,2.68,2.68,0,0,1,.69,1.87h0a2.56,2.56,0,0,1-1.72,2.53l2,2.92H66.26l-1.71-2.6H63.17V47H61.41Zm3.51,4c.86,0,1.35-.47,1.35-1.15h0c0-.77-.53-1.18-1.38-1.18H63.17v2.35Z"/><path class="cls-1" d="M69.62,38.89h3.12A4,4,0,0,1,77,42.65c0,.09,0,.17,0,.25h0A4,4,0,0,1,73.11,47H69.62Zm3.12,6.54a2.31,2.31,0,0,0,2.42-2.19V43h0A2.33,2.33,0,0,0,73,40.56h-1.6v4.88Z"/><path class="cls-1" d="M78.51,38.89h6v1.59H80.26v1.66H84v1.59H80.26v1.72h4.35V47h-6.1Z"/><path class="cls-1" d="M86.11,38.89h1.63l3.75,5v-5h1.74V47h-1.5l-3.88-5.18V47H86.11Z"/></svg>