<svg id="Layer_1" data-name="Layer 1" xmlns="http://www.w3.org/2000/svg" viewBox="0 0 170 70"><defs><style>.cls-1{fill:#fff;}</style></defs><title>travelodge</title><path class="cls-1" d="M123.63,47.89H46.3a5.14,5.14,0,0,1-3.74-1.75A6.33,6.33,0,0,1,41,41.93V28.1c0-3.3,2.39-6,5.3-6h77.4a5.16,5.16,0,0,1,3.74,1.75A6.33,6.33,0,0,1,129,28.07V41.93a6.05,6.05,0,0,1-1.56,4.21A5.24,5.24,0,0,1,123.63,47.89ZM46.3,22.66c-2.65,0-4.78,2.46-4.78,5.5V42a5.88,5.88,0,0,0,1.42,3.88A4.49,4.49,0,0,0,46.3,47.5h77.4a4.51,4.51,0,0,0,3.36-1.62A5.88,5.88,0,0,0,128.48,42V28.1a5.88,5.88,0,0,0-1.42-3.88,4.51,4.51,0,0,0-3.36-1.62H46.3Z"/><path class="cls-1" d="M126.73,24.61a4.06,4.06,0,0,0-3.1-1.49H46.3c-2.39,0-4.39,2.26-4.39,5V41.93a5.06,5.06,0,0,0,1.29,3.49,4,4,0,0,0,3.1,1.49h77.4a4.06,4.06,0,0,0,3.1-1.49,5.27,5.27,0,0,0,1.29-3.49V28.1A5.48,5.48,0,0,0,126.73,24.61Zm.65,17.32a4,4,0,0,1-3.75,4.27H46.3A4,4,0,0,1,42.55,42V28.1a4.05,4.05,0,0,1,3.74-4.27h77.4a4,4,0,0,1,3.74,4.22V41.93Z"/><path class="cls-1" d="M87.74,26.54c.39,0,.33.52.33.52v9.76c0,1,0,1.5.65,1.88.13.26-.07.46-.39.46H85.42a.31.31,0,0,1-.31-.3.3.3,0,0,1,0-.16c.13-.19.84-.32.84-1.1V28.1c-.06-.52-.19-.78-.58-.91-.13-.13-.26-.2-.32-.39s0-.26.19-.26Z"/><path class="cls-1" d="M49.66,39.16c-.26,0-.26-.07-.26-.07-.45-.77.85-.71,1-1.42V28.42a3.9,3.9,0,0,0-3.49,1.49l-.39.07c-.2-.07-.2-.26-.13-.46a28.41,28.41,0,0,1,1.35-2.91c.39-.13.65.32.91.38h6.27c.33-.06.52-.58,1-.38.5.9.89,1.94,1.35,2.91.06.2.06.39-.13.46l-.39-.07a4,4,0,0,0-3.49-1.49v9.25c.13.71,1.42.65,1,1.42,0,0,0,.07-.26.07Z"/><path class="cls-1" d="M56.2,39.16a.33.33,0,0,1-.32-.26.34.34,0,0,1,.12-.33,1.28,1.28,0,0,0,.77-1V33c-.19-.52-.83-.65-1.09-1a.49.49,0,0,1,.24-.66.46.46,0,0,1,.21-.05h1.61c.46,0,.59,1.23,1,.91s.71-1.1,1.17-1c.26,0,.58.78.9,1.23.12.39.51.65.32,1.17-.13.13-.26.13-.51.06-.39-.25-.65-1-1.23-.77a1.13,1.13,0,0,0-.71.64v4.14a1.45,1.45,0,0,0,.77,1c.13.13.13.13.13.32a.33.33,0,0,1-.32.26H56.2Z"/><path class="cls-1" d="M119.3,32a1.24,1.24,0,0,0-1,0,1.62,1.62,0,0,0-.71,1.11c0,.13-.07.38.19.38h2a.33.33,0,0,0,.35-.31.34.34,0,0,0,0-.14,1.54,1.54,0,0,0-.78-1m2.58,2c-.13.2-.32.26-.64.26h-3.83c-.44.26-.24.65-.19,1.42a3.37,3.37,0,0,0,1.94,2.66,1.92,1.92,0,0,0,1.62-.33c.84-.71,1-1.55,1.29-1.55s0,.84,0,1.29,0,.91-.45,1c-.38-.07-1.09.39-1.35.52a3.33,3.33,0,0,1-1.24.31,3.06,3.06,0,0,1-2.9-1.67,4.92,4.92,0,0,1-.58-2.66A4.7,4.7,0,0,1,117.24,32a3.13,3.13,0,0,1,3-.32c1.3.26,2,1.94,1.68,2.33"/><path class="cls-1" d="M101.26,37.86a1.19,1.19,0,0,0,1.23.52,1.37,1.37,0,0,0,1.1-1.23V32.69c0-.52-.84-1.3-2-.65-.71.39-1.1,2.07-1,3.1a4.83,4.83,0,0,0,.71,2.72m4.2-.26c0,.46.45.65.71.91s.26.58-.06.58H104c-.2,0-.39-.52-.65-.39a2.7,2.7,0,0,1-3.18.26c-1.28-.58-1.8-3.17-1.41-4.59a4.33,4.33,0,0,1,3.55-3.11c.65,0,1,.45,1.23-.19V29.91a1,1,0,0,0-.58-.91.56.56,0,0,1-.45-.39c0-.25.19-.38.51-.38h3c.26,0,.32.38-.07.51s-.45.78-.45,1.3Z"/><path class="cls-1" d="M92.27,32.82a6.76,6.76,0,0,0,0,5,1.44,1.44,0,0,0,1.91.67,1.47,1.47,0,0,0,.55-.47c.77-1.11.77-4.6-.19-5.5a1.43,1.43,0,0,0-2-.07,1.64,1.64,0,0,0-.26.33m4.46.32a4.32,4.32,0,0,1-.13,4.59,3.62,3.62,0,0,1-6.41-.39,4.68,4.68,0,0,1,0-3.94,3.78,3.78,0,0,1,4-2.07,3.47,3.47,0,0,1,2.64,1.81"/><path class="cls-1" d="M65.89,34.31c-.9.52-2.06,1.28-1.87,2.51a2.13,2.13,0,0,0,1,1.56,1.88,1.88,0,0,0,1.54,0c1.43-.84.33-2.72,0-3.42-.13-.33-.26-.85-.71-.65m1.94-1.88c.65,1.75,1.17,3.68,1.74,5.37.13.32.72.45.91.64a.37.37,0,0,1,0,.52.4.4,0,0,1-.3.13h-1.5c-.78,0-.85-.06-1.17-.58a9.26,9.26,0,0,1-1.81.9,3.16,3.16,0,0,1-2.52-.4,2.42,2.42,0,0,1-1-2.53c.26-1.43,1.62-2,2.66-2.65.38-.26,1.22-.39,1.15-.84s-.25-.52-.51-.71c-1.22-.46-1.87.84-2.65,1.29-.13.13-.32.07-.32-.06a8.41,8.41,0,0,1,1-2.2c.39,0,.46.19.65.19.78,0,1.55-.71,2.39-.32a3.39,3.39,0,0,1,1.29,1.23"/><path class="cls-1" d="M77.41,31.91c-.39.26-1,.32-1.24.84l-2.58,6.41c-.19.31-.71.38-.78.06s-2.33-6.53-2.33-6.53c-.19-.46-.52-.46-.78-.72s-.26-.58.13-.58h3c.13,0,.39,0,.45.26s-.32.39-.52.78c-.13.19-.06.39-.06.65a26.88,26.88,0,0,0,1.09,2.84c.1.2.2.19.33,0l1-2.58a1,1,0,0,0-.13-1c-.26-.22-.91-.39-.78-.84a.39.39,0,0,1,.32-.13h2.66c.39-.06.45.32.2.52"/><path class="cls-1" d="M109,41.16c-.26.13-.39.19-.46.45a1,1,0,0,0,.13.91,4.64,4.64,0,0,0,2.92.52c.52-.13,1.1-.13,1.23-.78,0-.33-.39-.52-.65-.65a24.19,24.19,0,0,0-3.17-.45m1.49-9c-1,.19-1.43,1.49-1.49,2.53s.12,2.7,1.42,3.3c.39.13,1-.39,1.23-.65a4.29,4.29,0,0,0,.13-4.07c-.26-.58-.71-1.17-1.29-1.1m4.33-.65a.59.59,0,0,1,0,.65c-.39.39-1,0-1.49.13-.13,0-.26.13-.13.26a3.87,3.87,0,0,1,.65,3.81,3.62,3.62,0,0,1-2.59,2.33,3.67,3.67,0,0,1-1.68-.06c-.2-.13-.39.13-.46.19a.36.36,0,0,0,.16.48.19.19,0,0,0,.1,0c1.56.26,3.31.26,4.66,1.17a1.76,1.76,0,0,1,.45,1.81C113.87,44,111.8,44,110.18,44c-1.16-.13-2.71-.25-3.23-1.54a2.09,2.09,0,0,1,.71-1.49,6.06,6.06,0,0,1-.58-1.1,1.91,1.91,0,0,1,1.17-1.55s.26-.19.06-.32a4.22,4.22,0,0,1-1-4.53,3.22,3.22,0,0,1,3.36-2.14,5.05,5.05,0,0,0,2.78-.06,2.31,2.31,0,0,1,1.36.32"/><path class="cls-1" d="M81.28,32a1.17,1.17,0,0,0-1,0,1.6,1.6,0,0,0-.72,1.11c0,.13-.06.38.2.38h2a.32.32,0,0,0,.34-.29.29.29,0,0,0,0-.16,1.57,1.57,0,0,0-.78-1m2.65,2c-.13.2-.32.26-.65.26H79.47c-.45.26-.26.65-.2,1.42a3.35,3.35,0,0,0,2,2.66A1.91,1.91,0,0,0,82.83,38c.84-.71,1-1.55,1.3-1.55s0,.84,0,1.29,0,.91-.46,1c-.39-.07-1.1.39-1.35.52a3.13,3.13,0,0,1-4.15-1.36,5,5,0,0,1-.57-2.66A4.78,4.78,0,0,1,79.21,32a3.15,3.15,0,0,1,3-.32c1.28.26,1.93,1.94,1.67,2.33"/><rect class="cls-1" x="49.08" y="42.13" width="56.51" height="0.71"/><rect class="cls-1" x="115.68" y="42.13" width="6.59" height="0.71"/></svg>