<svg id="Layer_1" data-name="Layer 1" xmlns="http://www.w3.org/2000/svg" viewBox="0 0 170 70"><defs><style>.cls-1{fill:#fff;}</style></defs><title>tryp</title><path class="cls-1" d="M81.05,22.62c0-.93-.46-1.08-1.16-1.08h-.77v5.8H80c.65,0,1-.2,1-1.15Z"/><path class="cls-1" d="M101.38,26.83v-4.3c0-.82-.44-1-1-1h-.66v6.29h.66C100.91,27.83,101.38,27.65,101.38,26.83Z"/><path class="cls-1" d="M89.76,51.39h-.31v2h.28c.37,0,.44-.27.44-1C90.17,51.85,90.17,51.39,89.76,51.39Z"/><polygon class="cls-1" points="97.3 51.5 97.02 52.72 97.59 52.72 97.3 51.5 97.3 51.5"/><path class="cls-1" d="M63,13.05V57h44V13.05Zm5,40.78H66.9V51H68c.45,0,.82.13.82.73a.58.58,0,0,1-.48.63h0c.42.06.53.33.53.72a.78.78,0,0,1-.87.75Zm3.82-1v1h-.63v-1L70.44,51h.65l.42,1.2L72,51h.61Zm.83-31.26h-2V36.22H69.2V21.54h-2V20.3H72.6Zm6.42,32.22H78.4L78,51.72h0l-.49,2.07h-.64L76.2,51h.61l.37,2h0l.45-2h.7l.42,2h0l.36-2h.58Zm1-25.22h-.91v7.65H77.76V20.3H80.3c1.31,0,2.12.24,2.12,1.83v4c0,1.23-.44,1.66-1.5,1.72v.05c1,.06,1.56.37,1.56,1.47v6.81H81.11V29.54c0-.78-.43-1-1.08-1ZM82.45,52.8v1h-.59v-1L81.09,51h.64l.43,1.2.45-1.2h.59Zm4.56,1h-.78l-.78-2.07h0V53.8h-.56V51h.8l.76,2h0V51H87Zm2.84,0h-1V51h1c.77,0,.92.52.92,1.4,0,.43.06,1.43-1,1.43Zm1.09-17.58H89.55V29.3l-2-9h1.39l1.31,7.24h0l1.31-7.24h1.37l-2,9Zm3.57,17.57h-.58V52.52h-.68v1.27h-.62V51h.59V52.1h.71V51h.59Zm3.38,0-.16-.63h-.81l-.16.63h-.58L96.92,51h.79l.76,2.84Zm1.8-17.57H98.3V20.3h2.17c1.76,0,2.28.62,2.28,2.43v3.9c0,1.81-.52,2.42-2.28,2.42h-.8Zm3.22,17.57h-.58V51.6h0l-.54,2.19h-.57l-.52-2.19h0v2.19h-.57V51h1l.45,1.93h0L102,51h.91Z"/><path class="cls-1" d="M68.2,51.75a.34.34,0,0,0-.32-.36h-.39v.72h.4a.3.3,0,0,0,.31-.3Z"/><path class="cls-1" d="M67.84,52.54h-.35v.81h.33c.13,0,.41,0,.41-.4S68.14,52.54,67.84,52.54Z"/></svg>