<svg id="Layer_1" data-name="Layer 1" xmlns="http://www.w3.org/2000/svg" viewBox="0 0 170 70"><defs><style>.cls-1{fill:#fff;}</style></defs><title>trademark</title><g id="LG_V_White" data-name="LG V White"><path class="cls-1" d="M98.69,30A2.17,2.17,0,0,1,97,29.5,3.27,3.27,0,0,1,96.64,28V18.38h2.44v-.62H94.14L89,27.75l-5.39-10H68.19v5.41h.58A5.48,5.48,0,0,1,70,19.42c.71-.83,2-1.14,4.42-1.14V30H71.66v.62H84.17V30h-.54a2.14,2.14,0,0,1-1.73-.54A3,3,0,0,1,81.59,28V19.5h0l6.17,11.38h.39l5.9-11.59V30H91.62v.62h7.61V30A1.88,1.88,0,0,1,98.69,30ZM80.92,30H79.06c-.89,0-1.48-.16-1.73-.51a3,3,0,0,1-.34-1.4V18.28a8,8,0,0,1,3.89.65Z"/><path class="cls-1" d="M46.33,39.2H44V38h6v1.2H47.64v6.17H46.33Z"/><path class="cls-1" d="M52.67,38H56a3,3,0,0,1,2.14.74,2.28,2.28,0,0,1,.61,1.59h0A2.22,2.22,0,0,1,57,42.58l2,2.8H57.41L55.59,42.8H54v2.58h-1.3Zm3.19,3.65c.94,0,1.52-.48,1.52-1.23h0c0-.79-.56-1.22-1.53-1.22H54v2.47Z"/><path class="cls-1" d="M64.39,38H65.6l3.24,7.43H67.47l-.75-1.79H63.23l-.76,1.79H61.15Zm1.86,4.49L65,39.5,63.7,42.44Z"/><path class="cls-1" d="M71.38,38h2.75A3.67,3.67,0,0,1,78,41.39a2.09,2.09,0,0,1,0,.25h0a3.7,3.7,0,0,1-3.7,3.69h-3Zm2.75,6.19a2.4,2.4,0,0,0,2.56-2.23v-.25h0a2.42,2.42,0,0,0-2.33-2.51H72.67v5Z"/><path class="cls-1" d="M81.06,38h5.46v1.16H82.36v1.94h3.69v1.15H82.36v2h4.21V45.4H81.06Z"/><path class="cls-1" d="M89.93,38H91.3l2.24,3.49L95.78,38h1.38v7.37H95.87V40.09l-2.33,3.47h0l-2.3-3.45v5.27H89.93Z"/><path class="cls-1" d="M103,38h1.2l3.25,7.43h-1.33l-.76-1.79H101.9l-.76,1.79H99.82Zm1.85,4.49-1.27-2.94-1.27,2.94Z"/><path class="cls-1" d="M110.18,38h3.28a3,3,0,0,1,2.13.74,2.28,2.28,0,0,1,.61,1.59h0a2.22,2.22,0,0,1-1.76,2.23l2,2.79h-1.52l-1.82-2.57h-1.63v2.57h-1.29Zm3.18,3.65c.94,0,1.53-.48,1.53-1.23h0c0-.79-.57-1.22-1.54-1.22h-1.88v2.47Z"/><path class="cls-1" d="M119.47,38h1.29v3.71L124.28,38h1.58l-3.06,3.17,3.2,4.2h-1.57L121.92,42l-1.16,1.18v2.14h-1.29Z"/><path class="cls-1" d="M45.76,49.06h.34v1.36h1.77V49.06h.36v3.06h-.36V50.74H46.1v1.38h-.34Z"/><path class="cls-1" d="M51.3,50.6h0A1.56,1.56,0,0,1,52.81,49h.06a1.54,1.54,0,0,1,1.56,1.52v.05h0a1.57,1.57,0,1,1-3.13.25,1,1,0,0,1,0-.25Zm2.77,0h0a1.21,1.21,0,1,0-2.41-.22.81.81,0,0,0,0,.22h0a1.22,1.22,0,0,0,1.17,1.27h0a1.2,1.2,0,0,0,1.2-1.22Z"/><path class="cls-1" d="M58.11,49.38h-1v-.32h2.41v.32h-1v2.74h-.35Z"/><path class="cls-1" d="M62.42,49.06h2.23v.31H62.77v1h1.67v.31H62.77v1.08h1.9v.31H62.42Z"/><path class="cls-1" d="M67.66,49.06H68V51.8h1.73v.32h-2Z"/><path class="cls-1" d="M76.1,50.6h0A1.54,1.54,0,0,1,77.57,49h.08a1.58,1.58,0,0,1,1.2.48l-.24.26a1.3,1.3,0,0,0-1-.43,1.21,1.21,0,0,0-1.19,1.23v0h0a1.22,1.22,0,0,0,1.17,1.27h0a1.32,1.32,0,0,0,1-.45l.23.23a1.6,1.6,0,0,1-1.23.54A1.53,1.53,0,0,1,76.1,50.6Z"/><path class="cls-1" d="M81.59,50.6h0A1.56,1.56,0,0,1,83.1,49h.06a1.54,1.54,0,0,1,1.56,1.52v.05h0a1.57,1.57,0,0,1-3.13.25,1,1,0,0,1,0-.25Zm2.77,0h0A1.21,1.21,0,1,0,82,50.38a.81.81,0,0,0,0,.22h0a1.21,1.21,0,0,0,1.17,1.27h0a1.2,1.2,0,0,0,1.2-1.22Z"/><path class="cls-1" d="M87.79,49.06h.35V51.8h1.73v.32H87.79Z"/><path class="cls-1" d="M92.8,49.06h.35V51.8h1.73v.32H92.8Z"/><path class="cls-1" d="M97.82,49.06H100v.31H98.16v1h1.68v.31H98.16v1.08H100v.31h-2.2Z"/><path class="cls-1" d="M102.84,50.6h0A1.54,1.54,0,0,1,104.31,49h.08a1.62,1.62,0,0,1,1.21.48l-.25.26a1.3,1.3,0,0,0-1-.43,1.21,1.21,0,0,0-1.19,1.23v0h0a1.21,1.21,0,0,0,1.15,1.27h0a1.31,1.31,0,0,0,1-.45l.23.23a1.6,1.6,0,0,1-1.23.54,1.53,1.53,0,0,1-1.51-1.55Z"/><path class="cls-1" d="M109.41,49.38h-1v-.32h2.41v.32h-1v2.74h-.35Z"/><path class="cls-1" d="M113.75,49.06h.34v3.06h-.34Z"/><path class="cls-1" d="M117.18,50.6h0a1.56,1.56,0,1,1,3.12,0h0a1.56,1.56,0,0,1-3.12,0Zm2.76,0h0a1.21,1.21,0,1,0-2.41-.22.81.81,0,0,0,0,.22h0a1.22,1.22,0,0,0,1.17,1.27h0a1.2,1.2,0,0,0,1.2-1.22Z"/><path class="cls-1" d="M123.38,49.06h.33l1.93,2.45V49.06H126v3.06h-.27l-2-2.51v2.51h-.34Z"/></g></svg>