<svg id="Layer_1" data-name="Layer 1" xmlns="http://www.w3.org/2000/svg" viewBox="0 0 170 70"><defs><style>.cls-1{fill:#fff;}</style></defs><title>super-8</title><path class="cls-1" d="M85,61.05h0v-.78h0a12.25,12.25,0,0,0,10.91-6.15h5.34V16H96A12.25,12.25,0,0,0,85,9.73h0V9h0a13.07,13.07,0,0,1,11.41,6.22H102V54.9H96.37A13.07,13.07,0,0,1,85,61.05Zm0,0A13.12,13.12,0,0,1,73.63,55H68V15.17h5.6A13.08,13.08,0,0,1,85,9v.78a12.27,12.27,0,0,0-11,6.22h-5.3V54.12h5.31A12.27,12.27,0,0,0,85,60.27Z"/><path class="cls-1" d="M100.07,21.11a3.91,3.91,0,0,1,.2,1.23.24.24,0,0,0,0-.12,3.76,3.76,0,0,0-.16-.74c-1.3-4.06-8.89-5.31-17-2.74-.23.07-1.08.4-1.31.47a4.7,4.7,0,0,0,.34-1C90.46,15.56,98.7,16.82,100.07,21.11Zm-20.55,14c-4.94.08-8.76-1.46-9.67-4.35a4.63,4.63,0,0,1,0-2.71l.07.07a2.28,2.28,0,0,0,.91.48,4.44,4.44,0,0,0,.09,2.2c.85,2.62,4.26,4.06,8.72,4.06Z"/><path class="cls-1" d="M85.55,45.72a8.68,8.68,0,0,0-1.12,2.13,8.7,8.7,0,0,1,1.67-3.22A1.52,1.52,0,0,1,87.18,44c1.2,0,1.29,2,.71,4.33a9.1,9.1,0,0,1-1.79,3.76,1.6,1.6,0,0,1-1,.61,3.39,3.39,0,0,0,.52-.55A9.61,9.61,0,0,0,87,48.93c.62-2.29.37-4-.37-4C86.32,44.92,85.93,45.22,85.55,45.72Zm3.2-11.95a8.68,8.68,0,0,0-1.12,2.13,9.14,9.14,0,0,1,1.67-3.23,1.59,1.59,0,0,1,1.08-.61c.8,0,1,.86,1,1.9a11.3,11.3,0,0,1-.31,2.53,9.5,9.5,0,0,1-1.78,3.67,1.61,1.61,0,0,1-1,.62,3.32,3.32,0,0,0,.52-.54A9.6,9.6,0,0,0,90.21,37c.63-2.3.38-4.06-.37-4.06C89.52,33,89.13,33.27,88.75,33.77Zm10.22,3a9.3,9.3,0,0,1-3.63,4.44l-.07-.08A10.14,10.14,0,0,0,99,36.81ZM88.75,56.47a17.51,17.51,0,0,1-3.2.75,17,17,0,0,1-2.25.15c-6.48,0-10.71-4.06-9.38-9a11.62,11.62,0,0,1,5.77-6.67,5.6,5.6,0,0,1-1-5.08c.8-2.91,3.51-5.45,6.89-6.81h.07c-3,1.37-5.38,3.71-6.09,6.34a5.28,5.28,0,0,0,1.18,5.08c-2.57,1.47-5.12,3.62-6,6.68-1.24,4.64,2.69,8.54,9.08,8.57a17,17,0,0,0,2.25-.16,17.76,17.76,0,0,0,3.2-.77c3.79-1.31,6.92-3.9,8.12-6.91C96.4,52.09,93,55.05,88.75,56.47Z"/><path class="cls-1" d="M86.86,51.89a9.15,9.15,0,0,0,1.8-3.77c.57-2.24.48-4.34-.7-4.34a1.63,1.63,0,0,0-1.1.61,9.55,9.55,0,0,0-1.8,3.67,11.41,11.41,0,0,0-.33,2.54c0,1,.24,1.89,1,1.9A1.6,1.6,0,0,0,86.86,51.89Zm3.22-19.45a9.59,9.59,0,0,0-1.8,3.68A10.85,10.85,0,0,0,88,38.66c0,1,.23,1.89,1,1.89a1.6,1.6,0,0,0,1.12-.61,9.23,9.23,0,0,0,1.78-3.67,10.87,10.87,0,0,0,.35-2.54c0-1-.24-1.9-1-1.9A1.6,1.6,0,0,0,90.08,32.44Zm-3.2-3.1a14.24,14.24,0,0,1,3.2-.9,12.36,12.36,0,0,1,2.19-.17c5.49,0,8.83,3.45,7.74,7.54a9.56,9.56,0,0,1-4,5.14c2.11,1.74,3.15,3.86,2.4,6.64-.9,3.36-4.24,6.3-8.37,7.72a16.77,16.77,0,0,1-3.2.77,15.28,15.28,0,0,1-2.25.15c-6.37,0-10.31-3.92-9.06-8.57.81-3,3.36-5.21,6-6.67a5.25,5.25,0,0,1-1.2-5.08c.72-2.79,3.29-5.23,6.54-6.57Z"/><path class="cls-1" d="M96.94,23.07c-.38.36-.65.62-.78.73l-2.5,2.44-.27.27h-.07a1.17,1.17,0,0,1-.6-.34.81.81,0,0,1-.19-.18l-.44.16a6.8,6.8,0,0,1-2,.46,1.52,1.52,0,0,1-.42-.06c-.15-.05-1-.71-.88-1.37a3.2,3.2,0,0,1,.33-.91,6,6,0,0,1,1.12-1.34,7,7,0,0,1,1.23-.86c.46-.22,1.59-.68,2-.26a1.36,1.36,0,0,1,.51.92c.06.62-.09.85-.62,1.25a3.25,3.25,0,0,1-1.57.51,7.48,7.48,0,0,1-1.16-.12,2.61,2.61,0,0,0-.38.89h.07A7.42,7.42,0,0,0,91.8,25a5.8,5.8,0,0,0,2-.8s1.94-1.66,2.43-2.11a1.6,1.6,0,0,1,.32-.81c.43-.56,1.35.31,1.27.81l.23.2c.4.31.76.68.76,1a1.5,1.5,0,0,1-.62.92l-.74.65c-.16.18-.36.37-.53.57.5-.26,1.28-.78,1.43-.87s.41-.24.83-.51a1.79,1.79,0,0,1,.72-.38.7.7,0,0,1,.39.15.42.42,0,0,1,.15.5,4.89,4.89,0,0,1-.92.84,10.06,10.06,0,0,1-1.24.9,3.58,3.58,0,0,1-1.63.65,1.82,1.82,0,0,1-1-.58c-.16-.23-.28-.37-.16-.7a10.32,10.32,0,0,1,.85-1c.33-.37.7-.69,1-1l-.11-.1-.14-.13v-.05Zm-5-.12a1.69,1.69,0,0,0-.59.6h.37a1.51,1.51,0,0,0,.83-.18c.18-.08.47-.27.5-.54s-.12-.23-.28-.23a.48.48,0,0,0-.17,0,.7.7,0,0,0-.37.14ZM87,21.86a1.63,1.63,0,0,1,.68-.14,2,2,0,0,1,1.11.48,1.27,1.27,0,0,1,.39,1,3.21,3.21,0,0,1-.49,1,5.48,5.48,0,0,1-1.2,1.25,6.9,6.9,0,0,1-1.28.81,4.18,4.18,0,0,1-1.47.4,1.39,1.39,0,0,1-.6-.17,1,1,0,0,1-.34-.32l-.32.45C82.22,28.42,81,30.27,79.74,32c-.14.21-.73,1-1,1s-1.07-.42-1.07-.7h0c0-.26,2.55-3.74,4.48-6.34a24.9,24.9,0,0,1,3.61-4.26.81.81,0,0,1,.52-.13A.7.7,0,0,1,87,21.86Zm-2.21,3.69h.11a1.29,1.29,0,0,0,.39-.08A4.92,4.92,0,0,0,87,24.23a2.91,2.91,0,0,0,.65-1.37c0-.11,0-.16-.07-.17-.6,0-.93.24-1.68.85A4.68,4.68,0,0,0,84.82,25a.55.55,0,0,0,0,.5ZM73.28,23.46c-.25.35-.5.7-.74,1A3.42,3.42,0,0,0,71.8,26v0a.65.65,0,0,0,.31.06,3.26,3.26,0,0,0,1.82-.66,5.1,5.1,0,0,0,1.41-1.29,1.4,1.4,0,0,0,.32-.57c0-.31-.21-.73-.87-1.28a2.67,2.67,0,0,1-1.2-2,3.63,3.63,0,0,1,1.82-2.89,7.68,7.68,0,0,1,4.2-1.62c1.11,0,1.92.5,1.91,1.61a5.69,5.69,0,0,1-1.4,3.05l-.46.54c-.37.31-1.65.63-1.65-.22a.52.52,0,0,1,.17-.38,8.24,8.24,0,0,0,1-1.48,3.32,3.32,0,0,0,.57-1.45c0-.2-.2-.18-.37-.18a5.37,5.37,0,0,0-2.83,1.29c-1,.72-1.37,1.33-1.38,1.79a.6.6,0,0,0,.25.5c1.55,1.22,3,2.26,1.1,4.32a7.05,7.05,0,0,1-2,1.53,5.58,5.58,0,0,1-2.67.71c-1,0-1.78-.48-1.77-1.54a4.14,4.14,0,0,1,1.27-2.7,2.84,2.84,0,0,1,.59-.5c.42-.22,1.42-.34,1.42.4h0A.3.3,0,0,1,73.28,23.46Zm5.91,2h.15a5.86,5.86,0,0,0,1.46-1.12,14.05,14.05,0,0,0,1.86-2.21.53.53,0,0,1,.49-.22c.34,0,.78.15.72.66a4.25,4.25,0,0,1-.76,1.21A15,15,0,0,1,82,25.13a6,6,0,0,1-1.66,1.22,2.62,2.62,0,0,1-1,.34A2.36,2.36,0,0,1,78,26.24a1.68,1.68,0,0,1-.52-1,2.94,2.94,0,0,1,.42-1.06,6.36,6.36,0,0,1,1.24-1.45,13.47,13.47,0,0,1,1.09-.91.88.88,0,0,1,.23,0,1.38,1.38,0,0,1,.6.16c.16.07.45.22.45.53a.47.47,0,0,1-.22.37,6.13,6.13,0,0,0-1.36,1.33A4,4,0,0,0,79.19,25.44Z"/></svg>