<svg id="Layer_1" data-name="Layer 1" xmlns="http://www.w3.org/2000/svg" width="170" height="70" viewBox="0 0 170 70">
  <defs>
    <style>
      .cls-1 {
        fill: #fff;
      }
    </style>
  </defs>
  <title>footer</title>
  <g>
    <g>
      <g>
        <polygon class="cls-1" points="86.52 25.186 84.853 20.087 83.186 25.186 77.792 25.186 82.107 28.422 80.44 33.619 84.853 30.383 89.266 33.619 87.599 28.422 91.913 25.186 86.52 25.186"/>
        <polygon class="cls-1" points="97.797 29.207 96.816 26.461 95.934 29.207 93.09 29.207 95.444 30.874 94.561 33.619 96.816 31.854 99.17 33.619 98.287 30.874 100.641 29.207 97.797 29.207"/>
        <polygon class="cls-1" points="73.772 29.207 72.889 26.461 71.909 29.207 69.065 29.207 71.418 30.874 70.536 33.619 72.889 31.854 75.145 33.619 74.262 30.874 76.616 29.207 73.772 29.207"/>
      </g>
      <g>
        <polygon class="cls-1" points="86.52 25.186 84.853 20.087 83.186 25.186 77.792 25.186 82.107 28.422 80.44 33.619 84.853 30.383 89.266 33.619 87.599 28.422 91.913 25.186 86.52 25.186"/>
        <polygon class="cls-1" points="97.797 29.207 96.816 26.461 95.934 29.207 93.09 29.207 95.444 30.874 94.561 33.619 96.816 31.854 99.17 33.619 98.287 30.874 100.641 29.207 97.797 29.207"/>
        <polygon class="cls-1" points="73.772 29.207 72.889 26.461 71.909 29.207 69.065 29.207 71.418 30.874 70.536 33.619 72.889 31.854 75.145 33.619 74.262 30.874 76.616 29.207 73.772 29.207"/>
      </g>
    </g>
    <g>
      <path class="cls-1" d="M90.14823,37.73787a1.44839,1.44839,0,0,1,1.569,1.37286,1.51568,1.51568,0,0,1-1.37286,1.569h-.19612a1.42821,1.42821,0,0,1-1.569-1.2748V39.2088a1.44413,1.44413,0,0,1,1.47092-1.47093Z"/>
      <path class="cls-1" d="M101.32725,37.83593v.29419a1.13477,1.13477,0,0,1,.68643.49031.36024.36024,0,0,1,.09806.29418h0v9.512a.93359.93359,0,0,1-.19612.68644.99258.99258,0,0,1-.68643.39224v.19612h5.00114V49.4072a1.13477,1.13477,0,0,1-.68643-.49031,1.41731,1.41731,0,0,1-.19612-.68643V39.11074h0a.93359.93359,0,0,1,.19612-.68644.979.979,0,0,1,.49031-.39224c.09806,0,.09806-.09806.19612-.09806v-.29419Z"/>
      <path class="cls-1" d="M86.52,41.36615a2.343,2.343,0,0,0-1.37287.49031,6.78161,6.78161,0,0,0-.98061,1.86317l-.09806.29418V41.56227H80.244v.29419a1.72156,1.72156,0,0,1,.4903.39224.82742.82742,0,0,1,.19612.68644v5.49144a1.41736,1.41736,0,0,1-.19612.68644.979.979,0,0,1-.4903.39224v.19612h5.00113V49.4072a4.098,4.098,0,0,1-.98061-.39225.60635.60635,0,0,1-.19612-.68643V44.308h.09806a5.73868,5.73868,0,0,1,1.2748-.19613,4.77431,4.77431,0,0,1,1.17674.09806l.78449-2.74572C87.10832,41.46421,86.81413,41.36615,86.52,41.36615Z"/>
      <path class="cls-1" d="M79.45952,44.50412c0-2.35348-1.86317-3.138-3.53022-3.138A4.50728,4.50728,0,0,0,72.39909,42.739a4.152,4.152,0,0,0-1.17674,2.94185c0,2.74572,1.667,4.21665,4.41277,4.21665h.19612a3.85638,3.85638,0,0,0,3.3341-2.15736v-.09806l-.19612-.19612a4.29807,4.29807,0,0,1-1.86317.68643,2.55521,2.55521,0,0,1-2.64767-2.5496v-.19612h4.90308A2.17667,2.17667,0,0,0,79.45952,44.50412Zm-2.84379.39225h0l-2.05929.29418h-.09806v-.09806c0-2.15736.39225-3.03991,1.37286-3.03991.49031,0,.98062.29418.98062,1.47092A9.14334,9.14334,0,0,1,76.61573,44.89637Z"/>
      <path class="cls-1" d="M116.52679,49.015a.60635.60635,0,0,1-.19612-.68643V43.62157a2.93759,2.93759,0,0,0-.58837-1.76511,2.66282,2.66282,0,0,0-1.667-.58837,2.36316,2.36316,0,0,0-1.76511.68643l-1.2748,1.07868v-1.569h-3.92247v.39225a2.05143,2.05143,0,0,1,.58837.39224.84762.84762,0,0,1,.29419.58837v5.49145a1.41731,1.41731,0,0,1-.19612.68643,1.72146,1.72146,0,0,1-.49031.39225v.29418h4.707V49.4072h0c-.19612-.09806-.39225-.29418-.58837-.39225a.60635.60635,0,0,1-.19612-.68643V43.62157h0c.09806,0,.7845-.68644,1.2748-.68644.19612,0,.29419,0,.39225.09807.09806,0,.09806.09806.19612.19612s.09806.09806.09806.19612,0,.09807.09806.19613c0,.09806.09806.29418.09806.39224v4.31471a1.41736,1.41736,0,0,1-.19612.68644c-.09806.19612-.29419.29418-.39225.39224v.29418h4.6089V49.4072C116.821,49.4072,116.62485,49.21108,116.52679,49.015Z"/>
      <path class="cls-1" d="M127.11744,49.015a.60635.60635,0,0,1-.19612-.68643V43.62157a2.93759,2.93759,0,0,0-.58837-1.76511,2.66286,2.66286,0,0,0-1.667-.58837,2.36319,2.36319,0,0,0-1.76512.68643L121.626,43.0332v-1.569h-3.92246v.39225a2.05143,2.05143,0,0,1,.58837.39224.8476.8476,0,0,1,.29418.58837v5.49145a1.41731,1.41731,0,0,1-.19612.68643,1.72143,1.72143,0,0,1-.4903.39225v.29418h4.707V49.4072h0c-.19612-.09806-.39224-.29418-.58836-.39225a.60635.60635,0,0,1-.19612-.68643V43.62157h0c.09806,0,.78449-.68644,1.2748-.68644.19612,0,.29419,0,.39225.09807.09806,0,.09806.09806.19612.19612s.09806.09806.09806.19612,0,.09807.09806.19613c0,.09806.09806.29418.09806.39224v4.31471a1.41736,1.41736,0,0,1-.19612.68644c-.09806.19612-.29419.29418-.39225.39224v.29418H128V49.4072C127.41162,49.4072,127.2155,49.21108,127.11744,49.015Z"/>
      <path class="cls-1" d="M99.95439,44.11187c-.49031-1.7651-1.17674-2.05929-1.86318-2.05929-.88255,0-1.86317.68643-1.86317,2.84379,0,1.86317.98062,3.236,2.64766,3.236a3.34394,3.34394,0,0,0,1.86317-.68644l.19612.19613a3.635,3.635,0,0,1-3.62827,2.25541,3.93356,3.93356,0,0,1-4.21665-3.53021v-.68643c0-2.15736,1.569-4.31471,4.90308-4.31471a7.92564,7.92564,0,0,1,2.64766.49031l-.49031,2.15735Z"/>
      <path class="cls-1" d="M92.0114,49.015a1.41731,1.41731,0,0,1-.19612-.68643V41.56227H88.08894v.29419a.76564.76564,0,0,1,.39225.39224,1.41736,1.41736,0,0,1,.19612.68644v5.49144a.93359.93359,0,0,1-.19612.68644.99258.99258,0,0,1-.68643.39224v.19612h4.90307V49.4072A.99254.99254,0,0,1,92.0114,49.015Z"/>
      <path class="cls-1" d="M54.45382,48.42658,50.4333,37.83594H47.00114l.29418.78449h0s-2.15735,5.68757-3.138,8.13911a12.76474,12.76474,0,0,1-.78449,1.667A2.02745,2.02745,0,0,1,42,49.4072v.29418h3.92246V49.4072c-1.07867-.19612-1.2748-.39225-.4903-2.5496l.4903-1.37286H49.943l1.07867,2.84378a.88407.88407,0,0,1,.09806.49031c0,.29419-.09806.39225-.68643.58837v.29418h4.707V49.4072A1.36168,1.36168,0,0,1,54.45382,48.42658Zm-8.23718-3.72634,1.569-4.70695,1.76511,4.70695Z"/>
      <path class="cls-1" d="M70.33979,49.015a.60636.60636,0,0,1-.19612-.68643V43.62157a2.93765,2.93765,0,0,0-.58837-1.76511,2.66287,2.66287,0,0,0-1.66705-.58837,2.36313,2.36313,0,0,0-1.7651.68643l-1.2748,1.17674v-.19612A2.33755,2.33755,0,0,0,64.26,41.85646a2.66287,2.66287,0,0,0-1.667-.58837,2.36316,2.36316,0,0,0-1.76511.68643L59.553,43.13126v-1.569H55.63056v.29419a2.05143,2.05143,0,0,1,.58837.39224.82742.82742,0,0,1,.19612.68644v5.49144a1.41736,1.41736,0,0,1-.19612.68644,1.72145,1.72145,0,0,1-.49031.39224v.19612h4.707V49.4072h0c-.19613-.09806-.39225-.29418-.58837-.39225a.60635.60635,0,0,1-.19613-.68643V43.62157a3.22941,3.22941,0,0,1,1.2748-.68644c.19613,0,.29419,0,.39225.09807.09806,0,.09806.09806.19613.19612s.09806.09806.09806.19612,0,.09807.09806.19613c0,.09806.09806.29418.09806.39224v4.31471a1.41725,1.41725,0,0,1-.19613.68644c-.09806.19612-.29418.29418-.39225.39224v.29418H65.829V49.4072c-.19613-.09806-.39225-.29418-.58837-.39225a.60636.60636,0,0,1-.19612-.68643V43.62157c.09806,0,.78449-.68644,1.2748-.68644.19612,0,.29418,0,.39224.09807.09806,0,.09806.09806.19613.19612s.09806.09806.09806.19612,0,.09807.09806.19613c0,.09806.09806.29418.09806.39224v4.31471a1.41725,1.41725,0,0,1-.19613.68644c-.09806.19612-.29418.29418-.39224.39224v.29418h4.60889V49.4072C70.634,49.30914,70.43785,49.21108,70.33979,49.015Z"/>
    </g>
  </g>
</svg>
