<svg id="Layer_1" data-name="Layer 1" xmlns="http://www.w3.org/2000/svg" viewBox="0 0 170 70"><defs><style>.cls-1{fill:#fff}</style></defs><path class="cls-1" d="M56.41 56.73h.83L59.06 61h-.94l-.4-1h-1.83l-.39 1h-.91zm1 2.51l-.59-1.44-.6 1.44zm3.36-2.48h.89v3.42h2.13V61h-3zm4.78 0h.89v3.42h2.13V61h-3zm4.56 1.94H72v.85h-1.89zm3.76-1.94h.89V61h-.89zm3.01 0h.82l2 2.67v-2.67h.88V61h-.76l-2.1-2.76V61h-.88zm5.62 2.13a2.15 2.15 0 0 1 2.21-2.19 2.2 2.2 0 0 1 1.67.65l-.57.66a1.6 1.6 0 0 0-1.11-.49 1.29 1.29 0 0 0-1.26 1.36 1.3 1.3 0 0 0 1.26 1.37 1.56 1.56 0 0 0 1.14-.51l.57.58a2.19 2.19 0 0 1-1.74.75 2.14 2.14 0 0 1-2.17-2.18zm5.7-2.13h.89v3.42h2.13V61h-3zm4.71 2.43v-2.43h.89v2.4c0 .71.36 1.08.94 1.08s1-.35 1-1.05v-2.43h.89v2.39a1.7 1.7 0 0 1-1.85 1.91 1.67 1.67 0 0 1-1.87-1.87zm5.39 1.19l.52-.63a2 2 0 0 0 1.28.52c.4 0 .64-.17.64-.43 0-.25-.15-.38-.87-.56-.87-.22-1.41-.46-1.41-1.3a1.32 1.32 0 0 1 1.48-1.26 2.43 2.43 0 0 1 1.56.53l-.47.68a1.9 1.9 0 0 0-1.11-.42c-.37 0-.57.18-.57.39 0 .29.19.39.93.59s1.35.53 1.35 1.26c0 .84-.64 1.31-1.54 1.31a2.62 2.62 0 0 1-1.79-.68zm5.24-3.62h.89V61h-.89zm2.64 0h1l1.14 3 1.14-3h1L108.69 61h-.79zm5.94 0h3.18v.8H113v.9h2v.8h-2v.94h2.33v.8h-3.21zM97.18 9h.64l.6 2 .64-2h.51l.65 2 .6-2h.62l-1 2.85H100l-.65-1.89-.65 1.89h-.52zm5.48 1.66L101.57 9h.7l.69 1.16.71-1.16h.68l-1.1 1.7v1.13h-.59zM104.77 9h.55l1.36 1.78V9h.59v2.83h-.51l-1.4-1.84v1.84h-.59zM108 9h1.08a1.41 1.41 0 0 1 1.5 1.41 1.41 1.41 0 0 1-1.5 1.42H108zm.59.54v1.75h.49a.83.83 0 0 0 .88-.87.83.83 0 0 0-.88-.87zm2.57-.54h.6v1.13h1.18V9h.6v2.83h-.6v-1.2h-1.18v1.15h-.6zm4.06-.07h.55l1.23 2.85h-.63l-.26-.65h-1.22l-.26.65H114zm.67 1.67l-.4-.95-.4.95zm1.57-1.6h.64l.77 1.22.76-1.22h.64v2.83h-.59V9.89l-.81 1.24-.87-1.22v1.87h-.58zM106.7 43.48c-9.15 5-16.33 5.89-20.77 2.62-3.47-2.55-4.62-7.24-4.32-11.14a54.31 54.31 0 0 0 4-6.56 57 57 0 0 0 4.21-10.26c1-3.67 1-5.93-.12-6.91a1.64 1.64 0 0 0-1.67-.37c-1.07.38-2.78 2-5.28 11.76C81.44 27.84 80.5 33 80.5 33a13.71 13.71 0 0 0-.22 1.43c-2.09 2.74-3.81 4-4.76 3.78s-1.47-1.42-.88-5.91v-.39c4.87-5.88 7.19-13.51 6.78-16.84-.17-1.37-.77-1.87-1.24-2a1.84 1.84 0 0 0-1.64.15c-2.07 1.24-3.72 7-5.2 18.16a23.17 23.17 0 0 1-3.5 3.36c-.13-1.5-.2-2.86-.25-4a89.88 89.88 0 0 1 .11-10.8c1.06-2.83.77-3.24.61-3.47a.81.81 0 0 0-.78-.34.88.88 0 0 0-.6.48 10.84 10.84 0 0 0-.55 3c-1.14 3-3.77 8.74-9.18 18.67a20.8 20.8 0 0 1-8.5-2.38.68.68 0 1 0-.61 1.22 22.27 22.27 0 0 0 8.41 2.48c-1.14 2.07-2.39 4.31-3.77 6.73a.69.69 0 1 0 1.19.68q2.3-4 4.12-7.36a17.28 17.28 0 0 0 8.7-2.49C69.24 42 70.19 47.6 72 52a.68.68 0 0 0 .63.42.75.75 0 0 0 .26-.05.69.69 0 0 0 .37-.9C71.43 47 70.5 41.15 70 36.32a23.38 23.38 0 0 0 3.08-2.63c-.29 3.2.07 5.28 2 5.87 1.56.38 3.35-1 5-2.84a16.34 16.34 0 0 0 .57 3.83 11.33 11.33 0 0 0 11.58 8.83c5 0 10.58-2.3 15-4.71a.69.69 0 0 0 .28-.93.68.68 0 0 0-.81-.26zM84.11 23c2.42-9.43 4-10.65 4.4-10.79h.08a.41.41 0 0 1 .23.12c.48.43.66 2.1-.29 5.51a55.5 55.5 0 0 1-4.11 10c-.78 1.49-1.55 2.83-2.29 4 .37-1.97 1.08-5.41 1.98-8.84zm-7.82-.8c1.28-6 2.43-7.43 3-7.77a.48.48 0 0 1 .27-.09.59.59 0 0 1 .17 0c.1 0 .29.28.37.94.33 2.68-1.43 8.7-5 13.9.26-2.05.67-4.6 1.19-7.03zM60.78 38.28c3.56-6.55 5.74-11 7-13.79.13-.29.26-.58.39-.85-.06 2.19 0 4.68.07 7.17.06 1.34.16 3 .32 4.83a15.92 15.92 0 0 1-7.78 2.64z"/><path class="cls-1" d="M120.11 35.2a.68.68 0 0 0-1-.07c-4.4 3.78-6 3.23-6.36 3-.69-.47-1-2-.3-5.07.07-.2.13-.41.2-.63a.65.65 0 0 0 0-.24c.2-.68.43-1.44.73-2.26a.68.68 0 0 0-1.29-.46l-.09.26a4.58 4.58 0 0 0-4 0 6.4 6.4 0 0 0-2.64 2.89.64.64 0 0 0-.08.14 21.67 21.67 0 0 1-1.82 3.24c-.7 1-2 2.68-3.07 2.23-.83-.36-.28-2.54.17-4.29.17-.68.35-1.38.47-2a3.31 3.31 0 0 0 0-1.95c-.47-.91-.95-.9-2.19-1.18h-.38l-.09-.37a4.52 4.52 0 0 0-.21-.71c-.34-.81-.76-.89-1.09-.88a.94.94 0 0 0-.73.34A1.36 1.36 0 0 0 96 28a1.6 1.6 0 0 0 .36 1.16 37.87 37.87 0 0 1-1.72 4.68c-1.43 3.11-2.89 4.68-4.14 4.42a1.07 1.07 0 0 1-.71-.64c-1-2.11.6-7.7 2.47-12.73l.89-.08c4-.31 11.77-1 13.5-1.21a.74.74 0 0 0 .56-.43.78.78 0 0 0 0-.65.54.54 0 0 0-.57-.28c-5.7.69-7.47.87-13.21 1.23h-.65c1-2.57 2-4.89 2.7-6.36a.68.68 0 1 0-1.24-.58s-1.48 3.15-3 7a4.23 4.23 0 0 0-.88.14.74.74 0 0 0-.43.47.75.75 0 0 0 0 .59.54.54 0 0 0 .55.27h.17c-.06.15-.12.3-.17.46-2.33 6.52-3 10.68-2 12.73a2.43 2.43 0 0 0 1.62 1.39 2.93 2.93 0 0 0 .58.06c3.5 0 6-6.94 6.8-9.77l.94.17.61.08c.75.06.55.71.48 1.23s-.25 1.5-.71 3.44c-.47 2.06-.67 4 .91 4.67a2.29 2.29 0 0 0 .91.19c1.23 0 2.4-1 3.37-2.25a2.26 2.26 0 0 0 1 2 2.22 2.22 0 0 0 1.12.28 5.79 5.79 0 0 0 4-2.21 4.78 4.78 0 0 0 .51-.67 3.25 3.25 0 0 0 1.38 2.42 2.62 2.62 0 0 0 1.52.45c1.62 0 3.8-1.17 6.51-3.5a.69.69 0 0 0 .08-.97zm-10.88 1.32c-1 1.31-2.75 2-3.36 1.63s-.62-1.81.78-5a.76.76 0 0 0 0-.11 4.94 4.94 0 0 1 2-2.18 3.34 3.34 0 0 1 3 .11c-.18.59-.34 1.14-.46 1.67a11.35 11.35 0 0 1-1.96 3.88z"/></svg>