<svg id="Layer_1" data-name="Layer 1" xmlns="http://www.w3.org/2000/svg" viewBox="0 0 170 70"><defs><style>.cls-1{fill:#fff;}</style></defs><title>microtel</title><path class="cls-1" d="M77.68,22.92c1.37.24,2.11.77,3.18,2.43,1.2,1.84,2.87,4.42,3,4.56s.21.22.31.22.17,0,.31-.22,1.77-2.72,3-4.57c1.07-1.66,1.82-2.19,3.18-2.42.4-.07.69-.25.69-.63,0-.75-1.48-2-3.27-2a.71.71,0,0,1-.74-.47,3.54,3.54,0,0,0-4.78-1.47,3.61,3.61,0,0,0-1.48,1.47.71.71,0,0,1-.74.47c-1.78,0-3.28,1.28-3.28,2,0,.38.29.56.7.63Z"/><path class="cls-1" d="M93.76,23.69c2.31,0,3.15,1.2,3.15,1.7,0,.2-.1.37-.46.37A4,4,0,0,0,93,28l-1.14,1.81H86.69l2-3.12a5.85,5.85,0,0,1,5.06-3Zm.32,6.16h5.2a1.79,1.79,0,0,1,1.47-.69c.43,0,.53-.24.53-.45,0-.63-1-1.57-2.83-1.57A5,5,0,0,0,94.08,29.85ZM71.8,25.76A4,4,0,0,1,75.3,28l1.13,1.81h5.14c-.76-1.16-1.61-2.52-2-3.12a5.88,5.88,0,0,0-5.07-3c-2.32,0-3.15,1.2-3.15,1.7,0,.2.11.37.45.37ZM69,29.85h5.19a5,5,0,0,0-4.37-2.71c-1.83,0-2.83.94-2.83,1.57,0,.21.09.45.52.45A1.83,1.83,0,0,1,69,29.85Z"/><polygon class="cls-1" points="46.5 32.7 48.42 32.7 51.52 37.54 54.64 32.7 56.56 32.7 56.56 42.93 54.76 42.93 54.76 35.6 51.52 40.42 51.48 40.42 48.27 35.62 48.27 42.93 46.5 42.93 46.5 32.7 46.5 32.7"/><polygon class="cls-1" points="46.5 32.7 48.42 32.7 51.52 37.54 54.64 32.7 56.56 32.7 56.56 42.93 54.76 42.93 54.76 35.6 51.52 40.42 51.48 40.42 48.27 35.62 48.27 42.93 46.5 42.93 46.5 32.7 46.5 32.7"/><polygon class="cls-1" points="59.3 32.7 61.09 32.7 61.09 42.93 59.3 42.93 59.3 32.7 59.3 32.7"/><polygon class="cls-1" points="59.3 32.7 61.09 32.7 61.09 42.93 59.3 42.93 59.3 32.7 59.3 32.7"/><path class="cls-1" d="M63.37,37.85h0a5.19,5.19,0,0,1,5.08-5.3h.2a5.33,5.33,0,0,1,4,1.6l-1.15,1.33a4,4,0,0,0-2.86-1.27,3.43,3.43,0,0,0-3.38,3.49v.12h0a3.46,3.46,0,0,0,3.27,3.63h.11a4,4,0,0,0,2.93-1.33l1.16,1.17a5.27,5.27,0,0,1-4.15,1.82A5.15,5.15,0,0,1,63.36,38v-.18Z"/><path class="cls-1" d="M63.37,37.85h0a5.19,5.19,0,0,1,5.08-5.3h.2a5.33,5.33,0,0,1,4,1.6l-1.15,1.33a4,4,0,0,0-2.86-1.27,3.43,3.43,0,0,0-3.38,3.49v.12h0a3.46,3.46,0,0,0,3.27,3.63h.11a4,4,0,0,0,2.93-1.33l1.16,1.17a5.27,5.27,0,0,1-4.15,1.82A5.15,5.15,0,0,1,63.36,38v-.18Z"/><path class="cls-1" d="M74.61,32.7h4.57a4.08,4.08,0,0,1,3,1A3.11,3.11,0,0,1,83,36h0a3.06,3.06,0,0,1-2.44,3.09L83.29,43H81.17L78.66,39.4H76.41V43h-1.8ZM79,37.78c1.27,0,2.09-.68,2.09-1.71h0c0-1.1-.79-1.7-2.11-1.7H76.41v3.41Z"/><path class="cls-1" d="M74.61,32.7h4.57a4.08,4.08,0,0,1,3,1A3.11,3.11,0,0,1,83,36h0a3.06,3.06,0,0,1-2.44,3.09L83.29,43H81.17L78.66,39.4H76.41V43h-1.8ZM79,37.78c1.27,0,2.09-.68,2.09-1.71h0c0-1.1-.79-1.7-2.11-1.7H76.41v3.41Z"/><path class="cls-1" d="M84.73,37.85h0a5.35,5.35,0,0,1,10.7,0h0a5.36,5.36,0,0,1-10.7,0Zm8.81,0h0a3.51,3.51,0,0,0-3.37-3.64h-.11a3.44,3.44,0,0,0-3.44,3.46v.15h0A3.51,3.51,0,0,0,90,41.45h.1A3.45,3.45,0,0,0,93.54,38Z"/><path class="cls-1" d="M84.73,37.85h0a5.35,5.35,0,0,1,10.7,0h0a5.36,5.36,0,0,1-10.7,0Zm8.81,0h0a3.51,3.51,0,0,0-3.37-3.64h-.11a3.44,3.44,0,0,0-3.44,3.46v.15h0A3.51,3.51,0,0,0,90,41.45h.1A3.45,3.45,0,0,0,93.54,38Z"/><polygon class="cls-1" points="99.56 34.37 96.32 34.37 96.32 32.7 104.62 32.7 104.62 34.37 101.38 34.37 101.38 42.93 99.56 42.93 99.56 34.37 99.56 34.37"/><polygon class="cls-1" points="99.56 34.37 96.32 34.37 96.32 32.7 104.62 32.7 104.62 34.37 101.38 34.37 101.38 42.93 99.56 42.93 99.56 34.37 99.56 34.37"/><polygon class="cls-1" points="106.53 32.7 114.11 32.7 114.11 34.31 108.33 34.31 108.33 36.97 113.45 36.97 113.45 38.58 108.33 38.58 108.33 41.32 114.19 41.32 114.19 42.93 106.53 42.93 106.53 32.7 106.53 32.7"/><polygon class="cls-1" points="106.53 32.7 114.11 32.7 114.11 34.31 108.33 34.31 108.33 36.97 113.45 36.97 113.45 38.58 108.33 38.58 108.33 41.32 114.19 41.32 114.19 42.93 106.53 42.93 106.53 32.7 106.53 32.7"/><polygon class="cls-1" points="116.32 32.7 118.12 32.7 118.12 41.29 123.5 41.29 123.5 42.93 116.32 42.93 116.32 32.7 116.32 32.7"/><polygon class="cls-1" points="116.32 32.7 118.12 32.7 118.12 41.29 123.5 41.29 123.5 42.93 116.32 42.93 116.32 32.7 116.32 32.7"/><polygon class="cls-1" points="64 49.98 61.99 46.87 63.15 46.87 64.5 49.05 65.85 46.87 67 46.87 65 49.95 65 52.03 64 52.03 64 49.98 64 49.98"/><path class="cls-1" d="M103.34,46.82h-.89L100.15,52h1l.52-1.22H104l.51,1.23h1.08l-2.3-5.21Zm.33,3.08h-1.58l.79-1.84Z"/><path class="cls-1" d="M91.41,46.86H89.48V52h1.93a2.59,2.59,0,1,0,0-5.17m0,4.24h-.94V47.78h.94a1.67,1.67,0,1,1,.26,3.32h-.26"/><polygon class="cls-1" points="80.61 48.9 79.37 46.87 78.19 46.87 80.11 49.89 80.11 52.03 81.1 52.03 81.1 49.87 83.02 46.86 81.87 46.87 80.61 48.9 80.61 48.9"/><polygon class="cls-1" points="76.28 52.06 77.8 46.87 76.75 46.87 75.79 50.4 74.69 46.85 73.73 46.85 72.61 50.39 71.65 46.87 70.58 46.87 72.13 52.06 73.01 52.06 74.18 48.38 75.37 52.06 76.28 52.06 76.28 52.06"/><polygon class="cls-1" points="87.15 50.25 84.51 46.86 83.6 46.86 83.61 52.03 84.59 52.03 84.59 48.52 87.3 52.03 88.13 52.03 88.13 46.86 87.15 46.86 87.15 50.25 87.15 50.25"/><polygon class="cls-1" points="99.44 52.03 99.44 46.86 98.45 46.86 98.45 48.96 96.14 48.96 96.14 46.86 95.14 46.86 95.14 52.03 96.14 52.03 96.14 49.89 98.45 49.89 98.45 52.03 99.44 52.03 99.44 52.03"/><polygon class="cls-1" points="108.78 49.2 107.27 46.86 106.24 46.86 106.24 52.03 107.22 52.03 107.22 48.52 108.72 50.78 108.81 50.78 110.33 48.51 110.33 52.03 111.32 52.03 111.32 46.86 110.29 46.86 108.78 49.2 108.78 49.2"/><path class="cls-1" d="M61.64,48.17a1.24,1.24,0,0,1-.73,1.16,1.26,1.26,0,0,1,1,1.26c0,.92-.75,1.44-1.89,1.44H57.64V46.87H60c1.16,0,1.69.61,1.69,1.3m-1,.19c0-.33-.25-.61-.85-.61H58.64V49h1.12c.58,0,.85-.26.85-.62m.29,2.15c0-.36-.23-.64-.94-.64H58.64v1.26H60c.68,0,.94-.25.94-.62"/></svg>