<svg id="Layer_1" data-name="Layer 1" xmlns="http://www.w3.org/2000/svg" viewBox="0 0 170 70"><defs><style>.cls-1{fill:#fff;}</style></defs><title>footer</title><path class="cls-1" d="M52.6,49.74c0,.9,0,1.39.15,1.52s.31.16.85.16c.38,0,.65,0,.81-.2a.85.85,0,0,0,.19-.43c0-.06,0-.1.07-.1s.06,0,.06.12a5.47,5.47,0,0,1-.1.81c0,.15-.07.19-.44.19-1,0-1.48,0-2.06,0h-.89c-.09,0-.14,0-.14-.07s0-.06.11-.06h.26c.14,0,.17-.19.2-.4s0-.85,0-1.5V47a.35.35,0,0,0-.31-.4h-.23c-.08,0-.12,0-.12-.06s0-.06.15-.06h1.93c.1,0,.15,0,.15.06s0,.06-.13.06h-.27c-.19,0-.25.16-.26.4s0,.43,0,1.5Z"/><path class="cls-1" d="M57.27,49.93a.07.07,0,0,0-.06.06l-.39,1a1.23,1.23,0,0,0-.1.43c0,.13.06.22.28.22h.1c.09,0,.1,0,.1.06s0,.07-.11.07H55.54c-.09,0-.14,0-.14-.07s0-.06.09-.06h.22c.33,0,.46-.28.6-.63l1.77-4.44c.08-.21.13-.28.19-.28s.1.06.18.23c.17.39,1.31,3.27,1.76,4.35.27.64.48.73.62.81h.3c.06,0,.09,0,.09.06s-.06.07-.32.07H59.56c-.13,0-.21,0-.21-.06s0-.06.1-.06a.11.11,0,0,0,.07-.14v0L58.95,50a.08.08,0,0,0-.07,0Zm1.44-.35h0l-.64-1.75v-.06l0,.06-.64,1.74v0Z"/><path class="cls-1" d="M69.69,51.63a6.88,6.88,0,0,1-2.14.35A5.2,5.2,0,0,1,62,46.59a5.26,5.26,0,0,1,5.26-5.26h.31c3.22,0,5.5,2,5.5,5.14a5.46,5.46,0,0,1-2.36,4.47l2.73,1.39A12.09,12.09,0,0,0,79.05,54a7.63,7.63,0,0,0,2.63-.47.81.81,0,0,1,.2-.07.12.12,0,0,1,.12.12h0c0,.08-.06.12-.16.16a9.9,9.9,0,0,1-4.31,1,10.44,10.44,0,0,1-5.74-1.85Zm1.52-4.78c0-3.28-2-4.84-3.91-4.84s-3.35,1.12-3.35,4.27,2,5,4.14,5C69.14,51.3,71.2,50.83,71.2,46.85Z"/><path class="cls-1" d="M76.35,46.56V44.15c0-.4-.11-.56-.48-.64a2.18,2.18,0,0,0-.44,0c-.13,0-.19,0-.19-.1s.08-.1.25-.1h3c.16,0,.24,0,.24.1s-.06.1-.18.1a1.51,1.51,0,0,0-.32,0c-.31.06-.4.24-.42.64s0,.67,0,2.42v1.56c0,1.61.33,2.31.88,2.76a2,2,0,0,0,1.39.47,2.16,2.16,0,0,0,1.54-.6c.62-.61.65-1.61.65-2.78V44.15c0-.4-.11-.56-.48-.64a2,2,0,0,0-.4,0c-.12,0-.19,0-.19-.1s.08-.1.23-.1H84c.16,0,.24,0,.24.1s-.07.1-.2.1a1.61,1.61,0,0,0-.33,0c-.3.06-.39.24-.41.64s0,.67,0,2.42v1.19a4.24,4.24,0,0,1-1.06,3.38,3.34,3.34,0,0,1-2.33.81,3.6,3.6,0,0,1-2.49-.81,3.68,3.68,0,0,1-1-3Z"/><path class="cls-1" d="M87.5,46.56V44.15c0-.4-.14-.57-.38-.63a1.71,1.71,0,0,0-.4,0c-.11,0-.19,0-.19-.11s.1-.1.27-.1h2.82c.15,0,.23,0,.23.1s-.06.11-.18.11a1.77,1.77,0,0,0-.34,0c-.3.06-.39.24-.41.64s0,.67,0,2.42v2c0,1.09,0,2,0,2.42a.48.48,0,0,0,.44.55,4.45,4.45,0,0,0,.57,0c.13,0,.18,0,.18.1s-.09.11-.21.11H86.81c-.15,0-.23,0-.23-.11s0-.1.18-.1a1.73,1.73,0,0,0,.4,0c.23,0,.3-.23.33-.56s.06-1.35.06-2.42Z"/><path class="cls-1" d="M94.32,50.26c0,.88.17,1.17.4,1.25a1.82,1.82,0,0,0,.58.07c.12,0,.19,0,.19.1s-.1.11-.26.11h-2.6c-.15,0-.24,0-.24-.11s.06-.1.18-.1a2.14,2.14,0,0,0,.5,0c.3-.1.34-.42.35-1.39l.1-6.63c0-.23,0-.38.15-.38s.23.15.41.35,1.84,2,3.47,3.6c.81.81,2.28,2.42,2.47,2.56h.06l-.11-5c0-.69-.1-.89-.38-1a1.91,1.91,0,0,0-.6-.06c-.13,0-.18,0-.18-.1s.12-.1.29-.1h2.46c.15,0,.26,0,.26.1s-.07.1-.2.1a1.3,1.3,0,0,0-.34,0c-.31.09-.4.32-.41,1l-.13,7.07c0,.25,0,.35-.15.35a.73.73,0,0,1-.38-.24c-.71-.68-2.14-2.14-3.31-3.3s-2.47-2.61-2.67-2.83h0Z"/><path class="cls-1" d="M106.67,43.94l-1.61,0c-.65,0-.92.08-1.09.32a1.42,1.42,0,0,0-.19.4.12.12,0,0,1-.12.14c-.06,0-.1-.06-.1-.19s.22-1.19.24-1.29.06-.21.13-.21a2.1,2.1,0,0,0,.48.14c.28,0,.75.06,1.12.06h4.37a4.79,4.79,0,0,0,1.07-.11c.08,0,.09.06.09.23v1.3c0,.11,0,.18-.1.18s-.11,0-.13-.22V44.6c0-.29-.32-.6-1.32-.62l-1.41,0v4.6c0,1,0,1.92.06,2.42,0,.31.1.56.44.6a4.35,4.35,0,0,0,.57,0c.12,0,.18,0,.18.1s-.09.11-.21.11H106c-.15,0-.23,0-.23-.11s0-.1.19-.1a1.83,1.83,0,0,0,.4,0c.22,0,.29-.29.32-.62s.06-1.35.06-2.42Z"/><path class="cls-1" d="M113.83,48.86c-.06,0-.08,0-.1.09l-.6,1.6a2.13,2.13,0,0,0-.17.68c0,.2.1.35.45.35h.17c.13,0,.16,0,.16.1s-.06.11-.19.11H111c-.15,0-.21,0-.21-.11s0-.1.14-.1h.35c.52-.07.73-.45,1-1l2.81-7c.14-.33.2-.45.31-.45s.17.1.27.35c.27.62,2.06,5.19,2.78,6.89.43,1,.75,1.17,1,1.23a2.5,2.5,0,0,0,.47,0c.09,0,.15,0,.15.1s-.1.11-.52.11h-2.12c-.2,0-.33,0-.33-.09s0-.1.15-.1a.19.19,0,0,0,.11-.24v0l-.9-2.42a.1.1,0,0,0-.1-.07Zm2.28-.56c.06,0,.06,0,.06-.06l-1-2.77s0-.1-.06-.1-.06.06-.06.1l-1,2.76s0,.08,0,.08Z"/><path class="cls-1" d="M85.25,17.35v8.21h.15L86.21,24Zm-4.17.73,2.8,7.67.14,0,.26-1.77-3.22-5.89Zm.69,9.43h0l.07-.12-.92-1.5-6.22-2.46h0Zm-.48,1.31a.94.94,0,0,1,0-.15h0l-1.38-1.09-6.69-.19h0l8.06,1.41Zm1.48-2.47h0l-.35-1.73-5-4.44h0l5.25,6.26Zm6.39,4h0l1.44,1.14-.06-.08,6.69.18h0l-8.06-1.41A.94.94,0,0,1,89.17,30.39Zm-2.42-4.55,1.31-1.17,1.35-6.56h0l-2.79,7.67h0l.14.06Zm4.13,3.71,6.35-2.11h0l-8.06,1.42V29Zm-3-3,1.61-.64,3.51-5.7h0l-5.24,6.26Zm.85,1.1,1.77-.09,5.24-4.16h0l-7.06,4.09a.64.64,0,0,1,.06.13Zm-3.54,5.89H85.1l-.81,1.54,1,6.58h0V33.53Zm3.47-2h0l-.07.13h0l.92,1.49,6.22,2.46h0Zm-.89,1.07-.11.09h0l.36,1.71,8.69,8.87h0Zm-1.21.69h0l-.14,0h0l-.25,1.73L89.41,41h0ZM81.3,30.25v-.14l-1.66-.56-6.35,2.11h0l8.06-1.42Zm.48,1.31-.09-.16h0l-1.76,0-5.24,4.16h0l7.06-4.08Zm.67,2.86L81.09,41h0l2.79-7.67h0l-.14,0Zm.23-1.81-.1-.1h0L81,33.16l-3.51,5.71h0l5.24-6.26Z"/><path class="cls-1" d="M84,25.71a3.91,3.91,0,0,1,1.23-.15h0V17.35Zm-1.35.74-5.25-6.26,4.43,7.2A4.19,4.19,0,0,1,82.67,26.45Zm2.72-.89a4.13,4.13,0,0,1,1.23.23l2.79-7.67Zm-1.52.23-2.8-7.71,1.7,8.28a4,4,0,0,1,1.1-.61Zm13.36,5.84-8-2.66a4.21,4.21,0,0,1,0,.56,4,4,0,0,1-.06.69ZM81.78,27.51l-7.07-4.08,6.63,5.25A4.18,4.18,0,0,1,81.78,27.51Zm7.43,1.31,8.06-1.42-8.45.24A3.93,3.93,0,0,1,89.2,28.82Zm-1.37-2.37,5.24-6.26-6.31,5.64A4,4,0,0,1,87.83,26.45Zm.89,1.06,7.06-4.09-7.85,3.11A4.19,4.19,0,0,1,88.73,27.51ZM85.26,41.68l1.26-8.34a3.88,3.88,0,0,1-1.23.19Zm1.36-8.41,2.8,7.67-1.7-8.26a3.93,3.93,0,0,1-1.1.6Zm1.21-.69,8.93,10.71L88.66,31.65a4.17,4.17,0,0,1-.82.94Zm.89-1.07,7.07,4.08-6.63-5.19a3.68,3.68,0,0,1-.44,1.13ZM81.09,41l4-7.43a3.89,3.89,0,0,1-1.23-.24Zm.69-9.43-7.06,4.08,7.85-3.11A4,4,0,0,1,81.78,31.53Zm-.48-1.31-8.06,1.42,8.44-.23A4,4,0,0,1,81.3,30.21Zm1.37,2.38-5.24,6.26,6.31-5.64A4.26,4.26,0,0,1,82.67,32.59Zm-1.43-3.07a4,4,0,0,1,.06-.7l-8.06-1.41,8,2.67A4.29,4.29,0,0,1,81.25,29.52Z"/></svg>