<?xml version="1.0" encoding="UTF-8"?><svg id="Layer_1" xmlns="http://www.w3.org/2000/svg" xmlns:xlink="http://www.w3.org/1999/xlink" viewBox="0 0 170 70"><defs><style>.cls-1{fill:#fff;}.cls-2{clip-path:url(#clippath);}.cls-3{fill:none;}</style><clipPath id="clippath"><rect class="cls-3" x="39.94" y="25.01" width="89" height="19.98"/></clipPath></defs><polygon class="cls-1" points="40 44.8 43.84 44.8 43.84 43.71 41.11 43.71 41.11 42.33 43.16 42.33 43.16 41.23 41.11 41.23 41.11 39.88 43.84 39.88 43.84 38.77 40 38.77 40 44.8 40 44.8"/><polygon class="cls-1" points="51.86 38.77 50.54 38.77 49.21 40.79 47.89 38.77 46.58 38.77 48.56 41.77 46.57 44.8 47.87 44.8 49.21 42.77 50.54 44.78 50.55 44.8 51.86 44.8 49.87 41.77 51.81 38.84 51.86 38.77 51.86 38.77"/><polygon class="cls-1" points="54.3 39.88 56.08 39.88 56.08 44.8 57.17 44.8 57.17 39.88 58.95 39.88 58.95 38.77 54.3 38.77 54.3 39.88 54.3 39.88"/><polygon class="cls-1" points="61.73 44.8 65.56 44.8 65.56 43.71 62.83 43.71 62.83 42.33 64.89 42.33 64.89 41.23 62.83 41.23 62.83 39.88 65.56 39.88 65.56 38.77 61.73 38.77 61.73 44.8 61.73 44.8"/><polygon class="cls-1" points="72.21 42.29 68.61 38.7 68.54 38.62 68.54 44.8 69.64 44.8 69.64 41.33 73.22 44.92 73.3 44.99 73.3 38.77 72.21 38.77 72.21 42.29 72.21 42.29"/><path class="cls-1" d="M80.04,42.52c-.08,.23-.21,.44-.37,.62-.17,.18-.36,.32-.58,.42-.22,.09-.47,.15-.74,.15h-.8v-3.83h.8c.55,0,1,.18,1.32,.55,.16,.18,.28,.38,.37,.61,.08,.23,.13,.48,.13,.73s-.05,.51-.13,.75h0Zm.45-2.83c-.27-.3-.59-.53-.96-.68-.37-.16-.77-.24-1.18-.24h-1.9v6.03h1.9c.42,0,.82-.08,1.18-.24,.37-.16,.69-.39,.96-.68,.25-.28,.44-.6,.57-.96,.13-.36,.19-.74,.19-1.14s-.06-.77-.19-1.13c-.13-.35-.32-.67-.57-.95h0Z"/><polygon class="cls-1" points="84.09 44.8 87.93 44.8 87.93 43.71 85.19 43.71 85.19 42.33 87.25 42.33 87.25 41.23 85.19 41.23 85.19 39.88 87.93 39.88 87.93 38.77 84.09 38.77 84.09 44.8 84.09 44.8"/><path class="cls-1" d="M94.49,42.52c-.08,.23-.21,.44-.37,.62-.17,.18-.36,.32-.58,.42s-.47,.15-.74,.15h-.8v-3.83h.8c.55,0,1,.18,1.32,.55,.16,.18,.28,.38,.37,.61,.08,.23,.13,.48,.13,.73,0,.26-.05,.51-.13,.75h0Zm.45-2.83c-.27-.3-.59-.53-.96-.68-.37-.16-.77-.24-1.18-.24h-1.9v6.03h1.9c.42,0,.82-.08,1.18-.24,.37-.16,.69-.39,.96-.68,.25-.28,.44-.6,.57-.96,.13-.36,.19-.74,.19-1.14s-.06-.77-.19-1.13c-.13-.35-.32-.67-.57-.95h0Z"/><path class="cls-1" d="M106.25,41.54c-.26-.13-.67-.23-1.2-.3-.18-.03-.32-.05-.46-.07-.13-.02-.24-.06-.33-.09-.14-.06-.26-.14-.33-.24-.08-.1-.12-.2-.12-.31,0-.16,.09-.3,.28-.44,.12-.08,.25-.15,.41-.19,.31-.09,.65-.09,.96,0,.16,.05,.3,.11,.41,.19,.18,.14,.28,.29,.28,.43v.07l1.01-.57v-.04c-.13-.3-.33-.57-.63-.79-.2-.15-.44-.27-.71-.35-.53-.17-1.13-.17-1.65,0-.27,.08-.51,.2-.71,.35-.23,.18-.41,.38-.53,.6-.13,.23-.19,.47-.19,.73,0,.32,.09,.62,.28,.9,.18,.28,.44,.49,.78,.65,.26,.12,.64,.21,1.13,.27,.43,.06,.71,.11,.83,.18,.13,.06,.23,.16,.3,.25,.07,.09,.11,.19,.11,.29,0,.16-.09,.3-.28,.44-.12,.08-.25,.15-.41,.19-.3,.09-.65,.09-.96,0-.16-.05-.3-.11-.41-.19-.06-.05-.13-.1-.18-.18-.06-.07-.08-.15-.09-.24v-.06l-.96,.55-.03,.02v.04c.12,.3,.32,.56,.62,.78,.2,.15,.44,.27,.71,.35,.27,.08,.55,.12,.83,.12s.56-.05,.83-.12c.27-.08,.51-.2,.71-.35,.23-.18,.42-.38,.54-.6,.13-.23,.19-.48,.19-.73,0-.3-.09-.59-.27-.85-.19-.28-.43-.5-.74-.67h0Z"/><polygon class="cls-1" points="109.64 39.88 111.41 39.88 111.41 44.8 112.5 44.8 112.5 39.88 114.29 39.88 114.29 38.77 109.64 38.77 109.64 39.88 109.64 39.88"/><path class="cls-1" d="M117.99,42.88l.69-1.5,.66,1.5h-1.35Zm-2.07,1.86l-.03,.06h1.21l.38-.81h2.35l.36,.81h1.2l-2.68-6.08-2.79,6.03h0Z"/><g class="cls-2"><polygon class="cls-1" points="127.27 38.77 125.51 41.62 123.78 38.8 123.77 38.77 122.45 38.77 124.96 42.78 124.96 44.8 126.06 44.8 126.06 42.78 128.59 38.77 127.27 38.77 127.27 38.77"/><polygon class="cls-1" points="39.93 35.19 46.54 35.19 46.54 32.94 42.2 32.94 42.2 31.28 45.47 31.28 45.47 29.01 42.2 29.01 42.2 27.38 46.54 27.38 46.54 25.12 39.93 25.12 39.93 35.19 39.93 35.19"/></g><path class="cls-1" d="M54.96,31.95c-.28,.33-.61,.6-.99,.79-.38,.18-.79,.28-1.21,.28-.51,0-.97-.13-1.4-.39-.43-.26-.79-.62-1.04-1.05-.25-.44-.38-.92-.38-1.43s.13-1,.38-1.43c.25-.44,.6-.79,1.03-1.05,.43-.26,.91-.39,1.41-.39,.39,0,.78,.08,1.14,.24,.36,.17,.68,.4,.96,.69l.22,.24,1.66-1.51-.21-.24c-.48-.54-1.05-.96-1.71-1.25-.66-.29-1.35-.43-2.06-.43-.91,0-1.77,.23-2.55,.69-.78,.45-1.4,1.08-1.85,1.87s-.68,1.65-.68,2.57,.23,1.78,.68,2.57c.45,.78,1.07,1.41,1.85,1.87,.78,.46,1.64,.69,2.55,.69,.77,0,1.52-.17,2.21-.51,.69-.33,1.28-.81,1.76-1.4l.2-.25-1.77-1.4-.2,.25h0Z"/><polygon class="cls-1" points="63.72 25.12 63.72 29.01 60.43 29.01 60.43 25.12 58.18 25.12 58.18 35.19 60.43 35.19 60.43 31.28 63.72 31.28 63.72 35.19 65.99 35.19 65.98 25.12 63.72 25.12 63.72 25.12"/><path class="cls-1" d="M72.54,33.02c-.51,0-.99-.13-1.41-.39-.43-.26-.78-.61-1.03-1.05-.25-.44-.38-.92-.38-1.43s.13-1,.38-1.43c.25-.44,.6-.79,1.03-1.05,.43-.26,.91-.39,1.41-.39s.99,.13,1.41,.39c.43,.26,.78,.61,1.03,1.04,.25,.43,.38,.92,.38,1.44s-.13,1.01-.38,1.44-.6,.79-1.03,1.04c-.43,.26-.91,.39-1.41,.39h0Zm4.41-5.43c-.45-.78-1.08-1.4-1.86-1.87-.78-.46-1.64-.69-2.55-.69s-1.77,.23-2.55,.69c-.78,.45-1.4,1.08-1.86,1.87-.45,.79-.69,1.65-.69,2.57s.23,1.78,.69,2.57c.45,.78,1.08,1.4,1.86,1.87,.78,.45,1.64,.69,2.55,.69s1.77-.23,2.55-.69c.78-.45,1.4-1.08,1.86-1.87,.45-.79,.69-1.65,.69-2.57,0-.92-.24-1.79-.69-2.57h0Z"/><path class="cls-1" d="M86.36,27.63v-.08c-.06-.46-.24-.9-.58-1.28-.33-.38-.77-.68-1.29-.9-.53-.22-1.1-.33-1.7-.33s-1.23,.12-1.77,.36c-.55,.24-.98,.57-1.3,.98-.32,.42-.49,.88-.49,1.37,0,.45,.15,.89,.43,1.3,.29,.41,.67,.73,1.16,.95,.3,.13,.68,.24,1.16,.31l.79,.13c.3,.03,.63,.08,.99,.15,.35,.06,.64,.17,.86,.29,.37,.21,.67,.47,.87,.77s.3,.61,.3,.93c0,.38-.13,.73-.39,1.04-.27,.32-.63,.59-1.09,.79-.46,.19-.97,.3-1.52,.3s-1.04-.1-1.51-.29c-.45-.19-.82-.45-1.09-.79-.27-.32-.4-.68-.4-1.05v-.22l-.56,.33v.08c.06,.46,.24,.9,.57,1.28,.32,.38,.76,.68,1.28,.91,.52,.21,1.1,.32,1.71,.32s1.23-.12,1.77-.35c.55-.24,.99-.56,1.3-.97,.32-.42,.49-.88,.49-1.37,0-.43-.14-.86-.41-1.26h0c-.27-.4-.63-.72-1.08-.94-.26-.14-.55-.23-.87-.3-.3-.06-.7-.13-1.16-.19-.09-.02-.26-.05-.5-.08-.23-.04-.46-.07-.68-.13-.22-.05-.42-.11-.59-.18-.4-.18-.71-.43-.93-.75-.22-.31-.33-.65-.33-.99,0-.39,.13-.74,.39-1.07,.27-.33,.63-.59,1.08-.79,.46-.19,.97-.29,1.52-.29s1.06,.1,1.52,.29c.45,.19,.82,.45,1.09,.78,.26,.32,.39,.67,.39,1.04v.21l.57-.32h0Z"/><path class="cls-1" d="M95.81,31.43c0,.44-.08,.86-.24,1.25-.17,.39-.4,.75-.71,1.05-.3,.31-.65,.55-1.04,.72-.39,.17-.8,.24-1.24,.24-.91,0-1.68-.32-2.3-.96-.3-.3-.53-.67-.68-1.05-.16-.4-.24-.81-.24-1.25v-6.24h-.56v6.24c0,.5,.09,.99,.28,1.46,.18,.47,.45,.89,.8,1.25,.35,.37,.77,.66,1.23,.84,.47,.19,.96,.29,1.48,.29s.99-.09,1.45-.29,.88-.47,1.22-.84c.35-.36,.62-.78,.8-1.25,.18-.46,.28-.96,.28-1.46v-6.24h-.54v6.24h0Z"/><polygon class="cls-1" points="99.25 25.19 99.81 25.19 99.81 35.17 99.25 35.17 99.25 25.19 99.25 25.19"/><polygon class="cls-1" points="102.07 25.76 106.27 25.76 106.27 35.17 106.84 35.17 106.84 25.76 111.07 25.76 111.07 25.19 102.07 25.19 102.07 25.76 102.07 25.76"/><polygon class="cls-1" points="113.22 35.17 119.85 35.17 119.85 34.58 113.79 34.58 113.79 30.45 118.54 30.45 118.54 29.89 113.79 29.89 113.79 25.76 119.85 25.76 119.85 25.19 113.22 25.19 113.22 35.17 113.22 35.17"/><path class="cls-1" d="M127.44,30.38c-.26-.14-.55-.23-.87-.3-.3-.06-.7-.13-1.16-.19-.09-.02-.26-.05-.5-.08-.23-.04-.46-.07-.68-.13-.22-.05-.42-.11-.59-.18-.4-.18-.71-.43-.93-.75-.22-.31-.33-.65-.33-.99,0-.39,.13-.74,.39-1.07,.27-.33,.63-.59,1.08-.79,.46-.19,.97-.29,1.52-.29s1.06,.1,1.52,.29c.45,.19,.82,.45,1.09,.78,.26,.32,.39,.67,.39,1.04v.21l.57-.3v-.08c-.06-.46-.24-.9-.58-1.28-.33-.38-.77-.68-1.29-.9-.53-.22-1.1-.33-1.7-.33s-1.23,.12-1.77,.36-.98,.57-1.3,.98c-.32,.42-.49,.88-.49,1.37,0,.45,.15,.89,.43,1.3,.29,.41,.67,.73,1.16,.95,.3,.13,.68,.24,1.16,.31l.79,.13c.3,.03,.63,.08,.99,.15,.35,.06,.64,.17,.86,.29,.37,.21,.67,.47,.87,.77s.3,.61,.3,.93c0,.38-.13,.73-.39,1.04-.27,.32-.63,.59-1.09,.79-.46,.19-.97,.3-1.52,.3s-1.04-.1-1.51-.29c-.45-.19-.82-.45-1.09-.79-.27-.32-.4-.68-.4-1.05v-.22l-.56,.33v.08c.06,.46,.24,.9,.57,1.28,.32,.38,.76,.68,1.28,.91,.52,.21,1.1,.32,1.71,.32s1.23-.12,1.77-.35c.55-.24,.99-.56,1.3-.97,.32-.42,.49-.88,.49-1.37,0-.43-.14-.86-.41-1.26-.28-.42-.64-.73-1.08-.96h0Z"/></svg>