<svg id="Layer_1" data-name="Layer 1" xmlns="http://www.w3.org/2000/svg" viewBox="0 0 170 70"><defs><style>.cls-1{fill:#fff;}</style></defs><title>wyn-grand</title><path class="cls-1" d="M13.5,29.78h2.4L18,36.84l2.28-7.09h1.92l2.28,7.09,2.11-7.06h2.34L25.47,40.27h-2L21.22,33.5l-2.3,6.77h-2Z"/><path class="cls-1" d="M33.1,36.09l-3.91-6.31h2.62L34.23,34l2.48-4.19h2.54l-3.9,6.27V40.2H33.1Z"/><path class="cls-1" d="M40.58,29.78h2.06l4.77,6.41V29.78h2.21V40.2h-1.9l-5-6.62V40.2H40.58Z"/><path class="cls-1" d="M52,29.78h4a5.12,5.12,0,0,1,5.4,4.84c0,.11,0,.23,0,.34h0a5.16,5.16,0,0,1-5.09,5.22H52Zm4,8.35A3,3,0,0,0,59,35.24,1.62,1.62,0,0,0,59,35h0a3,3,0,0,0-2.81-3.13h-2v6.28Z"/><path class="cls-1" d="M63.29,29.78h2.24V33.9h4.13V29.78H71.9V40.2H69.66V36H65.53V40.2H63.29Z"/><path class="cls-1" d="M77.76,29.71h2.07L84.19,40.2H81.84l-.92-2.34H76.61l-.93,2.34H73.4Zm2.35,6.12-1.35-3.32-1.35,3.37Z"/><path class="cls-1" d="M85.68,29.78H88.1l2.67,4.41,2.68-4.41h2.41V40.2H93.64V33.4l-2.87,4.45h-.06l-2.83-4.41V40.2h-2.2Z"/><path class="cls-1" d="M102.07,35h0a5.29,5.29,0,0,1,5.19-5.39h.15a5.52,5.52,0,0,1,4,1.43L110,32.81a3.7,3.7,0,0,0-2.67-1.07A3.11,3.11,0,0,0,104.39,35h0a3.09,3.09,0,0,0,2.87,3.3h.21a3.55,3.55,0,0,0,2.12-.63V36.18h-2.24v-2h4.46v4.51a6.5,6.5,0,0,1-4.35,1.66,5.16,5.16,0,0,1-5.39-4.92Z"/><path class="cls-1" d="M113.85,29.78h4.66a4,4,0,0,1,3,1.06,3.29,3.29,0,0,1,.87,2.38h0a3.23,3.23,0,0,1-2.19,3.26l2.49,3.72H120l-2.18-3.33h-1.76V40.2h-2.24Zm4.51,5.06c1.09,0,1.71-.59,1.71-1.47h0c0-1-.66-1.48-1.75-1.48h-2.23v3Z"/><path class="cls-1" d="M127.78,29.71h2.07l4.36,10.49h-2.34l-.93-2.34h-4.31l-.92,2.34h-2.28Zm2.35,6.12-1.35-3.32-1.35,3.37Z"/><path class="cls-1" d="M135.71,29.78h2.06l4.77,6.41V29.78h2.21V40.2h-1.9l-5-6.62V40.2h-2.21Z"/><path class="cls-1" d="M147.13,29.78h4a5.13,5.13,0,0,1,5.39,4.86c0,.1,0,.21,0,.32h0a5.15,5.15,0,0,1-5.09,5.22h-4.29Zm4,8.35a3,3,0,0,0,3.07-2.89V35h0a3,3,0,0,0-2.82-3.13h-2v6.28Z"/></svg>