<svg id="Layer_1" data-name="Layer 1" xmlns="http://www.w3.org/2000/svg" viewBox="0 0 170 70"><defs><style>.cls-1{fill:#fff;}</style></defs><path class="cls-1" d="M45.78,25a4.91,4.91,0,0,0-.86.07v5.16a4.42,4.42,0,0,0,1.2.13,5.09,5.09,0,0,0,.56,0c1-.16,1.81-.95,1.81-2.75,0-2.29-1.6-2.57-2.72-2.57m5.75,11c-1.11,0-1.6-.3-2.53-1.36-.47-.55-2.43-3-2.85-3.63H44.92v2.49c0,1.35,0,1.63.36,1.91a1.5,1.5,0,0,0,.76.28v.27c-.7,0-1.28-.07-1.89-.07a18.16,18.16,0,0,0-1.95.07v-.27a1.21,1.21,0,0,0,.86-.39c.3-.34.32-.82.32-2.32V26.77c0-1.35-.05-1.63-.37-1.91a1.47,1.47,0,0,0-.75-.28v-.27s.91.07,1.36.07c1.24,0,1.54-.05,2.21-.05a8.67,8.67,0,0,1,2,.18,2.74,2.74,0,0,1,2.29,2.85,3.28,3.28,0,0,1-2.5,3.2s1.86,2.17,2.91,3.36c.84,1,1.57,1.65,2.31,1.67v.24c-.14,0-.67.09-1.35.09"/><path class="cls-1" d="M62.4,35.84H58.19c-1,0-2,0-3,0v-.26a1.21,1.21,0,0,0,.86-.39c.3-.35.32-.82.32-2.33V26.8c0-1.29,0-1.55-.3-1.87a1.18,1.18,0,0,0-.83-.35v-.26c1,.05,1.6.05,2.58.05h4.5s0,1.33,0,2.13h-.3a1.5,1.5,0,0,0-.44-1.13c-.34-.32-.85-.32-1.55-.32H58v4.47h1.95c.73,0,1.1-.05,1.36-.35a1.45,1.45,0,0,0,.32-1h.28c0,.39,0,.56,0,1.67s0,1.22.06,1.62h-.3a1.32,1.32,0,0,0-.35-1c-.26-.28-.72-.31-1.39-.31H58v4.09c0,.79.19.9,1.14.9h1c.77,0,1.26,0,1.59-.35a1.77,1.77,0,0,0,.42-1.23h.3c-.07.81-.05,2.26-.05,2.26"/><path class="cls-1" d="M75.42,31.53c-.3.35-.31.83-.31,2.33v1.69a12.66,12.66,0,0,1-3.19.38c-1.94,0-3.85-.38-5.11-2a5.73,5.73,0,0,1-1.08-3.61,5.65,5.65,0,0,1,3.85-5.76,9.41,9.41,0,0,1,2.89-.37,17.56,17.56,0,0,1,2.71.2s0,.43,0,1c0,.45,0,.84,0,1.07h-.3a1.31,1.31,0,0,0-.45-1A3.84,3.84,0,0,0,72,25c-2.38,0-4.59,1-4.59,5.16,0,4,2.26,5.08,5,5.08.4,0,.73,0,1.15-.07V33.32c0-1.35,0-1.63-.37-1.91a1.38,1.38,0,0,0-.75-.28v-.27c.69,0,1.35.07,2,.07a17.06,17.06,0,0,0,1.89-.07v.27a1.17,1.17,0,0,0-.86.38"/><path class="cls-1" d="M82.35,25c-.3.35-.32.82-.32,2.33v6.12c0,1.35,0,1.63.37,1.91a1.38,1.38,0,0,0,.75.28v.27c-.69,0-1.29-.07-1.91-.07s-1.2,0-2,.07v-.27a1.17,1.17,0,0,0,.86-.38c.3-.35.32-.83.32-2.33V26.77c0-1.35,0-1.63-.37-1.91a1.47,1.47,0,0,0-.76-.28v-.26c.7,0,1.3.07,1.91.07a19.59,19.59,0,0,0,2-.07v.26a1.2,1.2,0,0,0-.85.38"/><path class="cls-1" d="M89.66,35.94A8.46,8.46,0,0,1,87,35.56V35.1c0-.82,0-1.14-.07-1.64h.32a1.68,1.68,0,0,0,.42,1.11,2.54,2.54,0,0,0,1.91.7c1.22,0,2.5-.35,2.5-2.07,0-1.26-.82-1.73-1.86-2.43l-1-.66c-1.29-.86-2-1.54-2-3,0-.58.16-2.89,3.59-2.89a16.87,16.87,0,0,1,2.56.19s0,.46,0,1a10.76,10.76,0,0,0,0,1.15H93a1.66,1.66,0,0,0-.46-1.12,2.4,2.4,0,0,0-1.77-.54c-1.82,0-2.24.87-2.24,1.84s.54,1.43,1.68,2.18l1.09.73c1.12.75,2.18,1.36,2.18,3.15,0,3.1-3.15,3.17-3.85,3.17"/><path class="cls-1" d="M104.93,26.51a1.57,1.57,0,0,0-.44-1.16,2.26,2.26,0,0,0-1.55-.34h-1.3v8.4c0,1.1,0,1.45.22,1.7.29.42,1.11.47,1.25.47v.26c-.76,0-1.6-.07-2.35-.07s-1.49,0-2.19.07v-.26a1.88,1.88,0,0,0,1.17-.4c.3-.35.32-.81.32-2.32V25H99a2.81,2.81,0,0,0-1.84.35,1.68,1.68,0,0,0-.41,1.13h-.3c.07-.8,0-2.13,0-2.13h8.64s0,1.33.06,2.13Z"/><path class="cls-1" d="M111.6,25a5,5,0,0,0-.86.07v5.16a4.49,4.49,0,0,0,1.21.13,5.46,5.46,0,0,0,.56,0c1-.16,1.8-.95,1.8-2.75,0-2.29-1.59-2.57-2.71-2.57m5.73,11c-1.1,0-1.59-.3-2.52-1.36-.47-.55-2.43-3-2.85-3.63h-1.23v2.49c0,1.35,0,1.63.37,1.91a1.47,1.47,0,0,0,.75.28v.27c-.7,0-1.28-.07-1.89-.07a17.88,17.88,0,0,0-1.94.07v-.27a1.21,1.21,0,0,0,.85-.39c.3-.34.32-.82.32-2.32V26.77c0-1.35,0-1.63-.37-1.91a1.47,1.47,0,0,0-.75-.28v-.27s.91.07,1.36.07c1.25,0,1.54-.05,2.21-.05a8.67,8.67,0,0,1,2,.18A2.74,2.74,0,0,1,116,27.36a3.28,3.28,0,0,1-2.5,3.2s1.85,2.17,2.9,3.36c.84,1,1.58,1.65,2.32,1.67v.24c-.14,0-.67.09-1.35.09"/><path class="cls-1" d="M128.22,25.12a9.34,9.34,0,0,0-.76,1.2l-2.68,4.56v2.55c0,1.1.06,1.45.23,1.7.28.42,1.1.47,1.25.47v.26c-.76,0-1.6-.06-2.35-.06s-1.49,0-2.19.06V35.6a1.87,1.87,0,0,0,1.18-.4c.3-.35.31-.81.31-2.31V31l-2.6-4.59a9.34,9.34,0,0,0-1-1.57.83.83,0,0,0-.64-.28v-.27c.43,0,1.29.07,1.78.07.65,0,1.44,0,1.91-.07v.27a1.38,1.38,0,0,0-.71.22.44.44,0,0,0-.16.37,1.81,1.81,0,0,0,.35.86l2.31,4.11,2.17-4.08a2,2,0,0,0,.31-.89.41.41,0,0,0-.19-.4,1.31,1.31,0,0,0-.69-.19v-.27a15,15,0,0,0,1.5.07c.49,0,1.19-.05,1.63-.07v.27a1.21,1.21,0,0,0-.91.53"/><path class="cls-1" d="M38.29,44.75a.11.11,0,0,1,.09,0l.25.27a1.88,1.88,0,0,1-.69.53,2.61,2.61,0,0,1-1.93,0,2,2,0,0,1-.69-.49,2.26,2.26,0,0,1-.46-.77,3,3,0,0,1,0-2,2.35,2.35,0,0,1,1.21-1.27,2.69,2.69,0,0,1,1-.18,2.32,2.32,0,0,1,.9.17,2.11,2.11,0,0,1,.67.44l-.21.29a.12.12,0,0,1,0,.05.1.1,0,0,1-.09,0,.16.16,0,0,1-.09,0l-.12-.06-.16-.1a.81.81,0,0,0-.21-.1,1.47,1.47,0,0,0-.28-.08,2.43,2.43,0,0,0-.38,0,1.84,1.84,0,0,0-.69.13,1.45,1.45,0,0,0-.54.37,1.54,1.54,0,0,0-.35.59,2.27,2.27,0,0,0-.13.77,2.34,2.34,0,0,0,.13.79,1.54,1.54,0,0,0,.35.59,1.45,1.45,0,0,0,.52.35,1.55,1.55,0,0,0,.64.12,1.59,1.59,0,0,0,.38,0,1.16,1.16,0,0,0,.32-.08.91.91,0,0,0,.26-.13,1.64,1.64,0,0,0,.25-.19A.19.19,0,0,1,38.29,44.75Z"/><path class="cls-1" d="M45.79,43.36a3,3,0,0,1-.17,1,2.33,2.33,0,0,1-.48.76,2.12,2.12,0,0,1-.73.5,2.62,2.62,0,0,1-1.91,0,2.06,2.06,0,0,1-.74-.5,2.15,2.15,0,0,1-.47-.76,2.84,2.84,0,0,1,0-2,2.11,2.11,0,0,1,.47-.77,2.23,2.23,0,0,1,.74-.51,2.62,2.62,0,0,1,1.91,0,2.19,2.19,0,0,1,1.21,1.27A3,3,0,0,1,45.79,43.36Zm-.66,0a2.59,2.59,0,0,0-.12-.78,1.54,1.54,0,0,0-.35-.59,1.34,1.34,0,0,0-.53-.37,2,2,0,0,0-1.39,0,1.55,1.55,0,0,0-.51.37,1.85,1.85,0,0,0-.35.59,2.76,2.76,0,0,0,0,1.56,1.85,1.85,0,0,0,.35.59,1.47,1.47,0,0,0,.53.36,2,2,0,0,0,1.39,0,1.43,1.43,0,0,0,.52-.36,1.66,1.66,0,0,0,.34-.59A2.54,2.54,0,0,0,45.13,43.36Z"/><path class="cls-1" d="M49.42,45.19h2v.54H48.78V41h.64Z"/><path class="cls-1" d="M55,45.19h2v.54H54.35V41H55Z"/><path class="cls-1" d="M62.84,41v.52H60.57v1.58H62.4v.5H60.57V45.2h2.27v.53H59.93V41Z"/><path class="cls-1" d="M69.12,44.75a.11.11,0,0,1,.09,0l.25.27a1.88,1.88,0,0,1-.69.53,2.61,2.61,0,0,1-1.93,0,2,2,0,0,1-.69-.49,2.26,2.26,0,0,1-.46-.77,3,3,0,0,1,0-2,2.16,2.16,0,0,1,.49-.76,2.19,2.19,0,0,1,.73-.51,2.64,2.64,0,0,1,1-.18,2.15,2.15,0,0,1,1.58.61l-.21.29,0,.05a.1.1,0,0,1-.09,0,.14.14,0,0,1-.09,0l-.12-.07-.15-.1a1.51,1.51,0,0,0-.22-.11l-.28-.07a2.31,2.31,0,0,0-.37,0,1.68,1.68,0,0,0-.7.13,1.53,1.53,0,0,0-.54.37,1.85,1.85,0,0,0-.35.59,2.27,2.27,0,0,0-.13.77,2.34,2.34,0,0,0,.13.79,1.85,1.85,0,0,0,.35.59,1.54,1.54,0,0,0,.52.35,1.63,1.63,0,0,0,.65.12,2.42,2.42,0,0,0,.38,0,1.77,1.77,0,0,0,.31-.08,1.66,1.66,0,0,0,.27-.13l.25-.19A.17.17,0,0,1,69.12,44.75Z"/><path class="cls-1" d="M75.73,41v.54H74.2v4.2h-.64v-4.2H72V41Z"/><path class="cls-1" d="M79.27,45.73h-.64V41h.64Z"/><path class="cls-1" d="M87,43.36a2.73,2.73,0,0,1-.17,1,2.15,2.15,0,0,1-.47.76,2.06,2.06,0,0,1-.74.5,2.62,2.62,0,0,1-1.91,0,2,2,0,0,1-.73-.5,2.33,2.33,0,0,1-.48-.76,3,3,0,0,1,0-2,2.27,2.27,0,0,1,.48-.77,2.31,2.31,0,0,1,.73-.5,2.62,2.62,0,0,1,1.91,0,2.36,2.36,0,0,1,.74.5,2.25,2.25,0,0,1,.47.77A2.68,2.68,0,0,1,87,43.36Zm-.66,0a2.09,2.09,0,0,0-.12-.78,1.66,1.66,0,0,0-.34-.59,1.5,1.5,0,0,0-.53-.37,2,2,0,0,0-1.39,0,1.34,1.34,0,0,0-.53.37,1.54,1.54,0,0,0-.35.59,2.6,2.6,0,0,0,0,1.56,1.54,1.54,0,0,0,.35.59,1.32,1.32,0,0,0,.53.36,2,2,0,0,0,1.39,0,1.47,1.47,0,0,0,.53-.36,1.66,1.66,0,0,0,.34-.59A2.06,2.06,0,0,0,86.31,43.36Z"/><path class="cls-1" d="M90.45,41l.09.09,2.74,3.57V41h.56v4.74h-.32a.31.31,0,0,1-.13,0l-.1-.09L90.55,42v3.69H90V41h.33Z"/><path class="cls-1" d="M104.49,45.73h-.64V43.57H101.3v2.16h-.66V41h.65V43.1h2.55V41h.64Z"/><path class="cls-1" d="M112.18,43.36a3,3,0,0,1-.17,1,2.18,2.18,0,0,1-.48.76,1.94,1.94,0,0,1-.73.5,2.62,2.62,0,0,1-1.91,0,2.06,2.06,0,0,1-.74-.5,2.3,2.3,0,0,1-.47-.76,2.84,2.84,0,0,1,0-2,2.25,2.25,0,0,1,.47-.77,2.36,2.36,0,0,1,.74-.5,2.62,2.62,0,0,1,1.91,0,2.21,2.21,0,0,1,.73.5,2.27,2.27,0,0,1,.48.77A2.91,2.91,0,0,1,112.18,43.36Zm-.66,0a2.59,2.59,0,0,0-.12-.78,1.54,1.54,0,0,0-.35-.59,1.38,1.38,0,0,0-.52-.37,2,2,0,0,0-1.4,0,1.5,1.5,0,0,0-.53.37,1.66,1.66,0,0,0-.34.59,2.6,2.6,0,0,0,0,1.56,1.66,1.66,0,0,0,.34.59,1.47,1.47,0,0,0,.53.36,2,2,0,0,0,1.4,0,1.64,1.64,0,0,0,.55-.36,1.66,1.66,0,0,0,.34-.59A2.26,2.26,0,0,0,111.52,43.36Z"/><path class="cls-1" d="M118.06,41v.54h-1.53v4.2h-.64v-4.2h-1.54V41Z"/><path class="cls-1" d="M123.9,41v.52h-2.28v1.58h1.84v.5h-1.84V45.2h2.28v.53H121V41Z"/><path class="cls-1" d="M127.64,45.19h2v.54H127V41h.64Z"/><path class="cls-1" d="M135.07,41.73a.27.27,0,0,1-.07.08l-.08,0a.19.19,0,0,1-.13,0l-.19-.13-.27-.12a1.06,1.06,0,0,0-.39-.06,1.21,1.21,0,0,0-.38.06.78.78,0,0,0-.28.16.53.53,0,0,0-.16.23.72.72,0,0,0-.06.29.51.51,0,0,0,.1.33.88.88,0,0,0,.25.22,2.21,2.21,0,0,0,.35.16l.42.14.42.16a1.56,1.56,0,0,1,.34.23,1.1,1.1,0,0,1,.26.35,1.16,1.16,0,0,1,.1.49,1.51,1.51,0,0,1-.11.59,1.21,1.21,0,0,1-.31.47,1.43,1.43,0,0,1-.49.32,1.92,1.92,0,0,1-.67.11,2,2,0,0,1-.84-.17,1.85,1.85,0,0,1-.65-.45l.19-.3a.12.12,0,0,1,.06-.06l.09,0a.27.27,0,0,1,.16.08L133,45a1.91,1.91,0,0,0,.32.16,1.48,1.48,0,0,0,.46.08,1.14,1.14,0,0,0,.41-.07,1,1,0,0,0,.3-.17.67.67,0,0,0,.19-.28.8.8,0,0,0,.07-.34.53.53,0,0,0-.1-.35.69.69,0,0,0-.25-.23,2.21,2.21,0,0,0-.35-.16l-.42-.13a3.61,3.61,0,0,1-.42-.16,1.08,1.08,0,0,1-.34-.23,1,1,0,0,1-.26-.35,1.29,1.29,0,0,1,.28-1.43,1.56,1.56,0,0,1,.46-.29,1.9,1.9,0,0,1,.63-.11,2,2,0,0,1,.72.13,1.69,1.69,0,0,1,.57.35Z"/></svg>