<svg id="Layer_1" data-name="Layer 1" xmlns="http://www.w3.org/2000/svg" viewBox="0 0 170 70"><defs><style>.cls-1{fill:#fff;}</style></defs><title>wyn</title><path class="cls-1" d="M110.24,29.66h-1.83l-4.68,10.62h2.14l1.07-2.5h4.74l1,2.5h2.2Zm.67,6.34h-3.22l1.61-3.75Z"/><path class="cls-1" d="M85.93,29.74H82V40.28h4c3.45,0,5.6-2.33,5.6-5.28a5.21,5.21,0,0,0-5.18-5.27,3,3,0,0,0-.42,0m0,8.67H84V31.6h1.91a3.41,3.41,0,0,1,0,6.81"/><polygon class="cls-1" points="63.93 33.9 61.39 29.75 58.99 29.75 62.9 35.93 62.9 40.28 64.93 40.28 64.93 35.89 68.85 29.75 66.52 29.75 63.93 33.9"/><polygon class="cls-1" points="55.09 40.34 58.2 29.74 56.06 29.74 54.12 36.96 51.87 29.71 49.92 29.71 47.63 36.95 45.68 29.74 43.5 29.74 46.64 40.34 48.45 40.34 50.82 32.81 53.25 40.34 55.09 40.34"/><polygon class="cls-1" points="77.25 36.67 71.88 29.74 70.04 29.74 70.04 34.89 70.04 40.28 72.04 40.28 72.04 33.14 77.56 40.28 79.24 40.28 79.24 35.02 79.24 29.74 77.25 29.74 77.25 36.67"/><polygon class="cls-1" points="102.29 40.28 102.29 34.89 102.29 29.74 100.27 29.74 100.27 34.03 95.56 34.03 95.56 29.74 93.53 29.74 93.53 34.75 93.53 40.28 95.56 40.28 95.56 35.93 100.27 35.93 100.27 40.28 102.29 40.28"/><polygon class="cls-1" points="121.32 34.53 118.24 29.74 116.14 29.74 116.14 34.6 116.14 40.28 118.14 40.28 118.14 33.15 121.2 37.74 121.38 37.74 124.47 33.12 124.47 40.28 126.5 40.28 126.5 34.46 126.5 29.74 124.4 29.74 121.32 34.53"/></svg>