<svg id="Layer_1" data-name="Layer 1" xmlns="http://www.w3.org/2000/svg" viewBox="0 0 170 70"><defs><style>.cls-1{fill:#fff;}</style></defs><title>howard-johnson</title><path class="cls-1" d="M95.77,46.77c-1.24-.7-1.49-2.84-.67-4.94,1.06-2.71,3.71-3.85,4.81-3.22,1.7,1,1.15,3.61,0,5.71-1.08,1.92-2.86,3.15-4.1,2.45Zm.73-4.45c-.37,1.67-.49,3.89.47,3.8s1.63-1.84,2-3.51.26-3.25-.55-3.21S96.89,40.65,96.5,42.32Z"/><path class="cls-1" d="M71.34,46.84,73,46.58s.92-2.46,1.1-3.21S75.7,39.78,77,39.84a.86.86,0,0,1,.93.6l.54-1.66a.68.68,0,0,0-.74-.35c-1,.18-1.59.7-2.92,2.67l.84-2.82a16,16,0,0,1-2.84.44l-.11.36a5.57,5.57,0,0,0,1,0c.3,0,.07.24,0,.54s-2.35,7.22-2.35,7.22Z"/><path class="cls-1" d="M83.36,45.3c-.73.76-1.45.93-1-.42l2.77-9.5a15.37,15.37,0,0,1-2.85.45l-.11.36h1c.28,0,.07.24,0,.54s-.26.91-.52,1.77h0C81,38.19,79.35,39,78,41.59c-1.14,2.15-1.3,4.42-.26,5.23.83.64,2.46-.83,3.23-2.23,0,.11-.72,3.63,1.45,2a9.45,9.45,0,0,0,1.09-1l-.17-.32Zm-2-2.81c-.74,2.45-1.86,3.4-2.51,3.4s-.23-1.71.41-3.44,1.62-3.29,2.36-3.46c.24-.06.81,0,.65.55Z"/><path class="cls-1" d="M70.52,45.54c-.69.45-1.21.42-.86-.76l1.7-6A12.91,12.91,0,0,0,70,38.4c-1.66-.31-3.26.53-4.59,3.08-1.13,2.16-1.29,4.43-.26,5.24.83.65,2.47-.83,3.25-2.23,0,.11-.77,3.58,1.4,2l.93-.68-.16-.26Zm-4.29.25c-.76,0-.21-1.71.44-3.44s1.6-3.28,2.35-3.46c.23-.06.61,0,.71.24-.19.67-.39,1.35-.56,1.93h0c-.1.32-.25.81-.4,1.33-.73,2.44-1.86,3.39-2.52,3.39Z"/><path class="cls-1" d="M66.32,37.71c-2.33.12-4.14,4.55-4.78,5.94l.34-5.25a4.76,4.76,0,0,1-1.62.4l-2.55,5.83s.22-3.47.31-5.28c.08-1.54-1.85-1.31-3-.37v.3c.73-.32,1.31-.59,1.31.51,0,1.42-.37,7.09-.37,7.09l1.55-.25,2.57-5.82h0l-.35,6.12,1.53-.24h0S63.5,38.74,66.36,38l-.12-.25Z"/><path class="cls-1" d="M49.58,46.67c-1.24-.71-1.48-2.85-.67-4.94C50,39,52.62,37.88,53.73,38.51c1.7,1,1.14,3.61,0,5.7-1.09,1.93-2.86,3.16-4.11,2.46Zm.74-4.45c-.38,1.67-.5,3.89.46,3.8s1.64-1.84,2-3.51.25-3.25-.55-3.21-1.55,1.25-1.93,2.92Z"/><path class="cls-1" d="M36,48.11c-1.82,0-.44-4.52,2.55-6.22a5.8,5.8,0,0,1,2.11-1l-.76,2.49C38.18,48.46,36,48.11,36,48.11Zm4.8-7.82a7.84,7.84,0,0,0-5.91,5c-1.91,5.3,4.74,4.17,6.57-1.73l.87-2.82h3.5l-1.12,3.87c-.27.79-.48,3.37,1.69,1.78a8.28,8.28,0,0,0,1.34-1.24l-.26-.34c-.82.88-1.61,1.36-1.17-.12l2.83-9.48-1.7.35-1.47,4.74h-3.5l1.5-5-1.74.34c-.37,1.2-.91,2.94-1.44,4.69Z"/><path class="cls-1" d="M115.15,45.49l-.31.21s-1.09.78-.71-.48,1.6-5.23,1.6-5.23.65-1.58-.39-1.56-2.27.89-3.64,2.91l.89-2.91a15.23,15.23,0,0,1-2.86.46l-.11.38a5.57,5.57,0,0,0,1,0c.29,0,.06.24,0,.56s-2.12,6.87-2.12,6.87l1.64-.26,1.08-3.53S113.09,39.47,114,40c0,0,.24,0-.16,1.19s-1.31,4.27-1.31,4.27-.58,1.67.63,1.57a4.6,4.6,0,0,0,2.19-1.15l-.18-.38Z"/><path class="cls-1" d="M134.72,45.49l-.31.21s-1.09.78-.71-.48,1.6-5.2,1.6-5.2.65-1.58-.39-1.56-2.28.89-3.64,2.91l.89-2.91a15.26,15.26,0,0,1-2.85.46l-.12.38a5.57,5.57,0,0,0,1,0c.3,0,.08.24,0,.56s-2.11,6.83-2.11,6.83l1.66-.26,1.08-3.53s1.85-3.44,2.75-2.91c0,0,.24,0-.16,1.19s-1.31,4.27-1.31,4.27-.58,1.67.62,1.57a4.59,4.59,0,0,0,2.2-1.15l-.18-.38Z"/><path class="cls-1" d="M121.17,41.27l.57-1.89s-.32-1.29-2.12-1c-2.46.45-2.35,2.24-2.35,2.24s-.17.78,1.24,2.89c1.11,1.66.11,2.63.11,2.63a.81.81,0,0,1-1.14-.17,1,1,0,0,1-.1-.17,2,2,0,0,1-.32-1.57l-.21-.14-.91,1.25a2.09,2.09,0,0,0,2.55,1.5l.14,0c2.23-.49,2.34-1.89,1.64-3.48-.92-2.1-2.32-3.33-1.3-4.13s2.15.59,1.9,1.93l.26.14Z"/><path class="cls-1" d="M122.88,46.67c-1.24-.7-1.48-2.84-.67-4.93,1.07-2.72,3.71-3.85,4.81-3.23,1.72,1,1.16,3.61,0,5.71-1.08,1.93-2.85,3.15-4.1,2.45Zm.75-4.44c-.38,1.66-.5,3.88.47,3.8s1.62-1.85,2-3.51.25-3.25-.55-3.21S124,40.55,123.63,42.23Z"/><path class="cls-1" d="M107.58,45.53l-.28.18c-.43.26-1.13.43-.87-.46.36-1.22,1.62-5.3,1.62-5.3s.62-1.53-.43-1.51-2.25.86-3.57,2.83l1.69-5.86a16,16,0,0,1-2.84.44l-.11.37a8.34,8.34,0,0,0,1,0c.29,0,.07.24,0,.54l-3,9.92,1.64-.25,1.14-3.65s1.79-3.34,2.69-2.83c0,0,.24,0-.13,1.16s-1.35,4.36-1.35,4.36-.47,1.63.65,1.53a5.07,5.07,0,0,0,2.27-1.1l-.16-.37Z"/><path class="cls-1" d="M89.17,37.07C86.8,41,89.73,42.69,91,42c-1.65-1-1.7-3.53-.82-4.85a3.79,3.79,0,0,1,2.71-2c.74-.07.61.16.61.16l-2.24,7.25A8.14,8.14,0,0,0,85,47.34c-2.1,5.31,4.87,4.58,7-1.63L93,43a8.86,8.86,0,0,1,2.86.11,4.58,4.58,0,0,0-2.7-.68l2.48-8c-2.83-.32-5.16.59-6.45,2.69Zm-2.09,8.46A5.75,5.75,0,0,1,91,43.34a27.05,27.05,0,0,1-1.84,4.58S87.34,51,85.86,50.13C85.86,50.13,84.22,48.89,87.08,45.53Z"/><polygon class="cls-1" points="38.98 49.54 82.78 49.54 83.19 48.63 39.4 48.63 38.98 49.54 38.98 49.54"/><polygon class="cls-1" points="91.73 49.54 133.95 49.54 134.37 48.63 92.14 48.63 91.73 49.54 91.73 49.54"/><path class="cls-1" d="M85.37,24.33l.32-2.82q-1.53,0-3.06.15l1.31,3.53Z"/><path class="cls-1" d="M87.71,25.15,89,21.66h0c-1-.1-2-.15-3.07-.15l.32,2.79"/><path class="cls-1" d="M71.64,30.7h1.27l-4.83-4A30.57,30.57,0,0,0,65,29Z"/><path class="cls-1" d="M64.8,29.12c-.61.51-1.2,1-1.77,1.58h5Z"/><path class="cls-1" d="M86.9,31.38v1h2.63a2.82,2.82,0,0,0-.19-1Z"/><path class="cls-1" d="M86.16,31.38H83.73a2.82,2.82,0,0,0-.19,1h2.62Z"/><path class="cls-1" d="M86.16,30.63V29.44a3,3,0,0,0-2,1.19Z"/><path class="cls-1" d="M86.9,30.63h2a3,3,0,0,0-2-1.19Z"/><path class="cls-1" d="M82.91,32.4a3.65,3.65,0,0,1,3.65-3.66h0a3.58,3.58,0,0,1,2,.59,4.1,4.1,0,0,0-6.76,3.07Z"/><path class="cls-1" d="M96.71,31.65,85.84,25.19,75,31.65H60.18A34.58,34.58,0,0,1,109,29.18a32,32,0,0,1,2.47,2.47ZM85.84,26.41l10.16,6h17.67a35.75,35.75,0,0,0-55.65,0H75.75Z"/><path class="cls-1" d="M92.6,22.22a31.18,31.18,0,0,0-3.33-.53L89,25.89l1.17.7Z"/><path class="cls-1" d="M92.84,22.27l-1.4,5.1h0l.84.49,4-4.61A31.56,31.56,0,0,0,92.84,22.27Z"/><path class="cls-1" d="M99.81,24.65a31.81,31.81,0,0,0-3.26-1.33L93.72,28.7l.59.36Z"/><path class="cls-1" d="M103.5,26.68A31.86,31.86,0,0,0,100,24.75L95.91,30h0l.31.18Z"/><path class="cls-1" d="M106.74,29a32.26,32.26,0,0,0-3-2.22l-5,3.92h1.2Z"/><path class="cls-1" d="M103.62,30.73h5c-.57-.55-1.17-1.07-1.77-1.57Z"/><path class="cls-1" d="M71.6,24.76a32.64,32.64,0,0,0-3.32,1.85l7.26,3.62.25-.15Z"/><path class="cls-1" d="M81.52,26.65l1.17-.71-.33-4.25a31.21,31.21,0,0,0-3.33.54Z"/><path class="cls-1" d="M75.22,23.28a32.19,32.19,0,0,0-3.4,1.37l5.58,4.47.59-.35Z"/><path class="cls-1" d="M79.44,27.9l.77-.46-1.4-5.17a33,33,0,0,0-3.37.93Z"/></svg>