<svg id="Layer_1" data-name="Layer 1" xmlns="http://www.w3.org/2000/svg" width="170" height="70" viewBox="0 0 170 70">
  <defs>
    <style>
      .cls-1 {
        fill: #fff;
      }
    </style>
  </defs>
  <title>footer</title>
  <g>
    <path class="cls-1" d="M67.41771,40.42463H65.41916l-1.46894-3.56742h-4.2969l-1.43895,3.56742H56.21581L61.2122,28.51324h1.309Zm-7.13484-5.13628H63.2807l-1.47893-3.74729Z"/>
    <path class="cls-1" d="M84.29551,40.42463H82.3769l-.79943-7.70443-3.55742,7.70443H76.8409l-3.50746-7.55454-.84939,7.55454h-1.7987l1.419-11.67156h1.339l4.07706,8.83361,3.99711-8.83361h1.419Z"/>
    <path class="cls-1" d="M98.73507,40.42463H96.73651l-1.419-3.56742H90.93071l-1.399,3.56742H87.53317l4.99639-11.91139h1.309Zm-7.13484-5.13628h2.99783l-1.47893-3.74729Z"/>
    <path class="cls-1" d="M105.29034,40.53455a17.7869,17.7869,0,0,1-2.46822-.11991h-.18987V28.813h.89935c.86938-.06,1.70877-.07,2.13846-.07a7.63453,7.63453,0,0,1,5.24621,1.60883,5.90576,5.90576,0,0,1,1.73874,4.2869,5.506,5.506,0,0,1-3.33759,5.29618A11.76146,11.76146,0,0,1,105.29034,40.53455Zm-.74946-1.76872a9.90405,9.90405,0,0,0,1.369.08994c1.84866,0,2.99783-.37973,3.72731-1.23911a4.38556,4.38556,0,0,0-1.22912-6.60522,7.25465,7.25465,0,0,0-3.09775-.58958h-.74946Z"/>
    <path class="cls-1" d="M126.43505,40.42463h-1.99856l-1.419-3.56742h-4.30689l-1.439,3.56742h-1.94859l4.99639-11.91139h1.309Zm-7.13485-5.13628H122.298l-1.47893-3.74729Z"/>
    <path class="cls-1" d="M52.38858,40.71442,47.48212,33.1399l.36973-.84939h.10992c1.81869-.22983,2.99784-1.379,2.99784-2.92788,0-1.70876-.91934-2.44823-3.05779-2.44823H45.69341V40.38466H43.565V25.3955h.10992s3.54744-.10992,4.23694-.10992c1.419,0,5.16627,0,5.16627,3.91716a4.29689,4.29689,0,0,1-2.99783,3.99711h0l4.29689,6.56526Z"/>
  </g>
</svg>
