<svg id="Layer_1" data-name="Layer 1" xmlns="http://www.w3.org/2000/svg" viewBox="0 0 170 70"><defs><style>.cls-1{fill:#fff;}</style></defs><title>dolce</title><path class="cls-1" d="M46.08,44.1v1.41H44.51V44.1H44v3.55h.51V46h1.57v1.66h.51V44.1Z"/><path class="cls-1" d="M49,45.88a1.86,1.86,0,1,0,1.72-1.72A1.86,1.86,0,0,0,49,45.88Zm.51,0a1.35,1.35,0,1,1,2.69-.24,1,1,0,0,1,0,.24,1.35,1.35,0,0,1-2.69.23A.88.88,0,0,1,49.47,45.88Z"/><path class="cls-1" d="M54.76,44.1v.47h.82v3.08h.51V44.57H57V44.1Z"/><path class="cls-1" d="M59.25,44.1v3.55h1.94v-.47H59.76V46h1.39v-.48H59.76v-.9h1.43V44.1Z"/><path class="cls-1" d="M63.71,44.1v3.55h1.57v-.47h-1V44.1Z"/><path class="cls-1" d="M67.53,45c0,.52.37.75.77.92l.24.1c.28.12.58.27.58.63a.61.61,0,0,1-.6.63.7.7,0,0,1-.46-.18.57.57,0,0,1-.17-.44h0l-.52.1h0a1.13,1.13,0,0,0,2.26-.07v0a1.12,1.12,0,0,0-.89-1.08l-.25-.1c-.3-.12-.45-.28-.45-.47a.51.51,0,0,1,.54-.45.57.57,0,0,1,.52.31h0l.41-.25h0a1.06,1.06,0,0,0-2,.39Z"/><path class="cls-1" d="M75.1,47.65h.55l.4-.87h1.54l.39.87h.55L76.82,43.9Zm1.72-2.6.55,1.28H76.26Z"/><path class="cls-1" d="M80.74,47.65h.52V45.12l2.6,2.73V44.1h-.51v2.51c-.12-.14-2.61-2.73-2.61-2.73Z"/><path class="cls-1" d="M86.43,44.1v3.55h.74a1.79,1.79,0,0,0,.38-3.55H86.43Zm.62.47c.73,0,1.61.23,1.61,1.31s-.88,1.3-1.61,1.3h-.11V44.57Z"/><path class="cls-1" d="M95,44.1v3.55h.51V46.19h.12l1,1.46h.62l-1.11-1.52a1,1,0,0,0,.81-1,1,1,0,0,0-.47-.86,2,2,0,0,0-.94-.17Zm.59.46c.61,0,.9.19.9.58s-.47.61-.88.61h-.1V44.56Z"/><path class="cls-1" d="M99.56,44.1v3.55h1.94v-.47h-1.43V46h1.39v-.48h-1.39v-.9h1.43V44.1Z"/><path class="cls-1" d="M104,45c0,.52.38.75.78.92l.24.1c.28.12.58.27.58.63a.62.62,0,0,1-.6.63h0a.69.69,0,0,1-.49-.18.66.66,0,0,1-.17-.44h0l-.52.1h0a1.13,1.13,0,1,0,1.37-1.19l-.25-.1c-.31-.12-.46-.28-.46-.47a.51.51,0,0,1,.54-.45.56.56,0,0,1,.53.31h0l.41-.25h0a1,1,0,0,0-1-.52A1,1,0,0,0,104,45Z"/><path class="cls-1" d="M108.32,45.88A1.85,1.85,0,1,0,110.17,44,1.85,1.85,0,0,0,108.32,45.88Zm.51,0a1.35,1.35,0,1,1,2.69-.24,1,1,0,0,1,0,.24,1.35,1.35,0,0,1-2.69.23A.88.88,0,0,1,108.83,45.88Z"/><path class="cls-1" d="M114.44,44.1v3.55H115V46.19H115l1,1.46h.62l-1.11-1.52a1,1,0,0,0,.81-1,1,1,0,0,0-.47-.86,2,2,0,0,0-.94-.17Zm.59.46c.61,0,.9.19.9.58s-.47.61-.88.61H115V44.56Z"/><path class="cls-1" d="M118.59,44.1v.47h.82v3.08h.51V44.57h.82V44.1Z"/><path class="cls-1" d="M123.05,45c0,.52.38.75.78.92l.24.1c.28.12.57.27.57.63a.61.61,0,0,1-.59.63h0a.7.7,0,0,1-.46-.18.66.66,0,0,1-.17-.44h0l-.52.1h0a1.12,1.12,0,0,0,1.11,1,1.1,1.1,0,0,0,1.14-1.06v0a1.12,1.12,0,0,0-.88-1.08l-.25-.1c-.31-.12-.46-.28-.46-.47a.5.5,0,0,1,.54-.45.54.54,0,0,1,.52.31h0l.42-.25h0a1,1,0,0,0-.93-.54A1,1,0,0,0,123.05,45Z"/><path class="cls-1" d="M44.06,23.59V39.87H49c5.06,0,8.2-3.12,8.2-8.14s-3.1-8.14-8.2-8.14Zm4.9,2.1c3.83,0,6,2.21,6,6.08s-2.2,6-6,6H46.22V25.69Z"/><path class="cls-1" d="M79.75,23.59V39.87h11v-2.1H81.92V23.59Z"/><path class="cls-1" d="M91.11,31.73a8.44,8.44,0,0,0,15.52,4.55l.7-1.18h-2.46l-.23.32a6.36,6.36,0,0,1-5.11,2.63,6.15,6.15,0,0,1-6.26-6v-.26a6.15,6.15,0,0,1,6-6.3h.27a6.51,6.51,0,0,1,5.11,2.68l.23.32h2.54l-.77-1.21a8.67,8.67,0,0,0-7.1-3.89,8.32,8.32,0,0,0-8.43,8.23Z"/><path class="cls-1" d="M109.35,31.8a8.37,8.37,0,0,0,16,3.31l.38-.87h-2.21l-.17.36a6.08,6.08,0,0,1-5.67,3.5,6.23,6.23,0,0,1-6.26-5.62h14.49l.07-1h0a8.33,8.33,0,0,0-16.65.38Zm8.35-6.35a6.26,6.26,0,0,1,6.15,5H111.53A6.13,6.13,0,0,1,117.7,25.45Z"/><path class="cls-1" d="M77.62,31.57a8,8,0,1,1-8-8A8,8,0,0,1,77.62,31.57Zm-8-6.68a6.74,6.74,0,1,0,6.73,6.75v0a6.73,6.73,0,0,0-6.69-6.73Z"/><path class="cls-1" d="M74.77,27v-.09c0-.12-.11-.24-.18-.37s0,0,0-.05a7.77,7.77,0,0,0-.81-1.24h0q-.15-.2-.3-.36h0c-.1-.11-.2-.22-.31-.32a1.14,1.14,0,0,1-.16-.16l-.13-.12-.11-.1h0a8,8,0,1,0,2,2.81Zm-7.32,10a6.74,6.74,0,0,1,0-13.47,6.6,6.6,0,0,1,1.33.14h.08l.48.13.19,0,.34.13c.18.07.35.14.53.23h.09l.38.21h0a7.31,7.31,0,0,1,1.1.82,6.73,6.73,0,0,1-4.52,11.76Z"/><path class="cls-1" d="M75.5,33.11a8,8,0,1,1-8-8A8,8,0,0,1,75.5,33.11Zm-8-6.69a6.74,6.74,0,1,0,6.74,6.74h0a6.74,6.74,0,0,0-6.71-6.74Z"/></svg>