<?xml version="1.0" encoding="UTF-8"?>
<svg xmlns="http://www.w3.org/2000/svg" id="Layer_1" data-name="Layer 1" viewBox="0 0 170 70">
  <defs>
    <style>
      .cls-1 {
        fill: #fff;
        stroke-width: 0px;
      }
    </style>
  </defs>
  <g id="waterwalk">
    <path class="cls-1" d="M42.34098,36.30339c-.07519.2774-.15461.54611-.23357.81305-.07563.25648-.15305.51808-.22557.78502-.03648-.11301-.07252-.22601-.10855-.33857-.11878-.37216-.2418-.75677-.37193-1.12626l-3.34474-9.2532h-1.43991l-3.28712,9.28211c-.18708.51475-.32722.96165-.46803,1.42101-.04761-.17106-.09343-.34257-.14059-.51919-.07786-.29074-.15661-.58548-.24803-.89513l-2.91786-9.28879h-1.91818l4.33442,13.49329.03537.11078h1.38696l3.45619-9.54127c.17239-.44379.31032-.86867.42532-1.25595.13036.39196.27005.78302.40686,1.16585l3.54294,9.63136h1.44391l4.16113-13.3972.06407-.20688h-1.8332l-2.71988,9.11995h0Z"></path>
    <path class="cls-1" d="M52.49976,26.92118c-1.47039,0-2.85892.41042-4.12709,1.21969l-.103.06562.49161,1.55736.17151-.09699c1.14228-.64799,2.03563-.99901,3.48221-.99901,2.92164,0,3.16211,1.76446,3.17479,4.66475-1.20144-.76011-2.67917-.84686-3.28779-.84686-3.03264,0-4.99219,1.6637-4.99219,4.23831,0,2.43047,1.64279,4.06347,4.08794,4.06347,1.7658,0,3.14209-.61485,4.19272-1.87681v1.70195h1.78849v-8.28778c0-3.73714-1.50486-5.40372-4.87919-5.40371ZM55.59046,37.07951c-.72585.977-1.74289,1.96133-3.7407,1.96133-1.59495,0-2.6665-.96609-2.6665-2.40423,0-1.78159,1.63723-2.57907,3.25998-2.57907,1.21879,0,2.24918.31721,3.1472.96987v2.05209h.00001Z"></path>
    <path class="cls-1" d="M66.56208,38.37505c-.53922.41687-1.26352.66579-1.93752.66579-1.83854,0-2.69474-1.20834-2.69474-3.80254v-6.3082h5.11521v-1.74667h-5.11521v-3.64171h-1.78871v11.92947c0,3.5772,1.3556,5.3163,4.14444,5.3163,1.32335,0,2.39488-.50073,2.95656-.96943l.08921-.07429-.60261-1.49774-.16662.12902h-.00001Z"></path>
    <path class="cls-1" d="M79.72058,38.9592l.06918-.07497-.61351-1.48818-.16928.18018c-.89959.95742-2.43604,1.55202-4.00985,1.55202-2.94545,0-4.86095-1.8154-5.03312-4.75017h10.45353l.0218-.13414c.05984-.37149.08676-.75677.08676-1.24905,0-3.57609-2.43626-6.07374-5.9247-6.07374-4.01119,0-6.60317,2.73857-6.60317,6.97688,0,4.17314,2.77861,6.97688,6.91393,6.97688,1.90126,0,3.69888-.71628,4.80845-1.91573v.00002ZM69.89058,32.80627c.32255-2.55771,2.05943-4.13844,4.56954-4.13844,2.51389,0,4.12754,1.58094,4.24388,4.13844,0,0-8.81342,0-8.81341,0Z"></path>
    <path class="cls-1" d="M87.91292,26.95031c-1.34737,0-2.41824.53566-3.26021,1.63411v-1.40098h-1.78849v13.42922h1.78849v-9.90631c.57102-.99991,1.3714-2.00938,2.94922-2.00938.79526,0,1.10668.11189,1.69751.47182l.16728.10188.61397-1.7222-.09343-.07051c-.50229-.37972-1.08377-.52764-2.07434-.52765Z"></path>
    <path class="cls-1" d="M106.08298,40.78751l4.16113-13.3972.06406-.20688h-1.8332l-2.71989,9.11995c-.07519.2774-.1546.54611-.23357.81305-.07563.25648-.15305.51808-.22557.78502-.03649-.11301-.07252-.22601-.10855-.33857-.11878-.37216-.2418-.75677-.37193-1.12626l-3.34474-9.2532h-1.43992l-3.28712,9.28211c-.18708.51475-.32722.96165-.46803,1.42101-.04761-.17106-.09343-.34257-.14059-.51919-.07786-.29074-.15661-.58548-.24804-.89513l-2.91786-9.28879h-1.91818l4.33441,13.49329.03538.11078h1.38696l3.45619-9.54127c.17239-.44379.31031-.86867.42531-1.25595.13035.39196.27005.78302.40686,1.16585l3.54294,9.63136h1.44394Z"></path>
    <path class="cls-1" d="M115.91388,26.92118c-1.47038,0-2.85892.41042-4.12708,1.21969l-.103.06562.49161,1.55736.17151-.09699c1.14228-.64799,2.03563-.99901,3.48222-.99901,2.92164,0,3.16212,1.76446,3.17478,4.66475-1.20144-.76011-2.67917-.84686-3.28779-.84686-3.03264,0-4.99219,1.6637-4.99219,4.23831,0,2.43047,1.64279,4.06347,4.08794,4.06347,1.7658,0,3.14209-.61485,4.19272-1.87681v1.70195h1.78849v-8.28778c0-3.73714-1.50486-5.40372-4.87918-5.40372h-.00003ZM119.00457,37.07951c-.72585.977-1.74289,1.96133-3.7407,1.96133-1.59495,0-2.6665-.96609-2.6665-2.40423,0-1.78159,1.63722-2.57907,3.25998-2.57907,1.21879,0,2.24918.31721,3.1472.96987,0,0,0,2.05209,0,2.05208Z"></path>
    <rect class="cls-1" x="124.48794" y="19.90002" width="1.78849" height="20.71265"></rect>
    <rect class="cls-1" x="130.22534" y="19.90002" width="1.78849" height="20.71265"></rect>
    <polygon class="cls-1" points="138.90639 40.61267 141.32042 40.61267 134.70234 33.49208 140.79298 27.18344 138.42635 27.18344 132.45672 33.6062 138.85902 40.56105 138.90639 40.61267"></polygon>
    <polygon class="cls-1" points="83.78472 48.04368 85.04223 48.04368 85.04223 47.18947 83.78472 47.18947 83.78472 46.4892 85.20995 46.4892 85.20995 45.63522 82.89048 45.63522 82.89048 49.62061 85.26579 49.62061 85.26579 48.76663 83.78472 48.76663 83.78472 48.04368"></polygon>
    <polygon class="cls-1" points="90.56429 45.63522 89.51366 45.63522 88.75356 46.9163 87.95986 45.63522 86.90901 45.63522 88.14983 47.5881 86.84762 49.62061 87.89847 49.62061 88.72553 48.28259 89.56393 49.62061 90.61457 49.62061 89.31235 47.5881 90.56429 45.63522"></polygon>
    <polygon class="cls-1" points="91.91678 46.4892 93.09042 46.4892 93.09042 49.62061 93.98466 49.62061 93.98466 46.4892 95.15852 46.4892 95.15852 45.63522 91.91678 45.63522 91.91678 46.4892"></polygon>
    <polygon class="cls-1" points="97.85794 48.04368 99.11544 48.04368 99.11544 47.18947 97.85794 47.18947 97.85794 46.4892 99.28317 46.4892 99.28317 45.63522 96.9637 45.63522 96.9637 49.62061 99.33899 49.62061 99.33899 48.76663 97.85794 48.76663 97.85794 48.04368"></polygon>
    <polygon class="cls-1" points="103.99485 48.03789 102.13919 45.63522 101.42379 45.63522 101.42379 49.62061 102.26221 49.62061 102.26221 47.22952 104.11765 49.62061 104.83304 49.62061 104.83304 45.63522 103.99485 45.63522 103.99485 48.03789"></polygon>
    <path class="cls-1" d="M108.32081,45.61832c-.25716,0-.95008.0169-1.15696.0169h-.0783v3.98539h.09498c.37461,0,.88868.01134,1.09557.01134,1.49219,0,2.24117-.92228,2.24117-2.03807,0-1.05908-.63152-1.97557-2.19646-1.97557h0ZM108.30413,48.77798c-.12858,0-.20688,0-.32433-.01134v-2.27743c.11189-.0169.2349-.0169.3299-.0169.72652,0,1.2575.38707,1.2575,1.12159,0,.75722-.49184,1.18409-1.26307,1.18408Z"></path>
    <polygon class="cls-1" points="113.38441 48.04368 114.64192 48.04368 114.64192 47.18947 113.38441 47.18947 113.38441 46.4892 114.80964 46.4892 114.80964 45.63522 112.49017 45.63522 112.49017 49.62061 114.86547 49.62061 114.86547 48.76663 113.38441 48.76663 113.38441 48.04368"></polygon>
    <path class="cls-1" d="M118.18551,45.61832c-.25716,0-.95008.0169-1.15696.0169h-.0783v3.98539h.09498c.37461,0,.88868.01134,1.09557.01134,1.49219,0,2.24117-.92228,2.24117-2.03807,0-1.05908-.63152-1.97557-2.19646-1.97557h0ZM118.16884,48.77798c-.12858,0-.20688,0-.32433-.01134v-2.27743c.11189-.0169.2349-.0169.3299-.0169.72652,0,1.2575.38707,1.2575,1.12159,0,.75722-.49184,1.18409-1.26307,1.18408Z"></path>
    <path class="cls-1" d="M125.47361,46.717c0-.18219.14526-.29608.39129-.29608.29052,0,.41909.10255.59238.26761l.48071-.68314c-.24603-.26761-.64844-.43845-1.15139-.43845-.78235,0-1.26307.53521-1.26307,1.15006,0,1.28664,1.63188,1.21279,1.63188,1.81051,0,.18797-.13414.30743-.36882.30743-.27384,0-.61485-.13102-.83841-.42132l-.50851.62064c.18997.42688.79926.65467,1.32468.65467.75433,0,1.34137-.47826,1.34137-1.17275,0-1.29822-1.63211-1.13872-1.63211-1.79916v-.00002Z"></path>
    <polygon class="cls-1" points="128.63127 46.4892 129.80512 46.4892 129.80512 49.62061 130.69937 49.62061 130.69937 46.4892 131.87302 46.4892 131.87302 45.63522 128.63127 45.63522 128.63127 46.4892"></polygon>
    <path class="cls-1" d="M134.49991,45.63522l-1.62632,3.98539h.89981l.32411-.83685h1.54824l.32411.83685h.95586l-1.62655-3.98539s-.79926,0-.79925,0ZM134.43296,47.92978l.44156-1.12737.43577,1.12737s-.87734,0-.87733,0Z"></path>
    <polygon class="cls-1" points="139.69787 47.14409 138.85946 45.63522 137.83664 45.63522 139.21159 47.99807 139.21159 49.62061 140.10584 49.62061 140.10584 47.99807 141.49192 45.63522 140.52493 45.63522 139.69787 47.14409"></polygon>
  </g>
</svg>
