<svg id="Layer_1" data-name="Layer 1" xmlns="http://www.w3.org/2000/svg" width="170" height="70" viewBox="0 0 170 70">
  <defs>
    <style>
      .cls-1 {
        fill: #fff;
      }
    </style>
  </defs>
  <title>footer</title>
  <g>
    <path class="cls-1" d="M41.58708,39.55613H37V28.4442h4.22419a5.57963,5.57963,0,0,1,5.59551,5.56373v.00015a5.45558,5.45558,0,0,1-5.23265,5.54805m-.17352-1.734a3.7187,3.7187,0,0,0,3.48329-3.81408,3.76323,3.76323,0,0,0-3.67265-3.83036H38.89191v7.64444Z"/>
    <path class="cls-1" d="M59.23551,37.09751H54.00286l-1.07147,2.45832H50.88222l4.65893-9.864-.61393-1.24794h2.196l5.24912,11.11193H60.33907ZM54.69634,35.521h3.862L56.6192,31.17121Z"/>
    <polygon class="cls-1" points="76.591 37.917 69.721 37.917 76.793 28.444 67.232 28.444 67.232 30.083 73.362 30.083 66.33 39.557 76.591 39.557 76.591 37.917"/>
    <polygon class="cls-1" points="104.828 37.964 104.828 39.556 97.009 39.556 97.009 28.444 98.948 28.444 98.948 37.964 104.828 37.964"/>
    <polygon class="cls-1" points="118.195 37.917 118.195 39.557 109.841 39.557 109.841 28.444 117.863 28.444 117.863 30.083 111.732 30.083 111.732 33.377 116.886 33.377 116.886 34.953 111.732 34.953 111.732 37.917 118.195 37.917"/>
    <path class="cls-1" d="M128.39779,36.46689c-.17354.01581-.36221.01581-.53573.01581h-2.30134v3.0732H123.622V28.44374h4.79157c3.16786,0,4.25583,1.87609,4.25583,3.90945a3.60735,3.60735,0,0,1-2.3488,3.735L133,39.5559h-2.333Zm-2.83707-1.54484h2.22248c1.87541,0,2.85289-.93024,2.85289-2.44278a2.23559,2.23559,0,0,0-2.52212-2.396H125.5607Z"/>
    <rect class="cls-1" x="67.21098" y="24.04959" width="9.58178" height="1.46462"/>
    <rect class="cls-1" x="81.64916" y="42.48579" width="9.58177" height="1.46462"/>
    <polygon class="cls-1" points="91.237 37.917 84.367 37.917 91.439 28.444 81.877 28.444 81.877 30.083 88.008 30.083 80.976 39.557 91.237 39.557 91.237 37.917"/>
  </g>
</svg>
