<?xml version="1.0" encoding="UTF-8"?>
<svg xmlns="http://www.w3.org/2000/svg" id="Layer_1" data-name="Layer 1" viewBox="0 0 170 70">
  <defs>
    <style>
      .cls-1 {
        fill: none;
      }

      .cls-2 {
        fill: #fff;
      }
    </style>
  </defs>
  <g>
    <path class="cls-2" d="m42.42,37.29c.16,0,.29-.05.37-.13.09-.09.13-.21.13-.37,0-.15-.05-.28-.13-.36-.09-.08-.21-.13-.37-.13h-3.46c-.21,0-.37.06-.49.17s-.17.28-.17.49v5.52c0,.21.06.37.17.49s.28.17.49.17h3.46c.16,0,.29-.05.37-.13.09-.08.13-.21.13-.37s-.05-.28-.13-.37c-.09-.08-.21-.13-.37-.13h-2.93v-1.99h2.72c.16,0,.29-.05.38-.13.08-.08.13-.21.13-.37s-.05-.28-.13-.37c-.08-.08-.21-.13-.38-.13h-2.72v-1.89h2.93Z"></path>
    <path class="cls-2" d="m48.75,39.65l1.92-2.57c.1-.15.16-.29.15-.42s-.07-.24-.17-.32c-.1-.08-.23-.13-.39-.13-.14,0-.25.03-.35.09-.1.06-.2.16-.3.3l-1.53,2.13-1.54-2.13c-.1-.14-.21-.24-.3-.3-.1-.06-.22-.09-.35-.09-.15,0-.28.05-.38.13-.1.09-.16.2-.17.32-.01.13.03.27.14.41l1.92,2.57-2.03,2.7c-.1.14-.15.27-.13.41.01.13.08.24.17.32.1.09.23.13.39.13.13,0,.24-.03.35-.09.1-.07.21-.16.31-.31l1.61-2.23,1.62,2.23c.1.14.21.24.31.31.1.07.21.09.34.09.16,0,.3-.05.41-.13.1-.09.16-.2.17-.32s-.03-.27-.14-.41l-2.04-2.69Z"></path>
    <path class="cls-2" d="m58.28,36.31h-5.01c-.16,0-.3.05-.39.13-.09.09-.14.22-.14.38s.05.29.14.38c.09.09.22.14.39.14h1.9v5.23c0,.2.06.36.16.46.1.12.25.17.46.17s.36-.06.46-.17.15-.27.15-.46v-5.23h1.9c.16,0,.3-.05.39-.14.09-.09.14-.22.14-.38s-.05-.29-.14-.38c-.1-.08-.23-.13-.42-.13Z"></path>
    <path class="cls-2" d="m65.12,37.29c.16,0,.29-.05.37-.13.09-.09.13-.21.13-.37,0-.15-.05-.28-.13-.36-.09-.08-.21-.13-.37-.13h-3.46c-.21,0-.37.06-.49.17s-.17.28-.17.49v5.52c0,.21.06.37.17.49s.28.17.49.17h3.46c.16,0,.29-.05.37-.13.09-.08.13-.21.13-.37s-.05-.28-.13-.37c-.09-.08-.21-.13-.37-.13h-2.93v-1.99h2.72c.16,0,.29-.05.38-.13.08-.08.13-.21.13-.37s-.05-.28-.13-.37c-.08-.08-.21-.13-.38-.13h-2.72v-1.89h2.93Z"></path>
    <path class="cls-2" d="m73.47,36.24c-.19,0-.34.05-.43.15-.1.1-.15.24-.15.44v4.26l-3.46-4.5c-.1-.13-.2-.22-.27-.28-.07-.06-.19-.08-.34-.08-.16,0-.29.06-.39.16s-.15.25-.15.46v5.78c0,.2.05.34.15.44s.24.15.43.15.32-.05.43-.15c.09-.1.15-.25.15-.44v-4.27l3.46,4.5c.1.13.2.22.29.28s.21.09.35.09c.15,0,.28-.05.37-.15.09-.1.14-.24.14-.43v-5.82c0-.19-.05-.34-.15-.44-.09-.1-.24-.15-.43-.15Z"></path>
    <path class="cls-2" d="m78.96,36.31h-1.89c-.21,0-.37.06-.49.17s-.17.28-.17.49v5.52c0,.21.06.37.17.49s.28.17.49.17h1.89c.58,0,1.08-.08,1.52-.23s.81-.37,1.12-.66c.3-.29.53-.65.69-1.06s.23-.9.23-1.46c0-1.1-.31-1.94-.94-2.53-.59-.59-1.47-.89-2.63-.89Zm2.15,4.47c-.09.3-.24.54-.44.74-.2.2-.44.35-.73.44-.29.1-.64.15-1.04.15h-1.22v-4.77h1.22c.79,0,1.38.2,1.77.59.39.39.59.98.59,1.78-.01.42-.06.76-.15,1.06Z"></path>
    <path class="cls-2" d="m89.07,37.29c.16,0,.29-.05.37-.13.09-.09.13-.21.13-.37,0-.15-.05-.28-.13-.36-.09-.08-.21-.13-.37-.13h-3.46c-.21,0-.37.06-.49.17s-.17.28-.17.49v5.52c0,.21.06.37.17.49s.28.17.49.17h3.46c.16,0,.29-.05.37-.13.09-.08.13-.21.13-.37s-.05-.28-.13-.37c-.09-.08-.21-.13-.37-.13h-2.93v-1.99h2.72c.16,0,.29-.05.38-.13.08-.08.13-.21.13-.37s-.05-.28-.13-.37c-.08-.08-.21-.13-.38-.13h-2.72v-1.89h2.93Z"></path>
    <path class="cls-2" d="m94.65,36.31h-1.89c-.21,0-.37.06-.49.17s-.17.28-.17.49v5.52c0,.21.06.37.17.49s.28.17.49.17h1.89c.58,0,1.08-.08,1.52-.23s.81-.37,1.12-.66c.3-.29.53-.65.69-1.06s.23-.9.23-1.46c0-1.1-.31-1.94-.94-2.53-.61-.59-1.49-.89-2.63-.89Zm2.13,4.47c-.09.3-.24.54-.44.74-.2.2-.44.35-.73.44-.29.1-.64.15-1.04.15h-1.22v-4.77h1.22c.79,0,1.38.2,1.77.59.39.39.59.98.59,1.78,0,.42-.05.76-.15,1.06Z"></path>
    <path class="cls-2" d="m108.22,39.37l-1.05-.22c-.37-.08-.64-.19-.79-.32-.15-.14-.23-.32-.23-.56,0-.21.06-.38.17-.53.12-.15.28-.27.49-.35s.46-.13.76-.13c.28,0,.54.03.79.09s.49.15.73.29c.14.08.25.1.36.09.1-.01.2-.06.27-.13s.12-.15.14-.25c.02-.1.01-.2-.02-.3s-.1-.19-.21-.27c-.28-.19-.59-.32-.94-.43-.35-.09-.72-.15-1.1-.15s-.75.05-1.08.15-.6.24-.84.43c-.23.19-.42.41-.54.67-.13.25-.2.54-.2.86,0,.5.15.9.45,1.22.3.3.75.52,1.37.65l1.06.22c.39.08.68.19.84.32.16.13.24.3.24.53,0,.27-.12.49-.35.66s-.6.25-1.11.25c-.35,0-.68-.03-1-.12-.31-.08-.61-.2-.9-.37-.13-.08-.23-.1-.34-.09s-.19.07-.25.15c-.07.08-.1.17-.13.28-.01.1,0,.22.05.32s.13.21.24.28c.2.13.43.23.67.32.25.09.52.15.8.2.28.05.57.06.84.06.42,0,.79-.05,1.11-.15.32-.09.61-.23.84-.42s.42-.39.54-.65c.13-.25.19-.53.19-.84,0-.49-.16-.87-.46-1.16-.3-.25-.78-.47-1.42-.61Z"></path>
    <path class="cls-2" d="m117.19,36.31h-5.01c-.16,0-.3.05-.39.13-.09.09-.14.22-.14.38s.05.29.14.38.22.14.39.14h1.89v5.23c0,.2.06.36.16.46.1.12.25.17.46.17s.36-.06.46-.17.15-.27.15-.46v-5.23h1.9c.16,0,.3-.05.39-.14.09-.09.14-.22.14-.38s-.05-.29-.14-.38c-.12-.08-.24-.13-.41-.13Z"></path>
    <path class="cls-2" d="m122.61,36.76c-.08-.19-.19-.32-.3-.41s-.25-.12-.41-.12-.29.03-.41.12-.22.22-.3.41l-2.56,5.67c-.07.15-.09.28-.07.41s.08.22.17.29.22.1.37.1c.16,0,.3-.05.38-.13.09-.08.17-.22.27-.41l.47-1.12h3.33l.49,1.12c.08.19.16.31.27.41.1.09.24.13.42.13.15,0,.27-.03.36-.1s.15-.16.16-.29c.02-.13-.01-.25-.08-.41l-2.57-5.67Zm-.73.89h.02l1.23,2.92h-2.49l1.24-2.92Z"></path>
    <path class="cls-2" d="m131.7,36.69c0-.13-.05-.23-.15-.32-.09-.09-.22-.13-.39-.13-.14,0-.27.03-.36.09s-.2.16-.3.3l-1.62,2.26-1.6-2.27c-.09-.14-.2-.23-.3-.3-.1-.07-.22-.09-.35-.09-.17,0-.31.05-.41.14-.09.09-.15.21-.16.34-.01.13.02.25.12.37l2.08,2.92v2.57c0,.21.06.37.16.47.1.12.25.17.46.17.42,0,.61-.22.61-.65v-2.56l2.07-2.92c.09-.13.14-.27.13-.39Z"></path>
  </g>
  <g>
    <path class="cls-2" d="m63.61,48.82c.16-.06.29-.16.39-.28.14-.16.21-.37.21-.6,0-.21-.06-.39-.16-.54-.1-.15-.25-.28-.45-.36-.2-.08-.44-.13-.72-.13h-1.37c-.15,0-.25.03-.34.12-.08.08-.12.2-.12.35v3.06c0,.15.03.27.12.35s.2.12.34.12h1.42c.43,0,.76-.1,1.01-.3s.36-.47.36-.82c0-.27-.08-.49-.23-.66-.1-.14-.27-.23-.46-.29Zm-1.71-1.26h.83c.22,0,.38.03.49.12.1.08.16.21.16.37s-.06.28-.16.36-.27.12-.49.12h-.83v-.96Zm1.42,2.55c-.1.08-.27.13-.49.13h-.93v-1.04h.93c.22,0,.38.05.49.13.1.08.16.22.16.39s-.06.3-.16.39Z"></path>
    <path class="cls-2" d="m68.39,46.85c-.09,0-.17.02-.24.07s-.14.12-.21.21l-.81,1.17-.81-1.17c-.07-.09-.14-.17-.21-.21-.07-.05-.15-.07-.24-.07-.13,0-.22.03-.29.1s-.1.15-.12.23c-.01.09.02.17.08.25l1.15,1.64v1.39c0,.15.03.25.12.34.07.08.19.12.32.12.29,0,.44-.15.44-.45v-1.38l1.15-1.63c.07-.09.09-.2.09-.29s-.03-.17-.1-.23c-.1-.06-.2-.09-.31-.09Z"></path>
    <path class="cls-2" d="m77.81,46.85c-.12,0-.21.02-.28.08s-.13.15-.16.27l-.83,2.47-.83-2.45c-.05-.13-.09-.22-.16-.27-.07-.06-.15-.08-.25-.08s-.2.02-.27.08c-.07.06-.13.15-.16.27l-.87,2.42-.81-2.42c-.03-.12-.09-.21-.16-.27s-.16-.08-.29-.08c-.17,0-.29.05-.36.15s-.08.22-.02.36l1.13,3.21c.05.12.1.21.17.27s.17.08.29.08c.13,0,.22-.02.29-.08s.13-.15.17-.27l.84-2.34.82,2.34c.05.12.1.21.17.27s.17.08.29.08.22-.02.29-.08.13-.15.17-.27l1.15-3.21c.06-.14.05-.27-.02-.36-.06-.1-.17-.16-.31-.16Z"></path>
    <path class="cls-2" d="m82.3,46.85c-.09,0-.17.02-.24.07s-.14.12-.21.21l-.81,1.17-.81-1.17c-.07-.09-.14-.17-.21-.21-.07-.05-.15-.07-.24-.07-.13,0-.22.03-.29.1s-.1.15-.12.23c-.01.09.02.17.08.25l1.15,1.64v1.39c0,.15.03.25.12.34.07.08.19.12.32.12.29,0,.44-.15.44-.45v-1.38l1.15-1.63c.07-.09.09-.2.09-.29s-.03-.17-.1-.23c-.1-.06-.2-.09-.31-.09Z"></path>
    <path class="cls-2" d="m87.3,46.85c-.14,0-.24.03-.31.1-.07.07-.1.17-.1.3v2.16l-1.83-2.33c-.07-.08-.14-.15-.19-.19s-.13-.06-.23-.06c-.12,0-.21.03-.28.12-.07.07-.1.19-.1.32v3.22c0,.14.03.24.1.31.07.07.17.1.3.1s.23-.03.3-.1.1-.17.1-.31v-2.16l1.83,2.34c.08.08.14.15.21.19.06.03.15.06.25.06s.2-.03.25-.1c.07-.07.09-.17.09-.29v-3.26c0-.13-.03-.23-.1-.3-.07-.08-.17-.12-.3-.12Z"></path>
    <path class="cls-2" d="m90.87,46.9h-1.1c-.15,0-.25.03-.34.12s-.12.2-.12.35v3.06c0,.15.03.27.12.35s.2.12.34.12h1.1c.35,0,.65-.05.9-.13.27-.09.49-.22.67-.38.19-.17.32-.38.42-.62s.14-.53.14-.84c0-.64-.19-1.12-.56-1.47-.38-.36-.9-.53-1.57-.53Zm1.13,2.55c-.06.16-.13.29-.23.39s-.24.19-.39.23-.35.08-.57.08h-.62v-2.55h.62c.43,0,.75.1.96.31.21.21.31.53.31.96,0,.22-.02.42-.08.57Z"></path>
    <path class="cls-2" d="m97.66,46.85c-.14,0-.25.03-.34.12s-.12.19-.12.34v1.2h-1.84v-1.2c0-.15-.03-.25-.12-.34s-.19-.12-.32-.12-.24.03-.32.12-.12.19-.12.34v3.18c0,.14.03.25.12.34.07.08.19.12.32.12.15,0,.25-.03.34-.12s.12-.19.12-.34v-1.25h1.84v1.25c0,.14.03.25.12.34.08.08.19.12.34.12.14,0,.24-.03.32-.12s.12-.19.12-.34v-3.18c0-.15-.03-.25-.12-.34s-.2-.12-.34-.12Z"></path>
    <path class="cls-2" d="m101.94,47.21c-.06-.13-.13-.22-.22-.27-.08-.06-.17-.08-.29-.08-.1,0-.2.02-.29.08s-.16.15-.22.27l-1.45,3.17c-.05.1-.06.2-.05.28s.06.15.12.2c.07.05.15.07.25.07.13,0,.22-.03.28-.09s.12-.15.19-.28l.23-.54h1.86l.23.54c.06.13.12.22.19.28s.17.09.3.09c.09,0,.19-.02.24-.07.07-.05.1-.12.12-.2s0-.17-.06-.28l-1.44-3.17Zm-.51.62h0l.65,1.5h-1.27l.62-1.5Z"></path>
    <path class="cls-2" d="m108.8,46.95c-.07-.07-.16-.1-.29-.1-.12,0-.2.02-.27.06-.07.05-.13.12-.17.22l-1.22,2.22-1.22-2.22c-.06-.1-.12-.17-.17-.22-.07-.05-.15-.06-.27-.06-.13,0-.23.03-.3.1s-.12.17-.12.3v3.25c0,.13.03.23.1.3.07.07.16.1.29.1s.23-.03.3-.1.1-.17.1-.3v-2.05l.93,1.65c.05.07.09.12.14.15.06.03.13.06.21.06s.14-.01.2-.05c.05-.03.09-.08.14-.16l.93-1.65v2.06c0,.13.03.23.1.3.07.07.16.1.29.1s.23-.03.3-.1.1-.17.1-.3v-3.25c-.01-.14-.05-.24-.12-.31Z"></path>
  </g>
  <path class="cls-1" d="m104.41,24.65c-1.19,0-1.91,1.24-1.91,3.31s.73,3.32,1.91,3.32,1.9-1.27,1.9-3.32c-.01-2.04-.73-3.31-1.9-3.31Z"></path>
  <path class="cls-1" d="m104.41,24.65c-1.19,0-1.91,1.24-1.91,3.31s.73,3.32,1.91,3.32,1.9-1.27,1.9-3.32c-.01-2.04-.73-3.31-1.9-3.31Z"></path>
  <g>
    <path class="cls-2" d="m51.12,28.36v-4.91c0-1.38.01-2.06.41-2.63.52-.72.62-.89.61-1.17-.02-.2-.09-.42-.72-.42h-3.91c-.62,0-.71.22-.72.43-.01.27.09.44.61,1.16.39.57.42,1.26.42,2.63v1.6h-5.2v-1.6c0-1.38.01-2.06.41-2.63.52-.72.62-.89.61-1.17-.02-.2-.09-.42-.72-.42h-3.91c-.62,0-.71.22-.72.43-.01.27.09.44.61,1.16.39.57.42,1.26.42,2.63v4.91c0,1.39-.02,2.08-.42,2.63-.5.69-.62.9-.61,1.18.02.2.09.39.72.39h3.91c.62,0,.71-.2.72-.41.01-.27-.1-.49-.61-1.18-.39-.54-.42-1.24-.42-2.63v-1.87h5.2v1.87c0,1.39-.02,2.08-.42,2.63-.5.69-.62.9-.61,1.18.02.2.09.39.72.39h3.91c.62,0,.71-.2.72-.41.01-.27-.1-.49-.61-1.18-.37-.52-.39-1.22-.39-2.6Z"></path>
    <path class="cls-2" d="m76.44,26.46c.37-1.27.79-1.79,1.06-2.13.2-.24.3-.37.32-.64,0-.07,0-.15-.07-.22-.07-.07-.19-.1-.34-.1h-2.11c-.53,0-.56.24-.57.36-.03.24.06.38.2.58.27.37.64.88.22,2.28l-1.17,4.09-.19-.74c-.01-.06-1.32-5.35-1.49-5.98-.14-.49-.21-.58-.65-.58h-1.1c-.43,0-.53.1-.68.71-.17.6-1.57,5.8-1.59,5.86l-.19.71-.2-.71s-1.13-3.97-1.3-4.51c-.13-.46.13-.75.32-1,.15-.17.29-.34.31-.57s-.05-.3-.07-.34c-.14-.15-.52-.17-.9-.17h-3.12c-.74,0-.82.19-.86.42-.03.34.08.5.49,1.04.45.61.66,1.04,1.25,2.73.65,1.91,1.28,3.76,1.35,3.93.38,1.02.97,1.09,1.9,1.09,1,0,1.49-.17,1.77-1.17.08-.24.31-1.17.57-2.14.12-.44.22-.89.34-1.33l.19-.74.21.73c.39,1.44.87,3.23.96,3.58.3,1,.91,1.06,1.91,1.06.91,0,1.39-.17,1.77-1.18.05-.16.89-3.03,1.44-4.91Z"></path>
    <path class="cls-2" d="m86.01,30.49c-.17-.2-.49-.08-.65.01-.57.31-1.12.36-1.53.13-.35-.21-.54-.6-.54-1.12v-4.84h1.83c.31,0,.57-.25.57-.57v-.17c0-.3-.27-.57-.57-.57h-1.83v-1.65c0-.58-.12-.72-.58-.72h-.79c-.47,0-.6.34-.78.94-.2.64-.43,1.44-1.49,1.44h-.41c-.31,0-.57.25-.57.57v.17c0,.32.24.57.57.57h.87v4.98c0,2.71,1.87,3.11,3,3.11,1.42,0,2.56-.8,2.9-1.55.08-.17.17-.49-.01-.72Z"></path>
    <path class="cls-2" d="m97.64,28.36v-2.12c0-1.47-.86-3.03-3.25-3.03-.98,0-1.9.39-2.71,1.18l-.35.34v-4.43c0-.36-.07-.83-.37-1.06-.24-.19-.6-.21-1.08-.08-.09.03-.37.12-.74.23-.42.13-.9.27-1.22.38-.61.2-.76.42-.79.69-.01.28.09.49.59,1.18.39.54.43,1.22.43,2.63v4.12c0,1.4-.05,2.07-.43,2.62-.5.69-.6.9-.59,1.18.02.2.09.39.72.39h3.77c.68,0,.69-.24.69-.39.03-.29-.09-.5-.59-1.19-.39-.54-.42-1.24-.42-2.63v-1.39c0-1.82.96-2.09,1.54-2.09.72,0,1.19.39,1.41,1.16.19.61.19,1.39.19,2.07v.25c0,1.39-.02,2.08-.42,2.63-.51.68-.62.9-.61,1.18.02.2.09.39.72.39h3.77c.62,0,.69-.2.72-.41.01-.28-.12-.49-.61-1.18-.36-.53-.38-1.23-.38-2.62Z"></path>
    <path class="cls-2" d="m118.96,24.14c-.36-.61-1.05-.95-1.96-.95s-1.61.31-2.21.96l-.29.31-.06-.43c-.05-.35-.17-.59-.38-.73-.14-.09-.3-.13-.5-.13-.16,0-.34.02-.53.08-.22.06-1.38.42-1.96.6-.61.2-.76.42-.79.69-.01.28.09.49.59,1.18.39.54.42,1.3.42,2.67s-.02,2.03-.42,2.57c-.5.69-.6.9-.59,1.18.02.2.09.39.72.39h3.91c.59,0,.67-.2.71-.42.05-.29-.23-.64-.71-1.15-.42-.46-.43-1.23-.43-2.65v-2.42c.01-.39.03-1.2.83-1.2.56,0,.72.38.87.75.09.21.19.45.37.68.29.39.72.6,1.2.57.49-.02.94-.3,1.17-.71.34-.61.35-1.32.02-1.87Z"></path>
    <path class="cls-2" d="m130.72,28.36v-2.12c0-1.47-.86-3.03-3.25-3.03-1,0-1.91.41-2.71,1.19l-.32.32-.02-.45c-.02-.45-.16-.75-.39-.93-.24-.17-.6-.2-1.06-.07-.22.06-1.38.42-1.96.6-.61.2-.76.42-.79.69-.01.28.09.49.59,1.18.41.56.43,1.38.43,2.67s-.05,2.04-.43,2.57c-.5.69-.6.9-.59,1.18.02.2.09.39.72.39h3.77c.68,0,.69-.24.69-.39.03-.29-.09-.5-.59-1.19-.39-.54-.42-1.24-.42-2.63v-1.39c0-1.82.96-2.09,1.54-2.09.72,0,1.19.39,1.41,1.16.19.61.19,1.39.19,2.07v.25c0,1.39-.02,2.08-.42,2.63-.5.69-.62.9-.61,1.18.02.2.09.39.72.39h3.77c.62,0,.69-.2.72-.41.01-.28-.12-.49-.61-1.18-.36-.53-.37-1.23-.37-2.62Z"></path>
    <path class="cls-2" d="m62.97,31.01c-.16-.09-.36-.21-.56-.43-.44-.46-.44-1.44-.43-2.67v-.83c0-2.65-1.27-3.88-4.02-3.88-1.55,0-3.51.3-4.05,1.71-.13.31-.13.61-.01.87.1.24.32.45.58.54.39.13.73.13,1.01-.01.32-.16.57-.51.73-1.03.23-.73.79-1.08,1.57-.96,1.02.15,1.02,1.33,1.02,2.28v.47h-.21c-3.89,0-5.62.98-5.62,3.17,0,1.55,1.22,2.51,3.17,2.51,1.15,0,1.91-.37,2.42-1.16l.22-.35.14.38c.29.78,1.01,1.12,2.33,1.12,1.04,0,1.98-.6,2.01-1.3h0c.02-.25-.06-.31-.3-.45Zm-4.02-1.5c-.02,1.61-.87,1.84-1.38,1.83-.43-.01-.78-.14-1.02-.41-.27-.29-.39-.72-.36-1.24.08-.9.73-1.59,1.61-1.71.41-.06.73-.09.94.09.19.16.21.44.21.66v.78Z"></path>
    <path class="cls-2" d="m104.41,23.19c-3.18,0-5.16,1.83-5.16,4.77s1.98,4.78,5.16,4.78,5.14-1.83,5.14-4.78-1.98-4.77-5.14-4.77Zm0,8.09c-1.18,0-1.91-1.27-1.91-3.32s.72-3.31,1.91-3.31,1.9,1.26,1.9,3.31c-.01,2.05-.73,3.32-1.9,3.32Z"></path>
  </g>
</svg>
