<svg id="Layer_1" data-name="Layer 1" xmlns="http://www.w3.org/2000/svg" viewBox="0 0 170 70"><defs><style>.cls-1{fill:#fff;}</style></defs><title>footer</title><path class="cls-1" d="M122,36l-.18.11a4.22,4.22,0,0,1-.61.28c-.16.06-.37.11-.41.32a2,2,0,0,0,0,.64.66.66,0,0,0,.91.63,1.88,1.88,0,0,0,.79-.35,1.11,1.11,0,0,0,.59-.93C123,36.06,122.57,35.76,122,36Z"/><path class="cls-1" d="M68,29.68a5.33,5.33,0,0,0-3.56,1.71A3.38,3.38,0,0,0,64.94,30c0-.48-.12-.95-.72-.95A11.32,11.32,0,0,0,63,30.65a16.51,16.51,0,0,1-5.22,3.87c0-1.33-.71-2.94.33-4,.61-.44,1.09-.66,1.09-1.09s-.48-1.19-1.67-1.19c-1.64,0-2.14,1.59-2.24,2.49l0,0c-.59.59-5.72,4.64-8.1,4.64a1.12,1.12,0,0,1-1.09-.64c4.89-.53,5.63-5.08,1.92-5.08a5.14,5.14,0,0,0-4.77,4.89,2.7,2.7,0,0,0,3,2.74c2.88,0,7.34-3.45,9.06-4.94,0,1.05-.07,2.63-.36,2.92a.45.45,0,0,1-.23.11h0a4.67,4.67,0,0,1-2.27-.24c-.48-.24-1.19,2.14,1.19,2.14h.12a12.09,12.09,0,0,0,6-2.07c-2.1,3.07-5.21,7.87-5.29,9.34-.12,2,2,2.86,2.38,2.15s1.55-4.17,3.34-7.75c.61-1.25,1.28-2.44,1.92-3.53.22,1.19.75,1.86,1.89,1.86C68.75,37.31,71.85,29.68,68,29.68ZM47.89,31.59c1.42,0,.74,1.6-1.87,1.87C46.24,32.52,47,31.59,47.89,31.59ZM64,35.4c-.76,0-1-.51-1-1.11.82-1.19,2.71-2.82,3.54-2.82C67.68,31.47,65.53,35.4,64,35.4Z"/><path class="cls-1" d="M109.55,23.36c-.24,0-2.5,3.58-4.89,7.16l-.92,1.34c-.18-1.38-.7-2.18-1.94-2.18a5.9,5.9,0,0,0-4.72,2.9c-.9,1.15-2.24,2.82-3.27,2.82-1.78,0,2.15-5.72-2.5-5.72-1.38,0-2.79,1.06-3.92,2.16a2.7,2.7,0,0,0,.22-.85c0-.47-.35-.83-.59-.83s-.36.19-.61.51c-1.22,1.26-4.69,4.73-7.62,4.73a1.21,1.21,0,0,1-1.18-.63c5-.48,5.75-5.09,2-5.09a5.14,5.14,0,0,0-4.77,4.89,2.69,2.69,0,0,0,3,2.74c2,0,4.08-1.26,5.83-2.63A8.52,8.52,0,0,0,82.49,37c0,.48,1.43.84,1.91.24.15-.21.33-.48.53-.8,1-1.37,3.68-4.8,5.67-4.8,2.38,0-1.55,5.72,2.14,5.72a5.32,5.32,0,0,0,3.31-1.5,1.54,1.54,0,0,0,1.7,1.5,5.52,5.52,0,0,0,3.69-1.89c-.2.37-.39.75-.59,1.18-.6,1.31,0,3.21,1.07,3.21s.36-1.07,1-2.62c1.08-2.86,6.92-8.7,7.63-11.2C110.86,24.8,110.14,23.36,109.55,23.36Zm-30,8.23c1.44,0,.72,1.64-2,1.88A2.33,2.33,0,0,1,79.51,31.59Zm22.29,0c.76,0,1,.52,1,1.12-.8,1.15-2.6,2.69-3.42,2.69C98.22,35.4,100.25,31.59,101.8,31.59Z"/><path class="cls-1" d="M121.23,33a3.05,3.05,0,0,0-.57-1.53c.74-.73,2.24-1.95,2.24-2s.12-1.19-1.79-1.19c-1.56,0-2,1.44-2.11,2.35a13.56,13.56,0,0,1-5.66,2.82c.91-1.88.65-3.74-1.77-3.74-5,0-7.86,7.63-3.69,7.63A6.1,6.1,0,0,0,112.26,35a12.14,12.14,0,0,0,7-3.07.94.94,0,0,1,.1.1c.6.47-2.5,2.62-2.5,4.29s1.67,2.5,2,2.14-.12-.71-.12-1.19C118.73,36.24,121.23,34.21,121.23,33Zm-9.3-1.43c.76,0,.55.91-.06,1.84a1.85,1.85,0,0,1-1.48-1.19A2.52,2.52,0,0,1,111.93,31.59Zm-2.66,1.92a3.18,3.18,0,0,0,1.4,1.27,2.31,2.31,0,0,1-1.36.62C108.54,35.4,108.68,34.46,109.27,33.51Z"/><path class="cls-1" d="M73.92,30.85c7.94-3.25,8.5-8.5,5.09-7.84C71.26,24.56,67.08,39.1,73.28,39.1c.84,0,1.43-.48,1.43-.72S73.4,37.67,73.4,34A10.31,10.31,0,0,1,73.92,30.85Zm5.2-6.41c1.58-.3-.91,3.06-4.58,4.85C75.8,26.65,77.81,24.67,79.12,24.44Z"/><path class="cls-1" d="M70,46.57a.55.55,0,0,1-.17.2,1.13,1.13,0,0,1-.27.13,1.55,1.55,0,0,1-.31,0H68V44.39h1.37a.48.48,0,0,1,.24.06.62.62,0,0,1,.18.14.88.88,0,0,1,.12.21A.67.67,0,0,1,70,45a.73.73,0,0,1-.09.35.55.55,0,0,1-.28.24.62.62,0,0,1,.35.23.7.7,0,0,1,.13.42A.57.57,0,0,1,70,46.57Zm-1.49-1.11h.66a.33.33,0,0,0,.22-.09.36.36,0,0,0,.08-.24.31.31,0,0,0-.08-.23.25.25,0,0,0-.2-.09h-.68Zm1,.6a.41.41,0,0,0-.07-.11.23.23,0,0,0-.09-.08.25.25,0,0,0-.12,0h-.76v.67h.74l.12,0a.26.26,0,0,0,.11-.07.33.33,0,0,0,.06-.1.31.31,0,0,0,0-.13A.51.51,0,0,0,69.56,46.06Z"/><path class="cls-1" d="M72.51,45.62l.64-1.23h.53l-.92,1.66v.89h-.5V46l-.92-1.65h.54Z"/><path class="cls-1" d="M80,46.94h-.51l-.65-1.74-.64,1.74h-.52l-.79-2.55h.55l.55,1.81.58-1.81h.53l.6,1.81.54-1.81h.56Z"/><path class="cls-1" d="M83.2,45.62l.64-1.23h.53l-.93,1.66v.89H83V46L82,44.39h.54Z"/><path class="cls-1" d="M86.38,46.94h-.5V44.39h.39l1.32,1.67V44.39h.5v2.55h-.4L86.38,45.3Z"/><path class="cls-1" d="M89.85,44.39h.93a1.35,1.35,0,0,1,.55.1,1.23,1.23,0,0,1,.39.27,1.47,1.47,0,0,1,.24.4,1.64,1.64,0,0,1,.08.5,1.42,1.42,0,0,1-.09.52,1.13,1.13,0,0,1-.25.41,1.53,1.53,0,0,1-.4.26,1.42,1.42,0,0,1-.52.09h-.93Zm1.64.93a.93.93,0,0,0-.15-.26.61.61,0,0,0-.24-.18.79.79,0,0,0-.32-.06h-.43V46.5h.43a.88.88,0,0,0,.33-.06.58.58,0,0,0,.23-.18,1,1,0,0,0,.15-.27,1.14,1.14,0,0,0,.05-.33A1.27,1.27,0,0,0,91.49,45.32Z"/><path class="cls-1" d="M95.8,46.94h-.49V45.85H94.15v1.09h-.5V44.39h.5v1h1.16v-1h.49Z"/><path class="cls-1" d="M98.72,44.39l1,2.55h-.51L99,46.3h-.89l-.24.64h-.51l1-2.55Zm-.21.56-.37,1h.72Z"/><path class="cls-1" d="M103.28,45.25l-.65,1.26h-.27l-.66-1.26v1.69h-.5V44.39h.54l.75,1.45.76-1.45h.53v2.55h-.5Z"/></svg>