<svg id="Layer_1" data-name="Layer 1" xmlns="http://www.w3.org/2000/svg" viewBox="0 0 170 70"><defs><style>.cls-1{fill:#fff;}</style></defs><title>wyngate</title><path class="cls-1" d="M78.69,23c1.37.24,2.11.77,3.18,2.43l3,4.57c.13.21.21.23.31.23s.17,0,.3-.23l3-4.57c1.07-1.67,1.81-2.2,3.17-2.43.41-.07.7-.25.7-.63,0-.76-1.48-2-3.28-2a.71.71,0,0,1-.73-.47,3.52,3.52,0,0,0-4.75-1.48,3.6,3.6,0,0,0-1.49,1.48.68.68,0,0,1-.72.47c-1.79,0-3.27,1.29-3.27,2,0,.38.28.56.69.63Z"/><path class="cls-1" d="M94.71,23.73c2.3,0,3.14,1.21,3.14,1.7,0,.19-.11.37-.46.37a4,4,0,0,0-3.47,2.28l-1.14,1.83h-5.1l2-3.14a5.84,5.84,0,0,1,5-3ZM95,29.91h5.19a1.7,1.7,0,0,1,1.47-.7c.42,0,.53-.24.53-.46,0-.63-1-1.58-2.83-1.58A5,5,0,0,0,95,29.91ZM72.84,25.8a4,4,0,0,1,3.47,2.28l1.14,1.83h5.12l-2-3.14a5.84,5.84,0,0,0-5-3c-2.31,0-3.14,1.21-3.14,1.7,0,.19.11.37.45.37ZM70,29.91h5.19c-1.39-2.2-3-2.74-4.36-2.74-1.82,0-2.82.95-2.82,1.58,0,.22.1.46.53.46A1.69,1.69,0,0,1,70,29.91Z"/><path class="cls-1" d="M99.74,32.66H97.89L93.14,43.45H95.3l1.08-2.54h4.81l1.07,2.54h2.23Zm.68,6.4H97.15l1.64-3.8Z"/><path class="cls-1" d="M82.17,38.11a5.42,5.42,0,0,1,5.27-5.55h.34a6,6,0,0,1,4,1.57l-1.28,1.53a3.94,3.94,0,0,0-2.78-1.18A3.5,3.5,0,0,0,84.2,38v.11a3.55,3.55,0,0,0,3.45,3.64h.14A5.61,5.61,0,0,0,90,41.25v-2H87.63v-2h4.49v5.33a10.2,10.2,0,0,1-4.37,1,5.35,5.35,0,0,1-5.57-5.13c0-.13,0-.26,0-.39Z"/><polygon class="cls-1" points="60.28 43.52 63.42 32.74 61.27 32.74 59.28 40.07 57 32.71 55.01 32.71 52.69 40.06 50.73 32.74 48.5 32.74 51.7 43.52 53.52 43.52 55.94 35.87 58.39 43.52 60.28 43.52 60.28 43.52"/><polygon class="cls-1" points="77.73 39.78 72.28 32.74 70.41 32.74 70.41 38.51 70.41 43.45 72.45 43.45 72.45 36.2 78.06 43.45 79.77 43.45 79.77 38.51 79.77 32.74 77.73 32.74 77.73 39.78 77.73 39.78"/><polygon class="cls-1" points="64.99 38.25 64.99 32.74 67.06 32.74 67.06 38.12 67.06 43.45 64.99 43.45 64.99 38.25 64.99 38.25"/><polygon class="cls-1" points="106.79 38.9 106.79 34.67 103.54 34.67 103.54 32.74 112.11 32.74 112.11 34.67 108.86 34.67 108.86 39.03 108.86 43.45 106.79 43.45 106.79 38.9 106.79 38.9"/><polygon class="cls-1" points="113.64 38.38 113.64 32.74 121.43 32.74 121.43 34.84 115.7 34.84 115.7 37.07 120.74 37.07 120.74 38.99 115.7 38.99 115.7 41.35 121.5 41.35 121.5 43.45 113.64 43.45 113.64 38.38 113.64 38.38"/><polygon class="cls-1" points="65.55 49.98 63.55 46.88 64.71 46.88 66.06 49.07 67.4 46.88 68.55 46.88 66.55 49.97 66.55 52.03 65.55 52.03 65.55 49.98 65.55 49.98"/><path class="cls-1" d="M103.09,46.84h-.89L99.92,52h1l.52-1.22h2.33l.51,1.22h1.07l-2.29-5.19Zm.33,3.13h-1.58l.79-1.83Z"/><path class="cls-1" d="M91.19,46.87H89.26V52h1.93a2.58,2.58,0,1,0,.32-5.16h-.32m0,4.25h-.94V47.79h.94a1.67,1.67,0,1,1,0,3.33"/><polygon class="cls-1" points="80.42 48.92 79.17 46.88 78 46.88 79.91 49.91 79.91 52.03 80.92 52.03 80.92 49.88 82.82 46.88 81.69 46.88 80.42 48.92 80.42 48.92"/><polygon class="cls-1" points="76.09 52.07 77.61 46.88 76.57 46.88 75.61 50.41 74.52 46.86 73.56 46.86 72.44 50.4 71.49 46.88 70.41 46.88 71.95 52.07 72.84 52.07 74 48.38 75.19 52.07 76.09 52.07 76.09 52.07"/><polygon class="cls-1" points="86.94 50.26 84.31 46.88 83.41 46.88 83.41 49.28 83.41 52.03 84.39 52.03 84.39 48.54 87.1 52.03 87.92 52.03 87.92 49.54 87.92 46.88 86.94 46.88 86.94 50.26 86.94 50.26"/><polygon class="cls-1" points="99.2 52.03 99.2 49.41 99.2 46.88 98.22 46.88 98.22 48.98 95.9 48.98 95.9 46.88 94.91 46.88 94.91 49.66 94.91 52.03 95.9 52.03 95.9 49.91 98.22 49.91 98.22 52.03 99.2 52.03 99.2 52.03"/><polygon class="cls-1" points="108.52 49.22 107.01 46.88 105.99 46.88 105.99 49.41 105.99 52.03 106.96 52.03 106.96 48.55 108.46 50.79 108.55 50.79 110.06 48.53 110.06 52.03 111.06 52.03 111.06 49.66 111.06 46.88 110.03 46.88 108.52 49.22 108.52 49.22"/><path class="cls-1" d="M63.2,48.19a1.25,1.25,0,0,1-.73,1.16,1.26,1.26,0,0,1,1,1.24c0,.92-.75,1.44-1.9,1.44H59.21V46.87h2.31C62.68,46.87,63.2,47.49,63.2,48.19Zm-1,.19c0-.33-.25-.61-.86-.61H60.21V49h1.11c.58,0,.86-.26.86-.62Zm.28,2.13c0-.36-.23-.62-.94-.62H60.21v1.25h1.31c.68,0,.94-.25.94-.63Z"/></svg>