<svg width="109" height="84" viewBox="0 0 109 84" fill="none" xmlns="http://www.w3.org/2000/svg">
  <g clip-path="url(#clip0_1_3797)">
    <path
      d="M55.6645 39.3105C55.1535 39.3105 54.6462 39.3311 54.1465 39.3702L55.4296 51.2033H55.9482L57.1147 39.3652C56.635 39.3287 56.1528 39.3105 55.6645 39.3105Z"
      fill="#58595B" />
    <path
      d="M55.6653 38.3215C56.1839 38.3215 56.6987 38.342 57.2085 38.3812L60.8459 1.50753L49.8721 0.0644531L54.0393 38.3892C54.5781 38.3445 55.1166 38.3215 55.6653 38.3215Z"
      fill="#58595B" />
    <path
      d="M51.6607 39.7291C51.1598 39.8348 50.6687 39.961 50.1865 40.102L53.9407 51.4093L54.4505 51.3011L53.0883 39.4824C52.6123 39.5477 52.1364 39.6291 51.6607 39.7291Z"
      fill="#58595B" />
    <path
      d="M51.4524 38.7624C51.9585 38.6555 52.467 38.5678 52.9729 38.5014L48.7403 1.69043L37.7051 2.54811L49.8767 39.1645C50.3915 39.0104 50.915 38.8754 51.4524 38.7624Z"
      fill="#58595B" />
    <path
      d="M47.8311 40.9689C47.3665 41.1763 46.9108 41.3995 46.4727 41.6388L52.5295 51.9169L53.004 51.7069L49.1771 40.4307C48.7251 40.5923 48.278 40.7719 47.8311 40.9689Z"
      fill="#58595B" />
    <path
      d="M47.4249 40.0651C47.897 39.8569 48.3766 39.6674 48.8563 39.4964L36.9432 4.37402L26.3311 7.49867L45.9684 40.7859C46.438 40.5288 46.9238 40.2882 47.4249 40.0651Z"
      fill="#58595B" />
    <path
      d="M44.3479 42.9729C43.9385 43.2724 43.5419 43.585 43.1602 43.91L51.2587 52.7066L51.6754 52.4039L45.552 42.1699C45.1465 42.4204 44.7447 42.6882 44.3479 42.9729Z"
      fill="#58595B" />
    <path
      d="M43.759 42.1729C44.1771 41.8715 44.6053 41.5862 45.0397 41.3215L25.9687 9.44238L16.2529 14.6924L42.487 43.1784C42.8938 42.8298 43.3182 42.4935 43.759 42.1729Z"
      fill="#58595B" />
    <path
      d="M41.3702 45.6529C41.0287 46.0307 40.7073 46.4192 40.4033 46.8162L50.1794 53.7423L50.5259 53.3595L42.3734 44.6182C42.0281 44.9475 41.6966 45.2924 41.3702 45.6529Z"
      fill="#58595B" />
    <path
      d="M40.6242 44.9937C40.9683 44.6109 41.3274 44.2442 41.6952 43.8943L16.3112 16.668L7.91895 23.8135L39.5922 46.2402C39.9161 45.8152 40.2588 45.3988 40.6242 44.9937Z"
      fill="#58595B" />
    <path
      d="M39.0199 48.8912C38.7662 49.3318 38.5327 49.7754 38.3193 50.2279L49.3457 54.9776L49.6006 54.532L39.7845 47.6719C39.5171 48.0664 39.2623 48.4711 39.0199 48.8912Z"
      fill="#58595B" />
    <path
      d="M8.39473 25.7334L1.69629 34.4578L37.4075 49.8325C37.6336 49.3502 37.8797 48.873 38.1508 48.4019C38.4069 47.9551 38.6807 47.5226 38.9681 47.105L8.39473 25.7334Z"
      fill="#58595B" />
    <path
      d="M59.6702 39.7299C59.1693 39.623 58.6695 39.5378 58.1724 39.4727L56.9268 51.3118L57.4339 51.4187L61.0752 40.0823C60.6157 39.9487 60.1461 39.8305 59.6702 39.7299Z"
      fill="#58595B" />
    <path
      d="M59.8801 38.7629C60.3874 38.8697 60.8858 38.9971 61.3755 39.1406L72.7209 3.83489L62.2983 0.150391L58.2754 38.49C58.8104 38.559 59.3453 38.6491 59.8801 38.7629Z"
      fill="#58595B" />
    <path
      d="M63.4981 40.9692C63.0312 40.7616 62.5591 40.5745 62.0869 40.4092L58.3691 51.7264L58.8424 51.9364L64.799 41.6055C64.377 41.378 63.9426 41.1667 63.4981 40.9692Z"
      fill="#58595B" />
    <path
      d="M63.9067 40.0653C64.3813 40.2752 64.8421 40.5034 65.2903 40.7452L83.8441 8.56961L74.4271 2.80762L62.3975 39.4687C62.9034 39.6458 63.4069 39.8453 63.9067 40.0653Z"
      fill="#58595B" />
    <path
      d="M66.9788 42.9731C66.567 42.6722 66.145 42.3939 65.7182 42.1328L59.6914 52.4315L60.1083 52.7348L68.1163 43.8636C67.7522 43.556 67.373 43.2576 66.9788 42.9731Z"
      fill="#58595B" />
    <path
      d="M67.5713 42.1735C67.9906 42.478 68.3938 42.7962 68.7792 43.1243L93.72 15.5009L85.7296 7.91797L66.2178 41.2792C66.6761 41.5577 67.1281 41.8541 67.5713 42.1735Z"
      fill="#58595B" />
    <path
      d="M69.9613 45.6537C69.6211 45.2752 69.2681 44.9142 68.9066 44.5693L60.8369 53.3927L61.1797 53.7773L70.8841 46.7593C70.5929 46.3815 70.2864 46.0135 69.9613 45.6537Z"
      fill="#58595B" />
    <path
      d="M70.7078 44.9941C71.053 45.3782 71.3795 45.7717 71.6871 46.1737L101.914 24.3235L95.7013 15.2529L69.5752 43.8383C69.9669 44.2049 70.3437 44.5903 70.7078 44.9941Z"
      fill="#58595B" />
    <path
      d="M71.5064 47.6133L61.7529 54.571L62.0079 55.0178L72.9802 50.1649C72.7744 49.7349 72.5521 49.3098 72.3099 48.891C72.0562 48.4504 71.7901 48.0252 71.5064 47.6133Z"
      fill="#58595B" />
    <path
      d="M103.902 24.4912L72.3154 47.0349C72.6216 47.4755 72.908 47.9297 73.1791 48.402C73.4354 48.8477 73.6739 49.3019 73.8899 49.7574L108.062 34.6475L103.902 24.4912Z"
      fill="#58595B" />
    <path
      d="M8.4064 64.601L8.67273 64.5525C8.75418 64.4991 8.73544 64.3239 8.64879 64.2881C8.41902 64.3039 8.13769 64.3142 7.79492 64.3142C7.61545 64.3142 7.34927 64.3039 7.13072 64.2881C6.99269 64.8951 6.73152 65.4402 6.47287 66.049L5.70822 67.8196C5.52985 68.2555 5.41575 68.5138 5.28635 68.7813C5.18081 68.5685 4.97128 68.107 4.90591 67.9499L4.01202 65.8179C3.80862 65.3202 3.59759 64.8405 3.56495 64.2881C3.26612 64.3142 2.98111 64.3142 2.69475 64.3142C2.39467 64.3142 2.17753 64.3039 1.9327 64.2881C1.86113 64.3142 1.85108 64.4906 1.90005 64.5525L2.17753 64.6095C2.49394 64.664 2.61573 64.8582 2.61573 65.2929C2.61573 65.8549 2.56802 66.6214 2.53404 67.2484C2.49394 68.2082 2.47762 68.8085 2.41232 69.3894C2.36218 69.9533 2.29924 70.0911 1.90883 70.1468L1.76946 70.1656C1.72175 70.2104 1.72175 70.3869 1.79465 70.4324C2.1109 70.4142 2.40486 70.4052 2.66469 70.4052C2.96478 70.4052 3.21589 70.4142 3.51724 70.4324C3.58252 70.3966 3.58252 70.2202 3.52485 70.1656L3.25616 70.1086C2.90836 70.0438 2.89698 69.8976 2.89698 69.2888C2.89698 68.5327 2.91582 67.7093 2.93213 67.1466C2.94712 66.7608 2.96478 66.0405 2.98111 65.5857H2.99743C3.09544 65.8629 3.31384 66.4449 3.46828 66.8324L4.19015 68.6049C4.37724 69.0668 4.72628 69.9722 4.86573 70.4688C4.92098 70.5069 5.04144 70.5069 5.07542 70.4688C5.22106 70.0364 5.62662 69.0117 5.90402 68.3666L6.6022 66.7408C6.75412 66.3716 6.87089 66.0963 7.08937 65.5857H7.1057V66.4449V69.3621C7.1057 69.9879 7.08059 70.0638 6.75414 70.1183L6.53575 70.1656C6.45539 70.2202 6.48788 70.3966 6.5545 70.4324C6.90984 70.4142 7.26007 70.4052 7.64183 70.4052C7.96585 70.4052 8.28335 70.4142 8.63249 70.4324C8.72289 70.3966 8.73042 70.2013 8.64882 70.1656L8.41144 70.1183C8.15286 70.0825 8.06364 70.0177 8.03986 69.3997C7.98219 68.0336 7.96586 66.6675 7.96586 65.3013C7.96585 64.8121 8.0473 64.6543 8.4064 64.601Z"
      fill="#58595B" />
    <path
      d="M11.611 70.1653L11.375 70.118C11.0749 70.0725 11.0435 70.0435 11.2067 69.5002L11.5382 68.3936C11.611 68.1438 11.6035 68.1438 11.8144 68.1438H12.8954C13.1227 68.1438 13.1453 68.1438 13.2281 68.3936L13.6099 69.6487C13.7153 70.0435 13.6902 70.0999 13.3964 70.1357L13.2194 70.1653C13.1704 70.2199 13.1805 70.3866 13.2432 70.4327C13.5282 70.4236 13.886 70.4049 14.2351 70.4049C14.6571 70.4049 14.9583 70.4139 15.2897 70.4327C15.3451 70.3866 15.3451 70.2302 15.2823 70.1653L15.1592 70.1357C14.7474 70.0525 14.7047 69.9876 14.5177 69.3722L13.3487 65.5049C13.2194 65.0888 13.114 64.6541 12.9846 64.2393C12.9507 64.1932 12.9117 64.166 12.8452 64.166C12.8289 64.166 12.5628 64.5449 12.2789 64.6092C12.3028 64.7657 12.2261 64.987 12.1233 65.2823L11.0108 68.5688C10.8401 69.0666 10.7107 69.4552 10.614 69.6935C10.491 69.9979 10.4031 70.0822 10.1672 70.118L9.92349 70.1653C9.86574 70.2472 9.87335 70.3866 9.93103 70.4327C10.2161 70.4139 10.4659 70.4049 10.7346 70.4049C11.0673 70.4139 11.3359 70.4139 11.5959 70.4327C11.6612 70.3952 11.6676 70.2303 11.611 70.1653ZM11.8144 67.461L12.1558 66.3805C12.3028 65.9457 12.3668 65.7158 12.3995 65.6515H12.4146C12.4572 65.7158 12.5049 65.8923 12.6432 66.3805L12.9846 67.4894C13.0486 67.709 13.0172 67.7289 12.79 67.7289H11.945C11.749 67.7289 11.724 67.7289 11.8144 67.461Z"
      fill="#58595B" />
    <path
      d="M18.2389 70.1656L18.0593 70.1371C17.8559 70.1014 17.7179 70.0455 17.645 69.9073C17.507 69.6308 17.4994 68.7813 17.4994 68.0893V66.2891C17.4994 65.801 17.4994 65.6991 17.5244 65.6991C17.6625 65.8368 17.9238 66.1872 18.45 66.8628L20.3496 69.3264C20.9348 70.0825 21.1707 70.3967 21.3012 70.5894C21.3966 70.5991 21.5122 70.5633 21.575 70.4615C21.5512 70.2492 21.5512 69.1141 21.5512 68.8358V66.6317C21.5512 65.9028 21.5512 65.0994 21.6653 64.8139C21.7207 64.6659 21.8613 64.6283 22.0145 64.6011L22.2016 64.5544C22.2655 64.4906 22.2505 64.333 22.1852 64.2881C21.8939 64.3057 21.6804 64.3142 21.3314 64.3142C21.0162 64.3142 20.7161 64.3058 20.3999 64.2881C20.3182 64.3142 20.3093 64.4906 20.3822 64.5544L20.5706 64.5828C20.7715 64.6186 20.902 64.6743 20.9749 64.8139C21.1218 65.0891 21.1292 65.9386 21.1292 66.6317V68.4308C21.1292 68.5787 21.1292 68.6248 21.1054 68.6522C21.0238 68.5975 20.2705 67.6201 19.9252 67.1944L19.1166 66.1969C18.8315 65.8471 17.9465 64.6829 17.8082 64.2881C17.6124 64.3057 17.4191 64.3142 17.2483 64.3142C17.0462 64.3142 16.5978 64.3245 16.289 64.2881C16.2087 64.3142 16.2011 64.4997 16.2564 64.5544L16.3794 64.5828C16.4924 64.6114 16.7209 64.6829 16.8088 64.7677C17.085 65.0333 17.0776 65.1837 17.0776 65.9028V68.0893C17.0776 68.8171 17.0776 69.6205 16.972 69.9073C16.9143 70.0528 16.7686 70.0928 16.6155 70.1189L16.4348 70.1656C16.3718 70.2305 16.3895 70.3869 16.4522 70.433C16.7359 70.4142 16.9557 70.407 17.296 70.407C17.6048 70.407 17.9238 70.4142 18.2226 70.433C18.3054 70.407 18.3106 70.2305 18.2389 70.1656Z"
      fill="#58595B" />
    <path
      d="M27.9428 64.601C27.3503 64.3584 26.8003 64.2881 26.0256 64.2881C25.2334 64.2881 24.5817 64.3142 23.9979 64.3699C23.9313 64.4149 23.9313 64.5822 23.9903 64.6283L24.1599 64.6471C24.5404 64.7029 24.5503 64.8121 24.5503 65.6974V69.0754C24.5503 70.0528 24.4763 70.0825 24.0933 70.1371L23.9149 70.1656C23.8573 70.2305 23.8673 70.3966 23.9313 70.4324C24.2891 70.4142 24.6558 70.4052 24.9646 70.4052C25.2647 70.4052 25.6451 70.4596 26.1399 70.4596C26.8794 70.4596 27.5776 70.3482 28.1564 70.0177C29.1608 69.4355 29.6078 68.3835 29.6078 67.3588C29.6078 65.9853 28.9184 65.0072 27.9428 64.601ZM26.4099 70.091C25.5498 70.091 25.492 69.6107 25.492 68.7151V65.4694C25.492 65.0333 25.4996 64.8405 25.5548 64.7847C25.6125 64.7302 25.8737 64.6543 26.2152 64.6543C27.5713 64.6543 28.5041 65.5408 28.5041 67.3679C28.5041 68.9286 27.855 70.091 26.4099 70.091Z"
      fill="#58595B" />
    <path
      d="M33.6187 70.1357L33.4392 70.1653C33.3901 70.2199 33.3976 70.3866 33.463 70.4327C33.748 70.4236 34.1058 70.4049 34.4549 70.4049C34.8767 70.4049 35.1755 70.4139 35.5096 70.4327C35.5648 70.3866 35.5648 70.2302 35.5019 70.1653L35.3789 70.1357C34.9671 70.0525 34.9244 69.9876 34.7374 69.3722L33.5684 65.5049C33.4392 65.0888 33.3336 64.6541 33.2042 64.2393C33.1704 64.1932 33.1315 64.166 33.0649 64.166C33.0485 64.166 32.7824 64.5449 32.4962 64.6092C32.5225 64.7657 32.446 64.987 32.3405 65.2823L31.2306 68.5688C31.0599 69.0666 30.9292 69.4552 30.8338 69.6935C30.7108 69.9979 30.6228 70.0822 30.3867 70.118L30.1432 70.1653C30.0855 70.2472 30.093 70.3866 30.1507 70.4327C30.4344 70.4139 30.6881 70.4049 30.9518 70.4049C31.287 70.4139 31.5558 70.4139 31.8131 70.4327C31.8809 70.3952 31.8872 70.2303 31.8295 70.1653L31.5947 70.118C31.2933 70.0725 31.2632 70.0435 31.4264 69.5002L31.7578 68.3936C31.8295 68.1438 31.8232 68.1438 32.0341 68.1438H33.1138C33.3412 68.1438 33.365 68.1438 33.4479 68.3936L33.8271 69.6487C33.9325 70.0435 33.91 70.0999 33.6187 70.1357ZM33.0097 67.7289H32.1646C31.9688 67.7289 31.9437 67.7289 32.0341 67.461L32.3756 66.3805C32.5225 65.9457 32.5866 65.7158 32.6193 65.6515H32.6343C32.677 65.7158 32.7247 65.8923 32.8628 66.3805L33.2042 67.4894C33.2683 67.709 33.2369 67.7289 33.0097 67.7289Z"
      fill="#58595B" />
    <path
      d="M41.5259 70.1746C41.4305 70.1632 41.3188 70.1746 41.0915 69.9533C40.7097 69.5932 40.3029 68.8097 39.6551 67.5631C39.6224 67.5086 39.605 67.4339 39.6551 67.4066C40.0519 67.221 40.6294 66.7966 40.6294 65.9472C40.6294 65.2844 40.3256 64.8496 39.9138 64.601C39.5571 64.3791 39.0048 64.2881 38.3719 64.2881C37.7052 64.2881 37.0159 64.3142 36.5035 64.3699C36.4383 64.4149 36.4383 64.5653 36.4961 64.6283L36.7069 64.6555C37.0874 64.7028 37.0962 64.8139 37.0962 65.6991V69.0753C37.0962 70.0541 37.0247 70.0825 36.6417 70.1371L36.4634 70.1656C36.3881 70.2305 36.4157 70.3967 36.4785 70.433C36.8526 70.4154 37.2167 70.407 37.5758 70.407C37.9325 70.407 38.2979 70.4154 38.6532 70.433C38.721 70.3966 38.7285 70.2305 38.6707 70.1656L38.4924 70.1371C38.1107 70.0825 38.0379 70.0541 38.0379 69.0753V67.8959C38.0379 67.7019 38.0455 67.6922 38.289 67.6922C38.5577 67.6922 38.6481 67.7292 38.7938 68.0064C38.9896 68.3665 39.2156 68.8716 39.4354 69.2615C39.9314 70.1182 40.1448 70.4251 40.1448 70.4251L41.5296 70.4239C41.5296 70.4239 41.5686 70.2105 41.5259 70.1746ZM38.4284 67.3417C38.0379 67.3417 38.0379 67.3218 38.0379 67.0277V65.108C38.0379 64.6829 38.0455 64.6555 38.4673 64.6555C39.1755 64.6555 39.5887 65.2941 39.5887 66.0217C39.5887 66.8985 39.2246 67.3417 38.4284 67.3417Z"
      fill="#58595B" />
    <path
      d="M66.8109 67.6922C67.077 67.6922 67.1675 67.7292 67.313 68.0064C67.5064 68.3665 67.7351 68.8716 67.9559 69.2615C68.4507 70.1182 68.6667 70.4251 68.6667 70.4251L70.0515 70.4239C70.0515 70.4239 70.0879 70.2105 70.0465 70.1746C69.9498 70.1632 69.8407 70.1746 69.6107 69.9533C69.2303 69.5932 68.8248 68.8097 68.1745 67.5631C68.1443 67.5086 68.1255 67.4339 68.1745 67.4066C68.5713 67.221 69.1512 66.7966 69.1512 65.9472C69.1512 65.2844 68.8474 64.8496 68.4356 64.601C68.0789 64.3791 67.524 64.2881 66.8899 64.2881C66.227 64.2881 65.5339 64.3142 65.0253 64.3699C64.9589 64.4149 64.9589 64.5653 65.0153 64.6283L65.2263 64.6555C65.6092 64.7028 65.6181 64.8139 65.6181 65.6991V69.0753C65.6181 70.0541 65.5427 70.0825 65.161 70.1371L64.9827 70.1656C64.9099 70.2305 64.9349 70.3967 65.0003 70.433C65.3744 70.4154 65.7385 70.407 66.0976 70.407C66.453 70.407 66.8196 70.4154 67.175 70.433C67.2403 70.3966 67.249 70.2305 67.1913 70.1656L67.0143 70.1371C66.6325 70.0825 66.5585 70.0541 66.5585 69.0753V67.8959C66.5585 67.7019 66.5674 67.6922 66.8109 67.6922ZM66.5585 65.108C66.5585 64.6829 66.5674 64.6555 66.9892 64.6555C67.6948 64.6555 68.1091 65.2941 68.1091 66.0217C68.1091 66.8985 67.745 67.3417 66.9478 67.3417C66.5585 67.3417 66.5585 67.3218 66.5585 67.0277L66.5585 65.108Z"
      fill="#58595B" />
    <path
      d="M79.1514 83.4094C78.7697 83.0491 78.3629 82.2669 77.7137 81.0202C77.6797 80.9645 77.6634 80.8911 77.7137 80.8639C78.1117 80.6782 78.6867 80.2538 78.6867 79.4044C78.6867 78.7416 78.3855 78.3055 77.9724 78.0569C77.617 77.8363 77.0646 77.7441 76.4293 77.7441C75.765 77.7441 75.0756 77.7701 74.5635 77.826C74.4968 77.8721 74.4968 78.0212 74.5534 78.0843L74.7644 78.1127C75.1473 78.1588 75.1536 78.2711 75.1536 79.1564V82.5325C75.1536 83.5125 75.0833 83.5397 74.7015 83.5955L74.5208 83.6216C74.448 83.6864 74.4731 83.8526 74.5384 83.8902C74.9125 83.8714 75.2766 83.8629 75.6357 83.8629C75.9911 83.8629 76.3564 83.8714 76.713 83.8902C76.7783 83.8526 76.7871 83.6864 76.7294 83.6216L76.5523 83.5955C76.1706 83.5397 76.0965 83.5125 76.0965 82.5325V81.3519C76.0965 81.158 76.1052 81.1494 76.3489 81.1494C76.6176 81.1494 76.708 81.1852 76.8537 81.4623C77.0469 81.8225 77.2755 82.3287 77.494 82.7174C77.9888 83.5755 78.2046 83.8823 78.2046 83.8823L79.5896 83.8799C79.5896 83.8799 79.626 83.6677 79.5859 83.6307C79.4878 83.6216 79.3786 83.6307 79.1514 83.4094ZM76.487 80.7977C76.0965 80.7977 76.0965 80.7801 76.0965 80.4849V78.5652C76.0965 78.14 76.1052 78.1127 76.5273 78.1127C77.2342 78.1127 77.6484 78.75 77.6484 79.4789C77.6484 80.3557 77.2843 80.7977 76.487 80.7977Z"
      fill="#58595B" />
    <path
      d="M42.8995 70.1359L42.7185 70.1656C42.6609 70.2305 42.6709 70.3954 42.7362 70.433C43.0927 70.4142 43.4745 70.4051 43.831 70.4051C44.1902 70.4051 44.5543 70.4142 44.9108 70.433C44.9761 70.3954 44.9862 70.2305 44.9284 70.1656L44.7501 70.1359C44.3683 70.0825 44.2956 70.0528 44.2956 69.0754V65.6415C44.2956 64.6646 44.3683 64.6374 44.7501 64.5822L44.9284 64.5525C44.9862 64.4906 44.9761 64.3239 44.9108 64.2881C44.5543 64.3045 44.1902 64.3142 43.831 64.3142C43.4594 64.3142 43.0927 64.3045 42.7362 64.2881C42.6709 64.3239 42.6609 64.4906 42.7185 64.5525L42.8995 64.5822C43.2799 64.6374 43.3539 64.6646 43.3539 65.6415V69.0754C43.3539 70.0528 43.2799 70.0825 42.8995 70.1359Z"
      fill="#58595B" />
    <path
      d="M48.7834 70.433C48.8638 70.407 48.8688 70.2305 48.7985 70.1656L48.6203 70.1371C48.4156 70.1014 48.2787 70.0455 48.2046 69.9073C48.0678 69.6308 48.0578 68.7813 48.0578 68.0893V66.2891C48.0578 65.801 48.0578 65.6991 48.0842 65.6991C48.2235 65.8368 48.4823 66.1872 49.0095 66.8628L50.9104 69.3264C51.493 70.0825 51.7304 70.3967 51.8597 70.5894C51.9564 70.5991 52.0706 70.5633 52.1334 70.4615C52.1095 70.2492 52.1095 69.1141 52.1095 68.8358V66.6317C52.1095 65.9028 52.1095 65.0994 52.2238 64.8139C52.2815 64.6659 52.4197 64.6283 52.5728 64.6011L52.7612 64.5544C52.824 64.4906 52.8089 64.333 52.7462 64.2881C52.4548 64.3057 52.2414 64.3142 51.8911 64.3142C51.5747 64.3142 51.2745 64.3058 50.9581 64.2881C50.8777 64.3142 50.8678 64.4906 50.9417 64.5544L51.1288 64.5828C51.3322 64.6186 51.4616 64.6743 51.5345 64.8139C51.6813 65.0891 51.6876 65.9386 51.6876 66.6317V68.4308C51.6876 68.5787 51.6876 68.6248 51.6639 68.6522C51.5822 68.5975 50.8287 67.6201 50.4886 67.1944L49.675 66.1969C49.3912 65.8471 48.5047 64.6829 48.3666 64.2881C48.1733 64.3057 47.9786 64.3142 47.8067 64.3142C47.6044 64.3142 47.1563 64.3245 46.8499 64.2881C46.767 64.3142 46.7607 64.4997 46.8172 64.5544L46.9402 64.5828C47.0532 64.6114 47.2793 64.6829 47.3697 64.7677C47.6434 65.0333 47.6384 65.1837 47.6384 65.9028V68.0893C47.6384 68.8171 47.6384 69.6205 47.5329 69.9073C47.4751 70.0528 47.327 70.0928 47.1738 70.1189L46.9955 70.1656C46.9303 70.2305 46.9478 70.3869 47.0106 70.433C47.2956 70.4142 47.5141 70.407 47.8568 70.407C48.1659 70.407 48.4823 70.4142 48.7834 70.433Z"
      fill="#58595B" />
    <path
      d="M60.3649 70.5528C62.006 70.5528 63.2227 69.1952 63.2227 67.3785C63.2227 65.6982 62.2558 64.166 60.3801 64.166C58.6762 64.166 57.4746 65.5594 57.4746 67.4416C57.4746 69.0848 58.5293 70.5528 60.3649 70.5528ZM60.2745 64.5346C61.5652 64.5346 62.119 66.1519 62.119 67.5447C62.119 69.3989 61.3718 70.1836 60.4466 70.1836C59.0567 70.1836 58.5783 68.4475 58.5783 67.1747C58.5783 65.2089 59.4635 64.5346 60.2745 64.5346Z"
      fill="#58595B" />
    <path
      d="M73.9201 64.5822L74.0984 64.5525C74.1561 64.4906 74.1485 64.3239 74.0834 64.2881C73.7242 64.3045 73.3601 64.3142 73.0035 64.3142C72.6293 64.3142 72.2626 64.3045 71.9061 64.2881C71.8408 64.3239 71.8308 64.4906 71.8885 64.5525L72.0694 64.5822C72.4499 64.6374 72.5239 64.6646 72.5239 65.6415V69.0754C72.5239 70.0528 72.4499 70.0825 72.0694 70.1359L71.8885 70.1656C71.8308 70.2305 71.8408 70.3954 71.9061 70.433C72.2626 70.4142 72.6444 70.4051 73.0035 70.4051C73.3601 70.4051 73.7242 70.4142 74.0834 70.433C74.1485 70.3954 74.1561 70.2305 74.0984 70.1656L73.9201 70.1359C73.5383 70.0825 73.4655 70.0528 73.4655 69.0754V65.6415C73.4655 64.6646 73.5383 64.6374 73.9201 64.5822Z"
      fill="#58595B" />
    <path
      d="M77.7242 70.4063H78.6495C79.6 70.4063 80.2993 70.4148 80.6547 70.4324C80.7701 70.1838 80.9472 69.4834 80.9962 69.0947C80.9471 69.0019 80.8104 68.9747 80.7363 69.0389C80.4537 69.7878 80.273 70.0534 79.2422 70.0364C78.5604 70.0364 78.4223 69.963 78.3256 69.8327C78.2037 69.6763 78.1862 69.3433 78.1862 68.8728V67.7012C78.1862 67.4709 78.1962 67.4522 78.3833 67.4522H78.7712C79.4769 67.4522 79.6151 67.4709 79.6728 67.8565L79.7305 68.227C79.7933 68.2828 79.9515 68.2828 79.9892 68.2167C79.9818 67.9226 79.9654 67.6 79.9654 67.2496C79.9654 66.9083 79.9818 66.5753 79.9892 66.3267C79.9515 66.251 79.7933 66.251 79.7305 66.317L79.6728 66.6311C79.6151 67.0271 79.4769 67.0374 78.7712 67.0374H78.3833C78.1962 67.0374 78.1862 67.0271 78.1862 66.7875V65.228C78.1862 64.7028 78.1862 64.6841 78.5364 64.6841H79.0802C79.2986 64.6841 79.5434 64.7028 79.7305 64.7672C79.9892 64.8404 80.1123 65.0703 80.2428 65.6069C80.3056 65.6627 80.4689 65.6426 80.5014 65.5705C80.4537 65.1722 80.4036 64.4433 80.3733 64.2881C80.268 64.3051 79.7933 64.3154 79.2747 64.3154H77.7242C77.3675 64.3154 76.9846 64.3051 76.6769 64.2881C76.6118 64.3239 76.6016 64.49 76.6606 64.5538L76.7899 64.5737C77.1717 64.6367 77.2458 64.6652 77.2458 65.6426V69.0766C77.2458 70.0534 77.1717 70.0819 76.7899 70.128L76.4912 70.1668C76.4334 70.2299 76.4409 70.3967 76.5062 70.4324C76.8703 70.4148 77.3675 70.4063 77.7242 70.4063Z"
      fill="#58595B" />
    <path
      d="M88.0909 70.4615C88.0659 70.2492 88.0659 69.1141 88.0659 68.8358V66.6317C88.0659 65.9028 88.0659 65.0994 88.18 64.8139C88.2377 64.6659 88.3759 64.6283 88.5304 64.6011L88.7162 64.5544C88.7815 64.4906 88.7652 64.333 88.6999 64.2881C88.4073 64.3057 88.1963 64.3142 87.8472 64.3142C87.5308 64.3142 87.232 64.3058 86.9132 64.2881C86.8302 64.3142 86.8239 64.4906 86.8968 64.5544L87.0839 64.5828C87.2898 64.6186 87.418 64.6743 87.4907 64.8139C87.6351 65.0891 87.6438 65.9386 87.6438 66.6317V68.4308C87.6438 68.5787 87.6438 68.6248 87.6188 68.6522C87.5385 68.5975 86.7839 67.6201 86.4411 67.1944L85.6299 66.1969C85.3449 65.8471 84.4622 64.6829 84.3228 64.2881C84.1284 64.3057 83.935 64.3142 83.7617 64.3142C83.5595 64.3142 83.1138 64.3245 82.8049 64.2881C82.7246 64.3142 82.7146 64.4997 82.771 64.5544L82.8953 64.5828C83.0083 64.6114 83.2356 64.6829 83.3248 64.7677C83.5985 65.0333 83.5933 65.1837 83.5933 65.9028V68.0893C83.5933 68.8171 83.5933 69.6205 83.4855 69.9073C83.4302 70.0528 83.2832 70.0928 83.1301 70.1189L82.9505 70.1656C82.8853 70.2305 82.9003 70.3869 82.9668 70.433C83.2506 70.4142 83.4703 70.407 83.8094 70.407C84.1208 70.407 84.4372 70.4142 84.7386 70.433C84.8189 70.407 84.8263 70.2305 84.7536 70.1656L84.5753 70.1371C84.3719 70.1014 84.2338 70.0455 84.161 69.9073C84.0228 69.6308 84.0153 68.7813 84.0153 68.0893V66.2891C84.0153 65.801 84.0153 65.6991 84.0404 65.6991C84.1785 65.8368 84.4372 66.1872 84.9646 66.8628L86.8655 69.3264C87.4505 70.0825 87.6841 70.3967 87.8172 70.5894C87.9126 70.5991 88.0281 70.5633 88.0909 70.4615Z"
      fill="#58595B" />
    <path
      d="M94.0953 70.1288C93.7148 70.0827 93.6408 70.053 93.6408 69.0756V65.0893C93.6408 64.7018 93.6484 64.6831 93.8592 64.6831H94.3237C95.1926 64.6831 95.3459 64.8571 95.4513 65.5799C95.5254 65.6417 95.6622 65.626 95.7049 65.5514C95.6797 65.2561 95.7438 64.4623 95.8255 64.0822C95.8091 64.0549 95.7677 64.0361 95.72 64.0361C95.6886 64.0361 95.6573 64.0549 95.6221 64.0761C95.5254 64.2871 95.4036 64.3144 95.0055 64.3144H91.6921C91.1396 64.3144 91.0266 64.3048 90.9864 64.0761C90.9713 64.0477 90.9376 64.0361 90.9036 64.0361C90.8659 64.0361 90.8319 64.0477 90.817 64.0761C90.7605 64.3975 90.6374 64.9699 90.498 65.4696C90.5294 65.5598 90.7026 65.5859 90.7605 65.5314C91.0593 64.7849 91.2778 64.6831 92.026 64.6831H92.4807C92.6915 64.6831 92.6991 64.7018 92.6991 65.0893V69.0756C92.6991 70.053 92.6237 70.0827 92.2445 70.1191L91.9029 70.1658C91.8478 70.2106 91.854 70.3957 91.9206 70.4332C92.4404 70.4144 92.8209 70.4054 93.1786 70.4054C93.5353 70.4054 93.9018 70.4144 94.3727 70.4332C94.4393 70.3957 94.4443 70.2307 94.3865 70.1658L94.0953 70.1288Z"
      fill="#58595B" />
    <path
      d="M101.918 70.1357C101.505 70.0525 101.463 69.9876 101.277 69.3722L100.107 65.5049C99.9772 65.0888 99.8717 64.6541 99.7424 64.2393C99.7098 64.1932 99.6683 64.166 99.6043 64.166C99.5867 64.166 99.3206 64.5449 99.0368 64.6092C99.0581 64.7657 98.9866 64.987 98.8812 65.2823L97.7686 68.5688C97.5955 69.0666 97.4673 69.4552 97.3718 69.6935C97.2501 69.9979 97.161 70.0822 96.9249 70.118L96.6812 70.1653C96.6236 70.2472 96.6312 70.3866 96.6889 70.4327C96.9726 70.4139 97.2237 70.4049 97.4924 70.4049C97.8265 70.4139 98.0938 70.4139 98.3538 70.4327C98.4178 70.3952 98.4253 70.2303 98.3687 70.1653L98.1327 70.118C97.8339 70.0725 97.8012 70.0435 97.9645 69.5002L98.296 68.3936C98.3687 68.1438 98.3625 68.1438 98.5735 68.1438H99.6534C99.8805 68.1438 99.9031 68.1438 99.9847 68.3936L100.368 69.6487C100.472 70.0435 100.448 70.0999 100.157 70.1357L99.9772 70.1653C99.9295 70.2199 99.9371 70.3866 100.001 70.4327C100.285 70.4236 100.644 70.4049 100.993 70.4049C101.415 70.4049 101.716 70.4139 102.048 70.4327C102.105 70.3866 102.105 70.2302 102.04 70.1653L101.918 70.1357ZM99.5465 67.7289H98.7028C98.507 67.7289 98.4831 67.7289 98.5735 67.461L98.9137 66.3805C99.0581 65.9457 99.1246 65.7158 99.1573 65.6515H99.1723C99.215 65.7158 99.2627 65.8923 99.4021 66.3805L99.7424 67.4894C99.8077 67.709 99.7751 67.7289 99.5465 67.7289Z"
      fill="#58595B" />
    <path
      d="M107.758 69.039C107.386 69.9891 107.255 70.0364 106.354 70.0364C105.706 70.0364 105.576 69.9619 105.475 69.8327C105.356 69.6763 105.339 69.3433 105.339 68.8825V65.6427C105.339 64.6829 105.415 64.6555 105.794 64.5919L105.972 64.5538C106.038 64.5088 106.03 64.3239 105.955 64.2881C105.598 64.3039 105.233 64.3136 104.877 64.3136C104.503 64.3136 104.139 64.3039 103.732 64.2881C103.659 64.3239 103.659 64.5088 103.715 64.5538L103.943 64.5919C104.325 64.6555 104.398 64.6829 104.398 65.6427V69.0747C104.398 70.0364 104.325 70.0638 103.943 70.1183L103.7 70.1656C103.627 70.2099 103.652 70.3966 103.715 70.4324C104.056 70.4136 104.463 70.4064 104.877 70.4064H105.721C106.63 70.4064 107.327 70.4136 107.67 70.4324C107.767 70.1838 107.946 69.4822 108.011 69.0947C107.971 69.0201 107.841 68.9929 107.758 69.039Z"
      fill="#58595B" />
    <path
      d="M16.4523 77.4824C16.4198 77.4824 16.3858 77.5012 16.352 77.5213C16.2565 77.7335 16.1359 77.7595 15.7355 77.7595H12.4233C11.872 77.7595 11.7578 77.751 11.7189 77.5213C11.7001 77.4927 11.6675 77.4824 11.6359 77.4824C11.5946 77.4824 11.5618 77.4927 11.5469 77.5213C11.4891 77.8426 11.3673 78.4163 11.2305 78.9146C11.2618 79.0063 11.4325 79.0335 11.4891 78.9777C11.7916 78.2313 12.0102 78.1294 12.7559 78.1294H13.2106C13.4227 78.1294 13.4303 78.1471 13.4303 78.5357V82.5219C13.4303 83.5006 13.3561 83.5291 12.9745 83.5649L12.6342 83.6121C12.5778 83.6571 12.5878 83.8419 12.6505 83.8777C13.1704 83.8607 13.5545 83.8504 13.9085 83.8504C14.2677 83.8504 14.6318 83.8607 15.1026 83.8777C15.1692 83.8419 15.1768 83.6758 15.1189 83.6121L14.8265 83.5739C14.446 83.5291 14.3733 83.5006 14.3733 82.5219V78.5357C14.3733 78.147 14.3807 78.1294 14.5892 78.1294H15.0538C15.9225 78.1294 16.0782 78.3046 16.1838 79.025C16.2566 79.0893 16.3947 79.0711 16.436 78.9965C16.4097 78.7018 16.4763 77.9075 16.5579 77.5297C16.5403 77.5012 16.5002 77.4824 16.4523 77.4824Z"
      fill="#58595B" />
    <path
      d="M23.3144 83.5848C22.934 83.529 22.8611 83.5017 22.8611 82.523V79.0904C22.8611 78.1129 22.934 78.0832 23.3144 78.0287L23.4613 78.0001C23.5189 77.9553 23.5115 77.7692 23.4436 77.7334C23.121 77.7515 22.7556 77.7606 22.3965 77.7606C22.0399 77.7606 21.6746 77.7515 21.3016 77.7334C21.2351 77.7692 21.2276 77.9553 21.2842 78.0001L21.4637 78.0287C21.8467 78.0832 21.9194 78.1129 21.9194 79.0904V80.2055C21.9194 80.4638 21.8931 80.4838 21.48 80.4838H19.5804C19.1647 80.4838 19.1408 80.4638 19.1408 80.2055V79.0904C19.1408 78.1129 19.2123 78.0832 19.5967 78.0287L19.7347 78.0001C19.7899 77.9553 19.7824 77.7692 19.7171 77.7334C19.3983 77.7515 19.0353 77.7606 18.68 77.7606C18.3209 77.7606 17.9392 77.7515 17.5801 77.7334C17.5173 77.7692 17.5098 77.9553 17.5675 78.0001L17.7459 78.0287C18.125 78.0832 18.199 78.1129 18.199 79.0904V82.523C18.199 83.5017 18.125 83.529 17.7459 83.5932L17.6304 83.6132C17.5725 83.675 17.5801 83.8431 17.6454 83.8776C17.9543 83.8618 18.3209 83.8515 18.68 83.8515C19.0353 83.8515 19.3983 83.8618 19.8251 83.8776C19.8879 83.8431 19.8968 83.675 19.8402 83.6132L19.5967 83.5732C19.2123 83.529 19.1408 83.5017 19.1408 82.523V81.1665C19.1408 80.9173 19.1647 80.8985 19.5804 80.8985H21.48C21.8931 80.8985 21.9194 80.9173 21.9194 81.1665V82.523C21.9194 83.5017 21.8467 83.529 21.4637 83.5848L21.2842 83.6132C21.2276 83.675 21.2351 83.8431 21.3016 83.8776C21.6583 83.8618 22.0248 83.8515 22.3965 83.8515C22.7556 83.8515 23.121 83.8618 23.4763 83.8776C23.5429 83.8431 23.5492 83.675 23.4915 83.6132L23.3144 83.5848Z"
      fill="#58595B" />
    <path
      d="M29.0583 82.4837C28.7746 83.2327 28.5938 83.5007 27.5643 83.4825C26.8813 83.4825 26.743 83.408 26.6465 83.2788C26.5259 83.1223 26.5071 82.7894 26.5071 82.3201V81.1462C26.5071 80.917 26.5171 80.8982 26.7042 80.8982H27.0921C27.8003 80.8982 27.9359 80.917 27.9937 81.3027L28.0513 81.6743C28.1143 81.7289 28.2724 81.7289 28.3113 81.664C28.3024 81.3687 28.2875 81.0444 28.2875 80.6956C28.2875 80.3543 28.3025 80.0214 28.3113 79.7716C28.2724 79.6983 28.1143 79.6983 28.0513 79.7631L27.9937 80.076C27.9359 80.4731 27.8003 80.4834 27.0921 80.4834H26.7042C26.5171 80.4834 26.5071 80.4731 26.5071 80.2335V78.6741C26.5071 78.1472 26.5071 78.1302 26.8574 78.1302H27.3998C27.6219 78.1302 27.8643 78.1472 28.0513 78.212C28.3113 78.2878 28.4331 78.5164 28.5637 79.0531C28.6289 79.1089 28.7896 79.09 28.8223 79.0155C28.7745 78.6183 28.7256 77.8889 28.6942 77.7324C28.5888 77.7511 28.1143 77.7602 27.5956 77.7602H26.045C25.6883 77.7602 25.3055 77.7511 24.9978 77.7324C24.9338 77.7699 24.9263 77.935 24.9814 77.9998L25.1134 78.0186C25.4925 78.0828 25.5679 78.1125 25.5679 79.09V82.5226C25.5679 83.5007 25.4925 83.528 25.1134 83.5728L24.812 83.6128C24.7543 83.6746 24.763 83.8427 24.8271 83.8772C25.1937 83.8609 25.6883 83.8511 26.045 83.8511H26.9716C27.9208 83.8511 28.6202 83.8608 28.9755 83.8772C29.091 83.6298 29.2693 82.9283 29.3183 82.5397C29.2693 82.4492 29.1313 82.4208 29.0583 82.4837Z"
      fill="#58595B" />
    <path
      d="M39.2412 83.5848C38.8594 83.529 38.7878 83.5017 38.7878 82.523V79.0904C38.7878 78.1129 38.8594 78.0832 39.2412 78.0287L39.3867 78.0001C39.4446 77.9553 39.437 77.7692 39.3717 77.7334C39.0465 77.7515 38.6824 77.7606 38.3246 77.7606C37.9679 77.7606 37.6014 77.7515 37.2297 77.7334C37.163 77.7692 37.1556 77.9553 37.212 78.0001L37.3904 78.0287C37.7721 78.0832 37.8449 78.1129 37.8449 79.0904V80.2055C37.8449 80.4638 37.8198 80.4838 37.408 80.4838H35.5058C35.0927 80.4838 35.0688 80.4638 35.0688 80.2055V79.0904C35.0688 78.1129 35.1417 78.0832 35.5245 78.0287L35.6626 78.0001C35.718 77.9553 35.7105 77.7692 35.6451 77.7334C35.3287 77.7515 34.9634 77.7606 34.6055 77.7606C34.2489 77.7606 33.8672 77.7515 33.5107 77.7334C33.4453 77.7692 33.4352 77.9553 33.493 78.0001L33.6714 78.0287C34.0531 78.0832 34.1258 78.1129 34.1258 79.0904V82.523C34.1258 83.5017 34.0531 83.529 33.6714 83.5932L33.5583 83.6132C33.5006 83.675 33.5107 83.8431 33.5747 83.8776C33.8847 83.8618 34.2489 83.8515 34.6055 83.8515C34.9634 83.8515 35.3287 83.8618 35.7506 83.8776C35.8159 83.8431 35.8234 83.675 35.7682 83.6132L35.5245 83.5732C35.1417 83.529 35.0688 83.5017 35.0688 82.523V81.1665C35.0688 80.9173 35.0927 80.8985 35.5058 80.8985H37.408C37.8198 80.8985 37.8449 80.9173 37.8449 81.1665V82.523C37.8449 83.5017 37.7721 83.529 37.3904 83.5848L37.212 83.6132C37.1556 83.675 37.163 83.8431 37.2297 83.8776C37.5862 83.8618 37.9503 83.8515 38.3246 83.8515C38.6824 83.8515 39.0465 83.8618 39.4056 83.8776C39.4696 83.8431 39.4771 83.675 39.4219 83.6132L39.2412 83.5848Z"
      fill="#58595B" />
    <path
      d="M43.7536 77.6133C42.0485 77.6133 40.8457 79.0061 40.8457 80.8889C40.8457 82.532 41.9016 84 43.7373 84C45.3783 84 46.5937 82.6424 46.5937 80.8245C46.5937 79.1456 45.6269 77.6133 43.7536 77.6133ZM43.8189 83.6308C42.4289 83.6308 41.9518 81.8947 41.9518 80.622C41.9518 78.6561 42.8345 77.9831 43.6456 77.9831C44.9363 77.9831 45.4927 79.5972 45.4927 80.9906C45.4927 82.8462 44.743 83.6308 43.8189 83.6308Z"
      fill="#58595B" />
    <path
      d="M52.7785 77.4824C52.7485 77.4824 52.7158 77.5012 52.6807 77.5213C52.5827 77.7335 52.4623 77.7595 52.0642 77.7595H48.7506C48.1995 77.7595 48.0864 77.751 48.0451 77.5213C48.03 77.4927 47.9961 77.4824 47.9647 77.4824C47.9246 77.4824 47.8906 77.4927 47.8756 77.5213C47.819 77.8426 47.6959 78.4163 47.5566 78.9146C47.5905 79.0063 47.7613 79.0335 47.819 78.9777C48.1178 78.2313 48.3363 78.1294 49.0847 78.1294H49.5392C49.7501 78.1294 49.7589 78.1471 49.7589 78.5357V82.5219C49.7589 83.5006 49.6875 83.5291 49.3031 83.5649L48.9642 83.6121C48.9063 83.6571 48.9139 83.8419 48.9792 83.8777C49.5002 83.8607 49.8795 83.8504 50.2387 83.8504C50.5938 83.8504 50.963 83.8607 51.4314 83.8777C51.498 83.8419 51.503 83.6758 51.4477 83.6121L51.1539 83.5739C50.7748 83.5291 50.6995 83.5006 50.6995 82.5219V78.5357C50.6995 78.147 50.7069 78.1294 50.9178 78.1294H51.3824C52.2513 78.1294 52.4044 78.3046 52.5099 79.025C52.5827 79.0893 52.7208 79.0711 52.7635 78.9965C52.7384 78.7018 52.8037 77.9075 52.8841 77.5297C52.8691 77.5012 52.8264 77.4824 52.7785 77.4824Z"
      fill="#58595B" />
    <path
      d="M58.5012 82.4837C58.2161 83.2327 58.0366 83.5007 57.0057 83.4825C56.3241 83.4825 56.1858 83.408 56.0879 83.2788C55.966 83.1223 55.9497 82.7894 55.9497 82.3201V81.1462C55.9497 80.917 55.9573 80.8982 56.1444 80.8982H56.5348C57.2406 80.8982 57.3798 80.917 57.4364 81.3027L57.4942 81.6743C57.5569 81.7289 57.7126 81.7289 57.7528 81.664C57.7441 81.3687 57.7289 81.0444 57.7289 80.6956C57.7289 80.3543 57.7441 80.0214 57.7528 79.7716C57.7126 79.6983 57.5569 79.6983 57.4942 79.7631L57.4364 80.076C57.3798 80.4731 57.2406 80.4834 56.5348 80.4834H56.1444C55.9573 80.4834 55.9497 80.4731 55.9497 80.2335V78.6741C55.9497 78.1472 55.9497 78.1302 56.2988 78.1302H56.8439C57.0647 78.1302 57.3057 78.1472 57.4942 78.212C57.7528 78.2878 57.8733 78.5164 58.0052 79.0531C58.0692 79.1089 58.2324 79.09 58.2638 79.0155C58.216 78.6183 58.1659 77.8889 58.1345 77.7324C58.029 77.7511 57.5569 77.7602 57.0397 77.7602H55.4878C55.1298 77.7602 54.7496 77.7511 54.4381 77.7324C54.3752 77.7699 54.3665 77.935 54.4229 77.9998L54.5536 78.0186C54.9353 78.0828 55.008 78.1125 55.008 79.09V82.5226C55.008 83.5007 54.9353 83.528 54.5536 83.5728L54.2522 83.6128C54.1945 83.6746 54.2032 83.8427 54.2698 83.8772C54.6339 83.8609 55.1298 83.8511 55.4878 83.8511H56.4119C57.3637 83.8511 58.0604 83.8608 58.4183 83.8772C58.5325 83.6298 58.7121 82.9283 58.7598 82.5397C58.7121 82.4492 58.5715 82.4208 58.5012 82.4837Z"
      fill="#58595B" />
    <path
      d="M64.2293 82.4848C63.8552 83.4362 63.7258 83.4835 62.8256 83.4835C62.1739 83.4835 62.0446 83.4077 61.9467 83.2798C61.8262 83.1233 61.8099 82.7904 61.8099 82.3295V79.091C61.8099 78.1299 61.8813 78.1026 62.2631 78.0378L62.4426 78.0007C62.5068 77.9559 62.4979 77.7698 62.4264 77.7334C62.0684 77.7509 61.7043 77.7595 61.3465 77.7595C60.9724 77.7595 60.6057 77.7509 60.2002 77.7334C60.1285 77.7698 60.1285 77.9559 60.1839 78.0007L60.4111 78.0378C60.794 78.1026 60.8669 78.1299 60.8669 79.091V82.5218C60.8669 83.4835 60.794 83.5108 60.4111 83.5654L60.1688 83.6119C60.0947 83.657 60.1185 83.8437 60.1839 83.8782C60.5253 83.8606 60.9321 83.8521 61.3465 83.8521H62.1928C63.0993 83.8521 63.7986 83.8606 64.1389 83.8782C64.237 83.6309 64.4151 82.9281 64.4791 82.5406C64.4403 82.4673 64.3097 82.4399 64.2293 82.4848Z"
      fill="#58595B" />
    <path
      d="M72.1376 81.397C71.5764 81.397 71.1884 81.3872 70.872 81.3684C70.8042 81.4157 70.8042 81.5722 70.8619 81.637L71.1544 81.6917C71.7006 81.7935 71.7058 81.8492 71.7058 82.5036V82.8376C71.7058 83.1693 71.6818 83.3342 71.6341 83.4191C71.5362 83.5555 71.3014 83.6314 70.9122 83.6314C70.43 83.6314 69.7847 83.4361 69.3439 82.8462C68.9057 82.2556 68.76 81.4618 68.76 80.7239C68.76 79.1534 69.4494 77.9837 70.877 77.9837C71.6818 77.9837 72.2581 78.4251 72.439 79.3208C72.4791 79.4039 72.6574 79.3942 72.6975 79.3008C72.6574 78.5823 72.6008 78.1122 72.5921 77.8358C72.4954 77.8358 72.2581 77.7969 72.0723 77.7509C71.7872 77.6878 71.3741 77.6133 70.9925 77.6133C69.865 77.6133 68.9786 78.0104 68.4035 78.7022C67.8913 79.3008 67.6553 80.0957 67.6553 80.8706C67.6553 81.6456 67.8913 82.4205 68.3709 82.9844C68.9787 83.7029 69.8951 83.9999 70.872 83.9999C71.334 83.9999 71.943 83.8781 72.4464 83.7503C72.6009 83.7029 72.7452 83.6762 72.8358 83.6762C72.8696 83.6483 72.8696 83.5744 72.8433 83.538C72.6875 83.4537 72.6498 83.2142 72.6498 82.8923V82.3568C72.6498 81.7935 72.6975 81.7104 72.999 81.6656L73.1433 81.637C73.2174 81.5722 73.2099 81.4157 73.1283 81.3684C72.7805 81.3872 72.5017 81.397 72.1376 81.397Z"
      fill="#58595B" />
    <path
      d="M83.4249 77.6133C81.7211 77.6133 80.5195 79.0061 80.5195 80.8889C80.5195 82.532 81.5741 84 83.4099 84C85.0497 84 86.2675 82.6424 86.2675 80.8245C86.2675 79.1456 85.3008 77.6133 83.4249 77.6133ZM83.4914 83.6308C82.1016 83.6308 81.6232 81.8947 81.6232 80.622C81.6232 78.6561 82.5084 77.9831 83.3196 77.9831C84.6127 77.9831 85.1639 79.5972 85.1639 80.9906C85.1639 82.8462 84.4169 83.6308 83.4914 83.6308Z"
      fill="#58595B" />
    <path
      d="M92.3627 77.7602C92.0462 77.7602 91.7372 77.7511 91.4623 77.7324C91.3807 77.7602 91.3718 77.9264 91.446 77.9907L91.6092 78.0186C91.8125 78.0568 91.9406 78.1217 92.0135 78.2581C92.1592 78.5273 92.1667 79.3842 92.1667 80.076V81.2311C92.1667 82.6342 91.7297 83.5468 90.6663 83.5468C89.5362 83.5468 89.196 82.4766 89.196 81.2039V79.09C89.196 78.1125 89.2701 78.0828 89.6505 78.0186L89.8289 77.9907C89.8866 77.9264 89.8765 77.7699 89.8137 77.7324C89.4546 77.7512 89.0904 77.7603 88.7263 77.7603C88.3686 77.7603 88.0031 77.7512 87.6767 77.7324C87.614 77.7699 87.6052 77.9264 87.6617 77.9907L87.7997 78.0186C88.179 78.0828 88.2542 78.1125 88.2542 79.09V81.4336C88.2542 82.3662 88.4251 83.0114 88.7904 83.408C89.1633 83.8142 89.6995 83.9992 90.4641 83.9992C91.0216 83.9992 91.6318 83.8239 92.0562 83.3072C92.4781 82.7894 92.5911 82.0133 92.5911 81.1753V80.076C92.5911 79.3483 92.5911 78.5364 92.7041 78.2581C92.7605 78.1125 92.9087 78.0744 93.0606 78.0367L93.2402 77.9907C93.3042 77.9264 93.2879 77.7784 93.2239 77.7324C92.9238 77.7511 92.7041 77.7602 92.3627 77.7602Z"
      fill="#58595B" />
    <path
      d="M98.3036 78.1016C97.9369 77.8622 97.3768 77.7324 96.6059 77.7324C95.8677 77.7324 95.3805 77.7414 94.813 77.8172C94.7464 77.8529 94.7464 78.0107 94.803 78.0744L95.0867 78.1125C95.4282 78.1671 95.4358 78.3054 95.4358 79.1446V82.5226C95.4358 83.5014 95.3629 83.528 94.9813 83.5928L94.8519 83.6128C94.7943 83.6746 94.803 83.8427 94.8683 83.8784C95.1921 83.8609 95.5613 83.8512 95.9167 83.8512C96.2744 83.8512 96.6385 83.8609 97.1183 83.8784C97.176 83.8427 97.181 83.6746 97.1333 83.6128L96.8345 83.5728C96.4515 83.528 96.3801 83.5013 96.3801 82.5226V78.4903C96.3801 78.1302 96.3875 78.1016 96.7919 78.1016C97.5325 78.1016 97.9557 78.7572 97.9557 79.506C97.9557 80.2609 97.6871 80.8709 96.9475 81.0357C96.9073 81.0904 96.9149 81.2123 96.97 81.2669C97.0367 81.2772 97.1033 81.2772 97.176 81.2772C97.8163 81.2772 98.9941 80.8878 98.9941 79.4859C98.9941 78.8766 98.7254 78.3884 98.3036 78.1016Z"
      fill="#58595B" />
  </g>
  <defs>
    <clipPath id="clip0_1_3797">
      <rect width="108" height="84" fill="white" transform="translate(0.790039)" />
    </clipPath>
  </defs>
</svg>