<svg width="132" height="40" viewBox="0 0 132 40" fill="none" xmlns="http://www.w3.org/2000/svg">
  <g clip-path="url(#clip0_1_3800)">
    <g clip-path="url(#clip1_1_3800)">
      <path fill-rule="evenodd" clip-rule="evenodd"
        d="M4.86807 24.7354H0.908336V24.4589H1.10902C1.85321 24.4589 2.06875 24.2965 2.06875 23.6106V16.6993C2.06875 16.1569 1.89502 15.9232 1.39517 15.9232H0.681641V15.6486C1.08114 15.6344 1.78167 15.5888 2.48312 15.5584C3.15113 15.5327 3.80613 15.5166 4.1982 15.5156H4.29575C7.24836 15.5289 7.92566 16.9815 7.92566 18.1025C7.92566 19.8125 6.58222 20.8936 4.46856 20.8936C4.44626 20.8936 4.42304 20.8936 4.39981 20.8936C4.01517 20.8936 3.63053 20.8556 3.2524 20.7786V23.3322C3.2524 24.1483 3.49675 24.4589 4.39609 24.4589H4.86807V24.7354ZM4.23908 15.793C3.91205 15.793 3.59523 15.793 3.2524 15.85V20.4984C3.50511 20.5649 3.76339 20.6038 4.02446 20.6143C5.58253 20.6143 6.58222 19.5322 6.58222 18.0578C6.58222 16.9159 6.13997 15.793 4.23908 15.793Z"
        fill="#57585B" />
      <path fill-rule="evenodd" clip-rule="evenodd"
        d="M118.827 23.3906C118.827 24.18 119.083 24.4584 119.953 24.4584H120.481V24.7348H115.979V24.4584H116.509C117.382 24.4584 117.641 24.18 117.641 23.3896V16.1706H115.152C114.58 16.1706 114.325 16.5078 114.109 17.7932H113.852L114.081 15.4258H114.35L114.51 15.6025L114.795 15.6471H121.668C121.867 15.6471 122.084 15.6025 122.111 15.4258H122.384L122.611 17.7932H122.356C122.141 16.5078 121.883 16.1706 121.311 16.1706H118.827V23.3906ZM105.007 23.3906C105.007 24.18 105.264 24.4584 106.137 24.4584H106.665V24.7348H102.162V24.4584H102.69C103.563 24.4584 103.821 24.18 103.821 23.3896V16.1706H101.334C100.762 16.1706 100.505 16.5078 100.291 17.7932H100.033L100.264 15.4258H100.532L100.69 15.6025L100.976 15.6471H107.849C108.049 15.6471 108.265 15.6025 108.29 15.4258H108.565L108.794 17.7932H108.536C108.321 16.5078 108.064 16.1706 107.492 16.1706H105.007V23.3906ZM89.9142 20.7011L89.0873 22.9954C88.987 23.2747 88.8002 23.7136 88.8002 23.9159C88.8002 24.3111 89.1719 24.4584 89.9579 24.4584H90.1874V24.7339H86.8836V24.4584C87.8145 24.4432 87.9715 24.2817 88.4295 23.0087L91.031 15.7469L90.9009 15.4277H92.144L95.1338 23.5369C95.4181 24.3102 95.7172 24.4584 96.4317 24.4584V24.7339H92.5026V24.4584H92.8743C93.6891 24.4584 93.9891 24.3719 93.9891 23.9606C93.9891 23.7259 93.8888 23.5093 93.8293 23.3611L92.8743 20.7011H89.9142ZM91.3738 16.6541L90.1576 20.057H92.6308L91.3738 16.6541ZM82.4556 16.9743C82.9136 16.1734 82.6432 15.9226 81.7272 15.9226V15.6481H84.9557V15.9245C83.9867 15.9967 83.5695 16.3929 83.17 17.0797L80.7981 21.1856V23.3754C80.7981 24.1506 81.0703 24.4593 81.9409 24.4593H82.1295V24.7367H78.1967V24.4593H78.4689C79.3543 24.4593 79.6126 24.124 79.6126 23.4058V21.3481L77.0697 17.283C76.3682 16.1582 76.0384 15.9559 75.1094 15.9245V15.6481H78.9102V15.9245C77.7962 15.9245 77.7238 16.2019 78.1549 16.8764L80.4423 20.4836L82.4546 16.9771L82.4556 16.9743ZM63.3639 20.3952V23.1711C63.3639 24.123 63.5479 24.4593 64.5058 24.4593H64.5476V24.7348H60.9641V24.4584H61.0459C61.8914 24.4584 62.1784 24.2247 62.1784 23.3906V16.9619C62.1784 16.2 61.9332 15.9815 61.1453 15.9226V15.6481H64.5485V15.9245C63.5349 15.9245 63.3639 16.2019 63.3639 17.3277V19.8699H68.9644V16.9904C68.9644 16.2181 68.7229 15.9245 67.8356 15.9245H67.5652V15.6481H71.2379V15.9245C70.3803 15.954 70.1509 16.2181 70.1509 17.1234V23.1882C70.1509 24.2266 70.437 24.4593 71.2955 24.4593H71.4367V24.7367H67.3934V24.4593H67.8356C68.7656 24.4593 68.9644 24.124 68.9644 23.3621V20.3962L63.3639 20.3952ZM44.6709 24.7348V24.4584C45.3278 24.4432 45.6009 24.3254 45.6009 24.0489C45.6009 23.801 45.2859 23.3041 43.8412 21.8288C42.6985 20.6574 42.3556 20.438 41.7285 20.5121V23.2452C41.7285 24.1648 41.9849 24.4584 42.8703 24.4584H43.0562V24.7339H39.1382V24.4584H39.3984C40.3117 24.4584 40.5402 24.1354 40.5402 23.3896V16.9743C40.5402 16.0993 40.1537 15.9226 39.3984 15.9226H39.1392V15.6452H42.9986V15.9226H42.8703C42.0137 15.9226 41.7276 16.2 41.7276 17.0778V20.2318C42.2841 20.1758 42.7263 19.9145 43.3265 19.2989C44.4405 18.1599 45.3138 16.8432 45.3138 16.3767C45.3138 16.0414 45.0992 15.9226 44.3271 15.9226V15.6452H48.0862V15.9226C47.0707 15.9378 46.6285 16.0832 46.1974 16.5221C45.7579 16.9743 44.8567 18.8021 43.3563 19.9715C43.6117 20.0152 43.8691 20.2318 44.4981 20.8769C46.0013 22.4111 46.8003 23.5511 47.2695 24.0337C47.5139 24.2817 47.8846 24.4584 48.8564 24.4584V24.7339H44.6718L44.6709 24.7348ZM26.9645 23.3611C26.9645 24.237 27.3064 24.4584 28.1073 24.4584H28.4362V24.7339H24.391V24.4584H24.6353C25.478 24.4584 25.7781 24.2237 25.7781 23.2452V17.0921C25.7781 16.1867 25.5356 15.9226 24.7078 15.9226H24.391V15.6481C24.7357 15.6481 25.6062 15.5911 26.1934 15.5597C26.7769 15.5312 27.0639 15.516 27.9939 15.516C30.6353 15.516 31.8236 16.6237 31.8236 18.1152C31.8236 19.2125 31.0952 20.133 29.9209 20.4836C30.4523 20.9082 30.8797 21.3177 31.5514 22.0036L32.6802 23.1588C33.5229 24.0204 34.3962 24.56 35.4953 24.636V24.8973C32.9952 25.0141 32.3504 24.4593 31.0794 23.1588L30.1373 22.1945C29.5083 21.5514 29.0085 21.1258 28.6657 20.893C28.307 20.9073 28.0803 20.9234 27.692 20.9234C27.3789 20.9234 27.1931 20.9082 26.9645 20.8949V23.3611ZM26.9645 20.6137C27.3064 20.6584 27.522 20.6422 27.8509 20.6422C29.4359 20.6422 30.4792 19.9563 30.4792 18.2036C30.4792 16.8441 29.88 15.7934 27.6799 15.7934C27.4077 15.7934 27.221 15.7934 26.9645 15.821V20.6137ZM14.2454 20.6992L13.4158 22.9935C13.3173 23.2728 13.1315 23.7117 13.1315 23.915C13.1315 24.3102 13.5013 24.4565 14.2891 24.4565H14.5177V24.732H11.2139V24.4565C12.1448 24.4413 12.3018 24.2807 12.7599 23.0077L15.3594 15.7459L15.2312 15.4258H16.4771L19.4613 23.5359C19.7465 24.3083 20.0466 24.4565 20.762 24.4565V24.732H16.832V24.4565H17.2036C18.0194 24.4565 18.3185 24.37 18.3185 23.9596C18.3185 23.724 18.2191 23.5084 18.1597 23.3602L17.2036 20.6992H14.2454ZM15.7022 16.6541L14.4879 20.057H16.9602L15.7022 16.6541Z"
        fill="#57585B" />
      <path fill-rule="evenodd" clip-rule="evenodd"
        d="M130.504 18.275V18.1221C130.505 18.1439 130.505 18.1648 130.505 18.1857C130.505 18.2161 130.505 18.2456 130.504 18.275Z"
        fill="white" />
      <path fill-rule="evenodd" clip-rule="evenodd"
        d="M98.9357 39.252H25.5469V38.643H98.9357V39.252ZM127.868 20.9246H127.831C126.37 20.9246 125.144 19.7513 125.144 18.1857C125.144 16.6429 126.37 15.4725 127.831 15.4725C129.265 15.4725 130.471 16.6116 130.504 18.123V18.275C130.47 19.7352 129.306 20.9132 127.868 20.9246ZM127.831 15.8725C126.584 15.8725 125.631 16.8804 125.631 18.1857C125.631 19.5186 126.584 20.5237 127.831 20.5237C129.068 20.5237 130.022 19.5186 130.022 18.1857C130.022 16.8804 129.068 15.8725 127.831 15.8725ZM129.158 19.7865H128.637L127.79 18.4156H127.279V19.7865H126.792V16.6002H127.995C128.737 16.6002 129.088 16.9004 129.088 17.5112C129.088 18.0898 128.729 18.3292 128.267 18.3786L129.158 19.7865ZM127.279 18.0157H127.784C128.211 18.0157 128.603 17.9938 128.603 17.4894C128.603 17.0666 128.246 17.0011 127.92 17.0011H127.279V18.0157ZM98.9357 1.86283H25.5469V1.25293H98.9357V1.86283Z"
        fill="#57585B" />
    </g>
  </g>
  <defs>
    <clipPath id="clip0_1_3800">
      <rect width="131" height="39" fill="white" transform="translate(0.0908203 0.5)" />
    </clipPath>
    <clipPath id="clip1_1_3800">
      <rect width="131" height="39" fill="white" transform="translate(0.0908203 0.5)" />
    </clipPath>
  </defs>
</svg>