<svg width="82" height="86" viewBox="0 0 82 86" fill="none" xmlns="http://www.w3.org/2000/svg">
  <g clip-path="url(#clip0_1_3808)">
    <g clip-path="url(#clip1_1_3808)">
      <path fill-rule="evenodd" clip-rule="evenodd" d="M63.7002 57.4355H81.7002V56.5635H63.7002V57.4355Z"
        fill="#585A5B" />
      <mask id="mask0_1_3808" style="mask-type:luminance" maskUnits="userSpaceOnUse" x="7" y="0" width="66" height="62">
        <path d="M7.95117 0.130859H72.4306V61.6194H7.95117V0.130859Z" fill="white" />
      </mask>
      <g mask="url(#mask0_1_3808)">
        <path fill-rule="evenodd" clip-rule="evenodd"
          d="M32.7687 43.0165C28.0426 44.4242 22.2577 46.8135 20.6221 52.1122C19.9252 54.9908 20.8335 57.7479 23.1052 59.5575C25.5595 61.5449 29.3958 62.2838 32.1631 60.9326C33.8005 60.1082 35.2788 58.716 35.8912 56.6447L35.8303 56.5849C34.0136 57.8095 31.2548 57.7804 29.499 56.4925C28.0156 55.2969 27.1969 53.6447 27.2561 51.7462C27.5606 48.1014 31.3766 45.3751 34.5278 44.4549C35.5579 44.1471 36.7403 43.9042 37.9497 43.8443C37.2241 47.4258 34.2842 50.8004 31.0738 52.8203V52.9401C33.134 53.6157 35.5275 53.1864 37.5268 52.663C38.0478 55.001 38.8631 57.9429 40.1909 60.6624C41.5204 57.9429 42.3374 55.001 42.8567 52.663C44.8561 53.1864 47.2495 53.6157 49.3098 52.9401V52.8203C46.0976 50.8004 43.1595 47.4276 42.4322 43.8443C43.645 43.9042 44.8273 44.1471 45.8557 44.4549C49.0053 45.3751 52.8247 48.1014 53.1258 51.7462C53.1883 53.6447 52.368 55.2969 50.8845 56.4925C49.1254 57.7787 46.3716 57.8095 44.5533 56.5849L44.4924 56.6447C45.1047 58.716 46.5814 60.1082 48.2187 60.9326C50.9843 62.2838 54.8223 61.5449 57.2784 59.5575C59.55 57.7479 60.4567 54.9908 59.7615 52.1122C58.1241 46.8135 52.3392 44.4242 47.6132 43.0165C54.9746 42.3426 61.9418 40.374 67.3038 35.0206C71.3025 30.7344 73.877 24.666 71.5461 18.7567C70.1202 14.7134 66.091 12.1427 62.0044 11.8349C55.9742 11.2499 50.8253 15.6935 48.3101 20.8092C47.8551 21.8799 47.4863 22.8787 47.2191 24.1769C50.7035 21.0247 54.7631 18.2351 59.7293 19.4306C61.9807 19.9677 64.1763 21.8439 64.792 24.2384C65.8204 28.6204 64.0917 32.662 60.9134 35.6927C56.277 39.5838 50.5818 41.0855 44.6125 41.6038C44.7647 38.3917 45.5546 35.4482 47.5523 33.0605C48.9765 31.4374 50.7035 30.4573 52.7942 30.6728C54.2151 30.837 57.0196 33.3649 53.6129 36.6711L53.7313 36.7959C56.8234 36.3376 60.0626 33.7635 60.9134 30.6095C61.9029 26.6654 58.459 21.6113 53.278 23.4414C45.8253 26.2293 43.1899 34.3228 42.7671 41.6773C42.7434 41.8466 42.0803 41.9219 41.9907 41.732C40.2637 33.2777 44.4636 26.4123 46.189 18.938C47.6741 11.6809 43.8056 5.83663 40.1909 0.130859C36.5745 5.83663 32.7095 11.6792 34.1946 18.938C35.9199 26.4123 40.1182 33.2777 38.3929 41.732C38.3015 41.9219 37.6385 41.8466 37.6148 41.6773C37.1902 34.3228 34.56 26.2276 27.1056 23.4414C21.9245 21.613 18.4789 26.6654 19.4719 30.6095C20.321 33.7652 23.5619 36.3393 26.6488 36.7959L26.7723 36.6711C23.364 33.3649 26.1634 30.837 27.591 30.6728C29.6783 30.4556 31.407 31.4357 32.8296 33.0605C34.8306 35.4482 35.6154 38.3917 35.7694 41.6038C29.8001 41.0855 24.1065 39.5838 19.4702 35.6927C16.2902 32.6603 14.5648 28.6187 15.5933 24.2384C16.2056 21.8439 18.4028 19.9677 20.6508 19.4306C25.6187 18.2334 29.6783 21.0247 33.1611 24.1769C32.8955 22.8804 32.5251 21.8799 32.0718 20.8092C29.5565 15.6935 24.4076 11.2499 18.3808 11.8349C14.2908 12.141 10.2617 14.7134 8.83745 18.7567C6.50319 24.666 9.07933 30.7344 13.0763 35.0206C18.44 40.374 25.409 42.3426 32.7687 43.0165Z"
          fill="#585A5B" />
      </g>
      <path fill-rule="evenodd" clip-rule="evenodd" d="M0.912109 57.4808H18.5628V56.7334H0.912109V57.4808Z"
        fill="#585A5B" />
      <path fill-rule="evenodd" clip-rule="evenodd"
        d="M50.0658 72.8325C49.0475 72.8325 48.1747 72.4408 47.882 72.0081C47.586 71.5651 47.6334 70.9032 47.5116 70.9032H47.2782V73.1096C48.5502 73.4157 50.0945 73.6005 51.3056 73.0463C52.0922 72.6769 53.7904 71.0982 52.7908 69.1347C51.8469 67.2755 48.2153 68.4198 48.2153 65.885C48.2153 64.2516 50.2028 64.0207 51.2752 64.4466C51.923 64.7305 51.8469 65.4181 52.0177 65.7636C52.0719 65.8884 52.1328 65.8799 52.2444 65.885C52.3662 65.2727 52.4355 64.6929 52.5303 64.0395C50.9961 63.446 48.6111 63.3417 47.6706 64.999C47.3374 65.6404 47.1344 66.4511 47.3983 67.2003C48.2153 69.2236 51.0874 68.4967 51.8367 69.9659C52.4152 71.0999 51.6016 72.8325 50.0658 72.8325Z"
        fill="#585A5B" />
      <path fill-rule="evenodd" clip-rule="evenodd"
        d="M17.0231 72.9591C16.5393 72.8736 15.9998 72.8394 15.9998 72.4409C15.9998 72.4409 16.0014 64.8229 15.9998 64.6006C15.9981 64.3748 18.1784 64.1336 18.8871 64.8793C19.4538 65.4746 19.4132 66.3349 19.0072 67.0105C18.6334 67.633 17.6929 68.0982 16.5309 68.153C17.8029 69.9728 18.5911 71.0794 20.2251 73.1968H21.9217V72.9386L21.607 72.8325C20.6581 72.1723 19.2271 70.0874 17.9771 68.4591C17.9771 68.4591 19.2829 68.0572 19.9088 67.3491C20.7089 66.4392 20.5617 65.3514 20.2792 64.8759C19.0935 62.8697 16.2163 64.1952 13.8516 63.8497V64.108C14.2085 64.1559 14.8698 64.1952 14.8834 64.6091V72.4409C14.8834 72.8394 14.2271 72.8839 13.8549 72.9266V73.1968H17.0214V72.9591H17.0231Z"
        fill="#585A5B" />
      <path fill-rule="evenodd" clip-rule="evenodd"
        d="M26.6122 64.59C27.2735 64.7234 27.3632 65.0928 27.3632 65.4965H27.649V64.017C27.649 63.8853 27.4968 63.8357 27.4968 63.8357C25.6074 63.822 23.7535 64.0016 21.876 63.8408V64.1128C22.1788 64.1521 22.8875 64.1727 22.8875 64.5763V72.4406C22.8875 72.6697 22.5373 72.9383 22.221 72.9263V73.1965C23.9159 73.1367 25.922 73.0785 27.5898 73.2632C28.1649 73.3009 28.0144 72.2661 28.0415 71.3476H27.7945C27.6896 71.8642 27.6727 72.2097 27.0452 72.3841C26.4142 72.55 24.8327 72.5911 24.0292 72.3243V68.6709H26.6375C26.991 68.6709 27.1044 69.1669 27.1873 69.4286H27.4088C27.4088 69.4286 27.331 68.7274 27.331 68.31C27.331 67.8841 27.4088 67.1042 27.4088 67.1042H27.1873C27.1044 67.3488 26.991 67.8927 26.6375 67.8927H24.036V64.5883C24.0343 64.59 25.9491 64.4617 26.6122 64.59Z"
        fill="#585A5B" />
      <path fill-rule="evenodd" clip-rule="evenodd"
        d="M46.0965 64.1154V63.8486H42.9199V64.1154C43.3123 64.177 43.8604 64.1155 43.95 64.6097V72.4415C43.8604 72.9307 43.314 72.8691 42.9199 72.9255V73.2043H46.0965V72.9255C45.7024 72.8691 45.1578 72.9307 45.0681 72.4415V64.6097C45.1578 64.1155 45.7024 64.177 46.0965 64.1154Z"
        fill="#585A5B" />
      <path fill-rule="evenodd" clip-rule="evenodd"
        d="M64.8405 82.9508V76.8568C64.9302 76.3659 65.3294 76.4258 65.7252 76.3659V76.0957H63.2759V76.3659C63.67 76.4258 64.076 76.3659 64.169 76.8568V82.7969C64.169 84.3482 63.0763 85.0358 61.3358 85.0358C59.9352 85.0358 58.7139 84.3636 58.7139 82.8363V76.8568C58.8053 76.3659 59.1791 76.4258 59.5715 76.3659V76.0957H56.7383V76.3659C57.1324 76.4258 57.5671 76.3659 57.6585 76.8568V83.0056C57.6585 84.2712 58.2488 85.6481 61.1057 85.6481C63.9846 85.6481 64.8405 84.2524 64.8405 82.9508Z"
        fill="#585A5B" />
      <path fill-rule="evenodd" clip-rule="evenodd"
        d="M36.4137 68.3291C36.8568 67.3833 37.2425 66.5538 37.7888 65.4557C38.1491 66.3365 38.484 67.2328 38.8663 68.3291H36.4137ZM40.0436 72.9728V73.1968H42.503V72.9574C42.251 72.9385 42.0412 72.8393 41.8873 72.5571C41.4543 71.6541 39.526 66.8548 38.1728 63.4717L34.1082 71.4591C33.7597 72.0218 33.5601 72.4425 33.0171 72.4562C33.0171 72.4562 31.7502 72.4425 31.5726 72.4425C31.3933 72.4425 31.1041 72.4425 31.1041 72.292V64.6108C31.1041 64.1952 31.7062 64.1661 32.1511 64.1131V63.8497H29.2451V64.1387C29.4904 64.1763 29.9961 64.2738 29.9961 64.6108V72.4425C29.9065 72.747 29.6629 72.8393 29.2468 72.9403V73.2054L34.986 73.1968V72.9385C34.986 72.9385 34.279 72.8787 34.4634 72.4357C34.6173 72.068 35.3007 70.4517 35.9485 69.1347H39.2165L40.5172 72.499C40.6035 72.747 40.2906 72.9385 40.0436 72.9728Z"
        fill="#585A5B" />
      <path fill-rule="evenodd" clip-rule="evenodd"
        d="M28.5242 80.5928C28.9674 79.6452 29.3547 78.8123 29.8994 77.7177C30.2597 78.6002 30.5946 79.4964 30.9785 80.5928H28.5242ZM32.1118 85.2364V85.4605H34.6203V85.2245C34.3649 85.2039 34.1568 85.1064 34.0012 84.8208C33.5699 83.9229 31.6365 79.1133 30.2901 75.7285L26.2254 83.7279C25.8533 84.3487 25.6013 85.1697 25.0583 85.1868C24.6236 85.1868 24.1212 85.1885 24.0299 84.7011V76.8625C24.1212 76.3716 24.6642 76.4315 25.0583 76.3716V76.1031H21.8817V76.3716C22.2741 76.4315 22.8222 76.3716 22.9135 76.8625V80.0557H17.5938V76.8625C17.6851 76.3716 18.2298 76.4315 18.6222 76.3716V76.1031H15.4473V76.3716C15.838 76.4315 16.3844 76.3716 16.4757 76.8625V84.7011C16.3844 85.1885 15.8397 85.1253 15.4473 85.1868V85.4605H18.6222V85.1868C18.2298 85.1253 17.6851 85.1885 17.5938 84.7011V80.7194H22.9135V84.7011C22.8222 85.1885 22.2741 85.1253 21.8817 85.1868V85.4605H27.1033V85.2039C27.1033 85.2039 26.3963 85.1458 26.5807 84.7011C26.7329 84.3385 27.4163 82.7136 28.0658 81.3932H31.3388L32.5855 84.7627C32.6734 85.0107 32.3588 85.2039 32.1118 85.2364Z"
        fill="#585A5B" />
      <path fill-rule="evenodd" clip-rule="evenodd"
        d="M52.2457 77.7177C52.6026 78.6019 52.9392 79.4982 53.3232 80.5928H50.8688C51.312 79.6452 51.6977 78.8123 52.2457 77.7177ZM49.4395 85.2039C49.4395 85.2039 48.7342 85.1458 48.9202 84.7011C49.0742 84.3385 49.7575 82.7136 50.4054 81.3932H53.6784L54.9318 84.7627C55.0198 85.0107 54.7018 85.2039 54.4599 85.2364V85.4588H56.9599V85.2227C56.7045 85.2039 56.4964 85.1064 56.3391 84.8208C55.9095 83.9229 53.9795 79.1133 52.6297 75.7285L48.5667 83.7279C48.2149 84.2872 48.061 84.6446 47.4706 84.7199C46.6435 84.8225 44.4462 84.8601 43.6411 84.5916V80.9366H46.2494C46.6029 80.9366 46.7179 81.4326 46.8008 81.6943H47.0207C47.0207 81.6943 46.9429 80.9913 46.9429 80.5706C46.9429 80.1481 47.0207 79.3699 47.0207 79.3699H46.8008C46.7179 79.6145 46.6029 80.1549 46.2494 80.1549H43.6496V76.8556C43.6496 76.8556 45.5626 76.7188 46.2274 76.8556C46.8888 76.9822 46.9767 77.3534 46.9767 77.757H47.2626V76.2827C47.2626 76.1493 47.1087 76.0962 47.1087 76.0962C45.2193 76.0877 43.3637 76.2621 41.4912 76.0997V76.375C41.794 76.4127 42.501 76.4349 42.501 76.8385V84.7079C42.501 84.9337 42.1509 85.2039 41.8312 85.192V85.4605C43.5278 85.3972 45.4679 85.3955 47.2017 85.4605H49.4395V85.2039Z"
        fill="#585A5B" />
      <path fill-rule="evenodd" clip-rule="evenodd"
        d="M59.0195 66.4202C58.5526 65.9955 58.2089 64.2807 59.2385 63.93C59.6472 63.7502 60.1996 64.0639 60.2441 64.4358C60.3331 64.9698 60.0645 65.5214 59.7344 65.8351L59.0195 66.4202ZM61.6876 71.6579C61.1643 72.3857 60.0013 72.2606 59.2077 72.102C58.4398 71.8799 57.6154 71.2014 57.2768 70.4612C56.7363 69.1307 58.1952 67.7825 58.1952 67.7825C59.2983 69.0073 60.3074 70.4912 61.6876 71.6579ZM61.1557 63.9635C60.9881 63.4489 59.9517 63.0964 59.6934 63.2039C58.9614 63.5194 58.1952 64.0886 57.7659 64.8447C57.4238 65.5813 57.7659 66.5506 58.0413 67.2732C57.3982 67.934 56.5995 68.4733 56.266 69.3228C55.6246 71.0816 56.9723 72.6959 58.3628 73.0942C59.5874 73.5013 60.7965 72.8897 61.715 72.2271C61.9014 72.1108 61.963 72.0473 62.0758 71.9892C62.2674 72.1108 62.8027 72.4826 63.4304 72.7928C64.5079 73.3902 65.139 72.4597 65.7598 72.1002V71.9451C64.6875 72.4121 63.6476 71.6579 62.878 71.0269C63.3209 70.3749 63.6767 69.3897 63.769 68.4063L65.4058 68.4715L65.4827 67.7472H61.9613L61.4995 68.3464C62.0194 68.283 62.6026 68.6302 62.8164 69.1659C62.9926 69.8021 62.8592 70.3731 62.512 70.8049C61.2908 69.8197 59.9876 68.5368 59.141 66.926C59.9397 66.043 61.5012 65.3487 61.1557 63.9635Z"
        fill="#585A5B" />
      <path fill-rule="evenodd" clip-rule="evenodd"
        d="M12.0054 76.5764C12.71 76.8002 12.2465 77.8118 12.8588 78.0321C12.9734 78.0814 13.011 78.0321 13.011 78.0321L13.0452 76.1376C10.4097 75.4115 6.98053 75.5084 5.38825 78.1925C4.37917 79.9389 4.59125 82.6723 5.94067 84.1509C7.53295 85.9467 10.1206 86.0472 12.3423 85.4462C12.7442 85.337 12.8622 85.0338 12.9238 84.7237C11.7676 85.0814 10.7517 85.4198 9.33903 85.1643C7.86133 84.8876 6.71372 83.6028 6.27589 82.2599C5.72517 80.6157 5.9287 78.5714 7.10367 77.2725C8.39152 76.0124 10.4097 76.0424 12.0054 76.5764Z"
        fill="#585A5B" />
      <path fill-rule="evenodd" clip-rule="evenodd"
        d="M38.0607 84.366V77.0165C38.0607 77.0165 38.4837 76.9527 40.3316 77.0165C40.7563 77.0405 41.0013 77.2448 41.1138 77.6662H41.3504L41.29 76.2646C40.0731 76.3477 38.7875 76.3796 37.5236 76.3796C36.2615 76.3796 34.9758 76.3477 33.7606 76.2646L33.7002 77.6662H33.9369C34.0527 77.2448 34.2944 77.0405 34.719 77.0165C36.5669 76.9527 36.9916 77.0165 36.9916 77.0165V84.366C36.9009 84.8209 36.3588 84.7635 35.9694 84.8193V85.0747H39.0778V84.8193C38.6901 84.7619 38.1514 84.8209 38.0607 84.366Z"
        fill="#585A5B" />
      <path fill-rule="evenodd" clip-rule="evenodd"
        d="M73.2568 84.7186C71.9225 82.7647 71.4156 81.9969 70.4018 80.3191C71.3048 79.0485 72.0349 77.9582 73.0772 76.63C73.1628 76.4768 73.6882 76.6396 73.4649 76.3347H72.3219C71.5297 77.5415 70.7946 78.6909 69.9537 79.7046C69.4283 78.8617 69.0054 77.8943 68.3693 76.9413C68.0101 76.4129 67.2481 76.1096 66.2696 76.3459L66.2226 76.5901C66.5129 76.6157 66.7177 76.6396 67.1524 77.1409C67.7516 77.8879 68.5455 79.2959 69.3495 80.6911C68.2786 82.2459 67.2128 83.6092 66.043 85.148H66.857C67.8288 83.8023 68.6915 82.5316 69.6818 81.3184C70.6116 82.546 71.3048 83.8342 72.1759 85.1177H73.6798C73.8208 84.7665 73.4834 84.998 73.2568 84.7186Z"
        fill="#585A5B" />
      <path fill-rule="evenodd" clip-rule="evenodd"
        d="M74.4752 84.0471C74.4752 83.5139 74.9317 83.0797 75.4923 83.0797C76.0512 83.0797 76.5095 83.5139 76.5095 84.0471C76.5095 84.577 76.0512 85.0128 75.4923 85.0128C74.9317 85.0128 74.4752 84.577 74.4752 84.0471ZM74.3477 84.0471C74.3477 84.6457 74.8596 85.1341 75.4907 85.1341C76.1217 85.1341 76.6353 84.6473 76.6353 84.0471C76.6353 83.4468 76.1217 82.96 75.4907 82.96C74.8596 82.96 74.3477 83.4468 74.3477 84.0471Z"
        fill="#585A5B" />
      <path fill-rule="evenodd" clip-rule="evenodd"
        d="M75.1996 84.3179H75.7173C75.9712 84.3179 75.997 84.4615 75.997 84.588C75.997 84.6454 76.0049 84.8791 76.0347 84.9692H76.2965V84.9366C76.2291 84.9002 76.2192 84.8696 76.2172 84.7815L76.2033 84.5056C76.1934 84.293 76.1041 84.2528 76.0149 84.2202C76.116 84.1608 76.235 84.0803 76.235 83.8562C76.235 83.5306 75.9752 83.4463 75.7153 83.4463H74.9834V84.9692H75.1996V84.3179ZM75.1996 83.6225H75.7312C75.8363 83.6225 76.0149 83.6417 76.0149 83.8754C76.0149 84.0995 75.8502 84.1397 75.6935 84.1397H75.1996V83.6225Z"
        fill="#585A5B" />
    </g>
  </g>
  <defs>
    <clipPath id="clip0_1_3808">
      <rect width="81" height="86" fill="white" transform="translate(0.700195)" />
    </clipPath>
    <clipPath id="clip1_1_3808">
      <rect width="81" height="86" fill="white" transform="translate(0.700195)" />
    </clipPath>
  </defs>
</svg>