<svg width="136" height="28" viewBox="0 0 136 28" fill="none" xmlns="http://www.w3.org/2000/svg">
  <g clip-path="url(#clip0_1_3812)">
    <g clip-path="url(#clip1_1_3812)">
      <path
        d="M5.52749 5.86675C5.09745 5.91913 4.55991 5.97151 4.23738 5.97151C3.91485 5.97151 3.80734 5.97151 3.59232 5.91913V7.80485C3.59232 10.1096 3.59232 10.2144 5.09745 10.3191C5.15121 10.3191 5.20496 10.6334 5.0437 10.6334C4.61366 10.5287 3.80734 10.4763 3.10852 10.4763C2.14093 10.4763 1.38836 10.4763 0.689549 10.581C0.582039 10.6334 0.635794 10.2668 0.689549 10.2668C2.14093 10.1096 2.19469 10.162 2.19469 7.75246V3.03818C2.19469 1.25723 2.14093 0.681036 1.2271 0.681036C1.06583 0.681036 0.850814 0.681036 0.635794 0.733417C0.528285 0.733417 0.47453 0.471512 0.58204 0.419131C1.2271 0.209608 2.8935 0.157227 4.66741 0.157227C7.03263 0.157227 9.02157 0.89056 9.02157 2.61913C9.02157 3.50961 8.43026 4.81913 6.76386 5.50008C7.62394 7.80485 10.2042 10.5287 12.0318 10.5287C12.0856 10.5287 12.1394 10.8429 12.0318 10.8429C8.16149 10.8429 6.28006 8.38104 5.52749 5.86675ZM3.75358 0.628655C3.64607 0.942941 3.64607 1.67627 3.64607 2.82866V5.4477C3.86109 5.4477 3.9686 5.4477 4.29113 5.4477C6.7101 5.4477 7.57018 4.60961 7.57018 3.30008C7.57018 1.15246 6.1188 0.576274 4.50615 0.576274C4.23738 0.628655 4.02236 0.628655 3.75358 0.628655Z"
        fill="#58595B" />
      <path
        d="M16.4932 5.55238C16.4932 2.93333 19.0196 0 22.6212 0C26.0615 0 28.4805 2.51429 28.4805 5.2381C28.4805 7.90952 25.954 10.8429 22.3525 10.8429C18.8584 10.7905 16.4932 8.32857 16.4932 5.55238ZM17.9445 5.02857C17.9445 8.5381 20.3635 10.319 22.675 10.319C25.1477 10.319 26.9754 8.64286 26.9754 5.7619C26.9754 2.25238 24.5564 0.471429 22.2449 0.471429C19.7722 0.471429 17.9445 2.14762 17.9445 5.02857Z"
        fill="#58595B" />
      <path
        d="M35.0391 9.74286C34.9316 9.69048 35.0928 8.74762 35.1466 7.64762C35.1466 7.54286 35.4154 7.59524 35.4154 7.64762C35.5229 9.27143 36.4367 10.319 38.1569 10.319C39.2857 10.319 40.3071 9.74286 40.3071 8.48571C40.3071 5.86667 35.4154 5.81429 35.4154 2.93333C35.4154 1.46667 36.7593 0 38.6407 0C39.6083 0 40.1996 0.209524 40.7909 0.52381C40.8984 0.576191 41.0596 1.20476 41.0596 2.25238C41.0596 2.35714 40.7371 2.30476 40.7371 2.25238C40.5221 1.1 39.7695 0.471429 38.5332 0.471429C37.5118 0.471429 36.5442 1.1 36.5442 2.09524C36.5442 4.60952 41.3822 4.55714 41.3822 7.59524C41.3822 9.32381 39.9845 10.7905 38.0494 10.7905C36.8668 10.7905 35.9529 10.4238 35.0391 9.74286Z"
        fill="#58595B" />
      <path
        d="M57.3471 10.5808C56.7558 10.5808 55.6807 10.476 54.498 10.476C52.8316 10.476 51.1652 10.476 49.9826 10.5808C49.8214 10.5808 49.9289 10.2665 49.9826 10.2665C51.649 10.1094 51.649 10.1617 51.649 7.75222V3.03794C51.649 0.628415 51.5953 0.680796 49.9826 0.523653C49.9289 0.523653 49.8214 0.209367 49.9826 0.261748C51.1652 0.36651 52.7779 0.36651 54.4443 0.36651C55.6269 0.36651 56.7558 0.314129 57.7233 0.261748C57.6158 0.576034 57.6158 0.837939 57.6158 1.20461C57.6158 1.36175 57.6158 1.67603 57.6158 1.83318C57.6158 1.93794 57.3471 1.88556 57.3471 1.83318C57.2395 1.15222 56.8633 0.942701 54.7668 0.942701H53.2079C53.1542 1.36175 53.1004 2.0427 53.1004 3.09032V5.13318H54.7668C56.5407 5.13318 56.4332 5.02842 56.5407 4.60937C56.5407 4.55699 56.8095 4.60937 56.8633 4.66175C56.8095 4.92365 56.7558 5.29032 56.7558 5.65699C56.7558 5.81413 56.7558 6.12842 56.7558 6.28556C56.8095 6.39032 56.487 6.33794 56.487 6.28556C56.3795 5.81413 56.272 5.60461 54.8206 5.60461H53.1542V7.90937C53.1542 9.95222 53.4229 10.1617 54.1755 10.1617H55.0356C57.5083 10.1617 57.6696 9.95222 57.9384 8.90461C57.9384 8.85223 58.2609 8.85222 58.2071 8.95699C58.1534 9.37603 57.9921 10.1094 57.8846 10.4237C57.7233 10.5284 57.6158 10.5808 57.3471 10.5808Z"
        fill="#58595B" />
      <path
        d="M76.0536 10.6862C75.9998 10.7386 75.8386 10.7909 75.7848 10.6862L73.3121 3.98142L70.248 10.7386C70.1943 10.7909 69.9793 10.8433 69.9793 10.7386L66.8615 3.09094C66.0552 1.20523 65.8401 0.629038 64.55 0.524276C64.4963 0.524276 64.3888 0.262372 64.55 0.262372C64.9801 0.314752 65.6789 0.367133 66.2702 0.367133C67.1303 0.367133 68.2591 0.367133 68.8504 0.262372C69.0117 0.262372 68.9042 0.524276 68.8504 0.524276C68.0978 0.576657 67.7216 0.681419 67.7216 1.10047C67.7216 1.41475 68.0978 2.51475 68.3129 3.03856L70.6243 8.6957L73.0433 3.24809L72.9358 3.03856C72.1295 1.20523 71.9682 0.576657 70.7318 0.471895C70.6781 0.471895 70.6243 0.209991 70.7318 0.209991C71.2156 0.262371 71.8607 0.314752 72.452 0.314752C73.3121 0.314752 74.5484 0.314752 75.1935 0.209991C75.301 0.15761 75.301 0.471895 75.2473 0.471895C74.2259 0.576657 73.9034 0.681419 73.9034 1.15285C73.9034 1.51951 74.0647 2.0957 74.3872 2.98618L76.3761 8.64332L78.6876 2.9338C79.0639 1.99094 79.2789 1.51951 79.2789 1.10047C79.2789 0.681419 79.0101 0.576657 78.2038 0.524276C78.15 0.524276 78.0425 0.262372 78.2038 0.262372C78.6876 0.314752 79.1714 0.367133 79.8164 0.367133C80.7303 0.367133 80.6765 0.367133 81.3216 0.262372C81.4291 0.209991 81.3753 0.524276 81.3216 0.524276C80.3002 0.629038 79.9777 1.30999 79.2251 3.09094L76.0536 10.6862Z"
        fill="#58595B" />
      <path
        d="M86.9658 5.55238C86.9658 2.93333 89.4923 0 93.0939 0C96.5342 0 98.9532 2.51429 98.9532 5.2381C98.9532 7.90952 96.4267 10.8429 92.8251 10.8429C89.331 10.7905 86.9658 8.32857 86.9658 5.55238ZM88.4172 5.02857C88.4172 8.5381 90.8362 10.319 93.1476 10.319C95.6204 10.319 97.448 8.64286 97.448 5.7619C97.448 2.25238 95.0291 0.471429 92.7176 0.471429C90.2449 0.471429 88.4172 2.14762 88.4172 5.02857Z"
        fill="#58595B" />
      <path
        d="M105.565 5.55238C105.565 2.93333 108.092 0 111.693 0C115.134 0 117.553 2.51429 117.553 5.2381C117.553 7.90952 115.026 10.8429 111.425 10.8429C107.931 10.7905 105.565 8.32857 105.565 5.55238ZM107.017 5.02857C107.017 8.5381 109.436 10.319 111.747 10.319C114.22 10.319 116.048 8.64286 116.048 5.7619C116.048 2.25238 113.629 0.471429 111.317 0.471429C108.844 0.471429 107.017 2.14762 107.017 5.02857Z"
        fill="#58595B" />
      <path
        d="M126.906 10.476C125.938 10.476 124.971 10.476 124.272 10.5808C124.11 10.5808 124.218 10.2665 124.272 10.2665C125.723 10.1093 125.777 10.1617 125.777 7.75219V3.03791C125.777 0.680766 125.669 0.680766 124.272 0.523624C124.218 0.523624 124.11 0.261719 124.272 0.261719C124.971 0.366481 126.099 0.366481 127.067 0.366481C127.497 0.366481 129.002 0.3141 129.593 0.3141C133.464 0.3141 135.453 2.5141 135.453 5.29029C135.453 8.17124 133.034 10.5808 129.378 10.5808C128.787 10.5808 127.336 10.476 126.906 10.476ZM127.336 0.785528C127.228 1.25696 127.228 1.78077 127.228 2.98553V8.38077C127.228 9.9522 127.497 10.1093 129.808 10.1093C132.174 10.1093 133.948 8.53791 133.948 5.8141C133.948 2.46172 132.066 0.785528 129.056 0.785528C127.981 0.733147 127.604 0.785528 127.336 0.785528Z"
        fill="#58595B" />
      <path d="M96.9912 16.8926H40.9912V17.8926H96.9912V16.8926Z" fill="#58595B" />
      <path
        d="M32.611 26.312V26.9786C32.611 27.6897 32.611 27.7342 33.0432 27.7342C33.2052 27.7342 33.2592 27.7342 33.2592 27.8675C33.2592 27.912 33.2592 27.912 33.2052 27.912C32.8811 27.912 32.557 27.912 32.1789 27.912C31.8548 27.912 31.5307 27.912 31.1526 27.912C31.0986 27.912 31.0986 27.912 31.0986 27.8675C31.0986 27.7342 31.0986 27.7342 31.3147 27.7342C31.7468 27.7342 31.7468 27.6897 31.7468 26.9786V25.3342C31.7468 24.7564 31.6928 24.712 31.2607 24.712C31.2067 24.712 31.0986 24.6675 31.0986 24.6675C31.0986 24.5342 31.0986 24.5342 31.2067 24.5342C31.5307 24.5342 31.8548 24.5342 32.2329 24.5342C32.557 24.5342 32.8811 24.5342 33.2592 24.5342C33.3132 24.5342 33.3132 24.5342 33.3132 24.6675C33.3132 24.712 33.2592 24.712 33.0972 24.712C32.7191 24.712 32.7191 24.7564 32.7191 25.3342V26.0897H34.6096V25.3342C34.6096 24.7564 34.5556 24.712 34.2315 24.712C34.1235 24.712 34.0154 24.6675 34.0154 24.6675C34.0154 24.5342 34.0154 24.5342 34.0694 24.5342C34.3935 24.5342 34.7176 24.5342 35.0957 24.5342C35.4198 24.5342 35.7439 24.5342 36.122 24.5342C36.23 24.5342 36.23 24.5342 36.23 24.6675C36.23 24.712 36.176 24.712 36.068 24.712C35.5818 24.712 35.5818 24.7564 35.5818 25.3342V26.9786C35.5818 27.6897 35.5818 27.7342 36.014 27.7342C36.176 27.7342 36.23 27.7342 36.23 27.8675C36.23 27.912 36.23 27.912 36.176 27.912C35.8519 27.912 35.5278 27.912 35.1497 27.912C34.8256 27.912 34.5016 27.912 34.1235 27.912C34.0694 27.912 34.0694 27.912 34.0694 27.8675C34.0694 27.7342 34.0694 27.7342 34.2855 27.7342C34.7176 27.7342 34.7176 27.6897 34.7176 26.9786V26.312H32.611Z"
        fill="#58595B" />
      <path
        d="M43.6296 26.2231C43.6296 26.8453 43.1975 28.0009 41.199 28.0009C39.9026 28.0009 38.9844 27.3342 38.9844 26.2231C38.9844 25.1564 40.0647 24.4453 41.415 24.4453C42.7114 24.4453 43.6296 25.1564 43.6296 26.2231ZM40.0647 26.2231C40.0647 26.8009 40.3347 27.8231 41.361 27.8231C42.4413 27.8231 42.6574 26.9786 42.6574 26.2231C42.6574 25.5564 42.3873 24.6231 41.361 24.6231C40.2807 24.6675 40.0647 25.512 40.0647 26.2231Z"
        fill="#58595B" />
      <path
        d="M50.5983 24.5337C50.7063 24.5337 50.8143 24.4004 50.8683 24.4004C50.9224 24.4004 50.9764 24.4448 50.9764 24.4893C50.9764 24.5782 51.2464 25.2893 51.2464 25.3337C51.2464 25.3782 51.1924 25.3782 51.1384 25.3782C51.0844 25.3782 51.0304 25.3782 51.0304 25.3337C50.7063 24.8893 50.4902 24.7559 49.68 24.7559C49.3019 24.7559 49.3019 24.7559 49.3019 25.0671V26.9782C49.3019 27.6893 49.3019 27.7337 49.734 27.7337C49.8961 27.7337 49.9501 27.7337 49.9501 27.8671C49.9501 27.9115 49.9501 27.9115 49.8961 27.9115C49.572 27.9115 49.2479 27.9115 48.8698 27.9115C48.5457 27.9115 48.2216 27.9115 47.8435 27.9115C47.7895 27.9115 47.7895 27.9115 47.7895 27.8671C47.7895 27.7337 47.7895 27.7337 48.0056 27.7337C48.4377 27.7337 48.4377 27.6893 48.4377 26.9782V25.0671C48.4377 24.7559 48.4377 24.7559 48.0056 24.7559C47.3034 24.7559 47.0333 24.9337 46.7092 25.3337C46.6552 25.3782 46.6552 25.4226 46.6012 25.4226C46.5472 25.4226 46.4932 25.4226 46.4932 25.3782C46.4932 25.2893 46.7632 24.6671 46.7632 24.5782C46.7632 24.5337 46.8173 24.4893 46.8713 24.4893C46.9253 24.4893 46.9793 24.6226 47.3034 24.6226H50.5983V24.5337Z"
        fill="#58595B" />
      <path
        d="M54.5948 25.3342C54.5948 24.7564 54.5408 24.712 54.1086 24.712C54.0546 24.712 53.9466 24.6675 53.9466 24.6675C53.9466 24.5342 53.9466 24.5342 54.0546 24.5342C54.2167 24.5342 54.5948 24.5342 54.9729 24.5342C56.8634 24.5342 57.1335 24.5342 57.2955 24.5342C57.2955 24.5342 57.3495 24.5342 57.3495 24.5786C57.3495 24.6675 57.6196 25.2008 57.6196 25.2897C57.6196 25.3342 57.5656 25.3342 57.5116 25.3342C57.4035 25.3342 57.4035 25.3342 57.2955 25.2008C57.1875 25.112 57.0254 24.9342 56.8094 24.8453C56.6473 24.7564 56.5933 24.7564 56.1072 24.7564C55.567 24.7564 55.513 24.7564 55.513 25.0675V26.1786H55.8911C56.3232 26.1786 56.4313 26.0897 56.4853 25.7342C56.4853 25.6453 56.5393 25.6008 56.5933 25.6008C56.7013 25.6008 56.7013 25.6008 56.7013 25.6453C56.7013 25.6897 56.7013 25.8231 56.7013 26.2675C56.7013 26.4897 56.7013 26.712 56.7013 26.8897C56.7013 26.9342 56.6473 26.9342 56.5393 26.9342C56.4853 26.9342 56.4853 26.9342 56.4853 26.8453C56.3772 26.4453 56.3773 26.3564 55.6751 26.3564H55.459V27.5564C55.459 27.7342 55.459 27.7342 56.8634 27.7342C56.9714 27.7342 57.1335 27.6453 57.2415 27.5564C57.5656 27.1564 57.6196 27.1564 57.7276 27.1564C57.8356 27.1564 57.8356 27.1564 57.8356 27.2008C57.8356 27.2453 57.6196 27.6453 57.5116 27.8675C57.4575 27.9564 57.4575 27.9564 57.2955 27.9564C57.1875 27.9564 57.0794 27.9564 54.8108 27.9564C54.0546 27.9564 54.0006 27.9564 53.9466 27.9564C53.8926 27.9564 53.8926 27.9564 53.8926 27.912C53.8926 27.7786 53.8926 27.7786 54.1086 27.7786C54.5408 27.7786 54.5408 27.7342 54.5408 27.0231V25.3342H54.5948Z"
        fill="#58595B" />
      <path
        d="M61.2927 25.3342C61.2927 24.7564 61.2387 24.712 60.8066 24.712C60.7526 24.712 60.6445 24.6675 60.6445 24.6675C60.6445 24.5342 60.6445 24.5342 60.7526 24.5342C61.0766 24.5342 61.4007 24.5342 61.7788 24.5342C62.1029 24.5342 62.427 24.5342 62.8051 24.5342C62.9131 24.5342 62.9131 24.5342 62.9131 24.6675C62.9131 24.712 62.8591 24.712 62.7511 24.712C62.265 24.712 62.265 24.7564 62.265 25.3342V27.3786C62.265 27.6453 62.319 27.6897 62.8051 27.6897C63.6153 27.6897 63.9934 27.6897 64.3175 26.9786C64.3175 26.9342 64.3715 26.9342 64.4256 26.9342C64.4796 26.9342 64.5336 26.9342 64.5336 26.9786C64.5336 27.0675 64.3175 27.8675 64.2635 27.912C64.2635 27.9564 64.2095 27.9564 64.1555 27.9564C63.8854 27.9564 62.9131 27.9564 62.265 27.9564C61.3467 27.9564 61.0226 27.9564 60.7526 27.9564C60.6985 27.9564 60.6985 27.9564 60.6985 27.912C60.6985 27.7786 60.6985 27.7786 60.9146 27.7786C61.3467 27.7786 61.3467 27.7342 61.3467 27.0231V25.3342H61.2927Z"
        fill="#58595B" />
      <path
        d="M75.013 26.8898C75.013 26.8453 75.013 26.6675 74.6349 26.6675H74.3108C74.2568 26.6675 74.2568 26.6231 74.2568 26.5786C74.2568 26.4898 74.2568 26.4898 74.3648 26.4898C74.6889 26.4898 75.067 26.4898 75.3911 26.4898C75.7152 26.4898 76.0392 26.4898 76.3633 26.4898C76.4174 26.4898 76.4174 26.5342 76.4174 26.5786C76.4174 26.6675 76.4174 26.6675 76.0933 26.6675C75.9852 26.6675 75.8772 26.7564 75.8772 27.0231V27.4231C75.8772 27.6453 76.0392 27.6453 76.0392 27.7342C76.0392 27.8231 75.7152 27.8231 75.6071 27.8675C75.175 27.9564 74.6889 28.0009 74.2027 28.0009C72.3663 28.0009 71.6641 27.2453 71.6641 26.2675C71.6641 25.1564 72.7984 24.4453 74.1487 24.4453C75.067 24.4453 75.5531 24.7564 75.6611 24.7564C75.7692 24.7564 75.8232 24.6675 75.8772 24.6675C75.9312 24.6675 75.9312 24.6675 75.9312 24.712C75.9312 24.9786 75.9852 25.2898 75.9852 25.5564C75.9852 25.6009 75.9312 25.6009 75.8772 25.6009C75.7152 25.6009 75.7692 25.3342 75.6071 25.1564C75.283 24.7564 74.959 24.6231 74.3108 24.6231C73.2845 24.6231 72.8524 25.4675 72.8524 26.2231C72.8524 27.112 73.3925 27.7342 74.4188 27.7342C74.6349 27.7342 75.121 27.7342 75.121 27.3342V26.8898H75.013Z"
        fill="#58595B" />
      <path
        d="M80.6843 26.9786C80.6843 27.6897 80.6843 27.7342 81.1164 27.7342C81.2784 27.7342 81.3325 27.7342 81.3325 27.8675C81.3325 27.912 81.3325 27.912 81.2784 27.912C80.9543 27.912 80.6303 27.912 80.2522 27.912C79.9281 27.912 79.604 27.912 79.2259 27.912C79.1719 27.912 79.1719 27.912 79.1719 27.8675C79.1719 27.7342 79.1719 27.7342 79.3879 27.7342C79.82 27.7342 79.82 27.6897 79.82 26.9786V25.3342C79.82 24.7564 79.766 24.712 79.3339 24.712C79.2799 24.712 79.1719 24.6675 79.1719 24.6675C79.1719 24.5342 79.1719 24.5342 79.2799 24.5342C79.604 24.5342 79.9281 24.5342 80.3062 24.5342C80.4682 24.5342 80.7923 24.5342 81.2784 24.5342C82.7368 24.5342 82.8989 25.1564 82.8989 25.4675C82.8989 25.912 82.5208 26.1342 82.0346 26.2675L81.9806 26.312C81.9806 26.312 82.0346 26.3564 82.0886 26.4453L83.0609 27.5564C83.1689 27.6897 83.331 27.7342 83.547 27.7342C83.6011 27.7342 83.6011 27.7342 83.6011 27.7786C83.6011 27.912 83.6011 27.912 83.547 27.912C83.439 27.912 83.1149 27.912 82.8989 27.912C82.7368 27.912 82.5208 27.912 82.3047 27.912C82.2507 27.912 82.1427 27.7786 82.0346 27.6008L81.3324 26.712C81.0624 26.4008 81.0083 26.4008 80.7923 26.4008V26.9786H80.6843ZM80.6843 26.2231H80.9003C81.6025 26.2231 81.8186 25.912 81.8186 25.512C81.8186 25.0675 81.6025 24.712 81.0084 24.712C80.8463 24.712 80.6843 24.7564 80.6843 24.9342V26.2231Z"
        fill="#58595B" />
      <path
        d="M90.8386 26.2231C90.8386 26.8453 90.4065 28.0009 88.408 28.0009C87.1116 28.0009 86.1934 27.3342 86.1934 26.2231C86.1934 25.1564 87.2737 24.4453 88.624 24.4453C89.9204 24.4453 90.8386 25.1564 90.8386 26.2231ZM87.2737 26.2231C87.2737 26.8009 87.5437 27.8231 88.57 27.8231C89.6503 27.8231 89.8663 26.9786 89.8663 26.2231C89.8663 25.5564 89.5963 24.6231 88.57 24.6231C87.4897 24.6675 87.2737 25.512 87.2737 26.2231Z"
        fill="#58595B" />
      <path
        d="M94.3493 25.3337C94.3493 24.7559 94.2953 24.7115 93.8632 24.7115C93.8092 24.7115 93.7012 24.667 93.7012 24.667C93.7012 24.5337 93.7012 24.5337 93.8092 24.5337C94.1333 24.5337 94.4574 24.5337 94.8355 24.5337C95.1596 24.5337 95.4837 24.5337 95.8617 24.5337C95.9698 24.5337 95.9698 24.5337 95.9698 24.667C95.9698 24.7115 95.9158 24.7115 95.8077 24.7115C95.3216 24.7115 95.3216 24.7559 95.3216 25.3337V26.5337C95.3216 27.6448 96.2399 27.6448 96.5639 27.6448C97.3201 27.6448 97.7523 27.2004 97.7523 26.3115V25.467C97.7523 24.667 97.5362 24.667 97.1581 24.667C97.1041 24.667 96.9961 24.667 96.9961 24.5781C96.9961 24.4893 96.9961 24.4893 97.1041 24.4893C97.2661 24.4893 97.5902 24.4893 97.8603 24.4893C98.0763 24.4893 98.3464 24.4893 98.6165 24.4893C98.6705 24.4893 98.6705 24.5337 98.6705 24.6226C98.6705 24.667 98.6165 24.667 98.4544 24.7115C98.2924 24.7115 98.0223 24.7559 98.0223 25.1115C97.9683 26.3559 97.9683 26.7559 97.9143 26.9781C97.6982 27.7337 96.942 28.0004 96.1318 28.0004C94.9435 28.0004 94.4034 27.467 94.4034 26.8448V25.3337H94.3493Z"
        fill="#58595B" />
      <path
        d="M101.912 25.3342C101.912 24.7564 101.858 24.712 101.426 24.712C101.372 24.712 101.264 24.6675 101.264 24.6675C101.264 24.5342 101.264 24.5342 101.372 24.5342C101.696 24.5342 102.02 24.5342 102.398 24.5342C102.56 24.5342 102.992 24.5342 103.37 24.5342C104.721 24.5342 104.937 25.2008 104.937 25.512C104.937 26.0453 104.505 26.5786 103.424 26.5786C103.208 26.5786 102.992 26.5342 102.83 26.5342V27.2453C102.83 27.7342 102.83 27.7786 103.37 27.7786C103.586 27.7786 103.586 27.7786 103.586 27.912C103.586 27.9564 103.586 27.9564 103.478 27.9564C103.046 27.9564 102.722 27.9564 102.398 27.9564C102.074 27.9564 101.75 27.9564 101.372 27.9564C101.318 27.9564 101.318 27.9564 101.318 27.912C101.318 27.7786 101.318 27.7786 101.534 27.7786C101.966 27.7786 101.966 27.7342 101.966 27.0231V25.3342H101.912ZM102.83 26.2231C102.83 26.312 102.992 26.312 103.046 26.312C103.64 26.312 103.964 25.9564 103.964 25.4675C103.964 25.0231 103.64 24.6675 103.046 24.6675C102.776 24.6675 102.776 24.7564 102.776 24.9786V26.2231H102.83Z"
        fill="#58595B" />
    </g>
  </g>
  <defs>
    <clipPath id="clip0_1_3812">
      <rect width="136" height="28" fill="white" transform="translate(-0.00976562)" />
    </clipPath>
    <clipPath id="clip1_1_3812">
      <rect width="136" height="28" fill="white" transform="translate(-0.00976562)" />
    </clipPath>
  </defs>
</svg>