<svg width="114" height="56" viewBox="0 0 114 56" fill="none" xmlns="http://www.w3.org/2000/svg">
  <g clip-path="url(#clip0_1_3816)">
    <g clip-path="url(#clip1_1_3816)">
      <path fill-rule="evenodd" clip-rule="evenodd"
        d="M1.40918 37.5692C1.80586 38.6833 2.86759 39.5187 4.0176 39.5187C5.21587 39.5187 6.50006 38.5842 6.50006 36.9765C6.50006 34.1905 1.6493 35.2977 1.6493 31.6565C1.6493 29.5763 3.38079 28.5625 5.15819 28.5625C5.85973 28.5625 6.97678 28.8028 7.52648 29.3348C7.5206 29.966 7.53237 30.7407 7.53237 30.7407C7.13451 29.6942 6.31526 29.0665 5.44304 29.0665C4.42487 29.0665 3.45024 29.6603 3.37491 31.1397C3.23601 33.8323 8.25392 32.9118 8.25392 36.3453C8.25392 38.6472 6.04218 40.018 4.02937 40.018C3.30782 40.018 1.91297 39.6773 1.40918 39.0835V37.5692Z"
        fill="#58595B" />
      <path fill-rule="evenodd" clip-rule="evenodd" d="M84.9082 34.7963H89.5188V33.7988H84.9082V34.7963Z"
        fill="#58595B" />
      <path fill-rule="evenodd" clip-rule="evenodd"
        d="M19.2624 33.8385V39.3499C19.22 39.6077 18.7916 39.8235 18.7916 39.8235C19.5213 39.8259 21.2163 39.8259 21.7072 39.8235C21.7072 39.8235 21.2564 39.5867 21.2387 39.3499V29.2757C21.2564 29.0412 21.7072 28.8032 21.7072 28.8032C21.2163 28.7974 19.5213 28.7974 18.7916 28.8032C18.7916 28.8032 19.22 29.019 19.26 29.2757C19.26 29.7587 19.2624 33.3042 19.2624 33.3042C18.4537 33.296 15.3462 33.296 14.5388 33.3042V29.2757C14.5811 29.019 15.0096 28.8032 15.0096 28.8032C14.2845 28.7974 12.5895 28.7974 12.0928 28.8032C12.0928 28.8032 12.5401 29.0412 12.5636 29.2757V39.3557C12.5412 39.5879 12.0928 39.8235 12.0928 39.8235C12.593 39.827 14.2845 39.827 15.0096 39.8235C15.0096 39.8235 14.5811 39.6077 14.5388 39.3499V33.8397C15.6888 33.828 18.1147 33.828 19.2624 33.8385Z"
        fill="#58595B" />
      <path fill-rule="evenodd" clip-rule="evenodd"
        d="M79.9702 33.574V29.269C80.0102 29.0182 80.4375 28.8023 80.4375 28.8023C79.7089 28.7977 78.0162 28.7977 77.5254 28.8023C77.5254 28.8023 77.9668 29.0368 77.9868 29.269C77.9868 29.8582 77.9903 38.7622 77.9903 39.3478C77.9668 39.587 77.5254 39.8215 77.5254 39.8215C78.0162 39.8227 79.7089 39.8227 80.4375 39.8215C80.4375 39.8215 80.0102 39.601 79.9702 39.3478V33.574Z"
        fill="#58595B" />
      <path fill-rule="evenodd" clip-rule="evenodd"
        d="M94.0531 39.8227C94.0531 39.8227 94.504 39.587 94.5204 39.349V29.269C94.504 29.0368 94.0508 28.8023 94.0508 28.8023C94.5487 28.7977 96.239 28.7977 96.9582 28.8023C96.9582 28.8023 96.5403 29.0182 96.4921 29.269V33.574V39.3105L96.5085 39.3128C97.4008 39.3467 98.8191 39.2125 99.7055 39.2253C99.9692 39.2253 100.441 39.1425 100.594 38.957C100.581 39.1857 100.522 39.5777 100.387 39.8192C100.387 39.8192 94.5487 39.8238 94.0531 39.8227Z"
        fill="#58595B" />
      <path fill-rule="evenodd" clip-rule="evenodd"
        d="M45.7989 36.127C45.5222 35.7899 39.5803 28.7969 39.5803 28.7969H37.5381C37.5381 28.7969 37.9583 28.896 38.2396 29.463C38.2396 29.463 38.2255 38.8722 38.2255 39.3482C38.1784 39.6072 37.7547 39.8219 37.7547 39.8219C38.4833 39.823 38.6905 39.823 39.1872 39.8219C39.1872 39.8219 38.7446 39.5862 38.7246 39.3482C38.7246 38.7614 38.7328 30.9307 38.7328 30.9307C38.7328 30.9307 38.6457 30.3637 39.0883 30.9307C39.6239 31.5899 46.9465 40.2162 46.9465 40.2162C46.9465 40.2162 46.9512 29.869 46.9512 29.2787C46.9806 29.0547 47.4232 28.8225 47.4232 28.8225C46.9347 28.812 46.1826 28.812 45.4516 28.8225C45.4516 28.8225 45.8824 29.0314 45.9295 29.2787V36.127"
        fill="#58595B" />
      <path fill-rule="evenodd" clip-rule="evenodd"
        d="M27.5473 35.7782H30.8608L29.1999 31.5794L27.5473 35.7782ZM29.8814 28.4492C29.8814 28.4492 34.0624 38.9597 34.2955 39.3202C34.5156 39.6854 34.877 39.8254 34.877 39.8254C34.4768 39.8277 32.431 39.8277 32.0202 39.8254C32.0131 39.7916 32.3863 39.6387 32.2627 39.3249C31.9802 38.5747 31.3422 37.1071 31.0632 36.3126H27.3542C27.0847 37.0464 26.4067 38.9737 26.2854 39.3377C26.176 39.6982 26.4514 39.7566 26.575 39.8254C26.276 39.8277 25.0978 39.8277 24.7646 39.8254C24.7646 39.8254 25.1908 39.6714 25.2531 39.3377C25.3096 38.9982 29.5365 28.4492 29.5365 28.4492H29.8814Z"
        fill="#58595B" />
      <path fill-rule="evenodd" clip-rule="evenodd"
        d="M105.782 35.7726H109.102L107.44 31.5796L105.782 35.7726ZM108.115 28.4482C108.115 28.4482 112.303 38.9564 112.526 39.3216C112.752 39.6809 113.117 39.8244 113.117 39.8244C112.708 39.8279 110.666 39.8244 110.255 39.8244C110.247 39.7929 110.621 39.6331 110.508 39.3227C110.21 38.5749 109.579 37.1072 109.293 36.3127H105.59C105.33 37.0454 104.635 38.9716 104.522 39.3379C104.412 39.6984 104.686 39.7544 104.804 39.8244C104.513 39.8279 103.294 39.8279 103.002 39.8244C103.002 39.8244 103.422 39.6727 103.485 39.3332C103.538 38.9984 107.766 28.4482 107.766 28.4482H108.115Z"
        fill="#58595B" />
      <path fill-rule="evenodd" clip-rule="evenodd"
        d="M59.6322 38.9022C58.8812 39.3373 57.9289 39.4482 57.0355 39.4482C55.0557 39.4482 52.9569 37.4672 52.9569 34.2763C52.9569 31.0202 54.7331 29.2165 56.8719 29.2165C58.315 29.2165 60.0159 30.0413 60.761 31.4787C60.761 31.4787 60.761 30.2502 60.7586 29.7077C59.9511 29.3693 58.88 28.7148 56.9402 28.7148C53.6561 28.7148 50.9971 30.5908 50.9971 34.3533C50.9971 37.6293 53.3124 39.9452 56.6235 39.9452C58.169 39.9452 59.538 39.7923 60.7845 39.321V35.7732C60.8045 35.5422 61.253 35.3065 61.253 35.3065C60.7586 35.3018 59.8899 35.3018 59.166 35.3065C59.166 35.3065 59.591 35.52 59.631 35.7732C59.6322 36.2597 59.6322 38.9022 59.6322 38.9022Z"
        fill="#58595B" />
      <path fill-rule="evenodd" clip-rule="evenodd"
        d="M67.8222 34.2489C68.1518 34.2757 68.7922 34.3387 69.416 34.1707C70.5754 33.8417 71.0368 32.9492 71.0368 31.6939C71.0368 30.5902 70.4483 29.5005 69.343 29.2835C68.5179 29.1354 68.3743 29.1587 67.8222 29.2754V34.2489ZM67.8222 39.3484C67.8446 39.5875 68.2872 39.822 68.2872 39.822C67.7999 39.8232 66.897 39.808 66.6605 39.8232C66.425 39.808 65.8506 39.8232 65.3574 39.822C65.3574 39.822 65.8 39.5864 65.8224 39.3484V29.2695C65.8 29.0362 65.3574 28.8029 65.3574 28.8029C65.966 28.7982 68.4555 28.8029 68.4555 28.8029C70.7296 28.8029 72.4611 29.875 72.4611 31.5014C72.4611 33.3739 70.6802 34.2279 70.2176 34.4285C70.6908 34.7062 71.2593 35.3922 71.4759 35.6944C72.0797 36.5495 72.5541 37.4409 72.8401 37.9064C73.8159 39.5339 74.3715 39.6867 74.3715 39.6867C73.7006 39.8932 73.0661 39.9539 72.6706 39.8594C71.3382 39.5479 70.0787 35.1787 69.1253 34.8614C68.8404 34.7634 67.8222 34.7774 67.8222 34.7774V39.3484Z"
        fill="#58595B" />
      <path fill-rule="evenodd" clip-rule="evenodd"
        d="M16.0075 53.3658V55.5311H16.4595V55.6769H14.8799V55.5346H15.2883V51.2191H14.8799V51.0791H16.4595V51.2191H16.0075V53.2246H17.7896V51.2191H17.3506V51.0791H18.9185V51.2191H18.5124V55.5311H18.9185V55.6769H17.3506V55.5311H17.7896V53.3658"
        fill="#58595B" />
      <path fill-rule="evenodd" clip-rule="evenodd"
        d="M27.2445 55.5315H27.7435V51.2206H27.3069C27.002 51.2206 26.9372 51.2883 26.6606 52.5448H26.5088V51.0771H29.7069V52.5448H29.5621C29.2832 51.2883 29.2078 51.2206 28.9089 51.2206H28.4722V55.5315H28.9771V55.6773H27.2445"
        fill="#58595B" />
      <path fill-rule="evenodd" clip-rule="evenodd"
        d="M31.7402 55.6761V55.5303H32.1404V51.2195H31.7402V51.0771H35.1526V52.5553H35.0008C34.6453 51.3081 34.5276 51.2195 34.2015 51.2195H32.8679V53.2238H33.3882C33.7319 53.2238 33.8978 53.015 34.0144 52.2998H34.1709V54.2808H34.0144C33.8978 53.5691 33.7319 53.3615 33.3882 53.3615H32.8679V55.5303H34.0532C34.5276 55.5303 34.6653 55.3506 35.0608 53.9763H35.2126V55.6761"
        fill="#58595B" />
      <path fill-rule="evenodd" clip-rule="evenodd"
        d="M38.6609 55.5313H39.659C40.1016 55.5313 40.2287 55.4566 40.623 53.8373H40.7784V55.6771H37.5332V55.5313H37.9381V51.2205H37.5332V51.0781H39.3318V51.2205H38.6609"
        fill="#58595B" />
      <path fill-rule="evenodd" clip-rule="evenodd"
        d="M42.9115 53.9486C43.1905 55.1923 43.4494 55.6391 44.0992 55.6391C44.7124 55.6391 45.1927 55.2378 45.1927 54.6673C45.1927 53.3536 42.6973 53.8646 42.6973 52.2873C42.6973 51.4998 43.3094 50.9678 44.2228 50.9678C44.7254 50.9678 45.1444 51.0856 45.4858 51.2314V52.5696H45.3339C45.3339 52.5696 45.2668 52.3246 45.0973 51.7996C44.9302 51.2664 44.6053 51.1171 44.171 51.1171C43.573 51.1171 43.1481 51.5079 43.1481 51.9944C43.1481 52.4949 43.5047 52.6291 44.4087 52.9698C45.4034 53.3361 45.7589 53.5881 45.7589 54.3231C45.7589 55.1561 45.0467 55.7826 44.0109 55.7826C43.6189 55.7826 43.0539 55.6064 42.7632 55.4104V53.9486"
        fill="#58595B" />
      <path fill-rule="evenodd" clip-rule="evenodd"
        d="M53.5644 53.0348H54.3083L54.2248 53.3825H54.233C54.4049 53.1631 54.7038 52.9531 55.0676 52.9531C55.4795 52.9531 55.7361 53.148 55.6114 53.7161L55.2171 55.5653H55.496L55.476 55.6773H54.3931L54.4213 55.5653H54.7144L55.1347 53.6566C55.2171 53.267 55.1252 53.1375 54.8757 53.1375C54.5897 53.1375 54.266 53.3825 54.153 53.9273L53.7975 55.5653H54.1047L54.0823 55.6773H52.9971L53.0194 55.5653H53.3066L53.8199 53.148H53.5421"
        fill="#58595B" />
      <path fill-rule="evenodd" clip-rule="evenodd"
        d="M57.6859 55.6464C58.0366 55.6464 58.3156 55.238 58.4957 54.405C58.7041 53.4705 58.564 53.096 58.2214 53.096C57.9036 53.096 57.6364 53.3492 57.4234 54.405C57.2092 55.3535 57.3469 55.6464 57.6859 55.6464ZM58.225 55.6767L58.2921 55.3547H58.2838C58.1332 55.5927 57.9142 55.763 57.5588 55.763C57.0573 55.763 56.6854 55.2695 56.8796 54.3572C57.0714 53.4589 57.6294 52.9537 58.1673 52.9537C58.4333 52.9537 58.6193 53.096 58.6817 53.3492H58.6958L58.9406 52.1907H58.6817L58.7158 52.0752H59.4609L58.7111 55.5647H58.956L58.9395 55.6767"
        fill="#58595B" />
      <path fill-rule="evenodd" clip-rule="evenodd"
        d="M51.2942 54.2108C50.6398 54.4908 50.1937 54.289 50.0336 55.0391C49.9512 55.4311 50.0724 55.5746 50.3467 55.5746C50.7339 55.5641 51.0824 55.1803 51.2071 54.6075L51.2942 54.2108ZM50.0501 53.9786L50.2325 53.1375C50.5268 53.0301 50.794 52.9531 51.0718 52.9531C51.7286 52.9531 51.9534 53.2961 51.8863 53.6193L51.4696 55.5653H51.7227L51.6945 55.6773H50.9729L51.0718 55.2235H51.0659C50.8658 55.5408 50.5221 55.7648 50.1501 55.7648C49.6816 55.7648 49.4133 55.486 49.5098 55.0391C49.6981 54.1291 50.7198 54.394 51.3201 54.0766L51.4437 53.5306C51.5144 53.2005 51.3672 53.0675 51.08 53.0675C50.7163 53.0675 50.5715 53.253 50.1678 53.9786H50.0501Z"
        fill="#58595B" />
      <path fill-rule="evenodd" clip-rule="evenodd"
        d="M22.8584 55.6424C23.5999 55.6424 23.9507 55.1209 23.9507 53.3779C23.9507 51.6373 23.5999 51.1169 22.8584 51.1169C22.1109 51.1169 21.759 51.6373 21.759 53.3779C21.759 55.1209 22.1109 55.6424 22.8584 55.6424ZM22.8584 50.9688C23.8683 50.9688 24.7935 51.9184 24.7935 53.3779C24.7935 54.8398 23.8683 55.7859 22.8584 55.7859C21.8426 55.7859 20.9209 54.8398 20.9209 53.3779C20.9209 51.9184 21.8426 50.9711 22.8584 50.9688Z"
        fill="#58595B" />
      <path fill-rule="evenodd" clip-rule="evenodd"
        d="M64.4905 53.2331H64.8848C65.6853 53.2331 66.0772 52.847 66.0772 52.1878C66.0772 51.7211 65.8418 51.2183 65.1073 51.2183H64.4905V53.2331ZM63.3652 55.6761V55.5303H63.769V51.2195H63.3652V51.0771H65.3215C66.4421 51.0771 66.8423 51.6091 66.8423 52.1878C66.8423 52.8295 66.3291 53.2763 65.3616 53.3358L66.9612 55.5303H67.2932V55.6761H66.2267L64.5105 53.3346H64.4905V55.5303H65.0026V55.675L63.3652 55.6761Z"
        fill="#58595B" />
      <path fill-rule="evenodd" clip-rule="evenodd"
        d="M75.0361 53.9486C75.3115 55.1829 75.5634 55.6391 76.2238 55.6391C76.8335 55.6391 77.3102 55.2378 77.3102 54.6673C77.3102 53.3501 74.8242 53.8646 74.8242 52.2873C74.8242 51.4998 75.4422 50.9678 76.3462 50.9678C76.8523 50.9678 77.269 51.0856 77.6115 51.2314V52.5638H77.4679L77.2243 51.7996C77.0548 51.2664 76.7252 51.1148 76.292 51.1148C75.7011 51.1148 75.2774 51.5079 75.2774 51.9944C75.2774 52.4949 75.6305 52.6244 76.5369 52.9674C77.5315 53.3361 77.8787 53.5881 77.8787 54.3231C77.8787 55.1561 77.169 55.7826 76.1343 55.7826C75.7423 55.7826 75.1856 55.6064 74.8854 55.4116V53.9486"
        fill="#58595B" />
      <path fill-rule="evenodd" clip-rule="evenodd"
        d="M81.7857 55.6509C82.5355 55.6509 82.8886 55.1317 82.8886 53.3934C82.8886 51.6515 82.5285 51.1265 81.7857 51.1265C81.0406 51.1265 80.6863 51.6515 80.6863 53.3934C80.6875 55.1317 81.0406 55.6509 81.7857 55.6509ZM81.7857 50.9854C82.798 50.9854 83.7185 51.9234 83.7185 53.3934C83.7185 54.8552 82.798 55.7967 81.7857 55.7967C80.7758 55.7967 79.8506 54.8552 79.8506 53.3934C79.8506 51.9234 80.7758 50.9854 81.7857 50.9854Z"
        fill="#58595B" />
      <path fill-rule="evenodd" clip-rule="evenodd"
        d="M86.7324 53.2329H87.1302C87.9283 53.2329 88.3167 52.8386 88.3167 52.1829C88.3167 51.7209 88.0789 51.2181 87.3444 51.2181H86.7324V53.2329ZM85.5977 55.6759V55.5301H86.0108V51.2193H85.5977V51.0723H87.5575C88.684 51.0723 89.0795 51.6101 89.0795 52.1841C89.0795 52.8304 88.5757 53.2761 87.5987 53.3356L89.2019 55.5301H89.5291V55.6759H88.4627L86.7571 53.3344H86.7312V55.5301H87.2385V55.6748L85.5977 55.6759Z"
        fill="#58595B" />
      <path fill-rule="evenodd" clip-rule="evenodd"
        d="M91.8267 55.5311H92.3352V51.2202H91.8867C91.5865 51.2202 91.5124 51.2856 91.2511 52.5386H91.0957V51.0732H94.2938V52.5386H94.1467C93.8689 51.2856 93.79 51.2202 93.4934 51.2202H93.0567V55.5311H93.5617V55.6769H91.8267"
        fill="#58595B" />
      <path fill-rule="evenodd" clip-rule="evenodd"
        d="M96.5658 53.9486C96.8448 55.1829 97.1037 55.6379 97.7511 55.6379C98.3656 55.6379 98.8493 55.2378 98.8493 54.6673C98.8493 53.3501 96.3516 53.8646 96.3516 52.2826C96.3516 51.4998 96.9648 50.9678 97.8829 50.9678C98.3879 50.9678 98.7999 51.0856 99.1413 51.2314V52.5638H98.9929L98.7563 51.7938C98.5857 51.2664 98.2525 51.1148 97.8206 51.1148C97.2285 51.1148 96.8083 51.5079 96.8083 51.9944C96.8083 52.4949 97.1602 52.6244 98.0654 52.9674C99.0647 53.3361 99.4037 53.5881 99.4037 54.3231C99.4037 55.1561 98.7069 55.7826 97.6664 55.7826C97.2709 55.7826 96.7118 55.6064 96.4175 55.4116V53.9486"
        fill="#58595B" />
      <path fill-rule="evenodd" clip-rule="evenodd"
        d="M68.8496 55.6771V55.5313H69.2401V51.2205H68.8496V51.0781H72.1805V52.5516H72.0457C71.6795 51.3091 71.5816 51.2205 71.2487 51.2205H69.953V53.219H70.4667C70.7949 53.219 70.9493 53.0136 71.0829 52.3008H71.2257V54.2818H71.0829C70.9493 53.5701 70.7949 53.3625 70.4667 53.3625H69.953V55.5313H71.1094C71.5689 55.5313 71.7152 55.3505 72.0964 53.9738H72.245V55.6771"
        fill="#58595B" />
      <path fill-rule="evenodd" clip-rule="evenodd"
        d="M63.5211 12.3019C61.7324 12.9797 59.2204 14.1441 57.7415 16.1286C57.5711 16.3549 57.3223 16.3771 57.1023 16.1076C56.6934 15.5966 54.5684 13.3612 51.5623 13.3612C50.8125 13.3612 49.6953 13.5491 48.957 13.7812V21.2561C49.4154 20.9119 50.4451 20.5526 51.4379 20.5526C52.9594 20.5526 55.8906 21.8791 56.9583 22.8696C57.358 23.2324 57.6597 23.2114 58.0133 22.8696C59.5901 21.3156 62.3946 19.9459 65.9709 19.9517V10.8366H51.4057C53.199 10.1576 55.7179 8.98974 57.1806 7.00757C57.358 6.7754 57.6056 6.76257 57.8187 7.02857C58.2333 7.5384 60.3629 9.77024 63.3679 9.7749C64.1016 9.7749 65.2291 9.58474 65.9709 9.3514V1.87657C65.5079 2.22774 64.4782 2.58124 63.49 2.58124C61.9639 2.58124 59.0384 1.2524 57.9638 0.26307C57.5722 -0.103263 57.2543 -0.0717633 56.9134 0.26307C55.3343 1.82057 52.531 3.18557 48.957 3.18557V12.3019C48.957 12.3019 62.1044 12.3019 63.5211 12.3019Z"
        fill="#58595B" />
      <path fill-rule="evenodd" clip-rule="evenodd" d="M0.290039 45.6742H112.29V45.3252H0.290039V45.6742Z"
        fill="#58595B" />
    </g>
  </g>
  <defs>
    <clipPath id="clip0_1_3816">
      <rect width="113" height="56" fill="white" transform="translate(0.290039)" />
    </clipPath>
    <clipPath id="clip1_1_3816">
      <rect width="113" height="56" fill="white" transform="translate(0.290039)" />
    </clipPath>
  </defs>
</svg>