<svg width="121" height="56" viewBox="0 0 121 56" fill="none" xmlns="http://www.w3.org/2000/svg">
  <g clip-path="url(#clip0_1_3820)">
    <g clip-path="url(#clip1_1_3820)">
      <path
        d="M17.221 31.3092C16.9854 32.1005 16.5758 32.802 16.0651 33.453C15.5489 34.1096 14.9429 34.6764 14.2921 35.1927C13.2821 35.9952 12.1935 36.663 11.0601 37.2803C9.01768 38.3915 6.88548 39.323 4.73084 40.1929C4.2539 40.3837 3.77696 40.5689 3.27197 40.6699C2.89603 40.7428 2.52009 40.7597 2.14415 40.7204C1.63354 40.6699 1.21832 40.451 0.977048 39.974C0.853605 39.7327 0.724551 39.4914 0.640385 39.2332C0.511331 38.846 0.634774 38.5879 1.0051 38.4251C1.21271 38.3353 1.43154 38.2792 1.65037 38.2175C3.41785 37.7461 5.15167 37.1905 6.84059 36.489C8.12552 35.9559 9.37117 35.3498 10.5495 34.609C11.4192 34.0591 12.2384 33.4418 12.9622 32.7066C13.4055 32.252 13.8039 31.7582 14.1237 31.2082C14.3987 30.7368 14.6007 30.2374 14.7129 29.693C14.8812 28.8625 14.7634 28.0712 14.3762 27.3192C13.7983 26.208 13.2203 25.0913 12.648 23.9801C11.9691 22.6669 11.2733 21.3594 10.6729 20.0069C10.3307 19.2325 10.0221 18.4468 9.79761 17.6275C9.52267 16.6454 9.42728 15.6465 9.42167 14.6251C9.41606 12.7956 9.90983 11.1064 10.7739 9.51265C11.812 7.58778 13.1811 5.93227 14.8083 4.4844C16.6206 2.86817 18.6462 1.61111 20.9468 0.802997C22.3832 0.297926 23.9262 0.0061078 25.8396 0.00023666C26.367 -0.00511599 27.248 0.0790624 28.1008 0.382105C28.4599 0.505566 28.8022 0.662699 29.1164 0.875951C29.7898 1.3249 30.2274 1.91976 30.306 2.75594C30.3621 3.35641 30.3172 3.93443 30.0928 4.49001C30.0086 4.69765 29.8852 4.89407 29.7393 5.06242C29.526 5.31496 29.2399 5.39353 28.9201 5.26445C28.6227 5.1466 28.3365 5.01192 28.1008 4.79305C27.8147 4.53491 27.7137 4.22625 27.8483 3.85587C27.8932 3.72679 27.955 3.60333 27.9998 3.47987C28.1289 3.14316 28.084 3.03092 27.7586 2.86256C27.5173 2.7391 27.2536 2.67176 26.9842 2.62686C26.3502 2.52585 25.7161 2.57074 25.0877 2.66053C21.3956 3.21611 17.4623 5.38791 15.0047 8.20508C13.7478 9.65295 12.8388 11.286 12.3675 13.1548C12.2272 13.7104 12.1262 14.2772 12.0813 14.8496C12.0364 15.4108 12.1374 15.9663 12.2777 16.5051C12.4741 17.2683 12.7546 18.0034 13.1081 18.7049C13.5458 19.5692 14.0003 20.4166 14.4604 21.2696C14.9991 22.2685 15.5602 23.2506 16.0876 24.2551C16.5645 25.1642 16.9685 26.107 17.2547 27.1003C17.6531 28.5145 17.6362 29.9119 17.221 31.3092ZM28.2916 29.5639C28.2804 29.7604 28.258 29.9568 28.2018 30.142C27.9325 31.023 27.6744 31.9041 27.377 32.7796C26.9057 34.1489 26.4175 35.5126 25.9238 36.8762C25.8396 37.1176 25.7386 37.3589 25.6095 37.5777C25.2729 38.1333 24.549 38.3073 23.9823 37.9874C23.7972 37.8808 23.713 37.7012 23.6849 37.4992C23.6457 37.2017 23.6344 36.8987 23.6176 36.5956C23.6962 35.5799 23.9206 34.5922 24.1619 33.6101C24.549 32.0276 25.0428 30.4731 25.5366 28.9186C25.6656 28.5145 25.9238 28.29 26.3278 28.2059C26.9955 28.0712 27.5453 28.2844 27.9998 28.7727C28.2075 28.9971 28.3085 29.2665 28.2916 29.5639ZM31.6919 21.2022C31.4731 21.6231 31.1028 21.8364 30.6595 21.943C30.5024 21.9823 30.3284 21.9991 30.1657 21.9935C29.829 21.9935 29.5092 22.0721 29.2006 22.2068C28.9257 22.3246 28.6395 22.4312 28.3533 22.5154C28.1682 22.5715 27.9662 22.5828 27.7754 22.594C27.2143 22.6276 26.642 22.2292 26.4905 21.5389C26.468 21.4379 26.4568 21.3313 26.4568 21.2247C26.4344 20.5737 26.6981 20.1696 27.2985 19.9171C27.8259 19.6982 28.3814 19.6758 28.8022 19.6702C29.5822 19.6926 30.2106 19.7712 30.811 19.9957C31.0466 20.0855 31.2823 20.1977 31.4955 20.338C31.8266 20.5681 31.8827 20.8318 31.6919 21.2022ZM52.0768 34.856C52.0376 35.0917 51.9758 35.3274 51.8468 35.5406C51.6897 35.7988 51.4765 35.9671 51.1735 36.0345C50.4216 36.1972 49.8044 35.8268 49.6416 35.0748C49.5911 34.8447 49.5911 34.5978 49.5855 34.3565C49.5799 34.0254 49.5799 33.6943 49.507 33.3688C49.3386 32.6168 48.9178 32.0556 48.2501 31.6796C47.7844 31.4159 47.2738 31.2812 46.7463 31.2138C46.0842 31.1297 45.4165 31.1409 44.76 31.2363C43.1104 31.4664 41.5112 31.8985 39.985 32.5775C39.4295 32.8245 38.9021 33.1163 38.4139 33.4698C38.0324 33.7448 37.6845 34.0535 37.3871 34.4238C36.9831 34.9345 36.7138 35.4957 36.6689 36.1523C36.6633 36.2702 36.6352 36.3936 36.596 36.5059C36.4557 36.9211 36.1583 37.1512 35.7263 37.1905C35.5523 37.2073 35.3559 37.1905 35.1932 37.1288C34.9295 37.0278 34.6714 36.8931 34.4301 36.7472C34.0429 36.5115 33.8914 36.1411 33.9588 35.6977C34.0037 35.3835 34.071 35.0748 34.1496 34.7662C34.3459 33.9917 34.5592 33.2229 34.7499 32.4428C34.8509 32.0332 34.8902 31.6123 34.879 31.1858C34.8622 30.647 35.081 30.3159 35.5579 30.1307C36.0124 29.9456 36.5286 30.0466 36.8429 30.4057C36.9775 30.5629 37.0617 30.7593 37.1683 30.9445C37.2132 31.023 37.2412 31.1072 37.2805 31.197C37.3535 31.169 37.4152 31.1521 37.4601 31.1184C38.6833 30.2823 40.0355 29.7379 41.4327 29.289C42.5549 28.9298 43.6996 28.6548 44.8779 28.5594C46.275 28.4416 47.6497 28.5482 48.9739 29.0701C49.7539 29.3788 50.4552 29.8109 51.05 30.4113C51.6111 30.9781 51.9478 31.6516 52.0768 32.4372C52.2171 33.2341 52.2003 34.0422 52.0768 34.856ZM68.7865 43.5993C68.534 46.0068 68.0852 48.3806 67.5409 50.732C67.3838 51.411 67.221 52.0845 67.0415 52.7523C66.8732 53.3808 66.6375 53.9869 66.3233 54.5593C66.1101 54.9465 65.8576 55.3001 65.5153 55.5863C65.1225 55.9118 64.6793 56.0577 64.1686 55.9791C63.8039 55.9174 63.6973 55.7659 63.7983 55.4179C63.8432 55.2608 63.8993 55.0981 63.9779 54.9578C64.5558 53.8971 64.8364 52.7355 65.0776 51.5682C65.4143 49.9127 65.6948 48.2459 65.9137 46.568C66.082 45.2829 66.256 43.9921 66.3962 42.7014C66.6038 40.8102 66.7834 38.9134 66.789 37.0053C66.789 36.6574 66.7497 36.3151 66.7161 35.9671C66.6992 35.7875 66.688 35.5799 66.5028 35.4957C66.2784 35.3947 66.1437 35.5967 66.0035 35.7202C65.852 35.8493 65.7229 35.9952 65.577 36.1299C65.2852 36.3936 65.0103 36.6742 64.7017 36.9155C63.5907 37.8022 62.317 38.2624 60.8974 38.2904C60.3868 38.3017 59.8706 38.3073 59.3656 38.195C59.1916 38.1558 59.0121 38.1165 58.8382 38.0604C57.7833 37.7068 57.0875 36.9548 57.0202 35.6248C56.9921 35.0299 57.0819 34.4463 57.2446 33.8795C57.7496 32.123 58.6305 30.5685 59.8537 29.216C60.6674 28.3181 61.6942 27.8074 62.8893 27.6615C63.4168 27.5942 63.9105 27.7176 64.3594 28.0038C64.741 28.2452 64.9654 28.5931 65.044 29.0252C65.1842 29.8445 65.0327 30.619 64.6568 31.3541C64.4211 31.8087 64.0564 31.9939 63.6244 31.9209C63.1418 31.8424 62.7827 31.5057 62.6705 31.023C62.5975 30.72 62.4292 30.6302 62.1487 30.7537C62.0533 30.7986 61.9635 30.8547 61.8849 30.922C61.7278 31.0623 61.5651 31.2026 61.4248 31.3541C60.7683 32.0725 60.2129 32.8581 59.7584 33.7168C59.6574 33.9019 59.5676 34.0984 59.5115 34.3004C59.4554 34.5024 59.4161 34.7157 59.4161 34.9233C59.4161 35.3442 59.6461 35.636 60.0557 35.7483C60.3026 35.8156 60.5607 35.838 60.8189 35.81C61.6156 35.7258 62.3451 35.4508 63.0184 35.0299C63.3382 34.8335 63.6356 34.5978 63.9161 34.3453C64.3089 33.9917 64.567 33.554 64.6063 33.0097C64.6288 32.7234 64.7466 32.4765 64.9654 32.3026C65.5714 31.8255 66.2335 31.4888 67.0303 31.5113C67.193 31.5169 67.3613 31.5506 67.5184 31.5955C67.9561 31.7301 68.2479 32.0163 68.3489 32.4653C68.4274 32.802 68.5004 33.1443 68.5565 33.4867C68.7473 34.6483 68.91 35.8156 68.9605 36.9941C68.9941 37.7629 69.0278 38.5318 69.0615 39.3006C69.0334 40.7428 68.9324 42.1739 68.7865 43.5993ZM78.056 33.5652C77.753 34.5473 77.3995 35.5069 76.9226 36.4217C76.743 36.7696 76.5466 37.1119 76.3222 37.4318C75.8733 38.0604 75.2392 38.3241 74.4761 38.268C74.1002 38.2399 73.8253 38.0547 73.6794 37.6956C73.5503 37.3701 73.6233 37.0727 73.8814 36.8313C73.915 36.8033 73.9487 36.7752 73.988 36.7472C74.4761 36.4161 74.8128 35.9559 75.0541 35.4284C75.1831 35.1534 75.301 34.8784 75.3963 34.5922C75.7274 33.6213 75.9631 32.6224 76.1426 31.6123C76.3839 30.2318 76.3895 28.8512 76.1033 27.4707C76.0697 27.308 76.0472 27.1396 76.0528 26.9769C76.0584 26.8478 76.0865 26.7019 76.1482 26.5896C76.5298 25.8545 77.478 25.6525 78.1233 26.1688C78.5946 26.5448 78.8359 27.061 78.9089 27.6503C78.9538 28.0263 78.9594 28.4023 78.9818 28.7783C78.8976 30.417 78.5329 32.0051 78.056 33.5652ZM79.3465 14.1032C79.0884 14.1761 78.8191 14.2098 78.6564 14.2435C77.9943 14.193 77.4388 14.1256 76.9113 13.9404C76.2661 13.716 75.7555 13.3007 75.3739 12.7339C75.2897 12.6104 75.2224 12.4701 75.1663 12.3354C74.998 11.9258 75.0709 11.5329 75.2953 11.1682C75.3627 11.0559 75.4637 10.9549 75.5759 10.8763C76.0136 10.5845 76.7598 10.6912 77.1021 11.0896C77.1694 11.1682 77.2312 11.2523 77.2929 11.3421C77.4724 11.6003 77.7025 11.7742 78.0055 11.8696C78.2748 11.9594 78.5385 12.0773 78.7966 12.2008C78.9706 12.2849 79.1333 12.4028 79.2848 12.5262C79.6046 12.79 79.7505 13.1435 79.7449 13.5644C79.7281 13.8394 79.6046 14.0246 79.3465 14.1032ZM98.5587 26.8646C98.4016 26.9993 98.2052 27.0274 98.0033 26.9881C97.4814 26.8927 96.9596 26.8197 96.4434 26.7075C94.4964 26.281 92.5886 25.7198 90.6696 25.1811C89.9121 24.9678 89.1602 24.7546 88.4027 24.5469C88.3186 24.5245 88.2288 24.5076 88.0829 24.4796C88.0436 24.6143 87.9987 24.7041 87.9819 24.8051C87.8473 25.6244 87.7687 26.455 87.7294 27.2855C87.6228 29.5639 88.2793 31.6067 89.6203 33.4362C90.0861 34.0759 90.6528 34.6203 91.3261 35.0412C91.9938 35.4564 92.712 35.7034 93.5088 35.6809C93.9633 35.6697 94.4122 35.6472 94.8667 35.6304C95.0294 35.6248 95.1977 35.6136 95.3605 35.6304C95.7196 35.6753 95.9215 35.911 96.0169 36.2365C96.1067 36.5564 96.0001 36.8819 95.7083 37.0671C95.4671 37.2186 95.2033 37.342 94.9396 37.4487C94.4458 37.6507 93.924 37.718 93.391 37.7573C91.8648 37.8639 90.4957 37.4543 89.2893 36.5059C88.6777 36.0288 88.1446 35.4733 87.6789 34.856C86.4725 33.2453 85.6646 31.4552 85.3111 29.4742C84.9968 27.7176 84.9968 25.9555 85.3391 24.199C85.3672 24.0643 85.3728 23.9296 85.3952 23.7781C85.3167 23.7276 85.2437 23.6715 85.1652 23.6434C84.677 23.4414 84.1832 23.2506 83.6951 23.0542C83.5997 23.0149 83.4987 22.9812 83.4033 22.9363C82.6402 22.5771 82.556 21.8139 82.7075 21.2976C82.8703 20.7589 83.336 20.439 83.9195 20.4839C84.1271 20.5007 84.3347 20.5625 84.5311 20.6242C85.0922 20.8094 85.6421 21.0058 86.2032 21.191C86.2874 21.2191 86.3772 21.2303 86.4501 21.2471C86.6128 21.1517 86.6297 20.989 86.6914 20.8599C87.0393 20.1528 87.3647 19.4401 87.7238 18.7442C87.9988 18.2055 88.3242 17.6948 88.7001 17.2234C88.8236 17.0719 88.9526 16.926 89.0817 16.7801C89.3117 16.5219 89.6035 16.4209 89.9346 16.4546C90.4003 16.4939 90.8099 16.6734 91.1409 17.0158C91.4383 17.3188 91.4832 17.5882 91.2812 17.9586C90.9838 18.5029 90.6696 19.036 90.361 19.5748C90.0075 20.1921 89.6484 20.8038 89.2949 21.4211C89.1939 21.6007 89.0817 21.7859 89.0536 22.016C89.1378 22.0608 89.2107 22.1114 89.2949 22.1394C92.0499 23.1327 94.7881 24.1597 97.5768 25.0576C97.8069 25.1306 98.0369 25.1979 98.2726 25.2596C98.6149 25.355 98.8225 25.5627 98.8673 25.9218C98.9291 26.2866 98.8449 26.6177 98.5587 26.8646ZM119.931 40.5464C119.651 40.5857 119.387 40.5296 119.163 40.3556C119.033 40.2546 118.91 40.1424 118.787 40.0301C116.02 37.4823 113.26 34.9289 110.493 32.3811C110.348 32.2464 110.202 32.123 110.045 31.9827C109.854 32.0949 109.803 32.2408 109.725 32.3699C109.085 33.4193 108.378 34.4126 107.564 35.333C107.031 35.9334 106.459 36.489 105.803 36.9548C105.371 37.2635 104.916 37.5272 104.405 37.69C103.597 37.9537 102.801 37.9425 102.032 37.5328C101.145 37.0614 100.68 36.3151 100.596 35.3218C100.539 34.6652 100.64 34.0254 100.826 33.3969C101.218 32.0612 101.886 30.8659 102.7 29.7491C103.154 29.1262 103.659 28.5482 104.243 28.0319C104.529 27.7794 104.826 27.5549 105.163 27.3753C105.477 27.2126 105.808 27.1284 106.167 27.1452C106.571 27.1677 106.897 27.336 107.132 27.6615C107.48 28.1498 107.525 28.6997 107.419 29.2665C107.374 29.5022 107.217 29.6706 106.981 29.7435C106.835 29.7884 106.689 29.8277 106.543 29.8502C105.797 29.9736 105.191 30.3384 104.703 30.9108C104.091 31.6291 103.558 32.3923 103.177 33.2566C103.059 33.5147 102.969 33.7897 102.89 34.0647C102.846 34.2218 102.84 34.3902 102.834 34.5585C102.834 35.0524 103.328 35.3442 103.698 35.2769C103.917 35.2376 104.142 35.1646 104.333 35.0468C104.624 34.8672 104.91 34.6595 105.163 34.4238C105.814 33.8346 106.375 33.1612 106.874 32.4372C107.334 31.7694 107.632 31.0343 107.834 30.2486C107.884 30.0466 107.94 29.8389 108.008 29.6369C108.058 29.4798 108.126 29.3282 108.204 29.1767C108.457 28.6941 108.855 28.4303 109.579 28.6548C109.904 28.7558 110.185 28.9354 110.404 29.1936C111.335 30.3103 112.384 31.3092 113.411 32.3306C115.588 34.4912 117.782 36.6349 119.965 38.7843C120.083 38.9021 120.212 39.0088 120.307 39.1435C120.414 39.2894 120.515 39.4465 120.565 39.6148C120.683 40.0582 120.38 40.4847 119.931 40.5464Z"
        fill="#58595B" />
    </g>
  </g>
  <defs>
    <clipPath id="clip0_1_3820">
      <rect width="120" height="56" fill="white" transform="translate(0.59082)" />
    </clipPath>
    <clipPath id="clip1_1_3820">
      <rect width="120" height="56" fill="white" transform="translate(0.59082)" />
    </clipPath>
  </defs>
</svg>