<svg width="134" height="28" viewBox="0 0 134 28" fill="none" xmlns="http://www.w3.org/2000/svg">
  <g clip-path="url(#clip0_1_3835)">
    <g clip-path="url(#clip1_1_3835)">
      <g clip-path="url(#clip2_1_3835)">
        <path fill-rule="evenodd" clip-rule="evenodd"
          d="M0.376953 16.5364C0.493212 16.4545 0.6011 16.3232 0.727589 16.2999C0.945226 16.2599 1.17495 16.2878 1.3991 16.2878H132.239H132.909C133.066 16.5913 132.995 16.7226 132.669 16.704C132.55 16.6975 132.43 16.703 132.311 16.703C88.5327 16.703 44.7543 16.704 0.976848 16.704H0.489492C0.451359 16.6481 0.414156 16.5922 0.376953 16.5364Z"
          fill="#58595B" />
        <path fill-rule="evenodd" clip-rule="evenodd"
          d="M23.1444 11.1302H18.7117C18.7071 11.092 18.7024 11.0548 18.6978 11.0166C18.7982 10.9952 18.8977 10.9663 18.9991 10.9524C19.5813 10.8741 19.7515 10.7512 19.7757 10.1712C19.8325 8.81097 19.8483 7.4498 19.8622 6.08863C19.8631 5.99366 19.7088 5.81397 19.626 5.81304C17.8774 5.79722 16.1289 5.80187 14.3878 5.80187C14.3534 5.86984 14.3171 5.90894 14.3181 5.94711C14.3376 7.35297 14.3571 8.75883 14.3869 10.1656C14.3962 10.6228 14.6296 10.8844 15.1058 10.9114C15.3393 10.9235 15.5718 10.9617 15.8211 10.9896C15.6257 11.2112 11.6609 11.2447 11.3614 11.0361C11.3995 11.0101 11.4283 10.9728 11.4618 10.9691C12.3779 10.8583 12.4923 10.7624 12.51 9.82487C12.5388 8.25328 12.537 6.6817 12.5407 5.10918C12.5435 4.00218 12.5491 2.89425 12.5258 1.78632C12.51 1.02753 12.3082 0.845043 11.5595 0.795698C11.4349 0.787319 11.3102 0.769629 11.1865 0.757526C11.1884 0.71656 11.1902 0.675595 11.1921 0.634629H15.4807C15.4853 0.674664 15.489 0.713767 15.4927 0.75287C15.3458 0.77056 15.1988 0.786388 15.0528 0.80687C14.7013 0.855284 14.3813 0.981905 14.3757 1.39156C14.3581 2.58328 14.3692 3.77594 14.3692 5.00397C14.4827 5.01328 14.612 5.03284 14.7413 5.03284C16.2973 5.0347 17.8523 5.02632 19.4074 5.04028C19.7432 5.04401 19.8938 4.97418 19.8817 4.59804C19.8511 3.68563 19.8697 2.77228 19.8483 1.85894C19.8278 1.03684 19.6269 0.846905 18.7991 0.793836C18.6885 0.786388 18.5806 0.76125 18.4708 0.744491C18.4736 0.70725 18.4755 0.669077 18.4783 0.631836H22.791C22.7947 0.668146 22.7975 0.703526 22.8012 0.739836C22.7371 0.757526 22.6738 0.783595 22.6078 0.791043C21.7837 0.884146 21.6405 0.998663 21.6396 1.76304C21.6321 4.41184 21.6321 7.0597 21.661 9.70756C21.6721 10.7922 21.7893 10.8741 22.8887 10.957C22.9724 10.9635 23.0551 10.9831 23.137 10.9961L23.1444 11.1302Z"
          fill="#58595B" />
        <path fill-rule="evenodd" clip-rule="evenodd"
          d="M88.9199 8.41245C88.9199 6.78965 88.9255 5.19014 88.9171 3.58969C88.9143 2.97613 88.9041 2.36165 88.8529 1.75089C88.7897 1.00607 88.5804 0.832894 87.8308 0.79379C87.7192 0.787273 87.6085 0.769583 87.4699 0.754687C87.7173 0.515411 90.7651 0.476307 91.2646 0.732342C91.0497 0.763066 90.9344 0.789135 90.8163 0.794721C90.3615 0.818928 90.0676 1.03586 90.0499 1.50417C90.0062 2.64003 89.9848 3.77682 89.9588 4.91362C89.9141 6.93303 89.8732 8.95338 89.8286 10.9728C89.8248 11.0873 89.7951 11.2018 89.7588 11.4392C89.5003 11.2577 89.2808 11.1469 89.1171 10.9812C86.7891 8.61169 84.4676 6.23569 82.1453 3.85969C82.0104 3.72282 81.8811 3.57945 81.6607 3.34482C81.6607 3.80103 81.6523 4.14458 81.6616 4.48813C81.7081 6.14817 81.7584 7.8082 81.8076 9.46917C81.8104 9.55855 81.8123 9.64886 81.8188 9.73824C81.8895 10.7037 82.0792 10.8918 83.0456 10.957C83.1042 10.9616 83.1609 10.9774 83.3664 11.0147C83.1646 11.1087 83.0781 11.1832 82.9907 11.1832C81.8709 11.1907 80.7511 11.1897 79.6313 11.1832C79.5559 11.1823 79.4815 11.1236 79.4053 11.0026C79.5978 10.9765 79.7894 10.9477 79.981 10.9253C80.34 10.8834 80.5669 10.7009 80.5874 10.3267C80.6255 9.62465 80.6674 8.92358 80.6795 8.22158C80.7185 5.97593 80.7418 3.73027 80.7762 1.48555C80.7818 1.11407 80.8171 0.743514 80.8469 0.231445C81.0794 0.399032 81.2403 0.481894 81.3594 0.60479C83.8436 3.17724 86.3241 5.75341 88.8055 8.32865C88.8427 8.36682 88.8938 8.39289 88.9199 8.41245Z"
          fill="#58595B" />
        <path fill-rule="evenodd" clip-rule="evenodd"
          d="M68.4705 8.47441C68.4705 7.91299 68.4789 7.41303 68.4687 6.91399C68.438 5.34334 68.3998 3.77268 68.3645 2.2011C68.3617 2.0512 68.3636 1.9013 68.3506 1.75234C68.2845 1.05127 68.0557 0.832477 67.3619 0.795236C67.2233 0.788718 67.0866 0.77196 66.9489 0.758925C66.9508 0.716098 66.9517 0.67327 66.9536 0.630443H70.645C70.6497 0.663029 70.6553 0.695615 70.6599 0.728201C70.5604 0.750546 70.4618 0.784063 70.3614 0.793374C69.7466 0.851098 69.5327 1.04289 69.5104 1.66389C69.4657 2.93475 69.4425 4.20655 69.4183 5.47834C69.3839 7.2743 69.3597 9.07027 69.3215 10.8653C69.3188 11.018 69.2453 11.1688 69.2044 11.3206C69.049 11.2545 68.8574 11.2247 68.744 11.1148C67.9478 10.3449 67.161 9.56558 66.3844 8.77699C64.6545 7.0192 62.9329 5.25396 61.1918 3.47568C61.1806 3.50641 61.1434 3.55482 61.1453 3.60137C61.1992 5.66548 61.229 7.73144 61.3285 9.79275C61.376 10.7834 61.5276 10.8681 62.5376 10.9593C62.5916 10.964 62.6455 10.9873 62.7115 11.005C62.4707 11.2368 59.2154 11.2629 58.7969 11.0003C59.0071 10.9789 59.1429 10.9631 59.2787 10.95C59.8878 10.8923 60.0776 10.7275 60.0999 10.1112C60.1473 8.8552 60.1706 7.59737 60.1929 6.34048C60.2255 4.51472 60.2441 2.68896 60.2794 0.863201C60.2822 0.695615 60.3575 0.52896 60.4003 0.362305C60.5566 0.454477 60.7444 0.517787 60.8663 0.643477C63.3217 3.18055 65.7687 5.72506 68.2194 8.26772C68.278 8.32824 68.3506 8.37665 68.4705 8.47441Z"
          fill="#58595B" />
        <path fill-rule="evenodd" clip-rule="evenodd"
          d="M108.788 0.627793H112.576L112.588 0.746034C112.458 0.763724 112.328 0.784207 112.198 0.799103C111.642 0.861483 111.448 1.03186 111.435 1.59607C111.402 3.12203 111.419 4.64986 111.367 6.1749C111.339 6.99234 111.3 7.82841 111.108 8.617C110.717 10.2174 109.46 11.2155 107.678 11.3505C106.944 11.4064 106.176 11.3449 105.458 11.1801C103.943 10.831 102.938 9.56759 102.85 7.86565C102.757 6.07341 102.779 4.27559 102.751 2.48055C102.749 2.39117 102.75 2.30086 102.751 2.21148C102.761 1.13521 102.681 0.788862 101.514 0.787C101.466 0.787 101.418 0.741379 101.384 0.625H105.785C105.663 0.729276 105.635 0.773034 105.603 0.77769C104.677 0.916414 104.576 0.963897 104.568 1.88934C104.553 3.89479 104.548 5.9021 104.64 7.90476C104.695 9.10952 105.233 10.1085 106.482 10.5144C108.303 11.1057 109.987 9.99214 110.092 8.04628C110.193 6.16559 110.157 4.27652 110.178 2.39117C110.18 2.15283 110.173 1.91262 110.148 1.67521C110.079 1.03093 109.887 0.851241 109.244 0.79631C109.126 0.787 109.008 0.779552 108.89 0.763724C108.871 0.760931 108.857 0.720897 108.788 0.627793Z"
          fill="#58595B" />
        <path fill-rule="evenodd" clip-rule="evenodd"
          d="M40.2958 0.613292C40.4455 0.595602 40.5952 0.563016 40.7459 0.562085C42.1206 0.558361 43.4952 0.555568 44.8698 0.564878C45.1814 0.567671 45.4986 0.595602 45.8046 0.657051C47.5187 0.997809 48.3148 2.33757 47.8293 4.04415C47.3968 5.56826 45.9218 6.57843 44.3453 6.42481C44.2495 6.4155 44.1574 6.36802 43.9565 6.30471C44.1537 6.22091 44.2504 6.1576 44.3546 6.13991C45.5934 5.93136 46.3356 5.05153 46.3375 3.77788C46.3412 2.45488 45.6186 1.4475 44.482 1.19705C44.3518 1.16819 44.216 1.15329 44.083 1.15143C43.4812 1.14026 43.4152 1.20543 43.4152 1.80595C43.4134 4.09722 43.4115 6.3885 43.4171 8.67977C43.4189 9.1276 43.4515 9.57729 43.4803 10.0242C43.5222 10.6806 43.6794 10.8426 44.3462 10.9282C44.5443 10.9534 44.7443 10.9692 44.9433 10.9887C44.9405 11.0316 44.9377 11.0735 44.9349 11.1154H40.5394C40.5348 11.0763 40.5311 11.0381 40.5264 10.999C40.6557 10.9804 40.784 10.9524 40.9143 10.945C41.3681 10.9189 41.5839 10.6647 41.609 10.2281C41.6425 9.63129 41.6946 9.03357 41.6964 8.43584C41.7039 6.30936 41.6983 4.18381 41.6881 2.0564C41.6834 1.00712 41.5755 0.900982 40.5218 0.792051C40.4436 0.783671 40.3683 0.73712 40.293 0.708258C40.2939 0.676602 40.2948 0.644947 40.2958 0.613292Z"
          fill="#58595B" />
        <path fill-rule="evenodd" clip-rule="evenodd"
          d="M32.2141 9.11691C32.1415 9.7016 32.0774 10.2881 31.9946 10.871C31.9518 11.1726 31.7267 11.2285 31.4607 11.2229C30.2209 11.194 28.9802 11.1624 27.7404 11.1503C27.0838 11.1447 26.4263 11.1819 25.7696 11.1885C25.6218 11.1903 25.4739 11.1466 25.2469 11.1112C25.3604 11.0171 25.3883 10.9734 25.4227 10.9687C26.336 10.8505 26.4188 10.8198 26.443 9.90456C26.4969 7.80973 26.4988 5.71491 26.5155 3.61915C26.5202 3.02049 26.5211 2.42091 26.4932 1.82318C26.4551 1.02063 26.2561 0.838148 25.4571 0.794389C25.3455 0.788803 25.2348 0.767389 25.1232 0.752492C25.1186 0.712458 25.113 0.673355 25.1074 0.63332C25.26 0.609113 25.4125 0.562561 25.565 0.563492C27.0894 0.570941 28.6147 0.594217 30.1391 0.593286C30.6739 0.593286 31.2087 0.538355 31.8197 0.503906C31.763 1.16308 31.7025 1.84925 31.643 2.53635C31.5891 2.54008 31.5361 2.5438 31.4821 2.5466C31.4486 2.40508 31.4021 2.26449 31.3845 2.12111C31.3342 1.73101 31.1268 1.46101 30.7409 1.4247C29.9438 1.34929 29.1439 1.31856 28.3097 1.26735V5.15535C29.3969 5.01477 30.5241 5.44863 31.6086 4.73825C31.5426 5.53429 31.4784 6.28935 31.4152 7.04349C31.3761 7.05373 31.337 7.06304 31.298 7.07329C31.2626 6.94201 31.2077 6.81446 31.1947 6.68132C31.1585 6.31822 31.0069 6.0026 30.6358 5.96349C29.8703 5.88063 29.0984 5.86387 28.3106 5.82011C28.3106 7.1878 28.2957 8.45773 28.3199 9.72673C28.3273 10.114 28.6091 10.3803 28.9858 10.4017C29.6536 10.4399 30.3288 10.4483 30.9938 10.3961C31.497 10.3561 31.7602 9.97625 31.8821 9.50329C31.9193 9.35804 31.9676 9.21653 32.0113 9.07315C32.0792 9.08711 32.1462 9.10201 32.2141 9.11691Z"
          fill="#58595B" />
        <path fill-rule="evenodd" clip-rule="evenodd"
          d="M56.6764 9.08868C56.6764 9.36985 56.6922 9.65103 56.6736 9.93127C56.589 11.2217 56.5862 11.2254 55.2971 11.2198C53.6397 11.2142 51.9814 11.2031 50.324 11.1891C50.1734 11.1882 50.0246 11.1509 49.8739 11.1314C49.873 11.0885 49.872 11.0466 49.8702 11.0048C50.032 10.9787 50.192 10.9461 50.3538 10.9303C50.7054 10.8968 50.9016 10.7012 50.936 10.3595C50.9807 9.91358 51.0318 9.46575 51.0337 9.01885C51.043 6.71268 51.0393 4.40744 51.0374 2.10127C51.0365 0.985888 50.9509 0.89744 49.8292 0.791302C49.7753 0.785716 49.7241 0.756854 49.6562 0.632095C49.8079 0.60882 49.9595 0.562268 50.1111 0.563199C51.4866 0.570647 52.8613 0.595785 54.2368 0.593923C54.9344 0.592992 55.6319 0.545509 56.376 0.517578C56.3081 1.17116 56.2384 1.85734 56.1677 2.54351C56.1221 2.54351 56.0765 2.54444 56.0309 2.54444C56.0058 2.46996 55.9696 2.39734 55.9556 2.32006C55.8273 1.6013 55.6664 1.40672 54.9493 1.35644C54.2666 1.30896 53.5784 1.3462 52.8501 1.3462V5.15692C53.9262 5.01261 55.0423 5.44275 56.137 4.74634C56.0765 5.53772 56.0189 6.29185 55.9612 7.04692C55.9231 7.05623 55.8849 7.06647 55.8477 7.07579C55.8049 6.94265 55.7333 6.81137 55.7259 6.67637C55.6989 6.20527 55.432 5.95296 54.9949 5.91944C54.3698 5.8701 53.7411 5.87382 53.1143 5.85054C52.8799 5.84123 52.8045 5.95389 52.8064 6.17827C52.8157 7.2713 52.799 8.36434 52.825 9.45737C52.8408 10.1305 53.077 10.3744 53.7467 10.4294C54.2359 10.4694 54.7335 10.4824 55.2209 10.4396C56.0328 10.3679 56.2337 10.165 56.443 9.37265C56.4681 9.27489 56.5127 9.18272 56.549 9.08775C56.5918 9.08868 56.6346 9.08868 56.6764 9.08868Z"
          fill="#58595B" />
        <path fill-rule="evenodd" clip-rule="evenodd"
          d="M6.19398 1.30053C6.19398 1.56867 6.19398 1.7316 6.19398 1.89453C6.20049 4.3627 6.207 6.8318 6.21351 9.30184C6.21351 9.34653 6.21258 9.39122 6.21444 9.43591C6.2656 11.0531 6.47393 10.8753 7.60211 10.9647C7.64024 10.9675 7.67837 10.9917 7.72115 11.0084C7.51189 11.2086 3.54328 11.2328 3.28565 11.0438C3.30239 11.0224 3.31634 10.9851 3.33495 10.9824C4.28176 10.8427 4.29571 10.8436 4.39057 9.88467C4.43894 9.39494 4.43987 8.89963 4.4408 8.40525C4.44545 6.23594 4.44266 4.0657 4.44266 1.89639V1.39642C3.70139 1.39642 2.99175 1.40573 2.28211 1.39456C1.53805 1.38246 0.909323 1.53608 0.692617 2.37587C0.685176 2.40567 0.621001 2.41963 0.514973 2.47922C0.437777 1.72136 0.677736 1.06218 0.808875 0.476562C3.8595 0.693494 6.84875 0.606907 9.90124 0.53708V2.55556C9.87055 2.56953 9.84078 2.58349 9.81009 2.59653C9.75708 2.53229 9.66035 2.46711 9.66128 2.40287C9.66965 1.75767 9.22322 1.52398 8.71447 1.46253C7.90531 1.36384 7.08499 1.35267 6.19398 1.30053Z"
          fill="#58595B" />
        <path fill-rule="evenodd" clip-rule="evenodd"
          d="M93.7572 8.36106C93.7842 8.52958 93.8158 8.69716 93.8391 8.86661C94.0437 10.3777 95.5727 11.1849 96.939 10.5024C97.8626 10.0406 98.1546 8.82658 97.484 7.92254C97.125 7.43841 96.6172 7.06599 96.1819 6.63865C95.5244 5.99251 94.7533 5.42272 94.2381 4.67696C93.0829 3.00389 93.8568 1.04034 95.8183 0.526406C96.3838 0.378372 97.0004 0.37744 97.5919 0.391406C98.0337 0.401647 98.5945 0.410027 98.8717 0.667923C99.0912 0.872751 98.9768 1.45372 98.9842 1.86803C98.9898 2.19575 98.9554 2.52441 98.9396 2.85213C98.8856 2.85492 98.8317 2.85679 98.7768 2.85958C98.7489 2.74506 98.7164 2.63054 98.694 2.5151C98.4411 1.19954 96.8655 0.538509 95.7392 1.27868C95.077 1.71347 94.8798 2.62868 95.3904 3.28879C95.742 3.74313 96.2108 4.10903 96.6414 4.49727C97.2078 5.00654 97.8151 5.47299 98.3564 6.00647C98.9387 6.57999 99.2549 7.30434 99.3107 8.12923C99.4018 9.47737 98.6671 10.6468 97.3901 11.1104C96.2238 11.534 95.0435 11.4754 93.8716 11.0964C93.5619 10.9959 93.4075 10.8088 93.4299 10.4661C93.4671 9.88423 93.4754 9.30048 93.507 8.71765C93.5145 8.59568 93.5703 8.47651 93.6028 8.35641C93.6549 8.35827 93.7061 8.3592 93.7572 8.36106Z"
          fill="#58595B" />
        <path fill-rule="evenodd" clip-rule="evenodd"
          d="M73.0487 0.629883H77.1336C77.1373 0.669917 77.142 0.709952 77.1457 0.749986C76.9987 0.770469 76.8518 0.796538 76.7039 0.809572C76.2826 0.848676 76.0436 1.0805 76.0175 1.49761C75.9878 1.99012 75.9738 2.4845 75.9729 2.97795C75.9719 5.1035 75.9784 7.22905 75.9822 9.35461C75.9822 9.3844 75.9803 9.41419 75.9831 9.44399C76.0594 10.9104 76.0882 10.8722 77.3745 10.9653C77.4126 10.9681 77.4489 10.9932 77.4917 11.0109C77.275 11.2176 73.3073 11.2306 73.0469 11.024C73.0887 11.0025 73.1213 10.9737 73.1585 10.9681C74.1006 10.835 74.189 10.767 74.1955 9.82757C74.215 7.16481 74.2206 4.50206 74.216 1.8393C74.215 1.00974 74.1248 0.946435 73.0552 0.7444C73.0534 0.706228 73.0506 0.668055 73.0487 0.629883Z"
          fill="#58595B" />
        <path fill-rule="evenodd" clip-rule="evenodd"
          d="M32.4711 27.053C32.8747 27.0111 32.9222 26.7243 32.9249 26.4087C32.9361 25.0922 32.9463 23.7748 32.9547 22.4574C32.9566 22.0365 32.7231 21.8662 32.3223 21.8252H34.3424C33.8615 21.8652 33.8336 22.1957 33.8411 22.5737C33.8485 22.9471 33.8011 23.3214 33.8225 23.6929C33.829 23.8046 33.9824 23.9982 34.0736 24.001C34.893 24.0243 35.7133 24.015 36.5773 24.015C36.5773 23.4014 36.6155 22.8195 36.5541 22.2497C36.5364 22.084 36.2351 21.95 36.0946 21.8271H37.9994C37.5297 21.8447 37.4702 22.1781 37.4702 22.5356C37.4702 23.7785 37.4814 25.0214 37.4851 26.2644C37.486 26.702 37.5753 27.0576 38.1343 27.0548L35.9979 27.0548C36.6573 26.9524 36.5792 26.5325 36.5857 26.1685C36.5969 25.6024 36.5885 25.0363 36.5885 24.406C35.718 24.406 34.8716 24.3995 34.0252 24.4181C33.9517 24.42 33.8197 24.5876 33.8197 24.6788C33.8197 25.3073 33.8076 25.9394 33.8885 26.5595C33.9136 26.755 34.2094 26.9161 34.3433 27.053H32.4711Z"
          fill="#58595B" />
        <path fill-rule="evenodd" clip-rule="evenodd"
          d="M75.3857 24.1107C75.9577 24.0791 76.4813 24.0502 77.0152 24.0204C76.9957 24.2811 76.9696 24.6181 76.9482 24.8891C76.765 24.7466 76.5883 24.5241 76.3642 24.4571C76.1028 24.3807 75.8005 24.4273 75.5187 24.4515C75.4592 24.4571 75.3643 24.593 75.3634 24.6703C75.3532 25.1935 75.355 25.7177 75.3708 26.2409C75.3801 26.5351 75.5485 26.686 75.8489 26.7316C76.6171 26.8498 76.9938 26.6962 77.3258 26.1357C77.2914 26.4122 77.2793 26.6934 77.2087 26.9588C77.1882 27.0342 76.9994 27.1087 76.8878 27.1096C75.9345 27.1217 74.9821 27.1161 73.9962 27.0751C74.4491 26.9429 74.4752 26.6152 74.4743 26.2474C74.4705 25.0501 74.477 23.8538 74.4919 22.6564C74.4975 22.2151 74.4389 21.8502 73.8809 21.8018H77.1408C77.111 22.0904 77.0803 22.392 77.045 22.7412C76.7464 22.1518 76.3651 22.0364 75.3857 22.2105V24.1107Z"
          fill="#58595B" />
        <path fill-rule="evenodd" clip-rule="evenodd"
          d="M65.3542 22.8345C64.9291 21.8904 64.1776 22.2889 63.5024 22.1539C63.5024 22.5207 63.5024 22.8289 63.5024 23.137C63.5052 24.1686 63.5052 25.2002 63.5126 26.2318C63.5154 26.6712 63.5926 27.0595 64.1776 27.0548H62.2645C62.3677 26.8975 62.59 26.7159 62.5937 26.5297C62.6226 25.0987 62.6095 23.6659 62.6095 22.1725C61.952 22.2926 61.193 21.8801 60.6396 22.6669C60.6945 22.3559 60.7513 22.0459 60.8015 21.7656H65.3542V22.8345Z"
          fill="#58595B" />
        <path fill-rule="evenodd" clip-rule="evenodd"
          d="M100.946 22.912C100.812 22.4233 100.589 22.0695 100.096 22.0117C99.7155 21.9661 99.363 22.0434 99.1769 22.4186C99.003 22.7715 99.1156 23.1001 99.3937 23.3515C99.7378 23.6625 100.141 23.9138 100.45 24.2527C100.733 24.5646 101.006 24.9324 101.138 25.3244C101.381 26.0487 100.961 26.8 100.235 27.0458C99.9433 27.1455 99.6206 27.2023 99.3146 27.1967C98.2627 27.1753 98.0181 26.7833 98.3817 25.6986C98.431 25.8774 98.4636 26.0198 98.5101 26.1576C98.6561 26.5831 98.9565 26.8252 99.403 26.8624C99.801 26.8959 100.154 26.7814 100.357 26.4109C100.583 25.9975 100.457 25.6111 100.153 25.3048C99.8271 24.9771 99.4513 24.7006 99.109 24.3887C98.7482 24.0609 98.458 23.6895 98.4264 23.1699C98.3836 22.4782 98.71 21.9801 99.3788 21.7883C99.6197 21.7194 99.8791 21.6803 100.128 21.6849C101.055 21.6998 101.193 21.9028 100.946 22.912Z"
          fill="#58595B" />
        <path fill-rule="evenodd" clip-rule="evenodd"
          d="M86.1396 21.8145H88.2016C87.7403 21.8517 87.6008 22.104 87.6082 22.5323C87.6278 23.7417 87.6259 24.952 87.6315 26.1615C87.6324 26.5041 87.7989 26.6894 88.144 26.7098C88.263 26.7173 88.3811 26.7387 88.4992 26.7461C89.1633 26.7927 89.3772 26.6735 89.7232 26.0972C89.7139 26.275 89.7037 26.4547 89.6953 26.6326C89.6767 26.9994 89.5056 27.1381 89.1215 27.1269C88.17 27.1009 87.2157 27.1186 86.2141 27.0711C86.7833 26.9938 86.7089 26.5609 86.7154 26.2276C86.7395 24.9725 86.7265 23.7156 86.7321 22.4597C86.7349 22.0556 86.5173 21.8787 86.1396 21.8145Z"
          fill="#58595B" />
        <path fill-rule="evenodd" clip-rule="evenodd"
          d="M49.8283 0.790326C50.95 0.896464 51.0355 0.985843 51.0365 2.10122C51.0393 4.40646 51.043 6.71264 51.0337 9.01881C51.0309 9.4657 50.9797 9.91353 50.9351 10.3586C50.9016 10.7012 50.7044 10.8958 50.3538 10.9302C50.192 10.9451 50.0311 10.9786 49.8702 11.0038C49.8711 11.0457 49.872 11.0885 49.8739 11.1304C50.0236 11.1509 50.1734 11.1872 50.3231 11.189C51.9814 11.2021 53.6388 11.2133 55.2971 11.2198C56.5853 11.2244 56.589 11.2216 56.6727 9.93029C56.6913 9.65098 56.6755 9.36888 56.6755 9.0877C56.6336 9.0877 56.5909 9.0877 56.5481 9.0877C56.5127 9.18174 56.4681 9.27484 56.442 9.37167C56.2337 10.1649 56.0328 10.3669 55.2209 10.4386C54.7335 10.4815 54.2359 10.4684 53.7467 10.4284C53.077 10.3744 52.8399 10.1295 52.8241 9.4564C52.798 8.36429 52.8157 7.27126 52.8055 6.17822C52.8036 5.95291 52.8789 5.84119 53.1133 5.84957C53.7402 5.87284 54.3689 5.87005 54.9939 5.91846C55.432 5.95291 55.6989 6.20429 55.725 6.67633C55.7324 6.81133 55.8049 6.94167 55.8468 7.07481C55.8849 7.0655 55.9231 7.05619 55.9603 7.04688C56.0179 6.29181 56.0756 5.53674 56.136 4.74629C55.0414 5.44177 53.9262 5.01257 52.8501 5.15688V1.34522C53.5774 1.34522 54.2657 1.30891 54.9493 1.35639C55.6664 1.40574 55.8273 1.60126 55.9556 2.31908C55.9696 2.39636 56.0049 2.46898 56.0309 2.54439C56.0765 2.54439 56.1212 2.54346 56.1667 2.54253C56.2374 1.85636 56.3081 1.17112 56.3751 0.516602C55.632 0.545464 54.9344 0.592015 54.2368 0.592946C52.8613 0.59574 51.4857 0.570602 50.1101 0.563153C49.9595 0.562222 49.8069 0.607843 49.6562 0.63205C49.7232 0.756808 49.7753 0.785671 49.8283 0.790326Z"
          fill="#58595B" />
        <path fill-rule="evenodd" clip-rule="evenodd"
          d="M62.7116 11.0059C62.6456 10.9882 62.5925 10.9649 62.5377 10.9603C61.5285 10.8681 61.376 10.7843 61.3286 9.79368C61.23 7.73144 61.2002 5.66641 61.1453 3.6023C61.1444 3.55482 61.1807 3.50641 61.1928 3.47661C62.9329 5.25396 64.6545 7.0192 66.3844 8.77699C67.162 9.56651 67.9488 10.3458 68.7449 11.1148C68.8584 11.2247 69.0491 11.2545 69.2044 11.3215C69.2453 11.1698 69.3188 11.0189 69.3225 10.8662C69.3607 9.07027 69.3848 7.2743 69.4193 5.47927C69.4434 4.20748 69.4667 2.93568 69.5113 1.66389C69.5337 1.04382 69.7476 0.851098 70.3614 0.793374C70.4628 0.784063 70.5614 0.750546 70.6609 0.728201C70.6553 0.695615 70.6507 0.66396 70.6451 0.631374H66.9546C66.9527 0.674201 66.9508 0.717029 66.949 0.758925C67.0866 0.77196 67.2243 0.788718 67.3629 0.796167C68.0558 0.833408 68.2855 1.0522 68.3506 1.75234C68.3646 1.9013 68.3618 2.0512 68.3645 2.2011C68.4008 3.77268 68.439 5.34334 68.4697 6.91493C68.4799 7.41396 68.4706 7.91299 68.4706 8.47534C68.3506 8.37665 68.279 8.32917 68.2204 8.26772C65.7697 5.72599 63.3217 3.18148 60.8663 0.643477C60.7445 0.517787 60.5575 0.455408 60.4004 0.362305C60.3585 0.529891 60.2822 0.695615 60.2795 0.864132C60.245 2.68896 60.2255 4.51565 60.1939 6.34048C60.1716 7.59831 60.1474 8.8552 60.1009 10.1112C60.0776 10.7275 59.8888 10.8932 59.2796 10.95C59.1429 10.9631 59.008 10.9789 58.7979 11.0003C59.2164 11.2638 62.4707 11.2377 62.7116 11.0059Z"
          fill="#58595B" />
        <path fill-rule="evenodd" clip-rule="evenodd"
          d="M41.688 2.05686C41.6973 4.18334 41.7038 6.30983 41.6964 8.43631C41.6945 9.0331 41.6425 9.63083 41.609 10.2286C41.5839 10.6652 41.3681 10.9194 40.9133 10.9445C40.784 10.952 40.6557 10.9808 40.5264 10.9994C40.531 11.0376 40.5347 11.0767 40.5394 11.1158H44.9349C44.9377 11.073 44.9396 11.0311 44.9423 10.9892C44.7442 10.9687 44.5443 10.9538 44.3462 10.9278C43.6793 10.8421 43.5212 10.681 43.4793 10.0247C43.4505 9.57683 43.418 9.12807 43.417 8.67931C43.4105 6.38803 43.4133 4.09769 43.4152 1.80641C43.4152 1.20496 43.4812 1.13979 44.083 1.15096C44.216 1.15283 44.3518 1.16865 44.482 1.19752C45.6176 1.44796 46.3402 2.45441 46.3374 3.77834C46.3356 5.052 45.5934 5.93183 44.3545 6.13945C44.2504 6.15714 44.1536 6.22138 43.9565 6.30517C44.1574 6.36848 44.2494 6.41503 44.3443 6.42434C45.9208 6.57796 47.3968 5.56779 47.8293 4.04369C48.3138 2.33803 47.5177 0.998275 45.8045 0.656585C45.4985 0.596068 45.1814 0.567206 44.8689 0.565344C43.4942 0.555102 42.1196 0.558826 40.7449 0.56162C40.5952 0.562551 40.4455 0.595137 40.2957 0.612827C40.2939 0.644482 40.2939 0.676137 40.292 0.707792C40.3683 0.736654 40.4427 0.784137 40.5208 0.791585C41.5755 0.901447 41.6834 1.00759 41.688 2.05686Z"
          fill="#58595B" />
        <path fill-rule="evenodd" clip-rule="evenodd"
          d="M25.4571 0.79532C26.2551 0.838148 26.455 1.02063 26.4923 1.82411C26.5202 2.42091 26.5202 3.02049 26.5155 3.61915C26.4988 5.71491 26.4969 7.81067 26.442 9.90456C26.4188 10.8198 26.3351 10.8514 25.4217 10.9687C25.3883 10.9734 25.3604 11.0171 25.246 11.1112C25.4738 11.1466 25.6217 11.1903 25.7687 11.1885C26.4262 11.1819 27.0828 11.1447 27.7395 11.1503C28.9802 11.1624 30.22 11.195 31.4607 11.2229C31.7267 11.2294 31.9518 11.1726 31.9945 10.8719C32.0773 10.2881 32.1415 9.7016 32.214 9.11784C32.1461 9.10294 32.0783 9.08804 32.0113 9.07315C31.9676 9.21653 31.9192 9.35898 31.882 9.50329C31.7592 9.97718 31.496 10.3561 30.9938 10.3961C30.3279 10.4483 29.6536 10.4399 28.9858 10.4017C28.6091 10.3803 28.3263 10.114 28.3198 9.72673C28.2957 8.45773 28.3105 7.1878 28.3105 5.82011C29.0983 5.8648 29.8703 5.88063 30.6348 5.96349C31.0068 6.0026 31.1584 6.31822 31.1947 6.68225C31.2077 6.81446 31.2616 6.94294 31.2979 7.07329C31.337 7.06398 31.376 7.05373 31.4151 7.04442C31.4784 6.28935 31.5416 5.53429 31.6086 4.73825C30.5241 5.44863 29.3969 5.01477 28.3096 5.15535V1.26829C29.1429 1.31856 29.9437 1.35022 30.7408 1.4247C31.1268 1.46101 31.3342 1.73194 31.3835 2.12111C31.4021 2.26542 31.4486 2.40508 31.4821 2.54753C31.5351 2.5438 31.589 2.54008 31.643 2.53635C31.7025 1.85018 31.762 1.16308 31.8197 0.503906C31.2086 0.538355 30.6738 0.593286 30.1391 0.594217C28.6137 0.594217 27.0894 0.570941 25.564 0.563492C25.4115 0.562561 25.259 0.609113 25.1064 0.63332C25.112 0.673355 25.1176 0.713389 25.1232 0.752492C25.2348 0.767389 25.3455 0.789734 25.4571 0.79532Z"
          fill="#58595B" />
        <path fill-rule="evenodd" clip-rule="evenodd"
          d="M79.6313 11.1832C80.7511 11.1897 81.8709 11.1907 82.9916 11.1841C83.0781 11.1832 83.1646 11.1087 83.3664 11.0156C83.1618 10.9784 83.1042 10.9616 83.0456 10.9579C82.0792 10.8927 81.8895 10.7047 81.8188 9.73824C81.8123 9.64886 81.8104 9.55948 81.8076 9.46917C81.7584 7.80913 81.7081 6.14817 81.6616 4.48813C81.6523 4.14551 81.6607 3.80196 81.6607 3.34482C81.8811 3.58038 82.0104 3.72282 82.1453 3.86062C84.4676 6.23569 86.7891 8.61262 89.1171 10.9821C89.2808 11.1478 89.5003 11.2577 89.7588 11.4402C89.7951 11.2018 89.8248 11.0882 89.8286 10.9737C89.8732 8.95338 89.9141 6.93396 89.9588 4.91362C89.9848 3.77682 90.0062 2.64003 90.0499 1.50417C90.0676 1.03679 90.3624 0.819859 90.8163 0.795652C90.9344 0.789135 91.0497 0.763066 91.2646 0.732342C90.7661 0.476307 87.7173 0.516342 87.4699 0.754687C87.6085 0.770514 87.7192 0.788204 87.8308 0.79379C88.5804 0.832894 88.7906 1.00607 88.8529 1.75182C88.9041 2.36165 88.9143 2.97707 88.9171 3.58969C88.9255 5.19014 88.9199 6.79058 88.9199 8.41245C88.8938 8.39383 88.8427 8.36776 88.8055 8.32865C86.3241 5.75341 83.8445 3.17724 81.3594 0.605721C81.2403 0.481894 81.0794 0.399032 80.8469 0.231445C80.8171 0.744445 80.7827 1.115 80.7762 1.48555C80.7418 3.7312 80.7185 5.97686 80.6795 8.22158C80.6683 8.92358 80.6255 9.62558 80.5874 10.3267C80.5669 10.7009 80.34 10.8843 79.9819 10.9262C79.7894 10.9477 79.5978 10.9774 79.4053 11.0035C79.4815 11.1236 79.5559 11.1832 79.6313 11.1832Z"
          fill="#58595B" />
        <path fill-rule="evenodd" clip-rule="evenodd"
          d="M115.471 1.78795C115.486 4.42092 115.492 7.05481 115.45 9.68778C115.432 10.7594 115.373 10.7575 114.358 10.9968C114.349 10.9987 114.347 11.021 114.296 11.1346C114.465 11.156 114.602 11.1886 114.74 11.1877C115.083 11.1849 115.427 11.1523 115.77 11.156C117.353 11.1728 118.936 11.2016 120.519 11.2193C121.207 11.2268 121.287 11.1635 121.382 10.4847C121.449 10.0025 121.471 9.51461 121.513 9.02954C121.459 9.02209 121.404 9.01464 121.35 9.00626C121.312 9.11147 121.267 9.21482 121.238 9.32188C121.025 10.1012 120.686 10.3879 119.874 10.4261C119.413 10.4484 118.948 10.4419 118.485 10.4224C117.58 10.3851 117.288 10.1216 117.281 9.22692C117.261 6.69823 117.266 4.16954 117.274 1.64085C117.276 1.04313 117.488 0.850401 118.088 0.798263C118.246 0.784298 118.403 0.762884 118.561 0.744263L118.548 0.626953H114.182C114.177 0.664195 114.174 0.701436 114.17 0.738677C114.278 0.758229 114.386 0.784298 114.494 0.794539C115.25 0.861574 115.466 1.03195 115.471 1.78795Z"
          fill="#58595B" />
        <path fill-rule="evenodd" clip-rule="evenodd"
          d="M101.513 0.787C102.68 0.788862 102.76 1.13614 102.75 2.21148C102.749 2.30179 102.749 2.39117 102.75 2.48148C102.779 4.27652 102.757 6.07435 102.85 7.86566C102.938 9.56852 103.942 10.8319 105.457 11.1801C106.175 11.3449 106.944 11.4064 107.678 11.3505C109.459 11.2155 110.717 10.2184 111.107 8.617C111.299 7.82841 111.338 6.99234 111.366 6.1749C111.418 4.64986 111.401 3.12297 111.435 1.597C111.447 1.03186 111.642 0.861483 112.197 0.799103C112.328 0.785138 112.458 0.763724 112.587 0.746965C112.584 0.706931 112.58 0.667828 112.575 0.627793H108.787C108.856 0.720897 108.871 0.761862 108.89 0.763724C109.008 0.779552 109.126 0.787 109.244 0.797241C109.887 0.851241 110.078 1.03093 110.147 1.67521C110.172 1.91262 110.179 2.15283 110.177 2.3921C110.156 4.27745 110.192 6.16559 110.091 8.04721C109.986 9.99214 108.302 11.1057 106.482 10.5144C105.233 10.1085 104.694 9.11045 104.639 7.90569C104.548 5.90303 104.552 3.89479 104.567 1.89028C104.575 0.964828 104.676 0.916414 105.602 0.778621C105.635 0.773966 105.662 0.729276 105.784 0.625H101.383C101.417 0.741379 101.465 0.787 101.513 0.787Z"
          fill="#58595B" />
        <path fill-rule="evenodd" clip-rule="evenodd"
          d="M12.5258 1.78632C12.5491 2.89425 12.5435 4.00218 12.5407 5.11011C12.537 6.6817 12.5388 8.25328 12.51 9.82487C12.4923 10.7624 12.3779 10.8583 11.4618 10.9691C11.4283 10.9728 11.3995 11.0101 11.3614 11.0361C11.6609 11.2447 15.6257 11.2112 15.8211 10.9896C15.5718 10.9617 15.3393 10.9244 15.1058 10.9114C14.6296 10.8844 14.3962 10.6218 14.3869 10.1647C14.3571 8.75884 14.3376 7.35297 14.3181 5.94711C14.3171 5.90894 14.3543 5.86984 14.3888 5.80094C16.1289 5.80094 17.8774 5.79721 19.626 5.81304C19.7088 5.8149 19.8622 5.99366 19.8622 6.08863C19.8483 7.4498 19.8325 8.81097 19.7757 10.1712C19.7515 10.7512 19.5813 10.8751 18.9991 10.9533C18.8977 10.9663 18.7982 10.9952 18.6978 11.0166C18.7024 11.0548 18.7071 11.0929 18.7126 11.1302H23.1444L23.137 10.9961C23.0542 10.9831 22.9724 10.9626 22.8896 10.957C21.7893 10.8751 21.6712 10.7922 21.66 9.70756C21.6331 7.0597 21.6331 4.41184 21.6386 1.76304C21.6414 0.998663 21.7837 0.884146 22.6078 0.791043C22.6738 0.782664 22.7371 0.757526 22.8012 0.739836C22.7975 0.703526 22.7947 0.668146 22.791 0.631836H18.4783C18.4755 0.670008 18.4736 0.70725 18.4718 0.744491C18.5806 0.762181 18.6894 0.787319 18.7991 0.793836C19.6269 0.845974 19.8287 1.03684 19.8483 1.85894C19.8697 2.77228 19.8501 3.68563 19.8817 4.59804C19.8938 4.97418 19.7432 5.04401 19.4074 5.04122C17.8523 5.02632 16.2973 5.0347 14.7413 5.03284C14.612 5.03284 14.4827 5.01328 14.3692 5.00397C14.3692 3.77594 14.3581 2.58328 14.3757 1.39156C14.3813 0.981905 14.7003 0.855284 15.0519 0.80687C15.1988 0.786388 15.3458 0.77056 15.4927 0.75287C15.4881 0.713767 15.4853 0.673733 15.4807 0.63556H11.1921C11.1902 0.675595 11.1884 0.71656 11.1865 0.756595C11.3102 0.769629 11.4349 0.787319 11.5595 0.795698C12.3082 0.845974 12.51 1.02753 12.5258 1.78632Z"
          fill="#58595B" />
        <path fill-rule="evenodd" clip-rule="evenodd"
          d="M93.8716 11.0964C95.0435 11.4754 96.2238 11.534 97.3901 11.1104C98.6671 10.6468 99.4018 9.47737 99.3107 8.12923C99.2549 7.30434 98.9377 6.57999 98.3564 6.00647C97.8151 5.47299 97.2078 5.00654 96.6414 4.49727C96.2108 4.10903 95.742 3.74313 95.3904 3.28879C94.8798 2.62868 95.0779 1.71347 95.7392 1.27868C96.8646 0.539441 98.4411 1.19954 98.694 2.5151C98.7164 2.63054 98.7489 2.74506 98.7768 2.85958C98.8317 2.85772 98.8856 2.85492 98.9396 2.85213C98.9563 2.52441 98.9898 2.19575 98.9842 1.86803C98.9759 1.45372 99.0912 0.872751 98.8708 0.667923C98.5945 0.410027 98.0328 0.401647 97.5919 0.391406C97.0004 0.37744 96.3838 0.378372 95.8183 0.526406C93.8558 1.04034 93.0829 3.00482 94.2381 4.67696C94.7533 5.42272 95.5234 5.99251 96.1819 6.63865C96.6181 7.06599 97.125 7.43841 97.484 7.92254C98.1537 8.82565 97.8626 10.0406 96.939 10.5024C95.5727 11.1849 94.0437 10.3786 93.8391 8.86568C93.8158 8.69716 93.7851 8.52958 93.7572 8.36106C93.7061 8.3592 93.6549 8.35827 93.6028 8.35641C93.5694 8.47651 93.5136 8.59568 93.507 8.71765C93.4754 9.30048 93.4661 9.88423 93.4299 10.4661C93.4075 10.8088 93.5619 10.9959 93.8716 11.0964Z"
          fill="#58595B" />
        <path fill-rule="evenodd" clip-rule="evenodd"
          d="M73.1585 10.9681C73.1213 10.9737 73.0887 11.0025 73.0469 11.023C73.3064 11.2306 77.275 11.2167 77.4917 11.01C77.4489 10.9932 77.4117 10.9672 77.3736 10.9644C76.0882 10.8722 76.0594 10.9094 75.9822 9.44399C75.9803 9.41326 75.9822 9.38347 75.9822 9.35368C75.9785 7.22812 75.9719 5.10257 75.9729 2.97702C75.9738 2.48357 75.9878 1.99012 76.0184 1.49761C76.0436 1.07957 76.2826 0.848676 76.7039 0.809572C76.8518 0.795607 76.9987 0.769538 77.1457 0.749055C77.141 0.709021 77.1373 0.668986 77.1327 0.629883H73.0487C73.0506 0.667124 73.0534 0.705297 73.0552 0.743469C74.1248 0.945504 74.2141 1.00881 74.216 1.8393C74.2206 4.50206 74.215 7.16481 74.1955 9.82664C74.1881 10.7661 74.1016 10.835 73.1585 10.9681Z"
          fill="#58595B" />
        <path fill-rule="evenodd" clip-rule="evenodd"
          d="M0.692897 2.37587C0.909604 1.53608 1.53833 1.38246 2.28239 1.39456C2.99203 1.40573 3.70167 1.39642 4.44294 1.39642V1.89546C4.44294 4.0657 4.44573 6.23594 4.44108 8.40525C4.43922 8.8987 4.43922 9.39494 4.39086 9.88467C4.29692 10.8436 4.28204 10.8427 3.33523 10.9814C3.31662 10.9851 3.30267 11.0224 3.28593 11.0438C3.54449 11.2328 7.51217 11.2077 7.72144 11.0084C7.67772 10.9917 7.64145 10.9675 7.60146 10.9647C6.47421 10.8753 6.26588 11.0531 6.21472 9.43591C6.21286 9.39122 6.21379 9.34653 6.21379 9.30091L6.19426 1.8936C6.19426 1.73067 6.19426 1.56773 6.19426 1.30053C7.08527 1.35267 7.90559 1.36384 8.71568 1.46253C9.2235 1.52398 9.66993 1.75767 9.66063 2.40287C9.66063 2.46711 9.75829 2.53229 9.80944 2.59653C9.84106 2.58256 9.87176 2.56953 9.90152 2.55556V0.536149C6.84903 0.606907 3.86072 0.692563 0.809156 0.476562C0.678016 1.06218 0.437128 1.72136 0.515254 2.47922C0.621282 2.41963 0.685457 2.40473 0.692897 2.37587Z"
          fill="#58595B" />
        <path fill-rule="evenodd" clip-rule="evenodd"
          d="M100.45 24.2537C100.141 23.9138 99.7374 23.6634 99.3942 23.3524C99.1162 23.101 99.0027 22.7724 99.1775 22.4186C99.3626 22.0443 99.7151 21.967 100.096 22.0117C100.589 22.0704 100.812 22.4242 100.946 22.913C101.193 21.9037 101.054 21.7008 100.129 21.6849C99.8788 21.6803 99.6193 21.7203 99.3784 21.7892C98.7106 21.9801 98.3842 22.4791 98.426 23.1709C98.4577 23.6904 98.7488 24.0609 99.1087 24.3896C99.451 24.7015 99.8267 24.978 100.152 25.3057C100.457 25.612 100.584 25.9984 100.358 26.4118C100.155 26.7823 99.8007 26.8959 99.4026 26.8633C98.9562 26.8261 98.6558 26.584 98.5107 26.1586C98.4632 26.0208 98.4316 25.8783 98.3823 25.6996C98.0177 26.7842 98.2623 27.1762 99.3143 27.1967C99.6212 27.2032 99.943 27.1455 100.235 27.0468C100.96 26.801 101.381 26.0496 101.138 25.3253C101.006 24.9333 100.733 24.5656 100.45 24.2537Z"
          fill="#58595B" />
        <path fill-rule="evenodd" clip-rule="evenodd"
          d="M132.239 16.2874H1.3991C1.17495 16.2874 0.945226 16.2604 0.72852 16.2995C0.6011 16.3237 0.493212 16.4541 0.376953 16.536C0.415086 16.5919 0.452289 16.6477 0.489492 16.7036H0.976848C44.7552 16.7036 88.5327 16.7036 132.31 16.7026C132.43 16.7026 132.55 16.6971 132.669 16.7036C132.995 16.7222 133.067 16.5909 132.909 16.2874H132.239Z"
          fill="#58595B" />
        <path fill-rule="evenodd" clip-rule="evenodd"
          d="M125.465 6.78398C125.918 5.56712 126.36 4.37446 126.803 3.18274C126.838 3.18088 126.873 3.17901 126.908 3.17715C127.34 4.36143 127.77 5.54663 128.221 6.78398H125.465ZM132.807 10.9569C132.131 10.9653 131.676 10.6254 131.394 10.037C131.161 9.55288 130.935 9.06408 130.733 8.56598C129.686 5.97677 128.651 3.38198 127.6 0.793704C127.522 0.60098 127.356 0.443635 127.231 0.269531C127.095 0.449221 126.913 0.609359 126.831 0.810462C126.242 2.24705 125.676 3.69295 125.098 5.13419C124.454 6.74208 123.803 8.34625 123.158 9.95322C122.904 10.5854 122.467 10.9485 121.767 10.9578C121.682 10.9578 121.596 11.0016 121.513 11.0248C121.516 11.0556 121.522 11.0854 121.527 11.1161H125.112C125.072 10.9932 125.022 10.9559 124.974 10.9597C124.137 11.0286 124.034 10.6226 124.282 9.91598C124.532 9.19722 124.8 8.48405 125.091 7.78112C125.141 7.66194 125.346 7.53998 125.482 7.53626C126.379 7.51484 127.277 7.53439 128.174 7.5195C128.428 7.51484 128.545 7.60701 128.629 7.83884C128.911 8.62557 129.206 9.40856 129.512 10.1869C129.642 10.5174 129.835 10.8358 129.236 11.1282C130.618 11.1719 131.831 11.2623 133.04 11.1338C133.042 11.0872 133.044 11.0407 133.046 10.9941C132.967 10.9811 132.887 10.9559 132.807 10.9569Z"
          fill="#58595B" />
        <path fill-rule="evenodd" clip-rule="evenodd"
          d="M88.5002 26.7461C88.3821 26.7387 88.263 26.7173 88.1449 26.7098C87.7999 26.6884 87.6334 26.5041 87.6325 26.1615C87.6259 24.9511 87.6287 23.7417 87.6092 22.5314C87.6018 22.1031 87.7413 21.8508 88.2017 21.8145H86.1406C86.5173 21.8787 86.7349 22.0547 86.7331 22.4597C86.7275 23.7156 86.7405 24.9716 86.7154 26.2276C86.7098 26.5609 86.7833 26.9929 86.215 27.0711C87.2167 27.1176 88.17 27.0999 89.1224 27.1269C89.5065 27.1381 89.6777 26.9994 89.6954 26.6326C89.7047 26.4538 89.7149 26.275 89.7242 26.0963C89.3782 26.6726 89.1643 26.7918 88.5002 26.7461Z"
          fill="#58595B" />
        <path fill-rule="evenodd" clip-rule="evenodd"
          d="M51.4269 25.419C51.2762 26.1005 50.9488 26.648 50.2076 26.81C49.4654 26.972 48.8478 26.7094 48.3595 26.1657C47.6527 25.379 47.4899 23.8037 47.9856 22.8671C48.5427 21.815 50.0308 21.7098 50.8707 22.665C51.3608 23.2236 51.5162 23.8959 51.5264 24.6211C51.4938 24.8874 51.4845 25.1583 51.4269 25.419ZM49.7314 21.68C48.0172 21.6353 46.7802 22.7637 46.7477 24.3986C46.7161 26.0084 47.8842 27.1824 49.5416 27.2066C51.2316 27.2318 52.4444 26.0614 52.4806 24.3735C52.516 22.7544 51.4641 21.7238 49.7314 21.68Z"
          fill="#58595B" />
        <path fill-rule="evenodd" clip-rule="evenodd"
          d="M75.8488 26.7326C75.5475 26.6869 75.3801 26.5352 75.3708 26.241C75.355 25.7177 75.3531 25.1945 75.3633 24.6713C75.3652 24.594 75.4591 24.4571 75.5187 24.4525C75.8005 24.4283 76.1037 24.3808 76.3641 24.458C76.5882 24.5241 76.765 24.7476 76.9482 24.8891C76.9696 24.6182 76.9956 24.2821 77.0161 24.0205C76.4813 24.0503 75.9577 24.0791 75.3857 24.1117V22.2105C76.365 22.0374 76.7454 22.1528 77.0449 22.7412C77.0802 22.3921 77.1109 22.0914 77.1407 21.8027H73.8799C74.4389 21.8502 74.4974 22.2161 74.4919 22.6565C74.477 23.8538 74.4705 25.0511 74.4742 26.2484C74.4761 26.6153 74.4491 26.9439 73.9961 27.0752C74.982 27.1171 75.9344 27.1217 76.8877 27.1096C76.9993 27.1087 77.1881 27.0351 77.2086 26.9588C77.2784 26.6935 77.2914 26.4123 77.3258 26.1367C76.9947 26.6972 76.6171 26.8499 75.8488 26.7326Z"
          fill="#58595B" />
        <path fill-rule="evenodd" clip-rule="evenodd"
          d="M37.4851 26.2644C37.4814 25.0214 37.4702 23.7785 37.4702 22.5365C37.4702 22.179 37.5297 21.8447 37.9994 21.8271H36.0946C36.236 21.95 36.5364 22.085 36.5541 22.2497C36.6155 22.8205 36.5773 23.4014 36.5773 24.015C35.7133 24.015 34.893 24.0252 34.0736 24.001C33.9824 23.9982 33.829 23.8055 33.8225 23.6938C33.8011 23.3223 33.8485 22.9471 33.8411 22.5737C33.8336 22.1957 33.8615 21.8652 34.3424 21.8252H32.3223C32.7231 21.8662 32.9575 22.0365 32.9547 22.4574C32.9463 23.7748 32.9361 25.0922 32.9249 26.4087C32.9222 26.7243 32.8738 27.0111 32.4711 27.053H34.3433C34.2094 26.9161 33.9145 26.756 33.8885 26.5595C33.8076 25.9404 33.8187 25.3073 33.8197 24.6788C33.8197 24.5876 33.9517 24.42 34.0252 24.4181C34.8716 24.3995 35.7179 24.406 36.5894 24.406C36.5894 25.0363 36.5969 25.6024 36.5866 26.1685C36.5792 26.5334 36.6573 26.9533 35.9979 27.0548L38.1343 27.0548C37.5753 27.0576 37.486 26.7029 37.4851 26.2644Z"
          fill="#58595B" />
        <path fill-rule="evenodd" clip-rule="evenodd"
          d="M60.6396 22.6668C61.193 21.8801 61.952 22.2925 62.6095 22.1724C62.6095 23.6658 62.6226 25.0987 62.5937 26.5297C62.59 26.7159 62.3686 26.8974 62.2654 27.0548H64.1776C63.5935 27.0594 63.5154 26.6712 63.5126 26.2318C63.5061 25.2002 63.5052 24.1686 63.5033 23.137C63.5024 22.8288 63.5024 22.5197 63.5024 22.1538C64.1776 22.2888 64.9291 21.8903 65.3542 22.8344V21.7646H60.8015C60.7513 22.0449 60.6955 22.3559 60.6396 22.6668Z"
          fill="#58595B" />
        <path fill-rule="evenodd" clip-rule="evenodd"
          d="M114.297 11.1355C114.348 11.021 114.35 10.9996 114.359 10.9977C115.374 10.7585 115.434 10.7594 115.451 9.68778C115.492 7.05575 115.487 4.42092 115.472 1.78888C115.467 1.03288 115.251 0.862505 114.495 0.79547C114.386 0.785229 114.279 0.758229 114.171 0.739608C114.175 0.702367 114.179 0.665126 114.182 0.626953H118.548L118.561 0.745195C118.404 0.762884 118.246 0.785229 118.089 0.799195C117.488 0.851332 117.277 1.04313 117.275 1.64178C117.266 4.17047 117.262 6.69916 117.282 9.22692C117.288 10.1226 117.581 10.3851 118.486 10.4233C118.949 10.4428 119.414 10.4484 119.875 10.427C120.686 10.3888 121.025 10.1012 121.239 9.32281C121.268 9.21482 121.313 9.1124 121.35 9.00719C121.405 9.01464 121.46 9.02209 121.514 9.02954C121.472 9.51554 121.45 10.0034 121.383 10.4847C121.288 11.1644 121.208 11.2268 120.519 11.2193C118.936 11.2026 117.354 11.1737 115.771 11.156C115.427 11.1523 115.084 11.1849 114.741 11.1877C114.603 11.1895 114.466 11.157 114.297 11.1355Z"
          fill="#58595B" />
      </g>
    </g>
  </g>
  <defs>
    <clipPath id="clip0_1_3835">
      <rect width="133" height="28" fill="white" transform="translate(0.290039)" />
    </clipPath>
    <clipPath id="clip1_1_3835">
      <rect width="133" height="28" fill="white" transform="translate(0.290039)" />
    </clipPath>
    <clipPath id="clip2_1_3835">
      <rect width="133" height="28" fill="white" transform="translate(0.290039)" />
    </clipPath>
  </defs>
</svg>