<svg width="127" height="62" viewBox="0 0 127 62" fill="none" xmlns="http://www.w3.org/2000/svg">
  <g clip-path="url(#clip0_1_3840)">
    <g clip-path="url(#clip1_1_3840)">
      <mask id="mask0_1_3840" style="mask-type:luminance" maskUnits="userSpaceOnUse" x="0" y="40" width="127"
        height="22">
        <path d="M0.598633 40.459H126.35V61.4776H0.598633V40.459Z" fill="white" />
      </mask>
      <g mask="url(#mask0_1_3840)">
        <path fill-rule="evenodd" clip-rule="evenodd"
          d="M66.3621 41.5601V40.724H61.0736V50.2721H62.0058V46.1121H65.3479V45.2759H62.0058V41.5601H66.3621ZM57.5581 43.3783C57.5581 44.6357 56.6789 45.4616 55.2965 45.4616H53.6308C53.7923 45.6178 57.9103 50.2286 57.9527 50.2798H59.1311C58.914 50.0455 55.3243 46.0762 55.3243 46.0762H55.8381C57.3145 46.0762 58.5618 44.8726 58.5618 43.4437C58.5618 41.8585 57.3145 40.7189 55.5812 40.7189H52.4669V50.2798H53.4004V41.5563H55.3389C56.8682 41.5563 57.5581 42.6191 57.5581 43.3783ZM49.1195 45.4475C49.1195 43.144 47.3995 41.4539 45.0015 41.4539C42.6181 41.4539 40.9656 43.1043 40.9656 45.4872C40.9656 47.7408 42.8061 49.5743 45.0558 49.5743C47.087 49.5743 49.1195 48.1595 49.1195 45.4475ZM50.1219 45.5128C50.1219 48.2901 47.9 50.4514 45.0558 50.4514C42.156 50.4514 39.9619 48.3157 39.9619 45.4872C39.9619 42.6716 42.1295 40.5499 44.9896 40.5499C47.9688 40.5499 50.1219 42.6447 50.1219 45.5128ZM32.9454 41.532H31.281V49.4693H32.8236C35.4917 49.4693 37.0767 47.6883 37.0767 45.4475C37.0767 43.1299 35.358 41.532 32.9454 41.532ZM32.8104 50.2798H30.3449V40.7189H32.866C35.9379 40.7189 38.0658 42.5794 38.0658 45.4373C38.0658 48.3157 35.9115 50.2798 32.8104 50.2798ZM28.5838 50.2798V49.4437H24.5876V40.7189H23.6541V50.2798H28.5838ZM15.5519 47.6626H19.7665L17.6665 42.5934L15.5519 47.6626ZM17.6665 40.459L21.9195 50.2798H20.8907L20.1187 48.4872H15.201L14.4423 50.2798H13.4134L17.6665 40.459ZM4.58025 50.5436L7.18081 44.4654L9.78137 50.5436L13.763 40.7189H12.7341L9.74032 48.2901L7.16757 42.3566L4.64778 48.3157L1.62747 40.7189H0.598633L4.58025 50.5436ZM125.293 41.0954H125.068V41.4923H125.271C125.406 41.4923 125.501 41.4142 125.501 41.2797C125.501 41.1965 125.419 41.0954 125.293 41.0954ZM125.566 42.1466L125.068 41.5883V42.1466H124.881V40.9251H125.305C125.539 40.9251 125.696 41.0877 125.696 41.2861C125.696 41.4808 125.525 41.6357 125.337 41.6357L125.803 42.1466H125.566ZM125.261 40.6639C124.749 40.6639 124.331 41.0672 124.331 41.5653C124.331 42.0608 124.749 42.4641 125.261 42.4641C125.775 42.4641 126.195 42.0608 126.195 41.5653C126.195 41.0672 125.775 40.6639 125.261 40.6639ZM125.261 42.6152C124.662 42.6152 124.174 42.1415 124.174 41.5614C124.174 40.9801 124.662 40.5076 125.261 40.5076C125.863 40.5076 126.35 40.9801 126.35 41.5614C126.35 42.1415 125.863 42.6152 125.261 42.6152ZM117.95 47.6626H122.162L120.062 42.5934L117.95 47.6626ZM120.062 40.459L124.315 50.2798H123.286L122.514 48.4872H117.597L116.837 50.2798H115.809L120.062 40.459ZM113.682 50.2811H114.617V40.7189H113.682V50.2811ZM110.173 43.3783C110.173 44.6357 109.294 45.4616 107.912 45.4616H106.244C106.407 45.6178 110.527 50.2286 110.565 50.2798H111.745C111.528 50.0455 107.939 46.0762 107.939 46.0762H108.453C109.928 46.0762 111.175 44.8726 111.175 43.4437C111.175 41.8585 109.928 40.7189 108.195 40.7189H105.081V50.2798H106.015V41.5563H107.951C109.482 41.5563 110.173 42.6191 110.173 43.3783ZM101.733 45.4475C101.733 43.144 100.013 41.4539 97.6165 41.4539C95.2331 41.4539 93.5806 43.1043 93.5806 45.4872C93.5806 47.7408 95.4212 49.5743 97.6708 49.5743C99.7007 49.5743 101.733 48.1595 101.733 45.4475ZM102.736 45.5128C102.736 48.2901 100.515 50.4514 97.6708 50.4514C94.771 50.4514 92.577 48.3157 92.577 45.4872C92.577 42.6716 94.7445 40.5499 97.6033 40.5499C100.584 40.5499 102.736 42.6447 102.736 45.5128ZM91.9798 41.5563V40.7189H86.8078V41.5563H88.9198V50.2798H89.8678V41.5563H91.9798ZM83.4194 50.4386C84.8693 50.4386 86.0067 49.3912 86.0067 47.8854C86.0067 46.614 85.1937 45.8022 83.8669 45.0416C82.7573 44.4129 81.9986 44.0326 81.9986 42.8931C81.9986 41.952 82.6739 41.4014 83.4194 41.4014C84.0695 41.4014 84.6111 41.6357 85.1937 42.1351L85.7763 41.4667C85.1262 40.8649 84.3423 40.5627 83.4061 40.5627C82.0529 40.5627 81.0347 41.5179 81.0347 42.9328C81.0347 44.3079 81.9708 45.0416 83.3121 45.8022C84.476 46.4565 85.0322 46.9264 85.0322 47.9367C85.0322 48.9315 84.4217 49.5884 83.4472 49.5884C82.5812 49.5884 82.0251 49.299 81.4425 48.8009L80.8718 49.4565C81.6053 50.1108 82.3641 50.4386 83.4194 50.4386ZM73.7758 47.6626H77.9879L75.8878 42.5934L73.7758 47.6626ZM75.8878 40.459L80.1409 50.2798H79.1134L78.3401 48.4872H73.4223L72.6649 50.2798H71.6348L75.8878 40.459ZM91.3575 61.472C92.0817 61.472 92.6524 60.9458 92.6524 60.1941C92.6524 59.5578 92.2459 59.1519 91.5826 58.7703C91.0264 58.4566 90.6451 58.2671 90.6451 57.696C90.6451 57.2248 90.9841 56.9496 91.3575 56.9496C91.6832 56.9496 91.9546 57.0661 92.2459 57.317L92.5372 56.9816C92.2115 56.6819 91.8182 56.5296 91.3508 56.5296C90.6729 56.5296 90.1657 57.0097 90.1657 57.7153C90.1657 58.4054 90.6332 58.7703 91.3032 59.1519C91.8858 59.4784 92.1638 59.7153 92.1638 60.2198C92.1638 60.7178 91.8593 61.0469 91.3707 61.0469C90.9364 61.0469 90.661 60.9009 90.3683 60.6525L90.0837 60.979C90.4504 61.3081 90.8291 61.472 91.3575 61.472ZM89.4534 57.0277V56.609H86.8647V57.0277H87.9227V61.3926H88.3954V57.0277H89.4534ZM85.7127 57.938C85.7127 58.568 85.2718 58.9803 84.582 58.9803H83.7464C83.8272 59.061 85.8889 61.367 85.9087 61.3939H86.4993C86.3894 61.2748 84.5952 59.2902 84.5952 59.2902H84.8521C85.5909 59.2902 86.2146 58.6858 86.2146 57.9726C86.2146 57.1775 85.5909 56.609 84.7236 56.609H83.1652V61.3939H83.6312V57.0277H84.6018C85.3671 57.0277 85.7127 57.559 85.7127 57.938ZM81.4915 58.9752C81.4915 57.8202 80.6308 56.9764 79.4298 56.9764C78.2381 56.9764 77.4105 57.801 77.4105 58.9931C77.4105 60.1212 78.3321 61.0379 79.4576 61.0379C80.4745 61.0379 81.4915 60.3312 81.4915 58.9752ZM81.9933 59.0072C81.9933 60.3977 80.8797 61.4784 79.4576 61.4784C78.0077 61.4784 76.9087 60.4093 76.9087 58.9931C76.9087 57.5859 77.9932 56.5232 79.4232 56.5232C80.9142 56.5232 81.9933 57.5706 81.9933 59.0072ZM74.8696 61.472C75.5952 61.472 76.1646 60.9458 76.1646 60.1941C76.1646 59.5578 75.758 59.1519 75.0933 58.7703C74.5372 58.4566 74.1585 58.2671 74.1585 57.696C74.1585 57.2248 74.4975 56.9496 74.8696 56.9496C75.1953 56.9496 75.4667 57.0661 75.758 57.317L76.0494 56.9816C75.7236 56.6819 75.3304 56.5296 74.863 56.5296C74.185 56.5296 73.6765 57.0097 73.6765 57.7153C73.6765 58.4054 74.144 58.7703 74.8153 59.1519C75.3979 59.4784 75.6773 59.7153 75.6773 60.2198C75.6773 60.7178 75.3714 61.0469 74.8841 61.0469C74.4511 61.0469 74.1718 60.9009 73.8805 60.6525L73.5944 60.979C73.9612 61.3081 74.3412 61.472 74.8696 61.472ZM72.7139 61.3926V60.9739H70.4364V59.2953H72.5179V58.8753H70.4364V57.0277H72.5868V56.609H69.969V61.3926H72.7139ZM68.2146 57.938C68.2146 58.568 67.7736 58.9803 67.0825 58.9803H66.2509C66.3304 59.061 68.3907 61.367 68.4119 61.3939H69.0011C68.8925 61.2748 67.0957 59.2902 67.0957 59.2902H67.3539C68.0914 59.2902 68.7164 58.6858 68.7164 57.9726C68.7164 57.1775 68.0914 56.609 67.2255 56.609H65.6656V61.3939H66.1331V57.0277H67.1023C67.869 57.0277 68.2146 57.559 68.2146 57.938ZM60.4274 59.0661C60.0289 59.3478 59.6489 59.7089 59.6489 60.1865C59.6489 60.6717 60.0289 61.0648 60.5426 61.0648C61.0312 61.0648 61.4444 60.8612 61.79 60.5732L60.4274 59.0661ZM60.5771 56.9239C60.2249 56.9239 59.919 57.1775 59.919 57.545C59.919 57.801 60.0143 57.9854 60.2447 58.2351L60.5095 58.5219C60.8207 58.3145 61.2285 57.9777 61.2285 57.5706C61.2285 57.1852 60.977 56.9239 60.5771 56.9239ZM62.5156 61.3926L62.0468 60.8817C61.6205 61.2223 61.1464 61.472 60.5426 61.472C59.7839 61.472 59.1748 60.9266 59.1748 60.2262C59.1748 59.5834 59.6621 59.0866 60.1573 58.7575L59.8581 58.431C59.6356 58.1813 59.4529 57.8932 59.4529 57.559C59.4529 56.988 59.9733 56.5296 60.5705 56.5296C61.2338 56.5296 61.6814 56.9764 61.6814 57.5514C61.6814 58.1032 61.2074 58.5027 60.773 58.8164L62.1157 60.2787C62.2786 60.1212 62.4202 59.9573 62.5553 59.7819L62.8731 60.0687C62.7261 60.2454 62.5619 60.431 62.3858 60.5924L63.118 61.3926H62.5156ZM55.3044 61.472C56.0301 61.472 56.5994 60.9458 56.5994 60.1941C56.5994 59.5578 56.1929 59.1519 55.5282 58.7703C54.9721 58.4566 54.5934 58.2671 54.5934 57.696C54.5934 57.2248 54.931 56.9496 55.3044 56.9496C55.6302 56.9496 55.9003 57.0661 56.1929 57.317L56.4842 56.9816C56.1585 56.6819 55.7639 56.5296 55.2978 56.5296C54.6212 56.5296 54.1114 57.0097 54.1114 57.7153C54.1114 58.4054 54.5788 58.7703 55.2502 59.1519C55.8341 59.4784 56.1108 59.7153 56.1108 60.2198C56.1108 60.7178 55.8063 61.0469 55.3177 61.0469C54.8834 61.0469 54.6066 60.9009 54.3153 60.6525L54.0293 60.979C54.3974 61.3081 54.7761 61.472 55.3044 61.472ZM53.3805 61.3926V60.9739H51.3811V56.609H50.9124V61.3926H53.3805ZM49.7008 61.3926V60.9739H47.422V59.2953H49.5035V58.8753H47.422V57.0277H49.571V56.609H46.9559V61.3926H49.7008ZM45.9933 57.0277V56.609H43.4046V57.0277H44.4626V61.3926H44.9366V57.0277H45.9933ZM42.4354 58.9752C42.4354 57.8202 41.5747 56.9764 40.3764 56.9764C39.182 56.9764 38.3558 57.801 38.3558 58.9931C38.3558 60.1212 39.2774 61.0379 40.4029 61.0379C41.4184 61.0379 42.4354 60.3312 42.4354 58.9752ZM42.9372 59.0072C42.9372 60.3977 41.8263 61.4784 40.4029 61.4784C38.9516 61.4784 37.8539 60.4093 37.8539 58.9931C37.8539 57.5859 38.9397 56.5232 40.3684 56.5232C41.8594 56.5232 42.9372 57.5706 42.9372 59.0072ZM36.6821 61.3926V56.609H36.2081V58.7383H33.5572V56.609H33.0898V61.3926H33.5572V59.1634H36.2081V61.3926H36.6821Z"
          fill="#58595B" />
      </g>
      <path fill-rule="evenodd" clip-rule="evenodd"
        d="M57.448 22.3367L57.0345 23.2064L46.8409 0.918971H47.6285L57.448 22.3367ZM56.6119 0.918971H57.4009L67.2191 22.3367L66.8043 23.2064L56.6119 0.918971ZM67.4035 3.10634L67.8144 2.22743L78.7251 26.0823H77.9361L67.4035 3.10634ZM49.3137 0.5H43.5908V0.918971H44.6101L56.5151 26.4286L61.4491 16.0627L66.2849 26.4286L71.2044 16.0971L75.7066 26.0823H74.8692V26.5H80.5908V26.0823H79.5729L67.6574 0.552867L63.2795 9.92883L63.744 10.9412L66.3555 5.34791L69.5611 12.4559H64.44L64.7855 13.2079H69.9013L70.2205 13.9163H65.1112L65.454 14.6631H70.5555L70.7098 15.0027L67.571 21.5966L58.2474 0.918971H59.1829V0.5H53.4587V0.918971H54.4766L60.9335 15.012L57.7999 21.5966L48.475 0.918971H49.3137V0.5ZM73.0571 10.1562L77.3787 0.918971H74.8601V0.5H80.5843V0.918971H78.309L73.5321 11.1699L73.0571 10.1562Z"
        fill="#58595B" />
    </g>
  </g>
  <defs>
    <clipPath id="clip0_1_3840">
      <rect width="126" height="61" fill="white" transform="translate(0.59082 0.5)" />
    </clipPath>
    <clipPath id="clip1_1_3840">
      <rect width="126" height="61" fill="white" transform="translate(0.59082 0.5)" />
    </clipPath>
  </defs>
</svg>