<svg width="164" height="62" viewBox="0 0 164 62" fill="none" xmlns="http://www.w3.org/2000/svg">
<path d="M32.4256 34.1506H33.5585V36.8506H36.504V34.1506H37.6368V40.6046H36.504V37.8809H33.5132V40.6046H32.3803L32.4256 34.1506ZM39.5174 37.3954C39.5174 36.5003 39.8576 35.6418 40.4631 35.0089C41.0685 34.3759 41.8898 34.0204 42.7461 34.0204C43.6024 34.0204 44.4236 34.3759 45.0291 35.0089C45.6346 35.6418 45.9747 36.5003 45.9747 37.3954C45.9747 38.2905 45.6346 39.1489 45.0291 39.7818C44.4236 40.4148 43.6024 40.7704 42.7461 40.7704C41.8898 40.7704 41.0685 40.4148 40.4631 39.7818C39.8576 39.1489 39.5174 38.2905 39.5174 37.3954ZM44.8305 37.3954C44.8412 37.1002 44.7949 36.8058 44.6945 36.5297C44.5941 36.2536 44.4416 36.0015 44.2461 35.7883C44.0505 35.575 43.816 35.4051 43.5563 35.2885C43.2967 35.172 43.0173 35.1112 42.7347 35.1098C42.4537 35.1095 42.1755 35.1689 41.9171 35.2844C41.6587 35.3999 41.4255 35.5691 41.2315 35.7818C41.0376 35.9944 40.8871 36.2461 40.7891 36.5214C40.6912 36.7968 40.6478 37.0901 40.6616 37.3835C40.651 37.6787 40.6972 37.9731 40.7976 38.2492C40.898 38.5252 41.0505 38.7774 41.2461 38.9906C41.4416 39.2039 41.6762 39.3738 41.9358 39.4903C42.1954 39.6069 42.4748 39.6677 42.7574 39.669C43.0422 39.6759 43.3254 39.6213 43.5891 39.5087C43.8529 39.3961 44.0916 39.2279 44.2904 39.0145C44.4892 38.8012 44.6438 38.5473 44.7445 38.2687C44.8452 37.9901 44.8899 37.6928 44.8759 37.3954H44.8305ZM49.2147 35.2046H47.2662V34.1506H52.2735V35.2046H50.3136V40.6046H49.1808L49.2147 35.2046ZM54.1201 34.1506H58.6515V35.169H55.2076V36.8506H58.3003V37.869H55.2076V39.598H58.7761V40.6164H54.1201V34.1506ZM60.736 34.1506H61.8689V39.5743H65.1089V40.6046H60.736V34.1506ZM66.491 39.6572L67.1367 38.8519C67.6605 39.3808 68.3571 39.6814 69.0852 39.6927C69.7536 39.6927 70.2181 39.3612 70.2181 38.8756C70.2181 38.4138 69.9689 38.1651 68.8247 37.8809C67.5105 37.5493 66.7629 37.1467 66.7629 35.9625C66.7751 35.6918 66.8405 35.4266 66.9548 35.1834C67.0692 34.9402 67.2302 34.7242 67.4278 34.5487C67.6254 34.3733 67.8554 34.2421 68.1034 34.1635C68.3515 34.0848 68.6124 34.0603 68.87 34.0914C69.6951 34.0671 70.5005 34.3576 71.1357 34.9085L70.558 35.7612C70.0821 35.3569 69.494 35.1243 68.8813 35.098C68.2469 35.098 67.8731 35.4414 67.8731 35.8677C67.8731 36.3651 68.1563 36.5901 69.3458 36.8862C70.5353 37.1822 71.2377 37.6796 71.2377 38.7454C71.2377 39.9296 70.3314 40.6756 69.0399 40.6756C68.0985 40.6805 67.1893 40.3173 66.491 39.6572ZM80.0514 39.8585C79.5531 40.384 78.8785 40.6856 78.1708 40.6993C77.9203 40.7272 77.667 40.7005 77.4269 40.621C77.1867 40.5415 76.9649 40.4109 76.7755 40.2373C76.586 40.0637 76.4331 39.851 76.3261 39.6126C76.2192 39.3742 76.1607 39.1152 76.1543 38.8519C76.1623 38.445 76.294 38.0512 76.5302 37.7277C76.7665 37.4041 77.0951 37.1674 77.4684 37.0519C77.1191 36.6814 76.9167 36.1864 76.902 35.6664C76.9102 35.4354 76.9636 35.2086 77.0588 35C77.1541 34.7913 77.2891 34.6053 77.4558 34.4533C77.6224 34.3013 77.817 34.1866 78.0277 34.1162C78.2383 34.0458 78.4605 34.0213 78.6806 34.044C78.887 34.0279 79.0944 34.0558 79.2902 34.1259C79.486 34.1961 79.6661 34.307 79.8197 34.452C79.9733 34.5971 80.0971 34.7732 80.1837 34.9697C80.2702 35.1662 80.3177 35.3791 80.3233 35.5954C80.3233 36.4362 79.7795 36.9454 78.9638 37.2651L80.0174 38.3901C80.2698 37.9938 80.4932 37.5781 80.6858 37.1467L81.5014 37.5967C81.2649 38.1116 80.9843 38.603 80.6631 39.0651L81.6374 40.0954L80.8331 40.7112L80.0514 39.8585ZM79.4396 39.219L78.0349 37.7269C77.8082 37.7928 77.6068 37.9309 77.4586 38.1219C77.3104 38.3128 77.2228 38.5473 77.2079 38.7927C77.2134 38.9261 77.2449 39.057 77.3005 39.1773C77.356 39.2975 77.4344 39.4047 77.5309 39.4923C77.6273 39.5798 77.7399 39.6459 77.8616 39.6865C77.9833 39.727 78.1116 39.7413 78.2388 39.7283C78.6875 39.7297 79.1187 39.5468 79.4396 39.219ZM79.4396 35.6664C79.4445 35.5687 79.4297 35.4709 79.3961 35.3795C79.3626 35.2881 79.311 35.2051 79.2448 35.1359C79.1786 35.0667 79.0992 35.0128 79.0117 34.9777C78.9243 34.9426 78.8308 34.9271 78.7373 34.9322C78.6383 34.927 78.5393 34.9437 78.447 34.9813C78.3546 35.0189 78.2709 35.0765 78.2013 35.1503C78.1318 35.2241 78.0779 35.3125 78.0434 35.4096C78.0089 35.5067 77.9944 35.6104 78.0009 35.7138C78.0126 35.8981 78.0598 36.078 78.1396 36.2429C78.2194 36.4077 78.3302 36.554 78.4654 36.673C79.0658 36.448 79.4056 36.1401 79.4056 35.6664H79.4396ZM86.7919 34.1506H89.5448C90.1947 34.114 90.8326 34.3434 91.3234 34.7901C91.6628 35.1675 91.846 35.6697 91.8332 36.1875C91.848 36.6407 91.7097 37.085 91.4424 37.4423C91.1752 37.7996 90.7962 38.0471 90.3718 38.1414L92.0371 40.5809H90.757L89.2389 38.3309H87.8795V40.5809H86.7466L86.7919 34.1506ZM89.4655 37.348C90.2359 37.348 90.7343 36.9217 90.7343 36.2704C90.7343 35.5835 90.2585 35.2046 89.4542 35.2046H87.8795V37.3717L89.4655 37.348ZM93.895 34.1506H98.4265V35.169H94.9599V36.8506H98.0526V37.869H94.9599V39.598H98.4945V40.6164H93.895V34.1506ZM100.069 39.6572L100.726 38.8519C101.25 39.3808 101.947 39.6814 102.675 39.6927C103.343 39.6927 103.808 39.3612 103.808 38.8756C103.808 38.4138 103.57 38.1651 102.414 37.8809C101.259 37.5967 100.364 37.1467 100.364 35.9625C100.376 35.6918 100.441 35.4266 100.556 35.1834C100.67 34.9402 100.831 34.7242 101.029 34.5487C101.226 34.3733 101.456 34.2421 101.704 34.1635C101.952 34.0848 102.213 34.0603 102.471 34.0914C103.296 34.0671 104.101 34.3576 104.737 34.9085L104.147 35.7612C103.675 35.3593 103.091 35.1268 102.482 35.098C101.848 35.098 101.474 35.4414 101.474 35.8677C101.474 36.3651 101.757 36.5901 102.947 36.8862C104.136 37.1822 104.918 37.7033 104.918 38.769C104.918 39.9533 104.012 40.6993 102.72 40.6993C101.741 40.7225 100.791 40.3491 100.069 39.6572ZM106.56 37.3954C106.56 36.5003 106.901 35.6418 107.506 35.0089C108.112 34.3759 108.933 34.0204 109.789 34.0204C110.645 34.0204 111.467 34.3759 112.072 35.0089C112.678 35.6418 113.018 36.5003 113.018 37.3954C113.018 38.2905 112.678 39.1489 112.072 39.7818C111.467 40.4148 110.645 40.7704 109.789 40.7704C108.933 40.7704 108.112 40.4148 107.506 39.7818C106.901 39.1489 106.56 38.2905 106.56 37.3954ZM111.874 37.3954C111.887 37.0963 111.843 36.7974 111.742 36.5169C111.642 36.2364 111.488 35.9803 111.29 35.7642C111.092 35.5481 110.853 35.3765 110.589 35.2599C110.325 35.1433 110.042 35.0842 109.755 35.0862C109.474 35.0858 109.196 35.1452 108.938 35.2607C108.679 35.3762 108.446 35.5454 108.252 35.7581C108.058 35.9707 107.908 36.2224 107.81 36.4978C107.712 36.7731 107.668 37.0664 107.682 37.3598C107.67 37.654 107.714 37.9477 107.813 38.2236C107.911 38.4995 108.061 38.7521 108.254 38.9662C108.448 39.1804 108.68 39.3519 108.938 39.4706C109.196 39.5893 109.474 39.6527 109.755 39.6572C110.039 39.664 110.321 39.6097 110.584 39.4978C110.847 39.386 111.085 39.2188 111.284 39.0067C111.482 38.7947 111.637 38.5422 111.739 38.265C111.84 37.9879 111.886 37.6919 111.874 37.3954ZM115.034 34.1506H117.787C118.437 34.1115 119.076 34.3412 119.566 34.7901C119.905 35.1675 120.088 35.6697 120.076 36.1875C120.09 36.6407 119.952 37.085 119.685 37.4423C119.418 37.7996 119.039 38.0471 118.614 38.1414L120.279 40.5809H118.999L117.481 38.3309H116.122V40.5809H114.989L115.034 34.1506ZM117.708 37.348C118.478 37.348 118.977 36.9217 118.977 36.2704C118.977 35.5835 118.501 35.2046 117.697 35.2046H116.122V37.3717L117.708 37.348ZM123.61 35.2046H121.65V34.1506H126.658V35.2046H124.698V40.6046H123.565L123.61 35.2046ZM127.96 39.6572L128.617 38.8519C129.141 39.3808 129.838 39.6814 130.566 39.6927C131.234 39.6927 131.699 39.3612 131.699 38.8756C131.699 38.4138 131.461 38.1651 130.305 37.8809C129.15 37.5967 128.255 37.1467 128.255 35.9625C128.267 35.6918 128.332 35.4266 128.447 35.1834C128.561 34.9402 128.722 34.7242 128.92 34.5487C129.117 34.3733 129.347 34.2421 129.595 34.1635C129.844 34.0848 130.104 34.0603 130.362 34.0914C131.187 34.0671 131.992 34.3576 132.628 34.9085L132.039 35.7612C131.566 35.3593 130.982 35.1268 130.373 35.098C129.728 35.098 129.365 35.4414 129.365 35.8677C129.365 36.3651 129.648 36.5901 130.838 36.8862C132.027 37.1822 132.809 37.7033 132.809 38.769C132.809 39.9533 131.903 40.6993 130.611 40.6993C129.632 40.7225 128.682 40.3491 127.96 39.6572ZM18.9785 4.01246H22.0146L25.8324 16.3993L29.7634 3.9651H32.1424L36.1188 16.3993L39.8799 4.01246H42.8254L37.2517 20.8401H34.8273L30.9076 8.8322L26.9766 20.8401H24.5522L18.9785 4.01246ZM49.9511 14.1375L43.607 4.01246H46.915L51.3898 11.4138L55.9213 4.01246H59.1387L52.7833 14.0664V20.7217H49.9511V14.1375ZM60.6907 4.01246H63.3076L71.8608 15.5348V4.01246H74.6363V20.7217H72.2686L63.4549 8.87957V20.7217H60.6907V4.01246ZM78.2841 4.01246H84.243C89.2729 4.01246 92.7395 7.5651 92.7395 12.3019C92.7395 17.0388 89.2729 20.5914 84.243 20.5914H78.2841V4.01246ZM84.243 18.0454C84.9699 18.0955 85.6988 17.9857 86.3827 17.7232C87.0665 17.4606 87.6901 17.0511 88.2132 16.5211C88.7362 15.991 89.1472 15.3522 89.4195 14.6459C89.6918 13.9396 89.8194 13.1814 89.794 12.4204C89.8222 11.6559 89.697 10.8937 89.4264 10.1828C89.1559 9.47192 88.746 8.8281 88.2232 8.29272C87.7004 7.75735 87.0762 7.34228 86.3907 7.0742C85.7052 6.80612 84.9736 6.69097 84.243 6.73615H81.0936V18.0927L84.243 18.0454ZM95.6849 4.01246H98.4945V10.9638H106.13V4.01246H108.939V20.7217H106.13V13.6756H98.4945V20.7217H95.6849V4.01246ZM118.263 3.89404H120.857L127.881 20.7217H124.913L123.35 16.719H115.793L114.151 20.7454H111.228L118.263 3.89404ZM122.273 14.0901L119.509 7.39931L116.768 14.0901H122.273ZM129.728 4.01246H132.718L137.578 11.9111L142.45 4.01246H145.44V20.7217H142.608V8.73746L137.556 16.6125H137.465L132.492 8.78483V20.7217H129.728V4.01246Z" fill="white"/>
<path fill-rule="evenodd" clip-rule="evenodd" d="M3.0166 30.5033C3.0166 30.5033 24.5411 23.481 82.0907 23.481C140.048 23.481 161.482 30.4678 161.482 30.4678C161.482 30.4678 135.268 25.6717 82.0907 25.6717C28.9139 25.6717 3.0166 30.5033 3.0166 30.5033Z" fill="white"/>
<path d="M3.92924 59.1401V48.9583H10.0344V50.0521H5.1622V53.4924H9.57697V54.5862H5.1622V59.1401H3.92924ZM11.9049 59.1401V51.5038H13.0384V52.6572H13.118C13.2572 52.2793 13.5091 51.9728 13.8737 51.7374C14.2383 51.5021 14.6492 51.3845 15.1066 51.3845C15.1928 51.3845 15.3005 51.3861 15.4298 51.3894C15.559 51.3927 15.6568 51.3977 15.7231 51.4043V52.5975C15.6833 52.5876 15.5922 52.5727 15.4497 52.5528C15.3105 52.5296 15.163 52.518 15.0072 52.518C14.636 52.518 14.3045 52.5959 14.0129 52.7516C13.7245 52.9041 13.4958 53.1162 13.3268 53.388C13.1611 53.6565 13.0782 53.9631 13.0782 54.3078V59.1401H11.9049ZM19.3611 59.3191C18.8772 59.3191 18.438 59.228 18.0436 59.0457C17.6492 58.8601 17.336 58.5933 17.104 58.2453C16.872 57.8939 16.7559 57.4697 16.7559 56.9725C16.7559 56.535 16.8421 56.1804 17.0145 55.9086C17.1868 55.6335 17.4172 55.4181 17.7055 55.2623C17.9939 55.1065 18.3121 54.9905 18.6601 54.9143C19.0114 54.8347 19.3644 54.7718 19.719 54.7254C20.183 54.6657 20.5592 54.621 20.8476 54.5911C21.1392 54.558 21.3514 54.5033 21.4839 54.4271C21.6198 54.3508 21.6878 54.2183 21.6878 54.0293V53.9896C21.6878 53.499 21.5535 53.1179 21.2851 52.8461C21.0199 52.5743 20.6172 52.4384 20.077 52.4384C19.5168 52.4384 19.0777 52.5611 18.7595 52.8063C18.4413 53.0516 18.2176 53.3134 18.0883 53.5918L16.9747 53.1941C17.1736 52.7301 17.4387 52.3688 17.7702 52.1103C18.1049 51.8485 18.4695 51.6662 18.8639 51.5634C19.2616 51.4574 19.6527 51.4043 20.0372 51.4043C20.2825 51.4043 20.5642 51.4342 20.8824 51.4938C21.2039 51.5502 21.5138 51.6678 21.8121 51.8468C22.1137 52.0258 22.3639 52.2959 22.5628 52.6572C22.7616 53.0185 22.8611 53.5024 22.8611 54.1089V59.1401H21.6878V58.106H21.6281C21.5486 58.2718 21.416 58.4491 21.2304 58.638C21.0448 58.8269 20.7979 58.9877 20.4896 59.1203C20.1814 59.2528 19.8052 59.3191 19.3611 59.3191ZM19.54 58.2651C20.0041 58.2651 20.3952 58.174 20.7133 57.9917C21.0348 57.8094 21.2768 57.5741 21.4392 57.2857C21.6049 56.9974 21.6878 56.6941 21.6878 56.3759V55.3021C21.6381 55.3617 21.5287 55.4164 21.3596 55.4661C21.1939 55.5125 21.0017 55.554 20.7829 55.5904C20.5675 55.6236 20.357 55.6534 20.1515 55.6799C19.9494 55.7031 19.7853 55.723 19.6594 55.7396C19.3544 55.7793 19.0694 55.844 18.8042 55.9335C18.5424 56.0196 18.3303 56.1506 18.1679 56.3262C18.0088 56.4986 17.9292 56.7339 17.9292 57.0322C17.9292 57.4399 18.08 57.7481 18.3817 57.9569C18.6866 58.1624 19.0727 58.2651 19.54 58.2651ZM26.1759 54.5464V59.1401H25.0026V51.5038H26.1361V52.697H26.2355C26.4145 52.3092 26.6863 51.9976 27.0509 51.7623C27.4155 51.5237 27.8861 51.4043 28.4628 51.4043C28.9798 51.4043 29.4323 51.5104 29.82 51.7225C30.2078 51.9313 30.5094 52.2495 30.7249 52.6771C30.9403 53.1013 31.048 53.6382 31.048 54.2879V59.1401H29.8747V54.3674C29.8747 53.7675 29.719 53.3002 29.4074 52.9654C29.0959 52.6274 28.6683 52.4583 28.1247 52.4583C27.7502 52.4583 27.4155 52.5395 27.1205 52.7019C26.8288 52.8643 26.5985 53.1013 26.4294 53.4129C26.2604 53.7244 26.1759 54.1023 26.1759 54.5464ZM36.2943 59.2992C35.5784 59.2992 34.9619 59.1302 34.4449 58.7921C33.9278 58.4541 33.5301 57.9884 33.2517 57.3951C32.9733 56.8018 32.8341 56.124 32.8341 55.3617C32.8341 54.5862 32.9766 53.9017 33.2616 53.3085C33.55 52.7119 33.951 52.2462 34.4648 51.9114C34.9818 51.5734 35.585 51.4043 36.2744 51.4043C36.8113 51.4043 37.2952 51.5038 37.7261 51.7026C38.157 51.9015 38.51 52.1799 38.7851 52.5379C39.0602 52.8958 39.2309 53.3134 39.2971 53.7907H38.1238C38.0344 53.4427 37.8355 53.1345 37.5273 52.866C37.2223 52.5942 36.8113 52.4583 36.2943 52.4583C35.8369 52.4583 35.4359 52.5776 35.0912 52.8163C34.7498 53.0516 34.483 53.3847 34.2907 53.8156C34.1018 54.2431 34.0074 54.7453 34.0074 55.322C34.0074 55.9119 34.1002 56.4256 34.2858 56.8631C34.4747 57.3006 34.7398 57.6404 35.0812 57.8823C35.4259 58.1243 35.8303 58.2453 36.2943 58.2453C36.5992 58.2453 36.876 58.1922 37.1246 58.0862C37.3731 57.9801 37.5836 57.8276 37.7559 57.6288C37.9283 57.4299 38.0509 57.1913 38.1238 56.9129H39.2971C39.2309 57.3636 39.0668 57.7696 38.805 58.1309C38.5464 58.4889 38.2034 58.7739 37.7758 58.986C37.3516 59.1948 36.8577 59.2992 36.2943 59.2992ZM42.1856 54.5464V59.1401H41.0123V48.9583H42.1856V52.697H42.2851C42.464 52.3025 42.7325 51.9893 43.0905 51.7573C43.4517 51.522 43.9323 51.4043 44.5322 51.4043C45.0526 51.4043 45.5083 51.5087 45.8994 51.7176C46.2905 51.923 46.5938 52.2396 46.8092 52.6671C47.028 53.0914 47.1373 53.6316 47.1373 54.2879V59.1401H45.964V54.3674C45.964 53.7609 45.8066 53.2919 45.4917 52.9604C45.1802 52.6257 44.7477 52.4583 44.1942 52.4583C43.8097 52.4583 43.465 52.5395 43.1601 52.7019C42.8585 52.8643 42.6198 53.1013 42.4442 53.4129C42.2718 53.7244 42.1856 54.1023 42.1856 54.5464ZM49.2838 59.1401V51.5038H50.4571V59.1401H49.2838ZM49.8804 50.231C49.6517 50.231 49.4545 50.1532 49.2888 49.9974C49.1264 49.8416 49.0452 49.6543 49.0452 49.4356C49.0452 49.2168 49.1264 49.0296 49.2888 48.8738C49.4545 48.718 49.6517 48.6401 49.8804 48.6401C50.1091 48.6401 50.3047 48.718 50.4671 48.8738C50.6328 49.0296 50.7156 49.2168 50.7156 49.4356C50.7156 49.6543 50.6328 49.8416 50.4671 49.9974C50.3047 50.1532 50.1091 50.231 49.8804 50.231ZM58.0152 53.214L56.9612 53.5123C56.8949 53.3366 56.7971 53.1659 56.6679 53.0002C56.5419 52.8312 56.3696 52.692 56.1508 52.5826C55.9321 52.4732 55.652 52.4185 55.3106 52.4185C54.8433 52.4185 54.4539 52.5263 54.1423 52.7417C53.8341 52.9538 53.68 53.2239 53.68 53.5521C53.68 53.8437 53.786 54.0741 53.9981 54.2431C54.2103 54.4122 54.5417 54.553 54.9925 54.6657L56.126 54.9441C56.8087 55.1098 57.3175 55.3634 57.6523 55.7048C57.987 56.0428 58.1544 56.4787 58.1544 57.0123C58.1544 57.4498 58.0284 57.8409 57.7765 58.1856C57.528 58.5303 57.18 58.8021 56.7325 59.0009C56.2851 59.1998 55.7647 59.2992 55.1714 59.2992C54.3925 59.2992 53.7479 59.1302 53.2375 58.7921C52.7271 58.4541 52.4039 57.9602 52.268 57.3106L53.3817 57.0322C53.4877 57.4432 53.6882 57.7514 53.9832 57.9569C54.2815 58.1624 54.671 58.2651 55.1515 58.2651C55.6984 58.2651 56.1326 58.1491 56.4541 57.9171C56.7789 57.6818 56.9413 57.4001 56.9413 57.072C56.9413 56.8068 56.8485 56.5847 56.6629 56.4058C56.4773 56.2235 56.1923 56.0876 55.8078 55.9981L54.5351 55.6998C53.8357 55.5341 53.322 55.2772 52.9939 54.9292C52.6691 54.5779 52.5067 54.1387 52.5067 53.6117C52.5067 53.1809 52.6276 52.7997 52.8696 52.4683C53.1148 52.1368 53.4479 51.8766 53.8689 51.6877C54.2931 51.4988 54.7737 51.4043 55.3106 51.4043C56.0663 51.4043 56.6596 51.5701 57.0905 51.9015C57.5247 52.2329 57.8329 52.6704 58.0152 53.214ZM63.1222 59.2992C62.3865 59.2992 61.7517 59.1368 61.2181 58.812C60.6878 58.4839 60.2785 58.0265 59.9901 57.4399C59.7051 56.8499 59.5626 56.1638 59.5626 55.3816C59.5626 54.5994 59.7051 53.91 59.9901 53.3134C60.2785 52.7135 60.6795 52.2462 61.1933 51.9114C61.7103 51.5734 62.3135 51.4043 63.0029 51.4043C63.4007 51.4043 63.7934 51.4706 64.1812 51.6032C64.569 51.7358 64.922 51.9512 65.2401 52.2495C65.5583 52.5445 65.8119 52.9356 66.0008 53.4228C66.1897 53.91 66.2842 54.5099 66.2842 55.2225V55.7197H60.3978V54.7055H65.091C65.091 54.2746 65.0048 53.8901 64.8325 53.5521C64.6634 53.214 64.4215 52.9472 64.1066 52.7516C63.7951 52.5561 63.4272 52.4583 63.0029 52.4583C62.5356 52.4583 62.1312 52.5743 61.7899 52.8063C61.4518 53.035 61.1916 53.3333 61.0093 53.7012C60.827 54.0691 60.7359 54.4635 60.7359 54.8845V55.5606C60.7359 56.1373 60.8353 56.6262 61.0342 57.0272C61.2364 57.4249 61.5164 57.7282 61.8744 57.937C62.2323 58.1425 62.6483 58.2453 63.1222 58.2453C63.4305 58.2453 63.7089 58.2022 63.9575 58.116C64.2094 58.0265 64.4265 57.8939 64.6088 57.7183C64.791 57.5393 64.9319 57.3172 65.0313 57.0521L66.1649 57.3703C66.0455 57.7547 65.845 58.0928 65.5633 58.3845C65.2816 58.6728 64.9336 58.8982 64.5193 59.0606C64.105 59.2197 63.6393 59.2992 63.1222 59.2992ZM80.7565 54.0492C80.7565 55.1231 80.5626 56.0511 80.1748 56.8333C79.787 57.6155 79.2551 58.2187 78.5789 58.643C77.9028 59.0672 77.1305 59.2793 76.2622 59.2793C75.3938 59.2793 74.6215 59.0672 73.9454 58.643C73.2693 58.2187 72.7373 57.6155 72.3495 56.8333C71.9617 56.0511 71.7678 55.1231 71.7678 54.0492C71.7678 52.9754 71.9617 52.0473 72.3495 51.2651C72.7373 50.4829 73.2693 49.8797 73.9454 49.4555C74.6215 49.0312 75.3938 48.8191 76.2622 48.8191C77.1305 48.8191 77.9028 49.0312 78.5789 49.4555C79.2551 49.8797 79.787 50.4829 80.1748 51.2651C80.5626 52.0473 80.7565 52.9754 80.7565 54.0492ZM79.5633 54.0492C79.5633 53.1676 79.4158 52.4235 79.1208 51.817C78.8292 51.2104 78.4331 50.7514 77.9326 50.4399C77.4355 50.1283 76.8786 49.9725 76.2622 49.9725C75.6457 49.9725 75.0872 50.1283 74.5867 50.4399C74.0896 50.7514 73.6935 51.2104 73.3985 51.817C73.1069 52.4235 72.961 53.1676 72.961 54.0492C72.961 54.9309 73.1069 55.6749 73.3985 56.2815C73.6935 56.888 74.0896 57.347 74.5867 57.6586C75.0872 57.9702 75.6457 58.1259 76.2622 58.1259C76.8786 58.1259 77.4355 57.9702 77.9326 57.6586C78.4331 57.347 78.8292 56.888 79.1208 56.2815C79.4158 55.6749 79.5633 54.9309 79.5633 54.0492ZM82.6705 62.0038V51.5038H83.8041V52.7168H83.9433C84.0294 52.5843 84.1488 52.4152 84.3012 52.2097C84.457 52.0009 84.6791 51.8153 84.9674 51.6529C85.2591 51.4872 85.6535 51.4043 86.1507 51.4043C86.7936 51.4043 87.3604 51.5651 87.8509 51.8866C88.3415 52.2081 88.7243 52.6638 88.9994 53.2538C89.2745 53.8437 89.412 54.5398 89.412 55.3418C89.412 56.1506 89.2745 56.8515 88.9994 57.4448C88.7243 58.0348 88.3431 58.4922 87.8559 58.817C87.3687 59.1385 86.8069 59.2992 86.1705 59.2992C85.68 59.2992 85.2873 59.218 84.9923 59.0556C84.6973 58.8899 84.4703 58.7026 84.3112 58.4938C84.1521 58.2817 84.0294 58.106 83.9433 57.9668H83.8438V62.0038H82.6705ZM83.824 55.322C83.824 55.8987 83.9085 56.4074 84.0775 56.8482C84.2465 57.2857 84.4935 57.6288 84.8183 57.8774C85.1431 58.1226 85.5408 58.2453 86.0115 58.2453C86.502 58.2453 86.9113 58.116 87.2394 57.8575C87.5709 57.5956 87.8195 57.2443 87.9852 56.8035C88.1542 56.3594 88.2387 55.8655 88.2387 55.322C88.2387 54.785 88.1559 54.3011 87.9901 53.8703C87.8277 53.4361 87.5808 53.093 87.2494 52.8411C86.9213 52.5859 86.5086 52.4583 86.0115 52.4583C85.5342 52.4583 85.1331 52.5793 84.8083 52.8212C84.4835 53.0599 84.2383 53.3946 84.0725 53.8255C83.9068 54.2531 83.824 54.7519 83.824 55.322ZM91.2018 62.0038V51.5038H92.3353V52.7168H92.4745C92.5607 52.5843 92.68 52.4152 92.8325 52.2097C92.9883 52.0009 93.2103 51.8153 93.4987 51.6529C93.7903 51.4872 94.1847 51.4043 94.6819 51.4043C95.3249 51.4043 95.8917 51.5651 96.3822 51.8866C96.8727 52.2081 97.2555 52.6638 97.5306 53.2538C97.8057 53.8437 97.9433 54.5398 97.9433 55.3418C97.9433 56.1506 97.8057 56.8515 97.5306 57.4448C97.2555 58.0348 96.8744 58.4922 96.3872 58.817C95.8999 59.1385 95.3382 59.2992 94.7018 59.2992C94.2113 59.2992 93.8185 59.218 93.5235 59.0556C93.2285 58.8899 93.0015 58.7026 92.8424 58.4938C92.6833 58.2817 92.5607 58.106 92.4745 57.9668H92.3751V62.0038H91.2018ZM92.3552 55.322C92.3552 55.8987 92.4397 56.4074 92.6088 56.8482C92.7778 57.2857 93.0247 57.6288 93.3495 57.8774C93.6743 58.1226 94.0721 58.2453 94.5427 58.2453C95.0332 58.2453 95.4426 58.116 95.7707 57.8575C96.1021 57.5956 96.3507 57.2443 96.5164 56.8035C96.6855 56.3594 96.77 55.8655 96.77 55.322C96.77 54.785 96.6871 54.3011 96.5214 53.8703C96.359 53.4361 96.1121 53.093 95.7806 52.8411C95.4525 52.5859 95.0399 52.4583 94.5427 52.4583C94.0654 52.4583 93.6644 52.5793 93.3396 52.8212C93.0148 53.0599 92.7695 53.3946 92.6038 53.8255C92.4381 54.2531 92.3552 54.7519 92.3552 55.322ZM102.835 59.2992C102.146 59.2992 101.541 59.1352 101.021 58.807C100.504 58.4789 100.099 58.0199 99.8076 57.4299C99.5193 56.8399 99.3751 56.1506 99.3751 55.3617C99.3751 54.5663 99.5193 53.8719 99.8076 53.2786C100.099 52.6854 100.504 52.2247 101.021 51.8965C101.541 51.5684 102.146 51.4043 102.835 51.4043C103.525 51.4043 104.128 51.5684 104.645 51.8965C105.165 52.2247 105.57 52.6854 105.858 53.2786C106.15 53.8719 106.296 54.5663 106.296 55.3617C106.296 56.1506 106.15 56.8399 105.858 57.4299C105.57 58.0199 105.165 58.4789 104.645 58.807C104.128 59.1352 103.525 59.2992 102.835 59.2992ZM102.835 58.2453C103.359 58.2453 103.79 58.111 104.128 57.8426C104.466 57.5741 104.716 57.2211 104.879 56.7836C105.041 56.3461 105.122 55.8721 105.122 55.3617C105.122 54.8513 105.041 54.3757 104.879 53.9349C104.716 53.4941 104.466 53.1378 104.128 52.866C103.79 52.5942 103.359 52.4583 102.835 52.4583C102.312 52.4583 101.881 52.5942 101.543 52.866C101.205 53.1378 100.954 53.4941 100.792 53.9349C100.63 54.3757 100.548 54.8513 100.548 55.3617C100.548 55.8721 100.63 56.3461 100.792 56.7836C100.954 57.2211 101.205 57.5741 101.543 57.8426C101.881 58.111 102.312 58.2453 102.835 58.2453ZM108.087 59.1401V51.5038H109.22V52.6572H109.3C109.439 52.2793 109.691 51.9728 110.055 51.7374C110.42 51.5021 110.831 51.3845 111.288 51.3845C111.374 51.3845 111.482 51.3861 111.611 51.3894C111.741 51.3927 111.838 51.3977 111.905 51.4043V52.5975C111.865 52.5876 111.774 52.5727 111.631 52.5528C111.492 52.5296 111.345 52.518 111.189 52.518C110.818 52.518 110.486 52.5959 110.195 52.7516C109.906 52.9041 109.677 53.1162 109.508 53.388C109.343 53.6565 109.26 53.9631 109.26 54.3078V59.1401H108.087ZM117.095 51.5038V52.4981H113.138V51.5038H117.095ZM114.291 49.6742H115.464V56.9526C115.464 57.2841 115.512 57.5327 115.609 57.6984C115.708 57.8608 115.834 57.9702 115.986 58.0265C116.142 58.0795 116.306 58.106 116.479 58.106C116.608 58.106 116.714 58.0994 116.797 58.0862C116.88 58.0696 116.946 58.0563 116.996 58.0464L117.234 59.1004C117.155 59.1302 117.044 59.16 116.901 59.1899C116.759 59.223 116.578 59.2396 116.359 59.2396C116.028 59.2396 115.703 59.1683 115.385 59.0258C115.07 58.8833 114.808 58.6662 114.599 58.3745C114.394 58.0828 114.291 57.7149 114.291 57.2708V49.6742ZM123.672 56.018V51.5038H124.846V59.1401H123.672V57.8475H123.593C123.414 58.2353 123.136 58.5651 122.758 58.8369C122.38 59.1053 121.903 59.2396 121.326 59.2396C120.849 59.2396 120.424 59.1352 120.053 58.9264C119.682 58.7142 119.39 58.3961 119.178 57.9718C118.966 57.5443 118.86 57.0057 118.86 56.356V51.5038H120.033V56.2765C120.033 56.8333 120.189 57.2774 120.501 57.6089C120.815 57.9403 121.217 58.106 121.704 58.106C121.995 58.106 122.292 58.0315 122.594 57.8823C122.899 57.7332 123.154 57.5045 123.359 57.1962C123.568 56.888 123.672 56.4953 123.672 56.018ZM128.168 54.5464V59.1401H126.995V51.5038H128.128V52.697H128.228C128.407 52.3092 128.678 51.9976 129.043 51.7623C129.408 51.5237 129.878 51.4043 130.455 51.4043C130.972 51.4043 131.424 51.5104 131.812 51.7225C132.2 51.9313 132.502 52.2495 132.717 52.6771C132.932 53.1013 133.04 53.6382 133.04 54.2879V59.1401H131.867V54.3674C131.867 53.7675 131.711 53.3002 131.4 52.9654C131.088 52.6274 130.66 52.4583 130.117 52.4583C129.742 52.4583 129.408 52.5395 129.113 52.7019C128.821 52.8643 128.591 53.1013 128.422 53.4129C128.253 53.7244 128.168 54.1023 128.168 54.5464ZM135.184 59.1401V51.5038H136.358V59.1401H135.184ZM135.781 50.231C135.552 50.231 135.355 50.1532 135.189 49.9974C135.027 49.8416 134.946 49.6543 134.946 49.4356C134.946 49.2168 135.027 49.0296 135.189 48.8738C135.355 48.718 135.552 48.6401 135.781 48.6401C136.009 48.6401 136.205 48.718 136.367 48.8738C136.533 49.0296 136.616 49.2168 136.616 49.4356C136.616 49.6543 136.533 49.8416 136.367 49.9974C136.205 50.1532 136.009 50.231 135.781 50.231ZM141.828 51.5038V52.4981H137.87V51.5038H141.828ZM139.024 49.6742H140.197V56.9526C140.197 57.2841 140.245 57.5327 140.341 57.6984C140.44 57.8608 140.566 57.9702 140.719 58.0265C140.875 58.0795 141.039 58.106 141.211 58.106C141.34 58.106 141.446 58.0994 141.529 58.0862C141.612 58.0696 141.678 58.0563 141.728 58.0464L141.967 59.1004C141.887 59.1302 141.776 59.16 141.634 59.1899C141.491 59.223 141.31 59.2396 141.092 59.2396C140.76 59.2396 140.435 59.1683 140.117 59.0258C139.802 58.8833 139.541 58.6662 139.332 58.3745C139.126 58.0828 139.024 57.7149 139.024 57.2708V49.6742ZM143.592 59.1401V51.5038H144.766V59.1401H143.592ZM144.189 50.231C143.96 50.231 143.763 50.1532 143.597 49.9974C143.435 49.8416 143.354 49.6543 143.354 49.4356C143.354 49.2168 143.435 49.0296 143.597 48.8738C143.763 48.718 143.96 48.6401 144.189 48.6401C144.418 48.6401 144.613 48.718 144.776 48.8738C144.941 49.0296 145.024 49.2168 145.024 49.4356C145.024 49.6543 144.941 49.8416 144.776 49.9974C144.613 50.1532 144.418 50.231 144.189 50.231ZM150.116 59.2992C149.381 59.2992 148.746 59.1368 148.212 58.812C147.682 58.4839 147.273 58.0265 146.984 57.4399C146.699 56.8499 146.557 56.1638 146.557 55.3816C146.557 54.5994 146.699 53.91 146.984 53.3134C147.273 52.7135 147.674 52.2462 148.187 51.9114C148.704 51.5734 149.308 51.4043 149.997 51.4043C150.395 51.4043 150.788 51.4706 151.175 51.6032C151.563 51.7358 151.916 51.9512 152.234 52.2495C152.552 52.5445 152.806 52.9356 152.995 53.4228C153.184 53.91 153.278 54.5099 153.278 55.2225V55.7197H147.392V54.7055H152.085C152.085 54.2746 151.999 53.8901 151.827 53.5521C151.658 53.214 151.416 52.9472 151.101 52.7516C150.789 52.5561 150.421 52.4583 149.997 52.4583C149.53 52.4583 149.125 52.5743 148.784 52.8063C148.446 53.035 148.186 53.3333 148.003 53.7012C147.821 54.0691 147.73 54.4635 147.73 54.8845V55.5606C147.73 56.1373 147.829 56.6262 148.028 57.0272C148.23 57.4249 148.511 57.7282 148.869 57.937C149.226 58.1425 149.642 58.2453 150.116 58.2453C150.425 58.2453 150.703 58.2022 150.952 58.116C151.204 58.0265 151.421 57.8939 151.603 57.7183C151.785 57.5393 151.926 57.3172 152.025 57.0521L153.159 57.3703C153.04 57.7547 152.839 58.0928 152.557 58.3845C152.276 58.6728 151.928 58.8982 151.513 59.0606C151.099 59.2197 150.633 59.2992 150.116 59.2992ZM160.472 53.214L159.418 53.5123C159.352 53.3366 159.254 53.1659 159.125 53.0002C158.999 52.8312 158.827 52.692 158.608 52.5826C158.389 52.4732 158.109 52.4185 157.768 52.4185C157.3 52.4185 156.911 52.5263 156.599 52.7417C156.291 52.9538 156.137 53.2239 156.137 53.5521C156.137 53.8437 156.243 54.0741 156.455 54.2431C156.667 54.4122 156.999 54.553 157.449 54.6657L158.583 54.9441C159.266 55.1098 159.775 55.3634 160.109 55.7048C160.444 56.0428 160.611 56.4787 160.611 57.0123C160.611 57.4498 160.485 57.8409 160.234 58.1856C159.985 58.5303 159.637 58.8021 159.19 59.0009C158.742 59.1998 158.222 59.2992 157.628 59.2992C156.85 59.2992 156.205 59.1302 155.695 58.7921C155.184 58.4541 154.861 57.9602 154.725 57.3106L155.839 57.0322C155.945 57.4432 156.145 57.7514 156.44 57.9569C156.739 58.1624 157.128 58.2651 157.609 58.2651C158.155 58.2651 158.59 58.1491 158.911 57.9171C159.236 57.6818 159.398 57.4001 159.398 57.072C159.398 56.8068 159.306 56.5847 159.12 56.4058C158.934 56.2235 158.649 56.0876 158.265 55.9981L156.992 55.6998C156.293 55.5341 155.779 55.2772 155.451 54.9292C155.126 54.5779 154.964 54.1387 154.964 53.6117C154.964 53.1809 155.085 52.7997 155.327 52.4683C155.572 52.1368 155.905 51.8766 156.326 51.6877C156.75 51.4988 157.231 51.4043 157.768 51.4043C158.523 51.4043 159.117 51.5701 159.547 51.9015C159.982 52.2329 160.29 52.6704 160.472 53.214Z" fill="white"/>
</svg>
